<svg width="1458" height="965" viewBox="0 0 1458 965" fill="none" xmlns="http://www.w3.org/2000/svg">
<rect width="1458" height="965" fill="#1E1E1E"/>
<g id="Frame 1">
<rect width="1458" height="965" fill="white"/>
<path id="Rectangle 23" d="M348.5 439.511L596 437.5V289.5H657V251.5V213.883H917.5V172.5H1239V375.5H936.5V429.5H962.5C980.674 440.204 987.607 448.216 993.5 466.5H1022C1032.95 490.712 1032.53 504.288 1022 528.5H993.5C986.706 549.115 979.918 557.107 962.5 565H936.5V623H1239V790H816.5V851H689V790H132.5V624H189V569H280C285 528.5 317.5 501.511 348.5 501.511V439.511Z" fill="#7E7E7E"/>
<g id="Group 1" filter="url(#filter0_f_0_1)">
<line id="Line 2" x1="660" y1="467" x2="660" y2="449" stroke="#4674FF" stroke-width="10"/>
<line id="Line 3" x1="845" y1="328" x2="845" y2="310" stroke="#4674FF" stroke-width="10"/>
<line id="Line 4" x1="804" y1="303" x2="822" y2="303" stroke="#4674FF" stroke-width="10"/>
<line id="Line 5" x1="679" y1="303" x2="697" y2="303" stroke="#4674FF" stroke-width="10"/>
<line id="Line 6" x1="368" y1="551" x2="386" y2="551" stroke="#4674FF" stroke-width="10"/>
<line id="Line 7" x1="456" y1="551" x2="474" y2="551" stroke="#4674FF" stroke-width="10"/>
<line id="Line 8" x1="541" y1="551" x2="559" y2="551" stroke="#4674FF" stroke-width="10"/>
<line id="Line 9" x1="259" y1="674" x2="277" y2="674" stroke="#4674FF" stroke-width="10"/>
<line id="Line 10" x1="541" y1="674" x2="559" y2="674" stroke="#4674FF" stroke-width="10"/>
<line id="Line 11" x1="804" y1="674" x2="822" y2="674" stroke="#4674FF" stroke-width="10"/>
<line id="Line 12" x1="978" y1="674" x2="996" y2="674" stroke="#4674FF" stroke-width="10"/>
<line id="Line 13" x1="1057" y1="674" x2="1075" y2="674" stroke="#4674FF" stroke-width="10"/>
<line id="Line 14" x1="660" y1="553" x2="660" y2="535" stroke="#4674FF" stroke-width="10"/>
<line id="Line 15" x1="979" y1="332" x2="997" y2="332" stroke="#4674FF" stroke-width="10"/>
<line id="Line 16" x1="1112" y1="360" x2="1112" y2="342" stroke="#4674FF" stroke-width="10"/>
</g>
<g id="101a" filter="url(#filter1_d_0_1)">
<rect x="1044" y="674" width="140" height="110" fill="#D9D9D9"/>
</g>
<g id="102a" filter="url(#filter2_d_0_1)">
<rect x="918" y="674" width="124" height="110" fill="#D9D9D9"/>
</g>
<g id="103a" filter="url(#filter3_d_0_1)">
<rect x="782" y="674" width="134" height="110" fill="#D9D9D9"/>
</g>
<g id="library" filter="url(#filter4_d_0_1)">
<rect x="388" y="674" width="323" height="110" fill="#D9D9D9"/>
</g>
<g id="104a" filter="url(#filter5_d_0_1)">
<rect x="238" y="674" width="148" height="110" fill="#D9D9D9"/>
</g>
<g id="Rectangle 9" filter="url(#filter6_d_0_1)">
<rect x="660" y="566" width="124" height="61" fill="#D9D9D9"/>
</g>
<g id="Rectangle 10" filter="url(#filter7_d_0_1)">
<path d="M786 566H820C823 579.5 829.366 583.053 845 584V627H786V566Z" fill="#D9D9D9"/>
</g>
<g id="wc-2a" filter="url(#filter8_d_0_1)">
<rect x="1186" y="712" width="44" height="72" fill="#D9D9D9"/>
</g>
<g id="Rectangle 12" filter="url(#filter9_d_0_1)">
<rect x="191" y="674" width="45" height="110" fill="#D9D9D9"/>
</g>
<g id="wc-1a" filter="url(#filter10_d_0_1)">
<rect x="139" y="709" width="50" height="75" fill="#D9D9D9"/>
</g>
<g id="technical room" filter="url(#filter11_d_0_1)">
<rect x="358" y="571" width="236" height="56" fill="#D9D9D9"/>
</g>
<g id="physical education teachers office" filter="url(#filter12_d_0_1)">
<rect x="355" y="443" width="44" height="108" fill="#D9D9D9"/>
</g>
<g id="mens locker room a" filter="url(#filter13_d_0_1)">
<rect x="426" y="443" width="79" height="108" fill="#D9D9D9"/>
</g>
<g id="womens locker room a" filter="url(#filter14_d_0_1)">
<rect x="507" y="443" width="86" height="108" fill="#D9D9D9"/>
</g>
<g id="medical room" filter="url(#filter15_d_0_1)">
<rect x="662" y="219" width="125" height="84" fill="#D9D9D9"/>
</g>
<g id="113a" filter="url(#filter16_d_0_1)">
<rect x="789" y="219" width="54" height="84" fill="#D9D9D9"/>
</g>
<g id="112a" filter="url(#filter17_d_0_1)">
<rect x="845" y="219" width="67" height="113" fill="#D9D9D9"/>
</g>
<g id="111" filter="url(#filter18_d_0_1)">
<rect x="914" y="252" width="147" height="80" fill="#D9D9D9"/>
</g>
<g id="administration" filter="url(#filter19_d_0_1)">
<rect x="1112" y="177" width="124" height="195" fill="#D9D9D9"/>
</g>
<path id="&#208;&#146;&#208;&#165;&#208;&#158;&#208;&#148;" d="M960 539.239H936.727V529.534C936.727 527.792 936.973 526.333 937.466 525.159C937.958 523.977 938.648 523.091 939.534 522.5C940.42 521.902 941.447 521.602 942.614 521.602C943.5 521.602 944.292 521.788 944.989 522.159C945.678 522.53 946.25 523.042 946.705 523.693C947.159 524.345 947.477 525.098 947.659 525.955H947.886C947.932 525.015 948.186 524.148 948.648 523.352C949.11 522.549 949.754 521.905 950.58 521.42C951.398 520.936 952.367 520.693 953.489 520.693C954.739 520.693 955.856 521.011 956.841 521.648C957.818 522.284 958.591 523.205 959.159 524.409C959.72 525.614 960 527.076 960 528.795V539.239ZM955.466 533.614V530.136C955.466 528.917 955.235 528.019 954.773 527.443C954.311 526.86 953.667 526.568 952.841 526.568C952.242 526.568 951.727 526.708 951.295 526.989C950.856 527.269 950.519 527.667 950.284 528.182C950.042 528.697 949.92 529.314 949.92 530.034V533.614H955.466ZM946.295 533.614V530.5C946.295 529.886 946.193 529.341 945.989 528.864C945.784 528.386 945.489 528.015 945.102 527.75C944.716 527.477 944.25 527.341 943.705 527.341C942.924 527.341 942.311 527.617 941.864 528.17C941.417 528.723 941.193 529.47 941.193 530.409V533.614H946.295ZM936.727 512.295L944.08 508.045V507.864L936.727 503.568V497.273L948.364 504.295L960 497.045V503.5L952.568 507.864V508.045L960 512.409V518.818L948.364 511.602L936.727 518.636V512.295ZM948.364 473.71C950.924 473.71 953.095 474.203 954.875 475.188C956.655 476.172 958.008 477.506 958.932 479.188C959.856 480.862 960.318 482.741 960.318 484.824C960.318 486.915 959.852 488.797 958.92 490.472C957.989 492.146 956.636 493.475 954.864 494.46C953.083 495.438 950.917 495.926 948.364 495.926C945.803 495.926 943.633 495.438 941.852 494.46C940.072 493.475 938.72 492.146 937.795 490.472C936.871 488.797 936.409 486.915 936.409 484.824C936.409 482.741 936.871 480.862 937.795 479.188C938.72 477.506 940.072 476.172 941.852 475.188C943.633 474.203 945.803 473.71 948.364 473.71ZM948.364 479.46C946.848 479.46 945.568 479.676 944.523 480.108C943.477 480.532 942.686 481.146 942.148 481.949C941.61 482.744 941.341 483.703 941.341 484.824C941.341 485.937 941.61 486.896 942.148 487.699C942.686 488.502 943.477 489.119 944.523 489.551C945.568 489.975 946.848 490.188 948.364 490.188C949.879 490.188 951.159 489.975 952.205 489.551C953.25 489.119 954.042 488.502 954.58 487.699C955.117 486.896 955.386 485.937 955.386 484.824C955.386 483.703 955.117 482.744 954.58 481.949C954.042 481.146 953.25 480.532 952.205 480.108C951.159 479.676 949.879 479.46 948.364 479.46ZM965.602 471.438H955.614V469.835C955.25 469.297 954.742 468.805 954.091 468.358C953.432 467.911 952.508 467.528 951.318 467.21C950.121 466.892 948.542 466.665 946.58 466.528L936.727 465.801V449.881H955.614V447.381H965.591V452.79H960V466.028H965.602V471.438ZM955.614 463.381V455.29H941.295V460.756L946.58 461.119C948.057 461.218 949.36 461.377 950.489 461.597C951.617 461.816 952.602 462.078 953.443 462.381C954.277 462.684 955 463.017 955.614 463.381Z" fill="#D9D9D9"/>
<g id="checkroom" filter="url(#filter20_d_0_1)">
<path d="M660 428H822V459L801.5 473.5L803 520L822 534.5V564H660V428Z" fill="#D9D9D9"/>
</g>
<path id="111&#208;&#176;" d="M973.009 283.545V301H969.318V287.048H969.216L965.219 289.554V286.281L969.54 283.545H973.009ZM984.751 283.545V301H981.06V287.048H980.958L976.961 289.554V286.281L981.282 283.545H984.751ZM996.493 283.545V301H992.803V287.048H992.7L988.703 289.554V286.281L993.024 283.545H996.493ZM1004.41 301.247C1003.57 301.247 1002.83 301.102 1002.18 300.812C1001.52 300.517 1001 300.082 1000.62 299.509C1000.25 298.929 1000.06 298.207 1000.06 297.344C1000.06 296.616 1000.2 296.006 1000.46 295.511C1000.73 295.017 1001.09 294.619 1001.55 294.318C1002.01 294.017 1002.54 293.79 1003.12 293.636C1003.71 293.483 1004.33 293.375 1004.98 293.312C1005.74 293.233 1006.35 293.159 1006.82 293.091C1007.29 293.017 1007.62 292.909 1007.83 292.767C1008.04 292.625 1008.15 292.415 1008.15 292.136V292.085C1008.15 291.545 1007.98 291.128 1007.64 290.832C1007.3 290.537 1006.83 290.389 1006.21 290.389C1005.55 290.389 1005.03 290.534 1004.65 290.824C1004.26 291.108 1004 291.466 1003.88 291.898L1000.52 291.625C1000.69 290.83 1001.03 290.142 1001.53 289.562C1002.03 288.977 1002.67 288.528 1003.46 288.216C1004.26 287.898 1005.18 287.739 1006.22 287.739C1006.95 287.739 1007.65 287.824 1008.31 287.994C1008.98 288.165 1009.58 288.429 1010.09 288.787C1010.62 289.145 1011.03 289.605 1011.33 290.168C1011.63 290.724 1011.78 291.392 1011.78 292.17V301H1008.34V299.185H1008.24C1008.02 299.594 1007.74 299.955 1007.39 300.267C1007.04 300.574 1006.62 300.815 1006.12 300.991C1005.63 301.162 1005.06 301.247 1004.41 301.247ZM1005.45 298.741C1005.98 298.741 1006.45 298.636 1006.86 298.426C1007.27 298.21 1007.59 297.92 1007.83 297.557C1008.06 297.193 1008.18 296.781 1008.18 296.321V294.932C1008.06 295.006 1007.91 295.074 1007.71 295.136C1007.51 295.193 1007.29 295.247 1007.05 295.298C1006.81 295.344 1006.56 295.386 1006.32 295.426C1006.07 295.46 1005.85 295.491 1005.65 295.52C1005.23 295.582 1004.85 295.682 1004.54 295.818C1004.22 295.955 1003.97 296.139 1003.79 296.372C1003.62 296.599 1003.53 296.884 1003.53 297.224C1003.53 297.719 1003.71 298.097 1004.07 298.358C1004.43 298.614 1004.89 298.741 1005.45 298.741Z" fill="#7E7E7E"/>
<path id="112&#208;&#176;" d="M861.009 266.545V284H857.318V270.048H857.216L853.219 272.554V269.281L857.54 266.545H861.009ZM872.751 266.545V284H869.06V270.048H868.958L864.961 272.554V269.281L869.282 266.545H872.751ZM876.899 284V281.341L883.112 275.588C883.641 275.077 884.084 274.616 884.442 274.207C884.805 273.798 885.081 273.398 885.268 273.006C885.456 272.608 885.55 272.179 885.55 271.719C885.55 271.207 885.433 270.767 885.2 270.398C884.967 270.023 884.649 269.736 884.246 269.537C883.842 269.332 883.385 269.23 882.874 269.23C882.339 269.23 881.874 269.338 881.476 269.554C881.078 269.77 880.771 270.08 880.555 270.483C880.339 270.886 880.232 271.366 880.232 271.923H876.729C876.729 270.781 876.987 269.79 877.504 268.949C878.021 268.108 878.746 267.457 879.678 266.997C880.609 266.537 881.683 266.307 882.899 266.307C884.149 266.307 885.237 266.528 886.163 266.972C887.095 267.409 887.82 268.017 888.337 268.795C888.854 269.574 889.112 270.466 889.112 271.472C889.112 272.131 888.982 272.781 888.72 273.423C888.464 274.065 888.007 274.778 887.348 275.562C886.689 276.341 885.76 277.276 884.561 278.366L882.013 280.864V280.983H889.342V284H876.899ZM895.783 284.247C894.948 284.247 894.204 284.102 893.55 283.812C892.897 283.517 892.38 283.082 891.999 282.509C891.624 281.929 891.437 281.207 891.437 280.344C891.437 279.616 891.57 279.006 891.837 278.511C892.104 278.017 892.468 277.619 892.928 277.318C893.388 277.017 893.911 276.79 894.496 276.636C895.087 276.483 895.707 276.375 896.354 276.312C897.116 276.233 897.729 276.159 898.195 276.091C898.661 276.017 898.999 275.909 899.21 275.767C899.42 275.625 899.525 275.415 899.525 275.136V275.085C899.525 274.545 899.354 274.128 899.013 273.832C898.678 273.537 898.201 273.389 897.582 273.389C896.928 273.389 896.408 273.534 896.022 273.824C895.636 274.108 895.38 274.466 895.255 274.898L891.897 274.625C892.067 273.83 892.403 273.142 892.903 272.562C893.403 271.977 894.048 271.528 894.837 271.216C895.633 270.898 896.553 270.739 897.599 270.739C898.326 270.739 899.022 270.824 899.687 270.994C900.357 271.165 900.951 271.429 901.468 271.787C901.991 272.145 902.403 272.605 902.704 273.168C903.005 273.724 903.156 274.392 903.156 275.17V284H899.712V282.185H899.61C899.4 282.594 899.119 282.955 898.766 283.267C898.414 283.574 897.991 283.815 897.496 283.991C897.002 284.162 896.431 284.247 895.783 284.247ZM896.823 281.741C897.357 281.741 897.829 281.636 898.238 281.426C898.647 281.21 898.968 280.92 899.201 280.557C899.434 280.193 899.55 279.781 899.55 279.321V277.932C899.437 278.006 899.281 278.074 899.082 278.136C898.888 278.193 898.67 278.247 898.425 278.298C898.181 278.344 897.937 278.386 897.692 278.426C897.448 278.46 897.227 278.491 897.028 278.52C896.602 278.582 896.229 278.682 895.911 278.818C895.593 278.955 895.346 279.139 895.17 279.372C894.994 279.599 894.906 279.884 894.906 280.224C894.906 280.719 895.085 281.097 895.442 281.358C895.806 281.614 896.266 281.741 896.823 281.741Z" fill="#7E7E7E"/>
<path id="113&#208;&#176;" d="M798.009 254.545V272H794.318V258.048H794.216L790.219 260.554V257.281L794.54 254.545H798.009ZM809.751 254.545V272H806.06V258.048H805.958L801.961 260.554V257.281L806.282 254.545H809.751ZM820.351 272.239C819.078 272.239 817.945 272.02 816.95 271.582C815.962 271.139 815.18 270.531 814.607 269.759C814.038 268.98 813.746 268.082 813.729 267.065H817.445C817.467 267.491 817.607 267.866 817.862 268.19C818.124 268.509 818.47 268.756 818.902 268.932C819.334 269.108 819.82 269.196 820.359 269.196C820.922 269.196 821.419 269.097 821.851 268.898C822.283 268.699 822.621 268.423 822.865 268.071C823.109 267.719 823.232 267.312 823.232 266.852C823.232 266.386 823.101 265.974 822.839 265.616C822.584 265.253 822.214 264.969 821.732 264.764C821.254 264.56 820.686 264.457 820.027 264.457H818.399V261.747H820.027C820.584 261.747 821.075 261.651 821.501 261.457C821.933 261.264 822.268 260.997 822.507 260.656C822.746 260.31 822.865 259.906 822.865 259.446C822.865 259.009 822.76 258.625 822.55 258.295C822.345 257.96 822.055 257.699 821.68 257.511C821.311 257.324 820.879 257.23 820.385 257.23C819.885 257.23 819.428 257.321 819.013 257.503C818.598 257.679 818.266 257.932 818.016 258.261C817.766 258.591 817.632 258.977 817.615 259.42H814.078C814.095 258.415 814.382 257.528 814.939 256.761C815.496 255.994 816.246 255.395 817.189 254.963C818.138 254.526 819.209 254.307 820.402 254.307C821.607 254.307 822.661 254.526 823.564 254.963C824.467 255.401 825.169 255.991 825.669 256.736C826.175 257.474 826.425 258.304 826.419 259.224C826.425 260.202 826.121 261.017 825.507 261.67C824.899 262.324 824.107 262.739 823.129 262.915V263.051C824.413 263.216 825.391 263.662 826.061 264.389C826.737 265.111 827.072 266.014 827.067 267.099C827.072 268.094 826.786 268.977 826.206 269.75C825.632 270.523 824.839 271.131 823.828 271.574C822.817 272.017 821.658 272.239 820.351 272.239ZM833.487 272.247C832.651 272.247 831.907 272.102 831.254 271.812C830.6 271.517 830.083 271.082 829.702 270.509C829.327 269.929 829.14 269.207 829.14 268.344C829.14 267.616 829.273 267.006 829.54 266.511C829.808 266.017 830.171 265.619 830.631 265.318C831.092 265.017 831.614 264.79 832.2 264.636C832.79 264.483 833.41 264.375 834.058 264.312C834.819 264.233 835.433 264.159 835.898 264.091C836.364 264.017 836.702 263.909 836.913 263.767C837.123 263.625 837.228 263.415 837.228 263.136V263.085C837.228 262.545 837.058 262.128 836.717 261.832C836.381 261.537 835.904 261.389 835.285 261.389C834.631 261.389 834.112 261.534 833.725 261.824C833.339 262.108 833.083 262.466 832.958 262.898L829.6 262.625C829.771 261.83 830.106 261.142 830.606 260.562C831.106 259.977 831.751 259.528 832.54 259.216C833.336 258.898 834.256 258.739 835.302 258.739C836.029 258.739 836.725 258.824 837.39 258.994C838.06 259.165 838.654 259.429 839.171 259.787C839.694 260.145 840.106 260.605 840.407 261.168C840.708 261.724 840.859 262.392 840.859 263.17V272H837.415V270.185H837.313C837.103 270.594 836.822 270.955 836.469 271.267C836.117 271.574 835.694 271.815 835.2 271.991C834.705 272.162 834.134 272.247 833.487 272.247ZM834.526 269.741C835.06 269.741 835.532 269.636 835.941 269.426C836.35 269.21 836.671 268.92 836.904 268.557C837.137 268.193 837.254 267.781 837.254 267.321V265.932C837.14 266.006 836.984 266.074 836.785 266.136C836.592 266.193 836.373 266.247 836.129 266.298C835.884 266.344 835.64 266.386 835.396 266.426C835.151 266.46 834.93 266.491 834.731 266.52C834.305 266.582 833.933 266.682 833.614 266.818C833.296 266.955 833.049 267.139 832.873 267.372C832.697 267.599 832.609 267.884 832.609 268.224C832.609 268.719 832.788 269.097 833.146 269.358C833.509 269.614 833.969 269.741 834.526 269.741Z" fill="#7E7E7E"/>
<path id="&#208;&#188;&#208;&#181;&#208;&#180;. &#208;&#191;&#209;&#131;&#208;&#189;&#208;&#186;&#209;&#130;" d="M688.188 244.986L691.733 235.909H694.494L689.389 249H686.977L681.991 235.909H684.744L688.188 244.986ZM683.918 235.909V249H680.449V235.909H683.918ZM692.636 249V235.909H696.062V249H692.636ZM704.837 249.256C703.49 249.256 702.331 248.983 701.359 248.438C700.393 247.886 699.649 247.108 699.126 246.102C698.604 245.091 698.342 243.895 698.342 242.514C698.342 241.168 698.604 239.986 699.126 238.969C699.649 237.952 700.385 237.159 701.334 236.591C702.288 236.023 703.408 235.739 704.692 235.739C705.555 235.739 706.359 235.878 707.104 236.156C707.854 236.429 708.507 236.841 709.064 237.392C709.626 237.943 710.064 238.636 710.376 239.472C710.689 240.301 710.845 241.273 710.845 242.386V243.384H699.791V241.134H707.428C707.428 240.611 707.314 240.148 707.087 239.744C706.859 239.341 706.544 239.026 706.141 238.798C705.743 238.565 705.28 238.449 704.751 238.449C704.2 238.449 703.712 238.577 703.286 238.832C702.865 239.082 702.536 239.42 702.297 239.847C702.058 240.267 701.936 240.736 701.93 241.253V243.392C701.93 244.04 702.05 244.599 702.288 245.071C702.533 245.543 702.876 245.906 703.32 246.162C703.763 246.418 704.288 246.545 704.896 246.545C705.3 246.545 705.669 246.489 706.004 246.375C706.339 246.261 706.626 246.091 706.865 245.864C707.104 245.636 707.286 245.358 707.411 245.028L710.768 245.25C710.598 246.057 710.249 246.761 709.72 247.364C709.197 247.96 708.521 248.426 707.692 248.761C706.868 249.091 705.916 249.256 704.837 249.256ZM712.192 252.835V246.119H713.197C713.487 245.937 713.72 245.648 713.896 245.25C714.078 244.852 714.226 244.384 714.339 243.844C714.459 243.304 714.55 242.722 714.612 242.097C714.68 241.466 714.74 240.83 714.791 240.188L715.132 235.909H725.172V246.119H727.2V252.835H723.74V249H715.737V252.835H712.192ZM716.811 246.119H721.746V238.705H718.217L718.081 240.188C717.984 241.585 717.845 242.773 717.663 243.75C717.482 244.722 717.197 245.511 716.811 246.119ZM731.438 249.222C730.876 249.222 730.393 249.023 729.989 248.625C729.592 248.222 729.393 247.739 729.393 247.176C729.393 246.619 729.592 246.142 729.989 245.744C730.393 245.347 730.876 245.148 731.438 245.148C731.984 245.148 732.461 245.347 732.87 245.744C733.279 246.142 733.484 246.619 733.484 247.176C733.484 247.551 733.387 247.895 733.194 248.207C733.006 248.514 732.759 248.761 732.452 248.949C732.146 249.131 731.808 249.222 731.438 249.222ZM680.449 278V264.909H691.895V278H688.426V267.764H683.875V278H680.449ZM696.565 282.909C696.105 282.909 695.673 282.872 695.27 282.798C694.872 282.73 694.543 282.642 694.281 282.534L695.099 279.824C695.526 279.955 695.909 280.026 696.25 280.037C696.597 280.048 696.895 279.969 697.145 279.798C697.401 279.628 697.608 279.338 697.767 278.929L697.98 278.375L693.284 264.909H697.102L699.812 274.523H699.949L702.685 264.909H706.528L701.44 279.415C701.196 280.119 700.864 280.733 700.443 281.256C700.028 281.784 699.503 282.19 698.866 282.474C698.23 282.764 697.463 282.909 696.565 282.909ZM717.497 270.006V272.861H710.662V270.006H717.497ZM711.855 264.909V278H708.386V264.909H711.855ZM719.773 264.909V278H716.33V264.909H719.773ZM722.589 278V264.909H726.22V269.989H727.243L730.805 264.909H735.067L730.439 271.403L735.118 278H730.805L727.575 273.355H726.22V278H722.589ZM735.97 267.764V264.909H747.834V267.764H743.615V278H740.155V267.764H735.97Z" fill="#7E7E7E"/>
<path id="104&#208;&#176;" d="M289.009 721.545V739H285.318V725.048H285.216L281.219 727.554V724.281L285.54 721.545H289.009ZM300.001 739.384C298.535 739.378 297.273 739.017 296.217 738.301C295.165 737.585 294.356 736.548 293.788 735.19C293.225 733.832 292.947 732.199 292.952 730.29C292.952 728.386 293.234 726.764 293.796 725.423C294.364 724.082 295.174 723.062 296.225 722.364C297.282 721.659 298.54 721.307 300.001 721.307C301.461 721.307 302.717 721.659 303.768 722.364C304.825 723.068 305.637 724.091 306.205 725.432C306.773 726.767 307.055 728.386 307.049 730.29C307.049 732.205 306.765 733.841 306.197 735.199C305.634 736.557 304.827 737.594 303.776 738.31C302.725 739.026 301.467 739.384 300.001 739.384ZM300.001 736.324C301.001 736.324 301.799 735.821 302.396 734.815C302.992 733.81 303.288 732.301 303.282 730.29C303.282 728.966 303.146 727.864 302.873 726.983C302.606 726.102 302.225 725.44 301.731 724.997C301.242 724.554 300.665 724.332 300.001 724.332C299.006 724.332 298.211 724.83 297.614 725.824C297.018 726.818 296.717 728.307 296.711 730.29C296.711 731.631 296.844 732.75 297.112 733.648C297.384 734.54 297.768 735.21 298.262 735.659C298.756 736.102 299.336 736.324 300.001 736.324ZM309.416 735.932V733.026L316.703 721.545H319.209V725.568H317.726L313.132 732.838V732.974H323.487V735.932H309.416ZM317.794 739V735.045L317.862 733.759V721.545H321.322V739H317.794ZM329.713 739.247C328.878 739.247 328.134 739.102 327.48 738.812C326.827 738.517 326.31 738.082 325.929 737.509C325.554 736.929 325.366 736.207 325.366 735.344C325.366 734.616 325.5 734.006 325.767 733.511C326.034 733.017 326.398 732.619 326.858 732.318C327.318 732.017 327.841 731.79 328.426 731.636C329.017 731.483 329.636 731.375 330.284 731.312C331.045 731.233 331.659 731.159 332.125 731.091C332.591 731.017 332.929 730.909 333.139 730.767C333.349 730.625 333.455 730.415 333.455 730.136V730.085C333.455 729.545 333.284 729.128 332.943 728.832C332.608 728.537 332.131 728.389 331.511 728.389C330.858 728.389 330.338 728.534 329.952 728.824C329.565 729.108 329.31 729.466 329.185 729.898L325.827 729.625C325.997 728.83 326.332 728.142 326.832 727.562C327.332 726.977 327.977 726.528 328.767 726.216C329.563 725.898 330.483 725.739 331.528 725.739C332.256 725.739 332.952 725.824 333.616 725.994C334.287 726.165 334.881 726.429 335.398 726.787C335.92 727.145 336.332 727.605 336.634 728.168C336.935 728.724 337.085 729.392 337.085 730.17V739H333.642V737.185H333.54C333.33 737.594 333.048 737.955 332.696 738.267C332.344 738.574 331.92 738.815 331.426 738.991C330.932 739.162 330.361 739.247 329.713 739.247ZM330.753 736.741C331.287 736.741 331.759 736.636 332.168 736.426C332.577 736.21 332.898 735.92 333.131 735.557C333.364 735.193 333.48 734.781 333.48 734.321V732.932C333.366 733.006 333.21 733.074 333.011 733.136C332.818 733.193 332.599 733.247 332.355 733.298C332.111 733.344 331.866 733.386 331.622 733.426C331.378 733.46 331.156 733.491 330.957 733.52C330.531 733.582 330.159 733.682 329.841 733.818C329.523 733.955 329.276 734.139 329.099 734.372C328.923 734.599 328.835 734.884 328.835 735.224C328.835 735.719 329.014 736.097 329.372 736.358C329.736 736.614 330.196 736.741 330.753 736.741Z" fill="#7E7E7E"/>
<g id="&#208;&#145;&#208;&#152;&#208;&#145;&#208;&#155;&#208;&#152;&#208;&#158;&#208;&#162;&#208;&#149;&#208;&#154;&#208;&#144;">
<path d="M465.517 738V720.545H477.099V723.588H469.207V726.997H472.045C473.426 726.997 474.616 727.222 475.616 727.67C476.622 728.114 477.398 728.741 477.943 729.554C478.489 730.366 478.761 731.324 478.761 732.426C478.761 733.523 478.489 734.491 477.943 735.332C477.398 736.168 476.622 736.821 475.616 737.293C474.616 737.764 473.426 738 472.045 738H465.517ZM469.207 735.034H472.045C472.705 735.034 473.261 734.915 473.716 734.676C474.17 734.432 474.514 734.111 474.747 733.713C474.986 733.31 475.105 732.869 475.105 732.392C475.105 731.699 474.841 731.114 474.312 730.636C473.79 730.153 473.034 729.912 472.045 729.912H469.207V735.034ZM481.15 720.545H484.832V731.523H484.977L492.519 720.545H495.749V738H492.059V727.014H491.931L484.346 738H481.15V720.545ZM498.798 738V720.545H510.381V723.588H502.489V726.997H505.327C506.707 726.997 507.898 727.222 508.898 727.67C509.903 728.114 510.679 728.741 511.224 729.554C511.77 730.366 512.043 731.324 512.043 732.426C512.043 733.523 511.77 734.491 511.224 735.332C510.679 736.168 509.903 736.821 508.898 737.293C507.898 737.764 506.707 738 505.327 738H498.798ZM502.489 735.034H505.327C505.986 735.034 506.543 734.915 506.997 734.676C507.452 734.432 507.795 734.111 508.028 733.713C508.267 733.31 508.386 732.869 508.386 732.392C508.386 731.699 508.122 731.114 507.594 730.636C507.071 730.153 506.315 729.912 505.327 729.912H502.489V735.034ZM513.485 738V735.034L513.979 734.991C514.616 734.94 515.13 734.699 515.522 734.267C515.914 733.83 516.207 733.134 516.4 732.179C516.599 731.219 516.727 729.929 516.783 728.31L517.073 720.545H528.92V738H525.332V723.503H520.499L520.227 729.58C520.136 731.534 519.903 733.131 519.528 734.369C519.158 735.608 518.567 736.523 517.755 737.114C516.948 737.705 515.843 738 514.44 738H513.485ZM531.962 720.545H535.644V731.523H535.789L543.332 720.545H546.562V738H542.871V727.014H542.744L535.158 738H531.962V720.545ZM565.651 729.273C565.651 731.176 565.29 732.795 564.568 734.131C563.852 735.466 562.875 736.486 561.636 737.19C560.403 737.889 559.017 738.239 557.477 738.239C555.926 738.239 554.534 737.886 553.301 737.182C552.068 736.477 551.094 735.457 550.378 734.122C549.662 732.787 549.304 731.17 549.304 729.273C549.304 727.369 549.662 725.75 550.378 724.415C551.094 723.08 552.068 722.062 553.301 721.364C554.534 720.659 555.926 720.307 557.477 720.307C559.017 720.307 560.403 720.659 561.636 721.364C562.875 722.062 563.852 723.08 564.568 724.415C565.29 725.75 565.651 727.369 565.651 729.273ZM561.909 729.273C561.909 728.04 561.724 727 561.355 726.153C560.991 725.307 560.477 724.665 559.812 724.227C559.148 723.79 558.369 723.571 557.477 723.571C556.585 723.571 555.807 723.79 555.142 724.227C554.477 724.665 553.96 725.307 553.591 726.153C553.227 727 553.045 728.04 553.045 729.273C553.045 730.506 553.227 731.545 553.591 732.392C553.96 733.239 554.477 733.881 555.142 734.318C555.807 734.756 556.585 734.974 557.477 734.974C558.369 734.974 559.148 734.756 559.812 734.318C560.477 733.881 560.991 733.239 561.355 732.392C561.724 731.545 561.909 730.506 561.909 729.273ZM566.923 723.588V720.545H581.258V723.588H575.914V738H572.266V723.588H566.923ZM583.619 738V720.545H595.38V723.588H587.309V727.747H594.775V730.79H587.309V734.957H595.414V738H583.619ZM608.874 738L603.266 730.56H602.004V738H598.314V720.545H602.004V727.517H602.746L608.541 720.545H613.135L606.325 728.642L613.45 738H608.874ZM618.315 738H614.36L620.386 720.545H625.141L631.158 738H627.204L622.832 724.534H622.695L618.315 738ZM618.067 731.139H627.408V734.02H618.067V731.139Z" fill="#7E7E7E"/>
</g>
<path id="&#208;&#147;&#208;&#144;&#208;&#160;&#208;&#148;&#208;&#149;&#208;&#160;&#208;&#158;&#208;&#145;" d="M678.099 482.545V485.588H670.207V500H666.517V482.545H678.099ZM681.338 500H677.384L683.409 482.545H688.165L694.182 500H690.227L685.855 486.534H685.719L681.338 500ZM681.091 493.139H690.432V496.02H681.091V493.139ZM696.283 500V482.545H703.169C704.493 482.545 705.621 482.798 706.553 483.304C707.484 483.804 708.195 484.5 708.683 485.392C709.178 486.278 709.425 487.301 709.425 488.46C709.425 489.619 709.175 490.642 708.675 491.528C708.175 492.415 707.45 493.105 706.501 493.599C705.558 494.094 704.416 494.341 703.075 494.341H698.686V491.384H702.479C703.189 491.384 703.774 491.261 704.234 491.017C704.7 490.767 705.047 490.423 705.274 489.986C705.507 489.543 705.624 489.034 705.624 488.46C705.624 487.881 705.507 487.375 705.274 486.943C705.047 486.506 704.7 486.168 704.234 485.929C703.768 485.685 703.178 485.562 702.462 485.562H699.973V500H696.283ZM710.876 504.21V497.06H712.06C712.464 496.77 712.833 496.361 713.168 495.832C713.504 495.298 713.79 494.562 714.029 493.625C714.268 492.682 714.438 491.449 714.54 489.926L715.035 482.545H726.583V497.06H728.492V504.193H724.947V500H714.421V504.21H710.876ZM716.322 497.06H723.038V485.588H718.359L718.086 489.926C718.012 491.08 717.89 492.102 717.719 492.994C717.555 493.886 717.353 494.668 717.114 495.338C716.881 496.003 716.617 496.577 716.322 497.06ZM730.736 500V482.545H742.497V485.588H734.426V489.747H741.892V492.79H734.426V496.957H742.531V500H730.736ZM745.431 500V482.545H752.317C753.641 482.545 754.769 482.798 755.701 483.304C756.633 483.804 757.343 484.5 757.832 485.392C758.326 486.278 758.573 487.301 758.573 488.46C758.573 489.619 758.323 490.642 757.823 491.528C757.323 492.415 756.599 493.105 755.65 493.599C754.707 494.094 753.565 494.341 752.224 494.341H747.835V491.384H751.627C752.337 491.384 752.923 491.261 753.383 491.017C753.849 490.767 754.195 490.423 754.423 489.986C754.656 489.543 754.772 489.034 754.772 488.46C754.772 487.881 754.656 487.375 754.423 486.943C754.195 486.506 753.849 486.168 753.383 485.929C752.917 485.685 752.326 485.562 751.61 485.562H749.121V500H745.431ZM777.01 491.273C777.01 493.176 776.649 494.795 775.928 496.131C775.212 497.466 774.234 498.486 772.996 499.19C771.763 499.889 770.376 500.239 768.837 500.239C767.286 500.239 765.893 499.886 764.661 499.182C763.428 498.477 762.453 497.457 761.737 496.122C761.021 494.787 760.663 493.17 760.663 491.273C760.663 489.369 761.021 487.75 761.737 486.415C762.453 485.08 763.428 484.062 764.661 483.364C765.893 482.659 767.286 482.307 768.837 482.307C770.376 482.307 771.763 482.659 772.996 483.364C774.234 484.062 775.212 485.08 775.928 486.415C776.649 487.75 777.01 489.369 777.01 491.273ZM773.268 491.273C773.268 490.04 773.084 489 772.714 488.153C772.351 487.307 771.837 486.665 771.172 486.227C770.507 485.79 769.729 485.571 768.837 485.571C767.945 485.571 767.166 485.79 766.501 486.227C765.837 486.665 765.32 487.307 764.95 488.153C764.587 489 764.405 490.04 764.405 491.273C764.405 492.506 764.587 493.545 764.95 494.392C765.32 495.239 765.837 495.881 766.501 496.318C767.166 496.756 767.945 496.974 768.837 496.974C769.729 496.974 770.507 496.756 771.172 496.318C771.837 495.881 772.351 495.239 772.714 494.392C773.084 493.545 773.268 492.506 773.268 491.273ZM779.744 500V482.545H791.326V485.588H783.434V488.997H786.272C787.653 488.997 788.843 489.222 789.843 489.67C790.849 490.114 791.624 490.741 792.17 491.554C792.715 492.366 792.988 493.324 792.988 494.426C792.988 495.523 792.715 496.491 792.17 497.332C791.624 498.168 790.849 498.821 789.843 499.293C788.843 499.764 787.653 500 786.272 500H779.744ZM783.434 497.034H786.272C786.931 497.034 787.488 496.915 787.942 496.676C788.397 496.432 788.741 496.111 788.974 495.713C789.212 495.31 789.332 494.869 789.332 494.392C789.332 493.699 789.067 493.114 788.539 492.636C788.016 492.153 787.261 491.912 786.272 491.912H783.434V497.034Z" fill="#7E7E7E"/>
<path id="103&#208;&#176;" d="M825.009 719.545V737H821.318V723.048H821.216L817.219 725.554V722.281L821.54 719.545H825.009ZM836.001 737.384C834.535 737.378 833.273 737.017 832.217 736.301C831.165 735.585 830.356 734.548 829.788 733.19C829.225 731.832 828.947 730.199 828.952 728.29C828.952 726.386 829.234 724.764 829.796 723.423C830.364 722.082 831.174 721.062 832.225 720.364C833.282 719.659 834.54 719.307 836.001 719.307C837.461 719.307 838.717 719.659 839.768 720.364C840.825 721.068 841.637 722.091 842.205 723.432C842.773 724.767 843.055 726.386 843.049 728.29C843.049 730.205 842.765 731.841 842.197 733.199C841.634 734.557 840.827 735.594 839.776 736.31C838.725 737.026 837.467 737.384 836.001 737.384ZM836.001 734.324C837.001 734.324 837.799 733.821 838.396 732.815C838.992 731.81 839.288 730.301 839.282 728.29C839.282 726.966 839.146 725.864 838.873 724.983C838.606 724.102 838.225 723.44 837.731 722.997C837.242 722.554 836.665 722.332 836.001 722.332C835.006 722.332 834.211 722.83 833.614 723.824C833.018 724.818 832.717 726.307 832.711 728.29C832.711 729.631 832.844 730.75 833.112 731.648C833.384 732.54 833.768 733.21 834.262 733.659C834.756 734.102 835.336 734.324 836.001 734.324ZM852.132 737.239C850.859 737.239 849.726 737.02 848.732 736.582C847.743 736.139 846.962 735.531 846.388 734.759C845.82 733.98 845.527 733.082 845.51 732.065H849.226C849.249 732.491 849.388 732.866 849.643 733.19C849.905 733.509 850.251 733.756 850.683 733.932C851.115 734.108 851.601 734.196 852.141 734.196C852.703 734.196 853.2 734.097 853.632 733.898C854.064 733.699 854.402 733.423 854.646 733.071C854.891 732.719 855.013 732.312 855.013 731.852C855.013 731.386 854.882 730.974 854.621 730.616C854.365 730.253 853.996 729.969 853.513 729.764C853.036 729.56 852.467 729.457 851.808 729.457H850.18V726.747H851.808C852.365 726.747 852.857 726.651 853.283 726.457C853.714 726.264 854.05 725.997 854.288 725.656C854.527 725.31 854.646 724.906 854.646 724.446C854.646 724.009 854.541 723.625 854.331 723.295C854.126 722.96 853.837 722.699 853.462 722.511C853.092 722.324 852.661 722.23 852.166 722.23C851.666 722.23 851.209 722.321 850.794 722.503C850.379 722.679 850.047 722.932 849.797 723.261C849.547 723.591 849.413 723.977 849.396 724.42H845.859C845.876 723.415 846.163 722.528 846.72 721.761C847.277 720.994 848.027 720.395 848.97 719.963C849.919 719.526 850.99 719.307 852.183 719.307C853.388 719.307 854.442 719.526 855.345 719.963C856.249 720.401 856.95 720.991 857.45 721.736C857.956 722.474 858.206 723.304 858.2 724.224C858.206 725.202 857.902 726.017 857.288 726.67C856.68 727.324 855.888 727.739 854.911 727.915V728.051C856.195 728.216 857.172 728.662 857.842 729.389C858.518 730.111 858.854 731.014 858.848 732.099C858.854 733.094 858.567 733.977 857.987 734.75C857.413 735.523 856.621 736.131 855.609 736.574C854.598 737.017 853.439 737.239 852.132 737.239ZM865.268 737.247C864.433 737.247 863.688 737.102 863.035 736.812C862.381 736.517 861.864 736.082 861.484 735.509C861.109 734.929 860.921 734.207 860.921 733.344C860.921 732.616 861.055 732.006 861.322 731.511C861.589 731.017 861.952 730.619 862.413 730.318C862.873 730.017 863.396 729.79 863.981 729.636C864.572 729.483 865.191 729.375 865.839 729.312C866.6 729.233 867.214 729.159 867.68 729.091C868.146 729.017 868.484 728.909 868.694 728.767C868.904 728.625 869.009 728.415 869.009 728.136V728.085C869.009 727.545 868.839 727.128 868.498 726.832C868.163 726.537 867.685 726.389 867.066 726.389C866.413 726.389 865.893 726.534 865.506 726.824C865.12 727.108 864.864 727.466 864.739 727.898L861.381 727.625C861.552 726.83 861.887 726.142 862.387 725.562C862.887 724.977 863.532 724.528 864.322 724.216C865.117 723.898 866.038 723.739 867.083 723.739C867.81 723.739 868.506 723.824 869.171 723.994C869.842 724.165 870.435 724.429 870.952 724.787C871.475 725.145 871.887 725.605 872.188 726.168C872.489 726.724 872.64 727.392 872.64 728.17V737H869.197V735.185H869.094C868.884 735.594 868.603 735.955 868.251 736.267C867.898 736.574 867.475 736.815 866.981 736.991C866.487 737.162 865.915 737.247 865.268 737.247ZM866.308 734.741C866.842 734.741 867.313 734.636 867.722 734.426C868.131 734.21 868.452 733.92 868.685 733.557C868.918 733.193 869.035 732.781 869.035 732.321V730.932C868.921 731.006 868.765 731.074 868.566 731.136C868.373 731.193 868.154 731.247 867.91 731.298C867.665 731.344 867.421 731.386 867.177 731.426C866.933 731.46 866.711 731.491 866.512 731.52C866.086 731.582 865.714 731.682 865.396 731.818C865.077 731.955 864.83 732.139 864.654 732.372C864.478 732.599 864.39 732.884 864.39 733.224C864.39 733.719 864.569 734.097 864.927 734.358C865.29 734.614 865.751 734.741 866.308 734.741Z" fill="#7E7E7E"/>
<path id="102&#208;&#176;" d="M963.009 717.545V735H959.318V721.048H959.216L955.219 723.554V720.281L959.54 717.545H963.009ZM974.001 735.384C972.535 735.378 971.273 735.017 970.217 734.301C969.165 733.585 968.356 732.548 967.788 731.19C967.225 729.832 966.947 728.199 966.952 726.29C966.952 724.386 967.234 722.764 967.796 721.423C968.364 720.082 969.174 719.062 970.225 718.364C971.282 717.659 972.54 717.307 974.001 717.307C975.461 717.307 976.717 717.659 977.768 718.364C978.825 719.068 979.637 720.091 980.205 721.432C980.773 722.767 981.055 724.386 981.049 726.29C981.049 728.205 980.765 729.841 980.197 731.199C979.634 732.557 978.827 733.594 977.776 734.31C976.725 735.026 975.467 735.384 974.001 735.384ZM974.001 732.324C975.001 732.324 975.799 731.821 976.396 730.815C976.992 729.81 977.288 728.301 977.282 726.29C977.282 724.966 977.146 723.864 976.873 722.983C976.606 722.102 976.225 721.44 975.731 720.997C975.242 720.554 974.665 720.332 974.001 720.332C973.006 720.332 972.211 720.83 971.614 721.824C971.018 722.818 970.717 724.307 970.711 726.29C970.711 727.631 970.844 728.75 971.112 729.648C971.384 730.54 971.768 731.21 972.262 731.659C972.756 732.102 973.336 732.324 974.001 732.324ZM983.68 735V732.341L989.893 726.588C990.422 726.077 990.865 725.616 991.223 725.207C991.587 724.798 991.862 724.398 992.05 724.006C992.237 723.608 992.331 723.179 992.331 722.719C992.331 722.207 992.214 721.767 991.982 721.398C991.749 721.023 991.43 720.736 991.027 720.537C990.624 720.332 990.166 720.23 989.655 720.23C989.121 720.23 988.655 720.338 988.257 720.554C987.859 720.77 987.553 721.08 987.337 721.483C987.121 721.886 987.013 722.366 987.013 722.923H983.51C983.51 721.781 983.768 720.79 984.286 719.949C984.803 719.108 985.527 718.457 986.459 717.997C987.391 717.537 988.464 717.307 989.68 717.307C990.93 717.307 992.018 717.528 992.945 717.972C993.876 718.409 994.601 719.017 995.118 719.795C995.635 720.574 995.893 721.466 995.893 722.472C995.893 723.131 995.763 723.781 995.501 724.423C995.246 725.065 994.788 725.778 994.129 726.562C993.47 727.341 992.541 728.276 991.342 729.366L988.794 731.864V731.983H996.124V735H983.68ZM1002.56 735.247C1001.73 735.247 1000.99 735.102 1000.33 734.812C999.678 734.517 999.161 734.082 998.781 733.509C998.406 732.929 998.218 732.207 998.218 731.344C998.218 730.616 998.352 730.006 998.619 729.511C998.886 729.017 999.249 728.619 999.71 728.318C1000.17 728.017 1000.69 727.79 1001.28 727.636C1001.87 727.483 1002.49 727.375 1003.14 727.312C1003.9 727.233 1004.51 727.159 1004.98 727.091C1005.44 727.017 1005.78 726.909 1005.99 726.767C1006.2 726.625 1006.31 726.415 1006.31 726.136V726.085C1006.31 725.545 1006.14 725.128 1005.79 724.832C1005.46 724.537 1004.98 724.389 1004.36 724.389C1003.71 724.389 1003.19 724.534 1002.8 724.824C1002.42 725.108 1002.16 725.466 1002.04 725.898L998.678 725.625C998.849 724.83 999.184 724.142 999.684 723.562C1000.18 722.977 1000.83 722.528 1001.62 722.216C1002.41 721.898 1003.33 721.739 1004.38 721.739C1005.11 721.739 1005.8 721.824 1006.47 721.994C1007.14 722.165 1007.73 722.429 1008.25 722.787C1008.77 723.145 1009.18 723.605 1009.49 724.168C1009.79 724.724 1009.94 725.392 1009.94 726.17V735H1006.49V733.185H1006.39C1006.18 733.594 1005.9 733.955 1005.55 734.267C1005.2 734.574 1004.77 734.815 1004.28 734.991C1003.78 735.162 1003.21 735.247 1002.56 735.247ZM1003.6 732.741C1004.14 732.741 1004.61 732.636 1005.02 732.426C1005.43 732.21 1005.75 731.92 1005.98 731.557C1006.22 731.193 1006.33 730.781 1006.33 730.321V728.932C1006.22 729.006 1006.06 729.074 1005.86 729.136C1005.67 729.193 1005.45 729.247 1005.21 729.298C1004.96 729.344 1004.72 729.386 1004.47 729.426C1004.23 729.46 1004.01 729.491 1003.81 729.52C1003.38 729.582 1003.01 729.682 1002.69 729.818C1002.37 729.955 1002.13 730.139 1001.95 730.372C1001.77 730.599 1001.69 730.884 1001.69 731.224C1001.69 731.719 1001.87 732.097 1002.22 732.358C1002.59 732.614 1003.05 732.741 1003.6 732.741Z" fill="#7E7E7E"/>
<path id="101&#208;&#176;" d="M1095.01 717.545V735H1091.32V721.048H1091.22L1087.22 723.554V720.281L1091.54 717.545H1095.01ZM1106 735.384C1104.53 735.378 1103.27 735.017 1102.22 734.301C1101.17 733.585 1100.36 732.548 1099.79 731.19C1099.23 729.832 1098.95 728.199 1098.95 726.29C1098.95 724.386 1099.23 722.764 1099.8 721.423C1100.36 720.082 1101.17 719.062 1102.23 718.364C1103.28 717.659 1104.54 717.307 1106 717.307C1107.46 717.307 1108.72 717.659 1109.77 718.364C1110.82 719.068 1111.64 720.091 1112.21 721.432C1112.77 722.767 1113.05 724.386 1113.05 726.29C1113.05 728.205 1112.76 729.841 1112.2 731.199C1111.63 732.557 1110.83 733.594 1109.78 734.31C1108.73 735.026 1107.47 735.384 1106 735.384ZM1106 732.324C1107 732.324 1107.8 731.821 1108.4 730.815C1108.99 729.81 1109.29 728.301 1109.28 726.29C1109.28 724.966 1109.15 723.864 1108.87 722.983C1108.61 722.102 1108.23 721.44 1107.73 720.997C1107.24 720.554 1106.67 720.332 1106 720.332C1105.01 720.332 1104.21 720.83 1103.61 721.824C1103.02 722.818 1102.72 724.307 1102.71 726.29C1102.71 727.631 1102.84 728.75 1103.11 729.648C1103.38 730.54 1103.77 731.21 1104.26 731.659C1104.76 732.102 1105.34 732.324 1106 732.324ZM1123.27 717.545V735H1119.58V721.048H1119.48L1115.48 723.554V720.281L1119.81 717.545H1123.27ZM1131.19 735.247C1130.35 735.247 1129.61 735.102 1128.96 734.812C1128.3 734.517 1127.79 734.082 1127.41 733.509C1127.03 732.929 1126.84 732.207 1126.84 731.344C1126.84 730.616 1126.98 730.006 1127.24 729.511C1127.51 729.017 1127.87 728.619 1128.33 728.318C1128.79 728.017 1129.32 727.79 1129.9 727.636C1130.49 727.483 1131.11 727.375 1131.76 727.312C1132.52 727.233 1133.14 727.159 1133.6 727.091C1134.07 727.017 1134.41 726.909 1134.62 726.767C1134.83 726.625 1134.93 726.415 1134.93 726.136V726.085C1134.93 725.545 1134.76 725.128 1134.42 724.832C1134.08 724.537 1133.61 724.389 1132.99 724.389C1132.33 724.389 1131.81 724.534 1131.43 724.824C1131.04 725.108 1130.79 725.466 1130.66 725.898L1127.3 725.625C1127.47 724.83 1127.81 724.142 1128.31 723.562C1128.81 722.977 1129.45 722.528 1130.24 722.216C1131.04 721.898 1131.96 721.739 1133 721.739C1133.73 721.739 1134.43 721.824 1135.09 721.994C1135.76 722.165 1136.36 722.429 1136.87 722.787C1137.4 723.145 1137.81 723.605 1138.11 724.168C1138.41 724.724 1138.56 725.392 1138.56 726.17V735H1135.12V733.185H1135.02C1134.81 733.594 1134.52 733.955 1134.17 734.267C1133.82 734.574 1133.4 734.815 1132.9 734.991C1132.41 735.162 1131.84 735.247 1131.19 735.247ZM1132.23 732.741C1132.76 732.741 1133.24 732.636 1133.64 732.426C1134.05 732.21 1134.37 731.92 1134.61 731.557C1134.84 731.193 1134.96 730.781 1134.96 730.321V728.932C1134.84 729.006 1134.69 729.074 1134.49 729.136C1134.29 729.193 1134.08 729.247 1133.83 729.298C1133.59 729.344 1133.34 729.386 1133.1 729.426C1132.85 729.46 1132.63 729.491 1132.43 729.52C1132.01 729.582 1131.64 729.682 1131.32 729.818C1131 729.955 1130.75 730.139 1130.58 730.372C1130.4 730.599 1130.31 730.884 1130.31 731.224C1130.31 731.719 1130.49 732.097 1130.85 732.358C1131.21 732.614 1131.67 732.741 1132.23 732.741Z" fill="#7E7E7E"/>
<path id="&#208;&#144;&#208;&#148;&#208;&#156;&#208;&#152;&#208;&#157;&#208;&#152;&#208;&#161;&#208;&#162;&#208;&#160;&#208;&#144;&#208;&#166;&#208;&#152;&#208;&#175;" d="M1163 337.474V341.429L1145.55 335.403V330.648L1163 324.631V328.585L1149.53 332.957V333.094L1163 337.474ZM1156.14 337.722V328.381H1159.02V337.722H1156.14ZM1167.21 323.476H1160.06V322.291C1159.77 321.888 1159.36 321.518 1158.83 321.183C1158.3 320.848 1157.56 320.561 1156.62 320.322C1155.68 320.084 1154.45 319.913 1152.93 319.811L1145.55 319.317V307.768H1160.06V305.859H1167.19V309.405H1163V319.93H1167.21V323.476ZM1160.06 318.03V311.314H1148.59V315.993L1152.93 316.266C1154.08 316.339 1155.1 316.462 1155.99 316.632C1156.89 316.797 1157.67 316.999 1158.34 317.237C1159 317.47 1159.58 317.734 1160.06 318.03ZM1145.55 303.616V299.065L1157.27 294.258V294.053L1145.55 289.246V284.695H1163V288.275H1151.64V288.42L1162.91 292.937V295.374L1151.6 299.891V300.036H1163V303.616H1145.55ZM1145.55 281.655V277.973H1156.52V277.828L1145.55 270.286V267.055H1163V270.746H1152.01V270.874L1163 278.459V281.655H1145.55ZM1163 264.006H1145.55V260.316H1152.75V252.825H1145.55V249.143H1163V252.825H1155.79V260.316H1163V264.006ZM1145.55 246.1V242.418H1156.52V242.273L1145.55 234.731V231.501H1163V235.191H1152.01V235.319L1163 242.904V246.1H1145.55ZM1180.66 325.082V328.815C1180.17 328.884 1179.74 329.023 1179.37 329.233C1178.99 329.443 1178.66 329.713 1178.4 330.043C1178.13 330.372 1177.93 330.753 1177.78 331.185C1177.64 331.611 1177.57 332.074 1177.57 332.574C1177.57 333.477 1177.8 334.264 1178.24 334.935C1178.69 335.605 1179.34 336.125 1180.19 336.494C1181.03 336.864 1182.06 337.048 1183.27 337.048C1184.52 337.048 1185.56 336.864 1186.41 336.494C1187.26 336.119 1187.89 335.597 1188.33 334.926C1188.76 334.256 1188.97 333.48 1188.97 332.599C1188.97 332.105 1188.91 331.648 1188.78 331.227C1188.65 330.801 1188.46 330.423 1188.21 330.094C1187.95 329.764 1187.64 329.491 1187.28 329.276C1186.91 329.054 1186.5 328.901 1186.03 328.815L1186.05 325.082C1186.85 325.179 1187.62 325.42 1188.37 325.807C1189.11 326.187 1189.77 326.702 1190.36 327.349C1190.93 327.991 1191.39 328.759 1191.74 329.651C1192.07 330.537 1192.24 331.54 1192.24 332.659C1192.24 334.216 1191.89 335.608 1191.18 336.835C1190.48 338.057 1189.46 339.023 1188.12 339.733C1186.79 340.438 1185.17 340.79 1183.27 340.79C1181.37 340.79 1179.75 340.432 1178.41 339.716C1177.08 339 1176.06 338.028 1175.36 336.801C1174.66 335.574 1174.31 334.193 1174.31 332.659C1174.31 331.648 1174.45 330.71 1174.73 329.847C1175.02 328.977 1175.43 328.207 1175.98 327.537C1176.52 326.866 1177.18 326.321 1177.96 325.901C1178.75 325.474 1179.64 325.202 1180.66 325.082ZM1177.59 323.101H1174.55V308.766H1177.59V314.109H1192V317.757H1177.59V323.101ZM1192 306.405H1174.55V299.518C1174.55 298.195 1174.8 297.067 1175.3 296.135C1175.8 295.203 1176.5 294.493 1177.39 294.004C1178.28 293.51 1179.3 293.263 1180.46 293.263C1181.62 293.263 1182.64 293.513 1183.53 294.013C1184.41 294.513 1185.11 295.237 1185.6 296.186C1186.09 297.129 1186.34 298.271 1186.34 299.612V304.001H1183.38V300.209C1183.38 299.499 1183.26 298.913 1183.02 298.453C1182.77 297.987 1182.42 297.641 1181.99 297.413C1181.54 297.18 1181.03 297.064 1180.46 297.064C1179.88 297.064 1179.37 297.18 1178.94 297.413C1178.51 297.641 1178.17 297.987 1177.93 298.453C1177.68 298.919 1177.56 299.51 1177.56 300.226V302.714H1192V306.405ZM1192 289.873V293.827L1174.55 287.802V283.046L1192 277.029V280.984L1178.53 285.356V285.492L1192 289.873ZM1185.14 290.12V280.779H1188.02V290.12H1185.14ZM1189.05 258.113L1196.12 258.326V261.837H1192V263.065H1189.05V258.113ZM1192 274.928H1174.55V271.383H1189.03V264.121H1174.55V260.533H1192V274.928ZM1174.55 255.874V252.192H1185.52V252.047L1174.55 244.504V241.274H1192V244.964H1181.01V245.092L1192 252.678V255.874H1174.55ZM1192 224.827V228.509H1177.56V230.998C1177.56 231.708 1177.67 232.299 1177.88 232.771C1178.08 233.237 1178.38 233.586 1178.78 233.819C1179.18 234.052 1179.67 234.168 1180.25 234.168C1180.82 234.168 1181.3 234.052 1181.69 233.819C1182.07 233.586 1182.36 233.237 1182.56 232.771C1182.75 232.305 1182.85 231.719 1182.85 231.015V227.009H1185.81V231.612C1185.81 232.947 1185.59 234.089 1185.15 235.038C1184.7 235.987 1184.07 236.711 1183.24 237.211C1182.4 237.711 1181.41 237.961 1180.25 237.961C1179.09 237.961 1178.09 237.717 1177.24 237.228C1176.38 236.734 1175.72 236.021 1175.25 235.089C1174.78 234.151 1174.55 233.023 1174.55 231.705V224.827H1192ZM1184.06 234.245V230.265L1192 234.509V238.583L1184.06 234.245Z" fill="#7E7E7E"/>
</g>
<defs>
<filter id="filter0_f_0_1" x="253" y="292" width="870" height="393" filterUnits="userSpaceOnUse" color-interpolation-filters="sRGB">
<feFlood flood-opacity="0" result="BackgroundImageFix"/>
<feBlend mode="normal" in="SourceGraphic" in2="BackgroundImageFix" result="shape"/>
<feGaussianBlur stdDeviation="3" result="effect1_foregroundBlur_0_1"/>
</filter>
<filter id="filter1_d_0_1" x="1040" y="674" width="148" height="118" filterUnits="userSpaceOnUse" color-interpolation-filters="sRGB">
<feFlood flood-opacity="0" result="BackgroundImageFix"/>
<feColorMatrix in="SourceAlpha" type="matrix" values="0 0 0 0 0 0 0 0 0 0 0 0 0 0 0 0 0 0 127 0" result="hardAlpha"/>
<feOffset dy="4"/>
<feGaussianBlur stdDeviation="2"/>
<feComposite in2="hardAlpha" operator="out"/>
<feColorMatrix type="matrix" values="0 0 0 0 0 0 0 0 0 0 0 0 0 0 0 0 0 0 0.25 0"/>
<feBlend mode="normal" in2="BackgroundImageFix" result="effect1_dropShadow_0_1"/>
<feBlend mode="normal" in="SourceGraphic" in2="effect1_dropShadow_0_1" result="shape"/>
</filter>
<filter id="filter2_d_0_1" x="914" y="674" width="132" height="118" filterUnits="userSpaceOnUse" color-interpolation-filters="sRGB">
<feFlood flood-opacity="0" result="BackgroundImageFix"/>
<feColorMatrix in="SourceAlpha" type="matrix" values="0 0 0 0 0 0 0 0 0 0 0 0 0 0 0 0 0 0 127 0" result="hardAlpha"/>
<feOffset dy="4"/>
<feGaussianBlur stdDeviation="2"/>
<feComposite in2="hardAlpha" operator="out"/>
<feColorMatrix type="matrix" values="0 0 0 0 0 0 0 0 0 0 0 0 0 0 0 0 0 0 0.25 0"/>
<feBlend mode="normal" in2="BackgroundImageFix" result="effect1_dropShadow_0_1"/>
<feBlend mode="normal" in="SourceGraphic" in2="effect1_dropShadow_0_1" result="shape"/>
</filter>
<filter id="filter3_d_0_1" x="778" y="674" width="142" height="118" filterUnits="userSpaceOnUse" color-interpolation-filters="sRGB">
<feFlood flood-opacity="0" result="BackgroundImageFix"/>
<feColorMatrix in="SourceAlpha" type="matrix" values="0 0 0 0 0 0 0 0 0 0 0 0 0 0 0 0 0 0 127 0" result="hardAlpha"/>
<feOffset dy="4"/>
<feGaussianBlur stdDeviation="2"/>
<feComposite in2="hardAlpha" operator="out"/>
<feColorMatrix type="matrix" values="0 0 0 0 0 0 0 0 0 0 0 0 0 0 0 0 0 0 0.25 0"/>
<feBlend mode="normal" in2="BackgroundImageFix" result="effect1_dropShadow_0_1"/>
<feBlend mode="normal" in="SourceGraphic" in2="effect1_dropShadow_0_1" result="shape"/>
</filter>
<filter id="filter4_d_0_1" x="384" y="674" width="331" height="118" filterUnits="userSpaceOnUse" color-interpolation-filters="sRGB">
<feFlood flood-opacity="0" result="BackgroundImageFix"/>
<feColorMatrix in="SourceAlpha" type="matrix" values="0 0 0 0 0 0 0 0 0 0 0 0 0 0 0 0 0 0 127 0" result="hardAlpha"/>
<feOffset dy="4"/>
<feGaussianBlur stdDeviation="2"/>
<feComposite in2="hardAlpha" operator="out"/>
<feColorMatrix type="matrix" values="0 0 0 0 0 0 0 0 0 0 0 0 0 0 0 0 0 0 0.25 0"/>
<feBlend mode="normal" in2="BackgroundImageFix" result="effect1_dropShadow_0_1"/>
<feBlend mode="normal" in="SourceGraphic" in2="effect1_dropShadow_0_1" result="shape"/>
</filter>
<filter id="filter5_d_0_1" x="234" y="674" width="156" height="118" filterUnits="userSpaceOnUse" color-interpolation-filters="sRGB">
<feFlood flood-opacity="0" result="BackgroundImageFix"/>
<feColorMatrix in="SourceAlpha" type="matrix" values="0 0 0 0 0 0 0 0 0 0 0 0 0 0 0 0 0 0 127 0" result="hardAlpha"/>
<feOffset dy="4"/>
<feGaussianBlur stdDeviation="2"/>
<feComposite in2="hardAlpha" operator="out"/>
<feColorMatrix type="matrix" values="0 0 0 0 0 0 0 0 0 0 0 0 0 0 0 0 0 0 0.25 0"/>
<feBlend mode="normal" in2="BackgroundImageFix" result="effect1_dropShadow_0_1"/>
<feBlend mode="normal" in="SourceGraphic" in2="effect1_dropShadow_0_1" result="shape"/>
</filter>
<filter id="filter6_d_0_1" x="656" y="566" width="132" height="69" filterUnits="userSpaceOnUse" color-interpolation-filters="sRGB">
<feFlood flood-opacity="0" result="BackgroundImageFix"/>
<feColorMatrix in="SourceAlpha" type="matrix" values="0 0 0 0 0 0 0 0 0 0 0 0 0 0 0 0 0 0 127 0" result="hardAlpha"/>
<feOffset dy="4"/>
<feGaussianBlur stdDeviation="2"/>
<feComposite in2="hardAlpha" operator="out"/>
<feColorMatrix type="matrix" values="0 0 0 0 0 0 0 0 0 0 0 0 0 0 0 0 0 0 0.25 0"/>
<feBlend mode="normal" in2="BackgroundImageFix" result="effect1_dropShadow_0_1"/>
<feBlend mode="normal" in="SourceGraphic" in2="effect1_dropShadow_0_1" result="shape"/>
</filter>
<filter id="filter7_d_0_1" x="782" y="566" width="67" height="69" filterUnits="userSpaceOnUse" color-interpolation-filters="sRGB">
<feFlood flood-opacity="0" result="BackgroundImageFix"/>
<feColorMatrix in="SourceAlpha" type="matrix" values="0 0 0 0 0 0 0 0 0 0 0 0 0 0 0 0 0 0 127 0" result="hardAlpha"/>
<feOffset dy="4"/>
<feGaussianBlur stdDeviation="2"/>
<feComposite in2="hardAlpha" operator="out"/>
<feColorMatrix type="matrix" values="0 0 0 0 0 0 0 0 0 0 0 0 0 0 0 0 0 0 0.25 0"/>
<feBlend mode="normal" in2="BackgroundImageFix" result="effect1_dropShadow_0_1"/>
<feBlend mode="normal" in="SourceGraphic" in2="effect1_dropShadow_0_1" result="shape"/>
</filter>
<filter id="filter8_d_0_1" x="1182" y="712" width="52" height="80" filterUnits="userSpaceOnUse" color-interpolation-filters="sRGB">
<feFlood flood-opacity="0" result="BackgroundImageFix"/>
<feColorMatrix in="SourceAlpha" type="matrix" values="0 0 0 0 0 0 0 0 0 0 0 0 0 0 0 0 0 0 127 0" result="hardAlpha"/>
<feOffset dy="4"/>
<feGaussianBlur stdDeviation="2"/>
<feComposite in2="hardAlpha" operator="out"/>
<feColorMatrix type="matrix" values="0 0 0 0 0 0 0 0 0 0 0 0 0 0 0 0 0 0 0.25 0"/>
<feBlend mode="normal" in2="BackgroundImageFix" result="effect1_dropShadow_0_1"/>
<feBlend mode="normal" in="SourceGraphic" in2="effect1_dropShadow_0_1" result="shape"/>
</filter>
<filter id="filter9_d_0_1" x="187" y="674" width="53" height="118" filterUnits="userSpaceOnUse" color-interpolation-filters="sRGB">
<feFlood flood-opacity="0" result="BackgroundImageFix"/>
<feColorMatrix in="SourceAlpha" type="matrix" values="0 0 0 0 0 0 0 0 0 0 0 0 0 0 0 0 0 0 127 0" result="hardAlpha"/>
<feOffset dy="4"/>
<feGaussianBlur stdDeviation="2"/>
<feComposite in2="hardAlpha" operator="out"/>
<feColorMatrix type="matrix" values="0 0 0 0 0 0 0 0 0 0 0 0 0 0 0 0 0 0 0.25 0"/>
<feBlend mode="normal" in2="BackgroundImageFix" result="effect1_dropShadow_0_1"/>
<feBlend mode="normal" in="SourceGraphic" in2="effect1_dropShadow_0_1" result="shape"/>
</filter>
<filter id="filter10_d_0_1" x="135" y="709" width="58" height="83" filterUnits="userSpaceOnUse" color-interpolation-filters="sRGB">
<feFlood flood-opacity="0" result="BackgroundImageFix"/>
<feColorMatrix in="SourceAlpha" type="matrix" values="0 0 0 0 0 0 0 0 0 0 0 0 0 0 0 0 0 0 127 0" result="hardAlpha"/>
<feOffset dy="4"/>
<feGaussianBlur stdDeviation="2"/>
<feComposite in2="hardAlpha" operator="out"/>
<feColorMatrix type="matrix" values="0 0 0 0 0 0 0 0 0 0 0 0 0 0 0 0 0 0 0.25 0"/>
<feBlend mode="normal" in2="BackgroundImageFix" result="effect1_dropShadow_0_1"/>
<feBlend mode="normal" in="SourceGraphic" in2="effect1_dropShadow_0_1" result="shape"/>
</filter>
<filter id="filter11_d_0_1" x="354" y="571" width="244" height="64" filterUnits="userSpaceOnUse" color-interpolation-filters="sRGB">
<feFlood flood-opacity="0" result="BackgroundImageFix"/>
<feColorMatrix in="SourceAlpha" type="matrix" values="0 0 0 0 0 0 0 0 0 0 0 0 0 0 0 0 0 0 127 0" result="hardAlpha"/>
<feOffset dy="4"/>
<feGaussianBlur stdDeviation="2"/>
<feComposite in2="hardAlpha" operator="out"/>
<feColorMatrix type="matrix" values="0 0 0 0 0 0 0 0 0 0 0 0 0 0 0 0 0 0 0.25 0"/>
<feBlend mode="normal" in2="BackgroundImageFix" result="effect1_dropShadow_0_1"/>
<feBlend mode="normal" in="SourceGraphic" in2="effect1_dropShadow_0_1" result="shape"/>
</filter>
<filter id="filter12_d_0_1" x="351" y="443" width="52" height="116" filterUnits="userSpaceOnUse" color-interpolation-filters="sRGB">
<feFlood flood-opacity="0" result="BackgroundImageFix"/>
<feColorMatrix in="SourceAlpha" type="matrix" values="0 0 0 0 0 0 0 0 0 0 0 0 0 0 0 0 0 0 127 0" result="hardAlpha"/>
<feOffset dy="4"/>
<feGaussianBlur stdDeviation="2"/>
<feComposite in2="hardAlpha" operator="out"/>
<feColorMatrix type="matrix" values="0 0 0 0 0 0 0 0 0 0 0 0 0 0 0 0 0 0 0.25 0"/>
<feBlend mode="normal" in2="BackgroundImageFix" result="effect1_dropShadow_0_1"/>
<feBlend mode="normal" in="SourceGraphic" in2="effect1_dropShadow_0_1" result="shape"/>
</filter>
<filter id="filter13_d_0_1" x="422" y="443" width="87" height="116" filterUnits="userSpaceOnUse" color-interpolation-filters="sRGB">
<feFlood flood-opacity="0" result="BackgroundImageFix"/>
<feColorMatrix in="SourceAlpha" type="matrix" values="0 0 0 0 0 0 0 0 0 0 0 0 0 0 0 0 0 0 127 0" result="hardAlpha"/>
<feOffset dy="4"/>
<feGaussianBlur stdDeviation="2"/>
<feComposite in2="hardAlpha" operator="out"/>
<feColorMatrix type="matrix" values="0 0 0 0 0 0 0 0 0 0 0 0 0 0 0 0 0 0 0.25 0"/>
<feBlend mode="normal" in2="BackgroundImageFix" result="effect1_dropShadow_0_1"/>
<feBlend mode="normal" in="SourceGraphic" in2="effect1_dropShadow_0_1" result="shape"/>
</filter>
<filter id="filter14_d_0_1" x="503" y="443" width="94" height="116" filterUnits="userSpaceOnUse" color-interpolation-filters="sRGB">
<feFlood flood-opacity="0" result="BackgroundImageFix"/>
<feColorMatrix in="SourceAlpha" type="matrix" values="0 0 0 0 0 0 0 0 0 0 0 0 0 0 0 0 0 0 127 0" result="hardAlpha"/>
<feOffset dy="4"/>
<feGaussianBlur stdDeviation="2"/>
<feComposite in2="hardAlpha" operator="out"/>
<feColorMatrix type="matrix" values="0 0 0 0 0 0 0 0 0 0 0 0 0 0 0 0 0 0 0.25 0"/>
<feBlend mode="normal" in2="BackgroundImageFix" result="effect1_dropShadow_0_1"/>
<feBlend mode="normal" in="SourceGraphic" in2="effect1_dropShadow_0_1" result="shape"/>
</filter>
<filter id="filter15_d_0_1" x="658" y="219" width="133" height="92" filterUnits="userSpaceOnUse" color-interpolation-filters="sRGB">
<feFlood flood-opacity="0" result="BackgroundImageFix"/>
<feColorMatrix in="SourceAlpha" type="matrix" values="0 0 0 0 0 0 0 0 0 0 0 0 0 0 0 0 0 0 127 0" result="hardAlpha"/>
<feOffset dy="4"/>
<feGaussianBlur stdDeviation="2"/>
<feComposite in2="hardAlpha" operator="out"/>
<feColorMatrix type="matrix" values="0 0 0 0 0 0 0 0 0 0 0 0 0 0 0 0 0 0 0.25 0"/>
<feBlend mode="normal" in2="BackgroundImageFix" result="effect1_dropShadow_0_1"/>
<feBlend mode="normal" in="SourceGraphic" in2="effect1_dropShadow_0_1" result="shape"/>
</filter>
<filter id="filter16_d_0_1" x="785" y="219" width="62" height="92" filterUnits="userSpaceOnUse" color-interpolation-filters="sRGB">
<feFlood flood-opacity="0" result="BackgroundImageFix"/>
<feColorMatrix in="SourceAlpha" type="matrix" values="0 0 0 0 0 0 0 0 0 0 0 0 0 0 0 0 0 0 127 0" result="hardAlpha"/>
<feOffset dy="4"/>
<feGaussianBlur stdDeviation="2"/>
<feComposite in2="hardAlpha" operator="out"/>
<feColorMatrix type="matrix" values="0 0 0 0 0 0 0 0 0 0 0 0 0 0 0 0 0 0 0.25 0"/>
<feBlend mode="normal" in2="BackgroundImageFix" result="effect1_dropShadow_0_1"/>
<feBlend mode="normal" in="SourceGraphic" in2="effect1_dropShadow_0_1" result="shape"/>
</filter>
<filter id="filter17_d_0_1" x="841" y="219" width="75" height="121" filterUnits="userSpaceOnUse" color-interpolation-filters="sRGB">
<feFlood flood-opacity="0" result="BackgroundImageFix"/>
<feColorMatrix in="SourceAlpha" type="matrix" values="0 0 0 0 0 0 0 0 0 0 0 0 0 0 0 0 0 0 127 0" result="hardAlpha"/>
<feOffset dy="4"/>
<feGaussianBlur stdDeviation="2"/>
<feComposite in2="hardAlpha" operator="out"/>
<feColorMatrix type="matrix" values="0 0 0 0 0 0 0 0 0 0 0 0 0 0 0 0 0 0 0.25 0"/>
<feBlend mode="normal" in2="BackgroundImageFix" result="effect1_dropShadow_0_1"/>
<feBlend mode="normal" in="SourceGraphic" in2="effect1_dropShadow_0_1" result="shape"/>
</filter>
<filter id="filter18_d_0_1" x="910" y="252" width="155" height="88" filterUnits="userSpaceOnUse" color-interpolation-filters="sRGB">
<feFlood flood-opacity="0" result="BackgroundImageFix"/>
<feColorMatrix in="SourceAlpha" type="matrix" values="0 0 0 0 0 0 0 0 0 0 0 0 0 0 0 0 0 0 127 0" result="hardAlpha"/>
<feOffset dy="4"/>
<feGaussianBlur stdDeviation="2"/>
<feComposite in2="hardAlpha" operator="out"/>
<feColorMatrix type="matrix" values="0 0 0 0 0 0 0 0 0 0 0 0 0 0 0 0 0 0 0.25 0"/>
<feBlend mode="normal" in2="BackgroundImageFix" result="effect1_dropShadow_0_1"/>
<feBlend mode="normal" in="SourceGraphic" in2="effect1_dropShadow_0_1" result="shape"/>
</filter>
<filter id="filter19_d_0_1" x="1108" y="177" width="132" height="203" filterUnits="userSpaceOnUse" color-interpolation-filters="sRGB">
<feFlood flood-opacity="0" result="BackgroundImageFix"/>
<feColorMatrix in="SourceAlpha" type="matrix" values="0 0 0 0 0 0 0 0 0 0 0 0 0 0 0 0 0 0 127 0" result="hardAlpha"/>
<feOffset dy="4"/>
<feGaussianBlur stdDeviation="2"/>
<feComposite in2="hardAlpha" operator="out"/>
<feColorMatrix type="matrix" values="0 0 0 0 0 0 0 0 0 0 0 0 0 0 0 0 0 0 0.25 0"/>
<feBlend mode="normal" in2="BackgroundImageFix" result="effect1_dropShadow_0_1"/>
<feBlend mode="normal" in="SourceGraphic" in2="effect1_dropShadow_0_1" result="shape"/>
</filter>
<filter id="filter20_d_0_1" x="656" y="428" width="170" height="144" filterUnits="userSpaceOnUse" color-interpolation-filters="sRGB">
<feFlood flood-opacity="0" result="BackgroundImageFix"/>
<feColorMatrix in="SourceAlpha" type="matrix" values="0 0 0 0 0 0 0 0 0 0 0 0 0 0 0 0 0 0 127 0" result="hardAlpha"/>
<feOffset dy="4"/>
<feGaussianBlur stdDeviation="2"/>
<feComposite in2="hardAlpha" operator="out"/>
<feColorMatrix type="matrix" values="0 0 0 0 0 0 0 0 0 0 0 0 0 0 0 0 0 0 0.25 0"/>
<feBlend mode="normal" in2="BackgroundImageFix" result="effect1_dropShadow_0_1"/>
<feBlend mode="normal" in="SourceGraphic" in2="effect1_dropShadow_0_1" result="shape"/>
</filter>
</defs>
</svg>
