<svg width="1228" height="783" viewBox="0 0 1228 783" fill="none" xmlns="http://www.w3.org/2000/svg">
<rect width="1228" height="783" fill="#1E1E1E"/>
<g id="Frame 1">
<rect width="1228" height="783" fill="white"/>
<path id="Rectangle 37" d="M82 155.5H516.5V131.5L544 56H628L598 131.5V155.5H1147V312H1100V360H963.5V347H938.5V482H716.5V615C710.977 667.687 695.016 683.504 641.5 685H472.5V656H268.5V727H81.5V535.5H248V389C195.258 380.123 179.962 362.479 164.5 313.5H82V155.5Z" fill="#7E7E7E"/>
<g id="Group 1" filter="url(#filter0_f_13_52)">
<line id="Line 1" x1="220" y1="636" x2="220" y2="618" stroke="#4674FF" stroke-width="10"/>
<line id="Line 2" x1="286" y1="545" x2="304" y2="545" stroke="#4674FF" stroke-width="10"/>
<line id="Line 3" x1="410" y1="311" x2="428" y2="311" stroke="#4674FF" stroke-width="10"/>
<line id="Line 4" x1="234" y1="262" x2="252" y2="262" stroke="#4674FF" stroke-width="10"/>
<line id="Line 5" x1="294" y1="262" x2="312" y2="262" stroke="#4674FF" stroke-width="10"/>
<line id="Line 6" x1="467" y1="262" x2="485" y2="262" stroke="#4674FF" stroke-width="10"/>
<line id="Line 7" x1="673" y1="262" x2="691" y2="262" stroke="#4674FF" stroke-width="10"/>
<line id="Line 8" x1="798" y1="262" x2="816" y2="262" stroke="#4674FF" stroke-width="10"/>
<line id="Line 9" x1="927" y1="262" x2="945" y2="262" stroke="#4674FF" stroke-width="10"/>
<line id="Line 10" x1="985" y1="262" x2="1004" y2="262" stroke="#4674FF" stroke-width="10"/>
<line id="Line 11" x1="908" y1="357" x2="926" y2="357" stroke="#4674FF" stroke-width="10"/>
<line id="Line 12" x1="665" y1="311" x2="683" y2="311" stroke="#4674FF" stroke-width="10"/>
<line id="Line 13" x1="552" y1="311" x2="570" y2="311" stroke="#4674FF" stroke-width="10"/>
</g>
<g id="208a" filter="url(#filter1_d_13_52)">
<rect x="85" y="540" width="135" height="183" fill="#D9D9D9"/>
</g>
<g id="Rectangle 22" filter="url(#filter2_d_13_52)">
<rect x="262" y="579" width="210" height="73" fill="#D9D9D9"/>
</g>
<g id="choreography hall" filter="url(#filter3_d_13_52)">
<path d="M171 311H472V545H253V384C202.553 376.3 185.597 359.188 171 311Z" fill="#D9D9D9"/>
</g>
<g id="assembly hall" filter="url(#filter4_d_13_52)">
<path d="M474 311H644V609.5C635.757 609.855 632.515 611.721 630 619V641.5L487 642.5V621C484.569 614.397 481.86 612.068 474 611V311Z" fill="#D9D9D9"/>
</g>
<g id="museum " filter="url(#filter5_d_13_52)">
<path d="M646 311H711V610C706.909 659.514 694.146 676.274 646 679.5V311Z" fill="#D9D9D9"/>
</g>
<g id="wc-a6" filter="url(#filter6_d_13_52)">
<rect x="86" y="161" width="50" height="77" fill="#D9D9D9"/>
</g>
<g id="201a" filter="url(#filter7_d_13_52)">
<rect x="138" y="161" width="133" height="101" fill="#D9D9D9"/>
</g>
<g id="202a" filter="url(#filter8_d_13_52)">
<rect x="273" y="161" width="120" height="101" fill="#D9D9D9"/>
</g>
<g id="203a" filter="url(#filter9_d_13_52)">
<rect x="395" y="161" width="126" height="101" fill="#D9D9D9"/>
</g>
<g id="laboratory " filter="url(#filter10_d_13_52)">
<rect x="713" y="357" width="221" height="120" fill="#D9D9D9"/>
</g>
<g id="204a" filter="url(#filter11_d_13_52)">
<rect x="594" y="160" width="115" height="102" fill="#D9D9D9"/>
</g>
<g id="Rectangle 32" filter="url(#filter12_d_13_52)">
<rect x="738" y="311" width="163" height="44" fill="#D9D9D9"/>
</g>
<g id="205a" filter="url(#filter13_d_13_52)">
<rect x="712" y="160" width="128" height="102" fill="#D9D9D9"/>
</g>
<g id="206a" filter="url(#filter14_d_13_52)">
<rect x="842" y="160" width="120" height="102" fill="#D9D9D9"/>
</g>
<g id="207a" filter="url(#filter15_d_13_52)">
<rect x="965" y="160" width="126" height="102" fill="#D9D9D9"/>
</g>
<g id="wc-a7" filter="url(#filter16_d_13_52)">
<rect x="1093" y="160" width="45" height="70" fill="#D9D9D9"/>
</g>
<path id="208&#208;&#176;" d="M107.886 647V643.455L116.17 635.784C116.875 635.102 117.466 634.489 117.943 633.943C118.428 633.398 118.795 632.864 119.045 632.341C119.295 631.811 119.42 631.239 119.42 630.625C119.42 629.943 119.265 629.356 118.955 628.864C118.644 628.364 118.22 627.981 117.682 627.716C117.144 627.443 116.534 627.307 115.852 627.307C115.14 627.307 114.519 627.451 113.989 627.739C113.458 628.027 113.049 628.439 112.761 628.977C112.473 629.515 112.33 630.155 112.33 630.898H107.659C107.659 629.375 108.004 628.053 108.693 626.932C109.383 625.811 110.348 624.943 111.591 624.33C112.833 623.716 114.265 623.409 115.886 623.409C117.553 623.409 119.004 623.705 120.239 624.295C121.481 624.879 122.447 625.689 123.136 626.727C123.826 627.765 124.17 628.955 124.17 630.295C124.17 631.174 123.996 632.042 123.648 632.898C123.307 633.754 122.697 634.705 121.818 635.75C120.939 636.788 119.701 638.034 118.102 639.489L114.705 642.818V642.977H124.477V647H107.886ZM137.168 647.511C135.213 647.504 133.531 647.023 132.122 646.068C130.721 645.114 129.641 643.731 128.884 641.92C128.134 640.11 127.762 637.932 127.77 635.386C127.77 632.848 128.145 630.686 128.895 628.898C129.652 627.11 130.732 625.75 132.134 624.818C133.543 623.879 135.221 623.409 137.168 623.409C139.115 623.409 140.789 623.879 142.19 624.818C143.599 625.758 144.683 627.121 145.44 628.909C146.198 630.689 146.573 632.848 146.565 635.386C146.565 637.939 146.187 640.121 145.429 641.932C144.679 643.742 143.603 645.125 142.202 646.08C140.8 647.034 139.122 647.511 137.168 647.511ZM137.168 643.432C138.501 643.432 139.565 642.761 140.361 641.42C141.156 640.08 141.55 638.068 141.543 635.386C141.543 633.621 141.361 632.152 140.997 630.977C140.641 629.803 140.134 628.92 139.474 628.33C138.823 627.739 138.054 627.443 137.168 627.443C135.842 627.443 134.781 628.106 133.986 629.432C133.19 630.758 132.789 632.742 132.781 635.386C132.781 637.174 132.959 638.667 133.315 639.864C133.679 641.053 134.19 641.947 134.849 642.545C135.509 643.136 136.281 643.432 137.168 643.432ZM158.756 647.318C157.006 647.318 155.449 647.034 154.085 646.466C152.729 645.89 151.665 645.106 150.892 644.114C150.119 643.121 149.733 641.996 149.733 640.739C149.733 639.769 149.953 638.879 150.392 638.068C150.839 637.25 151.445 636.572 152.21 636.034C152.975 635.489 153.831 635.14 154.778 634.989V634.83C153.536 634.58 152.528 633.977 151.756 633.023C150.983 632.061 150.597 630.943 150.597 629.67C150.597 628.466 150.949 627.394 151.653 626.455C152.358 625.508 153.324 624.765 154.551 624.227C155.786 623.682 157.188 623.409 158.756 623.409C160.324 623.409 161.722 623.682 162.949 624.227C164.184 624.773 165.153 625.519 165.858 626.466C166.563 627.405 166.919 628.473 166.926 629.67C166.919 630.951 166.525 632.068 165.744 633.023C164.964 633.977 163.964 634.58 162.744 634.83V634.989C163.676 635.14 164.521 635.489 165.278 636.034C166.044 636.572 166.65 637.25 167.097 638.068C167.551 638.879 167.782 639.769 167.79 640.739C167.782 641.996 167.392 643.121 166.619 644.114C165.847 645.106 164.778 645.89 163.415 646.466C162.059 647.034 160.506 647.318 158.756 647.318ZM158.756 643.705C159.536 643.705 160.218 643.564 160.801 643.284C161.384 642.996 161.839 642.602 162.165 642.102C162.498 641.595 162.665 641.011 162.665 640.352C162.665 639.678 162.494 639.083 162.153 638.568C161.813 638.045 161.35 637.636 160.767 637.341C160.184 637.038 159.513 636.886 158.756 636.886C158.006 636.886 157.335 637.038 156.744 637.341C156.153 637.636 155.688 638.045 155.347 638.568C155.013 639.083 154.847 639.678 154.847 640.352C154.847 641.011 155.009 641.595 155.335 642.102C155.661 642.602 156.119 642.996 156.71 643.284C157.301 643.564 157.983 643.705 158.756 643.705ZM158.756 633.307C159.407 633.307 159.987 633.174 160.494 632.909C161.002 632.644 161.4 632.277 161.688 631.807C161.975 631.337 162.119 630.795 162.119 630.182C162.119 629.576 161.975 629.045 161.688 628.591C161.4 628.129 161.006 627.769 160.506 627.511C160.006 627.246 159.422 627.114 158.756 627.114C158.097 627.114 157.513 627.246 157.006 627.511C156.498 627.769 156.1 628.129 155.812 628.591C155.532 629.045 155.392 629.576 155.392 630.182C155.392 630.795 155.536 631.337 155.824 631.807C156.112 632.277 156.509 632.644 157.017 632.909C157.525 633.174 158.104 633.307 158.756 633.307ZM176.253 647.33C175.139 647.33 174.147 647.136 173.276 646.75C172.404 646.356 171.715 645.777 171.207 645.011C170.707 644.239 170.457 643.277 170.457 642.125C170.457 641.155 170.635 640.341 170.991 639.682C171.348 639.023 171.832 638.492 172.446 638.091C173.06 637.689 173.757 637.386 174.537 637.182C175.325 636.977 176.151 636.833 177.014 636.75C178.029 636.644 178.848 636.545 179.469 636.455C180.09 636.356 180.541 636.212 180.821 636.023C181.101 635.833 181.241 635.553 181.241 635.182V635.114C181.241 634.394 181.014 633.837 180.56 633.443C180.113 633.049 179.476 632.852 178.651 632.852C177.779 632.852 177.086 633.045 176.571 633.432C176.056 633.811 175.715 634.288 175.548 634.864L171.071 634.5C171.298 633.439 171.745 632.523 172.412 631.75C173.079 630.97 173.938 630.371 174.991 629.955C176.052 629.53 177.279 629.318 178.673 629.318C179.643 629.318 180.571 629.432 181.457 629.659C182.351 629.886 183.143 630.239 183.832 630.716C184.529 631.193 185.079 631.807 185.48 632.557C185.882 633.299 186.082 634.189 186.082 635.227V647H181.491V644.58H181.355C181.075 645.125 180.7 645.606 180.23 646.023C179.76 646.432 179.196 646.754 178.537 646.989C177.878 647.216 177.116 647.33 176.253 647.33ZM177.639 643.989C178.351 643.989 178.98 643.848 179.526 643.568C180.071 643.28 180.499 642.894 180.81 642.409C181.12 641.924 181.276 641.375 181.276 640.761V638.909C181.124 639.008 180.916 639.098 180.651 639.182C180.393 639.258 180.101 639.33 179.776 639.398C179.45 639.458 179.124 639.515 178.798 639.568C178.473 639.614 178.177 639.655 177.912 639.693C177.344 639.777 176.848 639.909 176.423 640.091C175.999 640.273 175.67 640.519 175.435 640.83C175.2 641.133 175.082 641.511 175.082 641.966C175.082 642.625 175.321 643.129 175.798 643.477C176.283 643.818 176.897 643.989 177.639 643.989Z" fill="#7E7E7E"/>
<path id="&#208;&#151;&#208;&#144;&#208;&#155; &#208;&#165;&#208;&#158;&#208;&#160;&#208;&#149;&#208;&#158;&#208;&#147;&#208;&#160;&#208;&#144;&#208;&#164;&#208;&#152;&#208;&#152;" d="M269.866 403.239C268.594 403.239 267.46 403.02 266.466 402.582C265.477 402.139 264.696 401.531 264.122 400.759C263.554 399.98 263.261 399.082 263.244 398.065H266.96C266.983 398.491 267.122 398.866 267.378 399.19C267.639 399.509 267.986 399.756 268.418 399.932C268.849 400.108 269.335 400.196 269.875 400.196C270.438 400.196 270.935 400.097 271.366 399.898C271.798 399.699 272.136 399.423 272.381 399.071C272.625 398.719 272.747 398.312 272.747 397.852C272.747 397.386 272.616 396.974 272.355 396.616C272.099 396.253 271.73 395.969 271.247 395.764C270.77 395.56 270.202 395.457 269.543 395.457H267.915V392.747H269.543C270.099 392.747 270.591 392.651 271.017 392.457C271.449 392.264 271.784 391.997 272.023 391.656C272.261 391.31 272.381 390.906 272.381 390.446C272.381 390.009 272.276 389.625 272.065 389.295C271.861 388.96 271.571 388.699 271.196 388.511C270.827 388.324 270.395 388.23 269.901 388.23C269.401 388.23 268.943 388.321 268.528 388.503C268.114 388.679 267.781 388.932 267.531 389.261C267.281 389.591 267.148 389.977 267.131 390.42H263.594C263.611 389.415 263.898 388.528 264.455 387.761C265.011 386.994 265.761 386.395 266.705 385.963C267.653 385.526 268.724 385.307 269.918 385.307C271.122 385.307 272.176 385.526 273.08 385.963C273.983 386.401 274.685 386.991 275.185 387.736C275.69 388.474 275.94 389.304 275.935 390.224C275.94 391.202 275.636 392.017 275.023 392.67C274.415 393.324 273.622 393.739 272.645 393.915V394.051C273.929 394.216 274.906 394.662 275.577 395.389C276.253 396.111 276.588 397.014 276.582 398.099C276.588 399.094 276.301 399.977 275.722 400.75C275.148 401.523 274.355 402.131 273.344 402.574C272.332 403.017 271.173 403.239 269.866 403.239ZM282.346 403H278.391L284.417 385.545H289.173L295.19 403H291.235L286.863 389.534H286.727L282.346 403ZM282.099 396.139H291.44V399.02H282.099V396.139ZM296.344 403V400.034L296.839 399.991C297.475 399.94 297.989 399.699 298.381 399.267C298.773 398.83 299.066 398.134 299.259 397.179C299.458 396.219 299.586 394.929 299.643 393.31L299.933 385.545H311.779V403H308.191V388.503H303.359L303.086 394.58C302.995 396.534 302.762 398.131 302.387 399.369C302.018 400.608 301.427 401.523 300.614 402.114C299.808 402.705 298.702 403 297.299 403H296.344ZM266.977 414.545L270.497 420.494H270.634L274.17 414.545H278.338L273.011 423.273L278.457 432H274.213L270.634 426.043H270.497L266.918 432H262.69L268.153 423.273L262.793 414.545H266.977ZM295.893 423.273C295.893 425.176 295.532 426.795 294.81 428.131C294.094 429.466 293.117 430.486 291.879 431.19C290.646 431.889 289.259 432.239 287.719 432.239C286.168 432.239 284.776 431.886 283.543 431.182C282.31 430.477 281.336 429.457 280.62 428.122C279.904 426.787 279.546 425.17 279.546 423.273C279.546 421.369 279.904 419.75 280.62 418.415C281.336 417.08 282.31 416.062 283.543 415.364C284.776 414.659 286.168 414.307 287.719 414.307C289.259 414.307 290.646 414.659 291.879 415.364C293.117 416.062 294.094 417.08 294.81 418.415C295.532 419.75 295.893 421.369 295.893 423.273ZM292.151 423.273C292.151 422.04 291.967 421 291.597 420.153C291.234 419.307 290.719 418.665 290.055 418.227C289.39 417.79 288.612 417.571 287.719 417.571C286.827 417.571 286.049 417.79 285.384 418.227C284.719 418.665 284.202 419.307 283.833 420.153C283.469 421 283.288 422.04 283.288 423.273C283.288 424.506 283.469 425.545 283.833 426.392C284.202 427.239 284.719 427.881 285.384 428.318C286.049 428.756 286.827 428.974 287.719 428.974C288.612 428.974 289.39 428.756 290.055 428.318C290.719 427.881 291.234 427.239 291.597 426.392C291.967 425.545 292.151 424.506 292.151 423.273ZM298.626 432V414.545H305.513C306.837 414.545 307.964 414.798 308.896 415.304C309.828 415.804 310.538 416.5 311.027 417.392C311.521 418.278 311.768 419.301 311.768 420.46C311.768 421.619 311.518 422.642 311.018 423.528C310.518 424.415 309.794 425.105 308.845 425.599C307.902 426.094 306.76 426.341 305.419 426.341H301.03V423.384H304.822C305.533 423.384 306.118 423.261 306.578 423.017C307.044 422.767 307.391 422.423 307.618 421.986C307.851 421.543 307.967 421.034 307.967 420.46C307.967 419.881 307.851 419.375 307.618 418.943C307.391 418.506 307.044 418.168 306.578 417.929C306.112 417.685 305.521 417.562 304.805 417.562H302.317V432H298.626ZM314.165 432V414.545H325.927V417.588H317.856V421.747H325.322V424.79H317.856V428.957H325.961V432H314.165ZM344.901 423.273C344.901 425.176 344.54 426.795 343.818 428.131C343.102 429.466 342.125 430.486 340.886 431.19C339.653 431.889 338.267 432.239 336.727 432.239C335.176 432.239 333.784 431.886 332.551 431.182C331.318 430.477 330.344 429.457 329.628 428.122C328.912 426.787 328.554 425.17 328.554 423.273C328.554 421.369 328.912 419.75 329.628 418.415C330.344 417.08 331.318 416.062 332.551 415.364C333.784 414.659 335.176 414.307 336.727 414.307C338.267 414.307 339.653 414.659 340.886 415.364C342.125 416.062 343.102 417.08 343.818 418.415C344.54 419.75 344.901 421.369 344.901 423.273ZM341.159 423.273C341.159 422.04 340.974 421 340.605 420.153C340.241 419.307 339.727 418.665 339.062 418.227C338.398 417.79 337.619 417.571 336.727 417.571C335.835 417.571 335.057 417.79 334.392 418.227C333.727 418.665 333.21 419.307 332.841 420.153C332.477 421 332.295 422.04 332.295 423.273C332.295 424.506 332.477 425.545 332.841 426.392C333.21 427.239 333.727 427.881 334.392 428.318C335.057 428.756 335.835 428.974 336.727 428.974C337.619 428.974 338.398 428.756 339.062 428.318C339.727 427.881 340.241 427.239 340.605 426.392C340.974 425.545 341.159 424.506 341.159 423.273ZM359.217 414.545V417.588H351.325V432H347.634V414.545H359.217ZM361.58 432V414.545H368.466C369.79 414.545 370.918 414.798 371.849 415.304C372.781 415.804 373.491 416.5 373.98 417.392C374.474 418.278 374.722 419.301 374.722 420.46C374.722 421.619 374.472 422.642 373.972 423.528C373.472 424.415 372.747 425.105 371.798 425.599C370.855 426.094 369.713 426.341 368.372 426.341H363.983V423.384H367.776C368.486 423.384 369.071 423.261 369.531 423.017C369.997 422.767 370.344 422.423 370.571 421.986C370.804 421.543 370.92 421.034 370.92 420.46C370.92 419.881 370.804 419.375 370.571 418.943C370.344 418.506 369.997 418.168 369.531 417.929C369.065 417.685 368.474 417.562 367.759 417.562H365.27V432H361.58ZM378.112 432H374.157L380.183 414.545H384.938L390.955 432H387.001L382.629 418.534H382.492L378.112 432ZM377.864 425.139H387.205V428.02H377.864V425.139ZM399.139 416.42H403.043C404.44 416.42 405.679 416.716 406.759 417.307C407.844 417.898 408.693 418.73 409.307 419.804C409.926 420.872 410.236 422.128 410.236 423.571C410.236 424.969 409.926 426.187 409.307 427.227C408.693 428.267 407.844 429.077 406.759 429.656C405.679 430.23 404.44 430.517 403.043 430.517H399.139C397.736 430.517 396.491 430.233 395.406 429.665C394.321 429.091 393.469 428.284 392.849 427.244C392.236 426.205 391.929 424.977 391.929 423.562C391.929 422.119 392.239 420.864 392.858 419.795C393.483 418.722 394.338 417.892 395.423 417.307C396.509 416.716 397.747 416.42 399.139 416.42ZM399.139 419.506C398.389 419.506 397.727 419.656 397.153 419.957C396.585 420.253 396.142 420.702 395.824 421.304C395.506 421.906 395.347 422.659 395.347 423.562C395.347 424.426 395.509 425.145 395.832 425.719C396.162 426.293 396.611 426.722 397.179 427.006C397.747 427.29 398.401 427.432 399.139 427.432H403.068C403.813 427.432 404.463 427.287 405.02 426.997C405.582 426.707 406.017 426.276 406.324 425.702C406.636 425.128 406.793 424.418 406.793 423.571C406.793 422.668 406.636 421.915 406.324 421.312C406.017 420.71 405.582 420.259 405.02 419.957C404.463 419.656 403.813 419.506 403.068 419.506H399.139ZM402.838 414.239V432.716H399.335V414.239H402.838ZM412.955 414.545H416.636V425.523H416.781L424.324 414.545H427.554V432H423.864V421.014H423.736L416.151 432H412.955V414.545ZM430.603 414.545H434.285V425.523H434.43L441.972 414.545H445.202V432H441.512V421.014H441.384L433.799 432H430.603V414.545Z" fill="#7E7E7E"/>
<path id="&#208;&#144;&#208;&#154;&#208;&#162;&#208;&#158;&#208;&#146;&#208;&#171;&#208;&#153; &#208;&#151;&#208;&#144;&#208;&#155;" d="M482.034 398H476.761L484.795 374.727H491.136L499.159 398H493.886L488.057 380.045H487.875L482.034 398ZM481.705 388.852H494.159V392.693H481.705V388.852ZM516.04 398L508.562 388.08H506.881V398H501.96V374.727H506.881V384.023H507.869L515.597 374.727H521.722L512.642 385.523L522.142 398H516.04ZM523.73 378.784V374.727H542.844V378.784H535.719V398H530.855V378.784H523.73ZM566.315 386.364C566.315 388.902 565.834 391.061 564.872 392.841C563.918 394.621 562.615 395.981 560.963 396.92C559.319 397.852 557.471 398.318 555.418 398.318C553.349 398.318 551.493 397.848 549.849 396.909C548.205 395.97 546.906 394.61 545.952 392.83C544.997 391.049 544.52 388.894 544.52 386.364C544.52 383.826 544.997 381.667 545.952 379.886C546.906 378.106 548.205 376.75 549.849 375.818C551.493 374.879 553.349 374.409 555.418 374.409C557.471 374.409 559.319 374.879 560.963 375.818C562.615 376.75 563.918 378.106 564.872 379.886C565.834 381.667 566.315 383.826 566.315 386.364ZM561.327 386.364C561.327 384.72 561.08 383.333 560.588 382.205C560.103 381.076 559.418 380.22 558.531 379.636C557.645 379.053 556.607 378.761 555.418 378.761C554.228 378.761 553.19 379.053 552.304 379.636C551.418 380.22 550.728 381.076 550.236 382.205C549.751 383.333 549.509 384.72 549.509 386.364C549.509 388.008 549.751 389.394 550.236 390.523C550.728 391.652 551.418 392.508 552.304 393.091C553.19 393.674 554.228 393.966 555.418 393.966C556.607 393.966 557.645 393.674 558.531 393.091C559.418 392.508 560.103 391.652 560.588 390.523C561.08 389.394 561.327 388.008 561.327 386.364ZM569.96 398V374.727H579.278C580.991 374.727 582.419 374.981 583.562 375.489C584.706 375.996 585.566 376.701 586.142 377.602C586.718 378.496 587.006 379.527 587.006 380.693C587.006 381.602 586.824 382.402 586.46 383.091C586.097 383.773 585.597 384.333 584.96 384.773C584.331 385.205 583.612 385.511 582.801 385.693V385.92C583.688 385.958 584.517 386.208 585.29 386.67C586.07 387.133 586.703 387.78 587.188 388.614C587.672 389.439 587.915 390.424 587.915 391.568C587.915 392.803 587.608 393.905 586.994 394.875C586.388 395.837 585.491 396.598 584.301 397.159C583.112 397.72 581.646 398 579.903 398H569.96ZM574.881 393.977H578.892C580.263 393.977 581.263 393.716 581.892 393.193C582.521 392.663 582.835 391.958 582.835 391.08C582.835 390.436 582.68 389.867 582.369 389.375C582.059 388.883 581.616 388.496 581.04 388.216C580.472 387.936 579.794 387.795 579.006 387.795H574.881V393.977ZM574.881 384.466H578.528C579.203 384.466 579.801 384.348 580.324 384.114C580.854 383.871 581.271 383.53 581.574 383.091C581.884 382.652 582.04 382.125 582.04 381.511C582.04 380.67 581.741 379.992 581.142 379.477C580.551 378.962 579.71 378.705 578.619 378.705H574.881V384.466ZM594.355 383.33H599.901C601.749 383.33 603.34 383.629 604.673 384.227C606.014 384.818 607.048 385.655 607.776 386.739C608.503 387.822 608.863 389.098 608.855 390.568C608.863 392.03 608.503 393.322 607.776 394.443C607.048 395.557 606.014 396.428 604.673 397.057C603.34 397.686 601.749 398 599.901 398H591.207V374.727H596.116V394.045H599.901C600.787 394.045 601.533 393.886 602.139 393.568C602.745 393.242 603.204 392.814 603.514 392.284C603.832 391.746 603.988 391.159 603.98 390.523C603.988 389.598 603.639 388.818 602.935 388.182C602.238 387.538 601.226 387.216 599.901 387.216H594.355V383.33ZM615.662 374.727V398H610.753V374.727H615.662ZM619.71 374.727H624.619V389.364H624.812L634.869 374.727H639.176V398H634.256V383.352H634.085L623.972 398H619.71V374.727ZM631.71 368.636H635.085C635.078 370.015 634.566 371.125 633.551 371.966C632.544 372.807 631.18 373.227 629.46 373.227C627.733 373.227 626.366 372.807 625.358 371.966C624.35 371.125 623.847 370.015 623.847 368.636H627.199C627.191 369.159 627.358 369.629 627.699 370.045C628.047 370.462 628.634 370.67 629.46 370.67C630.263 370.67 630.839 370.466 631.188 370.057C631.536 369.648 631.71 369.174 631.71 368.636ZM486.489 437.318C484.792 437.318 483.28 437.027 481.955 436.443C480.636 435.852 479.595 435.042 478.83 434.011C478.072 432.973 477.682 431.777 477.659 430.42H482.614C482.644 430.989 482.83 431.489 483.17 431.92C483.519 432.345 483.981 432.674 484.557 432.909C485.133 433.144 485.78 433.261 486.5 433.261C487.25 433.261 487.913 433.129 488.489 432.864C489.064 432.598 489.515 432.231 489.841 431.761C490.167 431.292 490.33 430.75 490.33 430.136C490.33 429.515 490.155 428.966 489.807 428.489C489.466 428.004 488.973 427.625 488.33 427.352C487.693 427.08 486.936 426.943 486.057 426.943H483.886V423.33H486.057C486.799 423.33 487.455 423.201 488.023 422.943C488.598 422.686 489.045 422.33 489.364 421.875C489.682 421.413 489.841 420.875 489.841 420.261C489.841 419.678 489.701 419.167 489.42 418.727C489.148 418.28 488.761 417.932 488.261 417.682C487.769 417.432 487.193 417.307 486.534 417.307C485.867 417.307 485.258 417.428 484.705 417.67C484.152 417.905 483.708 418.242 483.375 418.682C483.042 419.121 482.864 419.636 482.841 420.227H478.125C478.148 418.886 478.53 417.705 479.273 416.682C480.015 415.659 481.015 414.86 482.273 414.284C483.538 413.701 484.966 413.409 486.557 413.409C488.163 413.409 489.568 413.701 490.773 414.284C491.977 414.867 492.913 415.655 493.58 416.648C494.254 417.633 494.587 418.739 494.58 419.966C494.587 421.269 494.182 422.356 493.364 423.227C492.553 424.098 491.496 424.652 490.193 424.886V425.068C491.905 425.288 493.208 425.883 494.102 426.852C495.004 427.814 495.451 429.019 495.443 430.466C495.451 431.792 495.068 432.97 494.295 434C493.53 435.03 492.473 435.841 491.125 436.432C489.777 437.023 488.231 437.318 486.489 437.318ZM503.128 437H497.855L505.889 413.727H512.23L520.253 437H514.98L509.151 419.045H508.969L503.128 437ZM502.798 427.852H515.253V431.693H502.798V427.852ZM521.793 437V433.045L522.452 432.989C523.3 432.92 523.986 432.598 524.509 432.023C525.031 431.439 525.421 430.511 525.679 429.239C525.944 427.958 526.115 426.239 526.19 424.08L526.577 413.727H542.372V437H537.588V417.67H531.145L530.781 425.773C530.66 428.379 530.349 430.508 529.849 432.159C529.357 433.811 528.569 435.03 527.486 435.818C526.41 436.606 524.937 437 523.065 437H521.793Z" fill="#7E7E7E"/>
<path id="&#208;&#156;&#208;&#163;&#208;&#151;&#208;&#149;&#208;&#153;" d="M691.273 375.023V381.091L675.636 387.5V387.773L691.273 394.182V400.25H668V395.477H683.148V395.284L668.114 389.261V386.011L683.205 379.989V379.795H668V375.023H691.273ZM667.682 406.815H671.682V408.077C671.682 408.705 671.758 409.213 671.909 409.599C672.068 409.986 672.299 410.293 672.602 410.52C672.913 410.755 673.299 410.952 673.761 411.111L674.523 411.395L691.273 402.94V408.031L679.818 413.509L691.273 418.088V423.111L672.568 415.088C671.705 414.702 670.902 414.243 670.159 413.713C669.417 413.19 668.818 412.52 668.364 411.702C667.909 410.884 667.682 409.838 667.682 408.565V406.815ZM667.682 434.239C667.682 432.542 667.973 431.03 668.557 429.705C669.148 428.386 669.958 427.345 670.989 426.58C672.027 425.822 673.223 425.432 674.58 425.409V430.364C674.011 430.394 673.511 430.58 673.08 430.92C672.655 431.269 672.326 431.731 672.091 432.307C671.856 432.883 671.739 433.53 671.739 434.25C671.739 435 671.871 435.663 672.136 436.239C672.402 436.814 672.769 437.265 673.239 437.591C673.708 437.917 674.25 438.08 674.864 438.08C675.485 438.08 676.034 437.905 676.511 437.557C676.996 437.216 677.375 436.723 677.648 436.08C677.92 435.443 678.057 434.686 678.057 433.807V431.636H681.67V433.807C681.67 434.549 681.799 435.205 682.057 435.773C682.314 436.348 682.67 436.795 683.125 437.114C683.587 437.432 684.125 437.591 684.739 437.591C685.322 437.591 685.833 437.451 686.273 437.17C686.72 436.898 687.068 436.511 687.318 436.011C687.568 435.519 687.693 434.943 687.693 434.284C687.693 433.617 687.572 433.008 687.33 432.455C687.095 431.902 686.758 431.458 686.318 431.125C685.879 430.792 685.364 430.614 684.773 430.591V425.875C686.114 425.898 687.295 426.28 688.318 427.023C689.341 427.765 690.14 428.765 690.716 430.023C691.299 431.288 691.591 432.716 691.591 434.307C691.591 435.913 691.299 437.318 690.716 438.523C690.133 439.727 689.345 440.663 688.352 441.33C687.367 442.004 686.261 442.337 685.034 442.33C683.731 442.337 682.644 441.932 681.773 441.114C680.902 440.303 680.348 439.246 680.114 437.943H679.932C679.712 439.655 679.117 440.958 678.148 441.852C677.186 442.754 675.981 443.201 674.534 443.193C673.208 443.201 672.03 442.818 671 442.045C669.97 441.28 669.159 440.223 668.568 438.875C667.977 437.527 667.682 435.981 667.682 434.239ZM668 446.866H691.273V462.548H687.216V451.787H681.67V461.741H677.614V451.787H672.057V462.594H668V446.866ZM691.273 466.46V471.369H676.636V471.562L691.273 481.619V485.926H668V481.006H682.648V480.835L668 470.722V466.46H691.273ZM697.364 478.46V481.835C695.985 481.828 694.875 481.316 694.034 480.301C693.193 479.294 692.773 477.93 692.773 476.21C692.773 474.483 693.193 473.116 694.034 472.108C694.875 471.1 695.985 470.597 697.364 470.597V473.949C696.841 473.941 696.371 474.108 695.955 474.449C695.538 474.797 695.33 475.384 695.33 476.21C695.33 477.013 695.534 477.589 695.943 477.938C696.352 478.286 696.826 478.46 697.364 478.46Z" fill="#7E7E7E"/>
<path id="&#208;&#155;&#208;&#144;&#208;&#145;&#208;&#158;&#208;&#160;&#208;&#144;&#208;&#162;&#208;&#158;&#208;&#160;&#208;&#152;&#208;&#175;" d="M723.571 406V403.034L724.065 402.991C724.702 402.94 725.216 402.699 725.608 402.267C726 401.83 726.293 401.134 726.486 400.179C726.685 399.219 726.812 397.929 726.869 396.31L727.159 388.545H739.006V406H735.418V391.503H730.585L730.312 397.58C730.222 399.534 729.989 401.131 729.614 402.369C729.244 403.608 728.653 404.523 727.841 405.114C727.034 405.705 725.929 406 724.526 406H723.571ZM745.057 406H741.102L747.128 388.545H751.884L757.901 406H753.946L749.574 392.534H749.438L745.057 406ZM744.81 399.139H754.151V402.02H744.81V399.139ZM760.001 406V388.545H771.584V391.588H763.692V394.997H766.53C767.911 394.997 769.101 395.222 770.101 395.67C771.107 396.114 771.882 396.741 772.428 397.554C772.973 398.366 773.246 399.324 773.246 400.426C773.246 401.523 772.973 402.491 772.428 403.332C771.882 404.168 771.107 404.821 770.101 405.293C769.101 405.764 767.911 406 766.53 406H760.001ZM763.692 403.034H766.53C767.189 403.034 767.746 402.915 768.2 402.676C768.655 402.432 768.999 402.111 769.232 401.713C769.47 401.31 769.589 400.869 769.589 400.392C769.589 399.699 769.325 399.114 768.797 398.636C768.274 398.153 767.518 397.912 766.53 397.912H763.692V403.034ZM791.674 397.273C791.674 399.176 791.313 400.795 790.592 402.131C789.876 403.466 788.898 404.486 787.66 405.19C786.427 405.889 785.04 406.239 783.501 406.239C781.95 406.239 780.558 405.886 779.325 405.182C778.092 404.477 777.117 403.457 776.401 402.122C775.685 400.787 775.327 399.17 775.327 397.273C775.327 395.369 775.685 393.75 776.401 392.415C777.117 391.08 778.092 390.062 779.325 389.364C780.558 388.659 781.95 388.307 783.501 388.307C785.04 388.307 786.427 388.659 787.66 389.364C788.898 390.062 789.876 391.08 790.592 392.415C791.313 393.75 791.674 395.369 791.674 397.273ZM787.933 397.273C787.933 396.04 787.748 395 787.379 394.153C787.015 393.307 786.501 392.665 785.836 392.227C785.171 391.79 784.393 391.571 783.501 391.571C782.609 391.571 781.83 391.79 781.165 392.227C780.501 392.665 779.984 393.307 779.614 394.153C779.251 395 779.069 396.04 779.069 397.273C779.069 398.506 779.251 399.545 779.614 400.392C779.984 401.239 780.501 401.881 781.165 402.318C781.83 402.756 782.609 402.974 783.501 402.974C784.393 402.974 785.171 402.756 785.836 402.318C786.501 401.881 787.015 401.239 787.379 400.392C787.748 399.545 787.933 398.506 787.933 397.273ZM794.408 406V388.545H801.294C802.618 388.545 803.746 388.798 804.678 389.304C805.609 389.804 806.32 390.5 806.808 391.392C807.303 392.278 807.55 393.301 807.55 394.46C807.55 395.619 807.3 396.642 806.8 397.528C806.3 398.415 805.575 399.105 804.626 399.599C803.683 400.094 802.541 400.341 801.2 400.341H796.811V397.384H800.604C801.314 397.384 801.899 397.261 802.359 397.017C802.825 396.767 803.172 396.423 803.399 395.986C803.632 395.543 803.749 395.034 803.749 394.46C803.749 393.881 803.632 393.375 803.399 392.943C803.172 392.506 802.825 392.168 802.359 391.929C801.893 391.685 801.303 391.562 800.587 391.562H798.098V406H794.408ZM810.94 406H806.985L813.011 388.545H817.766L823.783 406H819.829L815.457 392.534H815.32L810.94 406ZM810.692 399.139H820.033V402.02H810.692V399.139ZM823.087 391.588V388.545H837.422V391.588H832.078V406H828.43V391.588H823.087ZM855.026 397.273C855.026 399.176 854.665 400.795 853.943 402.131C853.227 403.466 852.25 404.486 851.011 405.19C849.778 405.889 848.392 406.239 846.852 406.239C845.301 406.239 843.909 405.886 842.676 405.182C841.443 404.477 840.469 403.457 839.753 402.122C839.037 400.787 838.679 399.17 838.679 397.273C838.679 395.369 839.037 393.75 839.753 392.415C840.469 391.08 841.443 390.062 842.676 389.364C843.909 388.659 845.301 388.307 846.852 388.307C848.392 388.307 849.778 388.659 851.011 389.364C852.25 390.062 853.227 391.08 853.943 392.415C854.665 393.75 855.026 395.369 855.026 397.273ZM851.284 397.273C851.284 396.04 851.099 395 850.73 394.153C850.366 393.307 849.852 392.665 849.188 392.227C848.523 391.79 847.744 391.571 846.852 391.571C845.96 391.571 845.182 391.79 844.517 392.227C843.852 392.665 843.335 393.307 842.966 394.153C842.602 395 842.42 396.04 842.42 397.273C842.42 398.506 842.602 399.545 842.966 400.392C843.335 401.239 843.852 401.881 844.517 402.318C845.182 402.756 845.96 402.974 846.852 402.974C847.744 402.974 848.523 402.756 849.188 402.318C849.852 401.881 850.366 401.239 850.73 400.392C851.099 399.545 851.284 398.506 851.284 397.273ZM857.759 406V388.545H864.646C865.969 388.545 867.097 388.798 868.029 389.304C868.961 389.804 869.671 390.5 870.16 391.392C870.654 392.278 870.901 393.301 870.901 394.46C870.901 395.619 870.651 396.642 870.151 397.528C869.651 398.415 868.927 399.105 867.978 399.599C867.035 400.094 865.893 400.341 864.552 400.341H860.163V397.384H863.955C864.665 397.384 865.251 397.261 865.711 397.017C866.177 396.767 866.523 396.423 866.751 395.986C866.984 395.543 867.1 395.034 867.1 394.46C867.1 393.881 866.984 393.375 866.751 392.943C866.523 392.506 866.177 392.168 865.711 391.929C865.245 391.685 864.654 391.562 863.938 391.562H861.45V406H857.759ZM873.298 388.545H876.98V399.523H877.125L884.668 388.545H887.898V406H884.207V395.014H884.08L876.494 406H873.298V388.545ZM904.344 406H900.663V391.562H898.174C897.464 391.562 896.873 391.668 896.401 391.878C895.935 392.082 895.586 392.384 895.353 392.781C895.12 393.179 895.004 393.668 895.004 394.247C895.004 394.821 895.12 395.301 895.353 395.688C895.586 396.074 895.935 396.364 896.401 396.557C896.867 396.75 897.452 396.847 898.157 396.847H902.163V399.812H897.56C896.225 399.812 895.083 399.591 894.134 399.148C893.185 398.705 892.461 398.068 891.961 397.239C891.461 396.403 891.211 395.406 891.211 394.247C891.211 393.094 891.455 392.091 891.944 391.239C892.438 390.381 893.151 389.719 894.083 389.253C895.021 388.781 896.148 388.545 897.467 388.545H904.344V406ZM894.927 398.057H898.907L894.663 406H890.589L894.927 398.057Z" fill="#7E7E7E"/>
<path id="201&#208;&#176;" d="M163.886 221V217.455L172.17 209.784C172.875 209.102 173.466 208.489 173.943 207.943C174.428 207.398 174.795 206.864 175.045 206.341C175.295 205.811 175.42 205.239 175.42 204.625C175.42 203.943 175.265 203.356 174.955 202.864C174.644 202.364 174.22 201.981 173.682 201.716C173.144 201.443 172.534 201.307 171.852 201.307C171.14 201.307 170.519 201.451 169.989 201.739C169.458 202.027 169.049 202.439 168.761 202.977C168.473 203.515 168.33 204.155 168.33 204.898H163.659C163.659 203.375 164.004 202.053 164.693 200.932C165.383 199.811 166.348 198.943 167.591 198.33C168.833 197.716 170.265 197.409 171.886 197.409C173.553 197.409 175.004 197.705 176.239 198.295C177.481 198.879 178.447 199.689 179.136 200.727C179.826 201.765 180.17 202.955 180.17 204.295C180.17 205.174 179.996 206.042 179.648 206.898C179.307 207.754 178.697 208.705 177.818 209.75C176.939 210.788 175.701 212.034 174.102 213.489L170.705 216.818V216.977H180.477V221H163.886ZM193.168 221.511C191.213 221.504 189.531 221.023 188.122 220.068C186.721 219.114 185.641 217.731 184.884 215.92C184.134 214.11 183.762 211.932 183.77 209.386C183.77 206.848 184.145 204.686 184.895 202.898C185.652 201.11 186.732 199.75 188.134 198.818C189.543 197.879 191.221 197.409 193.168 197.409C195.115 197.409 196.789 197.879 198.19 198.818C199.599 199.758 200.683 201.121 201.44 202.909C202.198 204.689 202.573 206.848 202.565 209.386C202.565 211.939 202.187 214.121 201.429 215.932C200.679 217.742 199.603 219.125 198.202 220.08C196.8 221.034 195.122 221.511 193.168 221.511ZM193.168 217.432C194.501 217.432 195.565 216.761 196.361 215.42C197.156 214.08 197.55 212.068 197.543 209.386C197.543 207.621 197.361 206.152 196.997 204.977C196.641 203.803 196.134 202.92 195.474 202.33C194.823 201.739 194.054 201.443 193.168 201.443C191.842 201.443 190.781 202.106 189.986 203.432C189.19 204.758 188.789 206.742 188.781 209.386C188.781 211.174 188.959 212.667 189.315 213.864C189.679 215.053 190.19 215.947 190.849 216.545C191.509 217.136 192.281 217.432 193.168 217.432ZM216.199 197.727V221H211.278V202.398H211.142L205.812 205.739V201.375L211.574 197.727H216.199ZM226.753 221.33C225.639 221.33 224.647 221.136 223.776 220.75C222.904 220.356 222.215 219.777 221.707 219.011C221.207 218.239 220.957 217.277 220.957 216.125C220.957 215.155 221.135 214.341 221.491 213.682C221.848 213.023 222.332 212.492 222.946 212.091C223.56 211.689 224.257 211.386 225.037 211.182C225.825 210.977 226.651 210.833 227.514 210.75C228.529 210.644 229.348 210.545 229.969 210.455C230.59 210.356 231.041 210.212 231.321 210.023C231.601 209.833 231.741 209.553 231.741 209.182V209.114C231.741 208.394 231.514 207.837 231.06 207.443C230.613 207.049 229.976 206.852 229.151 206.852C228.279 206.852 227.586 207.045 227.071 207.432C226.556 207.811 226.215 208.288 226.048 208.864L221.571 208.5C221.798 207.439 222.245 206.523 222.912 205.75C223.579 204.97 224.438 204.371 225.491 203.955C226.552 203.53 227.779 203.318 229.173 203.318C230.143 203.318 231.071 203.432 231.957 203.659C232.851 203.886 233.643 204.239 234.332 204.716C235.029 205.193 235.579 205.807 235.98 206.557C236.382 207.299 236.582 208.189 236.582 209.227V221H231.991V218.58H231.855C231.575 219.125 231.2 219.606 230.73 220.023C230.26 220.432 229.696 220.754 229.037 220.989C228.378 221.216 227.616 221.33 226.753 221.33ZM228.139 217.989C228.851 217.989 229.48 217.848 230.026 217.568C230.571 217.28 230.999 216.894 231.31 216.409C231.62 215.924 231.776 215.375 231.776 214.761V212.909C231.624 213.008 231.416 213.098 231.151 213.182C230.893 213.258 230.601 213.33 230.276 213.398C229.95 213.458 229.624 213.515 229.298 213.568C228.973 213.614 228.677 213.655 228.412 213.693C227.844 213.777 227.348 213.909 226.923 214.091C226.499 214.273 226.17 214.519 225.935 214.83C225.7 215.133 225.582 215.511 225.582 215.966C225.582 216.625 225.821 217.129 226.298 217.477C226.783 217.818 227.397 217.989 228.139 217.989Z" fill="#7E7E7E"/>
<path id="202&#208;&#176;" d="M286.886 221V217.455L295.17 209.784C295.875 209.102 296.466 208.489 296.943 207.943C297.428 207.398 297.795 206.864 298.045 206.341C298.295 205.811 298.42 205.239 298.42 204.625C298.42 203.943 298.265 203.356 297.955 202.864C297.644 202.364 297.22 201.981 296.682 201.716C296.144 201.443 295.534 201.307 294.852 201.307C294.14 201.307 293.519 201.451 292.989 201.739C292.458 202.027 292.049 202.439 291.761 202.977C291.473 203.515 291.33 204.155 291.33 204.898H286.659C286.659 203.375 287.004 202.053 287.693 200.932C288.383 199.811 289.348 198.943 290.591 198.33C291.833 197.716 293.265 197.409 294.886 197.409C296.553 197.409 298.004 197.705 299.239 198.295C300.481 198.879 301.447 199.689 302.136 200.727C302.826 201.765 303.17 202.955 303.17 204.295C303.17 205.174 302.996 206.042 302.648 206.898C302.307 207.754 301.697 208.705 300.818 209.75C299.939 210.788 298.701 212.034 297.102 213.489L293.705 216.818V216.977H303.477V221H286.886ZM316.168 221.511C314.213 221.504 312.531 221.023 311.122 220.068C309.721 219.114 308.641 217.731 307.884 215.92C307.134 214.11 306.762 211.932 306.77 209.386C306.77 206.848 307.145 204.686 307.895 202.898C308.652 201.11 309.732 199.75 311.134 198.818C312.543 197.879 314.221 197.409 316.168 197.409C318.115 197.409 319.789 197.879 321.19 198.818C322.599 199.758 323.683 201.121 324.44 202.909C325.198 204.689 325.573 206.848 325.565 209.386C325.565 211.939 325.187 214.121 324.429 215.932C323.679 217.742 322.603 219.125 321.202 220.08C319.8 221.034 318.122 221.511 316.168 221.511ZM316.168 217.432C317.501 217.432 318.565 216.761 319.361 215.42C320.156 214.08 320.55 212.068 320.543 209.386C320.543 207.621 320.361 206.152 319.997 204.977C319.641 203.803 319.134 202.92 318.474 202.33C317.823 201.739 317.054 201.443 316.168 201.443C314.842 201.443 313.781 202.106 312.986 203.432C312.19 204.758 311.789 206.742 311.781 209.386C311.781 211.174 311.959 212.667 312.315 213.864C312.679 215.053 313.19 215.947 313.849 216.545C314.509 217.136 315.281 217.432 316.168 217.432ZM329.074 221V217.455L337.358 209.784C338.063 209.102 338.653 208.489 339.131 207.943C339.616 207.398 339.983 206.864 340.233 206.341C340.483 205.811 340.608 205.239 340.608 204.625C340.608 203.943 340.453 203.356 340.142 202.864C339.831 202.364 339.407 201.981 338.869 201.716C338.331 201.443 337.722 201.307 337.04 201.307C336.328 201.307 335.706 201.451 335.176 201.739C334.646 202.027 334.237 202.439 333.949 202.977C333.661 203.515 333.517 204.155 333.517 204.898H328.847C328.847 203.375 329.191 202.053 329.881 200.932C330.57 199.811 331.536 198.943 332.778 198.33C334.021 197.716 335.453 197.409 337.074 197.409C338.741 197.409 340.191 197.705 341.426 198.295C342.669 198.879 343.634 199.689 344.324 200.727C345.013 201.765 345.358 202.955 345.358 204.295C345.358 205.174 345.184 206.042 344.835 206.898C344.494 207.754 343.884 208.705 343.006 209.75C342.127 210.788 340.888 212.034 339.29 213.489L335.892 216.818V216.977H345.665V221H329.074ZM354.253 221.33C353.139 221.33 352.147 221.136 351.276 220.75C350.404 220.356 349.715 219.777 349.207 219.011C348.707 218.239 348.457 217.277 348.457 216.125C348.457 215.155 348.635 214.341 348.991 213.682C349.348 213.023 349.832 212.492 350.446 212.091C351.06 211.689 351.757 211.386 352.537 211.182C353.325 210.977 354.151 210.833 355.014 210.75C356.029 210.644 356.848 210.545 357.469 210.455C358.09 210.356 358.541 210.212 358.821 210.023C359.101 209.833 359.241 209.553 359.241 209.182V209.114C359.241 208.394 359.014 207.837 358.56 207.443C358.113 207.049 357.476 206.852 356.651 206.852C355.779 206.852 355.086 207.045 354.571 207.432C354.056 207.811 353.715 208.288 353.548 208.864L349.071 208.5C349.298 207.439 349.745 206.523 350.412 205.75C351.079 204.97 351.938 204.371 352.991 203.955C354.052 203.53 355.279 203.318 356.673 203.318C357.643 203.318 358.571 203.432 359.457 203.659C360.351 203.886 361.143 204.239 361.832 204.716C362.529 205.193 363.079 205.807 363.48 206.557C363.882 207.299 364.082 208.189 364.082 209.227V221H359.491V218.58H359.355C359.075 219.125 358.7 219.606 358.23 220.023C357.76 220.432 357.196 220.754 356.537 220.989C355.878 221.216 355.116 221.33 354.253 221.33ZM355.639 217.989C356.351 217.989 356.98 217.848 357.526 217.568C358.071 217.28 358.499 216.894 358.81 216.409C359.12 215.924 359.276 215.375 359.276 214.761V212.909C359.124 213.008 358.916 213.098 358.651 213.182C358.393 213.258 358.101 213.33 357.776 213.398C357.45 213.458 357.124 213.515 356.798 213.568C356.473 213.614 356.177 213.655 355.912 213.693C355.344 213.777 354.848 213.909 354.423 214.091C353.999 214.273 353.67 214.519 353.435 214.83C353.2 215.133 353.082 215.511 353.082 215.966C353.082 216.625 353.321 217.129 353.798 217.477C354.283 217.818 354.897 217.989 355.639 217.989Z" fill="#7E7E7E"/>
<path id="203&#208;&#176;" d="M414.886 221V217.455L423.17 209.784C423.875 209.102 424.466 208.489 424.943 207.943C425.428 207.398 425.795 206.864 426.045 206.341C426.295 205.811 426.42 205.239 426.42 204.625C426.42 203.943 426.265 203.356 425.955 202.864C425.644 202.364 425.22 201.981 424.682 201.716C424.144 201.443 423.534 201.307 422.852 201.307C422.14 201.307 421.519 201.451 420.989 201.739C420.458 202.027 420.049 202.439 419.761 202.977C419.473 203.515 419.33 204.155 419.33 204.898H414.659C414.659 203.375 415.004 202.053 415.693 200.932C416.383 199.811 417.348 198.943 418.591 198.33C419.833 197.716 421.265 197.409 422.886 197.409C424.553 197.409 426.004 197.705 427.239 198.295C428.481 198.879 429.447 199.689 430.136 200.727C430.826 201.765 431.17 202.955 431.17 204.295C431.17 205.174 430.996 206.042 430.648 206.898C430.307 207.754 429.697 208.705 428.818 209.75C427.939 210.788 426.701 212.034 425.102 213.489L421.705 216.818V216.977H431.477V221H414.886ZM444.168 221.511C442.213 221.504 440.531 221.023 439.122 220.068C437.721 219.114 436.641 217.731 435.884 215.92C435.134 214.11 434.762 211.932 434.77 209.386C434.77 206.848 435.145 204.686 435.895 202.898C436.652 201.11 437.732 199.75 439.134 198.818C440.543 197.879 442.221 197.409 444.168 197.409C446.115 197.409 447.789 197.879 449.19 198.818C450.599 199.758 451.683 201.121 452.44 202.909C453.198 204.689 453.573 206.848 453.565 209.386C453.565 211.939 453.187 214.121 452.429 215.932C451.679 217.742 450.603 219.125 449.202 220.08C447.8 221.034 446.122 221.511 444.168 221.511ZM444.168 217.432C445.501 217.432 446.565 216.761 447.361 215.42C448.156 214.08 448.55 212.068 448.543 209.386C448.543 207.621 448.361 206.152 447.997 204.977C447.641 203.803 447.134 202.92 446.474 202.33C445.823 201.739 445.054 201.443 444.168 201.443C442.842 201.443 441.781 202.106 440.986 203.432C440.19 204.758 439.789 206.742 439.781 209.386C439.781 211.174 439.959 212.667 440.315 213.864C440.679 215.053 441.19 215.947 441.849 216.545C442.509 217.136 443.281 217.432 444.168 217.432ZM465.676 221.318C463.979 221.318 462.468 221.027 461.142 220.443C459.824 219.852 458.782 219.042 458.017 218.011C457.259 216.973 456.869 215.777 456.847 214.42H461.801C461.831 214.989 462.017 215.489 462.358 215.92C462.706 216.345 463.169 216.674 463.744 216.909C464.32 217.144 464.968 217.261 465.688 217.261C466.438 217.261 467.1 217.129 467.676 216.864C468.252 216.598 468.703 216.231 469.028 215.761C469.354 215.292 469.517 214.75 469.517 214.136C469.517 213.515 469.343 212.966 468.994 212.489C468.653 212.004 468.161 211.625 467.517 211.352C466.881 211.08 466.123 210.943 465.244 210.943H463.074V207.33H465.244C465.987 207.33 466.642 207.201 467.21 206.943C467.786 206.686 468.233 206.33 468.551 205.875C468.869 205.413 469.028 204.875 469.028 204.261C469.028 203.678 468.888 203.167 468.608 202.727C468.335 202.28 467.949 201.932 467.449 201.682C466.956 201.432 466.381 201.307 465.722 201.307C465.055 201.307 464.445 201.428 463.892 201.67C463.339 201.905 462.896 202.242 462.562 202.682C462.229 203.121 462.051 203.636 462.028 204.227H457.312C457.335 202.886 457.718 201.705 458.46 200.682C459.203 199.659 460.203 198.86 461.46 198.284C462.725 197.701 464.153 197.409 465.744 197.409C467.35 197.409 468.756 197.701 469.96 198.284C471.165 198.867 472.1 199.655 472.767 200.648C473.441 201.633 473.775 202.739 473.767 203.966C473.775 205.269 473.369 206.356 472.551 207.227C471.741 208.098 470.684 208.652 469.381 208.886V209.068C471.093 209.288 472.396 209.883 473.29 210.852C474.191 211.814 474.638 213.019 474.631 214.466C474.638 215.792 474.256 216.97 473.483 218C472.718 219.03 471.661 219.841 470.312 220.432C468.964 221.023 467.419 221.318 465.676 221.318ZM483.19 221.33C482.077 221.33 481.084 221.136 480.213 220.75C479.342 220.356 478.652 219.777 478.145 219.011C477.645 218.239 477.395 217.277 477.395 216.125C477.395 215.155 477.573 214.341 477.929 213.682C478.285 213.023 478.77 212.492 479.384 212.091C479.997 211.689 480.694 211.386 481.474 211.182C482.262 210.977 483.088 210.833 483.952 210.75C484.967 210.644 485.785 210.545 486.406 210.455C487.027 210.356 487.478 210.212 487.759 210.023C488.039 209.833 488.179 209.553 488.179 209.182V209.114C488.179 208.394 487.952 207.837 487.497 207.443C487.05 207.049 486.414 206.852 485.588 206.852C484.717 206.852 484.024 207.045 483.509 207.432C482.993 207.811 482.652 208.288 482.486 208.864L478.009 208.5C478.236 207.439 478.683 206.523 479.349 205.75C480.016 204.97 480.876 204.371 481.929 203.955C482.99 203.53 484.217 203.318 485.611 203.318C486.58 203.318 487.509 203.432 488.395 203.659C489.289 203.886 490.08 204.239 490.77 204.716C491.467 205.193 492.016 205.807 492.418 206.557C492.819 207.299 493.02 208.189 493.02 209.227V221H488.429V218.58H488.293C488.012 219.125 487.637 219.606 487.168 220.023C486.698 220.432 486.134 220.754 485.474 220.989C484.815 221.216 484.054 221.33 483.19 221.33ZM484.577 217.989C485.289 217.989 485.918 217.848 486.463 217.568C487.009 217.28 487.437 216.894 487.747 216.409C488.058 215.924 488.213 215.375 488.213 214.761V212.909C488.062 213.008 487.853 213.098 487.588 213.182C487.33 213.258 487.039 213.33 486.713 213.398C486.387 213.458 486.062 213.515 485.736 213.568C485.41 213.614 485.115 213.655 484.849 213.693C484.281 213.777 483.785 213.909 483.361 214.091C482.937 214.273 482.607 214.519 482.372 214.83C482.137 215.133 482.02 215.511 482.02 215.966C482.02 216.625 482.259 217.129 482.736 217.477C483.221 217.818 483.834 217.989 484.577 217.989Z" fill="#7E7E7E"/>
<path id="204&#208;&#176;" d="M613.886 224V220.455L622.17 212.784C622.875 212.102 623.466 211.489 623.943 210.943C624.428 210.398 624.795 209.864 625.045 209.341C625.295 208.811 625.42 208.239 625.42 207.625C625.42 206.943 625.265 206.356 624.955 205.864C624.644 205.364 624.22 204.981 623.682 204.716C623.144 204.443 622.534 204.307 621.852 204.307C621.14 204.307 620.519 204.451 619.989 204.739C619.458 205.027 619.049 205.439 618.761 205.977C618.473 206.515 618.33 207.155 618.33 207.898H613.659C613.659 206.375 614.004 205.053 614.693 203.932C615.383 202.811 616.348 201.943 617.591 201.33C618.833 200.716 620.265 200.409 621.886 200.409C623.553 200.409 625.004 200.705 626.239 201.295C627.481 201.879 628.447 202.689 629.136 203.727C629.826 204.765 630.17 205.955 630.17 207.295C630.17 208.174 629.996 209.042 629.648 209.898C629.307 210.754 628.697 211.705 627.818 212.75C626.939 213.788 625.701 215.034 624.102 216.489L620.705 219.818V219.977H630.477V224H613.886ZM643.168 224.511C641.213 224.504 639.531 224.023 638.122 223.068C636.721 222.114 635.641 220.731 634.884 218.92C634.134 217.11 633.762 214.932 633.77 212.386C633.77 209.848 634.145 207.686 634.895 205.898C635.652 204.11 636.732 202.75 638.134 201.818C639.543 200.879 641.221 200.409 643.168 200.409C645.115 200.409 646.789 200.879 648.19 201.818C649.599 202.758 650.683 204.121 651.44 205.909C652.198 207.689 652.573 209.848 652.565 212.386C652.565 214.939 652.187 217.121 651.429 218.932C650.679 220.742 649.603 222.125 648.202 223.08C646.8 224.034 645.122 224.511 643.168 224.511ZM643.168 220.432C644.501 220.432 645.565 219.761 646.361 218.42C647.156 217.08 647.55 215.068 647.543 212.386C647.543 210.621 647.361 209.152 646.997 207.977C646.641 206.803 646.134 205.92 645.474 205.33C644.823 204.739 644.054 204.443 643.168 204.443C641.842 204.443 640.781 205.106 639.986 206.432C639.19 207.758 638.789 209.742 638.781 212.386C638.781 214.174 638.959 215.667 639.315 216.864C639.679 218.053 640.19 218.947 640.849 219.545C641.509 220.136 642.281 220.432 643.168 220.432ZM655.722 219.909V216.034L665.438 200.727H668.778V206.091H666.801L660.676 215.784V215.966H674.483V219.909H655.722ZM666.892 224V218.727L666.983 217.011V200.727H671.597V224H666.892ZM682.784 224.33C681.67 224.33 680.678 224.136 679.807 223.75C678.936 223.356 678.246 222.777 677.739 222.011C677.239 221.239 676.989 220.277 676.989 219.125C676.989 218.155 677.167 217.341 677.523 216.682C677.879 216.023 678.364 215.492 678.977 215.091C679.591 214.689 680.288 214.386 681.068 214.182C681.856 213.977 682.682 213.833 683.545 213.75C684.561 213.644 685.379 213.545 686 213.455C686.621 213.356 687.072 213.212 687.352 213.023C687.633 212.833 687.773 212.553 687.773 212.182V212.114C687.773 211.394 687.545 210.837 687.091 210.443C686.644 210.049 686.008 209.852 685.182 209.852C684.311 209.852 683.617 210.045 683.102 210.432C682.587 210.811 682.246 211.288 682.08 211.864L677.602 211.5C677.83 210.439 678.277 209.523 678.943 208.75C679.61 207.97 680.47 207.371 681.523 206.955C682.583 206.53 683.811 206.318 685.205 206.318C686.174 206.318 687.102 206.432 687.989 206.659C688.883 206.886 689.674 207.239 690.364 207.716C691.061 208.193 691.61 208.807 692.011 209.557C692.413 210.299 692.614 211.189 692.614 212.227V224H688.023V221.58H687.886C687.606 222.125 687.231 222.606 686.761 223.023C686.292 223.432 685.727 223.754 685.068 223.989C684.409 224.216 683.648 224.33 682.784 224.33ZM684.17 220.989C684.883 220.989 685.511 220.848 686.057 220.568C686.602 220.28 687.03 219.894 687.341 219.409C687.652 218.924 687.807 218.375 687.807 217.761V215.909C687.655 216.008 687.447 216.098 687.182 216.182C686.924 216.258 686.633 216.33 686.307 216.398C685.981 216.458 685.655 216.515 685.33 216.568C685.004 216.614 684.708 216.655 684.443 216.693C683.875 216.777 683.379 216.909 682.955 217.091C682.53 217.273 682.201 217.519 681.966 217.83C681.731 218.133 681.614 218.511 681.614 218.966C681.614 219.625 681.852 220.129 682.33 220.477C682.814 220.818 683.428 220.989 684.17 220.989Z" fill="#7E7E7E"/>
<path id="203&#208;&#176;_2" d="M739.886 224V220.455L748.17 212.784C748.875 212.102 749.466 211.489 749.943 210.943C750.428 210.398 750.795 209.864 751.045 209.341C751.295 208.811 751.42 208.239 751.42 207.625C751.42 206.943 751.265 206.356 750.955 205.864C750.644 205.364 750.22 204.981 749.682 204.716C749.144 204.443 748.534 204.307 747.852 204.307C747.14 204.307 746.519 204.451 745.989 204.739C745.458 205.027 745.049 205.439 744.761 205.977C744.473 206.515 744.33 207.155 744.33 207.898H739.659C739.659 206.375 740.004 205.053 740.693 203.932C741.383 202.811 742.348 201.943 743.591 201.33C744.833 200.716 746.265 200.409 747.886 200.409C749.553 200.409 751.004 200.705 752.239 201.295C753.481 201.879 754.447 202.689 755.136 203.727C755.826 204.765 756.17 205.955 756.17 207.295C756.17 208.174 755.996 209.042 755.648 209.898C755.307 210.754 754.697 211.705 753.818 212.75C752.939 213.788 751.701 215.034 750.102 216.489L746.705 219.818V219.977H756.477V224H739.886ZM769.168 224.511C767.213 224.504 765.531 224.023 764.122 223.068C762.721 222.114 761.641 220.731 760.884 218.92C760.134 217.11 759.762 214.932 759.77 212.386C759.77 209.848 760.145 207.686 760.895 205.898C761.652 204.11 762.732 202.75 764.134 201.818C765.543 200.879 767.221 200.409 769.168 200.409C771.115 200.409 772.789 200.879 774.19 201.818C775.599 202.758 776.683 204.121 777.44 205.909C778.198 207.689 778.573 209.848 778.565 212.386C778.565 214.939 778.187 217.121 777.429 218.932C776.679 220.742 775.603 222.125 774.202 223.08C772.8 224.034 771.122 224.511 769.168 224.511ZM769.168 220.432C770.501 220.432 771.565 219.761 772.361 218.42C773.156 217.08 773.55 215.068 773.543 212.386C773.543 210.621 773.361 209.152 772.997 207.977C772.641 206.803 772.134 205.92 771.474 205.33C770.823 204.739 770.054 204.443 769.168 204.443C767.842 204.443 766.781 205.106 765.986 206.432C765.19 207.758 764.789 209.742 764.781 212.386C764.781 214.174 764.959 215.667 765.315 216.864C765.679 218.053 766.19 218.947 766.849 219.545C767.509 220.136 768.281 220.432 769.168 220.432ZM790.676 224.318C788.979 224.318 787.468 224.027 786.142 223.443C784.824 222.852 783.782 222.042 783.017 221.011C782.259 219.973 781.869 218.777 781.847 217.42H786.801C786.831 217.989 787.017 218.489 787.358 218.92C787.706 219.345 788.169 219.674 788.744 219.909C789.32 220.144 789.968 220.261 790.688 220.261C791.438 220.261 792.1 220.129 792.676 219.864C793.252 219.598 793.703 219.231 794.028 218.761C794.354 218.292 794.517 217.75 794.517 217.136C794.517 216.515 794.343 215.966 793.994 215.489C793.653 215.004 793.161 214.625 792.517 214.352C791.881 214.08 791.123 213.943 790.244 213.943H788.074V210.33H790.244C790.987 210.33 791.642 210.201 792.21 209.943C792.786 209.686 793.233 209.33 793.551 208.875C793.869 208.413 794.028 207.875 794.028 207.261C794.028 206.678 793.888 206.167 793.608 205.727C793.335 205.28 792.949 204.932 792.449 204.682C791.956 204.432 791.381 204.307 790.722 204.307C790.055 204.307 789.445 204.428 788.892 204.67C788.339 204.905 787.896 205.242 787.562 205.682C787.229 206.121 787.051 206.636 787.028 207.227H782.312C782.335 205.886 782.718 204.705 783.46 203.682C784.203 202.659 785.203 201.86 786.46 201.284C787.725 200.701 789.153 200.409 790.744 200.409C792.35 200.409 793.756 200.701 794.96 201.284C796.165 201.867 797.1 202.655 797.767 203.648C798.441 204.633 798.775 205.739 798.767 206.966C798.775 208.269 798.369 209.356 797.551 210.227C796.741 211.098 795.684 211.652 794.381 211.886V212.068C796.093 212.288 797.396 212.883 798.29 213.852C799.191 214.814 799.638 216.019 799.631 217.466C799.638 218.792 799.256 219.97 798.483 221C797.718 222.03 796.661 222.841 795.312 223.432C793.964 224.023 792.419 224.318 790.676 224.318ZM808.19 224.33C807.077 224.33 806.084 224.136 805.213 223.75C804.342 223.356 803.652 222.777 803.145 222.011C802.645 221.239 802.395 220.277 802.395 219.125C802.395 218.155 802.573 217.341 802.929 216.682C803.285 216.023 803.77 215.492 804.384 215.091C804.997 214.689 805.694 214.386 806.474 214.182C807.262 213.977 808.088 213.833 808.952 213.75C809.967 213.644 810.785 213.545 811.406 213.455C812.027 213.356 812.478 213.212 812.759 213.023C813.039 212.833 813.179 212.553 813.179 212.182V212.114C813.179 211.394 812.952 210.837 812.497 210.443C812.05 210.049 811.414 209.852 810.588 209.852C809.717 209.852 809.024 210.045 808.509 210.432C807.993 210.811 807.652 211.288 807.486 211.864L803.009 211.5C803.236 210.439 803.683 209.523 804.349 208.75C805.016 207.97 805.876 207.371 806.929 206.955C807.99 206.53 809.217 206.318 810.611 206.318C811.58 206.318 812.509 206.432 813.395 206.659C814.289 206.886 815.08 207.239 815.77 207.716C816.467 208.193 817.016 208.807 817.418 209.557C817.819 210.299 818.02 211.189 818.02 212.227V224H813.429V221.58H813.293C813.012 222.125 812.637 222.606 812.168 223.023C811.698 223.432 811.134 223.754 810.474 223.989C809.815 224.216 809.054 224.33 808.19 224.33ZM809.577 220.989C810.289 220.989 810.918 220.848 811.463 220.568C812.009 220.28 812.437 219.894 812.747 219.409C813.058 218.924 813.213 218.375 813.213 217.761V215.909C813.062 216.008 812.853 216.098 812.588 216.182C812.33 216.258 812.039 216.33 811.713 216.398C811.387 216.458 811.062 216.515 810.736 216.568C810.41 216.614 810.115 216.655 809.849 216.693C809.281 216.777 808.785 216.909 808.361 217.091C807.937 217.273 807.607 217.519 807.372 217.83C807.137 218.133 807.02 218.511 807.02 218.966C807.02 219.625 807.259 220.129 807.736 220.477C808.221 220.818 808.834 220.989 809.577 220.989Z" fill="#7E7E7E"/>
<path id="204&#208;&#176;_2" d="M862.886 224V220.455L871.17 212.784C871.875 212.102 872.466 211.489 872.943 210.943C873.428 210.398 873.795 209.864 874.045 209.341C874.295 208.811 874.42 208.239 874.42 207.625C874.42 206.943 874.265 206.356 873.955 205.864C873.644 205.364 873.22 204.981 872.682 204.716C872.144 204.443 871.534 204.307 870.852 204.307C870.14 204.307 869.519 204.451 868.989 204.739C868.458 205.027 868.049 205.439 867.761 205.977C867.473 206.515 867.33 207.155 867.33 207.898H862.659C862.659 206.375 863.004 205.053 863.693 203.932C864.383 202.811 865.348 201.943 866.591 201.33C867.833 200.716 869.265 200.409 870.886 200.409C872.553 200.409 874.004 200.705 875.239 201.295C876.481 201.879 877.447 202.689 878.136 203.727C878.826 204.765 879.17 205.955 879.17 207.295C879.17 208.174 878.996 209.042 878.648 209.898C878.307 210.754 877.697 211.705 876.818 212.75C875.939 213.788 874.701 215.034 873.102 216.489L869.705 219.818V219.977H879.477V224H862.886ZM892.168 224.511C890.213 224.504 888.531 224.023 887.122 223.068C885.721 222.114 884.641 220.731 883.884 218.92C883.134 217.11 882.762 214.932 882.77 212.386C882.77 209.848 883.145 207.686 883.895 205.898C884.652 204.11 885.732 202.75 887.134 201.818C888.543 200.879 890.221 200.409 892.168 200.409C894.115 200.409 895.789 200.879 897.19 201.818C898.599 202.758 899.683 204.121 900.44 205.909C901.198 207.689 901.573 209.848 901.565 212.386C901.565 214.939 901.187 217.121 900.429 218.932C899.679 220.742 898.603 222.125 897.202 223.08C895.8 224.034 894.122 224.511 892.168 224.511ZM892.168 220.432C893.501 220.432 894.565 219.761 895.361 218.42C896.156 217.08 896.55 215.068 896.543 212.386C896.543 210.621 896.361 209.152 895.997 207.977C895.641 206.803 895.134 205.92 894.474 205.33C893.823 204.739 893.054 204.443 892.168 204.443C890.842 204.443 889.781 205.106 888.986 206.432C888.19 207.758 887.789 209.742 887.781 212.386C887.781 214.174 887.959 215.667 888.315 216.864C888.679 218.053 889.19 218.947 889.849 219.545C890.509 220.136 891.281 220.432 892.168 220.432ZM904.722 219.909V216.034L914.438 200.727H917.778V206.091H915.801L909.676 215.784V215.966H923.483V219.909H904.722ZM915.892 224V218.727L915.983 217.011V200.727H920.597V224H915.892ZM931.784 224.33C930.67 224.33 929.678 224.136 928.807 223.75C927.936 223.356 927.246 222.777 926.739 222.011C926.239 221.239 925.989 220.277 925.989 219.125C925.989 218.155 926.167 217.341 926.523 216.682C926.879 216.023 927.364 215.492 927.977 215.091C928.591 214.689 929.288 214.386 930.068 214.182C930.856 213.977 931.682 213.833 932.545 213.75C933.561 213.644 934.379 213.545 935 213.455C935.621 213.356 936.072 213.212 936.352 213.023C936.633 212.833 936.773 212.553 936.773 212.182V212.114C936.773 211.394 936.545 210.837 936.091 210.443C935.644 210.049 935.008 209.852 934.182 209.852C933.311 209.852 932.617 210.045 932.102 210.432C931.587 210.811 931.246 211.288 931.08 211.864L926.602 211.5C926.83 210.439 927.277 209.523 927.943 208.75C928.61 207.97 929.47 207.371 930.523 206.955C931.583 206.53 932.811 206.318 934.205 206.318C935.174 206.318 936.102 206.432 936.989 206.659C937.883 206.886 938.674 207.239 939.364 207.716C940.061 208.193 940.61 208.807 941.011 209.557C941.413 210.299 941.614 211.189 941.614 212.227V224H937.023V221.58H936.886C936.606 222.125 936.231 222.606 935.761 223.023C935.292 223.432 934.727 223.754 934.068 223.989C933.409 224.216 932.648 224.33 931.784 224.33ZM933.17 220.989C933.883 220.989 934.511 220.848 935.057 220.568C935.602 220.28 936.03 219.894 936.341 219.409C936.652 218.924 936.807 218.375 936.807 217.761V215.909C936.655 216.008 936.447 216.098 936.182 216.182C935.924 216.258 935.633 216.33 935.307 216.398C934.981 216.458 934.655 216.515 934.33 216.568C934.004 216.614 933.708 216.655 933.443 216.693C932.875 216.777 932.379 216.909 931.955 217.091C931.53 217.273 931.201 217.519 930.966 217.83C930.731 218.133 930.614 218.511 930.614 218.966C930.614 219.625 930.852 220.129 931.33 220.477C931.814 220.818 932.428 220.989 933.17 220.989Z" fill="#7E7E7E"/>
<path id="205&#208;&#176;" d="M987.886 224V220.455L996.17 212.784C996.875 212.102 997.466 211.489 997.943 210.943C998.428 210.398 998.795 209.864 999.045 209.341C999.295 208.811 999.42 208.239 999.42 207.625C999.42 206.943 999.265 206.356 998.955 205.864C998.644 205.364 998.22 204.981 997.682 204.716C997.144 204.443 996.534 204.307 995.852 204.307C995.14 204.307 994.519 204.451 993.989 204.739C993.458 205.027 993.049 205.439 992.761 205.977C992.473 206.515 992.33 207.155 992.33 207.898H987.659C987.659 206.375 988.004 205.053 988.693 203.932C989.383 202.811 990.348 201.943 991.591 201.33C992.833 200.716 994.265 200.409 995.886 200.409C997.553 200.409 999.004 200.705 1000.24 201.295C1001.48 201.879 1002.45 202.689 1003.14 203.727C1003.83 204.765 1004.17 205.955 1004.17 207.295C1004.17 208.174 1004 209.042 1003.65 209.898C1003.31 210.754 1002.7 211.705 1001.82 212.75C1000.94 213.788 999.701 215.034 998.102 216.489L994.705 219.818V219.977H1004.48V224H987.886ZM1017.17 224.511C1015.21 224.504 1013.53 224.023 1012.12 223.068C1010.72 222.114 1009.64 220.731 1008.88 218.92C1008.13 217.11 1007.76 214.932 1007.77 212.386C1007.77 209.848 1008.14 207.686 1008.89 205.898C1009.65 204.11 1010.73 202.75 1012.13 201.818C1013.54 200.879 1015.22 200.409 1017.17 200.409C1019.11 200.409 1020.79 200.879 1022.19 201.818C1023.6 202.758 1024.68 204.121 1025.44 205.909C1026.2 207.689 1026.57 209.848 1026.57 212.386C1026.57 214.939 1026.19 217.121 1025.43 218.932C1024.68 220.742 1023.6 222.125 1022.2 223.08C1020.8 224.034 1019.12 224.511 1017.17 224.511ZM1017.17 220.432C1018.5 220.432 1019.57 219.761 1020.36 218.42C1021.16 217.08 1021.55 215.068 1021.54 212.386C1021.54 210.621 1021.36 209.152 1021 207.977C1020.64 206.803 1020.13 205.92 1019.47 205.33C1018.82 204.739 1018.05 204.443 1017.17 204.443C1015.84 204.443 1014.78 205.106 1013.99 206.432C1013.19 207.758 1012.79 209.742 1012.78 212.386C1012.78 214.174 1012.96 215.667 1013.32 216.864C1013.68 218.053 1014.19 218.947 1014.85 219.545C1015.51 220.136 1016.28 220.432 1017.17 220.432ZM1038.57 224.318C1036.97 224.318 1035.54 224.023 1034.28 223.432C1033.03 222.841 1032.04 222.027 1031.3 220.989C1030.57 219.951 1030.18 218.761 1030.15 217.42H1034.93C1034.98 218.322 1035.36 219.053 1036.06 219.614C1036.77 220.174 1037.6 220.455 1038.57 220.455C1039.35 220.455 1040.03 220.284 1040.62 219.943C1041.22 219.595 1041.68 219.114 1042.02 218.5C1042.36 217.879 1042.53 217.167 1042.53 216.364C1042.53 215.545 1042.35 214.826 1042.01 214.205C1041.66 213.583 1041.19 213.098 1040.59 212.75C1039.98 212.402 1039.29 212.223 1038.51 212.216C1037.82 212.216 1037.16 212.356 1036.52 212.636C1035.88 212.917 1035.38 213.299 1035.03 213.784L1030.65 213L1031.76 200.727H1045.98V204.75H1035.81L1035.21 210.58H1035.35C1035.76 210.004 1036.37 209.527 1037.2 209.148C1038.02 208.769 1038.95 208.58 1039.97 208.58C1041.37 208.58 1042.62 208.909 1043.72 209.568C1044.82 210.227 1045.69 211.133 1046.32 212.284C1046.96 213.428 1047.27 214.746 1047.27 216.239C1047.27 217.807 1046.91 219.201 1046.18 220.42C1045.45 221.633 1044.43 222.587 1043.12 223.284C1041.82 223.973 1040.3 224.318 1038.57 224.318ZM1055.72 224.33C1054.61 224.33 1053.62 224.136 1052.74 223.75C1051.87 223.356 1051.18 222.777 1050.68 222.011C1050.18 221.239 1049.93 220.277 1049.93 219.125C1049.93 218.155 1050.1 217.341 1050.46 216.682C1050.82 216.023 1051.3 215.492 1051.91 215.091C1052.53 214.689 1053.23 214.386 1054.01 214.182C1054.79 213.977 1055.62 213.833 1056.48 213.75C1057.5 213.644 1058.32 213.545 1058.94 213.455C1059.56 213.356 1060.01 213.212 1060.29 213.023C1060.57 212.833 1060.71 212.553 1060.71 212.182V212.114C1060.71 211.394 1060.48 210.837 1060.03 210.443C1059.58 210.049 1058.95 209.852 1058.12 209.852C1057.25 209.852 1056.55 210.045 1056.04 210.432C1055.52 210.811 1055.18 211.288 1055.02 211.864L1050.54 211.5C1050.77 210.439 1051.21 209.523 1051.88 208.75C1052.55 207.97 1053.41 207.371 1054.46 206.955C1055.52 206.53 1056.75 206.318 1058.14 206.318C1059.11 206.318 1060.04 206.432 1060.93 206.659C1061.82 206.886 1062.61 207.239 1063.3 207.716C1064 208.193 1064.55 208.807 1064.95 209.557C1065.35 210.299 1065.55 211.189 1065.55 212.227V224H1060.96V221.58H1060.82C1060.54 222.125 1060.17 222.606 1059.7 223.023C1059.23 223.432 1058.66 223.754 1058.01 223.989C1057.35 224.216 1056.59 224.33 1055.72 224.33ZM1057.11 220.989C1057.82 220.989 1058.45 220.848 1058.99 220.568C1059.54 220.28 1059.97 219.894 1060.28 219.409C1060.59 218.924 1060.74 218.375 1060.74 217.761V215.909C1060.59 216.008 1060.38 216.098 1060.12 216.182C1059.86 216.258 1059.57 216.33 1059.24 216.398C1058.92 216.458 1058.59 216.515 1058.27 216.568C1057.94 216.614 1057.65 216.655 1057.38 216.693C1056.81 216.777 1056.32 216.909 1055.89 217.091C1055.47 217.273 1055.14 217.519 1054.9 217.83C1054.67 218.133 1054.55 218.511 1054.55 218.966C1054.55 219.625 1054.79 220.129 1055.27 220.477C1055.75 220.818 1056.37 220.989 1057.11 220.989Z" fill="#7E7E7E"/>
<path id="Arrow 1" d="M577.808 66.146C577.337 65.1472 576.145 64.7198 575.146 65.1915L558.87 72.8776C557.871 73.3493 557.443 74.5413 557.915 75.5401C558.387 76.5389 559.579 76.9663 560.578 76.4946L575.046 69.6625L581.878 84.1305C582.349 85.1293 583.541 85.5566 584.54 85.085C585.539 84.6133 585.966 83.4213 585.495 82.4225L577.808 66.146ZM557 120L558.883 120.675L577.883 67.6749L576 67L574.117 66.3251L555.117 119.325L557 120Z" fill="#D9D9D9"/>
<path id="&#208;&#191;&#208;&#181;&#209;&#128;&#208;&#181;&#209;&#133;&#208;&#190;&#208;&#180; &#208;&#178; &#208;&#186;&#208;&#190;&#209;&#128;&#208;&#191;&#209;&#131;&#209;&#129; &#208;&#145;" d="M564 135.966H572.727V143.597H564V141.284H570.824V138.25H564V135.966ZM563.83 149.506C563.83 148.608 564.011 147.835 564.375 147.188C564.742 146.544 565.261 146.047 565.932 145.699C566.606 145.35 567.403 145.176 568.324 145.176C569.222 145.176 570.009 145.35 570.688 145.699C571.366 146.047 571.894 146.538 572.273 147.17C572.652 147.807 572.841 148.553 572.841 149.409C572.841 149.985 572.748 150.521 572.562 151.017C572.381 151.517 572.106 151.953 571.739 152.324C571.371 152.699 570.909 152.991 570.352 153.199C569.799 153.407 569.152 153.511 568.409 153.511H567.744V146.142H569.244V151.233C569.593 151.233 569.902 151.157 570.17 151.006C570.439 150.854 570.65 150.644 570.801 150.375C570.956 150.11 571.034 149.801 571.034 149.449C571.034 149.081 570.949 148.756 570.778 148.472C570.612 148.191 570.386 147.972 570.102 147.812C569.822 147.653 569.509 147.572 569.165 147.568H567.739C567.307 147.568 566.934 147.648 566.619 147.807C566.305 147.97 566.062 148.199 565.892 148.494C565.722 148.79 565.636 149.14 565.636 149.545C565.636 149.814 565.674 150.061 565.75 150.284C565.826 150.508 565.939 150.699 566.091 150.858C566.242 151.017 566.428 151.138 566.648 151.222L566.5 153.46C565.962 153.347 565.492 153.114 565.091 152.761C564.693 152.413 564.383 151.962 564.159 151.409C563.939 150.86 563.83 150.225 563.83 149.506ZM560.727 155.091H572.727V157.477H571.261V157.585C571.496 157.691 571.735 157.845 571.977 158.045C572.223 158.25 572.428 158.515 572.591 158.841C572.758 159.17 572.841 159.58 572.841 160.068C572.841 160.705 572.674 161.292 572.341 161.83C572.011 162.367 571.513 162.797 570.847 163.119C570.184 163.441 569.352 163.602 568.352 163.602C567.379 163.602 566.557 163.445 565.886 163.131C565.22 162.82 564.714 162.396 564.369 161.858C564.028 161.324 563.858 160.725 563.858 160.062C563.858 159.593 563.936 159.193 564.091 158.864C564.246 158.538 564.441 158.271 564.676 158.062C564.915 157.854 565.155 157.695 565.398 157.585V157.511H560.727V155.091ZM568.364 157.46C567.845 157.46 567.392 157.532 567.006 157.676C566.619 157.82 566.318 158.028 566.102 158.301C565.89 158.574 565.784 158.905 565.784 159.295C565.784 159.689 565.892 160.023 566.108 160.295C566.328 160.568 566.631 160.775 567.017 160.915C567.407 161.059 567.856 161.131 568.364 161.131C568.867 161.131 569.311 161.061 569.693 160.92C570.076 160.78 570.375 160.574 570.591 160.301C570.807 160.028 570.915 159.693 570.915 159.295C570.915 158.902 570.811 158.568 570.602 158.295C570.394 158.027 570.098 157.82 569.716 157.676C569.333 157.532 568.883 157.46 568.364 157.46ZM563.83 169.193C563.83 168.295 564.011 167.523 564.375 166.875C564.742 166.231 565.261 165.735 565.932 165.386C566.606 165.038 567.403 164.864 568.324 164.864C569.222 164.864 570.009 165.038 570.688 165.386C571.366 165.735 571.894 166.225 572.273 166.858C572.652 167.494 572.841 168.241 572.841 169.097C572.841 169.672 572.748 170.208 572.562 170.705C572.381 171.205 572.106 171.64 571.739 172.011C571.371 172.386 570.909 172.678 570.352 172.886C569.799 173.095 569.152 173.199 568.409 173.199H567.744V165.83H569.244V170.92C569.593 170.92 569.902 170.845 570.17 170.693C570.439 170.542 570.65 170.331 570.801 170.062C570.956 169.797 571.034 169.489 571.034 169.136C571.034 168.769 570.949 168.443 570.778 168.159C570.612 167.879 570.386 167.659 570.102 167.5C569.822 167.341 569.509 167.259 569.165 167.256H567.739C567.307 167.256 566.934 167.335 566.619 167.494C566.305 167.657 566.062 167.886 565.892 168.182C565.722 168.477 565.636 168.828 565.636 169.233C565.636 169.502 565.674 169.748 565.75 169.972C565.826 170.195 565.939 170.386 566.091 170.545C566.242 170.705 566.428 170.826 566.648 170.909L566.5 173.148C565.962 173.034 565.492 172.801 565.091 172.449C564.693 172.1 564.383 171.65 564.159 171.097C563.939 170.547 563.83 169.913 563.83 169.193ZM572.727 176.645L569.676 178.247L572.727 179.889V182.372L568.364 179.844L564 182.44V179.969L567.017 178.247L564 176.554V174.054L568.364 176.645L572.727 174.145V176.645ZM563.83 187.44C563.83 186.558 564.017 185.795 564.392 185.151C564.771 184.51 565.297 184.016 565.972 183.668C566.65 183.319 567.436 183.145 568.33 183.145C569.231 183.145 570.019 183.319 570.693 183.668C571.371 184.016 571.898 184.51 572.273 185.151C572.652 185.795 572.841 186.558 572.841 187.44C572.841 188.323 572.652 189.084 572.273 189.724C571.898 190.368 571.371 190.865 570.693 191.213C570.019 191.562 569.231 191.736 568.33 191.736C567.436 191.736 566.65 191.562 565.972 191.213C565.297 190.865 564.771 190.368 564.392 189.724C564.017 189.084 563.83 188.323 563.83 187.44ZM565.705 187.452C565.705 187.853 565.818 188.188 566.045 188.457C566.277 188.726 566.591 188.929 566.989 189.065C567.386 189.205 567.839 189.276 568.347 189.276C568.854 189.276 569.307 189.205 569.705 189.065C570.102 188.929 570.417 188.726 570.648 188.457C570.879 188.188 570.994 187.853 570.994 187.452C570.994 187.046 570.879 186.705 570.648 186.429C570.417 186.156 570.102 185.95 569.705 185.81C569.307 185.673 568.854 185.605 568.347 185.605C567.839 185.605 567.386 185.673 566.989 185.81C566.591 185.95 566.277 186.156 566.045 186.429C565.818 186.705 565.705 187.046 565.705 187.452ZM561.443 192.628H565.92V193.298C566.042 193.491 566.235 193.647 566.5 193.764C566.765 193.885 567.078 193.984 567.438 194.06C567.797 194.139 568.186 194.2 568.602 194.241C569.023 194.287 569.447 194.327 569.875 194.361L572.727 194.588V201.281H565.92V202.634H561.443V200.327H564V194.991H561.443V192.628ZM565.92 195.707V198.997H570.864V196.645L569.875 196.554C568.943 196.49 568.152 196.397 567.5 196.276C566.852 196.154 566.326 195.965 565.92 195.707ZM545 135.966H553.727V139.688C553.727 140.763 553.523 141.614 553.114 142.239C552.705 142.864 552.123 143.176 551.369 143.176C550.896 143.176 550.502 143 550.188 142.648C549.873 142.295 549.661 141.807 549.551 141.182C549.513 141.705 549.394 142.15 549.193 142.517C548.996 142.888 548.741 143.17 548.426 143.364C548.112 143.561 547.763 143.659 547.381 143.659C546.884 143.659 546.458 143.527 546.102 143.261C545.746 143 545.473 142.616 545.284 142.108C545.095 141.604 545 140.989 545 140.261V135.966ZM546.812 138.222V140.261C546.812 140.598 546.892 140.862 547.051 141.051C547.214 141.244 547.436 141.341 547.716 141.341C548.027 141.341 548.271 141.244 548.449 141.051C548.627 140.862 548.716 140.598 548.716 140.261V138.222H546.812ZM550.136 138.222V139.739C550.136 139.981 550.17 140.188 550.239 140.358C550.311 140.532 550.413 140.665 550.545 140.756C550.678 140.85 550.835 140.898 551.017 140.898C551.286 140.898 551.496 140.79 551.648 140.574C551.799 140.358 551.875 140.062 551.875 139.688V138.222H550.136ZM545 148.888H553.727V151.308H550.341V151.99L553.727 154.365V157.206L549.398 154.121L545 157.24V154.365L548.097 152.212V151.308H545V148.888ZM544.83 161.847C544.83 160.964 545.017 160.201 545.392 159.557C545.771 158.917 546.297 158.422 546.972 158.074C547.65 157.725 548.436 157.551 549.33 157.551C550.231 157.551 551.019 157.725 551.693 158.074C552.371 158.422 552.898 158.917 553.273 159.557C553.652 160.201 553.841 160.964 553.841 161.847C553.841 162.729 553.652 163.491 553.273 164.131C552.898 164.775 552.371 165.271 551.693 165.619C551.019 165.968 550.231 166.142 549.33 166.142C548.436 166.142 547.65 165.968 546.972 165.619C546.297 165.271 545.771 164.775 545.392 164.131C545.017 163.491 544.83 162.729 544.83 161.847ZM546.705 161.858C546.705 162.259 546.818 162.595 547.045 162.864C547.277 163.133 547.591 163.335 547.989 163.472C548.386 163.612 548.839 163.682 549.347 163.682C549.854 163.682 550.307 163.612 550.705 163.472C551.102 163.335 551.417 163.133 551.648 162.864C551.879 162.595 551.994 162.259 551.994 161.858C551.994 161.453 551.879 161.112 551.648 160.835C551.417 160.563 551.102 160.356 550.705 160.216C550.307 160.08 549.854 160.011 549.347 160.011C548.839 160.011 548.386 160.08 547.989 160.216C547.591 160.356 547.277 160.563 547.045 160.835C546.818 161.112 546.705 161.453 546.705 161.858ZM541.727 167.716H553.727V170.102H552.261V170.21C552.496 170.316 552.735 170.47 552.977 170.67C553.223 170.875 553.428 171.14 553.591 171.466C553.758 171.795 553.841 172.205 553.841 172.693C553.841 173.33 553.674 173.917 553.341 174.455C553.011 174.992 552.513 175.422 551.847 175.744C551.184 176.066 550.352 176.227 549.352 176.227C548.379 176.227 547.557 176.07 546.886 175.756C546.22 175.445 545.714 175.021 545.369 174.483C545.028 173.949 544.858 173.35 544.858 172.688C544.858 172.218 544.936 171.818 545.091 171.489C545.246 171.163 545.441 170.896 545.676 170.688C545.915 170.479 546.155 170.32 546.398 170.21V170.136H541.727V167.716ZM549.364 170.085C548.845 170.085 548.392 170.157 548.006 170.301C547.619 170.445 547.318 170.653 547.102 170.926C546.89 171.199 546.784 171.53 546.784 171.92C546.784 172.314 546.892 172.648 547.108 172.92C547.328 173.193 547.631 173.4 548.017 173.54C548.407 173.684 548.856 173.756 549.364 173.756C549.867 173.756 550.311 173.686 550.693 173.545C551.076 173.405 551.375 173.199 551.591 172.926C551.807 172.653 551.915 172.318 551.915 171.92C551.915 171.527 551.811 171.193 551.602 170.92C551.394 170.652 551.098 170.445 550.716 170.301C550.333 170.157 549.883 170.085 549.364 170.085ZM545 177.841H553.727V185.472H545V183.159H551.824V180.125H545V177.841ZM541.727 188.585C541.727 188.278 541.752 187.991 541.801 187.722C541.847 187.456 541.905 187.237 541.977 187.062L543.784 187.608C543.697 187.892 543.65 188.148 543.642 188.375C543.634 188.606 543.687 188.805 543.801 188.972C543.915 189.142 544.108 189.28 544.381 189.386L544.75 189.528L553.727 186.398V188.943L547.318 190.75V190.841L553.727 192.665V195.227L544.057 191.835C543.587 191.672 543.178 191.451 542.83 191.17C542.477 190.894 542.206 190.544 542.017 190.119C541.824 189.695 541.727 189.184 541.727 188.585ZM544.83 200.128C544.83 199.234 545.019 198.465 545.398 197.821C545.78 197.181 546.311 196.688 546.989 196.344C547.667 196.003 548.447 195.832 549.33 195.832C550.223 195.832 551.008 196.005 551.682 196.349C552.36 196.698 552.888 197.192 553.267 197.832C553.65 198.473 553.841 199.234 553.841 200.116C553.841 200.878 553.703 201.545 553.426 202.116C553.15 202.688 552.761 203.141 552.261 203.474C551.761 203.808 551.174 203.991 550.5 204.026V201.741C550.936 201.677 551.286 201.507 551.551 201.23C551.82 200.957 551.955 200.599 551.955 200.156C551.955 199.781 551.852 199.454 551.648 199.173C551.447 198.897 551.153 198.681 550.767 198.526C550.381 198.37 549.913 198.293 549.364 198.293C548.807 198.293 548.333 198.368 547.943 198.52C547.553 198.675 547.256 198.893 547.051 199.173C546.847 199.454 546.744 199.781 546.744 200.156C546.744 200.433 546.801 200.681 546.915 200.901C547.028 201.124 547.193 201.308 547.409 201.452C547.629 201.599 547.892 201.696 548.199 201.741V204.026C547.532 203.988 546.945 203.806 546.438 203.48C545.934 203.158 545.54 202.713 545.256 202.145C544.972 201.577 544.83 200.904 544.83 200.128ZM545 209.324H556.636V217.045H554.608V211.784H552.335V213.676C552.335 214.597 552.186 215.39 551.886 216.057C551.591 216.727 551.172 217.244 550.631 217.608C550.089 217.972 549.451 218.153 548.716 218.153C547.985 218.153 547.339 217.972 546.778 217.608C546.222 217.244 545.786 216.727 545.472 216.057C545.157 215.39 545 214.597 545 213.676V209.324ZM546.977 211.784V213.676C546.977 214.116 547.057 214.487 547.216 214.79C547.379 215.093 547.593 215.322 547.858 215.477C548.127 215.636 548.42 215.716 548.739 215.716C549.201 215.716 549.591 215.54 549.909 215.188C550.231 214.839 550.392 214.335 550.392 213.676V211.784H546.977Z" fill="#D9D9D9"/>
<g id="badge-wc-fill 1">
<path id="Vector" d="M92 191.75C92 190.722 92.5004 189.737 93.3912 189.01C94.282 188.283 95.4902 187.875 96.75 187.875H125.25C126.51 187.875 127.718 188.283 128.609 189.01C129.5 189.737 130 190.722 130 191.75V207.25C130 208.278 129.5 209.263 128.609 209.99C127.718 210.717 126.51 211.125 125.25 211.125H96.75C95.4902 211.125 94.282 210.717 93.3912 209.99C92.5004 209.263 92 208.278 92 207.25V191.75ZM119.707 195.412C121.327 195.412 122.412 196.323 122.526 197.557H125.25V197.344C125.124 195.044 122.818 193.469 119.688 193.469C115.878 193.469 113.708 195.503 113.708 198.799V200.246C113.708 203.54 115.857 205.535 119.688 205.535C122.809 205.535 125.115 204.001 125.25 201.778V201.558H122.526C122.412 202.749 121.346 203.592 119.707 203.592C117.714 203.592 116.576 202.391 116.576 200.246V198.808C116.576 196.654 117.736 195.412 119.707 195.412ZM105.01 197.206H105.115L107.537 205.312H109.926L113.375 193.689H110.568L108.62 202.127H108.487L106.179 193.689H103.946L101.638 202.127H101.512L99.5477 193.689H96.75L100.198 205.312H102.585L105.01 197.206Z" fill="#7E7E7E"/>
</g>
<path id="Vector_2" d="M1097 188.833C1097 187.817 1097.47 186.842 1098.32 186.123C1099.16 185.404 1100.31 185 1101.5 185H1128.5C1129.69 185 1130.84 185.404 1131.68 186.123C1132.53 186.842 1133 187.817 1133 188.833V204.167C1133 205.183 1132.53 206.158 1131.68 206.877C1130.84 207.596 1129.69 208 1128.5 208H1101.5C1100.31 208 1099.16 207.596 1098.32 206.877C1097.47 206.158 1097 205.183 1097 204.167V188.833ZM1123.25 192.456C1124.78 192.456 1125.81 193.357 1125.92 194.578H1128.5V194.367C1128.38 192.092 1126.2 190.533 1123.23 190.533C1119.62 190.533 1117.57 192.546 1117.57 195.806V197.238C1117.57 200.496 1119.6 202.47 1123.23 202.47C1126.19 202.47 1128.37 200.952 1128.5 198.754V198.536H1125.92C1125.81 199.714 1124.8 200.548 1123.25 200.548C1121.36 200.548 1120.28 199.36 1120.28 197.238V195.816C1120.28 193.684 1121.38 192.456 1123.25 192.456ZM1109.33 194.231H1109.42L1111.72 202.25H1113.98L1117.25 190.752H1114.59L1112.75 199.099H1112.62L1110.43 190.752H1108.32L1106.13 199.099H1106.01L1104.15 190.752H1101.5L1104.77 202.25H1107.03L1109.33 194.231Z" fill="#7E7E7E"/>
<g id="ladder 1">
<path id="Vector_3" d="M232.656 645.875C233.029 645.875 233.387 646.026 233.651 646.296C233.914 646.566 234.062 646.931 234.062 647.312V648.75H250.938V647.312C250.938 646.931 251.086 646.566 251.349 646.296C251.613 646.026 251.971 645.875 252.344 645.875C252.717 645.875 253.074 646.026 253.338 646.296C253.602 646.566 253.75 646.931 253.75 647.312V687.562C253.75 687.944 253.602 688.309 253.338 688.579C253.074 688.849 252.717 689 252.344 689C251.971 689 251.613 688.849 251.349 688.579C251.086 688.309 250.938 687.944 250.938 687.562V686.125H234.062V687.562C234.062 687.944 233.914 688.309 233.651 688.579C233.387 688.849 233.029 689 232.656 689C232.283 689 231.926 688.849 231.662 688.579C231.398 688.309 231.25 687.944 231.25 687.562V647.312C231.25 646.931 231.398 646.566 231.662 646.296C231.926 646.026 232.283 645.875 232.656 645.875ZM234.062 683.25H250.938V677.5H234.062V683.25ZM234.062 674.625H250.938V668.875H234.062V674.625ZM234.062 666H250.938V660.25H234.062V666ZM234.062 657.375H250.938V651.625H234.062V657.375Z" fill="#D9D9D9"/>
</g>
<g id="ladder 1_2" clip-path="url(#clip0_13_52)">
<path id="Vector_4" d="M1003.5 345.75C1003.5 345.418 1003.68 345.101 1004.01 344.866C1004.34 344.632 1004.79 344.5 1005.25 344.5H1007V329.5H1005.25C1004.79 329.5 1004.34 329.368 1004.01 329.134C1003.68 328.899 1003.5 328.582 1003.5 328.25C1003.5 327.918 1003.68 327.601 1004.01 327.366C1004.34 327.132 1004.79 327 1005.25 327H1054.25C1054.71 327 1055.16 327.132 1055.49 327.366C1055.82 327.601 1056 327.918 1056 328.25C1056 328.582 1055.82 328.899 1055.49 329.134C1055.16 329.368 1054.71 329.5 1054.25 329.5H1052.5V344.5H1054.25C1054.71 344.5 1055.16 344.632 1055.49 344.866C1055.82 345.101 1056 345.418 1056 345.75C1056 346.082 1055.82 346.399 1055.49 346.634C1055.16 346.868 1054.71 347 1054.25 347H1005.25C1004.79 347 1004.34 346.868 1004.01 346.634C1003.68 346.399 1003.5 346.082 1003.5 345.75ZM1049 344.5V329.5H1042V344.5H1049ZM1038.5 344.5V329.5H1031.5V344.5H1038.5ZM1028 344.5V329.5H1021V344.5H1028ZM1017.5 344.5V329.5H1010.5V344.5H1017.5Z" fill="#D9D9D9"/>
</g>
</g>
<defs>
<filter id="filter0_f_13_52" x="209" y="251" width="801" height="391" filterUnits="userSpaceOnUse" color-interpolation-filters="sRGB">
<feFlood flood-opacity="0" result="BackgroundImageFix"/>
<feBlend mode="normal" in="SourceGraphic" in2="BackgroundImageFix" result="shape"/>
<feGaussianBlur stdDeviation="3" result="effect1_foregroundBlur_13_52"/>
</filter>
<filter id="filter1_d_13_52" x="81" y="540" width="143" height="191" filterUnits="userSpaceOnUse" color-interpolation-filters="sRGB">
<feFlood flood-opacity="0" result="BackgroundImageFix"/>
<feColorMatrix in="SourceAlpha" type="matrix" values="0 0 0 0 0 0 0 0 0 0 0 0 0 0 0 0 0 0 127 0" result="hardAlpha"/>
<feOffset dy="4"/>
<feGaussianBlur stdDeviation="2"/>
<feComposite in2="hardAlpha" operator="out"/>
<feColorMatrix type="matrix" values="0 0 0 0 0 0 0 0 0 0 0 0 0 0 0 0 0 0 0.25 0"/>
<feBlend mode="normal" in2="BackgroundImageFix" result="effect1_dropShadow_13_52"/>
<feBlend mode="normal" in="SourceGraphic" in2="effect1_dropShadow_13_52" result="shape"/>
</filter>
<filter id="filter2_d_13_52" x="258" y="579" width="218" height="81" filterUnits="userSpaceOnUse" color-interpolation-filters="sRGB">
<feFlood flood-opacity="0" result="BackgroundImageFix"/>
<feColorMatrix in="SourceAlpha" type="matrix" values="0 0 0 0 0 0 0 0 0 0 0 0 0 0 0 0 0 0 127 0" result="hardAlpha"/>
<feOffset dy="4"/>
<feGaussianBlur stdDeviation="2"/>
<feComposite in2="hardAlpha" operator="out"/>
<feColorMatrix type="matrix" values="0 0 0 0 0 0 0 0 0 0 0 0 0 0 0 0 0 0 0.25 0"/>
<feBlend mode="normal" in2="BackgroundImageFix" result="effect1_dropShadow_13_52"/>
<feBlend mode="normal" in="SourceGraphic" in2="effect1_dropShadow_13_52" result="shape"/>
</filter>
<filter id="filter3_d_13_52" x="167" y="311" width="309" height="242" filterUnits="userSpaceOnUse" color-interpolation-filters="sRGB">
<feFlood flood-opacity="0" result="BackgroundImageFix"/>
<feColorMatrix in="SourceAlpha" type="matrix" values="0 0 0 0 0 0 0 0 0 0 0 0 0 0 0 0 0 0 127 0" result="hardAlpha"/>
<feOffset dy="4"/>
<feGaussianBlur stdDeviation="2"/>
<feComposite in2="hardAlpha" operator="out"/>
<feColorMatrix type="matrix" values="0 0 0 0 0 0 0 0 0 0 0 0 0 0 0 0 0 0 0.25 0"/>
<feBlend mode="normal" in2="BackgroundImageFix" result="effect1_dropShadow_13_52"/>
<feBlend mode="normal" in="SourceGraphic" in2="effect1_dropShadow_13_52" result="shape"/>
</filter>
<filter id="filter4_d_13_52" x="470" y="311" width="178" height="339.5" filterUnits="userSpaceOnUse" color-interpolation-filters="sRGB">
<feFlood flood-opacity="0" result="BackgroundImageFix"/>
<feColorMatrix in="SourceAlpha" type="matrix" values="0 0 0 0 0 0 0 0 0 0 0 0 0 0 0 0 0 0 127 0" result="hardAlpha"/>
<feOffset dy="4"/>
<feGaussianBlur stdDeviation="2"/>
<feComposite in2="hardAlpha" operator="out"/>
<feColorMatrix type="matrix" values="0 0 0 0 0 0 0 0 0 0 0 0 0 0 0 0 0 0 0.25 0"/>
<feBlend mode="normal" in2="BackgroundImageFix" result="effect1_dropShadow_13_52"/>
<feBlend mode="normal" in="SourceGraphic" in2="effect1_dropShadow_13_52" result="shape"/>
</filter>
<filter id="filter5_d_13_52" x="642" y="311" width="73" height="376.5" filterUnits="userSpaceOnUse" color-interpolation-filters="sRGB">
<feFlood flood-opacity="0" result="BackgroundImageFix"/>
<feColorMatrix in="SourceAlpha" type="matrix" values="0 0 0 0 0 0 0 0 0 0 0 0 0 0 0 0 0 0 127 0" result="hardAlpha"/>
<feOffset dy="4"/>
<feGaussianBlur stdDeviation="2"/>
<feComposite in2="hardAlpha" operator="out"/>
<feColorMatrix type="matrix" values="0 0 0 0 0 0 0 0 0 0 0 0 0 0 0 0 0 0 0.25 0"/>
<feBlend mode="normal" in2="BackgroundImageFix" result="effect1_dropShadow_13_52"/>
<feBlend mode="normal" in="SourceGraphic" in2="effect1_dropShadow_13_52" result="shape"/>
</filter>
<filter id="filter6_d_13_52" x="82" y="161" width="58" height="85" filterUnits="userSpaceOnUse" color-interpolation-filters="sRGB">
<feFlood flood-opacity="0" result="BackgroundImageFix"/>
<feColorMatrix in="SourceAlpha" type="matrix" values="0 0 0 0 0 0 0 0 0 0 0 0 0 0 0 0 0 0 127 0" result="hardAlpha"/>
<feOffset dy="4"/>
<feGaussianBlur stdDeviation="2"/>
<feComposite in2="hardAlpha" operator="out"/>
<feColorMatrix type="matrix" values="0 0 0 0 0 0 0 0 0 0 0 0 0 0 0 0 0 0 0.25 0"/>
<feBlend mode="normal" in2="BackgroundImageFix" result="effect1_dropShadow_13_52"/>
<feBlend mode="normal" in="SourceGraphic" in2="effect1_dropShadow_13_52" result="shape"/>
</filter>
<filter id="filter7_d_13_52" x="134" y="161" width="141" height="109" filterUnits="userSpaceOnUse" color-interpolation-filters="sRGB">
<feFlood flood-opacity="0" result="BackgroundImageFix"/>
<feColorMatrix in="SourceAlpha" type="matrix" values="0 0 0 0 0 0 0 0 0 0 0 0 0 0 0 0 0 0 127 0" result="hardAlpha"/>
<feOffset dy="4"/>
<feGaussianBlur stdDeviation="2"/>
<feComposite in2="hardAlpha" operator="out"/>
<feColorMatrix type="matrix" values="0 0 0 0 0 0 0 0 0 0 0 0 0 0 0 0 0 0 0.25 0"/>
<feBlend mode="normal" in2="BackgroundImageFix" result="effect1_dropShadow_13_52"/>
<feBlend mode="normal" in="SourceGraphic" in2="effect1_dropShadow_13_52" result="shape"/>
</filter>
<filter id="filter8_d_13_52" x="269" y="161" width="128" height="109" filterUnits="userSpaceOnUse" color-interpolation-filters="sRGB">
<feFlood flood-opacity="0" result="BackgroundImageFix"/>
<feColorMatrix in="SourceAlpha" type="matrix" values="0 0 0 0 0 0 0 0 0 0 0 0 0 0 0 0 0 0 127 0" result="hardAlpha"/>
<feOffset dy="4"/>
<feGaussianBlur stdDeviation="2"/>
<feComposite in2="hardAlpha" operator="out"/>
<feColorMatrix type="matrix" values="0 0 0 0 0 0 0 0 0 0 0 0 0 0 0 0 0 0 0.25 0"/>
<feBlend mode="normal" in2="BackgroundImageFix" result="effect1_dropShadow_13_52"/>
<feBlend mode="normal" in="SourceGraphic" in2="effect1_dropShadow_13_52" result="shape"/>
</filter>
<filter id="filter9_d_13_52" x="391" y="161" width="134" height="109" filterUnits="userSpaceOnUse" color-interpolation-filters="sRGB">
<feFlood flood-opacity="0" result="BackgroundImageFix"/>
<feColorMatrix in="SourceAlpha" type="matrix" values="0 0 0 0 0 0 0 0 0 0 0 0 0 0 0 0 0 0 127 0" result="hardAlpha"/>
<feOffset dy="4"/>
<feGaussianBlur stdDeviation="2"/>
<feComposite in2="hardAlpha" operator="out"/>
<feColorMatrix type="matrix" values="0 0 0 0 0 0 0 0 0 0 0 0 0 0 0 0 0 0 0.25 0"/>
<feBlend mode="normal" in2="BackgroundImageFix" result="effect1_dropShadow_13_52"/>
<feBlend mode="normal" in="SourceGraphic" in2="effect1_dropShadow_13_52" result="shape"/>
</filter>
<filter id="filter10_d_13_52" x="709" y="357" width="229" height="128" filterUnits="userSpaceOnUse" color-interpolation-filters="sRGB">
<feFlood flood-opacity="0" result="BackgroundImageFix"/>
<feColorMatrix in="SourceAlpha" type="matrix" values="0 0 0 0 0 0 0 0 0 0 0 0 0 0 0 0 0 0 127 0" result="hardAlpha"/>
<feOffset dy="4"/>
<feGaussianBlur stdDeviation="2"/>
<feComposite in2="hardAlpha" operator="out"/>
<feColorMatrix type="matrix" values="0 0 0 0 0 0 0 0 0 0 0 0 0 0 0 0 0 0 0.25 0"/>
<feBlend mode="normal" in2="BackgroundImageFix" result="effect1_dropShadow_13_52"/>
<feBlend mode="normal" in="SourceGraphic" in2="effect1_dropShadow_13_52" result="shape"/>
</filter>
<filter id="filter11_d_13_52" x="590" y="160" width="123" height="110" filterUnits="userSpaceOnUse" color-interpolation-filters="sRGB">
<feFlood flood-opacity="0" result="BackgroundImageFix"/>
<feColorMatrix in="SourceAlpha" type="matrix" values="0 0 0 0 0 0 0 0 0 0 0 0 0 0 0 0 0 0 127 0" result="hardAlpha"/>
<feOffset dy="4"/>
<feGaussianBlur stdDeviation="2"/>
<feComposite in2="hardAlpha" operator="out"/>
<feColorMatrix type="matrix" values="0 0 0 0 0 0 0 0 0 0 0 0 0 0 0 0 0 0 0.25 0"/>
<feBlend mode="normal" in2="BackgroundImageFix" result="effect1_dropShadow_13_52"/>
<feBlend mode="normal" in="SourceGraphic" in2="effect1_dropShadow_13_52" result="shape"/>
</filter>
<filter id="filter12_d_13_52" x="734" y="311" width="171" height="52" filterUnits="userSpaceOnUse" color-interpolation-filters="sRGB">
<feFlood flood-opacity="0" result="BackgroundImageFix"/>
<feColorMatrix in="SourceAlpha" type="matrix" values="0 0 0 0 0 0 0 0 0 0 0 0 0 0 0 0 0 0 127 0" result="hardAlpha"/>
<feOffset dy="4"/>
<feGaussianBlur stdDeviation="2"/>
<feComposite in2="hardAlpha" operator="out"/>
<feColorMatrix type="matrix" values="0 0 0 0 0 0 0 0 0 0 0 0 0 0 0 0 0 0 0.25 0"/>
<feBlend mode="normal" in2="BackgroundImageFix" result="effect1_dropShadow_13_52"/>
<feBlend mode="normal" in="SourceGraphic" in2="effect1_dropShadow_13_52" result="shape"/>
</filter>
<filter id="filter13_d_13_52" x="708" y="160" width="136" height="110" filterUnits="userSpaceOnUse" color-interpolation-filters="sRGB">
<feFlood flood-opacity="0" result="BackgroundImageFix"/>
<feColorMatrix in="SourceAlpha" type="matrix" values="0 0 0 0 0 0 0 0 0 0 0 0 0 0 0 0 0 0 127 0" result="hardAlpha"/>
<feOffset dy="4"/>
<feGaussianBlur stdDeviation="2"/>
<feComposite in2="hardAlpha" operator="out"/>
<feColorMatrix type="matrix" values="0 0 0 0 0 0 0 0 0 0 0 0 0 0 0 0 0 0 0.25 0"/>
<feBlend mode="normal" in2="BackgroundImageFix" result="effect1_dropShadow_13_52"/>
<feBlend mode="normal" in="SourceGraphic" in2="effect1_dropShadow_13_52" result="shape"/>
</filter>
<filter id="filter14_d_13_52" x="838" y="160" width="128" height="110" filterUnits="userSpaceOnUse" color-interpolation-filters="sRGB">
<feFlood flood-opacity="0" result="BackgroundImageFix"/>
<feColorMatrix in="SourceAlpha" type="matrix" values="0 0 0 0 0 0 0 0 0 0 0 0 0 0 0 0 0 0 127 0" result="hardAlpha"/>
<feOffset dy="4"/>
<feGaussianBlur stdDeviation="2"/>
<feComposite in2="hardAlpha" operator="out"/>
<feColorMatrix type="matrix" values="0 0 0 0 0 0 0 0 0 0 0 0 0 0 0 0 0 0 0.25 0"/>
<feBlend mode="normal" in2="BackgroundImageFix" result="effect1_dropShadow_13_52"/>
<feBlend mode="normal" in="SourceGraphic" in2="effect1_dropShadow_13_52" result="shape"/>
</filter>
<filter id="filter15_d_13_52" x="961" y="160" width="134" height="110" filterUnits="userSpaceOnUse" color-interpolation-filters="sRGB">
<feFlood flood-opacity="0" result="BackgroundImageFix"/>
<feColorMatrix in="SourceAlpha" type="matrix" values="0 0 0 0 0 0 0 0 0 0 0 0 0 0 0 0 0 0 127 0" result="hardAlpha"/>
<feOffset dy="4"/>
<feGaussianBlur stdDeviation="2"/>
<feComposite in2="hardAlpha" operator="out"/>
<feColorMatrix type="matrix" values="0 0 0 0 0 0 0 0 0 0 0 0 0 0 0 0 0 0 0.25 0"/>
<feBlend mode="normal" in2="BackgroundImageFix" result="effect1_dropShadow_13_52"/>
<feBlend mode="normal" in="SourceGraphic" in2="effect1_dropShadow_13_52" result="shape"/>
</filter>
<filter id="filter16_d_13_52" x="1089" y="160" width="53" height="78" filterUnits="userSpaceOnUse" color-interpolation-filters="sRGB">
<feFlood flood-opacity="0" result="BackgroundImageFix"/>
<feColorMatrix in="SourceAlpha" type="matrix" values="0 0 0 0 0 0 0 0 0 0 0 0 0 0 0 0 0 0 127 0" result="hardAlpha"/>
<feOffset dy="4"/>
<feGaussianBlur stdDeviation="2"/>
<feComposite in2="hardAlpha" operator="out"/>
<feColorMatrix type="matrix" values="0 0 0 0 0 0 0 0 0 0 0 0 0 0 0 0 0 0 0.25 0"/>
<feBlend mode="normal" in2="BackgroundImageFix" result="effect1_dropShadow_13_52"/>
<feBlend mode="normal" in="SourceGraphic" in2="effect1_dropShadow_13_52" result="shape"/>
</filter>
<clipPath id="clip0_13_52">
<rect width="40" height="56" fill="white" transform="matrix(0 -1 1 0 1000 357)"/>
</clipPath>
</defs>
</svg>
