<svg width="1199" height="842" viewBox="0 0 1199 842" fill="none" xmlns="http://www.w3.org/2000/svg">
<rect width="1199" height="842" fill="#1E1E1E"/>
<g id="Frame 1">
<rect width="1199" height="842" fill="white"/>
<path id="Rectangle 37" d="M82 155.5H516.5V131.5L544 56H628L598 131.5V155.5H1147V312H1100V360H963.5V347H938.5V482H716.5V615C710.977 667.687 695.016 683.504 641.5 685H472.5V656H268.5V727H81.5V535.5H248V389C195.258 380.123 179.962 362.479 164.5 313.5H82V155.5Z" fill="#7E7E7E"/>
<g id="Group 1" filter="url(#filter0_f_13_52)">
<line id="Line 1" x1="220" y1="636" x2="220" y2="618" stroke="#4674FF" stroke-width="10"/>
<line id="Line 2" x1="286" y1="545" x2="304" y2="545" stroke="#4674FF" stroke-width="10"/>
<line id="Line 3" x1="410" y1="311" x2="428" y2="311" stroke="#4674FF" stroke-width="10"/>
<line id="Line 4" x1="234" y1="262" x2="252" y2="262" stroke="#4674FF" stroke-width="10"/>
<line id="Line 5" x1="294" y1="262" x2="312" y2="262" stroke="#4674FF" stroke-width="10"/>
<line id="Line 6" x1="467" y1="262" x2="485" y2="262" stroke="#4674FF" stroke-width="10"/>
<line id="Line 7" x1="673" y1="262" x2="691" y2="262" stroke="#4674FF" stroke-width="10"/>
<line id="Line 8" x1="798" y1="262" x2="816" y2="262" stroke="#4674FF" stroke-width="10"/>
<line id="Line 9" x1="927" y1="262" x2="945" y2="262" stroke="#4674FF" stroke-width="10"/>
<line id="Line 10" x1="985" y1="262" x2="1004" y2="262" stroke="#4674FF" stroke-width="10"/>
<line id="Line 11" x1="908" y1="357" x2="926" y2="357" stroke="#4674FF" stroke-width="10"/>
<line id="Line 12" x1="665" y1="311" x2="683" y2="311" stroke="#4674FF" stroke-width="10"/>
<line id="Line 13" x1="552" y1="311" x2="570" y2="311" stroke="#4674FF" stroke-width="10"/>
</g>
<g id="208a" filter="url(#filter1_d_13_52)">
<rect x="85" y="540" width="135" height="183" fill="#D9D9D9"/>
</g>
<g id="Rectangle 22" filter="url(#filter2_d_13_52)">
<rect x="262" y="579" width="210" height="73" fill="#D9D9D9"/>
</g>
<g id="choreography hall" filter="url(#filter3_d_13_52)">
<path d="M171 311H472V545H253V384C202.553 376.3 185.597 359.188 171 311Z" fill="#D9D9D9"/>
</g>
<g id="assembly hall" filter="url(#filter4_d_13_52)">
<path d="M474 311H644V609.5C635.757 609.855 632.515 611.721 630 619V641.5L487 642.5V621C484.569 614.397 481.86 612.068 474 611V311Z" fill="#D9D9D9"/>
</g>
<g id="museum " filter="url(#filter5_d_13_52)">
<path d="M646 311H711V610C706.909 659.514 694.146 676.274 646 679.5V311Z" fill="#D9D9D9"/>
</g>
<g id="wc-a6" filter="url(#filter6_d_13_52)">
<rect x="86" y="161" width="50" height="77" fill="#D9D9D9"/>
</g>
<g id="201a" filter="url(#filter7_d_13_52)">
<rect x="138" y="161" width="133" height="101" fill="#D9D9D9"/>
</g>
<g id="202a" filter="url(#filter8_d_13_52)">
<rect x="273" y="161" width="120" height="101" fill="#D9D9D9"/>
</g>
<g id="203a" filter="url(#filter9_d_13_52)">
<rect x="395" y="161" width="126" height="101" fill="#D9D9D9"/>
</g>
<g id="laboratory " filter="url(#filter10_d_13_52)">
<rect x="713" y="357" width="221" height="120" fill="#D9D9D9"/>
</g>
<g id="204a" filter="url(#filter11_d_13_52)">
<rect x="594" y="160" width="115" height="102" fill="#D9D9D9"/>
</g>
<g id="Rectangle 32" filter="url(#filter12_d_13_52)">
<rect x="738" y="311" width="163" height="44" fill="#D9D9D9"/>
</g>
<g id="205a" filter="url(#filter13_d_13_52)">
<rect x="712" y="160" width="128" height="102" fill="#D9D9D9"/>
</g>
<g id="206a" filter="url(#filter14_d_13_52)">
<rect x="842" y="160" width="120" height="102" fill="#D9D9D9"/>
</g>
<g id="207a" filter="url(#filter15_d_13_52)">
<rect x="965" y="160" width="126" height="102" fill="#D9D9D9"/>
</g>
<g id="wc-a7" filter="url(#filter16_d_13_52)">
<rect x="1093" y="160" width="45" height="70" fill="#D9D9D9"/>
</g>
<path id="208&#208;&#176;" d="M107.886 647V643.455L116.17 635.784C116.875 635.102 117.466 634.489 117.943 633.943C118.428 633.398 118.795 632.864 119.045 632.341C119.295 631.811 119.42 631.239 119.42 630.625C119.42 629.943 119.265 629.356 118.955 628.864C118.644 628.364 118.22 627.981 117.682 627.716C117.144 627.443 116.534 627.307 115.852 627.307C115.14 627.307 114.519 627.451 113.989 627.739C113.458 628.027 113.049 628.439 112.761 628.977C112.473 629.515 112.33 630.155 112.33 630.898H107.659C107.659 629.375 108.004 628.053 108.693 626.932C109.383 625.811 110.348 624.943 111.591 624.33C112.833 623.716 114.265 623.409 115.886 623.409C117.553 623.409 119.004 623.705 120.239 624.295C121.481 624.879 122.447 625.689 123.136 626.727C123.826 627.765 124.17 628.955 124.17 630.295C124.17 631.174 123.996 632.042 123.648 632.898C123.307 633.754 122.697 634.705 121.818 635.75C120.939 636.788 119.701 638.034 118.102 639.489L114.705 642.818V642.977H124.477V647H107.886ZM137.168 647.511C135.213 647.504 133.531 647.023 132.122 646.068C130.721 645.114 129.641 643.731 128.884 641.92C128.134 640.11 127.762 637.932 127.77 635.386C127.77 632.848 128.145 630.686 128.895 628.898C129.652 627.11 130.732 625.75 132.134 624.818C133.543 623.879 135.221 623.409 137.168 623.409C139.115 623.409 140.789 623.879 142.19 624.818C143.599 625.758 144.683 627.121 145.44 628.909C146.198 630.689 146.573 632.848 146.565 635.386C146.565 637.939 146.187 640.121 145.429 641.932C144.679 643.742 143.603 645.125 142.202 646.08C140.8 647.034 139.122 647.511 137.168 647.511ZM137.168 643.432C138.501 643.432 139.565 642.761 140.361 641.42C141.156 640.08 141.55 638.068 141.543 635.386C141.543 633.621 141.361 632.152 140.997 630.977C140.641 629.803 140.134 628.92 139.474 628.33C138.823 627.739 138.054 627.443 137.168 627.443C135.842 627.443 134.781 628.106 133.986 629.432C133.19 630.758 132.789 632.742 132.781 635.386C132.781 637.174 132.959 638.667 133.315 639.864C133.679 641.053 134.19 641.947 134.849 642.545C135.509 643.136 136.281 643.432 137.168 643.432ZM158.756 647.318C157.006 647.318 155.449 647.034 154.085 646.466C152.729 645.89 151.665 645.106 150.892 644.114C150.119 643.121 149.733 641.996 149.733 640.739C149.733 639.769 149.953 638.879 150.392 638.068C150.839 637.25 151.445 636.572 152.21 636.034C152.975 635.489 153.831 635.14 154.778 634.989V634.83C153.536 634.58 152.528 633.977 151.756 633.023C150.983 632.061 150.597 630.943 150.597 629.67C150.597 628.466 150.949 627.394 151.653 626.455C152.358 625.508 153.324 624.765 154.551 624.227C155.786 623.682 157.188 623.409 158.756 623.409C160.324 623.409 161.722 623.682 162.949 624.227C164.184 624.773 165.153 625.519 165.858 626.466C166.563 627.405 166.919 628.473 166.926 629.67C166.919 630.951 166.525 632.068 165.744 633.023C164.964 633.977 163.964 634.58 162.744 634.83V634.989C163.676 635.14 164.521 635.489 165.278 636.034C166.044 636.572 166.65 637.25 167.097 638.068C167.551 638.879 167.782 639.769 167.79 640.739C167.782 641.996 167.392 643.121 166.619 644.114C165.847 645.106 164.778 645.89 163.415 646.466C162.059 647.034 160.506 647.318 158.756 647.318ZM158.756 643.705C159.536 643.705 160.218 643.564 160.801 643.284C161.384 642.996 161.839 642.602 162.165 642.102C162.498 641.595 162.665 641.011 162.665 640.352C162.665 639.678 162.494 639.083 162.153 638.568C161.813 638.045 161.35 637.636 160.767 637.341C160.184 637.038 159.513 636.886 158.756 636.886C158.006 636.886 157.335 637.038 156.744 637.341C156.153 637.636 155.688 638.045 155.347 638.568C155.013 639.083 154.847 639.678 154.847 640.352C154.847 641.011 155.009 641.595 155.335 642.102C155.661 642.602 156.119 642.996 156.71 643.284C157.301 643.564 157.983 643.705 158.756 643.705ZM158.756 633.307C159.407 633.307 159.987 633.174 160.494 632.909C161.002 632.644 161.4 632.277 161.688 631.807C161.975 631.337 162.119 630.795 162.119 630.182C162.119 629.576 161.975 629.045 161.688 628.591C161.4 628.129 161.006 627.769 160.506 627.511C160.006 627.246 159.422 627.114 158.756 627.114C158.097 627.114 157.513 627.246 157.006 627.511C156.498 627.769 156.1 628.129 155.812 628.591C155.532 629.045 155.392 629.576 155.392 630.182C155.392 630.795 155.536 631.337 155.824 631.807C156.112 632.277 156.509 632.644 157.017 632.909C157.525 633.174 158.104 633.307 158.756 633.307ZM176.253 647.33C175.139 647.33 174.147 647.136 173.276 646.75C172.404 646.356 171.715 645.777 171.207 645.011C170.707 644.239 170.457 643.277 170.457 642.125C170.457 641.155 170.635 640.341 170.991 639.682C171.348 639.023 171.832 638.492 172.446 638.091C173.06 637.689 173.757 637.386 174.537 637.182C175.325 636.977 176.151 636.833 177.014 636.75C178.029 636.644 178.848 636.545 179.469 636.455C180.09 636.356 180.541 636.212 180.821 636.023C181.101 635.833 181.241 635.553 181.241 635.182V635.114C181.241 634.394 181.014 633.837 180.56 633.443C180.113 633.049 179.476 632.852 178.651 632.852C177.779 632.852 177.086 633.045 176.571 633.432C176.056 633.811 175.715 634.288 175.548 634.864L171.071 634.5C171.298 633.439 171.745 632.523 172.412 631.75C173.079 630.97 173.938 630.371 174.991 629.955C176.052 629.53 177.279 629.318 178.673 629.318C179.643 629.318 180.571 629.432 181.457 629.659C182.351 629.886 183.143 630.239 183.832 630.716C184.529 631.193 185.079 631.807 185.48 632.557C185.882 633.299 186.082 634.189 186.082 635.227V647H181.491V644.58H181.355C181.075 645.125 180.7 645.606 180.23 646.023C179.76 646.432 179.196 646.754 178.537 646.989C177.878 647.216 177.116 647.33 176.253 647.33ZM177.639 643.989C178.351 643.989 178.98 643.848 179.526 643.568C180.071 643.28 180.499 642.894 180.81 642.409C181.12 641.924 181.276 641.375 181.276 640.761V638.909C181.124 639.008 180.916 639.098 180.651 639.182C180.393 639.258 180.101 639.33 179.776 639.398C179.45 639.458 179.124 639.515 178.798 639.568C178.473 639.614 178.177 639.655 177.912 639.693C177.344 639.777 176.848 639.909 176.423 640.091C175.999 640.273 175.67 640.519 175.435 640.83C175.2 641.133 175.082 641.511 175.082 641.966C175.082 642.625 175.321 643.129 175.798 643.477C176.283 643.818 176.897 643.989 177.639 643.989Z" fill="#7E7E7E"/>
<path id="&#208;&#151;&#208;&#144;&#208;&#155; &#208;&#165;&#208;&#158;&#208;&#160;&#208;&#149;&#208;&#158;&#208;&#147;&#208;&#160;&#208;&#144;&#208;&#164;&#208;&#152;&#208;&#152;" d="M277.489 398.318C275.792 398.318 274.28 398.027 272.955 397.443C271.636 396.852 270.595 396.042 269.83 395.011C269.072 393.973 268.682 392.777 268.659 391.42H273.614C273.644 391.989 273.83 392.489 274.17 392.92C274.519 393.345 274.981 393.674 275.557 393.909C276.133 394.144 276.78 394.261 277.5 394.261C278.25 394.261 278.913 394.129 279.489 393.864C280.064 393.598 280.515 393.231 280.841 392.761C281.167 392.292 281.33 391.75 281.33 391.136C281.33 390.515 281.155 389.966 280.807 389.489C280.466 389.004 279.973 388.625 279.33 388.352C278.693 388.08 277.936 387.943 277.057 387.943H274.886V384.33H277.057C277.799 384.33 278.455 384.201 279.023 383.943C279.598 383.686 280.045 383.33 280.364 382.875C280.682 382.413 280.841 381.875 280.841 381.261C280.841 380.678 280.701 380.167 280.42 379.727C280.148 379.28 279.761 378.932 279.261 378.682C278.769 378.432 278.193 378.307 277.534 378.307C276.867 378.307 276.258 378.428 275.705 378.67C275.152 378.905 274.708 379.242 274.375 379.682C274.042 380.121 273.864 380.636 273.841 381.227H269.125C269.148 379.886 269.53 378.705 270.273 377.682C271.015 376.659 272.015 375.86 273.273 375.284C274.538 374.701 275.966 374.409 277.557 374.409C279.163 374.409 280.568 374.701 281.773 375.284C282.977 375.867 283.913 376.655 284.58 377.648C285.254 378.633 285.587 379.739 285.58 380.966C285.587 382.269 285.182 383.356 284.364 384.227C283.553 385.098 282.496 385.652 281.193 385.886V386.068C282.905 386.288 284.208 386.883 285.102 387.852C286.004 388.814 286.451 390.019 286.443 391.466C286.451 392.792 286.068 393.97 285.295 395C284.53 396.03 283.473 396.841 282.125 397.432C280.777 398.023 279.231 398.318 277.489 398.318ZM294.128 398H288.855L296.889 374.727H303.23L311.253 398H305.98L300.151 380.045H299.969L294.128 398ZM293.798 388.852H306.253V392.693H293.798V388.852ZM312.793 398V394.045L313.452 393.989C314.3 393.92 314.986 393.598 315.509 393.023C316.031 392.439 316.421 391.511 316.679 390.239C316.944 388.958 317.115 387.239 317.19 385.08L317.577 374.727H333.372V398H328.588V378.67H322.145L321.781 386.773C321.66 389.379 321.349 391.508 320.849 393.159C320.357 394.811 319.569 396.03 318.486 396.818C317.41 397.606 315.937 398 314.065 398H312.793ZM273.636 413.727L278.33 421.659H278.511L283.227 413.727H288.784L281.682 425.364L288.943 437H283.284L278.511 429.057H278.33L273.557 437H267.92L275.205 425.364L268.057 413.727H273.636ZM312.19 425.364C312.19 427.902 311.709 430.061 310.747 431.841C309.793 433.621 308.49 434.981 306.838 435.92C305.194 436.852 303.346 437.318 301.293 437.318C299.224 437.318 297.368 436.848 295.724 435.909C294.08 434.97 292.781 433.61 291.827 431.83C290.872 430.049 290.395 427.894 290.395 425.364C290.395 422.826 290.872 420.667 291.827 418.886C292.781 417.106 294.08 415.75 295.724 414.818C297.368 413.879 299.224 413.409 301.293 413.409C303.346 413.409 305.194 413.879 306.838 414.818C308.49 415.75 309.793 417.106 310.747 418.886C311.709 420.667 312.19 422.826 312.19 425.364ZM307.202 425.364C307.202 423.72 306.955 422.333 306.463 421.205C305.978 420.076 305.293 419.22 304.406 418.636C303.52 418.053 302.482 417.761 301.293 417.761C300.103 417.761 299.065 418.053 298.179 418.636C297.293 419.22 296.603 420.076 296.111 421.205C295.626 422.333 295.384 423.72 295.384 425.364C295.384 427.008 295.626 428.394 296.111 429.523C296.603 430.652 297.293 431.508 298.179 432.091C299.065 432.674 300.103 432.966 301.293 432.966C302.482 432.966 303.52 432.674 304.406 432.091C305.293 431.508 305.978 430.652 306.463 429.523C306.955 428.394 307.202 427.008 307.202 425.364ZM315.835 437V413.727H325.017C326.782 413.727 328.286 414.064 329.528 414.739C330.771 415.405 331.718 416.333 332.369 417.523C333.028 418.705 333.358 420.068 333.358 421.614C333.358 423.159 333.025 424.523 332.358 425.705C331.691 426.886 330.725 427.807 329.46 428.466C328.203 429.125 326.68 429.455 324.892 429.455H319.04V425.511H324.097C325.044 425.511 325.824 425.348 326.438 425.023C327.059 424.689 327.521 424.231 327.824 423.648C328.134 423.057 328.29 422.379 328.29 421.614C328.29 420.841 328.134 420.167 327.824 419.591C327.521 419.008 327.059 418.557 326.438 418.239C325.816 417.913 325.028 417.75 324.074 417.75H320.756V437H315.835ZM336.554 437V413.727H352.236V417.784H341.474V423.33H351.429V427.386H341.474V432.943H352.281V437H336.554ZM377.534 425.364C377.534 427.902 377.053 430.061 376.091 431.841C375.136 433.621 373.833 434.981 372.182 435.92C370.538 436.852 368.689 437.318 366.636 437.318C364.568 437.318 362.712 436.848 361.068 435.909C359.424 434.97 358.125 433.61 357.17 431.83C356.216 430.049 355.739 427.894 355.739 425.364C355.739 422.826 356.216 420.667 357.17 418.886C358.125 417.106 359.424 415.75 361.068 414.818C362.712 413.879 364.568 413.409 366.636 413.409C368.689 413.409 370.538 413.879 372.182 414.818C373.833 415.75 375.136 417.106 376.091 418.886C377.053 420.667 377.534 422.826 377.534 425.364ZM372.545 425.364C372.545 423.72 372.299 422.333 371.807 421.205C371.322 420.076 370.636 419.22 369.75 418.636C368.864 418.053 367.826 417.761 366.636 417.761C365.447 417.761 364.409 418.053 363.523 418.636C362.636 419.22 361.947 420.076 361.455 421.205C360.97 422.333 360.727 423.72 360.727 425.364C360.727 427.008 360.97 428.394 361.455 429.523C361.947 430.652 362.636 431.508 363.523 432.091C364.409 432.674 365.447 432.966 366.636 432.966C367.826 432.966 368.864 432.674 369.75 432.091C370.636 431.508 371.322 430.652 371.807 429.523C372.299 428.394 372.545 427.008 372.545 425.364ZM396.622 413.727V417.784H386.099V437H381.179V413.727H396.622ZM399.773 437V413.727H408.955C410.72 413.727 412.223 414.064 413.466 414.739C414.708 415.405 415.655 416.333 416.307 417.523C416.966 418.705 417.295 420.068 417.295 421.614C417.295 423.159 416.962 424.523 416.295 425.705C415.629 426.886 414.663 427.807 413.398 428.466C412.14 429.125 410.617 429.455 408.83 429.455H402.977V425.511H408.034C408.981 425.511 409.761 425.348 410.375 425.023C410.996 424.689 411.458 424.231 411.761 423.648C412.072 423.057 412.227 422.379 412.227 421.614C412.227 420.841 412.072 420.167 411.761 419.591C411.458 419.008 410.996 418.557 410.375 418.239C409.754 417.913 408.966 417.75 408.011 417.75H404.693V437H399.773ZM421.815 437H416.543L424.577 413.727H430.918L438.94 437H433.668L427.838 419.045H427.656L421.815 437ZM421.486 427.852H433.94V431.693H421.486V427.852ZM278.227 455.227H283.432C285.295 455.227 286.947 455.621 288.386 456.409C289.833 457.197 290.966 458.307 291.784 459.739C292.61 461.163 293.023 462.837 293.023 464.761C293.023 466.625 292.61 468.25 291.784 469.636C290.966 471.023 289.833 472.102 288.386 472.875C286.947 473.64 285.295 474.023 283.432 474.023H278.227C276.356 474.023 274.697 473.644 273.25 472.886C271.803 472.121 270.667 471.045 269.841 469.659C269.023 468.273 268.614 466.636 268.614 464.75C268.614 462.826 269.027 461.152 269.852 459.727C270.686 458.295 271.826 457.189 273.273 456.409C274.72 455.621 276.371 455.227 278.227 455.227ZM278.227 459.341C277.227 459.341 276.345 459.542 275.58 459.943C274.822 460.337 274.231 460.936 273.807 461.739C273.383 462.542 273.17 463.545 273.17 464.75C273.17 465.902 273.386 466.86 273.818 467.625C274.258 468.39 274.856 468.962 275.614 469.341C276.371 469.72 277.242 469.909 278.227 469.909H283.466C284.458 469.909 285.326 469.716 286.068 469.33C286.818 468.943 287.398 468.367 287.807 467.602C288.223 466.837 288.432 465.89 288.432 464.761C288.432 463.557 288.223 462.553 287.807 461.75C287.398 460.947 286.818 460.345 286.068 459.943C285.326 459.542 284.458 459.341 283.466 459.341H278.227ZM283.159 452.318V476.955H278.489V452.318H283.159ZM296.648 452.727H301.557V467.364H301.75L311.807 452.727H316.114V476H311.193V461.352H311.023L300.909 476H296.648V452.727ZM320.179 452.727H325.088V467.364H325.281L335.338 452.727H339.645V476H334.724V461.352H334.554L324.44 476H320.179V452.727Z" fill="#7E7E7E"/>
<path id="&#208;&#144;&#208;&#154;&#208;&#162;&#208;&#158;&#208;&#146;&#208;&#171;&#208;&#153; &#208;&#151;&#208;&#144;&#208;&#155;" d="M482.034 398H476.761L484.795 374.727H491.136L499.159 398H493.886L488.057 380.045H487.875L482.034 398ZM481.705 388.852H494.159V392.693H481.705V388.852ZM516.04 398L508.562 388.08H506.881V398H501.96V374.727H506.881V384.023H507.869L515.597 374.727H521.722L512.642 385.523L522.142 398H516.04ZM523.73 378.784V374.727H542.844V378.784H535.719V398H530.855V378.784H523.73ZM566.315 386.364C566.315 388.902 565.834 391.061 564.872 392.841C563.918 394.621 562.615 395.981 560.963 396.92C559.319 397.852 557.471 398.318 555.418 398.318C553.349 398.318 551.493 397.848 549.849 396.909C548.205 395.97 546.906 394.61 545.952 392.83C544.997 391.049 544.52 388.894 544.52 386.364C544.52 383.826 544.997 381.667 545.952 379.886C546.906 378.106 548.205 376.75 549.849 375.818C551.493 374.879 553.349 374.409 555.418 374.409C557.471 374.409 559.319 374.879 560.963 375.818C562.615 376.75 563.918 378.106 564.872 379.886C565.834 381.667 566.315 383.826 566.315 386.364ZM561.327 386.364C561.327 384.72 561.08 383.333 560.588 382.205C560.103 381.076 559.418 380.22 558.531 379.636C557.645 379.053 556.607 378.761 555.418 378.761C554.228 378.761 553.19 379.053 552.304 379.636C551.418 380.22 550.728 381.076 550.236 382.205C549.751 383.333 549.509 384.72 549.509 386.364C549.509 388.008 549.751 389.394 550.236 390.523C550.728 391.652 551.418 392.508 552.304 393.091C553.19 393.674 554.228 393.966 555.418 393.966C556.607 393.966 557.645 393.674 558.531 393.091C559.418 392.508 560.103 391.652 560.588 390.523C561.08 389.394 561.327 388.008 561.327 386.364ZM569.96 398V374.727H579.278C580.991 374.727 582.419 374.981 583.562 375.489C584.706 375.996 585.566 376.701 586.142 377.602C586.718 378.496 587.006 379.527 587.006 380.693C587.006 381.602 586.824 382.402 586.46 383.091C586.097 383.773 585.597 384.333 584.96 384.773C584.331 385.205 583.612 385.511 582.801 385.693V385.92C583.688 385.958 584.517 386.208 585.29 386.67C586.07 387.133 586.703 387.78 587.188 388.614C587.672 389.439 587.915 390.424 587.915 391.568C587.915 392.803 587.608 393.905 586.994 394.875C586.388 395.837 585.491 396.598 584.301 397.159C583.112 397.72 581.646 398 579.903 398H569.96ZM574.881 393.977H578.892C580.263 393.977 581.263 393.716 581.892 393.193C582.521 392.663 582.835 391.958 582.835 391.08C582.835 390.436 582.68 389.867 582.369 389.375C582.059 388.883 581.616 388.496 581.04 388.216C580.472 387.936 579.794 387.795 579.006 387.795H574.881V393.977ZM574.881 384.466H578.528C579.203 384.466 579.801 384.348 580.324 384.114C580.854 383.871 581.271 383.53 581.574 383.091C581.884 382.652 582.04 382.125 582.04 381.511C582.04 380.67 581.741 379.992 581.142 379.477C580.551 378.962 579.71 378.705 578.619 378.705H574.881V384.466ZM594.355 383.33H599.901C601.749 383.33 603.34 383.629 604.673 384.227C606.014 384.818 607.048 385.655 607.776 386.739C608.503 387.822 608.863 389.098 608.855 390.568C608.863 392.03 608.503 393.322 607.776 394.443C607.048 395.557 606.014 396.428 604.673 397.057C603.34 397.686 601.749 398 599.901 398H591.207V374.727H596.116V394.045H599.901C600.787 394.045 601.533 393.886 602.139 393.568C602.745 393.242 603.204 392.814 603.514 392.284C603.832 391.746 603.988 391.159 603.98 390.523C603.988 389.598 603.639 388.818 602.935 388.182C602.238 387.538 601.226 387.216 599.901 387.216H594.355V383.33ZM615.662 374.727V398H610.753V374.727H615.662ZM619.71 374.727H624.619V389.364H624.812L634.869 374.727H639.176V398H634.256V383.352H634.085L623.972 398H619.71V374.727ZM631.71 368.636H635.085C635.078 370.015 634.566 371.125 633.551 371.966C632.544 372.807 631.18 373.227 629.46 373.227C627.733 373.227 626.366 372.807 625.358 371.966C624.35 371.125 623.847 370.015 623.847 368.636H627.199C627.191 369.159 627.358 369.629 627.699 370.045C628.047 370.462 628.634 370.67 629.46 370.67C630.263 370.67 630.839 370.466 631.188 370.057C631.536 369.648 631.71 369.174 631.71 368.636ZM486.489 437.318C484.792 437.318 483.28 437.027 481.955 436.443C480.636 435.852 479.595 435.042 478.83 434.011C478.072 432.973 477.682 431.777 477.659 430.42H482.614C482.644 430.989 482.83 431.489 483.17 431.92C483.519 432.345 483.981 432.674 484.557 432.909C485.133 433.144 485.78 433.261 486.5 433.261C487.25 433.261 487.913 433.129 488.489 432.864C489.064 432.598 489.515 432.231 489.841 431.761C490.167 431.292 490.33 430.75 490.33 430.136C490.33 429.515 490.155 428.966 489.807 428.489C489.466 428.004 488.973 427.625 488.33 427.352C487.693 427.08 486.936 426.943 486.057 426.943H483.886V423.33H486.057C486.799 423.33 487.455 423.201 488.023 422.943C488.598 422.686 489.045 422.33 489.364 421.875C489.682 421.413 489.841 420.875 489.841 420.261C489.841 419.678 489.701 419.167 489.42 418.727C489.148 418.28 488.761 417.932 488.261 417.682C487.769 417.432 487.193 417.307 486.534 417.307C485.867 417.307 485.258 417.428 484.705 417.67C484.152 417.905 483.708 418.242 483.375 418.682C483.042 419.121 482.864 419.636 482.841 420.227H478.125C478.148 418.886 478.53 417.705 479.273 416.682C480.015 415.659 481.015 414.86 482.273 414.284C483.538 413.701 484.966 413.409 486.557 413.409C488.163 413.409 489.568 413.701 490.773 414.284C491.977 414.867 492.913 415.655 493.58 416.648C494.254 417.633 494.587 418.739 494.58 419.966C494.587 421.269 494.182 422.356 493.364 423.227C492.553 424.098 491.496 424.652 490.193 424.886V425.068C491.905 425.288 493.208 425.883 494.102 426.852C495.004 427.814 495.451 429.019 495.443 430.466C495.451 431.792 495.068 432.97 494.295 434C493.53 435.03 492.473 435.841 491.125 436.432C489.777 437.023 488.231 437.318 486.489 437.318ZM503.128 437H497.855L505.889 413.727H512.23L520.253 437H514.98L509.151 419.045H508.969L503.128 437ZM502.798 427.852H515.253V431.693H502.798V427.852ZM521.793 437V433.045L522.452 432.989C523.3 432.92 523.986 432.598 524.509 432.023C525.031 431.439 525.421 430.511 525.679 429.239C525.944 427.958 526.115 426.239 526.19 424.08L526.577 413.727H542.372V437H537.588V417.67H531.145L530.781 425.773C530.66 428.379 530.349 430.508 529.849 432.159C529.357 433.811 528.569 435.03 527.486 435.818C526.41 436.606 524.937 437 523.065 437H521.793Z" fill="#7E7E7E"/>
<path id="&#208;&#156;&#208;&#163;&#208;&#151;&#208;&#149;&#208;&#153;" d="M660.023 369.727H666.091L672.5 385.364H672.773L679.182 369.727H685.25V393H680.477V377.852H680.284L674.261 392.886H671.011L664.989 377.795H664.795V393H660.023V369.727ZM662.534 432.318V428.318H663.795C664.424 428.318 664.932 428.242 665.318 428.091C665.705 427.932 666.011 427.701 666.239 427.398C666.473 427.087 666.67 426.701 666.83 426.239L667.114 425.477L658.659 408.727H663.75L669.227 420.182L673.807 408.727H678.83L670.807 427.432C670.42 428.295 669.962 429.098 669.432 429.841C668.909 430.583 668.239 431.182 667.42 431.636C666.602 432.091 665.557 432.318 664.284 432.318H662.534ZM668.489 471.318C666.792 471.318 665.28 471.027 663.955 470.443C662.636 469.852 661.595 469.042 660.83 468.011C660.072 466.973 659.682 465.777 659.659 464.42H664.614C664.644 464.989 664.83 465.489 665.17 465.92C665.519 466.345 665.981 466.674 666.557 466.909C667.133 467.144 667.78 467.261 668.5 467.261C669.25 467.261 669.913 467.129 670.489 466.864C671.064 466.598 671.515 466.231 671.841 465.761C672.167 465.292 672.33 464.75 672.33 464.136C672.33 463.515 672.155 462.966 671.807 462.489C671.466 462.004 670.973 461.625 670.33 461.352C669.693 461.08 668.936 460.943 668.057 460.943H665.886V457.33H668.057C668.799 457.33 669.455 457.201 670.023 456.943C670.598 456.686 671.045 456.33 671.364 455.875C671.682 455.413 671.841 454.875 671.841 454.261C671.841 453.678 671.701 453.167 671.42 452.727C671.148 452.28 670.761 451.932 670.261 451.682C669.769 451.432 669.193 451.307 668.534 451.307C667.867 451.307 667.258 451.428 666.705 451.67C666.152 451.905 665.708 452.242 665.375 452.682C665.042 453.121 664.864 453.636 664.841 454.227H660.125C660.148 452.886 660.53 451.705 661.273 450.682C662.015 449.659 663.015 448.86 664.273 448.284C665.538 447.701 666.966 447.409 668.557 447.409C670.163 447.409 671.568 447.701 672.773 448.284C673.977 448.867 674.913 449.655 675.58 450.648C676.254 451.633 676.587 452.739 676.58 453.966C676.587 455.269 676.182 456.356 675.364 457.227C674.553 458.098 673.496 458.652 672.193 458.886V459.068C673.905 459.288 675.208 459.883 676.102 460.852C677.004 461.814 677.451 463.019 677.443 464.466C677.451 465.792 677.068 466.97 676.295 468C675.53 469.03 674.473 469.841 673.125 470.432C671.777 471.023 670.231 471.318 668.489 471.318ZM660.023 510V486.727H675.705V490.784H664.943V496.33H674.898V500.386H664.943V505.943H675.75V510H660.023ZM660.023 525.727H664.932V540.364H665.125L675.182 525.727H679.489V549H674.568V534.352H674.398L664.284 549H660.023V525.727ZM672.023 519.636H675.398C675.39 521.015 674.879 522.125 673.864 522.966C672.856 523.807 671.492 524.227 669.773 524.227C668.045 524.227 666.678 523.807 665.67 522.966C664.663 522.125 664.159 521.015 664.159 519.636H667.511C667.504 520.159 667.67 520.629 668.011 521.045C668.36 521.462 668.947 521.67 669.773 521.67C670.576 521.67 671.152 521.466 671.5 521.057C671.848 520.648 672.023 520.174 672.023 519.636Z" fill="#7E7E7E"/>
<path id="&#208;&#155;&#208;&#144;&#208;&#145;&#208;&#144;&#208;&#160;&#208;&#144;&#208;&#162;&#208;&#158;&#208;&#160;&#208;&#152;&#208;&#175;" d="M723.761 414V410.045L724.42 409.989C725.269 409.92 725.955 409.598 726.477 409.023C727 408.439 727.39 407.511 727.648 406.239C727.913 404.958 728.083 403.239 728.159 401.08L728.545 390.727H744.341V414H739.557V394.67H733.114L732.75 402.773C732.629 405.379 732.318 407.508 731.818 409.159C731.326 410.811 730.538 412.03 729.455 412.818C728.379 413.606 726.905 414 725.034 414H723.761ZM752.409 414H747.136L755.17 390.727H761.511L769.534 414H764.261L758.432 396.045H758.25L752.409 414ZM752.08 404.852H764.534V408.693H752.08V404.852ZM772.335 414V390.727H787.778V394.784H777.256V399.33H781.04C782.881 399.33 784.468 399.629 785.801 400.227C787.142 400.818 788.176 401.655 788.903 402.739C789.631 403.822 789.994 405.098 789.994 406.568C789.994 408.03 789.631 409.322 788.903 410.443C788.176 411.557 787.142 412.428 785.801 413.057C784.468 413.686 782.881 414 781.04 414H772.335ZM777.256 410.045H781.04C781.919 410.045 782.661 409.886 783.267 409.568C783.873 409.242 784.331 408.814 784.642 408.284C784.96 407.746 785.119 407.159 785.119 406.523C785.119 405.598 784.767 404.818 784.062 404.182C783.366 403.538 782.358 403.216 781.04 403.216H777.256V410.045ZM797.19 414H791.918L799.952 390.727H806.293L814.315 414H809.043L803.213 396.045H803.031L797.19 414ZM796.861 404.852H809.315V408.693H796.861V404.852ZM817.116 414V390.727H826.298C828.063 390.727 829.567 391.064 830.81 391.739C832.052 392.405 832.999 393.333 833.651 394.523C834.31 395.705 834.639 397.068 834.639 398.614C834.639 400.159 834.306 401.523 833.639 402.705C832.973 403.886 832.007 404.807 830.741 405.466C829.484 406.125 827.961 406.455 826.173 406.455H820.321V402.511H825.378C826.325 402.511 827.105 402.348 827.719 402.023C828.34 401.689 828.802 401.231 829.105 400.648C829.416 400.057 829.571 399.379 829.571 398.614C829.571 397.841 829.416 397.167 829.105 396.591C828.802 396.008 828.34 395.557 827.719 395.239C827.098 394.913 826.31 394.75 825.355 394.75H822.037V414H817.116ZM839.159 414H833.886L841.92 390.727H848.261L856.284 414H851.011L845.182 396.045H845L839.159 414ZM838.83 404.852H851.284V408.693H838.83V404.852ZM855.355 394.784V390.727H874.469V394.784H867.344V414H862.48V394.784H855.355ZM897.94 402.364C897.94 404.902 897.459 407.061 896.497 408.841C895.543 410.621 894.24 411.981 892.588 412.92C890.944 413.852 889.096 414.318 887.043 414.318C884.974 414.318 883.118 413.848 881.474 412.909C879.83 411.97 878.531 410.61 877.577 408.83C876.622 407.049 876.145 404.894 876.145 402.364C876.145 399.826 876.622 397.667 877.577 395.886C878.531 394.106 879.83 392.75 881.474 391.818C883.118 390.879 884.974 390.409 887.043 390.409C889.096 390.409 890.944 390.879 892.588 391.818C894.24 392.75 895.543 394.106 896.497 395.886C897.459 397.667 897.94 399.826 897.94 402.364ZM892.952 402.364C892.952 400.72 892.705 399.333 892.213 398.205C891.728 397.076 891.043 396.22 890.156 395.636C889.27 395.053 888.232 394.761 887.043 394.761C885.853 394.761 884.815 395.053 883.929 395.636C883.043 396.22 882.353 397.076 881.861 398.205C881.376 399.333 881.134 400.72 881.134 402.364C881.134 404.008 881.376 405.394 881.861 406.523C882.353 407.652 883.043 408.508 883.929 409.091C884.815 409.674 885.853 409.966 887.043 409.966C888.232 409.966 889.27 409.674 890.156 409.091C891.043 408.508 891.728 407.652 892.213 406.523C892.705 405.394 892.952 404.008 892.952 402.364ZM725.023 453V429.727H734.205C735.97 429.727 737.473 430.064 738.716 430.739C739.958 431.405 740.905 432.333 741.557 433.523C742.216 434.705 742.545 436.068 742.545 437.614C742.545 439.159 742.212 440.523 741.545 441.705C740.879 442.886 739.913 443.807 738.648 444.466C737.39 445.125 735.867 445.455 734.08 445.455H728.227V441.511H733.284C734.231 441.511 735.011 441.348 735.625 441.023C736.246 440.689 736.708 440.231 737.011 439.648C737.322 439.057 737.477 438.379 737.477 437.614C737.477 436.841 737.322 436.167 737.011 435.591C736.708 435.008 736.246 434.557 735.625 434.239C735.004 433.913 734.216 433.75 733.261 433.75H729.943V453H725.023ZM745.741 429.727H750.651V444.364H750.844L760.901 429.727H765.207V453H760.287V438.352H760.116L750.003 453H745.741V429.727ZM787.136 453H782.227V433.75H778.909C777.962 433.75 777.174 433.89 776.545 434.17C775.924 434.443 775.458 434.845 775.148 435.375C774.837 435.905 774.682 436.557 774.682 437.33C774.682 438.095 774.837 438.735 775.148 439.25C775.458 439.765 775.924 440.152 776.545 440.409C777.167 440.667 777.947 440.795 778.886 440.795H784.227V444.75H778.091C776.311 444.75 774.788 444.455 773.523 443.864C772.258 443.273 771.292 442.424 770.625 441.318C769.958 440.205 769.625 438.875 769.625 437.33C769.625 435.792 769.951 434.455 770.602 433.318C771.261 432.174 772.212 431.292 773.455 430.67C774.705 430.042 776.208 429.727 777.966 429.727H787.136V453ZM774.58 442.409H779.886L774.227 453H768.795L774.58 442.409Z" fill="#7E7E7E"/>
<path id="201&#208;&#176;" d="M163.886 221V217.455L172.17 209.784C172.875 209.102 173.466 208.489 173.943 207.943C174.428 207.398 174.795 206.864 175.045 206.341C175.295 205.811 175.42 205.239 175.42 204.625C175.42 203.943 175.265 203.356 174.955 202.864C174.644 202.364 174.22 201.981 173.682 201.716C173.144 201.443 172.534 201.307 171.852 201.307C171.14 201.307 170.519 201.451 169.989 201.739C169.458 202.027 169.049 202.439 168.761 202.977C168.473 203.515 168.33 204.155 168.33 204.898H163.659C163.659 203.375 164.004 202.053 164.693 200.932C165.383 199.811 166.348 198.943 167.591 198.33C168.833 197.716 170.265 197.409 171.886 197.409C173.553 197.409 175.004 197.705 176.239 198.295C177.481 198.879 178.447 199.689 179.136 200.727C179.826 201.765 180.17 202.955 180.17 204.295C180.17 205.174 179.996 206.042 179.648 206.898C179.307 207.754 178.697 208.705 177.818 209.75C176.939 210.788 175.701 212.034 174.102 213.489L170.705 216.818V216.977H180.477V221H163.886ZM193.168 221.511C191.213 221.504 189.531 221.023 188.122 220.068C186.721 219.114 185.641 217.731 184.884 215.92C184.134 214.11 183.762 211.932 183.77 209.386C183.77 206.848 184.145 204.686 184.895 202.898C185.652 201.11 186.732 199.75 188.134 198.818C189.543 197.879 191.221 197.409 193.168 197.409C195.115 197.409 196.789 197.879 198.19 198.818C199.599 199.758 200.683 201.121 201.44 202.909C202.198 204.689 202.573 206.848 202.565 209.386C202.565 211.939 202.187 214.121 201.429 215.932C200.679 217.742 199.603 219.125 198.202 220.08C196.8 221.034 195.122 221.511 193.168 221.511ZM193.168 217.432C194.501 217.432 195.565 216.761 196.361 215.42C197.156 214.08 197.55 212.068 197.543 209.386C197.543 207.621 197.361 206.152 196.997 204.977C196.641 203.803 196.134 202.92 195.474 202.33C194.823 201.739 194.054 201.443 193.168 201.443C191.842 201.443 190.781 202.106 189.986 203.432C189.19 204.758 188.789 206.742 188.781 209.386C188.781 211.174 188.959 212.667 189.315 213.864C189.679 215.053 190.19 215.947 190.849 216.545C191.509 217.136 192.281 217.432 193.168 217.432ZM216.199 197.727V221H211.278V202.398H211.142L205.812 205.739V201.375L211.574 197.727H216.199ZM226.753 221.33C225.639 221.33 224.647 221.136 223.776 220.75C222.904 220.356 222.215 219.777 221.707 219.011C221.207 218.239 220.957 217.277 220.957 216.125C220.957 215.155 221.135 214.341 221.491 213.682C221.848 213.023 222.332 212.492 222.946 212.091C223.56 211.689 224.257 211.386 225.037 211.182C225.825 210.977 226.651 210.833 227.514 210.75C228.529 210.644 229.348 210.545 229.969 210.455C230.59 210.356 231.041 210.212 231.321 210.023C231.601 209.833 231.741 209.553 231.741 209.182V209.114C231.741 208.394 231.514 207.837 231.06 207.443C230.613 207.049 229.976 206.852 229.151 206.852C228.279 206.852 227.586 207.045 227.071 207.432C226.556 207.811 226.215 208.288 226.048 208.864L221.571 208.5C221.798 207.439 222.245 206.523 222.912 205.75C223.579 204.97 224.438 204.371 225.491 203.955C226.552 203.53 227.779 203.318 229.173 203.318C230.143 203.318 231.071 203.432 231.957 203.659C232.851 203.886 233.643 204.239 234.332 204.716C235.029 205.193 235.579 205.807 235.98 206.557C236.382 207.299 236.582 208.189 236.582 209.227V221H231.991V218.58H231.855C231.575 219.125 231.2 219.606 230.73 220.023C230.26 220.432 229.696 220.754 229.037 220.989C228.378 221.216 227.616 221.33 226.753 221.33ZM228.139 217.989C228.851 217.989 229.48 217.848 230.026 217.568C230.571 217.28 230.999 216.894 231.31 216.409C231.62 215.924 231.776 215.375 231.776 214.761V212.909C231.624 213.008 231.416 213.098 231.151 213.182C230.893 213.258 230.601 213.33 230.276 213.398C229.95 213.458 229.624 213.515 229.298 213.568C228.973 213.614 228.677 213.655 228.412 213.693C227.844 213.777 227.348 213.909 226.923 214.091C226.499 214.273 226.17 214.519 225.935 214.83C225.7 215.133 225.582 215.511 225.582 215.966C225.582 216.625 225.821 217.129 226.298 217.477C226.783 217.818 227.397 217.989 228.139 217.989Z" fill="#7E7E7E"/>
<path id="202&#208;&#176;" d="M286.886 221V217.455L295.17 209.784C295.875 209.102 296.466 208.489 296.943 207.943C297.428 207.398 297.795 206.864 298.045 206.341C298.295 205.811 298.42 205.239 298.42 204.625C298.42 203.943 298.265 203.356 297.955 202.864C297.644 202.364 297.22 201.981 296.682 201.716C296.144 201.443 295.534 201.307 294.852 201.307C294.14 201.307 293.519 201.451 292.989 201.739C292.458 202.027 292.049 202.439 291.761 202.977C291.473 203.515 291.33 204.155 291.33 204.898H286.659C286.659 203.375 287.004 202.053 287.693 200.932C288.383 199.811 289.348 198.943 290.591 198.33C291.833 197.716 293.265 197.409 294.886 197.409C296.553 197.409 298.004 197.705 299.239 198.295C300.481 198.879 301.447 199.689 302.136 200.727C302.826 201.765 303.17 202.955 303.17 204.295C303.17 205.174 302.996 206.042 302.648 206.898C302.307 207.754 301.697 208.705 300.818 209.75C299.939 210.788 298.701 212.034 297.102 213.489L293.705 216.818V216.977H303.477V221H286.886ZM316.168 221.511C314.213 221.504 312.531 221.023 311.122 220.068C309.721 219.114 308.641 217.731 307.884 215.92C307.134 214.11 306.762 211.932 306.77 209.386C306.77 206.848 307.145 204.686 307.895 202.898C308.652 201.11 309.732 199.75 311.134 198.818C312.543 197.879 314.221 197.409 316.168 197.409C318.115 197.409 319.789 197.879 321.19 198.818C322.599 199.758 323.683 201.121 324.44 202.909C325.198 204.689 325.573 206.848 325.565 209.386C325.565 211.939 325.187 214.121 324.429 215.932C323.679 217.742 322.603 219.125 321.202 220.08C319.8 221.034 318.122 221.511 316.168 221.511ZM316.168 217.432C317.501 217.432 318.565 216.761 319.361 215.42C320.156 214.08 320.55 212.068 320.543 209.386C320.543 207.621 320.361 206.152 319.997 204.977C319.641 203.803 319.134 202.92 318.474 202.33C317.823 201.739 317.054 201.443 316.168 201.443C314.842 201.443 313.781 202.106 312.986 203.432C312.19 204.758 311.789 206.742 311.781 209.386C311.781 211.174 311.959 212.667 312.315 213.864C312.679 215.053 313.19 215.947 313.849 216.545C314.509 217.136 315.281 217.432 316.168 217.432ZM329.074 221V217.455L337.358 209.784C338.063 209.102 338.653 208.489 339.131 207.943C339.616 207.398 339.983 206.864 340.233 206.341C340.483 205.811 340.608 205.239 340.608 204.625C340.608 203.943 340.453 203.356 340.142 202.864C339.831 202.364 339.407 201.981 338.869 201.716C338.331 201.443 337.722 201.307 337.04 201.307C336.328 201.307 335.706 201.451 335.176 201.739C334.646 202.027 334.237 202.439 333.949 202.977C333.661 203.515 333.517 204.155 333.517 204.898H328.847C328.847 203.375 329.191 202.053 329.881 200.932C330.57 199.811 331.536 198.943 332.778 198.33C334.021 197.716 335.453 197.409 337.074 197.409C338.741 197.409 340.191 197.705 341.426 198.295C342.669 198.879 343.634 199.689 344.324 200.727C345.013 201.765 345.358 202.955 345.358 204.295C345.358 205.174 345.184 206.042 344.835 206.898C344.494 207.754 343.884 208.705 343.006 209.75C342.127 210.788 340.888 212.034 339.29 213.489L335.892 216.818V216.977H345.665V221H329.074ZM354.253 221.33C353.139 221.33 352.147 221.136 351.276 220.75C350.404 220.356 349.715 219.777 349.207 219.011C348.707 218.239 348.457 217.277 348.457 216.125C348.457 215.155 348.635 214.341 348.991 213.682C349.348 213.023 349.832 212.492 350.446 212.091C351.06 211.689 351.757 211.386 352.537 211.182C353.325 210.977 354.151 210.833 355.014 210.75C356.029 210.644 356.848 210.545 357.469 210.455C358.09 210.356 358.541 210.212 358.821 210.023C359.101 209.833 359.241 209.553 359.241 209.182V209.114C359.241 208.394 359.014 207.837 358.56 207.443C358.113 207.049 357.476 206.852 356.651 206.852C355.779 206.852 355.086 207.045 354.571 207.432C354.056 207.811 353.715 208.288 353.548 208.864L349.071 208.5C349.298 207.439 349.745 206.523 350.412 205.75C351.079 204.97 351.938 204.371 352.991 203.955C354.052 203.53 355.279 203.318 356.673 203.318C357.643 203.318 358.571 203.432 359.457 203.659C360.351 203.886 361.143 204.239 361.832 204.716C362.529 205.193 363.079 205.807 363.48 206.557C363.882 207.299 364.082 208.189 364.082 209.227V221H359.491V218.58H359.355C359.075 219.125 358.7 219.606 358.23 220.023C357.76 220.432 357.196 220.754 356.537 220.989C355.878 221.216 355.116 221.33 354.253 221.33ZM355.639 217.989C356.351 217.989 356.98 217.848 357.526 217.568C358.071 217.28 358.499 216.894 358.81 216.409C359.12 215.924 359.276 215.375 359.276 214.761V212.909C359.124 213.008 358.916 213.098 358.651 213.182C358.393 213.258 358.101 213.33 357.776 213.398C357.45 213.458 357.124 213.515 356.798 213.568C356.473 213.614 356.177 213.655 355.912 213.693C355.344 213.777 354.848 213.909 354.423 214.091C353.999 214.273 353.67 214.519 353.435 214.83C353.2 215.133 353.082 215.511 353.082 215.966C353.082 216.625 353.321 217.129 353.798 217.477C354.283 217.818 354.897 217.989 355.639 217.989Z" fill="#7E7E7E"/>
<path id="203&#208;&#176;" d="M414.886 221V217.455L423.17 209.784C423.875 209.102 424.466 208.489 424.943 207.943C425.428 207.398 425.795 206.864 426.045 206.341C426.295 205.811 426.42 205.239 426.42 204.625C426.42 203.943 426.265 203.356 425.955 202.864C425.644 202.364 425.22 201.981 424.682 201.716C424.144 201.443 423.534 201.307 422.852 201.307C422.14 201.307 421.519 201.451 420.989 201.739C420.458 202.027 420.049 202.439 419.761 202.977C419.473 203.515 419.33 204.155 419.33 204.898H414.659C414.659 203.375 415.004 202.053 415.693 200.932C416.383 199.811 417.348 198.943 418.591 198.33C419.833 197.716 421.265 197.409 422.886 197.409C424.553 197.409 426.004 197.705 427.239 198.295C428.481 198.879 429.447 199.689 430.136 200.727C430.826 201.765 431.17 202.955 431.17 204.295C431.17 205.174 430.996 206.042 430.648 206.898C430.307 207.754 429.697 208.705 428.818 209.75C427.939 210.788 426.701 212.034 425.102 213.489L421.705 216.818V216.977H431.477V221H414.886ZM444.168 221.511C442.213 221.504 440.531 221.023 439.122 220.068C437.721 219.114 436.641 217.731 435.884 215.92C435.134 214.11 434.762 211.932 434.77 209.386C434.77 206.848 435.145 204.686 435.895 202.898C436.652 201.11 437.732 199.75 439.134 198.818C440.543 197.879 442.221 197.409 444.168 197.409C446.115 197.409 447.789 197.879 449.19 198.818C450.599 199.758 451.683 201.121 452.44 202.909C453.198 204.689 453.573 206.848 453.565 209.386C453.565 211.939 453.187 214.121 452.429 215.932C451.679 217.742 450.603 219.125 449.202 220.08C447.8 221.034 446.122 221.511 444.168 221.511ZM444.168 217.432C445.501 217.432 446.565 216.761 447.361 215.42C448.156 214.08 448.55 212.068 448.543 209.386C448.543 207.621 448.361 206.152 447.997 204.977C447.641 203.803 447.134 202.92 446.474 202.33C445.823 201.739 445.054 201.443 444.168 201.443C442.842 201.443 441.781 202.106 440.986 203.432C440.19 204.758 439.789 206.742 439.781 209.386C439.781 211.174 439.959 212.667 440.315 213.864C440.679 215.053 441.19 215.947 441.849 216.545C442.509 217.136 443.281 217.432 444.168 217.432ZM465.676 221.318C463.979 221.318 462.468 221.027 461.142 220.443C459.824 219.852 458.782 219.042 458.017 218.011C457.259 216.973 456.869 215.777 456.847 214.42H461.801C461.831 214.989 462.017 215.489 462.358 215.92C462.706 216.345 463.169 216.674 463.744 216.909C464.32 217.144 464.968 217.261 465.688 217.261C466.438 217.261 467.1 217.129 467.676 216.864C468.252 216.598 468.703 216.231 469.028 215.761C469.354 215.292 469.517 214.75 469.517 214.136C469.517 213.515 469.343 212.966 468.994 212.489C468.653 212.004 468.161 211.625 467.517 211.352C466.881 211.08 466.123 210.943 465.244 210.943H463.074V207.33H465.244C465.987 207.33 466.642 207.201 467.21 206.943C467.786 206.686 468.233 206.33 468.551 205.875C468.869 205.413 469.028 204.875 469.028 204.261C469.028 203.678 468.888 203.167 468.608 202.727C468.335 202.28 467.949 201.932 467.449 201.682C466.956 201.432 466.381 201.307 465.722 201.307C465.055 201.307 464.445 201.428 463.892 201.67C463.339 201.905 462.896 202.242 462.562 202.682C462.229 203.121 462.051 203.636 462.028 204.227H457.312C457.335 202.886 457.718 201.705 458.46 200.682C459.203 199.659 460.203 198.86 461.46 198.284C462.725 197.701 464.153 197.409 465.744 197.409C467.35 197.409 468.756 197.701 469.96 198.284C471.165 198.867 472.1 199.655 472.767 200.648C473.441 201.633 473.775 202.739 473.767 203.966C473.775 205.269 473.369 206.356 472.551 207.227C471.741 208.098 470.684 208.652 469.381 208.886V209.068C471.093 209.288 472.396 209.883 473.29 210.852C474.191 211.814 474.638 213.019 474.631 214.466C474.638 215.792 474.256 216.97 473.483 218C472.718 219.03 471.661 219.841 470.312 220.432C468.964 221.023 467.419 221.318 465.676 221.318ZM483.19 221.33C482.077 221.33 481.084 221.136 480.213 220.75C479.342 220.356 478.652 219.777 478.145 219.011C477.645 218.239 477.395 217.277 477.395 216.125C477.395 215.155 477.573 214.341 477.929 213.682C478.285 213.023 478.77 212.492 479.384 212.091C479.997 211.689 480.694 211.386 481.474 211.182C482.262 210.977 483.088 210.833 483.952 210.75C484.967 210.644 485.785 210.545 486.406 210.455C487.027 210.356 487.478 210.212 487.759 210.023C488.039 209.833 488.179 209.553 488.179 209.182V209.114C488.179 208.394 487.952 207.837 487.497 207.443C487.05 207.049 486.414 206.852 485.588 206.852C484.717 206.852 484.024 207.045 483.509 207.432C482.993 207.811 482.652 208.288 482.486 208.864L478.009 208.5C478.236 207.439 478.683 206.523 479.349 205.75C480.016 204.97 480.876 204.371 481.929 203.955C482.99 203.53 484.217 203.318 485.611 203.318C486.58 203.318 487.509 203.432 488.395 203.659C489.289 203.886 490.08 204.239 490.77 204.716C491.467 205.193 492.016 205.807 492.418 206.557C492.819 207.299 493.02 208.189 493.02 209.227V221H488.429V218.58H488.293C488.012 219.125 487.637 219.606 487.168 220.023C486.698 220.432 486.134 220.754 485.474 220.989C484.815 221.216 484.054 221.33 483.19 221.33ZM484.577 217.989C485.289 217.989 485.918 217.848 486.463 217.568C487.009 217.28 487.437 216.894 487.747 216.409C488.058 215.924 488.213 215.375 488.213 214.761V212.909C488.062 213.008 487.853 213.098 487.588 213.182C487.33 213.258 487.039 213.33 486.713 213.398C486.387 213.458 486.062 213.515 485.736 213.568C485.41 213.614 485.115 213.655 484.849 213.693C484.281 213.777 483.785 213.909 483.361 214.091C482.937 214.273 482.607 214.519 482.372 214.83C482.137 215.133 482.02 215.511 482.02 215.966C482.02 216.625 482.259 217.129 482.736 217.477C483.221 217.818 483.834 217.989 484.577 217.989Z" fill="#7E7E7E"/>
<path id="204&#208;&#176;" d="M613.886 224V220.455L622.17 212.784C622.875 212.102 623.466 211.489 623.943 210.943C624.428 210.398 624.795 209.864 625.045 209.341C625.295 208.811 625.42 208.239 625.42 207.625C625.42 206.943 625.265 206.356 624.955 205.864C624.644 205.364 624.22 204.981 623.682 204.716C623.144 204.443 622.534 204.307 621.852 204.307C621.14 204.307 620.519 204.451 619.989 204.739C619.458 205.027 619.049 205.439 618.761 205.977C618.473 206.515 618.33 207.155 618.33 207.898H613.659C613.659 206.375 614.004 205.053 614.693 203.932C615.383 202.811 616.348 201.943 617.591 201.33C618.833 200.716 620.265 200.409 621.886 200.409C623.553 200.409 625.004 200.705 626.239 201.295C627.481 201.879 628.447 202.689 629.136 203.727C629.826 204.765 630.17 205.955 630.17 207.295C630.17 208.174 629.996 209.042 629.648 209.898C629.307 210.754 628.697 211.705 627.818 212.75C626.939 213.788 625.701 215.034 624.102 216.489L620.705 219.818V219.977H630.477V224H613.886ZM643.168 224.511C641.213 224.504 639.531 224.023 638.122 223.068C636.721 222.114 635.641 220.731 634.884 218.92C634.134 217.11 633.762 214.932 633.77 212.386C633.77 209.848 634.145 207.686 634.895 205.898C635.652 204.11 636.732 202.75 638.134 201.818C639.543 200.879 641.221 200.409 643.168 200.409C645.115 200.409 646.789 200.879 648.19 201.818C649.599 202.758 650.683 204.121 651.44 205.909C652.198 207.689 652.573 209.848 652.565 212.386C652.565 214.939 652.187 217.121 651.429 218.932C650.679 220.742 649.603 222.125 648.202 223.08C646.8 224.034 645.122 224.511 643.168 224.511ZM643.168 220.432C644.501 220.432 645.565 219.761 646.361 218.42C647.156 217.08 647.55 215.068 647.543 212.386C647.543 210.621 647.361 209.152 646.997 207.977C646.641 206.803 646.134 205.92 645.474 205.33C644.823 204.739 644.054 204.443 643.168 204.443C641.842 204.443 640.781 205.106 639.986 206.432C639.19 207.758 638.789 209.742 638.781 212.386C638.781 214.174 638.959 215.667 639.315 216.864C639.679 218.053 640.19 218.947 640.849 219.545C641.509 220.136 642.281 220.432 643.168 220.432ZM655.722 219.909V216.034L665.438 200.727H668.778V206.091H666.801L660.676 215.784V215.966H674.483V219.909H655.722ZM666.892 224V218.727L666.983 217.011V200.727H671.597V224H666.892ZM682.784 224.33C681.67 224.33 680.678 224.136 679.807 223.75C678.936 223.356 678.246 222.777 677.739 222.011C677.239 221.239 676.989 220.277 676.989 219.125C676.989 218.155 677.167 217.341 677.523 216.682C677.879 216.023 678.364 215.492 678.977 215.091C679.591 214.689 680.288 214.386 681.068 214.182C681.856 213.977 682.682 213.833 683.545 213.75C684.561 213.644 685.379 213.545 686 213.455C686.621 213.356 687.072 213.212 687.352 213.023C687.633 212.833 687.773 212.553 687.773 212.182V212.114C687.773 211.394 687.545 210.837 687.091 210.443C686.644 210.049 686.008 209.852 685.182 209.852C684.311 209.852 683.617 210.045 683.102 210.432C682.587 210.811 682.246 211.288 682.08 211.864L677.602 211.5C677.83 210.439 678.277 209.523 678.943 208.75C679.61 207.97 680.47 207.371 681.523 206.955C682.583 206.53 683.811 206.318 685.205 206.318C686.174 206.318 687.102 206.432 687.989 206.659C688.883 206.886 689.674 207.239 690.364 207.716C691.061 208.193 691.61 208.807 692.011 209.557C692.413 210.299 692.614 211.189 692.614 212.227V224H688.023V221.58H687.886C687.606 222.125 687.231 222.606 686.761 223.023C686.292 223.432 685.727 223.754 685.068 223.989C684.409 224.216 683.648 224.33 682.784 224.33ZM684.17 220.989C684.883 220.989 685.511 220.848 686.057 220.568C686.602 220.28 687.03 219.894 687.341 219.409C687.652 218.924 687.807 218.375 687.807 217.761V215.909C687.655 216.008 687.447 216.098 687.182 216.182C686.924 216.258 686.633 216.33 686.307 216.398C685.981 216.458 685.655 216.515 685.33 216.568C685.004 216.614 684.708 216.655 684.443 216.693C683.875 216.777 683.379 216.909 682.955 217.091C682.53 217.273 682.201 217.519 681.966 217.83C681.731 218.133 681.614 218.511 681.614 218.966C681.614 219.625 681.852 220.129 682.33 220.477C682.814 220.818 683.428 220.989 684.17 220.989Z" fill="#7E7E7E"/>
<path id="203&#208;&#176;_2" d="M739.886 224V220.455L748.17 212.784C748.875 212.102 749.466 211.489 749.943 210.943C750.428 210.398 750.795 209.864 751.045 209.341C751.295 208.811 751.42 208.239 751.42 207.625C751.42 206.943 751.265 206.356 750.955 205.864C750.644 205.364 750.22 204.981 749.682 204.716C749.144 204.443 748.534 204.307 747.852 204.307C747.14 204.307 746.519 204.451 745.989 204.739C745.458 205.027 745.049 205.439 744.761 205.977C744.473 206.515 744.33 207.155 744.33 207.898H739.659C739.659 206.375 740.004 205.053 740.693 203.932C741.383 202.811 742.348 201.943 743.591 201.33C744.833 200.716 746.265 200.409 747.886 200.409C749.553 200.409 751.004 200.705 752.239 201.295C753.481 201.879 754.447 202.689 755.136 203.727C755.826 204.765 756.17 205.955 756.17 207.295C756.17 208.174 755.996 209.042 755.648 209.898C755.307 210.754 754.697 211.705 753.818 212.75C752.939 213.788 751.701 215.034 750.102 216.489L746.705 219.818V219.977H756.477V224H739.886ZM769.168 224.511C767.213 224.504 765.531 224.023 764.122 223.068C762.721 222.114 761.641 220.731 760.884 218.92C760.134 217.11 759.762 214.932 759.77 212.386C759.77 209.848 760.145 207.686 760.895 205.898C761.652 204.11 762.732 202.75 764.134 201.818C765.543 200.879 767.221 200.409 769.168 200.409C771.115 200.409 772.789 200.879 774.19 201.818C775.599 202.758 776.683 204.121 777.44 205.909C778.198 207.689 778.573 209.848 778.565 212.386C778.565 214.939 778.187 217.121 777.429 218.932C776.679 220.742 775.603 222.125 774.202 223.08C772.8 224.034 771.122 224.511 769.168 224.511ZM769.168 220.432C770.501 220.432 771.565 219.761 772.361 218.42C773.156 217.08 773.55 215.068 773.543 212.386C773.543 210.621 773.361 209.152 772.997 207.977C772.641 206.803 772.134 205.92 771.474 205.33C770.823 204.739 770.054 204.443 769.168 204.443C767.842 204.443 766.781 205.106 765.986 206.432C765.19 207.758 764.789 209.742 764.781 212.386C764.781 214.174 764.959 215.667 765.315 216.864C765.679 218.053 766.19 218.947 766.849 219.545C767.509 220.136 768.281 220.432 769.168 220.432ZM790.676 224.318C788.979 224.318 787.468 224.027 786.142 223.443C784.824 222.852 783.782 222.042 783.017 221.011C782.259 219.973 781.869 218.777 781.847 217.42H786.801C786.831 217.989 787.017 218.489 787.358 218.92C787.706 219.345 788.169 219.674 788.744 219.909C789.32 220.144 789.968 220.261 790.688 220.261C791.438 220.261 792.1 220.129 792.676 219.864C793.252 219.598 793.703 219.231 794.028 218.761C794.354 218.292 794.517 217.75 794.517 217.136C794.517 216.515 794.343 215.966 793.994 215.489C793.653 215.004 793.161 214.625 792.517 214.352C791.881 214.08 791.123 213.943 790.244 213.943H788.074V210.33H790.244C790.987 210.33 791.642 210.201 792.21 209.943C792.786 209.686 793.233 209.33 793.551 208.875C793.869 208.413 794.028 207.875 794.028 207.261C794.028 206.678 793.888 206.167 793.608 205.727C793.335 205.28 792.949 204.932 792.449 204.682C791.956 204.432 791.381 204.307 790.722 204.307C790.055 204.307 789.445 204.428 788.892 204.67C788.339 204.905 787.896 205.242 787.562 205.682C787.229 206.121 787.051 206.636 787.028 207.227H782.312C782.335 205.886 782.718 204.705 783.46 203.682C784.203 202.659 785.203 201.86 786.46 201.284C787.725 200.701 789.153 200.409 790.744 200.409C792.35 200.409 793.756 200.701 794.96 201.284C796.165 201.867 797.1 202.655 797.767 203.648C798.441 204.633 798.775 205.739 798.767 206.966C798.775 208.269 798.369 209.356 797.551 210.227C796.741 211.098 795.684 211.652 794.381 211.886V212.068C796.093 212.288 797.396 212.883 798.29 213.852C799.191 214.814 799.638 216.019 799.631 217.466C799.638 218.792 799.256 219.97 798.483 221C797.718 222.03 796.661 222.841 795.312 223.432C793.964 224.023 792.419 224.318 790.676 224.318ZM808.19 224.33C807.077 224.33 806.084 224.136 805.213 223.75C804.342 223.356 803.652 222.777 803.145 222.011C802.645 221.239 802.395 220.277 802.395 219.125C802.395 218.155 802.573 217.341 802.929 216.682C803.285 216.023 803.77 215.492 804.384 215.091C804.997 214.689 805.694 214.386 806.474 214.182C807.262 213.977 808.088 213.833 808.952 213.75C809.967 213.644 810.785 213.545 811.406 213.455C812.027 213.356 812.478 213.212 812.759 213.023C813.039 212.833 813.179 212.553 813.179 212.182V212.114C813.179 211.394 812.952 210.837 812.497 210.443C812.05 210.049 811.414 209.852 810.588 209.852C809.717 209.852 809.024 210.045 808.509 210.432C807.993 210.811 807.652 211.288 807.486 211.864L803.009 211.5C803.236 210.439 803.683 209.523 804.349 208.75C805.016 207.97 805.876 207.371 806.929 206.955C807.99 206.53 809.217 206.318 810.611 206.318C811.58 206.318 812.509 206.432 813.395 206.659C814.289 206.886 815.08 207.239 815.77 207.716C816.467 208.193 817.016 208.807 817.418 209.557C817.819 210.299 818.02 211.189 818.02 212.227V224H813.429V221.58H813.293C813.012 222.125 812.637 222.606 812.168 223.023C811.698 223.432 811.134 223.754 810.474 223.989C809.815 224.216 809.054 224.33 808.19 224.33ZM809.577 220.989C810.289 220.989 810.918 220.848 811.463 220.568C812.009 220.28 812.437 219.894 812.747 219.409C813.058 218.924 813.213 218.375 813.213 217.761V215.909C813.062 216.008 812.853 216.098 812.588 216.182C812.33 216.258 812.039 216.33 811.713 216.398C811.387 216.458 811.062 216.515 810.736 216.568C810.41 216.614 810.115 216.655 809.849 216.693C809.281 216.777 808.785 216.909 808.361 217.091C807.937 217.273 807.607 217.519 807.372 217.83C807.137 218.133 807.02 218.511 807.02 218.966C807.02 219.625 807.259 220.129 807.736 220.477C808.221 220.818 808.834 220.989 809.577 220.989Z" fill="#7E7E7E"/>
<path id="204&#208;&#176;_2" d="M862.886 224V220.455L871.17 212.784C871.875 212.102 872.466 211.489 872.943 210.943C873.428 210.398 873.795 209.864 874.045 209.341C874.295 208.811 874.42 208.239 874.42 207.625C874.42 206.943 874.265 206.356 873.955 205.864C873.644 205.364 873.22 204.981 872.682 204.716C872.144 204.443 871.534 204.307 870.852 204.307C870.14 204.307 869.519 204.451 868.989 204.739C868.458 205.027 868.049 205.439 867.761 205.977C867.473 206.515 867.33 207.155 867.33 207.898H862.659C862.659 206.375 863.004 205.053 863.693 203.932C864.383 202.811 865.348 201.943 866.591 201.33C867.833 200.716 869.265 200.409 870.886 200.409C872.553 200.409 874.004 200.705 875.239 201.295C876.481 201.879 877.447 202.689 878.136 203.727C878.826 204.765 879.17 205.955 879.17 207.295C879.17 208.174 878.996 209.042 878.648 209.898C878.307 210.754 877.697 211.705 876.818 212.75C875.939 213.788 874.701 215.034 873.102 216.489L869.705 219.818V219.977H879.477V224H862.886ZM892.168 224.511C890.213 224.504 888.531 224.023 887.122 223.068C885.721 222.114 884.641 220.731 883.884 218.92C883.134 217.11 882.762 214.932 882.77 212.386C882.77 209.848 883.145 207.686 883.895 205.898C884.652 204.11 885.732 202.75 887.134 201.818C888.543 200.879 890.221 200.409 892.168 200.409C894.115 200.409 895.789 200.879 897.19 201.818C898.599 202.758 899.683 204.121 900.44 205.909C901.198 207.689 901.573 209.848 901.565 212.386C901.565 214.939 901.187 217.121 900.429 218.932C899.679 220.742 898.603 222.125 897.202 223.08C895.8 224.034 894.122 224.511 892.168 224.511ZM892.168 220.432C893.501 220.432 894.565 219.761 895.361 218.42C896.156 217.08 896.55 215.068 896.543 212.386C896.543 210.621 896.361 209.152 895.997 207.977C895.641 206.803 895.134 205.92 894.474 205.33C893.823 204.739 893.054 204.443 892.168 204.443C890.842 204.443 889.781 205.106 888.986 206.432C888.19 207.758 887.789 209.742 887.781 212.386C887.781 214.174 887.959 215.667 888.315 216.864C888.679 218.053 889.19 218.947 889.849 219.545C890.509 220.136 891.281 220.432 892.168 220.432ZM904.722 219.909V216.034L914.438 200.727H917.778V206.091H915.801L909.676 215.784V215.966H923.483V219.909H904.722ZM915.892 224V218.727L915.983 217.011V200.727H920.597V224H915.892ZM931.784 224.33C930.67 224.33 929.678 224.136 928.807 223.75C927.936 223.356 927.246 222.777 926.739 222.011C926.239 221.239 925.989 220.277 925.989 219.125C925.989 218.155 926.167 217.341 926.523 216.682C926.879 216.023 927.364 215.492 927.977 215.091C928.591 214.689 929.288 214.386 930.068 214.182C930.856 213.977 931.682 213.833 932.545 213.75C933.561 213.644 934.379 213.545 935 213.455C935.621 213.356 936.072 213.212 936.352 213.023C936.633 212.833 936.773 212.553 936.773 212.182V212.114C936.773 211.394 936.545 210.837 936.091 210.443C935.644 210.049 935.008 209.852 934.182 209.852C933.311 209.852 932.617 210.045 932.102 210.432C931.587 210.811 931.246 211.288 931.08 211.864L926.602 211.5C926.83 210.439 927.277 209.523 927.943 208.75C928.61 207.97 929.47 207.371 930.523 206.955C931.583 206.53 932.811 206.318 934.205 206.318C935.174 206.318 936.102 206.432 936.989 206.659C937.883 206.886 938.674 207.239 939.364 207.716C940.061 208.193 940.61 208.807 941.011 209.557C941.413 210.299 941.614 211.189 941.614 212.227V224H937.023V221.58H936.886C936.606 222.125 936.231 222.606 935.761 223.023C935.292 223.432 934.727 223.754 934.068 223.989C933.409 224.216 932.648 224.33 931.784 224.33ZM933.17 220.989C933.883 220.989 934.511 220.848 935.057 220.568C935.602 220.28 936.03 219.894 936.341 219.409C936.652 218.924 936.807 218.375 936.807 217.761V215.909C936.655 216.008 936.447 216.098 936.182 216.182C935.924 216.258 935.633 216.33 935.307 216.398C934.981 216.458 934.655 216.515 934.33 216.568C934.004 216.614 933.708 216.655 933.443 216.693C932.875 216.777 932.379 216.909 931.955 217.091C931.53 217.273 931.201 217.519 930.966 217.83C930.731 218.133 930.614 218.511 930.614 218.966C930.614 219.625 930.852 220.129 931.33 220.477C931.814 220.818 932.428 220.989 933.17 220.989Z" fill="#7E7E7E"/>
<path id="205&#208;&#176;" d="M987.886 224V220.455L996.17 212.784C996.875 212.102 997.466 211.489 997.943 210.943C998.428 210.398 998.795 209.864 999.045 209.341C999.295 208.811 999.42 208.239 999.42 207.625C999.42 206.943 999.265 206.356 998.955 205.864C998.644 205.364 998.22 204.981 997.682 204.716C997.144 204.443 996.534 204.307 995.852 204.307C995.14 204.307 994.519 204.451 993.989 204.739C993.458 205.027 993.049 205.439 992.761 205.977C992.473 206.515 992.33 207.155 992.33 207.898H987.659C987.659 206.375 988.004 205.053 988.693 203.932C989.383 202.811 990.348 201.943 991.591 201.33C992.833 200.716 994.265 200.409 995.886 200.409C997.553 200.409 999.004 200.705 1000.24 201.295C1001.48 201.879 1002.45 202.689 1003.14 203.727C1003.83 204.765 1004.17 205.955 1004.17 207.295C1004.17 208.174 1004 209.042 1003.65 209.898C1003.31 210.754 1002.7 211.705 1001.82 212.75C1000.94 213.788 999.701 215.034 998.102 216.489L994.705 219.818V219.977H1004.48V224H987.886ZM1017.17 224.511C1015.21 224.504 1013.53 224.023 1012.12 223.068C1010.72 222.114 1009.64 220.731 1008.88 218.92C1008.13 217.11 1007.76 214.932 1007.77 212.386C1007.77 209.848 1008.14 207.686 1008.89 205.898C1009.65 204.11 1010.73 202.75 1012.13 201.818C1013.54 200.879 1015.22 200.409 1017.17 200.409C1019.11 200.409 1020.79 200.879 1022.19 201.818C1023.6 202.758 1024.68 204.121 1025.44 205.909C1026.2 207.689 1026.57 209.848 1026.57 212.386C1026.57 214.939 1026.19 217.121 1025.43 218.932C1024.68 220.742 1023.6 222.125 1022.2 223.08C1020.8 224.034 1019.12 224.511 1017.17 224.511ZM1017.17 220.432C1018.5 220.432 1019.57 219.761 1020.36 218.42C1021.16 217.08 1021.55 215.068 1021.54 212.386C1021.54 210.621 1021.36 209.152 1021 207.977C1020.64 206.803 1020.13 205.92 1019.47 205.33C1018.82 204.739 1018.05 204.443 1017.17 204.443C1015.84 204.443 1014.78 205.106 1013.99 206.432C1013.19 207.758 1012.79 209.742 1012.78 212.386C1012.78 214.174 1012.96 215.667 1013.32 216.864C1013.68 218.053 1014.19 218.947 1014.85 219.545C1015.51 220.136 1016.28 220.432 1017.17 220.432ZM1038.57 224.318C1036.97 224.318 1035.54 224.023 1034.28 223.432C1033.03 222.841 1032.04 222.027 1031.3 220.989C1030.57 219.951 1030.18 218.761 1030.15 217.42H1034.93C1034.98 218.322 1035.36 219.053 1036.06 219.614C1036.77 220.174 1037.6 220.455 1038.57 220.455C1039.35 220.455 1040.03 220.284 1040.62 219.943C1041.22 219.595 1041.68 219.114 1042.02 218.5C1042.36 217.879 1042.53 217.167 1042.53 216.364C1042.53 215.545 1042.35 214.826 1042.01 214.205C1041.66 213.583 1041.19 213.098 1040.59 212.75C1039.98 212.402 1039.29 212.223 1038.51 212.216C1037.82 212.216 1037.16 212.356 1036.52 212.636C1035.88 212.917 1035.38 213.299 1035.03 213.784L1030.65 213L1031.76 200.727H1045.98V204.75H1035.81L1035.21 210.58H1035.35C1035.76 210.004 1036.37 209.527 1037.2 209.148C1038.02 208.769 1038.95 208.58 1039.97 208.58C1041.37 208.58 1042.62 208.909 1043.72 209.568C1044.82 210.227 1045.69 211.133 1046.32 212.284C1046.96 213.428 1047.27 214.746 1047.27 216.239C1047.27 217.807 1046.91 219.201 1046.18 220.42C1045.45 221.633 1044.43 222.587 1043.12 223.284C1041.82 223.973 1040.3 224.318 1038.57 224.318ZM1055.72 224.33C1054.61 224.33 1053.62 224.136 1052.74 223.75C1051.87 223.356 1051.18 222.777 1050.68 222.011C1050.18 221.239 1049.93 220.277 1049.93 219.125C1049.93 218.155 1050.1 217.341 1050.46 216.682C1050.82 216.023 1051.3 215.492 1051.91 215.091C1052.53 214.689 1053.23 214.386 1054.01 214.182C1054.79 213.977 1055.62 213.833 1056.48 213.75C1057.5 213.644 1058.32 213.545 1058.94 213.455C1059.56 213.356 1060.01 213.212 1060.29 213.023C1060.57 212.833 1060.71 212.553 1060.71 212.182V212.114C1060.71 211.394 1060.48 210.837 1060.03 210.443C1059.58 210.049 1058.95 209.852 1058.12 209.852C1057.25 209.852 1056.55 210.045 1056.04 210.432C1055.52 210.811 1055.18 211.288 1055.02 211.864L1050.54 211.5C1050.77 210.439 1051.21 209.523 1051.88 208.75C1052.55 207.97 1053.41 207.371 1054.46 206.955C1055.52 206.53 1056.75 206.318 1058.14 206.318C1059.11 206.318 1060.04 206.432 1060.93 206.659C1061.82 206.886 1062.61 207.239 1063.3 207.716C1064 208.193 1064.55 208.807 1064.95 209.557C1065.35 210.299 1065.55 211.189 1065.55 212.227V224H1060.96V221.58H1060.82C1060.54 222.125 1060.17 222.606 1059.7 223.023C1059.23 223.432 1058.66 223.754 1058.01 223.989C1057.35 224.216 1056.59 224.33 1055.72 224.33ZM1057.11 220.989C1057.82 220.989 1058.45 220.848 1058.99 220.568C1059.54 220.28 1059.97 219.894 1060.28 219.409C1060.59 218.924 1060.74 218.375 1060.74 217.761V215.909C1060.59 216.008 1060.38 216.098 1060.12 216.182C1059.86 216.258 1059.57 216.33 1059.24 216.398C1058.92 216.458 1058.59 216.515 1058.27 216.568C1057.94 216.614 1057.65 216.655 1057.38 216.693C1056.81 216.777 1056.32 216.909 1055.89 217.091C1055.47 217.273 1055.14 217.519 1054.9 217.83C1054.67 218.133 1054.55 218.511 1054.55 218.966C1054.55 219.625 1054.79 220.129 1055.27 220.477C1055.75 220.818 1056.37 220.989 1057.11 220.989Z" fill="#7E7E7E"/>
</g>
<defs>
<filter id="filter0_f_13_52" x="209" y="251" width="801" height="391" filterUnits="userSpaceOnUse" color-interpolation-filters="sRGB">
<feFlood flood-opacity="0" result="BackgroundImageFix"/>
<feBlend mode="normal" in="SourceGraphic" in2="BackgroundImageFix" result="shape"/>
<feGaussianBlur stdDeviation="3" result="effect1_foregroundBlur_13_52"/>
</filter>
<filter id="filter1_d_13_52" x="81" y="540" width="143" height="191" filterUnits="userSpaceOnUse" color-interpolation-filters="sRGB">
<feFlood flood-opacity="0" result="BackgroundImageFix"/>
<feColorMatrix in="SourceAlpha" type="matrix" values="0 0 0 0 0 0 0 0 0 0 0 0 0 0 0 0 0 0 127 0" result="hardAlpha"/>
<feOffset dy="4"/>
<feGaussianBlur stdDeviation="2"/>
<feComposite in2="hardAlpha" operator="out"/>
<feColorMatrix type="matrix" values="0 0 0 0 0 0 0 0 0 0 0 0 0 0 0 0 0 0 0.25 0"/>
<feBlend mode="normal" in2="BackgroundImageFix" result="effect1_dropShadow_13_52"/>
<feBlend mode="normal" in="SourceGraphic" in2="effect1_dropShadow_13_52" result="shape"/>
</filter>
<filter id="filter2_d_13_52" x="258" y="579" width="218" height="81" filterUnits="userSpaceOnUse" color-interpolation-filters="sRGB">
<feFlood flood-opacity="0" result="BackgroundImageFix"/>
<feColorMatrix in="SourceAlpha" type="matrix" values="0 0 0 0 0 0 0 0 0 0 0 0 0 0 0 0 0 0 127 0" result="hardAlpha"/>
<feOffset dy="4"/>
<feGaussianBlur stdDeviation="2"/>
<feComposite in2="hardAlpha" operator="out"/>
<feColorMatrix type="matrix" values="0 0 0 0 0 0 0 0 0 0 0 0 0 0 0 0 0 0 0.25 0"/>
<feBlend mode="normal" in2="BackgroundImageFix" result="effect1_dropShadow_13_52"/>
<feBlend mode="normal" in="SourceGraphic" in2="effect1_dropShadow_13_52" result="shape"/>
</filter>
<filter id="filter3_d_13_52" x="167" y="311" width="309" height="242" filterUnits="userSpaceOnUse" color-interpolation-filters="sRGB">
<feFlood flood-opacity="0" result="BackgroundImageFix"/>
<feColorMatrix in="SourceAlpha" type="matrix" values="0 0 0 0 0 0 0 0 0 0 0 0 0 0 0 0 0 0 127 0" result="hardAlpha"/>
<feOffset dy="4"/>
<feGaussianBlur stdDeviation="2"/>
<feComposite in2="hardAlpha" operator="out"/>
<feColorMatrix type="matrix" values="0 0 0 0 0 0 0 0 0 0 0 0 0 0 0 0 0 0 0.25 0"/>
<feBlend mode="normal" in2="BackgroundImageFix" result="effect1_dropShadow_13_52"/>
<feBlend mode="normal" in="SourceGraphic" in2="effect1_dropShadow_13_52" result="shape"/>
</filter>
<filter id="filter4_d_13_52" x="470" y="311" width="178" height="339.5" filterUnits="userSpaceOnUse" color-interpolation-filters="sRGB">
<feFlood flood-opacity="0" result="BackgroundImageFix"/>
<feColorMatrix in="SourceAlpha" type="matrix" values="0 0 0 0 0 0 0 0 0 0 0 0 0 0 0 0 0 0 127 0" result="hardAlpha"/>
<feOffset dy="4"/>
<feGaussianBlur stdDeviation="2"/>
<feComposite in2="hardAlpha" operator="out"/>
<feColorMatrix type="matrix" values="0 0 0 0 0 0 0 0 0 0 0 0 0 0 0 0 0 0 0.25 0"/>
<feBlend mode="normal" in2="BackgroundImageFix" result="effect1_dropShadow_13_52"/>
<feBlend mode="normal" in="SourceGraphic" in2="effect1_dropShadow_13_52" result="shape"/>
</filter>
<filter id="filter5_d_13_52" x="642" y="311" width="73" height="376.5" filterUnits="userSpaceOnUse" color-interpolation-filters="sRGB">
<feFlood flood-opacity="0" result="BackgroundImageFix"/>
<feColorMatrix in="SourceAlpha" type="matrix" values="0 0 0 0 0 0 0 0 0 0 0 0 0 0 0 0 0 0 127 0" result="hardAlpha"/>
<feOffset dy="4"/>
<feGaussianBlur stdDeviation="2"/>
<feComposite in2="hardAlpha" operator="out"/>
<feColorMatrix type="matrix" values="0 0 0 0 0 0 0 0 0 0 0 0 0 0 0 0 0 0 0.25 0"/>
<feBlend mode="normal" in2="BackgroundImageFix" result="effect1_dropShadow_13_52"/>
<feBlend mode="normal" in="SourceGraphic" in2="effect1_dropShadow_13_52" result="shape"/>
</filter>
<filter id="filter6_d_13_52" x="82" y="161" width="58" height="85" filterUnits="userSpaceOnUse" color-interpolation-filters="sRGB">
<feFlood flood-opacity="0" result="BackgroundImageFix"/>
<feColorMatrix in="SourceAlpha" type="matrix" values="0 0 0 0 0 0 0 0 0 0 0 0 0 0 0 0 0 0 127 0" result="hardAlpha"/>
<feOffset dy="4"/>
<feGaussianBlur stdDeviation="2"/>
<feComposite in2="hardAlpha" operator="out"/>
<feColorMatrix type="matrix" values="0 0 0 0 0 0 0 0 0 0 0 0 0 0 0 0 0 0 0.25 0"/>
<feBlend mode="normal" in2="BackgroundImageFix" result="effect1_dropShadow_13_52"/>
<feBlend mode="normal" in="SourceGraphic" in2="effect1_dropShadow_13_52" result="shape"/>
</filter>
<filter id="filter7_d_13_52" x="134" y="161" width="141" height="109" filterUnits="userSpaceOnUse" color-interpolation-filters="sRGB">
<feFlood flood-opacity="0" result="BackgroundImageFix"/>
<feColorMatrix in="SourceAlpha" type="matrix" values="0 0 0 0 0 0 0 0 0 0 0 0 0 0 0 0 0 0 127 0" result="hardAlpha"/>
<feOffset dy="4"/>
<feGaussianBlur stdDeviation="2"/>
<feComposite in2="hardAlpha" operator="out"/>
<feColorMatrix type="matrix" values="0 0 0 0 0 0 0 0 0 0 0 0 0 0 0 0 0 0 0.25 0"/>
<feBlend mode="normal" in2="BackgroundImageFix" result="effect1_dropShadow_13_52"/>
<feBlend mode="normal" in="SourceGraphic" in2="effect1_dropShadow_13_52" result="shape"/>
</filter>
<filter id="filter8_d_13_52" x="269" y="161" width="128" height="109" filterUnits="userSpaceOnUse" color-interpolation-filters="sRGB">
<feFlood flood-opacity="0" result="BackgroundImageFix"/>
<feColorMatrix in="SourceAlpha" type="matrix" values="0 0 0 0 0 0 0 0 0 0 0 0 0 0 0 0 0 0 127 0" result="hardAlpha"/>
<feOffset dy="4"/>
<feGaussianBlur stdDeviation="2"/>
<feComposite in2="hardAlpha" operator="out"/>
<feColorMatrix type="matrix" values="0 0 0 0 0 0 0 0 0 0 0 0 0 0 0 0 0 0 0.25 0"/>
<feBlend mode="normal" in2="BackgroundImageFix" result="effect1_dropShadow_13_52"/>
<feBlend mode="normal" in="SourceGraphic" in2="effect1_dropShadow_13_52" result="shape"/>
</filter>
<filter id="filter9_d_13_52" x="391" y="161" width="134" height="109" filterUnits="userSpaceOnUse" color-interpolation-filters="sRGB">
<feFlood flood-opacity="0" result="BackgroundImageFix"/>
<feColorMatrix in="SourceAlpha" type="matrix" values="0 0 0 0 0 0 0 0 0 0 0 0 0 0 0 0 0 0 127 0" result="hardAlpha"/>
<feOffset dy="4"/>
<feGaussianBlur stdDeviation="2"/>
<feComposite in2="hardAlpha" operator="out"/>
<feColorMatrix type="matrix" values="0 0 0 0 0 0 0 0 0 0 0 0 0 0 0 0 0 0 0.25 0"/>
<feBlend mode="normal" in2="BackgroundImageFix" result="effect1_dropShadow_13_52"/>
<feBlend mode="normal" in="SourceGraphic" in2="effect1_dropShadow_13_52" result="shape"/>
</filter>
<filter id="filter10_d_13_52" x="709" y="357" width="229" height="128" filterUnits="userSpaceOnUse" color-interpolation-filters="sRGB">
<feFlood flood-opacity="0" result="BackgroundImageFix"/>
<feColorMatrix in="SourceAlpha" type="matrix" values="0 0 0 0 0 0 0 0 0 0 0 0 0 0 0 0 0 0 127 0" result="hardAlpha"/>
<feOffset dy="4"/>
<feGaussianBlur stdDeviation="2"/>
<feComposite in2="hardAlpha" operator="out"/>
<feColorMatrix type="matrix" values="0 0 0 0 0 0 0 0 0 0 0 0 0 0 0 0 0 0 0.25 0"/>
<feBlend mode="normal" in2="BackgroundImageFix" result="effect1_dropShadow_13_52"/>
<feBlend mode="normal" in="SourceGraphic" in2="effect1_dropShadow_13_52" result="shape"/>
</filter>
<filter id="filter11_d_13_52" x="590" y="160" width="123" height="110" filterUnits="userSpaceOnUse" color-interpolation-filters="sRGB">
<feFlood flood-opacity="0" result="BackgroundImageFix"/>
<feColorMatrix in="SourceAlpha" type="matrix" values="0 0 0 0 0 0 0 0 0 0 0 0 0 0 0 0 0 0 127 0" result="hardAlpha"/>
<feOffset dy="4"/>
<feGaussianBlur stdDeviation="2"/>
<feComposite in2="hardAlpha" operator="out"/>
<feColorMatrix type="matrix" values="0 0 0 0 0 0 0 0 0 0 0 0 0 0 0 0 0 0 0.25 0"/>
<feBlend mode="normal" in2="BackgroundImageFix" result="effect1_dropShadow_13_52"/>
<feBlend mode="normal" in="SourceGraphic" in2="effect1_dropShadow_13_52" result="shape"/>
</filter>
<filter id="filter12_d_13_52" x="734" y="311" width="171" height="52" filterUnits="userSpaceOnUse" color-interpolation-filters="sRGB">
<feFlood flood-opacity="0" result="BackgroundImageFix"/>
<feColorMatrix in="SourceAlpha" type="matrix" values="0 0 0 0 0 0 0 0 0 0 0 0 0 0 0 0 0 0 127 0" result="hardAlpha"/>
<feOffset dy="4"/>
<feGaussianBlur stdDeviation="2"/>
<feComposite in2="hardAlpha" operator="out"/>
<feColorMatrix type="matrix" values="0 0 0 0 0 0 0 0 0 0 0 0 0 0 0 0 0 0 0.25 0"/>
<feBlend mode="normal" in2="BackgroundImageFix" result="effect1_dropShadow_13_52"/>
<feBlend mode="normal" in="SourceGraphic" in2="effect1_dropShadow_13_52" result="shape"/>
</filter>
<filter id="filter13_d_13_52" x="708" y="160" width="136" height="110" filterUnits="userSpaceOnUse" color-interpolation-filters="sRGB">
<feFlood flood-opacity="0" result="BackgroundImageFix"/>
<feColorMatrix in="SourceAlpha" type="matrix" values="0 0 0 0 0 0 0 0 0 0 0 0 0 0 0 0 0 0 127 0" result="hardAlpha"/>
<feOffset dy="4"/>
<feGaussianBlur stdDeviation="2"/>
<feComposite in2="hardAlpha" operator="out"/>
<feColorMatrix type="matrix" values="0 0 0 0 0 0 0 0 0 0 0 0 0 0 0 0 0 0 0.25 0"/>
<feBlend mode="normal" in2="BackgroundImageFix" result="effect1_dropShadow_13_52"/>
<feBlend mode="normal" in="SourceGraphic" in2="effect1_dropShadow_13_52" result="shape"/>
</filter>
<filter id="filter14_d_13_52" x="838" y="160" width="128" height="110" filterUnits="userSpaceOnUse" color-interpolation-filters="sRGB">
<feFlood flood-opacity="0" result="BackgroundImageFix"/>
<feColorMatrix in="SourceAlpha" type="matrix" values="0 0 0 0 0 0 0 0 0 0 0 0 0 0 0 0 0 0 127 0" result="hardAlpha"/>
<feOffset dy="4"/>
<feGaussianBlur stdDeviation="2"/>
<feComposite in2="hardAlpha" operator="out"/>
<feColorMatrix type="matrix" values="0 0 0 0 0 0 0 0 0 0 0 0 0 0 0 0 0 0 0.25 0"/>
<feBlend mode="normal" in2="BackgroundImageFix" result="effect1_dropShadow_13_52"/>
<feBlend mode="normal" in="SourceGraphic" in2="effect1_dropShadow_13_52" result="shape"/>
</filter>
<filter id="filter15_d_13_52" x="961" y="160" width="134" height="110" filterUnits="userSpaceOnUse" color-interpolation-filters="sRGB">
<feFlood flood-opacity="0" result="BackgroundImageFix"/>
<feColorMatrix in="SourceAlpha" type="matrix" values="0 0 0 0 0 0 0 0 0 0 0 0 0 0 0 0 0 0 127 0" result="hardAlpha"/>
<feOffset dy="4"/>
<feGaussianBlur stdDeviation="2"/>
<feComposite in2="hardAlpha" operator="out"/>
<feColorMatrix type="matrix" values="0 0 0 0 0 0 0 0 0 0 0 0 0 0 0 0 0 0 0.25 0"/>
<feBlend mode="normal" in2="BackgroundImageFix" result="effect1_dropShadow_13_52"/>
<feBlend mode="normal" in="SourceGraphic" in2="effect1_dropShadow_13_52" result="shape"/>
</filter>
<filter id="filter16_d_13_52" x="1089" y="160" width="53" height="78" filterUnits="userSpaceOnUse" color-interpolation-filters="sRGB">
<feFlood flood-opacity="0" result="BackgroundImageFix"/>
<feColorMatrix in="SourceAlpha" type="matrix" values="0 0 0 0 0 0 0 0 0 0 0 0 0 0 0 0 0 0 127 0" result="hardAlpha"/>
<feOffset dy="4"/>
<feGaussianBlur stdDeviation="2"/>
<feComposite in2="hardAlpha" operator="out"/>
<feColorMatrix type="matrix" values="0 0 0 0 0 0 0 0 0 0 0 0 0 0 0 0 0 0 0.25 0"/>
<feBlend mode="normal" in2="BackgroundImageFix" result="effect1_dropShadow_13_52"/>
<feBlend mode="normal" in="SourceGraphic" in2="effect1_dropShadow_13_52" result="shape"/>
</filter>
</defs>
</svg>
