<svg width="1227" height="757" viewBox="0 0 1227 757" fill="none" xmlns="http://www.w3.org/2000/svg">
<rect width="1227" height="757" fill="#1E1E1E"/>
<g id="Frame 1">
<rect width="1227" height="757" fill="white"/>
<path id="Rectangle 18" d="M99 89.5H533V70H613.5V89.5H1166.5V256H1118L1117.63 312.5H708.626C708.626 328.5 678.639 334.069 674 312.5H665.5V388C648.441 386.311 640.748 383.138 635 368V320.5C627.16 317.906 624.368 314.657 621.5 306.5H528C524.736 316.124 522.232 319.51 512.5 322.666V372.166C507.149 381.109 502.467 386.621 493 387.5V624.5H275V699.5H99V497.5H448V253H99V89.5Z" fill="#7E7E7E"/>
<g id="Group 1" filter="url(#filter0_f_9_54)">
<line id="Line 1" x1="229" y1="520" x2="229" y2="538" stroke="#4674FF" stroke-width="10"/>
<path id="Line 2" d="M297 541H315" stroke="#4674FF" stroke-width="10"/>
<line id="Line 3" x1="441" y1="541" x2="459" y2="541" stroke="#4674FF" stroke-width="10"/>
<line id="Line 4" x1="262" y1="200" x2="244" y2="200" stroke="#4674FF" stroke-width="10"/>
<line id="Line 5" x1="312" y1="200" x2="330" y2="200" stroke="#4674FF" stroke-width="10"/>
<line id="Line 6" x1="512" y1="200" x2="494" y2="200" stroke="#4674FF" stroke-width="10"/>
<path id="Line 7" d="M711 200H693" stroke="#4674FF" stroke-width="10"/>
<path id="Line 8" d="M819 200H837" stroke="#4674FF" stroke-width="10"/>
<line id="Line 9" x1="951" y1="200" x2="969" y2="200" stroke="#4674FF" stroke-width="10"/>
<line id="Line 10" x1="1083" y1="200" x2="1101" y2="200" stroke="#4674FF" stroke-width="10"/>
<line id="Line 11" x1="565" y1="251" x2="583" y2="251" stroke="#4674FF" stroke-width="10"/>
<line id="Line 12" x1="502" y1="251" x2="520" y2="251" stroke="#4674FF" stroke-width="10"/>
<line id="Line 13" x1="627" y1="251" x2="645" y2="251" stroke="#4674FF" stroke-width="10"/>
<line id="Line 14" x1="684" y1="251" x2="702" y2="251" stroke="#4674FF" stroke-width="10"/>
</g>
<g id="309a" filter="url(#filter1_d_9_54)">
<rect x="103" y="502" width="126" height="194" fill="#D9D9D9"/>
</g>
<g id="308a" filter="url(#filter2_d_9_54)">
<rect x="278" y="541" width="139" height="81" fill="#D9D9D9"/>
</g>
<g id="teachers" filter="url(#filter3_d_9_54)">
<rect x="419" y="541" width="69" height="81" fill="#D9D9D9"/>
</g>
<g id="control room" filter="url(#filter4_d_9_54)">
<rect x="543" y="251" width="63" height="53" fill="#D9D9D9"/>
</g>
<g id="balcony-1" filter="url(#filter5_d_9_54)">
<path d="M488 251H541V304H525C522.295 313.757 518.837 317.067 510 320V369C506.054 379.892 501.628 383.787 488 385V251Z" fill="#D9D9D9"/>
</g>
<g id="balcony-2" filter="url(#filter6_d_9_54)">
<path d="M608 251H663V385C647.497 383.29 642.863 379.264 640 368V320.5C628.957 317.272 626.612 312.883 624 304H608V251Z" fill="#D9D9D9"/>
</g>
<g id="Rectangle 7" filter="url(#filter7_d_9_54)">
<path d="M665 251H723V310H708C704.772 328.362 679.684 328.761 676.5 310H665V251Z" fill="#D9D9D9"/>
</g>
<g id="wc-5a" filter="url(#filter8_d_9_54)">
<rect x="104" y="96" width="46" height="91" fill="#D9D9D9"/>
</g>
<g id="301a" filter="url(#filter9_d_9_54)">
<rect x="152" y="96" width="135" height="104" fill="#D9D9D9"/>
</g>
<g id="302a" filter="url(#filter10_d_9_54)">
<rect x="289" y="96" width="124" height="104" fill="#D9D9D9"/>
</g>
<g id="303a" filter="url(#filter11_d_9_54)">
<rect x="415" y="96" width="118" height="104" fill="#D9D9D9"/>
</g>
<g id="304a" filter="url(#filter12_d_9_54)">
<rect x="613" y="96" width="117" height="104" fill="#D9D9D9"/>
</g>
<g id="305a" filter="url(#filter13_d_9_54)">
<rect x="732" y="96" width="128" height="104" fill="#D9D9D9"/>
</g>
<g id="306a" filter="url(#filter14_d_9_54)">
<rect x="862" y="96" width="126" height="104" fill="#D9D9D9"/>
</g>
<g id="307a" filter="url(#filter15_d_9_54)">
<rect x="990" y="96" width="127" height="104" fill="#D9D9D9"/>
</g>
<g id="wc-4a" filter="url(#filter16_d_9_54)">
<rect x="1119" y="96" width="43" height="82" fill="#D9D9D9"/>
</g>
<g id="Rectangle 17" filter="url(#filter17_d_9_54)">
<rect x="759" y="251" width="231" height="59" fill="#D9D9D9"/>
</g>
<path id="309&#208;&#176;" d="M127.489 613.318C125.792 613.318 124.28 613.027 122.955 612.443C121.636 611.852 120.595 611.042 119.83 610.011C119.072 608.973 118.682 607.777 118.659 606.42H123.614C123.644 606.989 123.83 607.489 124.17 607.92C124.519 608.345 124.981 608.674 125.557 608.909C126.133 609.144 126.78 609.261 127.5 609.261C128.25 609.261 128.913 609.129 129.489 608.864C130.064 608.598 130.515 608.231 130.841 607.761C131.167 607.292 131.33 606.75 131.33 606.136C131.33 605.515 131.155 604.966 130.807 604.489C130.466 604.004 129.973 603.625 129.33 603.352C128.693 603.08 127.936 602.943 127.057 602.943H124.886V599.33H127.057C127.799 599.33 128.455 599.201 129.023 598.943C129.598 598.686 130.045 598.33 130.364 597.875C130.682 597.413 130.841 596.875 130.841 596.261C130.841 595.678 130.701 595.167 130.42 594.727C130.148 594.28 129.761 593.932 129.261 593.682C128.769 593.432 128.193 593.307 127.534 593.307C126.867 593.307 126.258 593.428 125.705 593.67C125.152 593.905 124.708 594.242 124.375 594.682C124.042 595.121 123.864 595.636 123.841 596.227H119.125C119.148 594.886 119.53 593.705 120.273 592.682C121.015 591.659 122.015 590.86 123.273 590.284C124.538 589.701 125.966 589.409 127.557 589.409C129.163 589.409 130.568 589.701 131.773 590.284C132.977 590.867 133.913 591.655 134.58 592.648C135.254 593.633 135.587 594.739 135.58 595.966C135.587 597.269 135.182 598.356 134.364 599.227C133.553 600.098 132.496 600.652 131.193 600.886V601.068C132.905 601.288 134.208 601.883 135.102 602.852C136.004 603.814 136.451 605.019 136.443 606.466C136.451 607.792 136.068 608.97 135.295 610C134.53 611.03 133.473 611.841 132.125 612.432C130.777 613.023 129.231 613.318 127.489 613.318ZM149.105 613.511C147.151 613.504 145.469 613.023 144.06 612.068C142.658 611.114 141.579 609.731 140.821 607.92C140.071 606.11 139.7 603.932 139.707 601.386C139.707 598.848 140.082 596.686 140.832 594.898C141.59 593.11 142.67 591.75 144.071 590.818C145.48 589.879 147.158 589.409 149.105 589.409C151.052 589.409 152.726 589.879 154.128 590.818C155.537 591.758 156.62 593.121 157.378 594.909C158.135 596.689 158.51 598.848 158.503 601.386C158.503 603.939 158.124 606.121 157.366 607.932C156.616 609.742 155.541 611.125 154.139 612.08C152.738 613.034 151.06 613.511 149.105 613.511ZM149.105 609.432C150.438 609.432 151.503 608.761 152.298 607.42C153.094 606.08 153.488 604.068 153.48 601.386C153.48 599.621 153.298 598.152 152.935 596.977C152.579 595.803 152.071 594.92 151.412 594.33C150.76 593.739 149.991 593.443 149.105 593.443C147.779 593.443 146.719 594.106 145.923 595.432C145.128 596.758 144.726 598.742 144.719 601.386C144.719 603.174 144.897 604.667 145.253 605.864C145.616 607.053 146.128 607.947 146.787 608.545C147.446 609.136 148.219 609.432 149.105 609.432ZM170.432 589.409C171.629 589.409 172.78 589.61 173.886 590.011C175 590.413 175.992 591.053 176.864 591.932C177.742 592.811 178.436 593.977 178.943 595.432C179.458 596.879 179.72 598.655 179.727 600.761C179.727 602.739 179.504 604.504 179.057 606.057C178.617 607.602 177.985 608.917 177.159 610C176.333 611.083 175.337 611.909 174.17 612.477C173.004 613.038 171.701 613.318 170.261 613.318C168.708 613.318 167.337 613.019 166.148 612.42C164.958 611.814 164 610.992 163.273 609.955C162.553 608.909 162.117 607.735 161.966 606.432H166.818C167.008 607.28 167.405 607.939 168.011 608.409C168.617 608.871 169.367 609.102 170.261 609.102C171.777 609.102 172.928 608.443 173.716 607.125C174.504 605.799 174.902 603.985 174.909 601.682H174.75C174.402 602.364 173.932 602.951 173.341 603.443C172.75 603.928 172.072 604.303 171.307 604.568C170.549 604.833 169.742 604.966 168.886 604.966C167.515 604.966 166.292 604.644 165.216 604C164.14 603.356 163.292 602.47 162.67 601.341C162.049 600.212 161.739 598.924 161.739 597.477C161.731 595.917 162.091 594.527 162.818 593.307C163.545 592.087 164.561 591.133 165.864 590.443C167.174 589.746 168.697 589.402 170.432 589.409ZM170.466 593.273C169.701 593.273 169.019 593.455 168.42 593.818C167.83 594.182 167.36 594.67 167.011 595.284C166.67 595.898 166.504 596.583 166.511 597.341C166.511 598.106 166.678 598.795 167.011 599.409C167.352 600.015 167.814 600.5 168.398 600.864C168.989 601.22 169.663 601.398 170.42 601.398C170.989 601.398 171.515 601.292 172 601.08C172.485 600.867 172.905 600.576 173.261 600.205C173.625 599.826 173.909 599.39 174.114 598.898C174.318 598.405 174.42 597.883 174.42 597.33C174.413 596.595 174.239 595.92 173.898 595.307C173.557 594.693 173.087 594.201 172.489 593.83C171.89 593.458 171.216 593.273 170.466 593.273ZM188.159 613.33C187.045 613.33 186.053 613.136 185.182 612.75C184.311 612.356 183.621 611.777 183.114 611.011C182.614 610.239 182.364 609.277 182.364 608.125C182.364 607.155 182.542 606.341 182.898 605.682C183.254 605.023 183.739 604.492 184.352 604.091C184.966 603.689 185.663 603.386 186.443 603.182C187.231 602.977 188.057 602.833 188.92 602.75C189.936 602.644 190.754 602.545 191.375 602.455C191.996 602.356 192.447 602.212 192.727 602.023C193.008 601.833 193.148 601.553 193.148 601.182V601.114C193.148 600.394 192.92 599.837 192.466 599.443C192.019 599.049 191.383 598.852 190.557 598.852C189.686 598.852 188.992 599.045 188.477 599.432C187.962 599.811 187.621 600.288 187.455 600.864L182.977 600.5C183.205 599.439 183.652 598.523 184.318 597.75C184.985 596.97 185.845 596.371 186.898 595.955C187.958 595.53 189.186 595.318 190.58 595.318C191.549 595.318 192.477 595.432 193.364 595.659C194.258 595.886 195.049 596.239 195.739 596.716C196.436 597.193 196.985 597.807 197.386 598.557C197.788 599.299 197.989 600.189 197.989 601.227V613H193.398V610.58H193.261C192.981 611.125 192.606 611.606 192.136 612.023C191.667 612.432 191.102 612.754 190.443 612.989C189.784 613.216 189.023 613.33 188.159 613.33ZM189.545 609.989C190.258 609.989 190.886 609.848 191.432 609.568C191.977 609.28 192.405 608.894 192.716 608.409C193.027 607.924 193.182 607.375 193.182 606.761V604.909C193.03 605.008 192.822 605.098 192.557 605.182C192.299 605.258 192.008 605.33 191.682 605.398C191.356 605.458 191.03 605.515 190.705 605.568C190.379 605.614 190.083 605.655 189.818 605.693C189.25 605.777 188.754 605.909 188.33 606.091C187.905 606.273 187.576 606.519 187.341 606.83C187.106 607.133 186.989 607.511 186.989 607.966C186.989 608.625 187.227 609.129 187.705 609.477C188.189 609.818 188.803 609.989 189.545 609.989Z" fill="#7E7E7E"/>
<path id="308&#208;&#176;" d="M310.489 592.318C308.792 592.318 307.28 592.027 305.955 591.443C304.636 590.852 303.595 590.042 302.83 589.011C302.072 587.973 301.682 586.777 301.659 585.42H306.614C306.644 585.989 306.83 586.489 307.17 586.92C307.519 587.345 307.981 587.674 308.557 587.909C309.133 588.144 309.78 588.261 310.5 588.261C311.25 588.261 311.913 588.129 312.489 587.864C313.064 587.598 313.515 587.231 313.841 586.761C314.167 586.292 314.33 585.75 314.33 585.136C314.33 584.515 314.155 583.966 313.807 583.489C313.466 583.004 312.973 582.625 312.33 582.352C311.693 582.08 310.936 581.943 310.057 581.943H307.886V578.33H310.057C310.799 578.33 311.455 578.201 312.023 577.943C312.598 577.686 313.045 577.33 313.364 576.875C313.682 576.413 313.841 575.875 313.841 575.261C313.841 574.678 313.701 574.167 313.42 573.727C313.148 573.28 312.761 572.932 312.261 572.682C311.769 572.432 311.193 572.307 310.534 572.307C309.867 572.307 309.258 572.428 308.705 572.67C308.152 572.905 307.708 573.242 307.375 573.682C307.042 574.121 306.864 574.636 306.841 575.227H302.125C302.148 573.886 302.53 572.705 303.273 571.682C304.015 570.659 305.015 569.86 306.273 569.284C307.538 568.701 308.966 568.409 310.557 568.409C312.163 568.409 313.568 568.701 314.773 569.284C315.977 569.867 316.913 570.655 317.58 571.648C318.254 572.633 318.587 573.739 318.58 574.966C318.587 576.269 318.182 577.356 317.364 578.227C316.553 579.098 315.496 579.652 314.193 579.886V580.068C315.905 580.288 317.208 580.883 318.102 581.852C319.004 582.814 319.451 584.019 319.443 585.466C319.451 586.792 319.068 587.97 318.295 589C317.53 590.03 316.473 590.841 315.125 591.432C313.777 592.023 312.231 592.318 310.489 592.318ZM332.105 592.511C330.151 592.504 328.469 592.023 327.06 591.068C325.658 590.114 324.579 588.731 323.821 586.92C323.071 585.11 322.7 582.932 322.707 580.386C322.707 577.848 323.082 575.686 323.832 573.898C324.59 572.11 325.67 570.75 327.071 569.818C328.48 568.879 330.158 568.409 332.105 568.409C334.052 568.409 335.726 568.879 337.128 569.818C338.537 570.758 339.62 572.121 340.378 573.909C341.135 575.689 341.51 577.848 341.503 580.386C341.503 582.939 341.124 585.121 340.366 586.932C339.616 588.742 338.541 590.125 337.139 591.08C335.738 592.034 334.06 592.511 332.105 592.511ZM332.105 588.432C333.438 588.432 334.503 587.761 335.298 586.42C336.094 585.08 336.488 583.068 336.48 580.386C336.48 578.621 336.298 577.152 335.935 575.977C335.579 574.803 335.071 573.92 334.412 573.33C333.76 572.739 332.991 572.443 332.105 572.443C330.779 572.443 329.719 573.106 328.923 574.432C328.128 575.758 327.726 577.742 327.719 580.386C327.719 582.174 327.897 583.667 328.253 584.864C328.616 586.053 329.128 586.947 329.787 587.545C330.446 588.136 331.219 588.432 332.105 588.432ZM353.693 592.318C351.943 592.318 350.386 592.034 349.023 591.466C347.667 590.89 346.602 590.106 345.83 589.114C345.057 588.121 344.67 586.996 344.67 585.739C344.67 584.769 344.89 583.879 345.33 583.068C345.777 582.25 346.383 581.572 347.148 581.034C347.913 580.489 348.769 580.14 349.716 579.989V579.83C348.473 579.58 347.466 578.977 346.693 578.023C345.92 577.061 345.534 575.943 345.534 574.67C345.534 573.466 345.886 572.394 346.591 571.455C347.295 570.508 348.261 569.765 349.489 569.227C350.723 568.682 352.125 568.409 353.693 568.409C355.261 568.409 356.659 568.682 357.886 569.227C359.121 569.773 360.091 570.519 360.795 571.466C361.5 572.405 361.856 573.473 361.864 574.67C361.856 575.951 361.462 577.068 360.682 578.023C359.902 578.977 358.902 579.58 357.682 579.83V579.989C358.614 580.14 359.458 580.489 360.216 581.034C360.981 581.572 361.587 582.25 362.034 583.068C362.489 583.879 362.72 584.769 362.727 585.739C362.72 586.996 362.33 588.121 361.557 589.114C360.784 590.106 359.716 590.89 358.352 591.466C356.996 592.034 355.443 592.318 353.693 592.318ZM353.693 588.705C354.473 588.705 355.155 588.564 355.739 588.284C356.322 587.996 356.777 587.602 357.102 587.102C357.436 586.595 357.602 586.011 357.602 585.352C357.602 584.678 357.432 584.083 357.091 583.568C356.75 583.045 356.288 582.636 355.705 582.341C355.121 582.038 354.451 581.886 353.693 581.886C352.943 581.886 352.273 582.038 351.682 582.341C351.091 582.636 350.625 583.045 350.284 583.568C349.951 584.083 349.784 584.678 349.784 585.352C349.784 586.011 349.947 586.595 350.273 587.102C350.598 587.602 351.057 587.996 351.648 588.284C352.239 588.564 352.92 588.705 353.693 588.705ZM353.693 578.307C354.345 578.307 354.924 578.174 355.432 577.909C355.939 577.644 356.337 577.277 356.625 576.807C356.913 576.337 357.057 575.795 357.057 575.182C357.057 574.576 356.913 574.045 356.625 573.591C356.337 573.129 355.943 572.769 355.443 572.511C354.943 572.246 354.36 572.114 353.693 572.114C353.034 572.114 352.451 572.246 351.943 572.511C351.436 572.769 351.038 573.129 350.75 573.591C350.47 574.045 350.33 574.576 350.33 575.182C350.33 575.795 350.473 576.337 350.761 576.807C351.049 577.277 351.447 577.644 351.955 577.909C352.462 578.174 353.042 578.307 353.693 578.307ZM371.19 592.33C370.077 592.33 369.084 592.136 368.213 591.75C367.342 591.356 366.652 590.777 366.145 590.011C365.645 589.239 365.395 588.277 365.395 587.125C365.395 586.155 365.573 585.341 365.929 584.682C366.285 584.023 366.77 583.492 367.384 583.091C367.997 582.689 368.694 582.386 369.474 582.182C370.262 581.977 371.088 581.833 371.952 581.75C372.967 581.644 373.785 581.545 374.406 581.455C375.027 581.356 375.478 581.212 375.759 581.023C376.039 580.833 376.179 580.553 376.179 580.182V580.114C376.179 579.394 375.952 578.837 375.497 578.443C375.05 578.049 374.414 577.852 373.588 577.852C372.717 577.852 372.024 578.045 371.509 578.432C370.993 578.811 370.652 579.288 370.486 579.864L366.009 579.5C366.236 578.439 366.683 577.523 367.349 576.75C368.016 575.97 368.876 575.371 369.929 574.955C370.99 574.53 372.217 574.318 373.611 574.318C374.58 574.318 375.509 574.432 376.395 574.659C377.289 574.886 378.08 575.239 378.77 575.716C379.467 576.193 380.016 576.807 380.418 577.557C380.819 578.299 381.02 579.189 381.02 580.227V592H376.429V589.58H376.293C376.012 590.125 375.637 590.606 375.168 591.023C374.698 591.432 374.134 591.754 373.474 591.989C372.815 592.216 372.054 592.33 371.19 592.33ZM372.577 588.989C373.289 588.989 373.918 588.848 374.463 588.568C375.009 588.28 375.437 587.894 375.747 587.409C376.058 586.924 376.213 586.375 376.213 585.761V583.909C376.062 584.008 375.853 584.098 375.588 584.182C375.33 584.258 375.039 584.33 374.713 584.398C374.387 584.458 374.062 584.515 373.736 584.568C373.41 584.614 373.115 584.655 372.849 584.693C372.281 584.777 371.785 584.909 371.361 585.091C370.937 585.273 370.607 585.519 370.372 585.83C370.137 586.133 370.02 586.511 370.02 586.966C370.02 587.625 370.259 588.129 370.736 588.477C371.221 588.818 371.834 588.989 372.577 588.989Z" fill="#7E7E7E"/>
<path id="301&#208;&#176;" d="M186.489 159.318C184.792 159.318 183.28 159.027 181.955 158.443C180.636 157.852 179.595 157.042 178.83 156.011C178.072 154.973 177.682 153.777 177.659 152.42H182.614C182.644 152.989 182.83 153.489 183.17 153.92C183.519 154.345 183.981 154.674 184.557 154.909C185.133 155.144 185.78 155.261 186.5 155.261C187.25 155.261 187.913 155.129 188.489 154.864C189.064 154.598 189.515 154.231 189.841 153.761C190.167 153.292 190.33 152.75 190.33 152.136C190.33 151.515 190.155 150.966 189.807 150.489C189.466 150.004 188.973 149.625 188.33 149.352C187.693 149.08 186.936 148.943 186.057 148.943H183.886V145.33H186.057C186.799 145.33 187.455 145.201 188.023 144.943C188.598 144.686 189.045 144.33 189.364 143.875C189.682 143.413 189.841 142.875 189.841 142.261C189.841 141.678 189.701 141.167 189.42 140.727C189.148 140.28 188.761 139.932 188.261 139.682C187.769 139.432 187.193 139.307 186.534 139.307C185.867 139.307 185.258 139.428 184.705 139.67C184.152 139.905 183.708 140.242 183.375 140.682C183.042 141.121 182.864 141.636 182.841 142.227H178.125C178.148 140.886 178.53 139.705 179.273 138.682C180.015 137.659 181.015 136.86 182.273 136.284C183.538 135.701 184.966 135.409 186.557 135.409C188.163 135.409 189.568 135.701 190.773 136.284C191.977 136.867 192.913 137.655 193.58 138.648C194.254 139.633 194.587 140.739 194.58 141.966C194.587 143.269 194.182 144.356 193.364 145.227C192.553 146.098 191.496 146.652 190.193 146.886V147.068C191.905 147.288 193.208 147.883 194.102 148.852C195.004 149.814 195.451 151.019 195.443 152.466C195.451 153.792 195.068 154.97 194.295 156C193.53 157.03 192.473 157.841 191.125 158.432C189.777 159.023 188.231 159.318 186.489 159.318ZM208.105 159.511C206.151 159.504 204.469 159.023 203.06 158.068C201.658 157.114 200.579 155.731 199.821 153.92C199.071 152.11 198.7 149.932 198.707 147.386C198.707 144.848 199.082 142.686 199.832 140.898C200.59 139.11 201.67 137.75 203.071 136.818C204.48 135.879 206.158 135.409 208.105 135.409C210.052 135.409 211.726 135.879 213.128 136.818C214.537 137.758 215.62 139.121 216.378 140.909C217.135 142.689 217.51 144.848 217.503 147.386C217.503 149.939 217.124 152.121 216.366 153.932C215.616 155.742 214.541 157.125 213.139 158.08C211.738 159.034 210.06 159.511 208.105 159.511ZM208.105 155.432C209.438 155.432 210.503 154.761 211.298 153.42C212.094 152.08 212.488 150.068 212.48 147.386C212.48 145.621 212.298 144.152 211.935 142.977C211.579 141.803 211.071 140.92 210.412 140.33C209.76 139.739 208.991 139.443 208.105 139.443C206.779 139.443 205.719 140.106 204.923 141.432C204.128 142.758 203.726 144.742 203.719 147.386C203.719 149.174 203.897 150.667 204.253 151.864C204.616 153.053 205.128 153.947 205.787 154.545C206.446 155.136 207.219 155.432 208.105 155.432ZM231.136 135.727V159H226.216V140.398H226.08L220.75 143.739V139.375L226.511 135.727H231.136ZM241.69 159.33C240.577 159.33 239.584 159.136 238.713 158.75C237.842 158.356 237.152 157.777 236.645 157.011C236.145 156.239 235.895 155.277 235.895 154.125C235.895 153.155 236.073 152.341 236.429 151.682C236.785 151.023 237.27 150.492 237.884 150.091C238.497 149.689 239.194 149.386 239.974 149.182C240.762 148.977 241.588 148.833 242.452 148.75C243.467 148.644 244.285 148.545 244.906 148.455C245.527 148.356 245.978 148.212 246.259 148.023C246.539 147.833 246.679 147.553 246.679 147.182V147.114C246.679 146.394 246.452 145.837 245.997 145.443C245.55 145.049 244.914 144.852 244.088 144.852C243.217 144.852 242.524 145.045 242.009 145.432C241.493 145.811 241.152 146.288 240.986 146.864L236.509 146.5C236.736 145.439 237.183 144.523 237.849 143.75C238.516 142.97 239.376 142.371 240.429 141.955C241.49 141.53 242.717 141.318 244.111 141.318C245.08 141.318 246.009 141.432 246.895 141.659C247.789 141.886 248.58 142.239 249.27 142.716C249.967 143.193 250.516 143.807 250.918 144.557C251.319 145.299 251.52 146.189 251.52 147.227V159H246.929V156.58H246.793C246.512 157.125 246.137 157.606 245.668 158.023C245.198 158.432 244.634 158.754 243.974 158.989C243.315 159.216 242.554 159.33 241.69 159.33ZM243.077 155.989C243.789 155.989 244.418 155.848 244.963 155.568C245.509 155.28 245.937 154.894 246.247 154.409C246.558 153.924 246.713 153.375 246.713 152.761V150.909C246.562 151.008 246.353 151.098 246.088 151.182C245.83 151.258 245.539 151.33 245.213 151.398C244.887 151.458 244.562 151.515 244.236 151.568C243.91 151.614 243.615 151.655 243.349 151.693C242.781 151.777 242.285 151.909 241.861 152.091C241.437 152.273 241.107 152.519 240.872 152.83C240.637 153.133 240.52 153.511 240.52 153.966C240.52 154.625 240.759 155.129 241.236 155.477C241.721 155.818 242.334 155.989 243.077 155.989Z" fill="#7E7E7E"/>
<path id="302&#208;&#176;" d="M320.489 159.318C318.792 159.318 317.28 159.027 315.955 158.443C314.636 157.852 313.595 157.042 312.83 156.011C312.072 154.973 311.682 153.777 311.659 152.42H316.614C316.644 152.989 316.83 153.489 317.17 153.92C317.519 154.345 317.981 154.674 318.557 154.909C319.133 155.144 319.78 155.261 320.5 155.261C321.25 155.261 321.913 155.129 322.489 154.864C323.064 154.598 323.515 154.231 323.841 153.761C324.167 153.292 324.33 152.75 324.33 152.136C324.33 151.515 324.155 150.966 323.807 150.489C323.466 150.004 322.973 149.625 322.33 149.352C321.693 149.08 320.936 148.943 320.057 148.943H317.886V145.33H320.057C320.799 145.33 321.455 145.201 322.023 144.943C322.598 144.686 323.045 144.33 323.364 143.875C323.682 143.413 323.841 142.875 323.841 142.261C323.841 141.678 323.701 141.167 323.42 140.727C323.148 140.28 322.761 139.932 322.261 139.682C321.769 139.432 321.193 139.307 320.534 139.307C319.867 139.307 319.258 139.428 318.705 139.67C318.152 139.905 317.708 140.242 317.375 140.682C317.042 141.121 316.864 141.636 316.841 142.227H312.125C312.148 140.886 312.53 139.705 313.273 138.682C314.015 137.659 315.015 136.86 316.273 136.284C317.538 135.701 318.966 135.409 320.557 135.409C322.163 135.409 323.568 135.701 324.773 136.284C325.977 136.867 326.913 137.655 327.58 138.648C328.254 139.633 328.587 140.739 328.58 141.966C328.587 143.269 328.182 144.356 327.364 145.227C326.553 146.098 325.496 146.652 324.193 146.886V147.068C325.905 147.288 327.208 147.883 328.102 148.852C329.004 149.814 329.451 151.019 329.443 152.466C329.451 153.792 329.068 154.97 328.295 156C327.53 157.03 326.473 157.841 325.125 158.432C323.777 159.023 322.231 159.318 320.489 159.318ZM342.105 159.511C340.151 159.504 338.469 159.023 337.06 158.068C335.658 157.114 334.579 155.731 333.821 153.92C333.071 152.11 332.7 149.932 332.707 147.386C332.707 144.848 333.082 142.686 333.832 140.898C334.59 139.11 335.67 137.75 337.071 136.818C338.48 135.879 340.158 135.409 342.105 135.409C344.052 135.409 345.726 135.879 347.128 136.818C348.537 137.758 349.62 139.121 350.378 140.909C351.135 142.689 351.51 144.848 351.503 147.386C351.503 149.939 351.124 152.121 350.366 153.932C349.616 155.742 348.541 157.125 347.139 158.08C345.738 159.034 344.06 159.511 342.105 159.511ZM342.105 155.432C343.438 155.432 344.503 154.761 345.298 153.42C346.094 152.08 346.488 150.068 346.48 147.386C346.48 145.621 346.298 144.152 345.935 142.977C345.579 141.803 345.071 140.92 344.412 140.33C343.76 139.739 342.991 139.443 342.105 139.443C340.779 139.443 339.719 140.106 338.923 141.432C338.128 142.758 337.726 144.742 337.719 147.386C337.719 149.174 337.897 150.667 338.253 151.864C338.616 153.053 339.128 153.947 339.787 154.545C340.446 155.136 341.219 155.432 342.105 155.432ZM355.011 159V155.455L363.295 147.784C364 147.102 364.591 146.489 365.068 145.943C365.553 145.398 365.92 144.864 366.17 144.341C366.42 143.811 366.545 143.239 366.545 142.625C366.545 141.943 366.39 141.356 366.08 140.864C365.769 140.364 365.345 139.981 364.807 139.716C364.269 139.443 363.659 139.307 362.977 139.307C362.265 139.307 361.644 139.451 361.114 139.739C360.583 140.027 360.174 140.439 359.886 140.977C359.598 141.515 359.455 142.155 359.455 142.898H354.784C354.784 141.375 355.129 140.053 355.818 138.932C356.508 137.811 357.473 136.943 358.716 136.33C359.958 135.716 361.39 135.409 363.011 135.409C364.678 135.409 366.129 135.705 367.364 136.295C368.606 136.879 369.572 137.689 370.261 138.727C370.951 139.765 371.295 140.955 371.295 142.295C371.295 143.174 371.121 144.042 370.773 144.898C370.432 145.754 369.822 146.705 368.943 147.75C368.064 148.788 366.826 150.034 365.227 151.489L361.83 154.818V154.977H371.602V159H355.011ZM380.19 159.33C379.077 159.33 378.084 159.136 377.213 158.75C376.342 158.356 375.652 157.777 375.145 157.011C374.645 156.239 374.395 155.277 374.395 154.125C374.395 153.155 374.573 152.341 374.929 151.682C375.285 151.023 375.77 150.492 376.384 150.091C376.997 149.689 377.694 149.386 378.474 149.182C379.262 148.977 380.088 148.833 380.952 148.75C381.967 148.644 382.785 148.545 383.406 148.455C384.027 148.356 384.478 148.212 384.759 148.023C385.039 147.833 385.179 147.553 385.179 147.182V147.114C385.179 146.394 384.952 145.837 384.497 145.443C384.05 145.049 383.414 144.852 382.588 144.852C381.717 144.852 381.024 145.045 380.509 145.432C379.993 145.811 379.652 146.288 379.486 146.864L375.009 146.5C375.236 145.439 375.683 144.523 376.349 143.75C377.016 142.97 377.876 142.371 378.929 141.955C379.99 141.53 381.217 141.318 382.611 141.318C383.58 141.318 384.509 141.432 385.395 141.659C386.289 141.886 387.08 142.239 387.77 142.716C388.467 143.193 389.016 143.807 389.418 144.557C389.819 145.299 390.02 146.189 390.02 147.227V159H385.429V156.58H385.293C385.012 157.125 384.637 157.606 384.168 158.023C383.698 158.432 383.134 158.754 382.474 158.989C381.815 159.216 381.054 159.33 380.19 159.33ZM381.577 155.989C382.289 155.989 382.918 155.848 383.463 155.568C384.009 155.28 384.437 154.894 384.747 154.409C385.058 153.924 385.213 153.375 385.213 152.761V150.909C385.062 151.008 384.853 151.098 384.588 151.182C384.33 151.258 384.039 151.33 383.713 151.398C383.387 151.458 383.062 151.515 382.736 151.568C382.41 151.614 382.115 151.655 381.849 151.693C381.281 151.777 380.785 151.909 380.361 152.091C379.937 152.273 379.607 152.519 379.372 152.83C379.137 153.133 379.02 153.511 379.02 153.966C379.02 154.625 379.259 155.129 379.736 155.477C380.221 155.818 380.834 155.989 381.577 155.989Z" fill="#7E7E7E"/>
<path id="303&#208;&#176;" d="M436.489 159.318C434.792 159.318 433.28 159.027 431.955 158.443C430.636 157.852 429.595 157.042 428.83 156.011C428.072 154.973 427.682 153.777 427.659 152.42H432.614C432.644 152.989 432.83 153.489 433.17 153.92C433.519 154.345 433.981 154.674 434.557 154.909C435.133 155.144 435.78 155.261 436.5 155.261C437.25 155.261 437.913 155.129 438.489 154.864C439.064 154.598 439.515 154.231 439.841 153.761C440.167 153.292 440.33 152.75 440.33 152.136C440.33 151.515 440.155 150.966 439.807 150.489C439.466 150.004 438.973 149.625 438.33 149.352C437.693 149.08 436.936 148.943 436.057 148.943H433.886V145.33H436.057C436.799 145.33 437.455 145.201 438.023 144.943C438.598 144.686 439.045 144.33 439.364 143.875C439.682 143.413 439.841 142.875 439.841 142.261C439.841 141.678 439.701 141.167 439.42 140.727C439.148 140.28 438.761 139.932 438.261 139.682C437.769 139.432 437.193 139.307 436.534 139.307C435.867 139.307 435.258 139.428 434.705 139.67C434.152 139.905 433.708 140.242 433.375 140.682C433.042 141.121 432.864 141.636 432.841 142.227H428.125C428.148 140.886 428.53 139.705 429.273 138.682C430.015 137.659 431.015 136.86 432.273 136.284C433.538 135.701 434.966 135.409 436.557 135.409C438.163 135.409 439.568 135.701 440.773 136.284C441.977 136.867 442.913 137.655 443.58 138.648C444.254 139.633 444.587 140.739 444.58 141.966C444.587 143.269 444.182 144.356 443.364 145.227C442.553 146.098 441.496 146.652 440.193 146.886V147.068C441.905 147.288 443.208 147.883 444.102 148.852C445.004 149.814 445.451 151.019 445.443 152.466C445.451 153.792 445.068 154.97 444.295 156C443.53 157.03 442.473 157.841 441.125 158.432C439.777 159.023 438.231 159.318 436.489 159.318ZM458.105 159.511C456.151 159.504 454.469 159.023 453.06 158.068C451.658 157.114 450.579 155.731 449.821 153.92C449.071 152.11 448.7 149.932 448.707 147.386C448.707 144.848 449.082 142.686 449.832 140.898C450.59 139.11 451.67 137.75 453.071 136.818C454.48 135.879 456.158 135.409 458.105 135.409C460.052 135.409 461.726 135.879 463.128 136.818C464.537 137.758 465.62 139.121 466.378 140.909C467.135 142.689 467.51 144.848 467.503 147.386C467.503 149.939 467.124 152.121 466.366 153.932C465.616 155.742 464.541 157.125 463.139 158.08C461.738 159.034 460.06 159.511 458.105 159.511ZM458.105 155.432C459.438 155.432 460.503 154.761 461.298 153.42C462.094 152.08 462.488 150.068 462.48 147.386C462.48 145.621 462.298 144.152 461.935 142.977C461.579 141.803 461.071 140.92 460.412 140.33C459.76 139.739 458.991 139.443 458.105 139.443C456.779 139.443 455.719 140.106 454.923 141.432C454.128 142.758 453.726 144.742 453.719 147.386C453.719 149.174 453.897 150.667 454.253 151.864C454.616 153.053 455.128 153.947 455.787 154.545C456.446 155.136 457.219 155.432 458.105 155.432ZM479.614 159.318C477.917 159.318 476.405 159.027 475.08 158.443C473.761 157.852 472.72 157.042 471.955 156.011C471.197 154.973 470.807 153.777 470.784 152.42H475.739C475.769 152.989 475.955 153.489 476.295 153.92C476.644 154.345 477.106 154.674 477.682 154.909C478.258 155.144 478.905 155.261 479.625 155.261C480.375 155.261 481.038 155.129 481.614 154.864C482.189 154.598 482.64 154.231 482.966 153.761C483.292 153.292 483.455 152.75 483.455 152.136C483.455 151.515 483.28 150.966 482.932 150.489C482.591 150.004 482.098 149.625 481.455 149.352C480.818 149.08 480.061 148.943 479.182 148.943H477.011V145.33H479.182C479.924 145.33 480.58 145.201 481.148 144.943C481.723 144.686 482.17 144.33 482.489 143.875C482.807 143.413 482.966 142.875 482.966 142.261C482.966 141.678 482.826 141.167 482.545 140.727C482.273 140.28 481.886 139.932 481.386 139.682C480.894 139.432 480.318 139.307 479.659 139.307C478.992 139.307 478.383 139.428 477.83 139.67C477.277 139.905 476.833 140.242 476.5 140.682C476.167 141.121 475.989 141.636 475.966 142.227H471.25C471.273 140.886 471.655 139.705 472.398 138.682C473.14 137.659 474.14 136.86 475.398 136.284C476.663 135.701 478.091 135.409 479.682 135.409C481.288 135.409 482.693 135.701 483.898 136.284C485.102 136.867 486.038 137.655 486.705 138.648C487.379 139.633 487.712 140.739 487.705 141.966C487.712 143.269 487.307 144.356 486.489 145.227C485.678 146.098 484.621 146.652 483.318 146.886V147.068C485.03 147.288 486.333 147.883 487.227 148.852C488.129 149.814 488.576 151.019 488.568 152.466C488.576 153.792 488.193 154.97 487.42 156C486.655 157.03 485.598 157.841 484.25 158.432C482.902 159.023 481.356 159.318 479.614 159.318ZM497.128 159.33C496.014 159.33 495.022 159.136 494.151 158.75C493.279 158.356 492.59 157.777 492.082 157.011C491.582 156.239 491.332 155.277 491.332 154.125C491.332 153.155 491.51 152.341 491.866 151.682C492.223 151.023 492.707 150.492 493.321 150.091C493.935 149.689 494.632 149.386 495.412 149.182C496.2 148.977 497.026 148.833 497.889 148.75C498.904 148.644 499.723 148.545 500.344 148.455C500.965 148.356 501.416 148.212 501.696 148.023C501.976 147.833 502.116 147.553 502.116 147.182V147.114C502.116 146.394 501.889 145.837 501.435 145.443C500.988 145.049 500.351 144.852 499.526 144.852C498.654 144.852 497.961 145.045 497.446 145.432C496.931 145.811 496.59 146.288 496.423 146.864L491.946 146.5C492.173 145.439 492.62 144.523 493.287 143.75C493.954 142.97 494.813 142.371 495.866 141.955C496.927 141.53 498.154 141.318 499.548 141.318C500.518 141.318 501.446 141.432 502.332 141.659C503.226 141.886 504.018 142.239 504.707 142.716C505.404 143.193 505.954 143.807 506.355 144.557C506.757 145.299 506.957 146.189 506.957 147.227V159H502.366V156.58H502.23C501.95 157.125 501.575 157.606 501.105 158.023C500.635 158.432 500.071 158.754 499.412 158.989C498.753 159.216 497.991 159.33 497.128 159.33ZM498.514 155.989C499.226 155.989 499.855 155.848 500.401 155.568C500.946 155.28 501.374 154.894 501.685 154.409C501.995 153.924 502.151 153.375 502.151 152.761V150.909C501.999 151.008 501.791 151.098 501.526 151.182C501.268 151.258 500.976 151.33 500.651 151.398C500.325 151.458 499.999 151.515 499.673 151.568C499.348 151.614 499.052 151.655 498.787 151.693C498.219 151.777 497.723 151.909 497.298 152.091C496.874 152.273 496.545 152.519 496.31 152.83C496.075 153.133 495.957 153.511 495.957 153.966C495.957 154.625 496.196 155.129 496.673 155.477C497.158 155.818 497.772 155.989 498.514 155.989Z" fill="#7E7E7E"/>
<path id="304&#208;&#176;" d="M634.489 159.318C632.792 159.318 631.28 159.027 629.955 158.443C628.636 157.852 627.595 157.042 626.83 156.011C626.072 154.973 625.682 153.777 625.659 152.42H630.614C630.644 152.989 630.83 153.489 631.17 153.92C631.519 154.345 631.981 154.674 632.557 154.909C633.133 155.144 633.78 155.261 634.5 155.261C635.25 155.261 635.913 155.129 636.489 154.864C637.064 154.598 637.515 154.231 637.841 153.761C638.167 153.292 638.33 152.75 638.33 152.136C638.33 151.515 638.155 150.966 637.807 150.489C637.466 150.004 636.973 149.625 636.33 149.352C635.693 149.08 634.936 148.943 634.057 148.943H631.886V145.33H634.057C634.799 145.33 635.455 145.201 636.023 144.943C636.598 144.686 637.045 144.33 637.364 143.875C637.682 143.413 637.841 142.875 637.841 142.261C637.841 141.678 637.701 141.167 637.42 140.727C637.148 140.28 636.761 139.932 636.261 139.682C635.769 139.432 635.193 139.307 634.534 139.307C633.867 139.307 633.258 139.428 632.705 139.67C632.152 139.905 631.708 140.242 631.375 140.682C631.042 141.121 630.864 141.636 630.841 142.227H626.125C626.148 140.886 626.53 139.705 627.273 138.682C628.015 137.659 629.015 136.86 630.273 136.284C631.538 135.701 632.966 135.409 634.557 135.409C636.163 135.409 637.568 135.701 638.773 136.284C639.977 136.867 640.913 137.655 641.58 138.648C642.254 139.633 642.587 140.739 642.58 141.966C642.587 143.269 642.182 144.356 641.364 145.227C640.553 146.098 639.496 146.652 638.193 146.886V147.068C639.905 147.288 641.208 147.883 642.102 148.852C643.004 149.814 643.451 151.019 643.443 152.466C643.451 153.792 643.068 154.97 642.295 156C641.53 157.03 640.473 157.841 639.125 158.432C637.777 159.023 636.231 159.318 634.489 159.318ZM656.105 159.511C654.151 159.504 652.469 159.023 651.06 158.068C649.658 157.114 648.579 155.731 647.821 153.92C647.071 152.11 646.7 149.932 646.707 147.386C646.707 144.848 647.082 142.686 647.832 140.898C648.59 139.11 649.67 137.75 651.071 136.818C652.48 135.879 654.158 135.409 656.105 135.409C658.052 135.409 659.726 135.879 661.128 136.818C662.537 137.758 663.62 139.121 664.378 140.909C665.135 142.689 665.51 144.848 665.503 147.386C665.503 149.939 665.124 152.121 664.366 153.932C663.616 155.742 662.541 157.125 661.139 158.08C659.738 159.034 658.06 159.511 656.105 159.511ZM656.105 155.432C657.438 155.432 658.503 154.761 659.298 153.42C660.094 152.08 660.488 150.068 660.48 147.386C660.48 145.621 660.298 144.152 659.935 142.977C659.579 141.803 659.071 140.92 658.412 140.33C657.76 139.739 656.991 139.443 656.105 139.443C654.779 139.443 653.719 140.106 652.923 141.432C652.128 142.758 651.726 144.742 651.719 147.386C651.719 149.174 651.897 150.667 652.253 151.864C652.616 153.053 653.128 153.947 653.787 154.545C654.446 155.136 655.219 155.432 656.105 155.432ZM668.659 154.909V151.034L678.375 135.727H681.716V141.091H679.739L673.614 150.784V150.966H687.42V154.909H668.659ZM679.83 159V153.727L679.92 152.011V135.727H684.534V159H679.83ZM695.722 159.33C694.608 159.33 693.616 159.136 692.744 158.75C691.873 158.356 691.184 157.777 690.676 157.011C690.176 156.239 689.926 155.277 689.926 154.125C689.926 153.155 690.104 152.341 690.46 151.682C690.816 151.023 691.301 150.492 691.915 150.091C692.528 149.689 693.225 149.386 694.006 149.182C694.794 148.977 695.619 148.833 696.483 148.75C697.498 148.644 698.316 148.545 698.938 148.455C699.559 148.356 700.009 148.212 700.29 148.023C700.57 147.833 700.71 147.553 700.71 147.182V147.114C700.71 146.394 700.483 145.837 700.028 145.443C699.581 145.049 698.945 144.852 698.119 144.852C697.248 144.852 696.555 145.045 696.04 145.432C695.525 145.811 695.184 146.288 695.017 146.864L690.54 146.5C690.767 145.439 691.214 144.523 691.881 143.75C692.547 142.97 693.407 142.371 694.46 141.955C695.521 141.53 696.748 141.318 698.142 141.318C699.112 141.318 700.04 141.432 700.926 141.659C701.82 141.886 702.612 142.239 703.301 142.716C703.998 143.193 704.547 143.807 704.949 144.557C705.35 145.299 705.551 146.189 705.551 147.227V159H700.96V156.58H700.824C700.544 157.125 700.169 157.606 699.699 158.023C699.229 158.432 698.665 158.754 698.006 158.989C697.347 159.216 696.585 159.33 695.722 159.33ZM697.108 155.989C697.82 155.989 698.449 155.848 698.994 155.568C699.54 155.28 699.968 154.894 700.278 154.409C700.589 153.924 700.744 153.375 700.744 152.761V150.909C700.593 151.008 700.384 151.098 700.119 151.182C699.862 151.258 699.57 151.33 699.244 151.398C698.919 151.458 698.593 151.515 698.267 151.568C697.941 151.614 697.646 151.655 697.381 151.693C696.813 151.777 696.316 151.909 695.892 152.091C695.468 152.273 695.138 152.519 694.903 152.83C694.669 153.133 694.551 153.511 694.551 153.966C694.551 154.625 694.79 155.129 695.267 155.477C695.752 155.818 696.366 155.989 697.108 155.989Z" fill="#7E7E7E"/>
<path id="305&#208;&#176;" d="M755.489 158.318C753.792 158.318 752.28 158.027 750.955 157.443C749.636 156.852 748.595 156.042 747.83 155.011C747.072 153.973 746.682 152.777 746.659 151.42H751.614C751.644 151.989 751.83 152.489 752.17 152.92C752.519 153.345 752.981 153.674 753.557 153.909C754.133 154.144 754.78 154.261 755.5 154.261C756.25 154.261 756.913 154.129 757.489 153.864C758.064 153.598 758.515 153.231 758.841 152.761C759.167 152.292 759.33 151.75 759.33 151.136C759.33 150.515 759.155 149.966 758.807 149.489C758.466 149.004 757.973 148.625 757.33 148.352C756.693 148.08 755.936 147.943 755.057 147.943H752.886V144.33H755.057C755.799 144.33 756.455 144.201 757.023 143.943C757.598 143.686 758.045 143.33 758.364 142.875C758.682 142.413 758.841 141.875 758.841 141.261C758.841 140.678 758.701 140.167 758.42 139.727C758.148 139.28 757.761 138.932 757.261 138.682C756.769 138.432 756.193 138.307 755.534 138.307C754.867 138.307 754.258 138.428 753.705 138.67C753.152 138.905 752.708 139.242 752.375 139.682C752.042 140.121 751.864 140.636 751.841 141.227H747.125C747.148 139.886 747.53 138.705 748.273 137.682C749.015 136.659 750.015 135.86 751.273 135.284C752.538 134.701 753.966 134.409 755.557 134.409C757.163 134.409 758.568 134.701 759.773 135.284C760.977 135.867 761.913 136.655 762.58 137.648C763.254 138.633 763.587 139.739 763.58 140.966C763.587 142.269 763.182 143.356 762.364 144.227C761.553 145.098 760.496 145.652 759.193 145.886V146.068C760.905 146.288 762.208 146.883 763.102 147.852C764.004 148.814 764.451 150.019 764.443 151.466C764.451 152.792 764.068 153.97 763.295 155C762.53 156.03 761.473 156.841 760.125 157.432C758.777 158.023 757.231 158.318 755.489 158.318ZM777.105 158.511C775.151 158.504 773.469 158.023 772.06 157.068C770.658 156.114 769.579 154.731 768.821 152.92C768.071 151.11 767.7 148.932 767.707 146.386C767.707 143.848 768.082 141.686 768.832 139.898C769.59 138.11 770.67 136.75 772.071 135.818C773.48 134.879 775.158 134.409 777.105 134.409C779.052 134.409 780.726 134.879 782.128 135.818C783.537 136.758 784.62 138.121 785.378 139.909C786.135 141.689 786.51 143.848 786.503 146.386C786.503 148.939 786.124 151.121 785.366 152.932C784.616 154.742 783.541 156.125 782.139 157.08C780.738 158.034 779.06 158.511 777.105 158.511ZM777.105 154.432C778.438 154.432 779.503 153.761 780.298 152.42C781.094 151.08 781.488 149.068 781.48 146.386C781.48 144.621 781.298 143.152 780.935 141.977C780.579 140.803 780.071 139.92 779.412 139.33C778.76 138.739 777.991 138.443 777.105 138.443C775.779 138.443 774.719 139.106 773.923 140.432C773.128 141.758 772.726 143.742 772.719 146.386C772.719 148.174 772.897 149.667 773.253 150.864C773.616 152.053 774.128 152.947 774.787 153.545C775.446 154.136 776.219 154.432 777.105 154.432ZM798.511 158.318C796.905 158.318 795.473 158.023 794.216 157.432C792.966 156.841 791.973 156.027 791.239 154.989C790.504 153.951 790.121 152.761 790.091 151.42H794.864C794.917 152.322 795.295 153.053 796 153.614C796.705 154.174 797.542 154.455 798.511 154.455C799.284 154.455 799.966 154.284 800.557 153.943C801.155 153.595 801.621 153.114 801.955 152.5C802.295 151.879 802.466 151.167 802.466 150.364C802.466 149.545 802.292 148.826 801.943 148.205C801.602 147.583 801.129 147.098 800.523 146.75C799.917 146.402 799.223 146.223 798.443 146.216C797.761 146.216 797.098 146.356 796.455 146.636C795.818 146.917 795.322 147.299 794.966 147.784L790.591 147L791.693 134.727H805.92V138.75H795.75L795.148 144.58H795.284C795.693 144.004 796.311 143.527 797.136 143.148C797.962 142.769 798.886 142.58 799.909 142.58C801.311 142.58 802.561 142.909 803.659 143.568C804.758 144.227 805.625 145.133 806.261 146.284C806.898 147.428 807.212 148.746 807.205 150.239C807.212 151.807 806.848 153.201 806.114 154.42C805.386 155.633 804.367 156.587 803.057 157.284C801.754 157.973 800.239 158.318 798.511 158.318ZM815.659 158.33C814.545 158.33 813.553 158.136 812.682 157.75C811.811 157.356 811.121 156.777 810.614 156.011C810.114 155.239 809.864 154.277 809.864 153.125C809.864 152.155 810.042 151.341 810.398 150.682C810.754 150.023 811.239 149.492 811.852 149.091C812.466 148.689 813.163 148.386 813.943 148.182C814.731 147.977 815.557 147.833 816.42 147.75C817.436 147.644 818.254 147.545 818.875 147.455C819.496 147.356 819.947 147.212 820.227 147.023C820.508 146.833 820.648 146.553 820.648 146.182V146.114C820.648 145.394 820.42 144.837 819.966 144.443C819.519 144.049 818.883 143.852 818.057 143.852C817.186 143.852 816.492 144.045 815.977 144.432C815.462 144.811 815.121 145.288 814.955 145.864L810.477 145.5C810.705 144.439 811.152 143.523 811.818 142.75C812.485 141.97 813.345 141.371 814.398 140.955C815.458 140.53 816.686 140.318 818.08 140.318C819.049 140.318 819.977 140.432 820.864 140.659C821.758 140.886 822.549 141.239 823.239 141.716C823.936 142.193 824.485 142.807 824.886 143.557C825.288 144.299 825.489 145.189 825.489 146.227V158H820.898V155.58H820.761C820.481 156.125 820.106 156.606 819.636 157.023C819.167 157.432 818.602 157.754 817.943 157.989C817.284 158.216 816.523 158.33 815.659 158.33ZM817.045 154.989C817.758 154.989 818.386 154.848 818.932 154.568C819.477 154.28 819.905 153.894 820.216 153.409C820.527 152.924 820.682 152.375 820.682 151.761V149.909C820.53 150.008 820.322 150.098 820.057 150.182C819.799 150.258 819.508 150.33 819.182 150.398C818.856 150.458 818.53 150.515 818.205 150.568C817.879 150.614 817.583 150.655 817.318 150.693C816.75 150.777 816.254 150.909 815.83 151.091C815.405 151.273 815.076 151.519 814.841 151.83C814.606 152.133 814.489 152.511 814.489 152.966C814.489 153.625 814.727 154.129 815.205 154.477C815.689 154.818 816.303 154.989 817.045 154.989Z" fill="#7E7E7E"/>
<path id="306&#208;&#176;" d="M893.489 158.318C891.792 158.318 890.28 158.027 888.955 157.443C887.636 156.852 886.595 156.042 885.83 155.011C885.072 153.973 884.682 152.777 884.659 151.42H889.614C889.644 151.989 889.83 152.489 890.17 152.92C890.519 153.345 890.981 153.674 891.557 153.909C892.133 154.144 892.78 154.261 893.5 154.261C894.25 154.261 894.913 154.129 895.489 153.864C896.064 153.598 896.515 153.231 896.841 152.761C897.167 152.292 897.33 151.75 897.33 151.136C897.33 150.515 897.155 149.966 896.807 149.489C896.466 149.004 895.973 148.625 895.33 148.352C894.693 148.08 893.936 147.943 893.057 147.943H890.886V144.33H893.057C893.799 144.33 894.455 144.201 895.023 143.943C895.598 143.686 896.045 143.33 896.364 142.875C896.682 142.413 896.841 141.875 896.841 141.261C896.841 140.678 896.701 140.167 896.42 139.727C896.148 139.28 895.761 138.932 895.261 138.682C894.769 138.432 894.193 138.307 893.534 138.307C892.867 138.307 892.258 138.428 891.705 138.67C891.152 138.905 890.708 139.242 890.375 139.682C890.042 140.121 889.864 140.636 889.841 141.227H885.125C885.148 139.886 885.53 138.705 886.273 137.682C887.015 136.659 888.015 135.86 889.273 135.284C890.538 134.701 891.966 134.409 893.557 134.409C895.163 134.409 896.568 134.701 897.773 135.284C898.977 135.867 899.913 136.655 900.58 137.648C901.254 138.633 901.587 139.739 901.58 140.966C901.587 142.269 901.182 143.356 900.364 144.227C899.553 145.098 898.496 145.652 897.193 145.886V146.068C898.905 146.288 900.208 146.883 901.102 147.852C902.004 148.814 902.451 150.019 902.443 151.466C902.451 152.792 902.068 153.97 901.295 155C900.53 156.03 899.473 156.841 898.125 157.432C896.777 158.023 895.231 158.318 893.489 158.318ZM915.105 158.511C913.151 158.504 911.469 158.023 910.06 157.068C908.658 156.114 907.579 154.731 906.821 152.92C906.071 151.11 905.7 148.932 905.707 146.386C905.707 143.848 906.082 141.686 906.832 139.898C907.59 138.11 908.67 136.75 910.071 135.818C911.48 134.879 913.158 134.409 915.105 134.409C917.052 134.409 918.726 134.879 920.128 135.818C921.537 136.758 922.62 138.121 923.378 139.909C924.135 141.689 924.51 143.848 924.503 146.386C924.503 148.939 924.124 151.121 923.366 152.932C922.616 154.742 921.541 156.125 920.139 157.08C918.738 158.034 917.06 158.511 915.105 158.511ZM915.105 154.432C916.438 154.432 917.503 153.761 918.298 152.42C919.094 151.08 919.488 149.068 919.48 146.386C919.48 144.621 919.298 143.152 918.935 141.977C918.579 140.803 918.071 139.92 917.412 139.33C916.76 138.739 915.991 138.443 915.105 138.443C913.779 138.443 912.719 139.106 911.923 140.432C911.128 141.758 910.726 143.742 910.719 146.386C910.719 148.174 910.897 149.667 911.253 150.864C911.616 152.053 912.128 152.947 912.787 153.545C913.446 154.136 914.219 154.432 915.105 154.432ZM936.943 158.318C935.746 158.311 934.591 158.11 933.477 157.716C932.371 157.322 931.379 156.682 930.5 155.795C929.621 154.909 928.924 153.735 928.409 152.273C927.902 150.811 927.648 149.015 927.648 146.886C927.655 144.932 927.879 143.186 928.318 141.648C928.765 140.102 929.402 138.792 930.227 137.716C931.061 136.64 932.057 135.822 933.216 135.261C934.375 134.693 935.674 134.409 937.114 134.409C938.667 134.409 940.038 134.712 941.227 135.318C942.417 135.917 943.371 136.731 944.091 137.761C944.818 138.792 945.258 139.947 945.409 141.227H940.557C940.367 140.417 939.97 139.78 939.364 139.318C938.758 138.856 938.008 138.625 937.114 138.625C935.598 138.625 934.447 139.284 933.659 140.602C932.879 141.92 932.481 143.712 932.466 145.977H932.625C932.973 145.288 933.443 144.701 934.034 144.216C934.633 143.723 935.311 143.348 936.068 143.091C936.833 142.826 937.64 142.693 938.489 142.693C939.867 142.693 941.095 143.019 942.17 143.67C943.246 144.314 944.095 145.201 944.716 146.33C945.337 147.458 945.648 148.75 945.648 150.205C945.648 151.78 945.28 153.182 944.545 154.409C943.818 155.636 942.799 156.598 941.489 157.295C940.186 157.985 938.67 158.326 936.943 158.318ZM936.92 154.455C937.678 154.455 938.356 154.273 938.955 153.909C939.553 153.545 940.023 153.053 940.364 152.432C940.705 151.811 940.875 151.114 940.875 150.341C940.875 149.568 940.705 148.875 940.364 148.261C940.03 147.648 939.568 147.159 938.977 146.795C938.386 146.432 937.712 146.25 936.955 146.25C936.386 146.25 935.86 146.356 935.375 146.568C934.898 146.78 934.477 147.076 934.114 147.455C933.758 147.833 933.477 148.273 933.273 148.773C933.068 149.265 932.966 149.792 932.966 150.352C932.966 151.102 933.136 151.788 933.477 152.409C933.826 153.03 934.295 153.527 934.886 153.898C935.485 154.269 936.163 154.455 936.92 154.455ZM954.159 158.33C953.045 158.33 952.053 158.136 951.182 157.75C950.311 157.356 949.621 156.777 949.114 156.011C948.614 155.239 948.364 154.277 948.364 153.125C948.364 152.155 948.542 151.341 948.898 150.682C949.254 150.023 949.739 149.492 950.352 149.091C950.966 148.689 951.663 148.386 952.443 148.182C953.231 147.977 954.057 147.833 954.92 147.75C955.936 147.644 956.754 147.545 957.375 147.455C957.996 147.356 958.447 147.212 958.727 147.023C959.008 146.833 959.148 146.553 959.148 146.182V146.114C959.148 145.394 958.92 144.837 958.466 144.443C958.019 144.049 957.383 143.852 956.557 143.852C955.686 143.852 954.992 144.045 954.477 144.432C953.962 144.811 953.621 145.288 953.455 145.864L948.977 145.5C949.205 144.439 949.652 143.523 950.318 142.75C950.985 141.97 951.845 141.371 952.898 140.955C953.958 140.53 955.186 140.318 956.58 140.318C957.549 140.318 958.477 140.432 959.364 140.659C960.258 140.886 961.049 141.239 961.739 141.716C962.436 142.193 962.985 142.807 963.386 143.557C963.788 144.299 963.989 145.189 963.989 146.227V158H959.398V155.58H959.261C958.981 156.125 958.606 156.606 958.136 157.023C957.667 157.432 957.102 157.754 956.443 157.989C955.784 158.216 955.023 158.33 954.159 158.33ZM955.545 154.989C956.258 154.989 956.886 154.848 957.432 154.568C957.977 154.28 958.405 153.894 958.716 153.409C959.027 152.924 959.182 152.375 959.182 151.761V149.909C959.03 150.008 958.822 150.098 958.557 150.182C958.299 150.258 958.008 150.33 957.682 150.398C957.356 150.458 957.03 150.515 956.705 150.568C956.379 150.614 956.083 150.655 955.818 150.693C955.25 150.777 954.754 150.909 954.33 151.091C953.905 151.273 953.576 151.519 953.341 151.83C953.106 152.133 952.989 152.511 952.989 152.966C952.989 153.625 953.227 154.129 953.705 154.477C954.189 154.818 954.803 154.989 955.545 154.989Z" fill="#7E7E7E"/>
<path id="307&#208;&#176;" d="M1013.49 159.318C1011.79 159.318 1010.28 159.027 1008.95 158.443C1007.64 157.852 1006.59 157.042 1005.83 156.011C1005.07 154.973 1004.68 153.777 1004.66 152.42H1009.61C1009.64 152.989 1009.83 153.489 1010.17 153.92C1010.52 154.345 1010.98 154.674 1011.56 154.909C1012.13 155.144 1012.78 155.261 1013.5 155.261C1014.25 155.261 1014.91 155.129 1015.49 154.864C1016.06 154.598 1016.52 154.231 1016.84 153.761C1017.17 153.292 1017.33 152.75 1017.33 152.136C1017.33 151.515 1017.16 150.966 1016.81 150.489C1016.47 150.004 1015.97 149.625 1015.33 149.352C1014.69 149.08 1013.94 148.943 1013.06 148.943H1010.89V145.33H1013.06C1013.8 145.33 1014.45 145.201 1015.02 144.943C1015.6 144.686 1016.05 144.33 1016.36 143.875C1016.68 143.413 1016.84 142.875 1016.84 142.261C1016.84 141.678 1016.7 141.167 1016.42 140.727C1016.15 140.28 1015.76 139.932 1015.26 139.682C1014.77 139.432 1014.19 139.307 1013.53 139.307C1012.87 139.307 1012.26 139.428 1011.7 139.67C1011.15 139.905 1010.71 140.242 1010.38 140.682C1010.04 141.121 1009.86 141.636 1009.84 142.227H1005.12C1005.15 140.886 1005.53 139.705 1006.27 138.682C1007.02 137.659 1008.02 136.86 1009.27 136.284C1010.54 135.701 1011.97 135.409 1013.56 135.409C1015.16 135.409 1016.57 135.701 1017.77 136.284C1018.98 136.867 1019.91 137.655 1020.58 138.648C1021.25 139.633 1021.59 140.739 1021.58 141.966C1021.59 143.269 1021.18 144.356 1020.36 145.227C1019.55 146.098 1018.5 146.652 1017.19 146.886V147.068C1018.91 147.288 1020.21 147.883 1021.1 148.852C1022 149.814 1022.45 151.019 1022.44 152.466C1022.45 153.792 1022.07 154.97 1021.3 156C1020.53 157.03 1019.47 157.841 1018.12 158.432C1016.78 159.023 1015.23 159.318 1013.49 159.318ZM1035.11 159.511C1033.15 159.504 1031.47 159.023 1030.06 158.068C1028.66 157.114 1027.58 155.731 1026.82 153.92C1026.07 152.11 1025.7 149.932 1025.71 147.386C1025.71 144.848 1026.08 142.686 1026.83 140.898C1027.59 139.11 1028.67 137.75 1030.07 136.818C1031.48 135.879 1033.16 135.409 1035.11 135.409C1037.05 135.409 1038.73 135.879 1040.13 136.818C1041.54 137.758 1042.62 139.121 1043.38 140.909C1044.14 142.689 1044.51 144.848 1044.5 147.386C1044.5 149.939 1044.12 152.121 1043.37 153.932C1042.62 155.742 1041.54 157.125 1040.14 158.08C1038.74 159.034 1037.06 159.511 1035.11 159.511ZM1035.11 155.432C1036.44 155.432 1037.5 154.761 1038.3 153.42C1039.09 152.08 1039.49 150.068 1039.48 147.386C1039.48 145.621 1039.3 144.152 1038.93 142.977C1038.58 141.803 1038.07 140.92 1037.41 140.33C1036.76 139.739 1035.99 139.443 1035.11 139.443C1033.78 139.443 1032.72 140.106 1031.92 141.432C1031.13 142.758 1030.73 144.742 1030.72 147.386C1030.72 149.174 1030.9 150.667 1031.25 151.864C1031.62 153.053 1032.13 153.947 1032.79 154.545C1033.45 155.136 1034.22 155.432 1035.11 155.432ZM1048.31 159L1057.95 139.909V139.75H1046.72V135.727H1063.05V139.807L1053.39 159H1048.31ZM1069.97 159.33C1068.86 159.33 1067.87 159.136 1066.99 158.75C1066.12 158.356 1065.43 157.777 1064.93 157.011C1064.43 156.239 1064.18 155.277 1064.18 154.125C1064.18 153.155 1064.35 152.341 1064.71 151.682C1065.07 151.023 1065.55 150.492 1066.16 150.091C1066.78 149.689 1067.48 149.386 1068.26 149.182C1069.04 148.977 1069.87 148.833 1070.73 148.75C1071.75 148.644 1072.57 148.545 1073.19 148.455C1073.81 148.356 1074.26 148.212 1074.54 148.023C1074.82 147.833 1074.96 147.553 1074.96 147.182V147.114C1074.96 146.394 1074.73 145.837 1074.28 145.443C1073.83 145.049 1073.2 144.852 1072.37 144.852C1071.5 144.852 1070.8 145.045 1070.29 145.432C1069.77 145.811 1069.43 146.288 1069.27 146.864L1064.79 146.5C1065.02 145.439 1065.46 144.523 1066.13 143.75C1066.8 142.97 1067.66 142.371 1068.71 141.955C1069.77 141.53 1071 141.318 1072.39 141.318C1073.36 141.318 1074.29 141.432 1075.18 141.659C1076.07 141.886 1076.86 142.239 1077.55 142.716C1078.25 143.193 1078.8 143.807 1079.2 144.557C1079.6 145.299 1079.8 146.189 1079.8 147.227V159H1075.21V156.58H1075.07C1074.79 157.125 1074.42 157.606 1073.95 158.023C1073.48 158.432 1072.91 158.754 1072.26 158.989C1071.6 159.216 1070.84 159.33 1069.97 159.33ZM1071.36 155.989C1072.07 155.989 1072.7 155.848 1073.24 155.568C1073.79 155.28 1074.22 154.894 1074.53 154.409C1074.84 153.924 1074.99 153.375 1074.99 152.761V150.909C1074.84 151.008 1074.63 151.098 1074.37 151.182C1074.11 151.258 1073.82 151.33 1073.49 151.398C1073.17 151.458 1072.84 151.515 1072.52 151.568C1072.19 151.614 1071.9 151.655 1071.63 151.693C1071.06 151.777 1070.57 151.909 1070.14 152.091C1069.72 152.273 1069.39 152.519 1069.15 152.83C1068.92 153.133 1068.8 153.511 1068.8 153.966C1068.8 154.625 1069.04 155.129 1069.52 155.477C1070 155.818 1070.62 155.989 1071.36 155.989Z" fill="#7E7E7E"/>
<path id="Vector" d="M108 132.875C108 131.847 108.5 130.862 109.391 130.135C110.282 129.408 111.49 129 112.75 129H141.25C142.51 129 143.718 129.408 144.609 130.135C145.5 130.862 146 131.847 146 132.875V148.375C146 149.403 145.5 150.388 144.609 151.115C143.718 151.842 142.51 152.25 141.25 152.25H112.75C111.49 152.25 110.282 151.842 109.391 151.115C108.5 150.388 108 149.403 108 148.375V132.875ZM135.707 136.537C137.327 136.537 138.412 137.448 138.526 138.682H141.25V138.469C141.124 136.169 138.818 134.594 135.688 134.594C131.878 134.594 129.708 136.628 129.708 139.924V141.371C129.708 144.665 131.857 146.66 135.688 146.66C138.809 146.66 141.115 145.126 141.25 142.903V142.683H138.526C138.412 143.874 137.346 144.717 135.707 144.717C133.714 144.717 132.576 143.516 132.576 141.371V139.933C132.576 137.779 133.736 136.537 135.707 136.537ZM121.01 138.331H121.115L123.537 146.438H125.926L129.375 134.814H126.568L124.62 143.252H124.487L122.179 134.814H119.946L117.638 143.252H117.512L115.548 134.814H112.75L116.198 146.438H118.585L121.01 138.331Z" fill="#7E7E7E"/>
<path id="Vector_2" d="M1122 128.875C1122 127.847 1122.5 126.862 1123.39 126.135C1124.28 125.408 1125.49 125 1126.75 125H1155.25C1156.51 125 1157.72 125.408 1158.61 126.135C1159.5 126.862 1160 127.847 1160 128.875V144.375C1160 145.403 1159.5 146.388 1158.61 147.115C1157.72 147.842 1156.51 148.25 1155.25 148.25H1126.75C1125.49 148.25 1124.28 147.842 1123.39 147.115C1122.5 146.388 1122 145.403 1122 144.375V128.875ZM1149.71 132.537C1151.33 132.537 1152.41 133.448 1152.53 134.682H1155.25V134.469C1155.12 132.169 1152.82 130.594 1149.69 130.594C1145.88 130.594 1143.71 132.628 1143.71 135.924V137.371C1143.71 140.665 1145.86 142.66 1149.69 142.66C1152.81 142.66 1155.11 141.126 1155.25 138.903V138.683H1152.53C1152.41 139.874 1151.35 140.717 1149.71 140.717C1147.71 140.717 1146.58 139.516 1146.58 137.371V135.933C1146.58 133.779 1147.74 132.537 1149.71 132.537ZM1135.01 134.331H1135.11L1137.54 142.438H1139.93L1143.38 130.814H1140.57L1138.62 139.252H1138.49L1136.18 130.814H1133.95L1131.64 139.252H1131.51L1129.55 130.814H1126.75L1130.2 142.438H1132.59L1135.01 134.331Z" fill="#7E7E7E"/>
<g id="ladder 1">
<path id="Vector_3" d="M241.656 637.875C242.029 637.875 242.387 638.026 242.651 638.296C242.914 638.566 243.062 638.931 243.062 639.312V640.75H259.938V639.312C259.938 638.931 260.086 638.566 260.349 638.296C260.613 638.026 260.971 637.875 261.344 637.875C261.717 637.875 262.074 638.026 262.338 638.296C262.602 638.566 262.75 638.931 262.75 639.312V679.562C262.75 679.944 262.602 680.309 262.338 680.579C262.074 680.849 261.717 681 261.344 681C260.971 681 260.613 680.849 260.349 680.579C260.086 680.309 259.938 679.944 259.938 679.562V678.125H243.062V679.562C243.062 679.944 242.914 680.309 242.651 680.579C242.387 680.849 242.029 681 241.656 681C241.283 681 240.926 680.849 240.662 680.579C240.398 680.309 240.25 679.944 240.25 679.562V639.312C240.25 638.931 240.398 638.566 240.662 638.296C240.926 638.026 241.283 637.875 241.656 637.875ZM243.062 675.25H259.938V669.5H243.062V675.25ZM243.062 666.625H259.938V660.875H243.062V666.625ZM243.062 658H259.938V652.25H243.062V658ZM243.062 649.375H259.938V643.625H243.062V649.375Z" fill="#D9D9D9"/>
</g>
<g id="ladder 2">
<path id="Vector_4" d="M564.656 98.875C565.029 98.875 565.387 99.0265 565.651 99.296C565.914 99.5656 566.062 99.9313 566.062 100.312V101.75H582.938V100.312C582.938 99.9313 583.086 99.5656 583.349 99.296C583.613 99.0265 583.971 98.875 584.344 98.875C584.717 98.875 585.074 99.0265 585.338 99.296C585.602 99.5656 585.75 99.9313 585.75 100.312V140.562C585.75 140.944 585.602 141.309 585.338 141.579C585.074 141.849 584.717 142 584.344 142C583.971 142 583.613 141.849 583.349 141.579C583.086 141.309 582.938 140.944 582.938 140.562V139.125H566.062V140.562C566.062 140.944 565.914 141.309 565.651 141.579C565.387 141.849 565.029 142 564.656 142C564.283 142 563.926 141.849 563.662 141.579C563.398 141.309 563.25 140.944 563.25 140.562V100.312C563.25 99.9313 563.398 99.5656 563.662 99.296C563.926 99.0265 564.283 98.875 564.656 98.875ZM566.062 136.25H582.938V130.5H566.062V136.25ZM566.062 127.625H582.938V121.875H566.062V127.625ZM566.062 119H582.938V113.25H566.062V119ZM566.062 110.375H582.938V104.625H566.062V110.375Z" fill="#D9D9D9"/>
</g>
<g id="ladder 1_2" clip-path="url(#clip0_9_54)">
<path id="Vector_5" d="M1036.88 290.344C1036.88 289.971 1037.03 289.613 1037.3 289.349C1037.57 289.086 1037.93 288.938 1038.31 288.938H1039.75V272.062H1038.31C1037.93 272.062 1037.57 271.914 1037.3 271.651C1037.03 271.387 1036.88 271.029 1036.88 270.656C1036.88 270.283 1037.03 269.926 1037.3 269.662C1037.57 269.398 1037.93 269.25 1038.31 269.25H1078.56C1078.94 269.25 1079.31 269.398 1079.58 269.662C1079.85 269.926 1080 270.283 1080 270.656C1080 271.029 1079.85 271.387 1079.58 271.651C1079.31 271.914 1078.94 272.062 1078.56 272.062H1077.12V288.938H1078.56C1078.94 288.938 1079.31 289.086 1079.58 289.349C1079.85 289.613 1080 289.971 1080 290.344C1080 290.717 1079.85 291.074 1079.58 291.338C1079.31 291.602 1078.94 291.75 1078.56 291.75H1038.31C1037.93 291.75 1037.57 291.602 1037.3 291.338C1037.03 291.074 1036.88 290.717 1036.88 290.344ZM1074.25 288.938V272.062H1068.5V288.938H1074.25ZM1065.62 288.938V272.062H1059.88V288.938H1065.62ZM1057 288.938V272.062H1051.25V288.938H1057ZM1048.38 288.938V272.062H1042.62V288.938H1048.38Z" fill="#D9D9D9"/>
</g>
</g>
<defs>
<filter id="filter0_f_9_54" x="218" y="189" width="889" height="363" filterUnits="userSpaceOnUse" color-interpolation-filters="sRGB">
<feFlood flood-opacity="0" result="BackgroundImageFix"/>
<feBlend mode="normal" in="SourceGraphic" in2="BackgroundImageFix" result="shape"/>
<feGaussianBlur stdDeviation="3" result="effect1_foregroundBlur_9_54"/>
</filter>
<filter id="filter1_d_9_54" x="99" y="502" width="134" height="202" filterUnits="userSpaceOnUse" color-interpolation-filters="sRGB">
<feFlood flood-opacity="0" result="BackgroundImageFix"/>
<feColorMatrix in="SourceAlpha" type="matrix" values="0 0 0 0 0 0 0 0 0 0 0 0 0 0 0 0 0 0 127 0" result="hardAlpha"/>
<feOffset dy="4"/>
<feGaussianBlur stdDeviation="2"/>
<feComposite in2="hardAlpha" operator="out"/>
<feColorMatrix type="matrix" values="0 0 0 0 0 0 0 0 0 0 0 0 0 0 0 0 0 0 0.25 0"/>
<feBlend mode="normal" in2="BackgroundImageFix" result="effect1_dropShadow_9_54"/>
<feBlend mode="normal" in="SourceGraphic" in2="effect1_dropShadow_9_54" result="shape"/>
</filter>
<filter id="filter2_d_9_54" x="274" y="541" width="147" height="89" filterUnits="userSpaceOnUse" color-interpolation-filters="sRGB">
<feFlood flood-opacity="0" result="BackgroundImageFix"/>
<feColorMatrix in="SourceAlpha" type="matrix" values="0 0 0 0 0 0 0 0 0 0 0 0 0 0 0 0 0 0 127 0" result="hardAlpha"/>
<feOffset dy="4"/>
<feGaussianBlur stdDeviation="2"/>
<feComposite in2="hardAlpha" operator="out"/>
<feColorMatrix type="matrix" values="0 0 0 0 0 0 0 0 0 0 0 0 0 0 0 0 0 0 0.25 0"/>
<feBlend mode="normal" in2="BackgroundImageFix" result="effect1_dropShadow_9_54"/>
<feBlend mode="normal" in="SourceGraphic" in2="effect1_dropShadow_9_54" result="shape"/>
</filter>
<filter id="filter3_d_9_54" x="415" y="541" width="77" height="89" filterUnits="userSpaceOnUse" color-interpolation-filters="sRGB">
<feFlood flood-opacity="0" result="BackgroundImageFix"/>
<feColorMatrix in="SourceAlpha" type="matrix" values="0 0 0 0 0 0 0 0 0 0 0 0 0 0 0 0 0 0 127 0" result="hardAlpha"/>
<feOffset dy="4"/>
<feGaussianBlur stdDeviation="2"/>
<feComposite in2="hardAlpha" operator="out"/>
<feColorMatrix type="matrix" values="0 0 0 0 0 0 0 0 0 0 0 0 0 0 0 0 0 0 0.25 0"/>
<feBlend mode="normal" in2="BackgroundImageFix" result="effect1_dropShadow_9_54"/>
<feBlend mode="normal" in="SourceGraphic" in2="effect1_dropShadow_9_54" result="shape"/>
</filter>
<filter id="filter4_d_9_54" x="539" y="251" width="71" height="61" filterUnits="userSpaceOnUse" color-interpolation-filters="sRGB">
<feFlood flood-opacity="0" result="BackgroundImageFix"/>
<feColorMatrix in="SourceAlpha" type="matrix" values="0 0 0 0 0 0 0 0 0 0 0 0 0 0 0 0 0 0 127 0" result="hardAlpha"/>
<feOffset dy="4"/>
<feGaussianBlur stdDeviation="2"/>
<feComposite in2="hardAlpha" operator="out"/>
<feColorMatrix type="matrix" values="0 0 0 0 0 0 0 0 0 0 0 0 0 0 0 0 0 0 0.25 0"/>
<feBlend mode="normal" in2="BackgroundImageFix" result="effect1_dropShadow_9_54"/>
<feBlend mode="normal" in="SourceGraphic" in2="effect1_dropShadow_9_54" result="shape"/>
</filter>
<filter id="filter5_d_9_54" x="484" y="251" width="61" height="142" filterUnits="userSpaceOnUse" color-interpolation-filters="sRGB">
<feFlood flood-opacity="0" result="BackgroundImageFix"/>
<feColorMatrix in="SourceAlpha" type="matrix" values="0 0 0 0 0 0 0 0 0 0 0 0 0 0 0 0 0 0 127 0" result="hardAlpha"/>
<feOffset dy="4"/>
<feGaussianBlur stdDeviation="2"/>
<feComposite in2="hardAlpha" operator="out"/>
<feColorMatrix type="matrix" values="0 0 0 0 0 0 0 0 0 0 0 0 0 0 0 0 0 0 0.25 0"/>
<feBlend mode="normal" in2="BackgroundImageFix" result="effect1_dropShadow_9_54"/>
<feBlend mode="normal" in="SourceGraphic" in2="effect1_dropShadow_9_54" result="shape"/>
</filter>
<filter id="filter6_d_9_54" x="604" y="251" width="63" height="142" filterUnits="userSpaceOnUse" color-interpolation-filters="sRGB">
<feFlood flood-opacity="0" result="BackgroundImageFix"/>
<feColorMatrix in="SourceAlpha" type="matrix" values="0 0 0 0 0 0 0 0 0 0 0 0 0 0 0 0 0 0 127 0" result="hardAlpha"/>
<feOffset dy="4"/>
<feGaussianBlur stdDeviation="2"/>
<feComposite in2="hardAlpha" operator="out"/>
<feColorMatrix type="matrix" values="0 0 0 0 0 0 0 0 0 0 0 0 0 0 0 0 0 0 0.25 0"/>
<feBlend mode="normal" in2="BackgroundImageFix" result="effect1_dropShadow_9_54"/>
<feBlend mode="normal" in="SourceGraphic" in2="effect1_dropShadow_9_54" result="shape"/>
</filter>
<filter id="filter7_d_9_54" x="661" y="251" width="66" height="80.9215" filterUnits="userSpaceOnUse" color-interpolation-filters="sRGB">
<feFlood flood-opacity="0" result="BackgroundImageFix"/>
<feColorMatrix in="SourceAlpha" type="matrix" values="0 0 0 0 0 0 0 0 0 0 0 0 0 0 0 0 0 0 127 0" result="hardAlpha"/>
<feOffset dy="4"/>
<feGaussianBlur stdDeviation="2"/>
<feComposite in2="hardAlpha" operator="out"/>
<feColorMatrix type="matrix" values="0 0 0 0 0 0 0 0 0 0 0 0 0 0 0 0 0 0 0.25 0"/>
<feBlend mode="normal" in2="BackgroundImageFix" result="effect1_dropShadow_9_54"/>
<feBlend mode="normal" in="SourceGraphic" in2="effect1_dropShadow_9_54" result="shape"/>
</filter>
<filter id="filter8_d_9_54" x="100" y="96" width="54" height="99" filterUnits="userSpaceOnUse" color-interpolation-filters="sRGB">
<feFlood flood-opacity="0" result="BackgroundImageFix"/>
<feColorMatrix in="SourceAlpha" type="matrix" values="0 0 0 0 0 0 0 0 0 0 0 0 0 0 0 0 0 0 127 0" result="hardAlpha"/>
<feOffset dy="4"/>
<feGaussianBlur stdDeviation="2"/>
<feComposite in2="hardAlpha" operator="out"/>
<feColorMatrix type="matrix" values="0 0 0 0 0 0 0 0 0 0 0 0 0 0 0 0 0 0 0.25 0"/>
<feBlend mode="normal" in2="BackgroundImageFix" result="effect1_dropShadow_9_54"/>
<feBlend mode="normal" in="SourceGraphic" in2="effect1_dropShadow_9_54" result="shape"/>
</filter>
<filter id="filter9_d_9_54" x="148" y="96" width="143" height="112" filterUnits="userSpaceOnUse" color-interpolation-filters="sRGB">
<feFlood flood-opacity="0" result="BackgroundImageFix"/>
<feColorMatrix in="SourceAlpha" type="matrix" values="0 0 0 0 0 0 0 0 0 0 0 0 0 0 0 0 0 0 127 0" result="hardAlpha"/>
<feOffset dy="4"/>
<feGaussianBlur stdDeviation="2"/>
<feComposite in2="hardAlpha" operator="out"/>
<feColorMatrix type="matrix" values="0 0 0 0 0 0 0 0 0 0 0 0 0 0 0 0 0 0 0.25 0"/>
<feBlend mode="normal" in2="BackgroundImageFix" result="effect1_dropShadow_9_54"/>
<feBlend mode="normal" in="SourceGraphic" in2="effect1_dropShadow_9_54" result="shape"/>
</filter>
<filter id="filter10_d_9_54" x="285" y="96" width="132" height="112" filterUnits="userSpaceOnUse" color-interpolation-filters="sRGB">
<feFlood flood-opacity="0" result="BackgroundImageFix"/>
<feColorMatrix in="SourceAlpha" type="matrix" values="0 0 0 0 0 0 0 0 0 0 0 0 0 0 0 0 0 0 127 0" result="hardAlpha"/>
<feOffset dy="4"/>
<feGaussianBlur stdDeviation="2"/>
<feComposite in2="hardAlpha" operator="out"/>
<feColorMatrix type="matrix" values="0 0 0 0 0 0 0 0 0 0 0 0 0 0 0 0 0 0 0.25 0"/>
<feBlend mode="normal" in2="BackgroundImageFix" result="effect1_dropShadow_9_54"/>
<feBlend mode="normal" in="SourceGraphic" in2="effect1_dropShadow_9_54" result="shape"/>
</filter>
<filter id="filter11_d_9_54" x="411" y="96" width="126" height="112" filterUnits="userSpaceOnUse" color-interpolation-filters="sRGB">
<feFlood flood-opacity="0" result="BackgroundImageFix"/>
<feColorMatrix in="SourceAlpha" type="matrix" values="0 0 0 0 0 0 0 0 0 0 0 0 0 0 0 0 0 0 127 0" result="hardAlpha"/>
<feOffset dy="4"/>
<feGaussianBlur stdDeviation="2"/>
<feComposite in2="hardAlpha" operator="out"/>
<feColorMatrix type="matrix" values="0 0 0 0 0 0 0 0 0 0 0 0 0 0 0 0 0 0 0.25 0"/>
<feBlend mode="normal" in2="BackgroundImageFix" result="effect1_dropShadow_9_54"/>
<feBlend mode="normal" in="SourceGraphic" in2="effect1_dropShadow_9_54" result="shape"/>
</filter>
<filter id="filter12_d_9_54" x="609" y="96" width="125" height="112" filterUnits="userSpaceOnUse" color-interpolation-filters="sRGB">
<feFlood flood-opacity="0" result="BackgroundImageFix"/>
<feColorMatrix in="SourceAlpha" type="matrix" values="0 0 0 0 0 0 0 0 0 0 0 0 0 0 0 0 0 0 127 0" result="hardAlpha"/>
<feOffset dy="4"/>
<feGaussianBlur stdDeviation="2"/>
<feComposite in2="hardAlpha" operator="out"/>
<feColorMatrix type="matrix" values="0 0 0 0 0 0 0 0 0 0 0 0 0 0 0 0 0 0 0.25 0"/>
<feBlend mode="normal" in2="BackgroundImageFix" result="effect1_dropShadow_9_54"/>
<feBlend mode="normal" in="SourceGraphic" in2="effect1_dropShadow_9_54" result="shape"/>
</filter>
<filter id="filter13_d_9_54" x="728" y="96" width="136" height="112" filterUnits="userSpaceOnUse" color-interpolation-filters="sRGB">
<feFlood flood-opacity="0" result="BackgroundImageFix"/>
<feColorMatrix in="SourceAlpha" type="matrix" values="0 0 0 0 0 0 0 0 0 0 0 0 0 0 0 0 0 0 127 0" result="hardAlpha"/>
<feOffset dy="4"/>
<feGaussianBlur stdDeviation="2"/>
<feComposite in2="hardAlpha" operator="out"/>
<feColorMatrix type="matrix" values="0 0 0 0 0 0 0 0 0 0 0 0 0 0 0 0 0 0 0.25 0"/>
<feBlend mode="normal" in2="BackgroundImageFix" result="effect1_dropShadow_9_54"/>
<feBlend mode="normal" in="SourceGraphic" in2="effect1_dropShadow_9_54" result="shape"/>
</filter>
<filter id="filter14_d_9_54" x="858" y="96" width="134" height="112" filterUnits="userSpaceOnUse" color-interpolation-filters="sRGB">
<feFlood flood-opacity="0" result="BackgroundImageFix"/>
<feColorMatrix in="SourceAlpha" type="matrix" values="0 0 0 0 0 0 0 0 0 0 0 0 0 0 0 0 0 0 127 0" result="hardAlpha"/>
<feOffset dy="4"/>
<feGaussianBlur stdDeviation="2"/>
<feComposite in2="hardAlpha" operator="out"/>
<feColorMatrix type="matrix" values="0 0 0 0 0 0 0 0 0 0 0 0 0 0 0 0 0 0 0.25 0"/>
<feBlend mode="normal" in2="BackgroundImageFix" result="effect1_dropShadow_9_54"/>
<feBlend mode="normal" in="SourceGraphic" in2="effect1_dropShadow_9_54" result="shape"/>
</filter>
<filter id="filter15_d_9_54" x="986" y="96" width="135" height="112" filterUnits="userSpaceOnUse" color-interpolation-filters="sRGB">
<feFlood flood-opacity="0" result="BackgroundImageFix"/>
<feColorMatrix in="SourceAlpha" type="matrix" values="0 0 0 0 0 0 0 0 0 0 0 0 0 0 0 0 0 0 127 0" result="hardAlpha"/>
<feOffset dy="4"/>
<feGaussianBlur stdDeviation="2"/>
<feComposite in2="hardAlpha" operator="out"/>
<feColorMatrix type="matrix" values="0 0 0 0 0 0 0 0 0 0 0 0 0 0 0 0 0 0 0.25 0"/>
<feBlend mode="normal" in2="BackgroundImageFix" result="effect1_dropShadow_9_54"/>
<feBlend mode="normal" in="SourceGraphic" in2="effect1_dropShadow_9_54" result="shape"/>
</filter>
<filter id="filter16_d_9_54" x="1115" y="96" width="51" height="90" filterUnits="userSpaceOnUse" color-interpolation-filters="sRGB">
<feFlood flood-opacity="0" result="BackgroundImageFix"/>
<feColorMatrix in="SourceAlpha" type="matrix" values="0 0 0 0 0 0 0 0 0 0 0 0 0 0 0 0 0 0 127 0" result="hardAlpha"/>
<feOffset dy="4"/>
<feGaussianBlur stdDeviation="2"/>
<feComposite in2="hardAlpha" operator="out"/>
<feColorMatrix type="matrix" values="0 0 0 0 0 0 0 0 0 0 0 0 0 0 0 0 0 0 0.25 0"/>
<feBlend mode="normal" in2="BackgroundImageFix" result="effect1_dropShadow_9_54"/>
<feBlend mode="normal" in="SourceGraphic" in2="effect1_dropShadow_9_54" result="shape"/>
</filter>
<filter id="filter17_d_9_54" x="755" y="251" width="239" height="67" filterUnits="userSpaceOnUse" color-interpolation-filters="sRGB">
<feFlood flood-opacity="0" result="BackgroundImageFix"/>
<feColorMatrix in="SourceAlpha" type="matrix" values="0 0 0 0 0 0 0 0 0 0 0 0 0 0 0 0 0 0 127 0" result="hardAlpha"/>
<feOffset dy="4"/>
<feGaussianBlur stdDeviation="2"/>
<feComposite in2="hardAlpha" operator="out"/>
<feColorMatrix type="matrix" values="0 0 0 0 0 0 0 0 0 0 0 0 0 0 0 0 0 0 0.25 0"/>
<feBlend mode="normal" in2="BackgroundImageFix" result="effect1_dropShadow_9_54"/>
<feBlend mode="normal" in="SourceGraphic" in2="effect1_dropShadow_9_54" result="shape"/>
</filter>
<clipPath id="clip0_9_54">
<rect width="45" height="46" fill="white" transform="matrix(0 -1 1 0 1034 303)"/>
</clipPath>
</defs>
</svg>
