<svg width="1148" height="746" viewBox="0 0 1148 746" fill="none" xmlns="http://www.w3.org/2000/svg">
<rect width="1148" height="746" fill="#1E1E1E"/>
<g id="Frame 1">
<rect width="1148" height="746" fill="white"/>
<path id="Rectangle 16" d="M40.5 73H479.5V44.5H564V73H1114V236.5H1059.5V289.5H664.5V235.5H442V639H217V683.5H40.5V414C73.1218 372.668 68.9044 343.857 40.5 307.5V73Z" fill="#7E7E7E"/>
<g id="Group 1" filter="url(#filter0_f_1_2)">
<line id="Line 1" x1="169" y1="504" x2="169" y2="522" stroke="#4674FF" stroke-width="10"/>
<line id="Line 2" x1="216" y1="522" x2="216" y2="504" stroke="#4674FF" stroke-width="10"/>
<line id="Line 3" x1="182" y1="474" x2="200" y2="474" stroke="#4674FF" stroke-width="10"/>
<line id="Line 4" x1="180" y1="232" x2="198" y2="232" stroke="#4674FF" stroke-width="10"/>
<line id="Line 5" x1="325" y1="232" x2="343" y2="232" stroke="#4674FF" stroke-width="10"/>
<line id="Line 6" x1="180" y1="180" x2="198" y2="180" stroke="#4674FF" stroke-width="10"/>
<line id="Line 7" x1="325" y1="180" x2="343" y2="180" stroke="#4674FF" stroke-width="10"/>
<line id="Line 8" x1="443" y1="180" x2="461" y2="180" stroke="#4674FF" stroke-width="10"/>
<line id="Line 9" x1="636" y1="180" x2="654" y2="180" stroke="#4674FF" stroke-width="10"/>
<line id="Line 10" x1="767" y1="180" x2="785" y2="180" stroke="#4674FF" stroke-width="10"/>
<line id="Line 11" x1="888" y1="180" x2="906" y2="180" stroke="#4674FF" stroke-width="10"/>
<line id="Line 12" x1="1011" y1="180" x2="1029" y2="180" stroke="#4674FF" stroke-width="10"/>
<line id="Line 13" x1="811" y1="232" x2="829" y2="232" stroke="#4674FF" stroke-width="10"/>
<line id="Line 14" x1="866" y1="232" x2="884" y2="232" stroke="#4674FF" stroke-width="10"/>
<line id="Line 15" x1="890" y1="232" x2="908" y2="232" stroke="#4674FF" stroke-width="10"/>
<line id="Line 16" x1="914" y1="232" x2="932" y2="232" stroke="#4674FF" stroke-width="10"/>
</g>
<g id="408a" filter="url(#filter1_d_1_2)">
<rect x="48" y="479" width="121" height="195" fill="#D9D9D9"/>
</g>
<g id="409a" filter="url(#filter2_d_1_2)">
<rect x="216" y="479" width="218" height="153" fill="#D9D9D9"/>
</g>
<g id="winter garden" filter="url(#filter3_d_1_2)">
<path d="M46 232H433V474H46V413.5C76.9542 369.096 70.5722 346.807 46 308.5V232Z" fill="#D9D9D9"/>
</g>
<g id="wc-3a" filter="url(#filter4_d_1_2)">
<rect x="48" y="80" width="48" height="89" fill="#D9D9D9"/>
</g>
<g id="401a" filter="url(#filter5_d_1_2)">
<rect x="98" y="80" width="134" height="100" fill="#D9D9D9"/>
</g>
<g id="402a" filter="url(#filter6_d_1_2)">
<rect x="234" y="80" width="125" height="100" fill="#D9D9D9"/>
</g>
<g id="403a" filter="url(#filter7_d_1_2)">
<rect x="361" y="80" width="126" height="100" fill="#D9D9D9"/>
</g>
<g id="419" filter="url(#filter8_d_1_2)">
<rect x="672" y="232" width="190" height="50" fill="#D9D9D9"/>
</g>
<g id="417" filter="url(#filter9_d_1_2)">
<rect x="864" y="232" width="22" height="50" fill="#D9D9D9"/>
</g>
<g id="416" filter="url(#filter10_d_1_2)">
<rect x="888" y="232" width="22" height="50" fill="#D9D9D9"/>
</g>
<g id="419_2" filter="url(#filter11_d_1_2)">
<rect x="912" y="232" width="22" height="50" fill="#D9D9D9"/>
</g>
<g id="404a" filter="url(#filter12_d_1_2)">
<rect x="557" y="80" width="120" height="100" fill="#D9D9D9"/>
</g>
<g id="405a" filter="url(#filter13_d_1_2)">
<rect x="679" y="80" width="128" height="100" fill="#D9D9D9"/>
</g>
<g id="406a" filter="url(#filter14_d_1_2)">
<rect x="809" y="80" width="123" height="100" fill="#D9D9D9"/>
</g>
<g id="407a" filter="url(#filter15_d_1_2)">
<rect x="934" y="80" width="122" height="100" fill="#D9D9D9"/>
</g>
<path id="408&#208;&#176;" d="M61.5341 582.909V579.034L71.25 563.727H74.5909V569.091H72.6136L66.4886 578.784V578.966H80.2955V582.909H61.5341ZM72.7045 587V581.727L72.7955 580.011V563.727H77.4091V587H72.7045ZM92.6989 587.511C90.7443 587.504 89.0625 587.023 87.6534 586.068C86.2519 585.114 85.1723 583.731 84.4148 581.92C83.6648 580.11 83.2936 577.932 83.3011 575.386C83.3011 572.848 83.6761 570.686 84.4261 568.898C85.1837 567.11 86.2633 565.75 87.6648 564.818C89.0739 563.879 90.7519 563.409 92.6989 563.409C94.6458 563.409 96.3201 563.879 97.7216 564.818C99.1307 565.758 100.214 567.121 100.972 568.909C101.729 570.689 102.104 572.848 102.097 575.386C102.097 577.939 101.718 580.121 100.96 581.932C100.21 583.742 99.1345 585.125 97.733 586.08C96.3314 587.034 94.6534 587.511 92.6989 587.511ZM92.6989 583.432C94.0322 583.432 95.0966 582.761 95.892 581.42C96.6875 580.08 97.0814 578.068 97.0739 575.386C97.0739 573.621 96.892 572.152 96.5284 570.977C96.1723 569.803 95.6648 568.92 95.0057 568.33C94.3542 567.739 93.5852 567.443 92.6989 567.443C91.3731 567.443 90.3125 568.106 89.517 569.432C88.7216 570.758 88.3201 572.742 88.3125 575.386C88.3125 577.174 88.4905 578.667 88.8466 579.864C89.2102 581.053 89.7216 581.947 90.3807 582.545C91.0398 583.136 91.8125 583.432 92.6989 583.432ZM114.287 587.318C112.537 587.318 110.98 587.034 109.616 586.466C108.26 585.89 107.196 585.106 106.423 584.114C105.651 583.121 105.264 581.996 105.264 580.739C105.264 579.769 105.484 578.879 105.923 578.068C106.37 577.25 106.976 576.572 107.741 576.034C108.507 575.489 109.363 575.14 110.31 574.989V574.83C109.067 574.58 108.06 573.977 107.287 573.023C106.514 572.061 106.128 570.943 106.128 569.67C106.128 568.466 106.48 567.394 107.185 566.455C107.889 565.508 108.855 564.765 110.082 564.227C111.317 563.682 112.719 563.409 114.287 563.409C115.855 563.409 117.253 563.682 118.48 564.227C119.715 564.773 120.685 565.519 121.389 566.466C122.094 567.405 122.45 568.473 122.457 569.67C122.45 570.951 122.056 572.068 121.276 573.023C120.495 573.977 119.495 574.58 118.276 574.83V574.989C119.207 575.14 120.052 575.489 120.81 576.034C121.575 576.572 122.181 577.25 122.628 578.068C123.082 578.879 123.313 579.769 123.321 580.739C123.313 581.996 122.923 583.121 122.151 584.114C121.378 585.106 120.31 585.89 118.946 586.466C117.59 587.034 116.037 587.318 114.287 587.318ZM114.287 583.705C115.067 583.705 115.749 583.564 116.332 583.284C116.916 582.996 117.37 582.602 117.696 582.102C118.029 581.595 118.196 581.011 118.196 580.352C118.196 579.678 118.026 579.083 117.685 578.568C117.344 578.045 116.882 577.636 116.298 577.341C115.715 577.038 115.045 576.886 114.287 576.886C113.537 576.886 112.866 577.038 112.276 577.341C111.685 577.636 111.219 578.045 110.878 578.568C110.545 579.083 110.378 579.678 110.378 580.352C110.378 581.011 110.541 581.595 110.866 582.102C111.192 582.602 111.651 582.996 112.241 583.284C112.832 583.564 113.514 583.705 114.287 583.705ZM114.287 573.307C114.938 573.307 115.518 573.174 116.026 572.909C116.533 572.644 116.931 572.277 117.219 571.807C117.507 571.337 117.651 570.795 117.651 570.182C117.651 569.576 117.507 569.045 117.219 568.591C116.931 568.129 116.537 567.769 116.037 567.511C115.537 567.246 114.954 567.114 114.287 567.114C113.628 567.114 113.045 567.246 112.537 567.511C112.029 567.769 111.632 568.129 111.344 568.591C111.063 569.045 110.923 569.576 110.923 570.182C110.923 570.795 111.067 571.337 111.355 571.807C111.643 572.277 112.041 572.644 112.548 572.909C113.056 573.174 113.635 573.307 114.287 573.307ZM131.784 587.33C130.67 587.33 129.678 587.136 128.807 586.75C127.936 586.356 127.246 585.777 126.739 585.011C126.239 584.239 125.989 583.277 125.989 582.125C125.989 581.155 126.167 580.341 126.523 579.682C126.879 579.023 127.364 578.492 127.977 578.091C128.591 577.689 129.288 577.386 130.068 577.182C130.856 576.977 131.682 576.833 132.545 576.75C133.561 576.644 134.379 576.545 135 576.455C135.621 576.356 136.072 576.212 136.352 576.023C136.633 575.833 136.773 575.553 136.773 575.182V575.114C136.773 574.394 136.545 573.837 136.091 573.443C135.644 573.049 135.008 572.852 134.182 572.852C133.311 572.852 132.617 573.045 132.102 573.432C131.587 573.811 131.246 574.288 131.08 574.864L126.602 574.5C126.83 573.439 127.277 572.523 127.943 571.75C128.61 570.97 129.47 570.371 130.523 569.955C131.583 569.53 132.811 569.318 134.205 569.318C135.174 569.318 136.102 569.432 136.989 569.659C137.883 569.886 138.674 570.239 139.364 570.716C140.061 571.193 140.61 571.807 141.011 572.557C141.413 573.299 141.614 574.189 141.614 575.227V587H137.023V584.58H136.886C136.606 585.125 136.231 585.606 135.761 586.023C135.292 586.432 134.727 586.754 134.068 586.989C133.409 587.216 132.648 587.33 131.784 587.33ZM133.17 583.989C133.883 583.989 134.511 583.848 135.057 583.568C135.602 583.28 136.03 582.894 136.341 582.409C136.652 581.924 136.807 581.375 136.807 580.761V578.909C136.655 579.008 136.447 579.098 136.182 579.182C135.924 579.258 135.633 579.33 135.307 579.398C134.981 579.458 134.655 579.515 134.33 579.568C134.004 579.614 133.708 579.655 133.443 579.693C132.875 579.777 132.379 579.909 131.955 580.091C131.53 580.273 131.201 580.519 130.966 580.83C130.731 581.133 130.614 581.511 130.614 581.966C130.614 582.625 130.852 583.129 131.33 583.477C131.814 583.818 132.428 583.989 133.17 583.989Z" fill="#7E7E7E"/>
<path id="409&#208;&#176;" d="M288.534 560.909V557.034L298.25 541.727H301.591V547.091H299.614L293.489 556.784V556.966H307.295V560.909H288.534ZM299.705 565V559.727L299.795 558.011V541.727H304.409V565H299.705ZM319.699 565.511C317.744 565.504 316.063 565.023 314.653 564.068C313.252 563.114 312.172 561.731 311.415 559.92C310.665 558.11 310.294 555.932 310.301 553.386C310.301 550.848 310.676 548.686 311.426 546.898C312.184 545.11 313.263 543.75 314.665 542.818C316.074 541.879 317.752 541.409 319.699 541.409C321.646 541.409 323.32 541.879 324.722 542.818C326.131 543.758 327.214 545.121 327.972 546.909C328.729 548.689 329.104 550.848 329.097 553.386C329.097 555.939 328.718 558.121 327.96 559.932C327.21 561.742 326.134 563.125 324.733 564.08C323.331 565.034 321.653 565.511 319.699 565.511ZM319.699 561.432C321.032 561.432 322.097 560.761 322.892 559.42C323.688 558.08 324.081 556.068 324.074 553.386C324.074 551.621 323.892 550.152 323.528 548.977C323.172 547.803 322.665 546.92 322.006 546.33C321.354 545.739 320.585 545.443 319.699 545.443C318.373 545.443 317.313 546.106 316.517 547.432C315.722 548.758 315.32 550.742 315.312 553.386C315.312 555.174 315.491 556.667 315.847 557.864C316.21 559.053 316.722 559.947 317.381 560.545C318.04 561.136 318.812 561.432 319.699 561.432ZM341.026 541.409C342.223 541.409 343.374 541.61 344.48 542.011C345.594 542.413 346.586 543.053 347.457 543.932C348.336 544.811 349.029 545.977 349.537 547.432C350.052 548.879 350.313 550.655 350.321 552.761C350.321 554.739 350.098 556.504 349.651 558.057C349.211 559.602 348.579 560.917 347.753 562C346.927 563.083 345.931 563.909 344.764 564.477C343.598 565.038 342.295 565.318 340.855 565.318C339.302 565.318 337.931 565.019 336.741 564.42C335.552 563.814 334.594 562.992 333.866 561.955C333.147 560.909 332.711 559.735 332.56 558.432H337.412C337.601 559.28 337.999 559.939 338.605 560.409C339.211 560.871 339.961 561.102 340.855 561.102C342.37 561.102 343.522 560.443 344.31 559.125C345.098 557.799 345.495 555.985 345.503 553.682H345.344C344.995 554.364 344.526 554.951 343.935 555.443C343.344 555.928 342.666 556.303 341.901 556.568C341.143 556.833 340.336 556.966 339.48 556.966C338.109 556.966 336.885 556.644 335.81 556C334.734 555.356 333.885 554.47 333.264 553.341C332.643 552.212 332.332 550.924 332.332 549.477C332.325 547.917 332.685 546.527 333.412 545.307C334.139 544.087 335.154 543.133 336.457 542.443C337.768 541.746 339.291 541.402 341.026 541.409ZM341.06 545.273C340.295 545.273 339.613 545.455 339.014 545.818C338.423 546.182 337.954 546.67 337.605 547.284C337.264 547.898 337.098 548.583 337.105 549.341C337.105 550.106 337.272 550.795 337.605 551.409C337.946 552.015 338.408 552.5 338.991 552.864C339.582 553.22 340.257 553.398 341.014 553.398C341.582 553.398 342.109 553.292 342.594 553.08C343.079 552.867 343.499 552.576 343.855 552.205C344.219 551.826 344.503 551.39 344.707 550.898C344.912 550.405 345.014 549.883 345.014 549.33C345.007 548.595 344.832 547.92 344.491 547.307C344.151 546.693 343.681 546.201 343.082 545.83C342.484 545.458 341.81 545.273 341.06 545.273ZM358.753 565.33C357.639 565.33 356.647 565.136 355.776 564.75C354.904 564.356 354.215 563.777 353.707 563.011C353.207 562.239 352.957 561.277 352.957 560.125C352.957 559.155 353.135 558.341 353.491 557.682C353.848 557.023 354.332 556.492 354.946 556.091C355.56 555.689 356.257 555.386 357.037 555.182C357.825 554.977 358.651 554.833 359.514 554.75C360.529 554.644 361.348 554.545 361.969 554.455C362.59 554.356 363.041 554.212 363.321 554.023C363.601 553.833 363.741 553.553 363.741 553.182V553.114C363.741 552.394 363.514 551.837 363.06 551.443C362.613 551.049 361.976 550.852 361.151 550.852C360.279 550.852 359.586 551.045 359.071 551.432C358.556 551.811 358.215 552.288 358.048 552.864L353.571 552.5C353.798 551.439 354.245 550.523 354.912 549.75C355.579 548.97 356.438 548.371 357.491 547.955C358.552 547.53 359.779 547.318 361.173 547.318C362.143 547.318 363.071 547.432 363.957 547.659C364.851 547.886 365.643 548.239 366.332 548.716C367.029 549.193 367.579 549.807 367.98 550.557C368.382 551.299 368.582 552.189 368.582 553.227V565H363.991V562.58H363.855C363.575 563.125 363.2 563.606 362.73 564.023C362.26 564.432 361.696 564.754 361.037 564.989C360.378 565.216 359.616 565.33 358.753 565.33ZM360.139 561.989C360.851 561.989 361.48 561.848 362.026 561.568C362.571 561.28 362.999 560.894 363.31 560.409C363.62 559.924 363.776 559.375 363.776 558.761V556.909C363.624 557.008 363.416 557.098 363.151 557.182C362.893 557.258 362.601 557.33 362.276 557.398C361.95 557.458 361.624 557.515 361.298 557.568C360.973 557.614 360.677 557.655 360.412 557.693C359.844 557.777 359.348 557.909 358.923 558.091C358.499 558.273 358.17 558.519 357.935 558.83C357.7 559.133 357.582 559.511 357.582 559.966C357.582 560.625 357.821 561.129 358.298 561.477C358.783 561.818 359.397 561.989 360.139 561.989Z" fill="#7E7E7E"/>
<path id="&#208;&#151;&#208;&#152;&#208;&#156;&#208;&#157;&#208;&#152;&#208;&#153; &#208;&#161;&#208;&#144;&#208;&#148;" d="M136.489 373.318C134.792 373.318 133.28 373.027 131.955 372.443C130.636 371.852 129.595 371.042 128.83 370.011C128.072 368.973 127.682 367.777 127.659 366.42H132.614C132.644 366.989 132.83 367.489 133.17 367.92C133.519 368.345 133.981 368.674 134.557 368.909C135.133 369.144 135.78 369.261 136.5 369.261C137.25 369.261 137.913 369.129 138.489 368.864C139.064 368.598 139.515 368.231 139.841 367.761C140.167 367.292 140.33 366.75 140.33 366.136C140.33 365.515 140.155 364.966 139.807 364.489C139.466 364.004 138.973 363.625 138.33 363.352C137.693 363.08 136.936 362.943 136.057 362.943H133.886V359.33H136.057C136.799 359.33 137.455 359.201 138.023 358.943C138.598 358.686 139.045 358.33 139.364 357.875C139.682 357.413 139.841 356.875 139.841 356.261C139.841 355.678 139.701 355.167 139.42 354.727C139.148 354.28 138.761 353.932 138.261 353.682C137.769 353.432 137.193 353.307 136.534 353.307C135.867 353.307 135.258 353.428 134.705 353.67C134.152 353.905 133.708 354.242 133.375 354.682C133.042 355.121 132.864 355.636 132.841 356.227H128.125C128.148 354.886 128.53 353.705 129.273 352.682C130.015 351.659 131.015 350.86 132.273 350.284C133.538 349.701 134.966 349.409 136.557 349.409C138.163 349.409 139.568 349.701 140.773 350.284C141.977 350.867 142.913 351.655 143.58 352.648C144.254 353.633 144.587 354.739 144.58 355.966C144.587 357.269 144.182 358.356 143.364 359.227C142.553 360.098 141.496 360.652 140.193 360.886V361.068C141.905 361.288 143.208 361.883 144.102 362.852C145.004 363.814 145.451 365.019 145.443 366.466C145.451 367.792 145.068 368.97 144.295 370C143.53 371.03 142.473 371.841 141.125 372.432C139.777 373.023 138.231 373.318 136.489 373.318ZM149.116 349.727H154.026V364.364H154.219L164.276 349.727H168.582V373H163.662V358.352H163.491L153.378 373H149.116V349.727ZM172.648 349.727H178.716L185.125 365.364H185.398L191.807 349.727H197.875V373H193.102V357.852H192.909L186.886 372.886H183.636L177.614 357.795H177.42V373H172.648V349.727ZM201.929 373V349.727H206.849V359.33H216.838V349.727H221.747V373H216.838V363.386H206.849V373H201.929ZM225.804 349.727H230.713V364.364H230.906L240.963 349.727H245.27V373H240.349V358.352H240.179L230.065 373H225.804V349.727ZM249.335 349.727H254.244V364.364H254.438L264.494 349.727H268.801V373H263.881V358.352H263.71L253.597 373H249.335V349.727ZM261.335 343.636H264.71C264.703 345.015 264.191 346.125 263.176 346.966C262.169 347.807 260.805 348.227 259.085 348.227C257.358 348.227 255.991 347.807 254.983 346.966C253.975 346.125 253.472 345.015 253.472 343.636H256.824C256.816 344.159 256.983 344.629 257.324 345.045C257.672 345.462 258.259 345.67 259.085 345.67C259.888 345.67 260.464 345.466 260.812 345.057C261.161 344.648 261.335 344.174 261.335 343.636ZM300.807 357.875H295.83C295.739 357.231 295.553 356.659 295.273 356.159C294.992 355.652 294.633 355.22 294.193 354.864C293.754 354.508 293.246 354.235 292.67 354.045C292.102 353.856 291.485 353.761 290.818 353.761C289.614 353.761 288.564 354.061 287.67 354.659C286.777 355.25 286.083 356.114 285.591 357.25C285.098 358.379 284.852 359.75 284.852 361.364C284.852 363.023 285.098 364.417 285.591 365.545C286.091 366.674 286.788 367.527 287.682 368.102C288.576 368.678 289.61 368.966 290.784 368.966C291.443 368.966 292.053 368.879 292.614 368.705C293.182 368.53 293.686 368.277 294.125 367.943C294.564 367.602 294.928 367.189 295.216 366.705C295.511 366.22 295.716 365.667 295.83 365.045L300.807 365.068C300.678 366.136 300.356 367.167 299.841 368.159C299.333 369.144 298.648 370.027 297.784 370.807C296.928 371.58 295.905 372.193 294.716 372.648C293.534 373.095 292.197 373.318 290.705 373.318C288.629 373.318 286.773 372.848 285.136 371.909C283.508 370.97 282.22 369.61 281.273 367.83C280.333 366.049 279.864 363.894 279.864 361.364C279.864 358.826 280.341 356.667 281.295 354.886C282.25 353.106 283.545 351.75 285.182 350.818C286.818 349.879 288.659 349.409 290.705 349.409C292.053 349.409 293.303 349.598 294.455 349.977C295.614 350.356 296.64 350.909 297.534 351.636C298.428 352.356 299.155 353.239 299.716 354.284C300.284 355.33 300.648 356.527 300.807 357.875ZM307.909 373H302.636L310.67 349.727H317.011L325.034 373H319.761L313.932 355.045H313.75L307.909 373ZM307.58 363.852H320.034V367.693H307.58V363.852ZM326.574 378.614V369.08H328.153C328.691 368.693 329.184 368.148 329.631 367.443C330.078 366.731 330.46 365.75 330.778 364.5C331.097 363.242 331.324 361.598 331.46 359.568L332.119 349.727H347.517V369.08H350.062V378.591H345.335V373H331.301V378.614H326.574ZM333.835 369.08H342.79V353.784H336.551L336.188 359.568C336.089 361.106 335.926 362.47 335.699 363.659C335.479 364.848 335.21 365.89 334.892 366.784C334.581 367.67 334.229 368.436 333.835 369.08Z" fill="#7E7E7E"/>
<path id="401&#208;&#176;" d="M127.534 135.909V132.034L137.25 116.727H140.591V122.091H138.614L132.489 131.784V131.966H146.295V135.909H127.534ZM138.705 140V134.727L138.795 133.011V116.727H143.409V140H138.705ZM158.699 140.511C156.744 140.504 155.063 140.023 153.653 139.068C152.252 138.114 151.172 136.731 150.415 134.92C149.665 133.11 149.294 130.932 149.301 128.386C149.301 125.848 149.676 123.686 150.426 121.898C151.184 120.11 152.263 118.75 153.665 117.818C155.074 116.879 156.752 116.409 158.699 116.409C160.646 116.409 162.32 116.879 163.722 117.818C165.131 118.758 166.214 120.121 166.972 121.909C167.729 123.689 168.104 125.848 168.097 128.386C168.097 130.939 167.718 133.121 166.96 134.932C166.21 136.742 165.134 138.125 163.733 139.08C162.331 140.034 160.653 140.511 158.699 140.511ZM158.699 136.432C160.032 136.432 161.097 135.761 161.892 134.42C162.688 133.08 163.081 131.068 163.074 128.386C163.074 126.621 162.892 125.152 162.528 123.977C162.172 122.803 161.665 121.92 161.006 121.33C160.354 120.739 159.585 120.443 158.699 120.443C157.373 120.443 156.313 121.106 155.517 122.432C154.722 123.758 154.32 125.742 154.312 128.386C154.312 130.174 154.491 131.667 154.847 132.864C155.21 134.053 155.722 134.947 156.381 135.545C157.04 136.136 157.812 136.432 158.699 136.432ZM181.73 116.727V140H176.81V121.398H176.673L171.344 124.739V120.375L177.105 116.727H181.73ZM192.284 140.33C191.17 140.33 190.178 140.136 189.307 139.75C188.436 139.356 187.746 138.777 187.239 138.011C186.739 137.239 186.489 136.277 186.489 135.125C186.489 134.155 186.667 133.341 187.023 132.682C187.379 132.023 187.864 131.492 188.477 131.091C189.091 130.689 189.788 130.386 190.568 130.182C191.356 129.977 192.182 129.833 193.045 129.75C194.061 129.644 194.879 129.545 195.5 129.455C196.121 129.356 196.572 129.212 196.852 129.023C197.133 128.833 197.273 128.553 197.273 128.182V128.114C197.273 127.394 197.045 126.837 196.591 126.443C196.144 126.049 195.508 125.852 194.682 125.852C193.811 125.852 193.117 126.045 192.602 126.432C192.087 126.811 191.746 127.288 191.58 127.864L187.102 127.5C187.33 126.439 187.777 125.523 188.443 124.75C189.11 123.97 189.97 123.371 191.023 122.955C192.083 122.53 193.311 122.318 194.705 122.318C195.674 122.318 196.602 122.432 197.489 122.659C198.383 122.886 199.174 123.239 199.864 123.716C200.561 124.193 201.11 124.807 201.511 125.557C201.913 126.299 202.114 127.189 202.114 128.227V140H197.523V137.58H197.386C197.106 138.125 196.731 138.606 196.261 139.023C195.792 139.432 195.227 139.754 194.568 139.989C193.909 140.216 193.148 140.33 192.284 140.33ZM193.67 136.989C194.383 136.989 195.011 136.848 195.557 136.568C196.102 136.28 196.53 135.894 196.841 135.409C197.152 134.924 197.307 134.375 197.307 133.761V131.909C197.155 132.008 196.947 132.098 196.682 132.182C196.424 132.258 196.133 132.33 195.807 132.398C195.481 132.458 195.155 132.515 194.83 132.568C194.504 132.614 194.208 132.655 193.943 132.693C193.375 132.777 192.879 132.909 192.455 133.091C192.03 133.273 191.701 133.519 191.466 133.83C191.231 134.133 191.114 134.511 191.114 134.966C191.114 135.625 191.352 136.129 191.83 136.477C192.314 136.818 192.928 136.989 193.67 136.989Z" fill="#7E7E7E"/>
<path id="402&#208;&#176;" d="M254.534 136.909V133.034L264.25 117.727H267.591V123.091H265.614L259.489 132.784V132.966H273.295V136.909H254.534ZM265.705 141V135.727L265.795 134.011V117.727H270.409V141H265.705ZM285.699 141.511C283.744 141.504 282.063 141.023 280.653 140.068C279.252 139.114 278.172 137.731 277.415 135.92C276.665 134.11 276.294 131.932 276.301 129.386C276.301 126.848 276.676 124.686 277.426 122.898C278.184 121.11 279.263 119.75 280.665 118.818C282.074 117.879 283.752 117.409 285.699 117.409C287.646 117.409 289.32 117.879 290.722 118.818C292.131 119.758 293.214 121.121 293.972 122.909C294.729 124.689 295.104 126.848 295.097 129.386C295.097 131.939 294.718 134.121 293.96 135.932C293.21 137.742 292.134 139.125 290.733 140.08C289.331 141.034 287.653 141.511 285.699 141.511ZM285.699 137.432C287.032 137.432 288.097 136.761 288.892 135.42C289.688 134.08 290.081 132.068 290.074 129.386C290.074 127.621 289.892 126.152 289.528 124.977C289.172 123.803 288.665 122.92 288.006 122.33C287.354 121.739 286.585 121.443 285.699 121.443C284.373 121.443 283.313 122.106 282.517 123.432C281.722 124.758 281.32 126.742 281.312 129.386C281.312 131.174 281.491 132.667 281.847 133.864C282.21 135.053 282.722 135.947 283.381 136.545C284.04 137.136 284.812 137.432 285.699 137.432ZM298.605 141V137.455L306.889 129.784C307.594 129.102 308.185 128.489 308.662 127.943C309.147 127.398 309.514 126.864 309.764 126.341C310.014 125.811 310.139 125.239 310.139 124.625C310.139 123.943 309.984 123.356 309.673 122.864C309.363 122.364 308.938 121.981 308.401 121.716C307.863 121.443 307.253 121.307 306.571 121.307C305.859 121.307 305.238 121.451 304.707 121.739C304.177 122.027 303.768 122.439 303.48 122.977C303.192 123.515 303.048 124.155 303.048 124.898H298.378C298.378 123.375 298.723 122.053 299.412 120.932C300.101 119.811 301.067 118.943 302.31 118.33C303.552 117.716 304.984 117.409 306.605 117.409C308.272 117.409 309.723 117.705 310.957 118.295C312.2 118.879 313.166 119.689 313.855 120.727C314.545 121.765 314.889 122.955 314.889 124.295C314.889 125.174 314.715 126.042 314.366 126.898C314.026 127.754 313.416 128.705 312.537 129.75C311.658 130.788 310.42 132.034 308.821 133.489L305.423 136.818V136.977H315.196V141H298.605ZM323.784 141.33C322.67 141.33 321.678 141.136 320.807 140.75C319.936 140.356 319.246 139.777 318.739 139.011C318.239 138.239 317.989 137.277 317.989 136.125C317.989 135.155 318.167 134.341 318.523 133.682C318.879 133.023 319.364 132.492 319.977 132.091C320.591 131.689 321.288 131.386 322.068 131.182C322.856 130.977 323.682 130.833 324.545 130.75C325.561 130.644 326.379 130.545 327 130.455C327.621 130.356 328.072 130.212 328.352 130.023C328.633 129.833 328.773 129.553 328.773 129.182V129.114C328.773 128.394 328.545 127.837 328.091 127.443C327.644 127.049 327.008 126.852 326.182 126.852C325.311 126.852 324.617 127.045 324.102 127.432C323.587 127.811 323.246 128.288 323.08 128.864L318.602 128.5C318.83 127.439 319.277 126.523 319.943 125.75C320.61 124.97 321.47 124.371 322.523 123.955C323.583 123.53 324.811 123.318 326.205 123.318C327.174 123.318 328.102 123.432 328.989 123.659C329.883 123.886 330.674 124.239 331.364 124.716C332.061 125.193 332.61 125.807 333.011 126.557C333.413 127.299 333.614 128.189 333.614 129.227V141H329.023V138.58H328.886C328.606 139.125 328.231 139.606 327.761 140.023C327.292 140.432 326.727 140.754 326.068 140.989C325.409 141.216 324.648 141.33 323.784 141.33ZM325.17 137.989C325.883 137.989 326.511 137.848 327.057 137.568C327.602 137.28 328.03 136.894 328.341 136.409C328.652 135.924 328.807 135.375 328.807 134.761V132.909C328.655 133.008 328.447 133.098 328.182 133.182C327.924 133.258 327.633 133.33 327.307 133.398C326.981 133.458 326.655 133.515 326.33 133.568C326.004 133.614 325.708 133.655 325.443 133.693C324.875 133.777 324.379 133.909 323.955 134.091C323.53 134.273 323.201 134.519 322.966 134.83C322.731 135.133 322.614 135.511 322.614 135.966C322.614 136.625 322.852 137.129 323.33 137.477C323.814 137.818 324.428 137.989 325.17 137.989Z" fill="#7E7E7E"/>
<path id="403&#208;&#176;" d="M378.534 136.909V133.034L388.25 117.727H391.591V123.091H389.614L383.489 132.784V132.966H397.295V136.909H378.534ZM389.705 141V135.727L389.795 134.011V117.727H394.409V141H389.705ZM409.699 141.511C407.744 141.504 406.063 141.023 404.653 140.068C403.252 139.114 402.172 137.731 401.415 135.92C400.665 134.11 400.294 131.932 400.301 129.386C400.301 126.848 400.676 124.686 401.426 122.898C402.184 121.11 403.263 119.75 404.665 118.818C406.074 117.879 407.752 117.409 409.699 117.409C411.646 117.409 413.32 117.879 414.722 118.818C416.131 119.758 417.214 121.121 417.972 122.909C418.729 124.689 419.104 126.848 419.097 129.386C419.097 131.939 418.718 134.121 417.96 135.932C417.21 137.742 416.134 139.125 414.733 140.08C413.331 141.034 411.653 141.511 409.699 141.511ZM409.699 137.432C411.032 137.432 412.097 136.761 412.892 135.42C413.688 134.08 414.081 132.068 414.074 129.386C414.074 127.621 413.892 126.152 413.528 124.977C413.172 123.803 412.665 122.92 412.006 122.33C411.354 121.739 410.585 121.443 409.699 121.443C408.373 121.443 407.313 122.106 406.517 123.432C405.722 124.758 405.32 126.742 405.312 129.386C405.312 131.174 405.491 132.667 405.847 133.864C406.21 135.053 406.722 135.947 407.381 136.545C408.04 137.136 408.812 137.432 409.699 137.432ZM431.207 141.318C429.51 141.318 427.999 141.027 426.673 140.443C425.355 139.852 424.313 139.042 423.548 138.011C422.791 136.973 422.401 135.777 422.378 134.42H427.332C427.363 134.989 427.548 135.489 427.889 135.92C428.238 136.345 428.7 136.674 429.276 136.909C429.851 137.144 430.499 137.261 431.219 137.261C431.969 137.261 432.632 137.129 433.207 136.864C433.783 136.598 434.234 136.231 434.56 135.761C434.885 135.292 435.048 134.75 435.048 134.136C435.048 133.515 434.874 132.966 434.526 132.489C434.185 132.004 433.692 131.625 433.048 131.352C432.412 131.08 431.654 130.943 430.776 130.943H428.605V127.33H430.776C431.518 127.33 432.173 127.201 432.741 126.943C433.317 126.686 433.764 126.33 434.082 125.875C434.401 125.413 434.56 124.875 434.56 124.261C434.56 123.678 434.42 123.167 434.139 122.727C433.866 122.28 433.48 121.932 432.98 121.682C432.488 121.432 431.912 121.307 431.253 121.307C430.586 121.307 429.976 121.428 429.423 121.67C428.87 121.905 428.427 122.242 428.094 122.682C427.76 123.121 427.582 123.636 427.56 124.227H422.844C422.866 122.886 423.249 121.705 423.991 120.682C424.734 119.659 425.734 118.86 426.991 118.284C428.257 117.701 429.685 117.409 431.276 117.409C432.882 117.409 434.287 117.701 435.491 118.284C436.696 118.867 437.632 119.655 438.298 120.648C438.973 121.633 439.306 122.739 439.298 123.966C439.306 125.269 438.901 126.356 438.082 127.227C437.272 128.098 436.215 128.652 434.912 128.886V129.068C436.624 129.288 437.927 129.883 438.821 130.852C439.723 131.814 440.17 133.019 440.162 134.466C440.17 135.792 439.787 136.97 439.014 138C438.249 139.03 437.192 139.841 435.844 140.432C434.495 141.023 432.95 141.318 431.207 141.318ZM448.722 141.33C447.608 141.33 446.616 141.136 445.744 140.75C444.873 140.356 444.184 139.777 443.676 139.011C443.176 138.239 442.926 137.277 442.926 136.125C442.926 135.155 443.104 134.341 443.46 133.682C443.816 133.023 444.301 132.492 444.915 132.091C445.528 131.689 446.225 131.386 447.006 131.182C447.794 130.977 448.619 130.833 449.483 130.75C450.498 130.644 451.316 130.545 451.938 130.455C452.559 130.356 453.009 130.212 453.29 130.023C453.57 129.833 453.71 129.553 453.71 129.182V129.114C453.71 128.394 453.483 127.837 453.028 127.443C452.581 127.049 451.945 126.852 451.119 126.852C450.248 126.852 449.555 127.045 449.04 127.432C448.525 127.811 448.184 128.288 448.017 128.864L443.54 128.5C443.767 127.439 444.214 126.523 444.881 125.75C445.547 124.97 446.407 124.371 447.46 123.955C448.521 123.53 449.748 123.318 451.142 123.318C452.112 123.318 453.04 123.432 453.926 123.659C454.82 123.886 455.612 124.239 456.301 124.716C456.998 125.193 457.547 125.807 457.949 126.557C458.35 127.299 458.551 128.189 458.551 129.227V141H453.96V138.58H453.824C453.544 139.125 453.169 139.606 452.699 140.023C452.229 140.432 451.665 140.754 451.006 140.989C450.347 141.216 449.585 141.33 448.722 141.33ZM450.108 137.989C450.82 137.989 451.449 137.848 451.994 137.568C452.54 137.28 452.968 136.894 453.278 136.409C453.589 135.924 453.744 135.375 453.744 134.761V132.909C453.593 133.008 453.384 133.098 453.119 133.182C452.862 133.258 452.57 133.33 452.244 133.398C451.919 133.458 451.593 133.515 451.267 133.568C450.941 133.614 450.646 133.655 450.381 133.693C449.813 133.777 449.316 133.909 448.892 134.091C448.468 134.273 448.138 134.519 447.903 134.83C447.669 135.133 447.551 135.511 447.551 135.966C447.551 136.625 447.79 137.129 448.267 137.477C448.752 137.818 449.366 137.989 450.108 137.989Z" fill="#7E7E7E"/>
<path id="404&#208;&#176;" d="M575.534 138.909V135.034L585.25 119.727H588.591V125.091H586.614L580.489 134.784V134.966H594.295V138.909H575.534ZM586.705 143V137.727L586.795 136.011V119.727H591.409V143H586.705ZM606.699 143.511C604.744 143.504 603.063 143.023 601.653 142.068C600.252 141.114 599.172 139.731 598.415 137.92C597.665 136.11 597.294 133.932 597.301 131.386C597.301 128.848 597.676 126.686 598.426 124.898C599.184 123.11 600.263 121.75 601.665 120.818C603.074 119.879 604.752 119.409 606.699 119.409C608.646 119.409 610.32 119.879 611.722 120.818C613.131 121.758 614.214 123.121 614.972 124.909C615.729 126.689 616.104 128.848 616.097 131.386C616.097 133.939 615.718 136.121 614.96 137.932C614.21 139.742 613.134 141.125 611.733 142.08C610.331 143.034 608.653 143.511 606.699 143.511ZM606.699 139.432C608.032 139.432 609.097 138.761 609.892 137.42C610.688 136.08 611.081 134.068 611.074 131.386C611.074 129.621 610.892 128.152 610.528 126.977C610.172 125.803 609.665 124.92 609.006 124.33C608.354 123.739 607.585 123.443 606.699 123.443C605.373 123.443 604.313 124.106 603.517 125.432C602.722 126.758 602.32 128.742 602.312 131.386C602.312 133.174 602.491 134.667 602.847 135.864C603.21 137.053 603.722 137.947 604.381 138.545C605.04 139.136 605.812 139.432 606.699 139.432ZM619.253 138.909V135.034L628.969 119.727H632.31V125.091H630.332L624.207 134.784V134.966H638.014V138.909H619.253ZM630.423 143V137.727L630.514 136.011V119.727H635.128V143H630.423ZM646.315 143.33C645.202 143.33 644.209 143.136 643.338 142.75C642.467 142.356 641.777 141.777 641.27 141.011C640.77 140.239 640.52 139.277 640.52 138.125C640.52 137.155 640.698 136.341 641.054 135.682C641.41 135.023 641.895 134.492 642.509 134.091C643.122 133.689 643.819 133.386 644.599 133.182C645.387 132.977 646.213 132.833 647.077 132.75C648.092 132.644 648.91 132.545 649.531 132.455C650.152 132.356 650.603 132.212 650.884 132.023C651.164 131.833 651.304 131.553 651.304 131.182V131.114C651.304 130.394 651.077 129.837 650.622 129.443C650.175 129.049 649.539 128.852 648.713 128.852C647.842 128.852 647.149 129.045 646.634 129.432C646.118 129.811 645.777 130.288 645.611 130.864L641.134 130.5C641.361 129.439 641.808 128.523 642.474 127.75C643.141 126.97 644.001 126.371 645.054 125.955C646.115 125.53 647.342 125.318 648.736 125.318C649.705 125.318 650.634 125.432 651.52 125.659C652.414 125.886 653.205 126.239 653.895 126.716C654.592 127.193 655.141 127.807 655.543 128.557C655.944 129.299 656.145 130.189 656.145 131.227V143H651.554V140.58H651.418C651.137 141.125 650.762 141.606 650.293 142.023C649.823 142.432 649.259 142.754 648.599 142.989C647.94 143.216 647.179 143.33 646.315 143.33ZM647.702 139.989C648.414 139.989 649.043 139.848 649.588 139.568C650.134 139.28 650.562 138.894 650.872 138.409C651.183 137.924 651.338 137.375 651.338 136.761V134.909C651.187 135.008 650.978 135.098 650.713 135.182C650.455 135.258 650.164 135.33 649.838 135.398C649.512 135.458 649.187 135.515 648.861 135.568C648.535 135.614 648.24 135.655 647.974 135.693C647.406 135.777 646.91 135.909 646.486 136.091C646.062 136.273 645.732 136.519 645.497 136.83C645.262 137.133 645.145 137.511 645.145 137.966C645.145 138.625 645.384 139.129 645.861 139.477C646.346 139.818 646.959 139.989 647.702 139.989Z" fill="#7E7E7E"/>
<path id="405&#208;&#176;" d="M692.534 137.909V134.034L702.25 118.727H705.591V124.091H703.614L697.489 133.784V133.966H711.295V137.909H692.534ZM703.705 142V136.727L703.795 135.011V118.727H708.409V142H703.705ZM723.699 142.511C721.744 142.504 720.063 142.023 718.653 141.068C717.252 140.114 716.172 138.731 715.415 136.92C714.665 135.11 714.294 132.932 714.301 130.386C714.301 127.848 714.676 125.686 715.426 123.898C716.184 122.11 717.263 120.75 718.665 119.818C720.074 118.879 721.752 118.409 723.699 118.409C725.646 118.409 727.32 118.879 728.722 119.818C730.131 120.758 731.214 122.121 731.972 123.909C732.729 125.689 733.104 127.848 733.097 130.386C733.097 132.939 732.718 135.121 731.96 136.932C731.21 138.742 730.134 140.125 728.733 141.08C727.331 142.034 725.653 142.511 723.699 142.511ZM723.699 138.432C725.032 138.432 726.097 137.761 726.892 136.42C727.688 135.08 728.081 133.068 728.074 130.386C728.074 128.621 727.892 127.152 727.528 125.977C727.172 124.803 726.665 123.92 726.006 123.33C725.354 122.739 724.585 122.443 723.699 122.443C722.373 122.443 721.313 123.106 720.517 124.432C719.722 125.758 719.32 127.742 719.312 130.386C719.312 132.174 719.491 133.667 719.847 134.864C720.21 136.053 720.722 136.947 721.381 137.545C722.04 138.136 722.812 138.432 723.699 138.432ZM745.105 142.318C743.499 142.318 742.067 142.023 740.81 141.432C739.56 140.841 738.567 140.027 737.832 138.989C737.098 137.951 736.715 136.761 736.685 135.42H741.457C741.51 136.322 741.889 137.053 742.594 137.614C743.298 138.174 744.135 138.455 745.105 138.455C745.878 138.455 746.56 138.284 747.151 137.943C747.749 137.595 748.215 137.114 748.548 136.5C748.889 135.879 749.06 135.167 749.06 134.364C749.06 133.545 748.885 132.826 748.537 132.205C748.196 131.583 747.723 131.098 747.116 130.75C746.51 130.402 745.817 130.223 745.037 130.216C744.355 130.216 743.692 130.356 743.048 130.636C742.412 130.917 741.916 131.299 741.56 131.784L737.185 131L738.287 118.727H752.514V122.75H742.344L741.741 128.58H741.878C742.287 128.004 742.904 127.527 743.73 127.148C744.556 126.769 745.48 126.58 746.503 126.58C747.904 126.58 749.154 126.909 750.253 127.568C751.351 128.227 752.219 129.133 752.855 130.284C753.491 131.428 753.806 132.746 753.798 134.239C753.806 135.807 753.442 137.201 752.707 138.42C751.98 139.633 750.961 140.587 749.651 141.284C748.348 141.973 746.832 142.318 745.105 142.318ZM762.253 142.33C761.139 142.33 760.147 142.136 759.276 141.75C758.404 141.356 757.715 140.777 757.207 140.011C756.707 139.239 756.457 138.277 756.457 137.125C756.457 136.155 756.635 135.341 756.991 134.682C757.348 134.023 757.832 133.492 758.446 133.091C759.06 132.689 759.757 132.386 760.537 132.182C761.325 131.977 762.151 131.833 763.014 131.75C764.029 131.644 764.848 131.545 765.469 131.455C766.09 131.356 766.541 131.212 766.821 131.023C767.101 130.833 767.241 130.553 767.241 130.182V130.114C767.241 129.394 767.014 128.837 766.56 128.443C766.113 128.049 765.476 127.852 764.651 127.852C763.779 127.852 763.086 128.045 762.571 128.432C762.056 128.811 761.715 129.288 761.548 129.864L757.071 129.5C757.298 128.439 757.745 127.523 758.412 126.75C759.079 125.97 759.938 125.371 760.991 124.955C762.052 124.53 763.279 124.318 764.673 124.318C765.643 124.318 766.571 124.432 767.457 124.659C768.351 124.886 769.143 125.239 769.832 125.716C770.529 126.193 771.079 126.807 771.48 127.557C771.882 128.299 772.082 129.189 772.082 130.227V142H767.491V139.58H767.355C767.075 140.125 766.7 140.606 766.23 141.023C765.76 141.432 765.196 141.754 764.537 141.989C763.878 142.216 763.116 142.33 762.253 142.33ZM763.639 138.989C764.351 138.989 764.98 138.848 765.526 138.568C766.071 138.28 766.499 137.894 766.81 137.409C767.12 136.924 767.276 136.375 767.276 135.761V133.909C767.124 134.008 766.916 134.098 766.651 134.182C766.393 134.258 766.101 134.33 765.776 134.398C765.45 134.458 765.124 134.515 764.798 134.568C764.473 134.614 764.177 134.655 763.912 134.693C763.344 134.777 762.848 134.909 762.423 135.091C761.999 135.273 761.67 135.519 761.435 135.83C761.2 136.133 761.082 136.511 761.082 136.966C761.082 137.625 761.321 138.129 761.798 138.477C762.283 138.818 762.897 138.989 763.639 138.989Z" fill="#7E7E7E"/>
<path id="406&#208;&#176;" d="M824.534 138.909V135.034L834.25 119.727H837.591V125.091H835.614L829.489 134.784V134.966H843.295V138.909H824.534ZM835.705 143V137.727L835.795 136.011V119.727H840.409V143H835.705ZM855.699 143.511C853.744 143.504 852.063 143.023 850.653 142.068C849.252 141.114 848.172 139.731 847.415 137.92C846.665 136.11 846.294 133.932 846.301 131.386C846.301 128.848 846.676 126.686 847.426 124.898C848.184 123.11 849.263 121.75 850.665 120.818C852.074 119.879 853.752 119.409 855.699 119.409C857.646 119.409 859.32 119.879 860.722 120.818C862.131 121.758 863.214 123.121 863.972 124.909C864.729 126.689 865.104 128.848 865.097 131.386C865.097 133.939 864.718 136.121 863.96 137.932C863.21 139.742 862.134 141.125 860.733 142.08C859.331 143.034 857.653 143.511 855.699 143.511ZM855.699 139.432C857.032 139.432 858.097 138.761 858.892 137.42C859.688 136.08 860.081 134.068 860.074 131.386C860.074 129.621 859.892 128.152 859.528 126.977C859.172 125.803 858.665 124.92 858.006 124.33C857.354 123.739 856.585 123.443 855.699 123.443C854.373 123.443 853.313 124.106 852.517 125.432C851.722 126.758 851.32 128.742 851.312 131.386C851.312 133.174 851.491 134.667 851.847 135.864C852.21 137.053 852.722 137.947 853.381 138.545C854.04 139.136 854.812 139.432 855.699 139.432ZM877.537 143.318C876.34 143.311 875.185 143.11 874.071 142.716C872.965 142.322 871.973 141.682 871.094 140.795C870.215 139.909 869.518 138.735 869.003 137.273C868.495 135.811 868.241 134.015 868.241 131.886C868.249 129.932 868.473 128.186 868.912 126.648C869.359 125.102 869.995 123.792 870.821 122.716C871.654 121.64 872.651 120.822 873.81 120.261C874.969 119.693 876.268 119.409 877.707 119.409C879.26 119.409 880.632 119.712 881.821 120.318C883.01 120.917 883.965 121.731 884.685 122.761C885.412 123.792 885.851 124.947 886.003 126.227H881.151C880.961 125.417 880.563 124.78 879.957 124.318C879.351 123.856 878.601 123.625 877.707 123.625C876.192 123.625 875.041 124.284 874.253 125.602C873.473 126.92 873.075 128.712 873.06 130.977H873.219C873.567 130.288 874.037 129.701 874.628 129.216C875.226 128.723 875.904 128.348 876.662 128.091C877.427 127.826 878.234 127.693 879.082 127.693C880.461 127.693 881.688 128.019 882.764 128.67C883.84 129.314 884.688 130.201 885.31 131.33C885.931 132.458 886.241 133.75 886.241 135.205C886.241 136.78 885.874 138.182 885.139 139.409C884.412 140.636 883.393 141.598 882.082 142.295C880.779 142.985 879.264 143.326 877.537 143.318ZM877.514 139.455C878.272 139.455 878.95 139.273 879.548 138.909C880.147 138.545 880.616 138.053 880.957 137.432C881.298 136.811 881.469 136.114 881.469 135.341C881.469 134.568 881.298 133.875 880.957 133.261C880.624 132.648 880.162 132.159 879.571 131.795C878.98 131.432 878.306 131.25 877.548 131.25C876.98 131.25 876.454 131.356 875.969 131.568C875.491 131.78 875.071 132.076 874.707 132.455C874.351 132.833 874.071 133.273 873.866 133.773C873.662 134.265 873.56 134.792 873.56 135.352C873.56 136.102 873.73 136.788 874.071 137.409C874.42 138.03 874.889 138.527 875.48 138.898C876.079 139.269 876.757 139.455 877.514 139.455ZM894.753 143.33C893.639 143.33 892.647 143.136 891.776 142.75C890.904 142.356 890.215 141.777 889.707 141.011C889.207 140.239 888.957 139.277 888.957 138.125C888.957 137.155 889.135 136.341 889.491 135.682C889.848 135.023 890.332 134.492 890.946 134.091C891.56 133.689 892.257 133.386 893.037 133.182C893.825 132.977 894.651 132.833 895.514 132.75C896.529 132.644 897.348 132.545 897.969 132.455C898.59 132.356 899.041 132.212 899.321 132.023C899.601 131.833 899.741 131.553 899.741 131.182V131.114C899.741 130.394 899.514 129.837 899.06 129.443C898.613 129.049 897.976 128.852 897.151 128.852C896.279 128.852 895.586 129.045 895.071 129.432C894.556 129.811 894.215 130.288 894.048 130.864L889.571 130.5C889.798 129.439 890.245 128.523 890.912 127.75C891.579 126.97 892.438 126.371 893.491 125.955C894.552 125.53 895.779 125.318 897.173 125.318C898.143 125.318 899.071 125.432 899.957 125.659C900.851 125.886 901.643 126.239 902.332 126.716C903.029 127.193 903.579 127.807 903.98 128.557C904.382 129.299 904.582 130.189 904.582 131.227V143H899.991V140.58H899.855C899.575 141.125 899.2 141.606 898.73 142.023C898.26 142.432 897.696 142.754 897.037 142.989C896.378 143.216 895.616 143.33 894.753 143.33ZM896.139 139.989C896.851 139.989 897.48 139.848 898.026 139.568C898.571 139.28 898.999 138.894 899.31 138.409C899.62 137.924 899.776 137.375 899.776 136.761V134.909C899.624 135.008 899.416 135.098 899.151 135.182C898.893 135.258 898.601 135.33 898.276 135.398C897.95 135.458 897.624 135.515 897.298 135.568C896.973 135.614 896.677 135.655 896.412 135.693C895.844 135.777 895.348 135.909 894.923 136.091C894.499 136.273 894.17 136.519 893.935 136.83C893.7 137.133 893.582 137.511 893.582 137.966C893.582 138.625 893.821 139.129 894.298 139.477C894.783 139.818 895.397 139.989 896.139 139.989Z" fill="#7E7E7E"/>
<path id="407&#208;&#176;" d="M950.534 136.909V133.034L960.25 117.727H963.591V123.091H961.614L955.489 132.784V132.966H969.295V136.909H950.534ZM961.705 141V135.727L961.795 134.011V117.727H966.409V141H961.705ZM981.699 141.511C979.744 141.504 978.063 141.023 976.653 140.068C975.252 139.114 974.172 137.731 973.415 135.92C972.665 134.11 972.294 131.932 972.301 129.386C972.301 126.848 972.676 124.686 973.426 122.898C974.184 121.11 975.263 119.75 976.665 118.818C978.074 117.879 979.752 117.409 981.699 117.409C983.646 117.409 985.32 117.879 986.722 118.818C988.131 119.758 989.214 121.121 989.972 122.909C990.729 124.689 991.104 126.848 991.097 129.386C991.097 131.939 990.718 134.121 989.96 135.932C989.21 137.742 988.134 139.125 986.733 140.08C985.331 141.034 983.653 141.511 981.699 141.511ZM981.699 137.432C983.032 137.432 984.097 136.761 984.892 135.42C985.688 134.08 986.081 132.068 986.074 129.386C986.074 127.621 985.892 126.152 985.528 124.977C985.172 123.803 984.665 122.92 984.006 122.33C983.354 121.739 982.585 121.443 981.699 121.443C980.373 121.443 979.313 122.106 978.517 123.432C977.722 124.758 977.32 126.742 977.312 129.386C977.312 131.174 977.491 132.667 977.847 133.864C978.21 135.053 978.722 135.947 979.381 136.545C980.04 137.136 980.812 137.432 981.699 137.432ZM994.901 141L1004.55 121.909V121.75H993.31V117.727H1009.64V121.807L999.98 141H994.901ZM1016.57 141.33C1015.45 141.33 1014.46 141.136 1013.59 140.75C1012.72 140.356 1012.03 139.777 1011.52 139.011C1011.02 138.239 1010.77 137.277 1010.77 136.125C1010.77 135.155 1010.95 134.341 1011.3 133.682C1011.66 133.023 1012.14 132.492 1012.76 132.091C1013.37 131.689 1014.07 131.386 1014.85 131.182C1015.64 130.977 1016.46 130.833 1017.33 130.75C1018.34 130.644 1019.16 130.545 1019.78 130.455C1020.4 130.356 1020.85 130.212 1021.13 130.023C1021.41 129.833 1021.55 129.553 1021.55 129.182V129.114C1021.55 128.394 1021.33 127.837 1020.87 127.443C1020.43 127.049 1019.79 126.852 1018.96 126.852C1018.09 126.852 1017.4 127.045 1016.88 127.432C1016.37 127.811 1016.03 128.288 1015.86 128.864L1011.38 128.5C1011.61 127.439 1012.06 126.523 1012.72 125.75C1013.39 124.97 1014.25 124.371 1015.3 123.955C1016.36 123.53 1017.59 123.318 1018.99 123.318C1019.96 123.318 1020.88 123.432 1021.77 123.659C1022.66 123.886 1023.46 124.239 1024.14 124.716C1024.84 125.193 1025.39 125.807 1025.79 126.557C1026.19 127.299 1026.39 128.189 1026.39 129.227V141H1021.8V138.58H1021.67C1021.39 139.125 1021.01 139.606 1020.54 140.023C1020.07 140.432 1019.51 140.754 1018.85 140.989C1018.19 141.216 1017.43 141.33 1016.57 141.33ZM1017.95 137.989C1018.66 137.989 1019.29 137.848 1019.84 137.568C1020.38 137.28 1020.81 136.894 1021.12 136.409C1021.43 135.924 1021.59 135.375 1021.59 134.761V132.909C1021.44 133.008 1021.23 133.098 1020.96 133.182C1020.71 133.258 1020.41 133.33 1020.09 133.398C1019.76 133.458 1019.44 133.515 1019.11 133.568C1018.79 133.614 1018.49 133.655 1018.22 133.693C1017.66 133.777 1017.16 133.909 1016.74 134.091C1016.31 134.273 1015.98 134.519 1015.75 134.83C1015.51 135.133 1015.39 135.511 1015.39 135.966C1015.39 136.625 1015.63 137.129 1016.11 137.477C1016.6 137.818 1017.21 137.989 1017.95 137.989Z" fill="#7E7E7E"/>
</g>
<defs>
<filter id="filter0_f_1_2" x="158" y="169" width="877" height="359" filterUnits="userSpaceOnUse" color-interpolation-filters="sRGB">
<feFlood flood-opacity="0" result="BackgroundImageFix"/>
<feBlend mode="normal" in="SourceGraphic" in2="BackgroundImageFix" result="shape"/>
<feGaussianBlur stdDeviation="3" result="effect1_foregroundBlur_1_2"/>
</filter>
<filter id="filter1_d_1_2" x="44" y="479" width="129" height="203" filterUnits="userSpaceOnUse" color-interpolation-filters="sRGB">
<feFlood flood-opacity="0" result="BackgroundImageFix"/>
<feColorMatrix in="SourceAlpha" type="matrix" values="0 0 0 0 0 0 0 0 0 0 0 0 0 0 0 0 0 0 127 0" result="hardAlpha"/>
<feOffset dy="4"/>
<feGaussianBlur stdDeviation="2"/>
<feComposite in2="hardAlpha" operator="out"/>
<feColorMatrix type="matrix" values="0 0 0 0 0 0 0 0 0 0 0 0 0 0 0 0 0 0 0.25 0"/>
<feBlend mode="normal" in2="BackgroundImageFix" result="effect1_dropShadow_1_2"/>
<feBlend mode="normal" in="SourceGraphic" in2="effect1_dropShadow_1_2" result="shape"/>
</filter>
<filter id="filter2_d_1_2" x="212" y="479" width="226" height="161" filterUnits="userSpaceOnUse" color-interpolation-filters="sRGB">
<feFlood flood-opacity="0" result="BackgroundImageFix"/>
<feColorMatrix in="SourceAlpha" type="matrix" values="0 0 0 0 0 0 0 0 0 0 0 0 0 0 0 0 0 0 127 0" result="hardAlpha"/>
<feOffset dy="4"/>
<feGaussianBlur stdDeviation="2"/>
<feComposite in2="hardAlpha" operator="out"/>
<feColorMatrix type="matrix" values="0 0 0 0 0 0 0 0 0 0 0 0 0 0 0 0 0 0 0.25 0"/>
<feBlend mode="normal" in2="BackgroundImageFix" result="effect1_dropShadow_1_2"/>
<feBlend mode="normal" in="SourceGraphic" in2="effect1_dropShadow_1_2" result="shape"/>
</filter>
<filter id="filter3_d_1_2" x="42" y="232" width="395" height="250" filterUnits="userSpaceOnUse" color-interpolation-filters="sRGB">
<feFlood flood-opacity="0" result="BackgroundImageFix"/>
<feColorMatrix in="SourceAlpha" type="matrix" values="0 0 0 0 0 0 0 0 0 0 0 0 0 0 0 0 0 0 127 0" result="hardAlpha"/>
<feOffset dy="4"/>
<feGaussianBlur stdDeviation="2"/>
<feComposite in2="hardAlpha" operator="out"/>
<feColorMatrix type="matrix" values="0 0 0 0 0 0 0 0 0 0 0 0 0 0 0 0 0 0 0.25 0"/>
<feBlend mode="normal" in2="BackgroundImageFix" result="effect1_dropShadow_1_2"/>
<feBlend mode="normal" in="SourceGraphic" in2="effect1_dropShadow_1_2" result="shape"/>
</filter>
<filter id="filter4_d_1_2" x="44" y="80" width="56" height="97" filterUnits="userSpaceOnUse" color-interpolation-filters="sRGB">
<feFlood flood-opacity="0" result="BackgroundImageFix"/>
<feColorMatrix in="SourceAlpha" type="matrix" values="0 0 0 0 0 0 0 0 0 0 0 0 0 0 0 0 0 0 127 0" result="hardAlpha"/>
<feOffset dy="4"/>
<feGaussianBlur stdDeviation="2"/>
<feComposite in2="hardAlpha" operator="out"/>
<feColorMatrix type="matrix" values="0 0 0 0 0 0 0 0 0 0 0 0 0 0 0 0 0 0 0.25 0"/>
<feBlend mode="normal" in2="BackgroundImageFix" result="effect1_dropShadow_1_2"/>
<feBlend mode="normal" in="SourceGraphic" in2="effect1_dropShadow_1_2" result="shape"/>
</filter>
<filter id="filter5_d_1_2" x="94" y="80" width="142" height="108" filterUnits="userSpaceOnUse" color-interpolation-filters="sRGB">
<feFlood flood-opacity="0" result="BackgroundImageFix"/>
<feColorMatrix in="SourceAlpha" type="matrix" values="0 0 0 0 0 0 0 0 0 0 0 0 0 0 0 0 0 0 127 0" result="hardAlpha"/>
<feOffset dy="4"/>
<feGaussianBlur stdDeviation="2"/>
<feComposite in2="hardAlpha" operator="out"/>
<feColorMatrix type="matrix" values="0 0 0 0 0 0 0 0 0 0 0 0 0 0 0 0 0 0 0.25 0"/>
<feBlend mode="normal" in2="BackgroundImageFix" result="effect1_dropShadow_1_2"/>
<feBlend mode="normal" in="SourceGraphic" in2="effect1_dropShadow_1_2" result="shape"/>
</filter>
<filter id="filter6_d_1_2" x="230" y="80" width="133" height="108" filterUnits="userSpaceOnUse" color-interpolation-filters="sRGB">
<feFlood flood-opacity="0" result="BackgroundImageFix"/>
<feColorMatrix in="SourceAlpha" type="matrix" values="0 0 0 0 0 0 0 0 0 0 0 0 0 0 0 0 0 0 127 0" result="hardAlpha"/>
<feOffset dy="4"/>
<feGaussianBlur stdDeviation="2"/>
<feComposite in2="hardAlpha" operator="out"/>
<feColorMatrix type="matrix" values="0 0 0 0 0 0 0 0 0 0 0 0 0 0 0 0 0 0 0.25 0"/>
<feBlend mode="normal" in2="BackgroundImageFix" result="effect1_dropShadow_1_2"/>
<feBlend mode="normal" in="SourceGraphic" in2="effect1_dropShadow_1_2" result="shape"/>
</filter>
<filter id="filter7_d_1_2" x="357" y="80" width="134" height="108" filterUnits="userSpaceOnUse" color-interpolation-filters="sRGB">
<feFlood flood-opacity="0" result="BackgroundImageFix"/>
<feColorMatrix in="SourceAlpha" type="matrix" values="0 0 0 0 0 0 0 0 0 0 0 0 0 0 0 0 0 0 127 0" result="hardAlpha"/>
<feOffset dy="4"/>
<feGaussianBlur stdDeviation="2"/>
<feComposite in2="hardAlpha" operator="out"/>
<feColorMatrix type="matrix" values="0 0 0 0 0 0 0 0 0 0 0 0 0 0 0 0 0 0 0.25 0"/>
<feBlend mode="normal" in2="BackgroundImageFix" result="effect1_dropShadow_1_2"/>
<feBlend mode="normal" in="SourceGraphic" in2="effect1_dropShadow_1_2" result="shape"/>
</filter>
<filter id="filter8_d_1_2" x="668" y="232" width="198" height="58" filterUnits="userSpaceOnUse" color-interpolation-filters="sRGB">
<feFlood flood-opacity="0" result="BackgroundImageFix"/>
<feColorMatrix in="SourceAlpha" type="matrix" values="0 0 0 0 0 0 0 0 0 0 0 0 0 0 0 0 0 0 127 0" result="hardAlpha"/>
<feOffset dy="4"/>
<feGaussianBlur stdDeviation="2"/>
<feComposite in2="hardAlpha" operator="out"/>
<feColorMatrix type="matrix" values="0 0 0 0 0 0 0 0 0 0 0 0 0 0 0 0 0 0 0.25 0"/>
<feBlend mode="normal" in2="BackgroundImageFix" result="effect1_dropShadow_1_2"/>
<feBlend mode="normal" in="SourceGraphic" in2="effect1_dropShadow_1_2" result="shape"/>
</filter>
<filter id="filter9_d_1_2" x="860" y="232" width="30" height="58" filterUnits="userSpaceOnUse" color-interpolation-filters="sRGB">
<feFlood flood-opacity="0" result="BackgroundImageFix"/>
<feColorMatrix in="SourceAlpha" type="matrix" values="0 0 0 0 0 0 0 0 0 0 0 0 0 0 0 0 0 0 127 0" result="hardAlpha"/>
<feOffset dy="4"/>
<feGaussianBlur stdDeviation="2"/>
<feComposite in2="hardAlpha" operator="out"/>
<feColorMatrix type="matrix" values="0 0 0 0 0 0 0 0 0 0 0 0 0 0 0 0 0 0 0.25 0"/>
<feBlend mode="normal" in2="BackgroundImageFix" result="effect1_dropShadow_1_2"/>
<feBlend mode="normal" in="SourceGraphic" in2="effect1_dropShadow_1_2" result="shape"/>
</filter>
<filter id="filter10_d_1_2" x="884" y="232" width="30" height="58" filterUnits="userSpaceOnUse" color-interpolation-filters="sRGB">
<feFlood flood-opacity="0" result="BackgroundImageFix"/>
<feColorMatrix in="SourceAlpha" type="matrix" values="0 0 0 0 0 0 0 0 0 0 0 0 0 0 0 0 0 0 127 0" result="hardAlpha"/>
<feOffset dy="4"/>
<feGaussianBlur stdDeviation="2"/>
<feComposite in2="hardAlpha" operator="out"/>
<feColorMatrix type="matrix" values="0 0 0 0 0 0 0 0 0 0 0 0 0 0 0 0 0 0 0.25 0"/>
<feBlend mode="normal" in2="BackgroundImageFix" result="effect1_dropShadow_1_2"/>
<feBlend mode="normal" in="SourceGraphic" in2="effect1_dropShadow_1_2" result="shape"/>
</filter>
<filter id="filter11_d_1_2" x="908" y="232" width="30" height="58" filterUnits="userSpaceOnUse" color-interpolation-filters="sRGB">
<feFlood flood-opacity="0" result="BackgroundImageFix"/>
<feColorMatrix in="SourceAlpha" type="matrix" values="0 0 0 0 0 0 0 0 0 0 0 0 0 0 0 0 0 0 127 0" result="hardAlpha"/>
<feOffset dy="4"/>
<feGaussianBlur stdDeviation="2"/>
<feComposite in2="hardAlpha" operator="out"/>
<feColorMatrix type="matrix" values="0 0 0 0 0 0 0 0 0 0 0 0 0 0 0 0 0 0 0.25 0"/>
<feBlend mode="normal" in2="BackgroundImageFix" result="effect1_dropShadow_1_2"/>
<feBlend mode="normal" in="SourceGraphic" in2="effect1_dropShadow_1_2" result="shape"/>
</filter>
<filter id="filter12_d_1_2" x="553" y="80" width="128" height="108" filterUnits="userSpaceOnUse" color-interpolation-filters="sRGB">
<feFlood flood-opacity="0" result="BackgroundImageFix"/>
<feColorMatrix in="SourceAlpha" type="matrix" values="0 0 0 0 0 0 0 0 0 0 0 0 0 0 0 0 0 0 127 0" result="hardAlpha"/>
<feOffset dy="4"/>
<feGaussianBlur stdDeviation="2"/>
<feComposite in2="hardAlpha" operator="out"/>
<feColorMatrix type="matrix" values="0 0 0 0 0 0 0 0 0 0 0 0 0 0 0 0 0 0 0.25 0"/>
<feBlend mode="normal" in2="BackgroundImageFix" result="effect1_dropShadow_1_2"/>
<feBlend mode="normal" in="SourceGraphic" in2="effect1_dropShadow_1_2" result="shape"/>
</filter>
<filter id="filter13_d_1_2" x="675" y="80" width="136" height="108" filterUnits="userSpaceOnUse" color-interpolation-filters="sRGB">
<feFlood flood-opacity="0" result="BackgroundImageFix"/>
<feColorMatrix in="SourceAlpha" type="matrix" values="0 0 0 0 0 0 0 0 0 0 0 0 0 0 0 0 0 0 127 0" result="hardAlpha"/>
<feOffset dy="4"/>
<feGaussianBlur stdDeviation="2"/>
<feComposite in2="hardAlpha" operator="out"/>
<feColorMatrix type="matrix" values="0 0 0 0 0 0 0 0 0 0 0 0 0 0 0 0 0 0 0.25 0"/>
<feBlend mode="normal" in2="BackgroundImageFix" result="effect1_dropShadow_1_2"/>
<feBlend mode="normal" in="SourceGraphic" in2="effect1_dropShadow_1_2" result="shape"/>
</filter>
<filter id="filter14_d_1_2" x="805" y="80" width="131" height="108" filterUnits="userSpaceOnUse" color-interpolation-filters="sRGB">
<feFlood flood-opacity="0" result="BackgroundImageFix"/>
<feColorMatrix in="SourceAlpha" type="matrix" values="0 0 0 0 0 0 0 0 0 0 0 0 0 0 0 0 0 0 127 0" result="hardAlpha"/>
<feOffset dy="4"/>
<feGaussianBlur stdDeviation="2"/>
<feComposite in2="hardAlpha" operator="out"/>
<feColorMatrix type="matrix" values="0 0 0 0 0 0 0 0 0 0 0 0 0 0 0 0 0 0 0.25 0"/>
<feBlend mode="normal" in2="BackgroundImageFix" result="effect1_dropShadow_1_2"/>
<feBlend mode="normal" in="SourceGraphic" in2="effect1_dropShadow_1_2" result="shape"/>
</filter>
<filter id="filter15_d_1_2" x="930" y="80" width="130" height="108" filterUnits="userSpaceOnUse" color-interpolation-filters="sRGB">
<feFlood flood-opacity="0" result="BackgroundImageFix"/>
<feColorMatrix in="SourceAlpha" type="matrix" values="0 0 0 0 0 0 0 0 0 0 0 0 0 0 0 0 0 0 127 0" result="hardAlpha"/>
<feOffset dy="4"/>
<feGaussianBlur stdDeviation="2"/>
<feComposite in2="hardAlpha" operator="out"/>
<feColorMatrix type="matrix" values="0 0 0 0 0 0 0 0 0 0 0 0 0 0 0 0 0 0 0.25 0"/>
<feBlend mode="normal" in2="BackgroundImageFix" result="effect1_dropShadow_1_2"/>
<feBlend mode="normal" in="SourceGraphic" in2="effect1_dropShadow_1_2" result="shape"/>
</filter>
</defs>
</svg>
