<svg width="958" height="786" viewBox="0 0 958 786" fill="none" xmlns="http://www.w3.org/2000/svg">
<rect width="958" height="786" fill="#1E1E1E"/>
<g id="Frame 1">
<rect width="958" height="786" fill="white"/>
<path id="Rectangle 29" d="M41 492.5H607.5C627.493 505.161 639.269 506.325 660.5 506V435H654.5V384H659V213.5H654.5V48.5H904.5V154.5H913V435H903V585.5C780.663 590.516 716.741 612.793 654.5 677H41V492.5Z" fill="#7E7E7E"/>
<g id="Group 1" filter="url(#filter0_f_8_33)">
<line id="Line 1" x1="275" y1="519" x2="275" y2="501" stroke="#4674FF" stroke-width="10"/>
<line id="Line 2" x1="288" y1="527" x2="306" y2="527" stroke="#4674FF" stroke-width="10"/>
<line id="Line 3" x1="383" y1="556" x2="383" y2="538" stroke="#4674FF" stroke-width="10"/>
<line id="Line 4" x1="440" y1="574" x2="458" y2="574" stroke="#4674FF" stroke-width="10"/>
<line id="Line 5" x1="551" y1="574" x2="569" y2="574" stroke="#4674FF" stroke-width="10"/>
<line id="Line 6" x1="677" y1="566" x2="695" y2="566" stroke="#4674FF" stroke-width="10"/>
<line id="Line 7" x1="721" y1="566" x2="739" y2="566" stroke="#4674FF" stroke-width="10"/>
<line id="Line 8" x1="813" y1="512" x2="832" y2="512" stroke="#4674FF" stroke-width="10"/>
<line id="Line 9" x1="800" y1="413" x2="800" y2="395" stroke="#4674FF" stroke-width="10"/>
<line id="Line 10" x1="800" y1="364" x2="800" y2="346" stroke="#4674FF" stroke-width="10"/>
<line id="Line 11" x1="767" y1="253" x2="767" y2="235" stroke="#4674FF" stroke-width="10"/>
<line id="Line 12" x1="800" y1="230" x2="800" y2="212" stroke="#4674FF" stroke-width="10"/>
<line id="Line 13" x1="767" y1="198" x2="767" y2="180" stroke="#4674FF" stroke-width="10"/>
</g>
<g id="small hall" filter="url(#filter1_d_8_33)">
<path d="M47 497H275V597H383V671H275H47V497Z" fill="#D9D9D9"/>
</g>
<g id="mens locker room b" filter="url(#filter2_d_8_33)">
<rect x="277" y="527" width="46" height="68" fill="#D9D9D9"/>
</g>
<g id="womens lokcer room b" filter="url(#filter3_d_8_33)">
<rect x="325" y="527" width="58" height="68" fill="#D9D9D9"/>
</g>
<g id="102b" filter="url(#filter4_d_8_33)">
<rect x="426" y="574" width="113" height="97" fill="#D9D9D9"/>
</g>
<g id="101b" filter="url(#filter5_d_8_33)">
<path d="M541 574H666V656.5L652.5 671H541V574Z" fill="#D9D9D9"/>
</g>
<g id="checkroom" filter="url(#filter6_d_8_33)">
<path d="M668 566H751V603C717.672 616.968 699.474 627.771 668 655V566Z" fill="#D9D9D9"/>
</g>
<g id="Rectangle 17" filter="url(#filter7_d_8_33)">
<rect x="847" y="469" width="47" height="43" fill="#D9D9D9"/>
</g>
<g id="checkroom_2" filter="url(#filter8_d_8_33)">
<path d="M800 425H894V467H845V512H800V425Z" fill="#D9D9D9"/>
</g>
<g id="wc-6b" filter="url(#filter9_d_8_33)">
<rect x="667" y="428" width="75" height="41" fill="#D9D9D9"/>
</g>
<g id="wc-7b" filter="url(#filter10_d_8_33)">
<rect x="667" y="471" width="75" height="39" fill="#D9D9D9"/>
</g>
<g id="Rectangle 21" filter="url(#filter11_d_8_33)">
<rect x="744" y="446" width="23" height="34" fill="#D9D9D9"/>
</g>
<g id="checkroom_3" filter="url(#filter12_d_8_33)">
<rect x="800" y="380" width="106" height="43" fill="#D9D9D9"/>
</g>
<g id="106b" filter="url(#filter13_d_8_33)">
<rect x="800" y="247" width="106" height="131" fill="#D9D9D9"/>
</g>
<g id="105b" filter="url(#filter14_d_8_33)">
<rect x="800" y="161" width="106" height="84" fill="#D9D9D9"/>
</g>
<g id="1052b" filter="url(#filter15_d_8_33)">
<rect x="823" y="56" width="76" height="104" fill="#D9D9D9"/>
</g>
<g id="104b" filter="url(#filter16_d_8_33)">
<rect x="659" y="56" width="108" height="153" fill="#D9D9D9"/>
</g>
<g id="103b" filter="url(#filter17_d_8_33)">
<rect x="664" y="211" width="103" height="146" fill="#D9D9D9"/>
</g>
<g id="security room" filter="url(#filter18_d_8_33)">
<rect x="664" y="359" width="103" height="31" fill="#D9D9D9"/>
</g>
<path id="&#208;&#146;&#208;&#165;&#208;&#158;&#208;&#148;" d="M890 576.736H875.455V570.912C875.455 569.842 875.613 568.949 875.93 568.234C876.248 567.519 876.688 566.982 877.251 566.622C877.81 566.262 878.454 566.082 879.183 566.082C879.751 566.082 880.251 566.196 880.682 566.423C881.108 566.651 881.458 566.963 881.733 567.361C882.003 567.754 882.195 568.204 882.308 568.71H882.45C882.474 568.156 882.63 567.638 882.919 567.155C883.208 566.667 883.613 566.272 884.134 565.969C884.65 565.666 885.265 565.514 885.98 565.514C886.752 565.514 887.441 565.706 888.047 566.089C888.648 566.468 889.124 567.029 889.474 567.773C889.825 568.516 890 569.432 890 570.521V576.736ZM887.486 573.661V571.153C887.486 570.296 887.322 569.671 886.996 569.278C886.664 568.885 886.224 568.689 885.675 568.689C885.272 568.689 884.917 568.786 884.609 568.98C884.302 569.174 884.06 569.451 883.885 569.811C883.71 570.166 883.622 570.59 883.622 571.082V573.661H887.486ZM881.541 573.661V571.381C881.541 570.959 881.468 570.585 881.321 570.259C881.17 569.927 880.956 569.667 880.682 569.477C880.407 569.283 880.078 569.186 879.695 569.186C879.169 569.186 878.745 569.373 878.423 569.747C878.101 570.116 877.94 570.642 877.94 571.324V573.661H881.541ZM875.455 560.63L880.412 557.696V557.583L875.455 554.635V551.162L882.727 555.601L890 551.063V554.6L885.036 557.583V557.696L890 560.679V564.202L882.727 559.65L875.455 564.117V560.63ZM882.727 536.533C884.313 536.533 885.663 536.834 886.776 537.435C887.888 538.032 888.738 538.846 889.325 539.879C889.908 540.906 890.199 542.061 890.199 543.344C890.199 544.637 889.905 545.797 889.318 546.825C888.731 547.852 887.881 548.664 886.768 549.261C885.656 549.857 884.309 550.156 882.727 550.156C881.141 550.156 879.792 549.857 878.679 549.261C877.566 548.664 876.719 547.852 876.136 546.825C875.549 545.797 875.256 544.637 875.256 543.344C875.256 542.061 875.549 540.906 876.136 539.879C876.719 538.846 877.566 538.032 878.679 537.435C879.792 536.834 881.141 536.533 882.727 536.533ZM882.727 539.651C881.7 539.651 880.833 539.805 880.128 540.113C879.422 540.416 878.887 540.844 878.523 541.398C878.158 541.952 877.976 542.601 877.976 543.344C877.976 544.088 878.158 544.737 878.523 545.29C878.887 545.844 879.422 546.275 880.128 546.583C880.833 546.886 881.7 547.038 882.727 547.038C883.755 547.038 884.621 546.886 885.327 546.583C886.032 546.275 886.567 545.844 886.932 545.29C887.296 544.737 887.479 544.088 887.479 543.344C887.479 542.601 887.296 541.952 886.932 541.398C886.567 540.844 886.032 540.416 885.327 540.113C884.621 539.805 883.755 539.651 882.727 539.651ZM893.509 535.044H887.55V534.056C887.308 533.72 886.967 533.413 886.527 533.133C886.082 532.854 885.469 532.615 884.688 532.416C883.902 532.217 882.874 532.075 881.605 531.99L875.455 531.578V521.954H887.55V520.363H893.494V523.318H890V532.089H893.509V535.044ZM887.55 530.505V524.909H877.99V528.808L881.605 529.035C882.566 529.097 883.419 529.199 884.162 529.341C884.905 529.478 885.556 529.646 886.115 529.845C886.669 530.039 887.147 530.259 887.55 530.505Z" fill="#D9D9D9"/>
<path id="&#208;&#156;&#208;&#144;&#208;&#155;&#208;&#171;&#208;&#153; &#208;&#151;&#208;&#144;&#208;&#155;" d="M103.023 550.727H109.091L115.5 566.364H115.773L122.182 550.727H128.25V574H123.477V558.852H123.284L117.261 573.886H114.011L107.989 558.795H107.795V574H103.023V550.727ZM136.315 574H131.043L139.077 550.727H145.418L153.44 574H148.168L142.338 556.045H142.156L136.315 574ZM135.986 564.852H148.44V568.693H135.986V564.852ZM154.98 574V570.045L155.639 569.989C156.488 569.92 157.173 569.598 157.696 569.023C158.219 568.439 158.609 567.511 158.866 566.239C159.132 564.958 159.302 563.239 159.378 561.08L159.764 550.727H175.56V574H170.776V554.67H164.332L163.969 562.773C163.848 565.379 163.537 567.508 163.037 569.159C162.545 570.811 161.757 572.03 160.673 572.818C159.598 573.606 158.124 574 156.253 574H154.98ZM182.855 559.33H188.401C190.249 559.33 191.84 559.629 193.173 560.227C194.514 560.818 195.548 561.655 196.276 562.739C197.003 563.822 197.363 565.098 197.355 566.568C197.363 568.03 197.003 569.322 196.276 570.443C195.548 571.557 194.514 572.428 193.173 573.057C191.84 573.686 190.249 574 188.401 574H179.707V550.727H184.616V570.045H188.401C189.287 570.045 190.033 569.886 190.639 569.568C191.245 569.242 191.704 568.814 192.014 568.284C192.332 567.746 192.488 567.159 192.48 566.523C192.488 565.598 192.139 564.818 191.435 564.182C190.738 563.538 189.726 563.216 188.401 563.216H182.855V559.33ZM204.162 550.727V574H199.253V550.727H204.162ZM208.21 550.727H213.119V565.364H213.312L223.369 550.727H227.676V574H222.756V559.352H222.585L212.472 574H208.21V550.727ZM220.21 544.636H223.585C223.578 546.015 223.066 547.125 222.051 547.966C221.044 548.807 219.68 549.227 217.96 549.227C216.233 549.227 214.866 548.807 213.858 547.966C212.85 547.125 212.347 546.015 212.347 544.636H215.699C215.691 545.159 215.858 545.629 216.199 546.045C216.547 546.462 217.134 546.67 217.96 546.67C218.763 546.67 219.339 546.466 219.688 546.057C220.036 545.648 220.21 545.174 220.21 544.636ZM111.489 613.318C109.792 613.318 108.28 613.027 106.955 612.443C105.636 611.852 104.595 611.042 103.83 610.011C103.072 608.973 102.682 607.777 102.659 606.42H107.614C107.644 606.989 107.83 607.489 108.17 607.92C108.519 608.345 108.981 608.674 109.557 608.909C110.133 609.144 110.78 609.261 111.5 609.261C112.25 609.261 112.913 609.129 113.489 608.864C114.064 608.598 114.515 608.231 114.841 607.761C115.167 607.292 115.33 606.75 115.33 606.136C115.33 605.515 115.155 604.966 114.807 604.489C114.466 604.004 113.973 603.625 113.33 603.352C112.693 603.08 111.936 602.943 111.057 602.943H108.886V599.33H111.057C111.799 599.33 112.455 599.201 113.023 598.943C113.598 598.686 114.045 598.33 114.364 597.875C114.682 597.413 114.841 596.875 114.841 596.261C114.841 595.678 114.701 595.167 114.42 594.727C114.148 594.28 113.761 593.932 113.261 593.682C112.769 593.432 112.193 593.307 111.534 593.307C110.867 593.307 110.258 593.428 109.705 593.67C109.152 593.905 108.708 594.242 108.375 594.682C108.042 595.121 107.864 595.636 107.841 596.227H103.125C103.148 594.886 103.53 593.705 104.273 592.682C105.015 591.659 106.015 590.86 107.273 590.284C108.538 589.701 109.966 589.409 111.557 589.409C113.163 589.409 114.568 589.701 115.773 590.284C116.977 590.867 117.913 591.655 118.58 592.648C119.254 593.633 119.587 594.739 119.58 595.966C119.587 597.269 119.182 598.356 118.364 599.227C117.553 600.098 116.496 600.652 115.193 600.886V601.068C116.905 601.288 118.208 601.883 119.102 602.852C120.004 603.814 120.451 605.019 120.443 606.466C120.451 607.792 120.068 608.97 119.295 610C118.53 611.03 117.473 611.841 116.125 612.432C114.777 613.023 113.231 613.318 111.489 613.318ZM128.128 613H122.855L130.889 589.727H137.23L145.253 613H139.98L134.151 595.045H133.969L128.128 613ZM127.798 603.852H140.253V607.693H127.798V603.852ZM146.793 613V609.045L147.452 608.989C148.3 608.92 148.986 608.598 149.509 608.023C150.031 607.439 150.421 606.511 150.679 605.239C150.944 603.958 151.115 602.239 151.19 600.08L151.577 589.727H167.372V613H162.588V593.67H156.145L155.781 601.773C155.66 604.379 155.349 606.508 154.849 608.159C154.357 609.811 153.569 611.03 152.486 611.818C151.41 612.606 149.937 613 148.065 613H146.793Z" fill="#7E7E7E"/>
<path id="102&#208;&#177;" d="M455.011 611.727V635H450.091V616.398H449.955L444.625 619.739V615.375L450.386 611.727H455.011ZM469.668 635.511C467.713 635.504 466.031 635.023 464.622 634.068C463.221 633.114 462.141 631.731 461.384 629.92C460.634 628.11 460.262 625.932 460.27 623.386C460.27 620.848 460.645 618.686 461.395 616.898C462.152 615.11 463.232 613.75 464.634 612.818C466.043 611.879 467.721 611.409 469.668 611.409C471.615 611.409 473.289 611.879 474.69 612.818C476.099 613.758 477.183 615.121 477.94 616.909C478.698 618.689 479.073 620.848 479.065 623.386C479.065 625.939 478.687 628.121 477.929 629.932C477.179 631.742 476.103 633.125 474.702 634.08C473.3 635.034 471.622 635.511 469.668 635.511ZM469.668 631.432C471.001 631.432 472.065 630.761 472.861 629.42C473.656 628.08 474.05 626.068 474.043 623.386C474.043 621.621 473.861 620.152 473.497 618.977C473.141 617.803 472.634 616.92 471.974 616.33C471.323 615.739 470.554 615.443 469.668 615.443C468.342 615.443 467.281 616.106 466.486 617.432C465.69 618.758 465.289 620.742 465.281 623.386C465.281 625.174 465.459 626.667 465.815 627.864C466.179 629.053 466.69 629.947 467.349 630.545C468.009 631.136 468.781 631.432 469.668 631.432ZM482.574 635V631.455L490.858 623.784C491.563 623.102 492.153 622.489 492.631 621.943C493.116 621.398 493.483 620.864 493.733 620.341C493.983 619.811 494.108 619.239 494.108 618.625C494.108 617.943 493.953 617.356 493.642 616.864C493.331 616.364 492.907 615.981 492.369 615.716C491.831 615.443 491.222 615.307 490.54 615.307C489.828 615.307 489.206 615.451 488.676 615.739C488.146 616.027 487.737 616.439 487.449 616.977C487.161 617.515 487.017 618.155 487.017 618.898H482.347C482.347 617.375 482.691 616.053 483.381 614.932C484.07 613.811 485.036 612.943 486.278 612.33C487.521 611.716 488.953 611.409 490.574 611.409C492.241 611.409 493.691 611.705 494.926 612.295C496.169 612.879 497.134 613.689 497.824 614.727C498.513 615.765 498.858 616.955 498.858 618.295C498.858 619.174 498.684 620.042 498.335 620.898C497.994 621.754 497.384 622.705 496.506 623.75C495.627 624.788 494.388 626.034 492.79 627.489L489.392 630.818V630.977H499.165V635H482.574ZM517.287 611.136L518.764 614.295C518.272 614.705 517.726 615.008 517.128 615.205C516.529 615.394 515.813 615.519 514.98 615.58C514.154 615.64 513.147 615.682 511.957 615.705C510.609 615.72 509.51 615.936 508.662 616.352C507.813 616.769 507.17 617.424 506.73 618.318C506.291 619.205 506.003 620.364 505.866 621.795H506.037C506.56 620.727 507.295 619.902 508.241 619.318C509.196 618.735 510.374 618.443 511.776 618.443C513.26 618.443 514.56 618.769 515.673 619.42C516.795 620.072 517.666 621.008 518.287 622.227C518.908 623.447 519.219 624.909 519.219 626.614C519.219 628.386 518.87 629.928 518.173 631.239C517.484 632.542 516.503 633.553 515.23 634.273C513.957 634.985 512.442 635.341 510.685 635.341C508.92 635.341 507.397 634.97 506.116 634.227C504.844 633.485 503.859 632.39 503.162 630.943C502.473 629.496 502.128 627.716 502.128 625.602V624.17C502.128 619.966 502.946 616.848 504.582 614.818C506.219 612.788 508.624 611.758 511.798 611.727C512.662 611.712 513.442 611.708 514.139 611.716C514.836 611.723 515.446 611.689 515.969 611.614C516.499 611.538 516.938 611.379 517.287 611.136ZM510.707 631.591C511.45 631.591 512.086 631.398 512.616 631.011C513.154 630.625 513.567 630.072 513.855 629.352C514.151 628.633 514.298 627.773 514.298 626.773C514.298 625.78 514.151 624.939 513.855 624.25C513.567 623.553 513.154 623.023 512.616 622.659C512.079 622.295 511.435 622.114 510.685 622.114C510.124 622.114 509.62 622.216 509.173 622.42C508.726 622.625 508.344 622.928 508.026 623.33C507.715 623.723 507.473 624.212 507.298 624.795C507.132 625.371 507.048 626.03 507.048 626.773C507.048 628.265 507.37 629.443 508.014 630.307C508.666 631.163 509.563 631.591 510.707 631.591Z" fill="#7E7E7E"/>
<path id="101&#208;&#177;" d="M567.011 614.727V638H562.091V619.398H561.955L556.625 622.739V618.375L562.386 614.727H567.011ZM581.668 638.511C579.713 638.504 578.031 638.023 576.622 637.068C575.221 636.114 574.141 634.731 573.384 632.92C572.634 631.11 572.262 628.932 572.27 626.386C572.27 623.848 572.645 621.686 573.395 619.898C574.152 618.11 575.232 616.75 576.634 615.818C578.043 614.879 579.721 614.409 581.668 614.409C583.615 614.409 585.289 614.879 586.69 615.818C588.099 616.758 589.183 618.121 589.94 619.909C590.698 621.689 591.073 623.848 591.065 626.386C591.065 628.939 590.687 631.121 589.929 632.932C589.179 634.742 588.103 636.125 586.702 637.08C585.3 638.034 583.622 638.511 581.668 638.511ZM581.668 634.432C583.001 634.432 584.065 633.761 584.861 632.42C585.656 631.08 586.05 629.068 586.043 626.386C586.043 624.621 585.861 623.152 585.497 621.977C585.141 620.803 584.634 619.92 583.974 619.33C583.323 618.739 582.554 618.443 581.668 618.443C580.342 618.443 579.281 619.106 578.486 620.432C577.69 621.758 577.289 623.742 577.281 626.386C577.281 628.174 577.459 629.667 577.815 630.864C578.179 632.053 578.69 632.947 579.349 633.545C580.009 634.136 580.781 634.432 581.668 634.432ZM604.699 614.727V638H599.778V619.398H599.642L594.312 622.739V618.375L600.074 614.727H604.699ZM624.787 614.136L626.264 617.295C625.772 617.705 625.226 618.008 624.628 618.205C624.029 618.394 623.313 618.519 622.48 618.58C621.654 618.64 620.647 618.682 619.457 618.705C618.109 618.72 617.01 618.936 616.162 619.352C615.313 619.769 614.67 620.424 614.23 621.318C613.791 622.205 613.503 623.364 613.366 624.795H613.537C614.06 623.727 614.795 622.902 615.741 622.318C616.696 621.735 617.874 621.443 619.276 621.443C620.76 621.443 622.06 621.769 623.173 622.42C624.295 623.072 625.166 624.008 625.787 625.227C626.408 626.447 626.719 627.909 626.719 629.614C626.719 631.386 626.37 632.928 625.673 634.239C624.984 635.542 624.003 636.553 622.73 637.273C621.457 637.985 619.942 638.341 618.185 638.341C616.42 638.341 614.897 637.97 613.616 637.227C612.344 636.485 611.359 635.39 610.662 633.943C609.973 632.496 609.628 630.716 609.628 628.602V627.17C609.628 622.966 610.446 619.848 612.082 617.818C613.719 615.788 616.124 614.758 619.298 614.727C620.162 614.712 620.942 614.708 621.639 614.716C622.336 614.723 622.946 614.689 623.469 614.614C623.999 614.538 624.438 614.379 624.787 614.136ZM618.207 634.591C618.95 634.591 619.586 634.398 620.116 634.011C620.654 633.625 621.067 633.072 621.355 632.352C621.651 631.633 621.798 630.773 621.798 629.773C621.798 628.78 621.651 627.939 621.355 627.25C621.067 626.553 620.654 626.023 620.116 625.659C619.579 625.295 618.935 625.114 618.185 625.114C617.624 625.114 617.12 625.216 616.673 625.42C616.226 625.625 615.844 625.928 615.526 626.33C615.215 626.723 614.973 627.212 614.798 627.795C614.632 628.371 614.548 629.03 614.548 629.773C614.548 631.265 614.87 632.443 615.514 633.307C616.166 634.163 617.063 634.591 618.207 634.591Z" fill="#7E7E7E"/>
<path id="106&#208;&#177;" d="M828.011 299.727V323H823.091V304.398H822.955L817.625 307.739V303.375L823.386 299.727H828.011ZM842.668 323.511C840.713 323.504 839.031 323.023 837.622 322.068C836.221 321.114 835.141 319.731 834.384 317.92C833.634 316.11 833.262 313.932 833.27 311.386C833.27 308.848 833.645 306.686 834.395 304.898C835.152 303.11 836.232 301.75 837.634 300.818C839.043 299.879 840.721 299.409 842.668 299.409C844.615 299.409 846.289 299.879 847.69 300.818C849.099 301.758 850.183 303.121 850.94 304.909C851.698 306.689 852.073 308.848 852.065 311.386C852.065 313.939 851.687 316.121 850.929 317.932C850.179 319.742 849.103 321.125 847.702 322.08C846.3 323.034 844.622 323.511 842.668 323.511ZM842.668 319.432C844.001 319.432 845.065 318.761 845.861 317.42C846.656 316.08 847.05 314.068 847.043 311.386C847.043 309.621 846.861 308.152 846.497 306.977C846.141 305.803 845.634 304.92 844.974 304.33C844.323 303.739 843.554 303.443 842.668 303.443C841.342 303.443 840.281 304.106 839.486 305.432C838.69 306.758 838.289 308.742 838.281 311.386C838.281 313.174 838.459 314.667 838.815 315.864C839.179 317.053 839.69 317.947 840.349 318.545C841.009 319.136 841.781 319.432 842.668 319.432ZM864.506 323.318C863.309 323.311 862.153 323.11 861.04 322.716C859.934 322.322 858.941 321.682 858.062 320.795C857.184 319.909 856.487 318.735 855.972 317.273C855.464 315.811 855.21 314.015 855.21 311.886C855.218 309.932 855.441 308.186 855.881 306.648C856.328 305.102 856.964 303.792 857.79 302.716C858.623 301.64 859.619 300.822 860.778 300.261C861.938 299.693 863.237 299.409 864.676 299.409C866.229 299.409 867.6 299.712 868.79 300.318C869.979 300.917 870.934 301.731 871.653 302.761C872.381 303.792 872.82 304.947 872.972 306.227H868.119C867.93 305.417 867.532 304.78 866.926 304.318C866.32 303.856 865.57 303.625 864.676 303.625C863.161 303.625 862.009 304.284 861.222 305.602C860.441 306.92 860.044 308.712 860.028 310.977H860.188C860.536 310.288 861.006 309.701 861.597 309.216C862.195 308.723 862.873 308.348 863.631 308.091C864.396 307.826 865.203 307.693 866.051 307.693C867.43 307.693 868.657 308.019 869.733 308.67C870.809 309.314 871.657 310.201 872.278 311.33C872.9 312.458 873.21 313.75 873.21 315.205C873.21 316.78 872.843 318.182 872.108 319.409C871.381 320.636 870.362 321.598 869.051 322.295C867.748 322.985 866.233 323.326 864.506 323.318ZM864.483 319.455C865.241 319.455 865.919 319.273 866.517 318.909C867.116 318.545 867.585 318.053 867.926 317.432C868.267 316.811 868.438 316.114 868.438 315.341C868.438 314.568 868.267 313.875 867.926 313.261C867.593 312.648 867.131 312.159 866.54 311.795C865.949 311.432 865.275 311.25 864.517 311.25C863.949 311.25 863.422 311.356 862.938 311.568C862.46 311.78 862.04 312.076 861.676 312.455C861.32 312.833 861.04 313.273 860.835 313.773C860.631 314.265 860.528 314.792 860.528 315.352C860.528 316.102 860.699 316.788 861.04 317.409C861.388 318.03 861.858 318.527 862.449 318.898C863.047 319.269 863.725 319.455 864.483 319.455ZM891.256 299.136L892.733 302.295C892.241 302.705 891.695 303.008 891.097 303.205C890.498 303.394 889.782 303.519 888.949 303.58C888.123 303.64 887.116 303.682 885.926 303.705C884.578 303.72 883.479 303.936 882.631 304.352C881.782 304.769 881.138 305.424 880.699 306.318C880.259 307.205 879.972 308.364 879.835 309.795H880.006C880.528 308.727 881.263 307.902 882.21 307.318C883.165 306.735 884.343 306.443 885.744 306.443C887.229 306.443 888.528 306.769 889.642 307.42C890.763 308.072 891.634 309.008 892.256 310.227C892.877 311.447 893.188 312.909 893.188 314.614C893.188 316.386 892.839 317.928 892.142 319.239C891.453 320.542 890.472 321.553 889.199 322.273C887.926 322.985 886.411 323.341 884.653 323.341C882.888 323.341 881.366 322.97 880.085 322.227C878.813 321.485 877.828 320.39 877.131 318.943C876.441 317.496 876.097 315.716 876.097 313.602V312.17C876.097 307.966 876.915 304.848 878.551 302.818C880.188 300.788 882.593 299.758 885.767 299.727C886.631 299.712 887.411 299.708 888.108 299.716C888.805 299.723 889.415 299.689 889.938 299.614C890.468 299.538 890.907 299.379 891.256 299.136ZM884.676 319.591C885.419 319.591 886.055 319.398 886.585 319.011C887.123 318.625 887.536 318.072 887.824 317.352C888.119 316.633 888.267 315.773 888.267 314.773C888.267 313.78 888.119 312.939 887.824 312.25C887.536 311.553 887.123 311.023 886.585 310.659C886.047 310.295 885.403 310.114 884.653 310.114C884.093 310.114 883.589 310.216 883.142 310.42C882.695 310.625 882.313 310.928 881.994 311.33C881.684 311.723 881.441 312.212 881.267 312.795C881.1 313.371 881.017 314.03 881.017 314.773C881.017 316.265 881.339 317.443 881.983 318.307C882.634 319.163 883.532 319.591 884.676 319.591Z" fill="#7E7E7E"/>
<path id="105&#208;&#177;" d="M828.011 194.727V218H823.091V199.398H822.955L817.625 202.739V198.375L823.386 194.727H828.011ZM842.668 218.511C840.713 218.504 839.031 218.023 837.622 217.068C836.221 216.114 835.141 214.731 834.384 212.92C833.634 211.11 833.262 208.932 833.27 206.386C833.27 203.848 833.645 201.686 834.395 199.898C835.152 198.11 836.232 196.75 837.634 195.818C839.043 194.879 840.721 194.409 842.668 194.409C844.615 194.409 846.289 194.879 847.69 195.818C849.099 196.758 850.183 198.121 850.94 199.909C851.698 201.689 852.073 203.848 852.065 206.386C852.065 208.939 851.687 211.121 850.929 212.932C850.179 214.742 849.103 216.125 847.702 217.08C846.3 218.034 844.622 218.511 842.668 218.511ZM842.668 214.432C844.001 214.432 845.065 213.761 845.861 212.42C846.656 211.08 847.05 209.068 847.043 206.386C847.043 204.621 846.861 203.152 846.497 201.977C846.141 200.803 845.634 199.92 844.974 199.33C844.323 198.739 843.554 198.443 842.668 198.443C841.342 198.443 840.281 199.106 839.486 200.432C838.69 201.758 838.289 203.742 838.281 206.386C838.281 208.174 838.459 209.667 838.815 210.864C839.179 212.053 839.69 212.947 840.349 213.545C841.009 214.136 841.781 214.432 842.668 214.432ZM864.074 218.318C862.468 218.318 861.036 218.023 859.778 217.432C858.528 216.841 857.536 216.027 856.801 214.989C856.066 213.951 855.684 212.761 855.653 211.42H860.426C860.479 212.322 860.858 213.053 861.562 213.614C862.267 214.174 863.104 214.455 864.074 214.455C864.847 214.455 865.528 214.284 866.119 213.943C866.718 213.595 867.184 213.114 867.517 212.5C867.858 211.879 868.028 211.167 868.028 210.364C868.028 209.545 867.854 208.826 867.506 208.205C867.165 207.583 866.691 207.098 866.085 206.75C865.479 206.402 864.786 206.223 864.006 206.216C863.324 206.216 862.661 206.356 862.017 206.636C861.381 206.917 860.884 207.299 860.528 207.784L856.153 207L857.256 194.727H871.483V198.75H861.312L860.71 204.58H860.847C861.256 204.004 861.873 203.527 862.699 203.148C863.525 202.769 864.449 202.58 865.472 202.58C866.873 202.58 868.123 202.909 869.222 203.568C870.32 204.227 871.188 205.133 871.824 206.284C872.46 207.428 872.775 208.746 872.767 210.239C872.775 211.807 872.411 213.201 871.676 214.42C870.949 215.633 869.93 216.587 868.619 217.284C867.316 217.973 865.801 218.318 864.074 218.318ZM890.756 194.136L892.233 197.295C891.741 197.705 891.195 198.008 890.597 198.205C889.998 198.394 889.282 198.519 888.449 198.58C887.623 198.64 886.616 198.682 885.426 198.705C884.078 198.72 882.979 198.936 882.131 199.352C881.282 199.769 880.638 200.424 880.199 201.318C879.759 202.205 879.472 203.364 879.335 204.795H879.506C880.028 203.727 880.763 202.902 881.71 202.318C882.665 201.735 883.843 201.443 885.244 201.443C886.729 201.443 888.028 201.769 889.142 202.42C890.263 203.072 891.134 204.008 891.756 205.227C892.377 206.447 892.688 207.909 892.688 209.614C892.688 211.386 892.339 212.928 891.642 214.239C890.953 215.542 889.972 216.553 888.699 217.273C887.426 217.985 885.911 218.341 884.153 218.341C882.388 218.341 880.866 217.97 879.585 217.227C878.313 216.485 877.328 215.39 876.631 213.943C875.941 212.496 875.597 210.716 875.597 208.602V207.17C875.597 202.966 876.415 199.848 878.051 197.818C879.688 195.788 882.093 194.758 885.267 194.727C886.131 194.712 886.911 194.708 887.608 194.716C888.305 194.723 888.915 194.689 889.438 194.614C889.968 194.538 890.407 194.379 890.756 194.136ZM884.176 214.591C884.919 214.591 885.555 214.398 886.085 214.011C886.623 213.625 887.036 213.072 887.324 212.352C887.619 211.633 887.767 210.773 887.767 209.773C887.767 208.78 887.619 207.939 887.324 207.25C887.036 206.553 886.623 206.023 886.085 205.659C885.547 205.295 884.903 205.114 884.153 205.114C883.593 205.114 883.089 205.216 882.642 205.42C882.195 205.625 881.813 205.928 881.494 206.33C881.184 206.723 880.941 207.212 880.767 207.795C880.6 208.371 880.517 209.03 880.517 209.773C880.517 211.265 880.839 212.443 881.483 213.307C882.134 214.163 883.032 214.591 884.176 214.591Z" fill="#7E7E7E"/>
<path id="1052&#208;&#177;" d="M834.009 97.5455V115H830.318V101.048H830.216L826.219 103.554V100.281L830.54 97.5455H834.009ZM845.001 115.384C843.535 115.378 842.273 115.017 841.217 114.301C840.165 113.585 839.356 112.548 838.788 111.19C838.225 109.832 837.947 108.199 837.952 106.29C837.952 104.386 838.234 102.764 838.796 101.423C839.364 100.082 840.174 99.0625 841.225 98.3636C842.282 97.6591 843.54 97.3068 845.001 97.3068C846.461 97.3068 847.717 97.6591 848.768 98.3636C849.825 99.0682 850.637 100.091 851.205 101.432C851.773 102.767 852.055 104.386 852.049 106.29C852.049 108.205 851.765 109.841 851.197 111.199C850.634 112.557 849.827 113.594 848.776 114.31C847.725 115.026 846.467 115.384 845.001 115.384ZM845.001 112.324C846.001 112.324 846.799 111.821 847.396 110.815C847.992 109.81 848.288 108.301 848.282 106.29C848.282 104.966 848.146 103.864 847.873 102.983C847.606 102.102 847.225 101.44 846.731 100.997C846.242 100.554 845.665 100.332 845.001 100.332C844.006 100.332 843.211 100.83 842.614 101.824C842.018 102.818 841.717 104.307 841.711 106.29C841.711 107.631 841.844 108.75 842.112 109.648C842.384 110.54 842.768 111.21 843.262 111.659C843.756 112.102 844.336 112.324 845.001 112.324ZM861.055 115.239C859.851 115.239 858.777 115.017 857.834 114.574C856.896 114.131 856.152 113.52 855.601 112.741C855.05 111.963 854.763 111.071 854.74 110.065H858.32C858.359 110.741 858.643 111.29 859.172 111.71C859.7 112.131 860.328 112.341 861.055 112.341C861.635 112.341 862.146 112.213 862.589 111.957C863.038 111.696 863.388 111.335 863.638 110.875C863.893 110.409 864.021 109.875 864.021 109.273C864.021 108.659 863.891 108.119 863.629 107.653C863.374 107.187 863.018 106.824 862.564 106.562C862.109 106.301 861.589 106.168 861.004 106.162C860.493 106.162 859.996 106.267 859.513 106.477C859.036 106.687 858.663 106.974 858.396 107.338L855.115 106.75L855.942 97.5455H866.612V100.562H858.984L858.533 104.935H858.635C858.942 104.503 859.405 104.145 860.024 103.861C860.643 103.577 861.337 103.435 862.104 103.435C863.155 103.435 864.092 103.682 864.916 104.176C865.74 104.67 866.391 105.349 866.868 106.213C867.345 107.071 867.581 108.06 867.575 109.179C867.581 110.355 867.308 111.401 866.757 112.315C866.212 113.224 865.447 113.94 864.464 114.463C863.487 114.98 862.351 115.239 861.055 115.239ZM870.149 115V112.341L876.362 106.588C876.891 106.077 877.334 105.616 877.692 105.207C878.055 104.798 878.331 104.398 878.518 104.006C878.706 103.608 878.8 103.179 878.8 102.719C878.8 102.207 878.683 101.767 878.45 101.398C878.217 101.023 877.899 100.736 877.496 100.537C877.092 100.332 876.635 100.23 876.124 100.23C875.589 100.23 875.124 100.338 874.726 100.554C874.328 100.77 874.021 101.08 873.805 101.483C873.589 101.886 873.482 102.366 873.482 102.923H869.979C869.979 101.781 870.237 100.79 870.754 99.9489C871.271 99.108 871.996 98.4574 872.928 97.9972C873.859 97.5369 874.933 97.3068 876.149 97.3068C877.399 97.3068 878.487 97.5284 879.413 97.9716C880.345 98.4091 881.07 99.017 881.587 99.7955C882.104 100.574 882.362 101.466 882.362 102.472C882.362 103.131 882.232 103.781 881.97 104.423C881.714 105.065 881.257 105.778 880.598 106.562C879.939 107.341 879.01 108.276 877.811 109.366L875.263 111.864V111.983H882.592V115H870.149ZM896.184 97.1023L897.292 99.4716C896.923 99.7784 896.513 100.006 896.065 100.153C895.616 100.295 895.079 100.389 894.454 100.435C893.835 100.48 893.079 100.511 892.187 100.528C891.175 100.54 890.352 100.702 889.715 101.014C889.079 101.327 888.596 101.818 888.266 102.489C887.937 103.153 887.721 104.023 887.619 105.097H887.746C888.138 104.295 888.69 103.676 889.4 103.239C890.116 102.801 890.999 102.582 892.05 102.582C893.164 102.582 894.138 102.827 894.974 103.315C895.815 103.804 896.468 104.506 896.934 105.42C897.4 106.335 897.633 107.432 897.633 108.71C897.633 110.04 897.371 111.196 896.849 112.179C896.332 113.156 895.596 113.915 894.641 114.455C893.687 114.989 892.55 115.256 891.232 115.256C889.908 115.256 888.766 114.977 887.806 114.42C886.852 113.864 886.113 113.043 885.59 111.957C885.073 110.872 884.815 109.537 884.815 107.952V106.878C884.815 103.724 885.428 101.386 886.656 99.8636C887.883 98.3409 889.687 97.5682 892.067 97.5455C892.715 97.5341 893.3 97.5312 893.823 97.5369C894.346 97.5426 894.803 97.517 895.195 97.4602C895.593 97.4034 895.923 97.2841 896.184 97.1023ZM891.249 112.443C891.806 112.443 892.283 112.298 892.681 112.009C893.085 111.719 893.394 111.304 893.61 110.764C893.832 110.224 893.942 109.58 893.942 108.83C893.942 108.085 893.832 107.455 893.61 106.938C893.394 106.415 893.085 106.017 892.681 105.744C892.278 105.472 891.795 105.335 891.232 105.335C890.812 105.335 890.434 105.412 890.099 105.565C889.763 105.719 889.477 105.946 889.238 106.247C889.005 106.543 888.823 106.909 888.692 107.347C888.567 107.778 888.505 108.273 888.505 108.83C888.505 109.949 888.746 110.832 889.229 111.48C889.718 112.122 890.391 112.443 891.249 112.443Z" fill="#7E7E7E"/>
<path id="104&#208;&#177;" d="M684.011 118.727V142H679.091V123.398H678.955L673.625 126.739V122.375L679.386 118.727H684.011ZM698.668 142.511C696.713 142.504 695.031 142.023 693.622 141.068C692.221 140.114 691.141 138.731 690.384 136.92C689.634 135.11 689.262 132.932 689.27 130.386C689.27 127.848 689.645 125.686 690.395 123.898C691.152 122.11 692.232 120.75 693.634 119.818C695.043 118.879 696.721 118.409 698.668 118.409C700.615 118.409 702.289 118.879 703.69 119.818C705.099 120.758 706.183 122.121 706.94 123.909C707.698 125.689 708.073 127.848 708.065 130.386C708.065 132.939 707.687 135.121 706.929 136.932C706.179 138.742 705.103 140.125 703.702 141.08C702.3 142.034 700.622 142.511 698.668 142.511ZM698.668 138.432C700.001 138.432 701.065 137.761 701.861 136.42C702.656 135.08 703.05 133.068 703.043 130.386C703.043 128.621 702.861 127.152 702.497 125.977C702.141 124.803 701.634 123.92 700.974 123.33C700.323 122.739 699.554 122.443 698.668 122.443C697.342 122.443 696.281 123.106 695.486 124.432C694.69 125.758 694.289 127.742 694.281 130.386C694.281 132.174 694.459 133.667 694.815 134.864C695.179 136.053 695.69 136.947 696.349 137.545C697.009 138.136 697.781 138.432 698.668 138.432ZM711.222 137.909V134.034L720.938 118.727H724.278V124.091H722.301L716.176 133.784V133.966H729.983V137.909H711.222ZM722.392 142V136.727L722.483 135.011V118.727H727.097V142H722.392ZM747.818 118.136L749.295 121.295C748.803 121.705 748.258 122.008 747.659 122.205C747.061 122.394 746.345 122.519 745.511 122.58C744.686 122.64 743.678 122.682 742.489 122.705C741.14 122.72 740.042 122.936 739.193 123.352C738.345 123.769 737.701 124.424 737.261 125.318C736.822 126.205 736.534 127.364 736.398 128.795H736.568C737.091 127.727 737.826 126.902 738.773 126.318C739.727 125.735 740.905 125.443 742.307 125.443C743.792 125.443 745.091 125.769 746.205 126.42C747.326 127.072 748.197 128.008 748.818 129.227C749.439 130.447 749.75 131.909 749.75 133.614C749.75 135.386 749.402 136.928 748.705 138.239C748.015 139.542 747.034 140.553 745.761 141.273C744.489 141.985 742.973 142.341 741.216 142.341C739.451 142.341 737.928 141.97 736.648 141.227C735.375 140.485 734.39 139.39 733.693 137.943C733.004 136.496 732.659 134.716 732.659 132.602V131.17C732.659 126.966 733.477 123.848 735.114 121.818C736.75 119.788 739.155 118.758 742.33 118.727C743.193 118.712 743.973 118.708 744.67 118.716C745.367 118.723 745.977 118.689 746.5 118.614C747.03 118.538 747.47 118.379 747.818 118.136ZM741.239 138.591C741.981 138.591 742.617 138.398 743.148 138.011C743.686 137.625 744.098 137.072 744.386 136.352C744.682 135.633 744.83 134.773 744.83 133.773C744.83 132.78 744.682 131.939 744.386 131.25C744.098 130.553 743.686 130.023 743.148 129.659C742.61 129.295 741.966 129.114 741.216 129.114C740.655 129.114 740.152 129.216 739.705 129.42C739.258 129.625 738.875 129.928 738.557 130.33C738.246 130.723 738.004 131.212 737.83 131.795C737.663 132.371 737.58 133.03 737.58 133.773C737.58 135.265 737.902 136.443 738.545 137.307C739.197 138.163 740.095 138.591 741.239 138.591Z" fill="#7E7E7E"/>
<path id="103&#208;&#177;" d="M685.011 271.727V295H680.091V276.398H679.955L674.625 279.739V275.375L680.386 271.727H685.011ZM699.668 295.511C697.713 295.504 696.031 295.023 694.622 294.068C693.221 293.114 692.141 291.731 691.384 289.92C690.634 288.11 690.262 285.932 690.27 283.386C690.27 280.848 690.645 278.686 691.395 276.898C692.152 275.11 693.232 273.75 694.634 272.818C696.043 271.879 697.721 271.409 699.668 271.409C701.615 271.409 703.289 271.879 704.69 272.818C706.099 273.758 707.183 275.121 707.94 276.909C708.698 278.689 709.073 280.848 709.065 283.386C709.065 285.939 708.687 288.121 707.929 289.932C707.179 291.742 706.103 293.125 704.702 294.08C703.3 295.034 701.622 295.511 699.668 295.511ZM699.668 291.432C701.001 291.432 702.065 290.761 702.861 289.42C703.656 288.08 704.05 286.068 704.043 283.386C704.043 281.621 703.861 280.152 703.497 278.977C703.141 277.803 702.634 276.92 701.974 276.33C701.323 275.739 700.554 275.443 699.668 275.443C698.342 275.443 697.281 276.106 696.486 277.432C695.69 278.758 695.289 280.742 695.281 283.386C695.281 285.174 695.459 286.667 695.815 287.864C696.179 289.053 696.69 289.947 697.349 290.545C698.009 291.136 698.781 291.432 699.668 291.432ZM721.176 295.318C719.479 295.318 717.968 295.027 716.642 294.443C715.324 293.852 714.282 293.042 713.517 292.011C712.759 290.973 712.369 289.777 712.347 288.42H717.301C717.331 288.989 717.517 289.489 717.858 289.92C718.206 290.345 718.669 290.674 719.244 290.909C719.82 291.144 720.468 291.261 721.188 291.261C721.938 291.261 722.6 291.129 723.176 290.864C723.752 290.598 724.203 290.231 724.528 289.761C724.854 289.292 725.017 288.75 725.017 288.136C725.017 287.515 724.843 286.966 724.494 286.489C724.153 286.004 723.661 285.625 723.017 285.352C722.381 285.08 721.623 284.943 720.744 284.943H718.574V281.33H720.744C721.487 281.33 722.142 281.201 722.71 280.943C723.286 280.686 723.733 280.33 724.051 279.875C724.369 279.413 724.528 278.875 724.528 278.261C724.528 277.678 724.388 277.167 724.108 276.727C723.835 276.28 723.449 275.932 722.949 275.682C722.456 275.432 721.881 275.307 721.222 275.307C720.555 275.307 719.945 275.428 719.392 275.67C718.839 275.905 718.396 276.242 718.062 276.682C717.729 277.121 717.551 277.636 717.528 278.227H712.812C712.835 276.886 713.218 275.705 713.96 274.682C714.703 273.659 715.703 272.86 716.96 272.284C718.225 271.701 719.653 271.409 721.244 271.409C722.85 271.409 724.256 271.701 725.46 272.284C726.665 272.867 727.6 273.655 728.267 274.648C728.941 275.633 729.275 276.739 729.267 277.966C729.275 279.269 728.869 280.356 728.051 281.227C727.241 282.098 726.184 282.652 724.881 282.886V283.068C726.593 283.288 727.896 283.883 728.79 284.852C729.691 285.814 730.138 287.019 730.131 288.466C730.138 289.792 729.756 290.97 728.983 292C728.218 293.03 727.161 293.841 725.812 294.432C724.464 295.023 722.919 295.318 721.176 295.318ZM748.224 271.136L749.702 274.295C749.209 274.705 748.664 275.008 748.065 275.205C747.467 275.394 746.751 275.519 745.918 275.58C745.092 275.64 744.084 275.682 742.895 275.705C741.546 275.72 740.448 275.936 739.599 276.352C738.751 276.769 738.107 277.424 737.668 278.318C737.228 279.205 736.94 280.364 736.804 281.795H736.974C737.497 280.727 738.232 279.902 739.179 279.318C740.134 278.735 741.312 278.443 742.713 278.443C744.198 278.443 745.497 278.769 746.611 279.42C747.732 280.072 748.603 281.008 749.224 282.227C749.846 283.447 750.156 284.909 750.156 286.614C750.156 288.386 749.808 289.928 749.111 291.239C748.421 292.542 747.44 293.553 746.168 294.273C744.895 294.985 743.38 295.341 741.622 295.341C739.857 295.341 738.334 294.97 737.054 294.227C735.781 293.485 734.796 292.39 734.099 290.943C733.41 289.496 733.065 287.716 733.065 285.602V284.17C733.065 279.966 733.884 276.848 735.52 274.818C737.156 272.788 739.562 271.758 742.736 271.727C743.599 271.712 744.38 271.708 745.077 271.716C745.774 271.723 746.384 271.689 746.906 271.614C747.437 271.538 747.876 271.379 748.224 271.136ZM741.645 291.591C742.387 291.591 743.024 291.398 743.554 291.011C744.092 290.625 744.505 290.072 744.793 289.352C745.088 288.633 745.236 287.773 745.236 286.773C745.236 285.78 745.088 284.939 744.793 284.25C744.505 283.553 744.092 283.023 743.554 282.659C743.016 282.295 742.372 282.114 741.622 282.114C741.062 282.114 740.558 282.216 740.111 282.42C739.664 282.625 739.281 282.928 738.963 283.33C738.652 283.723 738.41 284.212 738.236 284.795C738.069 285.371 737.986 286.03 737.986 286.773C737.986 288.265 738.308 289.443 738.952 290.307C739.603 291.163 740.501 291.591 741.645 291.591Z" fill="#7E7E7E"/>
<g id="Line 14" filter="url(#filter19_f_8_33)">
<line x1="850" y1="160" x2="868" y2="160" stroke="#4674FF" stroke-width="10"/>
</g>
</g>
<defs>
<filter id="filter0_f_8_33" x="264" y="174" width="574" height="411" filterUnits="userSpaceOnUse" color-interpolation-filters="sRGB">
<feFlood flood-opacity="0" result="BackgroundImageFix"/>
<feBlend mode="normal" in="SourceGraphic" in2="BackgroundImageFix" result="shape"/>
<feGaussianBlur stdDeviation="3" result="effect1_foregroundBlur_8_33"/>
</filter>
<filter id="filter1_d_8_33" x="43" y="497" width="344" height="182" filterUnits="userSpaceOnUse" color-interpolation-filters="sRGB">
<feFlood flood-opacity="0" result="BackgroundImageFix"/>
<feColorMatrix in="SourceAlpha" type="matrix" values="0 0 0 0 0 0 0 0 0 0 0 0 0 0 0 0 0 0 127 0" result="hardAlpha"/>
<feOffset dy="4"/>
<feGaussianBlur stdDeviation="2"/>
<feComposite in2="hardAlpha" operator="out"/>
<feColorMatrix type="matrix" values="0 0 0 0 0 0 0 0 0 0 0 0 0 0 0 0 0 0 0.25 0"/>
<feBlend mode="normal" in2="BackgroundImageFix" result="effect1_dropShadow_8_33"/>
<feBlend mode="normal" in="SourceGraphic" in2="effect1_dropShadow_8_33" result="shape"/>
</filter>
<filter id="filter2_d_8_33" x="273" y="527" width="54" height="76" filterUnits="userSpaceOnUse" color-interpolation-filters="sRGB">
<feFlood flood-opacity="0" result="BackgroundImageFix"/>
<feColorMatrix in="SourceAlpha" type="matrix" values="0 0 0 0 0 0 0 0 0 0 0 0 0 0 0 0 0 0 127 0" result="hardAlpha"/>
<feOffset dy="4"/>
<feGaussianBlur stdDeviation="2"/>
<feComposite in2="hardAlpha" operator="out"/>
<feColorMatrix type="matrix" values="0 0 0 0 0 0 0 0 0 0 0 0 0 0 0 0 0 0 0.25 0"/>
<feBlend mode="normal" in2="BackgroundImageFix" result="effect1_dropShadow_8_33"/>
<feBlend mode="normal" in="SourceGraphic" in2="effect1_dropShadow_8_33" result="shape"/>
</filter>
<filter id="filter3_d_8_33" x="321" y="527" width="66" height="76" filterUnits="userSpaceOnUse" color-interpolation-filters="sRGB">
<feFlood flood-opacity="0" result="BackgroundImageFix"/>
<feColorMatrix in="SourceAlpha" type="matrix" values="0 0 0 0 0 0 0 0 0 0 0 0 0 0 0 0 0 0 127 0" result="hardAlpha"/>
<feOffset dy="4"/>
<feGaussianBlur stdDeviation="2"/>
<feComposite in2="hardAlpha" operator="out"/>
<feColorMatrix type="matrix" values="0 0 0 0 0 0 0 0 0 0 0 0 0 0 0 0 0 0 0.25 0"/>
<feBlend mode="normal" in2="BackgroundImageFix" result="effect1_dropShadow_8_33"/>
<feBlend mode="normal" in="SourceGraphic" in2="effect1_dropShadow_8_33" result="shape"/>
</filter>
<filter id="filter4_d_8_33" x="422" y="574" width="121" height="105" filterUnits="userSpaceOnUse" color-interpolation-filters="sRGB">
<feFlood flood-opacity="0" result="BackgroundImageFix"/>
<feColorMatrix in="SourceAlpha" type="matrix" values="0 0 0 0 0 0 0 0 0 0 0 0 0 0 0 0 0 0 127 0" result="hardAlpha"/>
<feOffset dy="4"/>
<feGaussianBlur stdDeviation="2"/>
<feComposite in2="hardAlpha" operator="out"/>
<feColorMatrix type="matrix" values="0 0 0 0 0 0 0 0 0 0 0 0 0 0 0 0 0 0 0.25 0"/>
<feBlend mode="normal" in2="BackgroundImageFix" result="effect1_dropShadow_8_33"/>
<feBlend mode="normal" in="SourceGraphic" in2="effect1_dropShadow_8_33" result="shape"/>
</filter>
<filter id="filter5_d_8_33" x="537" y="574" width="133" height="105" filterUnits="userSpaceOnUse" color-interpolation-filters="sRGB">
<feFlood flood-opacity="0" result="BackgroundImageFix"/>
<feColorMatrix in="SourceAlpha" type="matrix" values="0 0 0 0 0 0 0 0 0 0 0 0 0 0 0 0 0 0 127 0" result="hardAlpha"/>
<feOffset dy="4"/>
<feGaussianBlur stdDeviation="2"/>
<feComposite in2="hardAlpha" operator="out"/>
<feColorMatrix type="matrix" values="0 0 0 0 0 0 0 0 0 0 0 0 0 0 0 0 0 0 0.25 0"/>
<feBlend mode="normal" in2="BackgroundImageFix" result="effect1_dropShadow_8_33"/>
<feBlend mode="normal" in="SourceGraphic" in2="effect1_dropShadow_8_33" result="shape"/>
</filter>
<filter id="filter6_d_8_33" x="664" y="566" width="91" height="97" filterUnits="userSpaceOnUse" color-interpolation-filters="sRGB">
<feFlood flood-opacity="0" result="BackgroundImageFix"/>
<feColorMatrix in="SourceAlpha" type="matrix" values="0 0 0 0 0 0 0 0 0 0 0 0 0 0 0 0 0 0 127 0" result="hardAlpha"/>
<feOffset dy="4"/>
<feGaussianBlur stdDeviation="2"/>
<feComposite in2="hardAlpha" operator="out"/>
<feColorMatrix type="matrix" values="0 0 0 0 0 0 0 0 0 0 0 0 0 0 0 0 0 0 0.25 0"/>
<feBlend mode="normal" in2="BackgroundImageFix" result="effect1_dropShadow_8_33"/>
<feBlend mode="normal" in="SourceGraphic" in2="effect1_dropShadow_8_33" result="shape"/>
</filter>
<filter id="filter7_d_8_33" x="843" y="469" width="55" height="51" filterUnits="userSpaceOnUse" color-interpolation-filters="sRGB">
<feFlood flood-opacity="0" result="BackgroundImageFix"/>
<feColorMatrix in="SourceAlpha" type="matrix" values="0 0 0 0 0 0 0 0 0 0 0 0 0 0 0 0 0 0 127 0" result="hardAlpha"/>
<feOffset dy="4"/>
<feGaussianBlur stdDeviation="2"/>
<feComposite in2="hardAlpha" operator="out"/>
<feColorMatrix type="matrix" values="0 0 0 0 0 0 0 0 0 0 0 0 0 0 0 0 0 0 0.25 0"/>
<feBlend mode="normal" in2="BackgroundImageFix" result="effect1_dropShadow_8_33"/>
<feBlend mode="normal" in="SourceGraphic" in2="effect1_dropShadow_8_33" result="shape"/>
</filter>
<filter id="filter8_d_8_33" x="796" y="425" width="102" height="95" filterUnits="userSpaceOnUse" color-interpolation-filters="sRGB">
<feFlood flood-opacity="0" result="BackgroundImageFix"/>
<feColorMatrix in="SourceAlpha" type="matrix" values="0 0 0 0 0 0 0 0 0 0 0 0 0 0 0 0 0 0 127 0" result="hardAlpha"/>
<feOffset dy="4"/>
<feGaussianBlur stdDeviation="2"/>
<feComposite in2="hardAlpha" operator="out"/>
<feColorMatrix type="matrix" values="0 0 0 0 0 0 0 0 0 0 0 0 0 0 0 0 0 0 0.25 0"/>
<feBlend mode="normal" in2="BackgroundImageFix" result="effect1_dropShadow_8_33"/>
<feBlend mode="normal" in="SourceGraphic" in2="effect1_dropShadow_8_33" result="shape"/>
</filter>
<filter id="filter9_d_8_33" x="663" y="428" width="83" height="49" filterUnits="userSpaceOnUse" color-interpolation-filters="sRGB">
<feFlood flood-opacity="0" result="BackgroundImageFix"/>
<feColorMatrix in="SourceAlpha" type="matrix" values="0 0 0 0 0 0 0 0 0 0 0 0 0 0 0 0 0 0 127 0" result="hardAlpha"/>
<feOffset dy="4"/>
<feGaussianBlur stdDeviation="2"/>
<feComposite in2="hardAlpha" operator="out"/>
<feColorMatrix type="matrix" values="0 0 0 0 0 0 0 0 0 0 0 0 0 0 0 0 0 0 0.25 0"/>
<feBlend mode="normal" in2="BackgroundImageFix" result="effect1_dropShadow_8_33"/>
<feBlend mode="normal" in="SourceGraphic" in2="effect1_dropShadow_8_33" result="shape"/>
</filter>
<filter id="filter10_d_8_33" x="663" y="471" width="83" height="47" filterUnits="userSpaceOnUse" color-interpolation-filters="sRGB">
<feFlood flood-opacity="0" result="BackgroundImageFix"/>
<feColorMatrix in="SourceAlpha" type="matrix" values="0 0 0 0 0 0 0 0 0 0 0 0 0 0 0 0 0 0 127 0" result="hardAlpha"/>
<feOffset dy="4"/>
<feGaussianBlur stdDeviation="2"/>
<feComposite in2="hardAlpha" operator="out"/>
<feColorMatrix type="matrix" values="0 0 0 0 0 0 0 0 0 0 0 0 0 0 0 0 0 0 0.25 0"/>
<feBlend mode="normal" in2="BackgroundImageFix" result="effect1_dropShadow_8_33"/>
<feBlend mode="normal" in="SourceGraphic" in2="effect1_dropShadow_8_33" result="shape"/>
</filter>
<filter id="filter11_d_8_33" x="740" y="446" width="31" height="42" filterUnits="userSpaceOnUse" color-interpolation-filters="sRGB">
<feFlood flood-opacity="0" result="BackgroundImageFix"/>
<feColorMatrix in="SourceAlpha" type="matrix" values="0 0 0 0 0 0 0 0 0 0 0 0 0 0 0 0 0 0 127 0" result="hardAlpha"/>
<feOffset dy="4"/>
<feGaussianBlur stdDeviation="2"/>
<feComposite in2="hardAlpha" operator="out"/>
<feColorMatrix type="matrix" values="0 0 0 0 0 0 0 0 0 0 0 0 0 0 0 0 0 0 0.25 0"/>
<feBlend mode="normal" in2="BackgroundImageFix" result="effect1_dropShadow_8_33"/>
<feBlend mode="normal" in="SourceGraphic" in2="effect1_dropShadow_8_33" result="shape"/>
</filter>
<filter id="filter12_d_8_33" x="796" y="380" width="114" height="51" filterUnits="userSpaceOnUse" color-interpolation-filters="sRGB">
<feFlood flood-opacity="0" result="BackgroundImageFix"/>
<feColorMatrix in="SourceAlpha" type="matrix" values="0 0 0 0 0 0 0 0 0 0 0 0 0 0 0 0 0 0 127 0" result="hardAlpha"/>
<feOffset dy="4"/>
<feGaussianBlur stdDeviation="2"/>
<feComposite in2="hardAlpha" operator="out"/>
<feColorMatrix type="matrix" values="0 0 0 0 0 0 0 0 0 0 0 0 0 0 0 0 0 0 0.25 0"/>
<feBlend mode="normal" in2="BackgroundImageFix" result="effect1_dropShadow_8_33"/>
<feBlend mode="normal" in="SourceGraphic" in2="effect1_dropShadow_8_33" result="shape"/>
</filter>
<filter id="filter13_d_8_33" x="796" y="247" width="114" height="139" filterUnits="userSpaceOnUse" color-interpolation-filters="sRGB">
<feFlood flood-opacity="0" result="BackgroundImageFix"/>
<feColorMatrix in="SourceAlpha" type="matrix" values="0 0 0 0 0 0 0 0 0 0 0 0 0 0 0 0 0 0 127 0" result="hardAlpha"/>
<feOffset dy="4"/>
<feGaussianBlur stdDeviation="2"/>
<feComposite in2="hardAlpha" operator="out"/>
<feColorMatrix type="matrix" values="0 0 0 0 0 0 0 0 0 0 0 0 0 0 0 0 0 0 0.25 0"/>
<feBlend mode="normal" in2="BackgroundImageFix" result="effect1_dropShadow_8_33"/>
<feBlend mode="normal" in="SourceGraphic" in2="effect1_dropShadow_8_33" result="shape"/>
</filter>
<filter id="filter14_d_8_33" x="796" y="161" width="114" height="92" filterUnits="userSpaceOnUse" color-interpolation-filters="sRGB">
<feFlood flood-opacity="0" result="BackgroundImageFix"/>
<feColorMatrix in="SourceAlpha" type="matrix" values="0 0 0 0 0 0 0 0 0 0 0 0 0 0 0 0 0 0 127 0" result="hardAlpha"/>
<feOffset dy="4"/>
<feGaussianBlur stdDeviation="2"/>
<feComposite in2="hardAlpha" operator="out"/>
<feColorMatrix type="matrix" values="0 0 0 0 0 0 0 0 0 0 0 0 0 0 0 0 0 0 0.25 0"/>
<feBlend mode="normal" in2="BackgroundImageFix" result="effect1_dropShadow_8_33"/>
<feBlend mode="normal" in="SourceGraphic" in2="effect1_dropShadow_8_33" result="shape"/>
</filter>
<filter id="filter15_d_8_33" x="819" y="56" width="84" height="112" filterUnits="userSpaceOnUse" color-interpolation-filters="sRGB">
<feFlood flood-opacity="0" result="BackgroundImageFix"/>
<feColorMatrix in="SourceAlpha" type="matrix" values="0 0 0 0 0 0 0 0 0 0 0 0 0 0 0 0 0 0 127 0" result="hardAlpha"/>
<feOffset dy="4"/>
<feGaussianBlur stdDeviation="2"/>
<feComposite in2="hardAlpha" operator="out"/>
<feColorMatrix type="matrix" values="0 0 0 0 0 0 0 0 0 0 0 0 0 0 0 0 0 0 0.25 0"/>
<feBlend mode="normal" in2="BackgroundImageFix" result="effect1_dropShadow_8_33"/>
<feBlend mode="normal" in="SourceGraphic" in2="effect1_dropShadow_8_33" result="shape"/>
</filter>
<filter id="filter16_d_8_33" x="655" y="56" width="116" height="161" filterUnits="userSpaceOnUse" color-interpolation-filters="sRGB">
<feFlood flood-opacity="0" result="BackgroundImageFix"/>
<feColorMatrix in="SourceAlpha" type="matrix" values="0 0 0 0 0 0 0 0 0 0 0 0 0 0 0 0 0 0 127 0" result="hardAlpha"/>
<feOffset dy="4"/>
<feGaussianBlur stdDeviation="2"/>
<feComposite in2="hardAlpha" operator="out"/>
<feColorMatrix type="matrix" values="0 0 0 0 0 0 0 0 0 0 0 0 0 0 0 0 0 0 0.25 0"/>
<feBlend mode="normal" in2="BackgroundImageFix" result="effect1_dropShadow_8_33"/>
<feBlend mode="normal" in="SourceGraphic" in2="effect1_dropShadow_8_33" result="shape"/>
</filter>
<filter id="filter17_d_8_33" x="660" y="211" width="111" height="154" filterUnits="userSpaceOnUse" color-interpolation-filters="sRGB">
<feFlood flood-opacity="0" result="BackgroundImageFix"/>
<feColorMatrix in="SourceAlpha" type="matrix" values="0 0 0 0 0 0 0 0 0 0 0 0 0 0 0 0 0 0 127 0" result="hardAlpha"/>
<feOffset dy="4"/>
<feGaussianBlur stdDeviation="2"/>
<feComposite in2="hardAlpha" operator="out"/>
<feColorMatrix type="matrix" values="0 0 0 0 0 0 0 0 0 0 0 0 0 0 0 0 0 0 0.25 0"/>
<feBlend mode="normal" in2="BackgroundImageFix" result="effect1_dropShadow_8_33"/>
<feBlend mode="normal" in="SourceGraphic" in2="effect1_dropShadow_8_33" result="shape"/>
</filter>
<filter id="filter18_d_8_33" x="660" y="359" width="111" height="39" filterUnits="userSpaceOnUse" color-interpolation-filters="sRGB">
<feFlood flood-opacity="0" result="BackgroundImageFix"/>
<feColorMatrix in="SourceAlpha" type="matrix" values="0 0 0 0 0 0 0 0 0 0 0 0 0 0 0 0 0 0 127 0" result="hardAlpha"/>
<feOffset dy="4"/>
<feGaussianBlur stdDeviation="2"/>
<feComposite in2="hardAlpha" operator="out"/>
<feColorMatrix type="matrix" values="0 0 0 0 0 0 0 0 0 0 0 0 0 0 0 0 0 0 0.25 0"/>
<feBlend mode="normal" in2="BackgroundImageFix" result="effect1_dropShadow_8_33"/>
<feBlend mode="normal" in="SourceGraphic" in2="effect1_dropShadow_8_33" result="shape"/>
</filter>
<filter id="filter19_f_8_33" x="844" y="149" width="30" height="22" filterUnits="userSpaceOnUse" color-interpolation-filters="sRGB">
<feFlood flood-opacity="0" result="BackgroundImageFix"/>
<feBlend mode="normal" in="SourceGraphic" in2="BackgroundImageFix" result="shape"/>
<feGaussianBlur stdDeviation="3" result="effect1_foregroundBlur_8_33"/>
</filter>
</defs>
</svg>
