<svg width="958" height="786" viewBox="0 0 958 786" fill="none" xmlns="http://www.w3.org/2000/svg">
<rect width="958" height="786" fill="#1E1E1E"/>
<g id="Frame 1">
<rect width="958" height="786" fill="white"/>
<path id="Rectangle 29" d="M41 492.5H607.5C627.493 505.161 639.269 506.325 660.5 506V435H654.5V384H659V213.5H654.5V48.5H904.5V154.5H913V435H903V585.5C780.663 590.516 716.741 612.793 654.5 677H41V492.5Z" fill="#7E7E7E"/>
<g id="Group 1" filter="url(#filter0_f_8_33)">
<line id="Line 1" x1="275" y1="519" x2="275" y2="501" stroke="#4674FF" stroke-width="10"/>
<line id="Line 2" x1="288" y1="527" x2="306" y2="527" stroke="#4674FF" stroke-width="10"/>
<line id="Line 3" x1="383" y1="556" x2="383" y2="538" stroke="#4674FF" stroke-width="10"/>
<line id="Line 4" x1="440" y1="574" x2="458" y2="574" stroke="#4674FF" stroke-width="10"/>
<line id="Line 5" x1="551" y1="574" x2="569" y2="574" stroke="#4674FF" stroke-width="10"/>
<line id="Line 6" x1="677" y1="566" x2="695" y2="566" stroke="#4674FF" stroke-width="10"/>
<line id="Line 7" x1="721" y1="566" x2="739" y2="566" stroke="#4674FF" stroke-width="10"/>
<line id="Line 8" x1="813" y1="512" x2="832" y2="512" stroke="#4674FF" stroke-width="10"/>
<line id="Line 9" x1="800" y1="413" x2="800" y2="395" stroke="#4674FF" stroke-width="10"/>
<line id="Line 10" x1="800" y1="364" x2="800" y2="346" stroke="#4674FF" stroke-width="10"/>
<line id="Line 11" x1="767" y1="253" x2="767" y2="235" stroke="#4674FF" stroke-width="10"/>
<line id="Line 12" x1="800" y1="230" x2="800" y2="212" stroke="#4674FF" stroke-width="10"/>
<line id="Line 13" x1="767" y1="198" x2="767" y2="180" stroke="#4674FF" stroke-width="10"/>
</g>
<g id="small hall" filter="url(#filter1_d_8_33)">
<path d="M47 497H275V597H383V671H275H47V497Z" fill="#D9D9D9"/>
</g>
<g id="mens locker room b" filter="url(#filter2_d_8_33)">
<rect x="277" y="527" width="46" height="68" fill="#D9D9D9"/>
</g>
<g id="womens lokcer room b" filter="url(#filter3_d_8_33)">
<rect x="325" y="527" width="58" height="68" fill="#D9D9D9"/>
</g>
<g id="102b" filter="url(#filter4_d_8_33)">
<rect x="426" y="574" width="113" height="97" fill="#D9D9D9"/>
</g>
<g id="101b" filter="url(#filter5_d_8_33)">
<path d="M541 574H666V656.5L652.5 671H541V574Z" fill="#D9D9D9"/>
</g>
<g id="checkroom" filter="url(#filter6_d_8_33)">
<path d="M668 566H751V603C717.672 616.968 699.474 627.771 668 655V566Z" fill="#D9D9D9"/>
</g>
<g id="Rectangle 17" filter="url(#filter7_d_8_33)">
<rect x="847" y="469" width="47" height="43" fill="#D9D9D9"/>
</g>
<g id="checkroom_2" filter="url(#filter8_d_8_33)">
<path d="M800 425H894V467H845V512H800V425Z" fill="#D9D9D9"/>
</g>
<g id="wc-6b" filter="url(#filter9_d_8_33)">
<rect x="667" y="428" width="75" height="41" fill="#D9D9D9"/>
</g>
<g id="wc-7b" filter="url(#filter10_d_8_33)">
<rect x="667" y="471" width="75" height="39" fill="#D9D9D9"/>
</g>
<g id="Rectangle 21" filter="url(#filter11_d_8_33)">
<rect x="744" y="446" width="23" height="34" fill="#D9D9D9"/>
</g>
<g id="checkroom_3" filter="url(#filter12_d_8_33)">
<rect x="800" y="380" width="106" height="43" fill="#D9D9D9"/>
</g>
<g id="106b" filter="url(#filter13_d_8_33)">
<rect x="800" y="247" width="106" height="131" fill="#D9D9D9"/>
</g>
<g id="105b" filter="url(#filter14_d_8_33)">
<rect x="800" y="161" width="106" height="84" fill="#D9D9D9"/>
</g>
<g id="1052b" filter="url(#filter15_d_8_33)">
<rect x="823" y="56" width="76" height="104" fill="#D9D9D9"/>
</g>
<g id="104b" filter="url(#filter16_d_8_33)">
<rect x="659" y="56" width="108" height="153" fill="#D9D9D9"/>
</g>
<g id="103b" filter="url(#filter17_d_8_33)">
<rect x="664" y="211" width="103" height="146" fill="#D9D9D9"/>
</g>
<g id="security room" filter="url(#filter18_d_8_33)">
<rect x="664" y="359" width="103" height="31" fill="#D9D9D9"/>
</g>
<path id="&#208;&#146;&#208;&#165;&#208;&#158;&#208;&#148;" d="M890 576.736H875.455V570.912C875.455 569.842 875.613 568.949 875.93 568.234C876.248 567.519 876.688 566.982 877.251 566.622C877.81 566.262 878.454 566.082 879.183 566.082C879.751 566.082 880.251 566.196 880.682 566.423C881.108 566.651 881.458 566.963 881.733 567.361C882.003 567.754 882.195 568.204 882.308 568.71H882.45C882.474 568.156 882.63 567.638 882.919 567.155C883.208 566.667 883.613 566.272 884.134 565.969C884.65 565.666 885.265 565.514 885.98 565.514C886.752 565.514 887.441 565.706 888.047 566.089C888.648 566.468 889.124 567.029 889.474 567.773C889.825 568.516 890 569.432 890 570.521V576.736ZM887.486 573.661V571.153C887.486 570.296 887.322 569.671 886.996 569.278C886.664 568.885 886.224 568.689 885.675 568.689C885.272 568.689 884.917 568.786 884.609 568.98C884.302 569.174 884.06 569.451 883.885 569.811C883.71 570.166 883.622 570.59 883.622 571.082V573.661H887.486ZM881.541 573.661V571.381C881.541 570.959 881.468 570.585 881.321 570.259C881.17 569.927 880.956 569.667 880.682 569.477C880.407 569.283 880.078 569.186 879.695 569.186C879.169 569.186 878.745 569.373 878.423 569.747C878.101 570.116 877.94 570.642 877.94 571.324V573.661H881.541ZM875.455 560.63L880.412 557.696V557.583L875.455 554.635V551.162L882.727 555.601L890 551.063V554.6L885.036 557.583V557.696L890 560.679V564.202L882.727 559.65L875.455 564.117V560.63ZM882.727 536.533C884.313 536.533 885.663 536.834 886.776 537.435C887.888 538.032 888.738 538.846 889.325 539.879C889.908 540.906 890.199 542.061 890.199 543.344C890.199 544.637 889.905 545.797 889.318 546.825C888.731 547.852 887.881 548.664 886.768 549.261C885.656 549.857 884.309 550.156 882.727 550.156C881.141 550.156 879.792 549.857 878.679 549.261C877.566 548.664 876.719 547.852 876.136 546.825C875.549 545.797 875.256 544.637 875.256 543.344C875.256 542.061 875.549 540.906 876.136 539.879C876.719 538.846 877.566 538.032 878.679 537.435C879.792 536.834 881.141 536.533 882.727 536.533ZM882.727 539.651C881.7 539.651 880.833 539.805 880.128 540.113C879.422 540.416 878.887 540.844 878.523 541.398C878.158 541.952 877.976 542.601 877.976 543.344C877.976 544.088 878.158 544.737 878.523 545.29C878.887 545.844 879.422 546.275 880.128 546.583C880.833 546.886 881.7 547.038 882.727 547.038C883.755 547.038 884.621 546.886 885.327 546.583C886.032 546.275 886.567 545.844 886.932 545.29C887.296 544.737 887.479 544.088 887.479 543.344C887.479 542.601 887.296 541.952 886.932 541.398C886.567 540.844 886.032 540.416 885.327 540.113C884.621 539.805 883.755 539.651 882.727 539.651ZM893.509 535.044H887.55V534.056C887.308 533.72 886.967 533.413 886.527 533.133C886.082 532.854 885.469 532.615 884.688 532.416C883.902 532.217 882.874 532.075 881.605 531.99L875.455 531.578V521.954H887.55V520.363H893.494V523.318H890V532.089H893.509V535.044ZM887.55 530.505V524.909H877.99V528.808L881.605 529.035C882.566 529.097 883.419 529.199 884.162 529.341C884.905 529.478 885.556 529.646 886.115 529.845C886.669 530.039 887.147 530.259 887.55 530.505Z" fill="#D9D9D9"/>
<path id="&#208;&#156;&#208;&#144;&#208;&#155;&#208;&#171;&#208;&#153; &#208;&#151;&#208;&#144;&#208;&#155;" d="M103.023 550.727H109.091L115.5 566.364H115.773L122.182 550.727H128.25V574H123.477V558.852H123.284L117.261 573.886H114.011L107.989 558.795H107.795V574H103.023V550.727ZM136.315 574H131.043L139.077 550.727H145.418L153.44 574H148.168L142.338 556.045H142.156L136.315 574ZM135.986 564.852H148.44V568.693H135.986V564.852ZM154.98 574V570.045L155.639 569.989C156.488 569.92 157.173 569.598 157.696 569.023C158.219 568.439 158.609 567.511 158.866 566.239C159.132 564.958 159.302 563.239 159.378 561.08L159.764 550.727H175.56V574H170.776V554.67H164.332L163.969 562.773C163.848 565.379 163.537 567.508 163.037 569.159C162.545 570.811 161.757 572.03 160.673 572.818C159.598 573.606 158.124 574 156.253 574H154.98ZM182.855 559.33H188.401C190.249 559.33 191.84 559.629 193.173 560.227C194.514 560.818 195.548 561.655 196.276 562.739C197.003 563.822 197.363 565.098 197.355 566.568C197.363 568.03 197.003 569.322 196.276 570.443C195.548 571.557 194.514 572.428 193.173 573.057C191.84 573.686 190.249 574 188.401 574H179.707V550.727H184.616V570.045H188.401C189.287 570.045 190.033 569.886 190.639 569.568C191.245 569.242 191.704 568.814 192.014 568.284C192.332 567.746 192.488 567.159 192.48 566.523C192.488 565.598 192.139 564.818 191.435 564.182C190.738 563.538 189.726 563.216 188.401 563.216H182.855V559.33ZM204.162 550.727V574H199.253V550.727H204.162ZM208.21 550.727H213.119V565.364H213.312L223.369 550.727H227.676V574H222.756V559.352H222.585L212.472 574H208.21V550.727ZM220.21 544.636H223.585C223.578 546.015 223.066 547.125 222.051 547.966C221.044 548.807 219.68 549.227 217.96 549.227C216.233 549.227 214.866 548.807 213.858 547.966C212.85 547.125 212.347 546.015 212.347 544.636H215.699C215.691 545.159 215.858 545.629 216.199 546.045C216.547 546.462 217.134 546.67 217.96 546.67C218.763 546.67 219.339 546.466 219.688 546.057C220.036 545.648 220.21 545.174 220.21 544.636ZM111.489 613.318C109.792 613.318 108.28 613.027 106.955 612.443C105.636 611.852 104.595 611.042 103.83 610.011C103.072 608.973 102.682 607.777 102.659 606.42H107.614C107.644 606.989 107.83 607.489 108.17 607.92C108.519 608.345 108.981 608.674 109.557 608.909C110.133 609.144 110.78 609.261 111.5 609.261C112.25 609.261 112.913 609.129 113.489 608.864C114.064 608.598 114.515 608.231 114.841 607.761C115.167 607.292 115.33 606.75 115.33 606.136C115.33 605.515 115.155 604.966 114.807 604.489C114.466 604.004 113.973 603.625 113.33 603.352C112.693 603.08 111.936 602.943 111.057 602.943H108.886V599.33H111.057C111.799 599.33 112.455 599.201 113.023 598.943C113.598 598.686 114.045 598.33 114.364 597.875C114.682 597.413 114.841 596.875 114.841 596.261C114.841 595.678 114.701 595.167 114.42 594.727C114.148 594.28 113.761 593.932 113.261 593.682C112.769 593.432 112.193 593.307 111.534 593.307C110.867 593.307 110.258 593.428 109.705 593.67C109.152 593.905 108.708 594.242 108.375 594.682C108.042 595.121 107.864 595.636 107.841 596.227H103.125C103.148 594.886 103.53 593.705 104.273 592.682C105.015 591.659 106.015 590.86 107.273 590.284C108.538 589.701 109.966 589.409 111.557 589.409C113.163 589.409 114.568 589.701 115.773 590.284C116.977 590.867 117.913 591.655 118.58 592.648C119.254 593.633 119.587 594.739 119.58 595.966C119.587 597.269 119.182 598.356 118.364 599.227C117.553 600.098 116.496 600.652 115.193 600.886V601.068C116.905 601.288 118.208 601.883 119.102 602.852C120.004 603.814 120.451 605.019 120.443 606.466C120.451 607.792 120.068 608.97 119.295 610C118.53 611.03 117.473 611.841 116.125 612.432C114.777 613.023 113.231 613.318 111.489 613.318ZM128.128 613H122.855L130.889 589.727H137.23L145.253 613H139.98L134.151 595.045H133.969L128.128 613ZM127.798 603.852H140.253V607.693H127.798V603.852ZM146.793 613V609.045L147.452 608.989C148.3 608.92 148.986 608.598 149.509 608.023C150.031 607.439 150.421 606.511 150.679 605.239C150.944 603.958 151.115 602.239 151.19 600.08L151.577 589.727H167.372V613H162.588V593.67H156.145L155.781 601.773C155.66 604.379 155.349 606.508 154.849 608.159C154.357 609.811 153.569 611.03 152.486 611.818C151.41 612.606 149.937 613 148.065 613H146.793Z" fill="#7E7E7E"/>
<path id="102&#208;&#177;" d="M455.011 611.727V635H450.091V616.398H449.955L444.625 619.739V615.375L450.386 611.727H455.011ZM469.668 635.511C467.713 635.504 466.031 635.023 464.622 634.068C463.221 633.114 462.141 631.731 461.384 629.92C460.634 628.11 460.262 625.932 460.27 623.386C460.27 620.848 460.645 618.686 461.395 616.898C462.152 615.11 463.232 613.75 464.634 612.818C466.043 611.879 467.721 611.409 469.668 611.409C471.615 611.409 473.289 611.879 474.69 612.818C476.099 613.758 477.183 615.121 477.94 616.909C478.698 618.689 479.073 620.848 479.065 623.386C479.065 625.939 478.687 628.121 477.929 629.932C477.179 631.742 476.103 633.125 474.702 634.08C473.3 635.034 471.622 635.511 469.668 635.511ZM469.668 631.432C471.001 631.432 472.065 630.761 472.861 629.42C473.656 628.08 474.05 626.068 474.043 623.386C474.043 621.621 473.861 620.152 473.497 618.977C473.141 617.803 472.634 616.92 471.974 616.33C471.323 615.739 470.554 615.443 469.668 615.443C468.342 615.443 467.281 616.106 466.486 617.432C465.69 618.758 465.289 620.742 465.281 623.386C465.281 625.174 465.459 626.667 465.815 627.864C466.179 629.053 466.69 629.947 467.349 630.545C468.009 631.136 468.781 631.432 469.668 631.432ZM482.574 635V631.455L490.858 623.784C491.563 623.102 492.153 622.489 492.631 621.943C493.116 621.398 493.483 620.864 493.733 620.341C493.983 619.811 494.108 619.239 494.108 618.625C494.108 617.943 493.953 617.356 493.642 616.864C493.331 616.364 492.907 615.981 492.369 615.716C491.831 615.443 491.222 615.307 490.54 615.307C489.828 615.307 489.206 615.451 488.676 615.739C488.146 616.027 487.737 616.439 487.449 616.977C487.161 617.515 487.017 618.155 487.017 618.898H482.347C482.347 617.375 482.691 616.053 483.381 614.932C484.07 613.811 485.036 612.943 486.278 612.33C487.521 611.716 488.953 611.409 490.574 611.409C492.241 611.409 493.691 611.705 494.926 612.295C496.169 612.879 497.134 613.689 497.824 614.727C498.513 615.765 498.858 616.955 498.858 618.295C498.858 619.174 498.684 620.042 498.335 620.898C497.994 621.754 497.384 622.705 496.506 623.75C495.627 624.788 494.388 626.034 492.79 627.489L489.392 630.818V630.977H499.165V635H482.574ZM517.287 611.136L518.764 614.295C518.272 614.705 517.726 615.008 517.128 615.205C516.529 615.394 515.813 615.519 514.98 615.58C514.154 615.64 513.147 615.682 511.957 615.705C510.609 615.72 509.51 615.936 508.662 616.352C507.813 616.769 507.17 617.424 506.73 618.318C506.291 619.205 506.003 620.364 505.866 621.795H506.037C506.56 620.727 507.295 619.902 508.241 619.318C509.196 618.735 510.374 618.443 511.776 618.443C513.26 618.443 514.56 618.769 515.673 619.42C516.795 620.072 517.666 621.008 518.287 622.227C518.908 623.447 519.219 624.909 519.219 626.614C519.219 628.386 518.87 629.928 518.173 631.239C517.484 632.542 516.503 633.553 515.23 634.273C513.957 634.985 512.442 635.341 510.685 635.341C508.92 635.341 507.397 634.97 506.116 634.227C504.844 633.485 503.859 632.39 503.162 630.943C502.473 629.496 502.128 627.716 502.128 625.602V624.17C502.128 619.966 502.946 616.848 504.582 614.818C506.219 612.788 508.624 611.758 511.798 611.727C512.662 611.712 513.442 611.708 514.139 611.716C514.836 611.723 515.446 611.689 515.969 611.614C516.499 611.538 516.938 611.379 517.287 611.136ZM510.707 631.591C511.45 631.591 512.086 631.398 512.616 631.011C513.154 630.625 513.567 630.072 513.855 629.352C514.151 628.633 514.298 627.773 514.298 626.773C514.298 625.78 514.151 624.939 513.855 624.25C513.567 623.553 513.154 623.023 512.616 622.659C512.079 622.295 511.435 622.114 510.685 622.114C510.124 622.114 509.62 622.216 509.173 622.42C508.726 622.625 508.344 622.928 508.026 623.33C507.715 623.723 507.473 624.212 507.298 624.795C507.132 625.371 507.048 626.03 507.048 626.773C507.048 628.265 507.37 629.443 508.014 630.307C508.666 631.163 509.563 631.591 510.707 631.591Z" fill="#7E7E7E"/>
<path id="101&#208;&#177;" d="M567.011 614.727V638H562.091V619.398H561.955L556.625 622.739V618.375L562.386 614.727H567.011ZM581.668 638.511C579.713 638.504 578.031 638.023 576.622 637.068C575.221 636.114 574.141 634.731 573.384 632.92C572.634 631.11 572.262 628.932 572.27 626.386C572.27 623.848 572.645 621.686 573.395 619.898C574.152 618.11 575.232 616.75 576.634 615.818C578.043 614.879 579.721 614.409 581.668 614.409C583.615 614.409 585.289 614.879 586.69 615.818C588.099 616.758 589.183 618.121 589.94 619.909C590.698 621.689 591.073 623.848 591.065 626.386C591.065 628.939 590.687 631.121 589.929 632.932C589.179 634.742 588.103 636.125 586.702 637.08C585.3 638.034 583.622 638.511 581.668 638.511ZM581.668 634.432C583.001 634.432 584.065 633.761 584.861 632.42C585.656 631.08 586.05 629.068 586.043 626.386C586.043 624.621 585.861 623.152 585.497 621.977C585.141 620.803 584.634 619.92 583.974 619.33C583.323 618.739 582.554 618.443 581.668 618.443C580.342 618.443 579.281 619.106 578.486 620.432C577.69 621.758 577.289 623.742 577.281 626.386C577.281 628.174 577.459 629.667 577.815 630.864C578.179 632.053 578.69 632.947 579.349 633.545C580.009 634.136 580.781 634.432 581.668 634.432ZM604.699 614.727V638H599.778V619.398H599.642L594.312 622.739V618.375L600.074 614.727H604.699ZM624.787 614.136L626.264 617.295C625.772 617.705 625.226 618.008 624.628 618.205C624.029 618.394 623.313 618.519 622.48 618.58C621.654 618.64 620.647 618.682 619.457 618.705C618.109 618.72 617.01 618.936 616.162 619.352C615.313 619.769 614.67 620.424 614.23 621.318C613.791 622.205 613.503 623.364 613.366 624.795H613.537C614.06 623.727 614.795 622.902 615.741 622.318C616.696 621.735 617.874 621.443 619.276 621.443C620.76 621.443 622.06 621.769 623.173 622.42C624.295 623.072 625.166 624.008 625.787 625.227C626.408 626.447 626.719 627.909 626.719 629.614C626.719 631.386 626.37 632.928 625.673 634.239C624.984 635.542 624.003 636.553 622.73 637.273C621.457 637.985 619.942 638.341 618.185 638.341C616.42 638.341 614.897 637.97 613.616 637.227C612.344 636.485 611.359 635.39 610.662 633.943C609.973 632.496 609.628 630.716 609.628 628.602V627.17C609.628 622.966 610.446 619.848 612.082 617.818C613.719 615.788 616.124 614.758 619.298 614.727C620.162 614.712 620.942 614.708 621.639 614.716C622.336 614.723 622.946 614.689 623.469 614.614C623.999 614.538 624.438 614.379 624.787 614.136ZM618.207 634.591C618.95 634.591 619.586 634.398 620.116 634.011C620.654 633.625 621.067 633.072 621.355 632.352C621.651 631.633 621.798 630.773 621.798 629.773C621.798 628.78 621.651 627.939 621.355 627.25C621.067 626.553 620.654 626.023 620.116 625.659C619.579 625.295 618.935 625.114 618.185 625.114C617.624 625.114 617.12 625.216 616.673 625.42C616.226 625.625 615.844 625.928 615.526 626.33C615.215 626.723 614.973 627.212 614.798 627.795C614.632 628.371 614.548 629.03 614.548 629.773C614.548 631.265 614.87 632.443 615.514 633.307C616.166 634.163 617.063 634.591 618.207 634.591Z" fill="#7E7E7E"/>
<path id="106&#208;&#177;" d="M828.011 299.727V323H823.091V304.398H822.955L817.625 307.739V303.375L823.386 299.727H828.011ZM842.668 323.511C840.713 323.504 839.031 323.023 837.622 322.068C836.221 321.114 835.141 319.731 834.384 317.92C833.634 316.11 833.262 313.932 833.27 311.386C833.27 308.848 833.645 306.686 834.395 304.898C835.152 303.11 836.232 301.75 837.634 300.818C839.043 299.879 840.721 299.409 842.668 299.409C844.615 299.409 846.289 299.879 847.69 300.818C849.099 301.758 850.183 303.121 850.94 304.909C851.698 306.689 852.073 308.848 852.065 311.386C852.065 313.939 851.687 316.121 850.929 317.932C850.179 319.742 849.103 321.125 847.702 322.08C846.3 323.034 844.622 323.511 842.668 323.511ZM842.668 319.432C844.001 319.432 845.065 318.761 845.861 317.42C846.656 316.08 847.05 314.068 847.043 311.386C847.043 309.621 846.861 308.152 846.497 306.977C846.141 305.803 845.634 304.92 844.974 304.33C844.323 303.739 843.554 303.443 842.668 303.443C841.342 303.443 840.281 304.106 839.486 305.432C838.69 306.758 838.289 308.742 838.281 311.386C838.281 313.174 838.459 314.667 838.815 315.864C839.179 317.053 839.69 317.947 840.349 318.545C841.009 319.136 841.781 319.432 842.668 319.432ZM864.506 323.318C863.309 323.311 862.153 323.11 861.04 322.716C859.934 322.322 858.941 321.682 858.062 320.795C857.184 319.909 856.487 318.735 855.972 317.273C855.464 315.811 855.21 314.015 855.21 311.886C855.218 309.932 855.441 308.186 855.881 306.648C856.328 305.102 856.964 303.792 857.79 302.716C858.623 301.64 859.619 300.822 860.778 300.261C861.938 299.693 863.237 299.409 864.676 299.409C866.229 299.409 867.6 299.712 868.79 300.318C869.979 300.917 870.934 301.731 871.653 302.761C872.381 303.792 872.82 304.947 872.972 306.227H868.119C867.93 305.417 867.532 304.78 866.926 304.318C866.32 303.856 865.57 303.625 864.676 303.625C863.161 303.625 862.009 304.284 861.222 305.602C860.441 306.92 860.044 308.712 860.028 310.977H860.188C860.536 310.288 861.006 309.701 861.597 309.216C862.195 308.723 862.873 308.348 863.631 308.091C864.396 307.826 865.203 307.693 866.051 307.693C867.43 307.693 868.657 308.019 869.733 308.67C870.809 309.314 871.657 310.201 872.278 311.33C872.9 312.458 873.21 313.75 873.21 315.205C873.21 316.78 872.843 318.182 872.108 319.409C871.381 320.636 870.362 321.598 869.051 322.295C867.748 322.985 866.233 323.326 864.506 323.318ZM864.483 319.455C865.241 319.455 865.919 319.273 866.517 318.909C867.116 318.545 867.585 318.053 867.926 317.432C868.267 316.811 868.438 316.114 868.438 315.341C868.438 314.568 868.267 313.875 867.926 313.261C867.593 312.648 867.131 312.159 866.54 311.795C865.949 311.432 865.275 311.25 864.517 311.25C863.949 311.25 863.422 311.356 862.938 311.568C862.46 311.78 862.04 312.076 861.676 312.455C861.32 312.833 861.04 313.273 860.835 313.773C860.631 314.265 860.528 314.792 860.528 315.352C860.528 316.102 860.699 316.788 861.04 317.409C861.388 318.03 861.858 318.527 862.449 318.898C863.047 319.269 863.725 319.455 864.483 319.455ZM891.256 299.136L892.733 302.295C892.241 302.705 891.695 303.008 891.097 303.205C890.498 303.394 889.782 303.519 888.949 303.58C888.123 303.64 887.116 303.682 885.926 303.705C884.578 303.72 883.479 303.936 882.631 304.352C881.782 304.769 881.138 305.424 880.699 306.318C880.259 307.205 879.972 308.364 879.835 309.795H880.006C880.528 308.727 881.263 307.902 882.21 307.318C883.165 306.735 884.343 306.443 885.744 306.443C887.229 306.443 888.528 306.769 889.642 307.42C890.763 308.072 891.634 309.008 892.256 310.227C892.877 311.447 893.188 312.909 893.188 314.614C893.188 316.386 892.839 317.928 892.142 319.239C891.453 320.542 890.472 321.553 889.199 322.273C887.926 322.985 886.411 323.341 884.653 323.341C882.888 323.341 881.366 322.97 880.085 322.227C878.813 321.485 877.828 320.39 877.131 318.943C876.441 317.496 876.097 315.716 876.097 313.602V312.17C876.097 307.966 876.915 304.848 878.551 302.818C880.188 300.788 882.593 299.758 885.767 299.727C886.631 299.712 887.411 299.708 888.108 299.716C888.805 299.723 889.415 299.689 889.938 299.614C890.468 299.538 890.907 299.379 891.256 299.136ZM884.676 319.591C885.419 319.591 886.055 319.398 886.585 319.011C887.123 318.625 887.536 318.072 887.824 317.352C888.119 316.633 888.267 315.773 888.267 314.773C888.267 313.78 888.119 312.939 887.824 312.25C887.536 311.553 887.123 311.023 886.585 310.659C886.047 310.295 885.403 310.114 884.653 310.114C884.093 310.114 883.589 310.216 883.142 310.42C882.695 310.625 882.313 310.928 881.994 311.33C881.684 311.723 881.441 312.212 881.267 312.795C881.1 313.371 881.017 314.03 881.017 314.773C881.017 316.265 881.339 317.443 881.983 318.307C882.634 319.163 883.532 319.591 884.676 319.591Z" fill="#7E7E7E"/>
<path id="105&#208;&#177;" d="M828.011 194.727V218H823.091V199.398H822.955L817.625 202.739V198.375L823.386 194.727H828.011ZM842.668 218.511C840.713 218.504 839.031 218.023 837.622 217.068C836.221 216.114 835.141 214.731 834.384 212.92C833.634 211.11 833.262 208.932 833.27 206.386C833.27 203.848 833.645 201.686 834.395 199.898C835.152 198.11 836.232 196.75 837.634 195.818C839.043 194.879 840.721 194.409 842.668 194.409C844.615 194.409 846.289 194.879 847.69 195.818C849.099 196.758 850.183 198.121 850.94 199.909C851.698 201.689 852.073 203.848 852.065 206.386C852.065 208.939 851.687 211.121 850.929 212.932C850.179 214.742 849.103 216.125 847.702 217.08C846.3 218.034 844.622 218.511 842.668 218.511ZM842.668 214.432C844.001 214.432 845.065 213.761 845.861 212.42C846.656 211.08 847.05 209.068 847.043 206.386C847.043 204.621 846.861 203.152 846.497 201.977C846.141 200.803 845.634 199.92 844.974 199.33C844.323 198.739 843.554 198.443 842.668 198.443C841.342 198.443 840.281 199.106 839.486 200.432C838.69 201.758 838.289 203.742 838.281 206.386C838.281 208.174 838.459 209.667 838.815 210.864C839.179 212.053 839.69 212.947 840.349 213.545C841.009 214.136 841.781 214.432 842.668 214.432ZM864.074 218.318C862.468 218.318 861.036 218.023 859.778 217.432C858.528 216.841 857.536 216.027 856.801 214.989C856.066 213.951 855.684 212.761 855.653 211.42H860.426C860.479 212.322 860.858 213.053 861.562 213.614C862.267 214.174 863.104 214.455 864.074 214.455C864.847 214.455 865.528 214.284 866.119 213.943C866.718 213.595 867.184 213.114 867.517 212.5C867.858 211.879 868.028 211.167 868.028 210.364C868.028 209.545 867.854 208.826 867.506 208.205C867.165 207.583 866.691 207.098 866.085 206.75C865.479 206.402 864.786 206.223 864.006 206.216C863.324 206.216 862.661 206.356 862.017 206.636C861.381 206.917 860.884 207.299 860.528 207.784L856.153 207L857.256 194.727H871.483V198.75H861.312L860.71 204.58H860.847C861.256 204.004 861.873 203.527 862.699 203.148C863.525 202.769 864.449 202.58 865.472 202.58C866.873 202.58 868.123 202.909 869.222 203.568C870.32 204.227 871.188 205.133 871.824 206.284C872.46 207.428 872.775 208.746 872.767 210.239C872.775 211.807 872.411 213.201 871.676 214.42C870.949 215.633 869.93 216.587 868.619 217.284C867.316 217.973 865.801 218.318 864.074 218.318ZM890.756 194.136L892.233 197.295C891.741 197.705 891.195 198.008 890.597 198.205C889.998 198.394 889.282 198.519 888.449 198.58C887.623 198.64 886.616 198.682 885.426 198.705C884.078 198.72 882.979 198.936 882.131 199.352C881.282 199.769 880.638 200.424 880.199 201.318C879.759 202.205 879.472 203.364 879.335 204.795H879.506C880.028 203.727 880.763 202.902 881.71 202.318C882.665 201.735 883.843 201.443 885.244 201.443C886.729 201.443 888.028 201.769 889.142 202.42C890.263 203.072 891.134 204.008 891.756 205.227C892.377 206.447 892.688 207.909 892.688 209.614C892.688 211.386 892.339 212.928 891.642 214.239C890.953 215.542 889.972 216.553 888.699 217.273C887.426 217.985 885.911 218.341 884.153 218.341C882.388 218.341 880.866 217.97 879.585 217.227C878.313 216.485 877.328 215.39 876.631 213.943C875.941 212.496 875.597 210.716 875.597 208.602V207.17C875.597 202.966 876.415 199.848 878.051 197.818C879.688 195.788 882.093 194.758 885.267 194.727C886.131 194.712 886.911 194.708 887.608 194.716C888.305 194.723 888.915 194.689 889.438 194.614C889.968 194.538 890.407 194.379 890.756 194.136ZM884.176 214.591C884.919 214.591 885.555 214.398 886.085 214.011C886.623 213.625 887.036 213.072 887.324 212.352C887.619 211.633 887.767 210.773 887.767 209.773C887.767 208.78 887.619 207.939 887.324 207.25C887.036 206.553 886.623 206.023 886.085 205.659C885.547 205.295 884.903 205.114 884.153 205.114C883.593 205.114 883.089 205.216 882.642 205.42C882.195 205.625 881.813 205.928 881.494 206.33C881.184 206.723 880.941 207.212 880.767 207.795C880.6 208.371 880.517 209.03 880.517 209.773C880.517 211.265 880.839 212.443 881.483 213.307C882.134 214.163 883.032 214.591 884.176 214.591Z" fill="#7E7E7E"/>
<path id="1052&#208;&#177;" d="M834.009 97.5455V115H830.318V101.048H830.216L826.219 103.554V100.281L830.54 97.5455H834.009ZM845.001 115.384C843.535 115.378 842.273 115.017 841.217 114.301C840.165 113.585 839.356 112.548 838.788 111.19C838.225 109.832 837.947 108.199 837.952 106.29C837.952 104.386 838.234 102.764 838.796 101.423C839.364 100.082 840.174 99.0625 841.225 98.3636C842.282 97.6591 843.54 97.3068 845.001 97.3068C846.461 97.3068 847.717 97.6591 848.768 98.3636C849.825 99.0682 850.637 100.091 851.205 101.432C851.773 102.767 852.055 104.386 852.049 106.29C852.049 108.205 851.765 109.841 851.197 111.199C850.634 112.557 849.827 113.594 848.776 114.31C847.725 115.026 846.467 115.384 845.001 115.384ZM845.001 112.324C846.001 112.324 846.799 111.821 847.396 110.815C847.992 109.81 848.288 108.301 848.282 106.29C848.282 104.966 848.146 103.864 847.873 102.983C847.606 102.102 847.225 101.44 846.731 100.997C846.242 100.554 845.665 100.332 845.001 100.332C844.006 100.332 843.211 100.83 842.614 101.824C842.018 102.818 841.717 104.307 841.711 106.29C841.711 107.631 841.844 108.75 842.112 109.648C842.384 110.54 842.768 111.21 843.262 111.659C843.756 112.102 844.336 112.324 845.001 112.324ZM861.055 115.239C859.851 115.239 858.777 115.017 857.834 114.574C856.896 114.131 856.152 113.52 855.601 112.741C855.05 111.963 854.763 111.071 854.74 110.065H858.32C858.359 110.741 858.643 111.29 859.172 111.71C859.7 112.131 860.328 112.341 861.055 112.341C861.635 112.341 862.146 112.213 862.589 111.957C863.038 111.696 863.388 111.335 863.638 110.875C863.893 110.409 864.021 109.875 864.021 109.273C864.021 108.659 863.891 108.119 863.629 107.653C863.374 107.187 863.018 106.824 862.564 106.562C862.109 106.301 861.589 106.168 861.004 106.162C860.493 106.162 859.996 106.267 859.513 106.477C859.036 106.687 858.663 106.974 858.396 107.338L855.115 106.75L855.942 97.5455H866.612V100.562H858.984L858.533 104.935H858.635C858.942 104.503 859.405 104.145 860.024 103.861C860.643 103.577 861.337 103.435 862.104 103.435C863.155 103.435 864.092 103.682 864.916 104.176C865.74 104.67 866.391 105.349 866.868 106.213C867.345 107.071 867.581 108.06 867.575 109.179C867.581 110.355 867.308 111.401 866.757 112.315C866.212 113.224 865.447 113.94 864.464 114.463C863.487 114.98 862.351 115.239 861.055 115.239ZM870.149 115V112.341L876.362 106.588C876.891 106.077 877.334 105.616 877.692 105.207C878.055 104.798 878.331 104.398 878.518 104.006C878.706 103.608 878.8 103.179 878.8 102.719C878.8 102.207 878.683 101.767 878.45 101.398C878.217 101.023 877.899 100.736 877.496 100.537C877.092 100.332 876.635 100.23 876.124 100.23C875.589 100.23 875.124 100.338 874.726 100.554C874.328 100.77 874.021 101.08 873.805 101.483C873.589 101.886 873.482 102.366 873.482 102.923H869.979C869.979 101.781 870.237 100.79 870.754 99.9489C871.271 99.108 871.996 98.4574 872.928 97.9972C873.859 97.5369 874.933 97.3068 876.149 97.3068C877.399 97.3068 878.487 97.5284 879.413 97.9716C880.345 98.4091 881.07 99.017 881.587 99.7955C882.104 100.574 882.362 101.466 882.362 102.472C882.362 103.131 882.232 103.781 881.97 104.423C881.714 105.065 881.257 105.778 880.598 106.562C879.939 107.341 879.01 108.276 877.811 109.366L875.263 111.864V111.983H882.592V115H870.149ZM896.184 97.1023L897.292 99.4716C896.923 99.7784 896.513 100.006 896.065 100.153C895.616 100.295 895.079 100.389 894.454 100.435C893.835 100.48 893.079 100.511 892.187 100.528C891.175 100.54 890.352 100.702 889.715 101.014C889.079 101.327 888.596 101.818 888.266 102.489C887.937 103.153 887.721 104.023 887.619 105.097H887.746C888.138 104.295 888.69 103.676 889.4 103.239C890.116 102.801 890.999 102.582 892.05 102.582C893.164 102.582 894.138 102.827 894.974 103.315C895.815 103.804 896.468 104.506 896.934 105.42C897.4 106.335 897.633 107.432 897.633 108.71C897.633 110.04 897.371 111.196 896.849 112.179C896.332 113.156 895.596 113.915 894.641 114.455C893.687 114.989 892.55 115.256 891.232 115.256C889.908 115.256 888.766 114.977 887.806 114.42C886.852 113.864 886.113 113.043 885.59 111.957C885.073 110.872 884.815 109.537 884.815 107.952V106.878C884.815 103.724 885.428 101.386 886.656 99.8636C887.883 98.3409 889.687 97.5682 892.067 97.5455C892.715 97.5341 893.3 97.5312 893.823 97.5369C894.346 97.5426 894.803 97.517 895.195 97.4602C895.593 97.4034 895.923 97.2841 896.184 97.1023ZM891.249 112.443C891.806 112.443 892.283 112.298 892.681 112.009C893.085 111.719 893.394 111.304 893.61 110.764C893.832 110.224 893.942 109.58 893.942 108.83C893.942 108.085 893.832 107.455 893.61 106.938C893.394 106.415 893.085 106.017 892.681 105.744C892.278 105.472 891.795 105.335 891.232 105.335C890.812 105.335 890.434 105.412 890.099 105.565C889.763 105.719 889.477 105.946 889.238 106.247C889.005 106.543 888.823 106.909 888.692 107.347C888.567 107.778 888.505 108.273 888.505 108.83C888.505 109.949 888.746 110.832 889.229 111.48C889.718 112.122 890.391 112.443 891.249 112.443Z" fill="#7E7E7E"/>
<path id="104&#208;&#177;" d="M684.011 118.727V142H679.091V123.398H678.955L673.625 126.739V122.375L679.386 118.727H684.011ZM698.668 142.511C696.713 142.504 695.031 142.023 693.622 141.068C692.221 140.114 691.141 138.731 690.384 136.92C689.634 135.11 689.262 132.932 689.27 130.386C689.27 127.848 689.645 125.686 690.395 123.898C691.152 122.11 692.232 120.75 693.634 119.818C695.043 118.879 696.721 118.409 698.668 118.409C700.615 118.409 702.289 118.879 703.69 119.818C705.099 120.758 706.183 122.121 706.94 123.909C707.698 125.689 708.073 127.848 708.065 130.386C708.065 132.939 707.687 135.121 706.929 136.932C706.179 138.742 705.103 140.125 703.702 141.08C702.3 142.034 700.622 142.511 698.668 142.511ZM698.668 138.432C700.001 138.432 701.065 137.761 701.861 136.42C702.656 135.08 703.05 133.068 703.043 130.386C703.043 128.621 702.861 127.152 702.497 125.977C702.141 124.803 701.634 123.92 700.974 123.33C700.323 122.739 699.554 122.443 698.668 122.443C697.342 122.443 696.281 123.106 695.486 124.432C694.69 125.758 694.289 127.742 694.281 130.386C694.281 132.174 694.459 133.667 694.815 134.864C695.179 136.053 695.69 136.947 696.349 137.545C697.009 138.136 697.781 138.432 698.668 138.432ZM711.222 137.909V134.034L720.938 118.727H724.278V124.091H722.301L716.176 133.784V133.966H729.983V137.909H711.222ZM722.392 142V136.727L722.483 135.011V118.727H727.097V142H722.392ZM747.818 118.136L749.295 121.295C748.803 121.705 748.258 122.008 747.659 122.205C747.061 122.394 746.345 122.519 745.511 122.58C744.686 122.64 743.678 122.682 742.489 122.705C741.14 122.72 740.042 122.936 739.193 123.352C738.345 123.769 737.701 124.424 737.261 125.318C736.822 126.205 736.534 127.364 736.398 128.795H736.568C737.091 127.727 737.826 126.902 738.773 126.318C739.727 125.735 740.905 125.443 742.307 125.443C743.792 125.443 745.091 125.769 746.205 126.42C747.326 127.072 748.197 128.008 748.818 129.227C749.439 130.447 749.75 131.909 749.75 133.614C749.75 135.386 749.402 136.928 748.705 138.239C748.015 139.542 747.034 140.553 745.761 141.273C744.489 141.985 742.973 142.341 741.216 142.341C739.451 142.341 737.928 141.97 736.648 141.227C735.375 140.485 734.39 139.39 733.693 137.943C733.004 136.496 732.659 134.716 732.659 132.602V131.17C732.659 126.966 733.477 123.848 735.114 121.818C736.75 119.788 739.155 118.758 742.33 118.727C743.193 118.712 743.973 118.708 744.67 118.716C745.367 118.723 745.977 118.689 746.5 118.614C747.03 118.538 747.47 118.379 747.818 118.136ZM741.239 138.591C741.981 138.591 742.617 138.398 743.148 138.011C743.686 137.625 744.098 137.072 744.386 136.352C744.682 135.633 744.83 134.773 744.83 133.773C744.83 132.78 744.682 131.939 744.386 131.25C744.098 130.553 743.686 130.023 743.148 129.659C742.61 129.295 741.966 129.114 741.216 129.114C740.655 129.114 740.152 129.216 739.705 129.42C739.258 129.625 738.875 129.928 738.557 130.33C738.246 130.723 738.004 131.212 737.83 131.795C737.663 132.371 737.58 133.03 737.58 133.773C737.58 135.265 737.902 136.443 738.545 137.307C739.197 138.163 740.095 138.591 741.239 138.591Z" fill="#7E7E7E"/>
<path id="103&#208;&#177;" d="M685.011 271.727V295H680.091V276.398H679.955L674.625 279.739V275.375L680.386 271.727H685.011ZM699.668 295.511C697.713 295.504 696.031 295.023 694.622 294.068C693.221 293.114 692.141 291.731 691.384 289.92C690.634 288.11 690.262 285.932 690.27 283.386C690.27 280.848 690.645 278.686 691.395 276.898C692.152 275.11 693.232 273.75 694.634 272.818C696.043 271.879 697.721 271.409 699.668 271.409C701.615 271.409 703.289 271.879 704.69 272.818C706.099 273.758 707.183 275.121 707.94 276.909C708.698 278.689 709.073 280.848 709.065 283.386C709.065 285.939 708.687 288.121 707.929 289.932C707.179 291.742 706.103 293.125 704.702 294.08C703.3 295.034 701.622 295.511 699.668 295.511ZM699.668 291.432C701.001 291.432 702.065 290.761 702.861 289.42C703.656 288.08 704.05 286.068 704.043 283.386C704.043 281.621 703.861 280.152 703.497 278.977C703.141 277.803 702.634 276.92 701.974 276.33C701.323 275.739 700.554 275.443 699.668 275.443C698.342 275.443 697.281 276.106 696.486 277.432C695.69 278.758 695.289 280.742 695.281 283.386C695.281 285.174 695.459 286.667 695.815 287.864C696.179 289.053 696.69 289.947 697.349 290.545C698.009 291.136 698.781 291.432 699.668 291.432ZM721.176 295.318C719.479 295.318 717.968 295.027 716.642 294.443C715.324 293.852 714.282 293.042 713.517 292.011C712.759 290.973 712.369 289.777 712.347 288.42H717.301C717.331 288.989 717.517 289.489 717.858 289.92C718.206 290.345 718.669 290.674 719.244 290.909C719.82 291.144 720.468 291.261 721.188 291.261C721.938 291.261 722.6 291.129 723.176 290.864C723.752 290.598 724.203 290.231 724.528 289.761C724.854 289.292 725.017 288.75 725.017 288.136C725.017 287.515 724.843 286.966 724.494 286.489C724.153 286.004 723.661 285.625 723.017 285.352C722.381 285.08 721.623 284.943 720.744 284.943H718.574V281.33H720.744C721.487 281.33 722.142 281.201 722.71 280.943C723.286 280.686 723.733 280.33 724.051 279.875C724.369 279.413 724.528 278.875 724.528 278.261C724.528 277.678 724.388 277.167 724.108 276.727C723.835 276.28 723.449 275.932 722.949 275.682C722.456 275.432 721.881 275.307 721.222 275.307C720.555 275.307 719.945 275.428 719.392 275.67C718.839 275.905 718.396 276.242 718.062 276.682C717.729 277.121 717.551 277.636 717.528 278.227H712.812C712.835 276.886 713.218 275.705 713.96 274.682C714.703 273.659 715.703 272.86 716.96 272.284C718.225 271.701 719.653 271.409 721.244 271.409C722.85 271.409 724.256 271.701 725.46 272.284C726.665 272.867 727.6 273.655 728.267 274.648C728.941 275.633 729.275 276.739 729.267 277.966C729.275 279.269 728.869 280.356 728.051 281.227C727.241 282.098 726.184 282.652 724.881 282.886V283.068C726.593 283.288 727.896 283.883 728.79 284.852C729.691 285.814 730.138 287.019 730.131 288.466C730.138 289.792 729.756 290.97 728.983 292C728.218 293.03 727.161 293.841 725.812 294.432C724.464 295.023 722.919 295.318 721.176 295.318ZM748.224 271.136L749.702 274.295C749.209 274.705 748.664 275.008 748.065 275.205C747.467 275.394 746.751 275.519 745.918 275.58C745.092 275.64 744.084 275.682 742.895 275.705C741.546 275.72 740.448 275.936 739.599 276.352C738.751 276.769 738.107 277.424 737.668 278.318C737.228 279.205 736.94 280.364 736.804 281.795H736.974C737.497 280.727 738.232 279.902 739.179 279.318C740.134 278.735 741.312 278.443 742.713 278.443C744.198 278.443 745.497 278.769 746.611 279.42C747.732 280.072 748.603 281.008 749.224 282.227C749.846 283.447 750.156 284.909 750.156 286.614C750.156 288.386 749.808 289.928 749.111 291.239C748.421 292.542 747.44 293.553 746.168 294.273C744.895 294.985 743.38 295.341 741.622 295.341C739.857 295.341 738.334 294.97 737.054 294.227C735.781 293.485 734.796 292.39 734.099 290.943C733.41 289.496 733.065 287.716 733.065 285.602V284.17C733.065 279.966 733.884 276.848 735.52 274.818C737.156 272.788 739.562 271.758 742.736 271.727C743.599 271.712 744.38 271.708 745.077 271.716C745.774 271.723 746.384 271.689 746.906 271.614C747.437 271.538 747.876 271.379 748.224 271.136ZM741.645 291.591C742.387 291.591 743.024 291.398 743.554 291.011C744.092 290.625 744.505 290.072 744.793 289.352C745.088 288.633 745.236 287.773 745.236 286.773C745.236 285.78 745.088 284.939 744.793 284.25C744.505 283.553 744.092 283.023 743.554 282.659C743.016 282.295 742.372 282.114 741.622 282.114C741.062 282.114 740.558 282.216 740.111 282.42C739.664 282.625 739.281 282.928 738.963 283.33C738.652 283.723 738.41 284.212 738.236 284.795C738.069 285.371 737.986 286.03 737.986 286.773C737.986 288.265 738.308 289.443 738.952 290.307C739.603 291.163 740.501 291.591 741.645 291.591Z" fill="#7E7E7E"/>
<g id="Line 14" filter="url(#filter19_f_8_33)">
<line x1="850" y1="160" x2="868" y2="160" stroke="#4674FF" stroke-width="10"/>
</g>
<path id="&#208;&#179;&#208;&#176;&#209;&#128;&#208;&#180;&#208;&#181;&#209;&#128;&#208;&#190;&#208;&#177;" d="M819.943 395.273V397.176H816.318V404H813.966V395.273H819.943ZM823.595 404.165C823.038 404.165 822.542 404.068 822.107 403.875C821.671 403.678 821.326 403.388 821.072 403.006C820.822 402.619 820.697 402.138 820.697 401.562C820.697 401.078 820.786 400.67 820.964 400.341C821.143 400.011 821.385 399.746 821.692 399.545C821.999 399.345 822.347 399.193 822.737 399.091C823.131 398.989 823.544 398.917 823.976 398.875C824.483 398.822 824.893 398.773 825.203 398.727C825.514 398.678 825.739 398.606 825.879 398.511C826.019 398.417 826.089 398.277 826.089 398.091V398.057C826.089 397.697 825.976 397.419 825.749 397.222C825.525 397.025 825.207 396.926 824.794 396.926C824.358 396.926 824.012 397.023 823.754 397.216C823.497 397.405 823.326 397.644 823.243 397.932L821.004 397.75C821.118 397.22 821.341 396.761 821.675 396.375C822.008 395.985 822.438 395.686 822.964 395.477C823.495 395.265 824.108 395.159 824.805 395.159C825.29 395.159 825.754 395.216 826.197 395.33C826.644 395.443 827.04 395.619 827.385 395.858C827.733 396.097 828.008 396.403 828.209 396.778C828.41 397.15 828.51 397.595 828.51 398.114V404H826.214V402.79H826.146C826.006 403.062 825.819 403.303 825.584 403.511C825.349 403.716 825.067 403.877 824.737 403.994C824.408 404.108 824.027 404.165 823.595 404.165ZM824.288 402.494C824.644 402.494 824.959 402.424 825.232 402.284C825.504 402.14 825.718 401.947 825.874 401.705C826.029 401.462 826.107 401.187 826.107 400.881V399.955C826.031 400.004 825.927 400.049 825.794 400.091C825.665 400.129 825.519 400.165 825.357 400.199C825.194 400.229 825.031 400.258 824.868 400.284C824.705 400.307 824.557 400.328 824.425 400.347C824.141 400.388 823.893 400.455 823.68 400.545C823.468 400.636 823.304 400.759 823.186 400.915C823.069 401.066 823.01 401.256 823.01 401.483C823.01 401.812 823.129 402.064 823.368 402.239C823.61 402.409 823.917 402.494 824.288 402.494ZM830.388 407.273V395.273H832.774V396.739H832.882C832.988 396.504 833.142 396.265 833.342 396.023C833.547 395.777 833.812 395.572 834.138 395.409C834.467 395.242 834.876 395.159 835.365 395.159C836.001 395.159 836.589 395.326 837.126 395.659C837.664 395.989 838.094 396.487 838.416 397.153C838.738 397.816 838.899 398.648 838.899 399.648C838.899 400.621 838.742 401.443 838.428 402.114C838.117 402.78 837.693 403.286 837.155 403.631C836.621 403.972 836.022 404.142 835.359 404.142C834.89 404.142 834.49 404.064 834.161 403.909C833.835 403.754 833.568 403.559 833.359 403.324C833.151 403.085 832.992 402.845 832.882 402.602H832.808V407.273H830.388ZM832.757 399.636C832.757 400.155 832.829 400.608 832.973 400.994C833.117 401.381 833.325 401.682 833.598 401.898C833.871 402.11 834.202 402.216 834.592 402.216C834.986 402.216 835.32 402.108 835.592 401.892C835.865 401.672 836.071 401.369 836.212 400.983C836.356 400.593 836.428 400.144 836.428 399.636C836.428 399.133 836.357 398.689 836.217 398.307C836.077 397.924 835.871 397.625 835.598 397.409C835.325 397.193 834.99 397.085 834.592 397.085C834.198 397.085 833.865 397.189 833.592 397.398C833.323 397.606 833.117 397.902 832.973 398.284C832.829 398.667 832.757 399.117 832.757 399.636ZM839.831 406.557V402.08H840.501C840.695 401.958 840.85 401.765 840.967 401.5C841.089 401.235 841.187 400.922 841.263 400.562C841.342 400.203 841.403 399.814 841.445 399.398C841.49 398.977 841.53 398.553 841.564 398.125L841.791 395.273H848.484V402.08H849.837V406.557H847.53V404H842.195V406.557H839.831ZM842.911 402.08H846.2V397.136H843.848L843.757 398.125C843.693 399.057 843.6 399.848 843.479 400.5C843.357 401.148 843.168 401.674 842.911 402.08ZM855.224 404.17C854.327 404.17 853.554 403.989 852.906 403.625C852.262 403.258 851.766 402.739 851.418 402.068C851.069 401.394 850.895 400.597 850.895 399.676C850.895 398.778 851.069 397.991 851.418 397.312C851.766 396.634 852.257 396.106 852.889 395.727C853.526 395.348 854.272 395.159 855.128 395.159C855.704 395.159 856.24 395.252 856.736 395.438C857.236 395.619 857.671 395.894 858.043 396.261C858.418 396.629 858.709 397.091 858.918 397.648C859.126 398.201 859.23 398.848 859.23 399.591V400.256H851.861V398.756H856.952C856.952 398.407 856.876 398.098 856.724 397.83C856.573 397.561 856.363 397.35 856.094 397.199C855.829 397.044 855.52 396.966 855.168 396.966C854.8 396.966 854.474 397.051 854.19 397.222C853.91 397.388 853.69 397.614 853.531 397.898C853.372 398.178 853.291 398.491 853.287 398.835V400.261C853.287 400.693 853.366 401.066 853.526 401.381C853.688 401.695 853.918 401.938 854.213 402.108C854.509 402.278 854.859 402.364 855.264 402.364C855.533 402.364 855.779 402.326 856.003 402.25C856.226 402.174 856.418 402.061 856.577 401.909C856.736 401.758 856.857 401.572 856.94 401.352L859.179 401.5C859.065 402.038 858.832 402.508 858.48 402.909C858.132 403.307 857.681 403.617 857.128 403.841C856.579 404.061 855.944 404.17 855.224 404.17ZM860.81 407.273V395.273H863.196V396.739H863.304C863.41 396.504 863.563 396.265 863.764 396.023C863.969 395.777 864.234 395.572 864.56 395.409C864.889 395.242 865.298 395.159 865.787 395.159C866.423 395.159 867.01 395.326 867.548 395.659C868.086 395.989 868.516 396.487 868.838 397.153C869.16 397.816 869.321 398.648 869.321 399.648C869.321 400.621 869.164 401.443 868.849 402.114C868.539 402.78 868.115 403.286 867.577 403.631C867.043 403.972 866.444 404.142 865.781 404.142C865.312 404.142 864.912 404.064 864.582 403.909C864.257 403.754 863.99 403.559 863.781 403.324C863.573 403.085 863.414 402.845 863.304 402.602H863.23V407.273H860.81ZM863.179 399.636C863.179 400.155 863.251 400.608 863.395 400.994C863.539 401.381 863.747 401.682 864.02 401.898C864.293 402.11 864.624 402.216 865.014 402.216C865.408 402.216 865.741 402.108 866.014 401.892C866.287 401.672 866.493 401.369 866.634 400.983C866.777 400.593 866.849 400.144 866.849 399.636C866.849 399.133 866.779 398.689 866.639 398.307C866.499 397.924 866.293 397.625 866.02 397.409C865.747 397.193 865.412 397.085 865.014 397.085C864.62 397.085 864.287 397.189 864.014 397.398C863.745 397.606 863.539 397.902 863.395 398.284C863.251 398.667 863.179 399.117 863.179 399.636ZM874.878 404.17C873.995 404.17 873.232 403.983 872.588 403.608C871.948 403.229 871.454 402.703 871.105 402.028C870.757 401.35 870.582 400.564 870.582 399.67C870.582 398.769 870.757 397.981 871.105 397.307C871.454 396.629 871.948 396.102 872.588 395.727C873.232 395.348 873.995 395.159 874.878 395.159C875.76 395.159 876.522 395.348 877.162 395.727C877.806 396.102 878.302 396.629 878.651 397.307C878.999 397.981 879.173 398.769 879.173 399.67C879.173 400.564 878.999 401.35 878.651 402.028C878.302 402.703 877.806 403.229 877.162 403.608C876.522 403.983 875.76 404.17 874.878 404.17ZM874.889 402.295C875.291 402.295 875.626 402.182 875.895 401.955C876.164 401.723 876.366 401.409 876.503 401.011C876.643 400.614 876.713 400.161 876.713 399.653C876.713 399.146 876.643 398.693 876.503 398.295C876.366 397.898 876.164 397.583 875.895 397.352C875.626 397.121 875.291 397.006 874.889 397.006C874.484 397.006 874.143 397.121 873.866 397.352C873.594 397.583 873.387 397.898 873.247 398.295C873.111 398.693 873.043 399.146 873.043 399.653C873.043 400.161 873.111 400.614 873.247 401.011C873.387 401.409 873.594 401.723 873.866 401.955C874.143 402.182 874.484 402.295 874.889 402.295ZM888.003 392.068L888.741 393.648C888.495 393.852 888.223 394.004 887.923 394.102C887.624 394.197 887.266 394.259 886.849 394.29C886.437 394.32 885.933 394.341 885.338 394.352C884.664 394.36 884.115 394.468 883.69 394.676C883.266 394.884 882.944 395.212 882.724 395.659C882.505 396.102 882.361 396.682 882.293 397.398H882.378C882.639 396.864 883.007 396.451 883.48 396.159C883.957 395.867 884.546 395.722 885.247 395.722C885.99 395.722 886.639 395.884 887.196 396.21C887.757 396.536 888.192 397.004 888.503 397.614C888.813 398.223 888.969 398.955 888.969 399.807C888.969 400.693 888.795 401.464 888.446 402.119C888.101 402.771 887.611 403.277 886.974 403.636C886.338 403.992 885.58 404.17 884.702 404.17C883.819 404.17 883.058 403.985 882.418 403.614C881.781 403.242 881.289 402.695 880.94 401.972C880.596 401.248 880.423 400.358 880.423 399.301V398.585C880.423 396.483 880.832 394.924 881.651 393.909C882.469 392.894 883.671 392.379 885.259 392.364C885.69 392.356 886.08 392.354 886.429 392.358C886.777 392.362 887.082 392.345 887.344 392.307C887.609 392.269 887.829 392.189 888.003 392.068ZM884.713 402.295C885.084 402.295 885.402 402.199 885.668 402.006C885.937 401.812 886.143 401.536 886.287 401.176C886.435 400.816 886.509 400.386 886.509 399.886C886.509 399.39 886.435 398.97 886.287 398.625C886.143 398.277 885.937 398.011 885.668 397.83C885.399 397.648 885.077 397.557 884.702 397.557C884.421 397.557 884.17 397.608 883.946 397.71C883.723 397.812 883.531 397.964 883.372 398.165C883.217 398.362 883.096 398.606 883.009 398.898C882.925 399.186 882.884 399.515 882.884 399.886C882.884 400.633 883.045 401.222 883.366 401.653C883.692 402.081 884.141 402.295 884.713 402.295Z" fill="#7E7E7E"/>
<path id="&#208;&#179;&#208;&#176;&#209;&#128;&#208;&#180;&#208;&#181;&#209;&#128;&#208;&#190;&#208;&#177;_2" d="M815.943 444.273V446.176H812.318V453H809.966V444.273H815.943ZM819.595 453.165C819.038 453.165 818.542 453.068 818.107 452.875C817.671 452.678 817.326 452.388 817.072 452.006C816.822 451.619 816.697 451.138 816.697 450.562C816.697 450.078 816.786 449.67 816.964 449.341C817.143 449.011 817.385 448.746 817.692 448.545C817.999 448.345 818.347 448.193 818.737 448.091C819.131 447.989 819.544 447.917 819.976 447.875C820.483 447.822 820.893 447.773 821.203 447.727C821.514 447.678 821.739 447.606 821.879 447.511C822.019 447.417 822.089 447.277 822.089 447.091V447.057C822.089 446.697 821.976 446.419 821.749 446.222C821.525 446.025 821.207 445.926 820.794 445.926C820.358 445.926 820.012 446.023 819.754 446.216C819.497 446.405 819.326 446.644 819.243 446.932L817.004 446.75C817.118 446.22 817.341 445.761 817.675 445.375C818.008 444.985 818.438 444.686 818.964 444.477C819.495 444.265 820.108 444.159 820.805 444.159C821.29 444.159 821.754 444.216 822.197 444.33C822.644 444.443 823.04 444.619 823.385 444.858C823.733 445.097 824.008 445.403 824.209 445.778C824.41 446.15 824.51 446.595 824.51 447.114V453H822.214V451.79H822.146C822.006 452.062 821.819 452.303 821.584 452.511C821.349 452.716 821.067 452.877 820.737 452.994C820.408 453.108 820.027 453.165 819.595 453.165ZM820.288 451.494C820.644 451.494 820.959 451.424 821.232 451.284C821.504 451.14 821.718 450.947 821.874 450.705C822.029 450.462 822.107 450.187 822.107 449.881V448.955C822.031 449.004 821.927 449.049 821.794 449.091C821.665 449.129 821.519 449.165 821.357 449.199C821.194 449.229 821.031 449.258 820.868 449.284C820.705 449.307 820.557 449.328 820.425 449.347C820.141 449.388 819.893 449.455 819.68 449.545C819.468 449.636 819.304 449.759 819.186 449.915C819.069 450.066 819.01 450.256 819.01 450.483C819.01 450.812 819.129 451.064 819.368 451.239C819.61 451.409 819.917 451.494 820.288 451.494ZM826.388 456.273V444.273H828.774V445.739H828.882C828.988 445.504 829.142 445.265 829.342 445.023C829.547 444.777 829.812 444.572 830.138 444.409C830.467 444.242 830.876 444.159 831.365 444.159C832.001 444.159 832.589 444.326 833.126 444.659C833.664 444.989 834.094 445.487 834.416 446.153C834.738 446.816 834.899 447.648 834.899 448.648C834.899 449.621 834.742 450.443 834.428 451.114C834.117 451.78 833.693 452.286 833.155 452.631C832.621 452.972 832.022 453.142 831.359 453.142C830.89 453.142 830.49 453.064 830.161 452.909C829.835 452.754 829.568 452.559 829.359 452.324C829.151 452.085 828.992 451.845 828.882 451.602H828.808V456.273H826.388ZM828.757 448.636C828.757 449.155 828.829 449.608 828.973 449.994C829.117 450.381 829.325 450.682 829.598 450.898C829.871 451.11 830.202 451.216 830.592 451.216C830.986 451.216 831.32 451.108 831.592 450.892C831.865 450.672 832.071 450.369 832.212 449.983C832.356 449.593 832.428 449.144 832.428 448.636C832.428 448.133 832.357 447.689 832.217 447.307C832.077 446.924 831.871 446.625 831.598 446.409C831.325 446.193 830.99 446.085 830.592 446.085C830.198 446.085 829.865 446.189 829.592 446.398C829.323 446.606 829.117 446.902 828.973 447.284C828.829 447.667 828.757 448.117 828.757 448.636ZM835.831 455.557V451.08H836.501C836.695 450.958 836.85 450.765 836.967 450.5C837.089 450.235 837.187 449.922 837.263 449.562C837.342 449.203 837.403 448.814 837.445 448.398C837.49 447.977 837.53 447.553 837.564 447.125L837.791 444.273H844.484V451.08H845.837V455.557H843.53V453H838.195V455.557H835.831ZM838.911 451.08H842.2V446.136H839.848L839.757 447.125C839.693 448.057 839.6 448.848 839.479 449.5C839.357 450.148 839.168 450.674 838.911 451.08ZM851.224 453.17C850.327 453.17 849.554 452.989 848.906 452.625C848.262 452.258 847.766 451.739 847.418 451.068C847.069 450.394 846.895 449.597 846.895 448.676C846.895 447.778 847.069 446.991 847.418 446.312C847.766 445.634 848.257 445.106 848.889 444.727C849.526 444.348 850.272 444.159 851.128 444.159C851.704 444.159 852.24 444.252 852.736 444.438C853.236 444.619 853.671 444.894 854.043 445.261C854.418 445.629 854.709 446.091 854.918 446.648C855.126 447.201 855.23 447.848 855.23 448.591V449.256H847.861V447.756H852.952C852.952 447.407 852.876 447.098 852.724 446.83C852.573 446.561 852.363 446.35 852.094 446.199C851.829 446.044 851.52 445.966 851.168 445.966C850.8 445.966 850.474 446.051 850.19 446.222C849.91 446.388 849.69 446.614 849.531 446.898C849.372 447.178 849.291 447.491 849.287 447.835V449.261C849.287 449.693 849.366 450.066 849.526 450.381C849.688 450.695 849.918 450.938 850.213 451.108C850.509 451.278 850.859 451.364 851.264 451.364C851.533 451.364 851.779 451.326 852.003 451.25C852.226 451.174 852.418 451.061 852.577 450.909C852.736 450.758 852.857 450.572 852.94 450.352L855.179 450.5C855.065 451.038 854.832 451.508 854.48 451.909C854.132 452.307 853.681 452.617 853.128 452.841C852.579 453.061 851.944 453.17 851.224 453.17ZM856.81 456.273V444.273H859.196V445.739H859.304C859.41 445.504 859.563 445.265 859.764 445.023C859.969 444.777 860.234 444.572 860.56 444.409C860.889 444.242 861.298 444.159 861.787 444.159C862.423 444.159 863.01 444.326 863.548 444.659C864.086 444.989 864.516 445.487 864.838 446.153C865.16 446.816 865.321 447.648 865.321 448.648C865.321 449.621 865.164 450.443 864.849 451.114C864.539 451.78 864.115 452.286 863.577 452.631C863.043 452.972 862.444 453.142 861.781 453.142C861.312 453.142 860.912 453.064 860.582 452.909C860.257 452.754 859.99 452.559 859.781 452.324C859.573 452.085 859.414 451.845 859.304 451.602H859.23V456.273H856.81ZM859.179 448.636C859.179 449.155 859.251 449.608 859.395 449.994C859.539 450.381 859.747 450.682 860.02 450.898C860.293 451.11 860.624 451.216 861.014 451.216C861.408 451.216 861.741 451.108 862.014 450.892C862.287 450.672 862.493 450.369 862.634 449.983C862.777 449.593 862.849 449.144 862.849 448.636C862.849 448.133 862.779 447.689 862.639 447.307C862.499 446.924 862.293 446.625 862.02 446.409C861.747 446.193 861.412 446.085 861.014 446.085C860.62 446.085 860.287 446.189 860.014 446.398C859.745 446.606 859.539 446.902 859.395 447.284C859.251 447.667 859.179 448.117 859.179 448.636ZM870.878 453.17C869.995 453.17 869.232 452.983 868.588 452.608C867.948 452.229 867.454 451.703 867.105 451.028C866.757 450.35 866.582 449.564 866.582 448.67C866.582 447.769 866.757 446.981 867.105 446.307C867.454 445.629 867.948 445.102 868.588 444.727C869.232 444.348 869.995 444.159 870.878 444.159C871.76 444.159 872.522 444.348 873.162 444.727C873.806 445.102 874.302 445.629 874.651 446.307C874.999 446.981 875.173 447.769 875.173 448.67C875.173 449.564 874.999 450.35 874.651 451.028C874.302 451.703 873.806 452.229 873.162 452.608C872.522 452.983 871.76 453.17 870.878 453.17ZM870.889 451.295C871.291 451.295 871.626 451.182 871.895 450.955C872.164 450.723 872.366 450.409 872.503 450.011C872.643 449.614 872.713 449.161 872.713 448.653C872.713 448.146 872.643 447.693 872.503 447.295C872.366 446.898 872.164 446.583 871.895 446.352C871.626 446.121 871.291 446.006 870.889 446.006C870.484 446.006 870.143 446.121 869.866 446.352C869.594 446.583 869.387 446.898 869.247 447.295C869.111 447.693 869.043 448.146 869.043 448.653C869.043 449.161 869.111 449.614 869.247 450.011C869.387 450.409 869.594 450.723 869.866 450.955C870.143 451.182 870.484 451.295 870.889 451.295ZM884.003 441.068L884.741 442.648C884.495 442.852 884.223 443.004 883.923 443.102C883.624 443.197 883.266 443.259 882.849 443.29C882.437 443.32 881.933 443.341 881.338 443.352C880.664 443.36 880.115 443.468 879.69 443.676C879.266 443.884 878.944 444.212 878.724 444.659C878.505 445.102 878.361 445.682 878.293 446.398H878.378C878.639 445.864 879.007 445.451 879.48 445.159C879.957 444.867 880.546 444.722 881.247 444.722C881.99 444.722 882.639 444.884 883.196 445.21C883.757 445.536 884.192 446.004 884.503 446.614C884.813 447.223 884.969 447.955 884.969 448.807C884.969 449.693 884.795 450.464 884.446 451.119C884.101 451.771 883.611 452.277 882.974 452.636C882.338 452.992 881.58 453.17 880.702 453.17C879.819 453.17 879.058 452.985 878.418 452.614C877.781 452.242 877.289 451.695 876.94 450.972C876.596 450.248 876.423 449.358 876.423 448.301V447.585C876.423 445.483 876.832 443.924 877.651 442.909C878.469 441.894 879.671 441.379 881.259 441.364C881.69 441.356 882.08 441.354 882.429 441.358C882.777 441.362 883.082 441.345 883.344 441.307C883.609 441.269 883.829 441.189 884.003 441.068ZM880.713 451.295C881.084 451.295 881.402 451.199 881.668 451.006C881.937 450.812 882.143 450.536 882.287 450.176C882.435 449.816 882.509 449.386 882.509 448.886C882.509 448.39 882.435 447.97 882.287 447.625C882.143 447.277 881.937 447.011 881.668 446.83C881.399 446.648 881.077 446.557 880.702 446.557C880.421 446.557 880.17 446.608 879.946 446.71C879.723 446.812 879.531 446.964 879.372 447.165C879.217 447.362 879.096 447.606 879.009 447.898C878.925 448.186 878.884 448.515 878.884 448.886C878.884 449.633 879.045 450.222 879.366 450.653C879.692 451.081 880.141 451.295 880.713 451.295Z" fill="#7E7E7E"/>
<path id="&#208;&#179;&#208;&#176;&#209;&#128;&#208;&#180;&#208;&#181;&#209;&#128;&#208;&#190;&#208;&#177;_3" d="M675.943 585.273V587.176H672.318V594H669.966V585.273H675.943ZM679.595 594.165C679.038 594.165 678.542 594.068 678.107 593.875C677.671 593.678 677.326 593.388 677.072 593.006C676.822 592.619 676.697 592.138 676.697 591.562C676.697 591.078 676.786 590.67 676.964 590.341C677.143 590.011 677.385 589.746 677.692 589.545C677.999 589.345 678.347 589.193 678.737 589.091C679.131 588.989 679.544 588.917 679.976 588.875C680.483 588.822 680.893 588.773 681.203 588.727C681.514 588.678 681.739 588.606 681.879 588.511C682.019 588.417 682.089 588.277 682.089 588.091V588.057C682.089 587.697 681.976 587.419 681.749 587.222C681.525 587.025 681.207 586.926 680.794 586.926C680.358 586.926 680.012 587.023 679.754 587.216C679.497 587.405 679.326 587.644 679.243 587.932L677.004 587.75C677.118 587.22 677.341 586.761 677.675 586.375C678.008 585.985 678.438 585.686 678.964 585.477C679.495 585.265 680.108 585.159 680.805 585.159C681.29 585.159 681.754 585.216 682.197 585.33C682.644 585.443 683.04 585.619 683.385 585.858C683.733 586.097 684.008 586.403 684.209 586.778C684.41 587.15 684.51 587.595 684.51 588.114V594H682.214V592.79H682.146C682.006 593.062 681.819 593.303 681.584 593.511C681.349 593.716 681.067 593.877 680.737 593.994C680.408 594.108 680.027 594.165 679.595 594.165ZM680.288 592.494C680.644 592.494 680.959 592.424 681.232 592.284C681.504 592.14 681.718 591.947 681.874 591.705C682.029 591.462 682.107 591.187 682.107 590.881V589.955C682.031 590.004 681.927 590.049 681.794 590.091C681.665 590.129 681.519 590.165 681.357 590.199C681.194 590.229 681.031 590.258 680.868 590.284C680.705 590.307 680.557 590.328 680.425 590.347C680.141 590.388 679.893 590.455 679.68 590.545C679.468 590.636 679.304 590.759 679.186 590.915C679.069 591.066 679.01 591.256 679.01 591.483C679.01 591.812 679.129 592.064 679.368 592.239C679.61 592.409 679.917 592.494 680.288 592.494ZM686.388 597.273V585.273H688.774V586.739H688.882C688.988 586.504 689.142 586.265 689.342 586.023C689.547 585.777 689.812 585.572 690.138 585.409C690.467 585.242 690.876 585.159 691.365 585.159C692.001 585.159 692.589 585.326 693.126 585.659C693.664 585.989 694.094 586.487 694.416 587.153C694.738 587.816 694.899 588.648 694.899 589.648C694.899 590.621 694.742 591.443 694.428 592.114C694.117 592.78 693.693 593.286 693.155 593.631C692.621 593.972 692.022 594.142 691.359 594.142C690.89 594.142 690.49 594.064 690.161 593.909C689.835 593.754 689.568 593.559 689.359 593.324C689.151 593.085 688.992 592.845 688.882 592.602H688.808V597.273H686.388ZM688.757 589.636C688.757 590.155 688.829 590.608 688.973 590.994C689.117 591.381 689.325 591.682 689.598 591.898C689.871 592.11 690.202 592.216 690.592 592.216C690.986 592.216 691.32 592.108 691.592 591.892C691.865 591.672 692.071 591.369 692.212 590.983C692.356 590.593 692.428 590.144 692.428 589.636C692.428 589.133 692.357 588.689 692.217 588.307C692.077 587.924 691.871 587.625 691.598 587.409C691.325 587.193 690.99 587.085 690.592 587.085C690.198 587.085 689.865 587.189 689.592 587.398C689.323 587.606 689.117 587.902 688.973 588.284C688.829 588.667 688.757 589.117 688.757 589.636ZM695.831 596.557V592.08H696.501C696.695 591.958 696.85 591.765 696.967 591.5C697.089 591.235 697.187 590.922 697.263 590.562C697.342 590.203 697.403 589.814 697.445 589.398C697.49 588.977 697.53 588.553 697.564 588.125L697.791 585.273H704.484V592.08H705.837V596.557H703.53V594H698.195V596.557H695.831ZM698.911 592.08H702.2V587.136H699.848L699.757 588.125C699.693 589.057 699.6 589.848 699.479 590.5C699.357 591.148 699.168 591.674 698.911 592.08ZM711.224 594.17C710.327 594.17 709.554 593.989 708.906 593.625C708.262 593.258 707.766 592.739 707.418 592.068C707.069 591.394 706.895 590.597 706.895 589.676C706.895 588.778 707.069 587.991 707.418 587.312C707.766 586.634 708.257 586.106 708.889 585.727C709.526 585.348 710.272 585.159 711.128 585.159C711.704 585.159 712.24 585.252 712.736 585.438C713.236 585.619 713.671 585.894 714.043 586.261C714.418 586.629 714.709 587.091 714.918 587.648C715.126 588.201 715.23 588.848 715.23 589.591V590.256H707.861V588.756H712.952C712.952 588.407 712.876 588.098 712.724 587.83C712.573 587.561 712.363 587.35 712.094 587.199C711.829 587.044 711.52 586.966 711.168 586.966C710.8 586.966 710.474 587.051 710.19 587.222C709.91 587.388 709.69 587.614 709.531 587.898C709.372 588.178 709.291 588.491 709.287 588.835V590.261C709.287 590.693 709.366 591.066 709.526 591.381C709.688 591.695 709.918 591.938 710.213 592.108C710.509 592.278 710.859 592.364 711.264 592.364C711.533 592.364 711.779 592.326 712.003 592.25C712.226 592.174 712.418 592.061 712.577 591.909C712.736 591.758 712.857 591.572 712.94 591.352L715.179 591.5C715.065 592.038 714.832 592.508 714.48 592.909C714.132 593.307 713.681 593.617 713.128 593.841C712.579 594.061 711.944 594.17 711.224 594.17ZM716.81 597.273V585.273H719.196V586.739H719.304C719.41 586.504 719.563 586.265 719.764 586.023C719.969 585.777 720.234 585.572 720.56 585.409C720.889 585.242 721.298 585.159 721.787 585.159C722.423 585.159 723.01 585.326 723.548 585.659C724.086 585.989 724.516 586.487 724.838 587.153C725.16 587.816 725.321 588.648 725.321 589.648C725.321 590.621 725.164 591.443 724.849 592.114C724.539 592.78 724.115 593.286 723.577 593.631C723.043 593.972 722.444 594.142 721.781 594.142C721.312 594.142 720.912 594.064 720.582 593.909C720.257 593.754 719.99 593.559 719.781 593.324C719.573 593.085 719.414 592.845 719.304 592.602H719.23V597.273H716.81ZM719.179 589.636C719.179 590.155 719.251 590.608 719.395 590.994C719.539 591.381 719.747 591.682 720.02 591.898C720.293 592.11 720.624 592.216 721.014 592.216C721.408 592.216 721.741 592.108 722.014 591.892C722.287 591.672 722.493 591.369 722.634 590.983C722.777 590.593 722.849 590.144 722.849 589.636C722.849 589.133 722.779 588.689 722.639 588.307C722.499 587.924 722.293 587.625 722.02 587.409C721.747 587.193 721.412 587.085 721.014 587.085C720.62 587.085 720.287 587.189 720.014 587.398C719.745 587.606 719.539 587.902 719.395 588.284C719.251 588.667 719.179 589.117 719.179 589.636ZM730.878 594.17C729.995 594.17 729.232 593.983 728.588 593.608C727.948 593.229 727.454 592.703 727.105 592.028C726.757 591.35 726.582 590.564 726.582 589.67C726.582 588.769 726.757 587.981 727.105 587.307C727.454 586.629 727.948 586.102 728.588 585.727C729.232 585.348 729.995 585.159 730.878 585.159C731.76 585.159 732.522 585.348 733.162 585.727C733.806 586.102 734.302 586.629 734.651 587.307C734.999 587.981 735.173 588.769 735.173 589.67C735.173 590.564 734.999 591.35 734.651 592.028C734.302 592.703 733.806 593.229 733.162 593.608C732.522 593.983 731.76 594.17 730.878 594.17ZM730.889 592.295C731.291 592.295 731.626 592.182 731.895 591.955C732.164 591.723 732.366 591.409 732.503 591.011C732.643 590.614 732.713 590.161 732.713 589.653C732.713 589.146 732.643 588.693 732.503 588.295C732.366 587.898 732.164 587.583 731.895 587.352C731.626 587.121 731.291 587.006 730.889 587.006C730.484 587.006 730.143 587.121 729.866 587.352C729.594 587.583 729.387 587.898 729.247 588.295C729.111 588.693 729.043 589.146 729.043 589.653C729.043 590.161 729.111 590.614 729.247 591.011C729.387 591.409 729.594 591.723 729.866 591.955C730.143 592.182 730.484 592.295 730.889 592.295ZM744.003 582.068L744.741 583.648C744.495 583.852 744.223 584.004 743.923 584.102C743.624 584.197 743.266 584.259 742.849 584.29C742.437 584.32 741.933 584.341 741.338 584.352C740.664 584.36 740.115 584.468 739.69 584.676C739.266 584.884 738.944 585.212 738.724 585.659C738.505 586.102 738.361 586.682 738.293 587.398H738.378C738.639 586.864 739.007 586.451 739.48 586.159C739.957 585.867 740.546 585.722 741.247 585.722C741.99 585.722 742.639 585.884 743.196 586.21C743.757 586.536 744.192 587.004 744.503 587.614C744.813 588.223 744.969 588.955 744.969 589.807C744.969 590.693 744.795 591.464 744.446 592.119C744.101 592.771 743.611 593.277 742.974 593.636C742.338 593.992 741.58 594.17 740.702 594.17C739.819 594.17 739.058 593.985 738.418 593.614C737.781 593.242 737.289 592.695 736.94 591.972C736.596 591.248 736.423 590.358 736.423 589.301V588.585C736.423 586.483 736.832 584.924 737.651 583.909C738.469 582.894 739.671 582.379 741.259 582.364C741.69 582.356 742.08 582.354 742.429 582.358C742.777 582.362 743.082 582.345 743.344 582.307C743.609 582.269 743.829 582.189 744.003 582.068ZM740.713 592.295C741.084 592.295 741.402 592.199 741.668 592.006C741.937 591.812 742.143 591.536 742.287 591.176C742.435 590.816 742.509 590.386 742.509 589.886C742.509 589.39 742.435 588.97 742.287 588.625C742.143 588.277 741.937 588.011 741.668 587.83C741.399 587.648 741.077 587.557 740.702 587.557C740.421 587.557 740.17 587.608 739.946 587.71C739.723 587.812 739.531 587.964 739.372 588.165C739.217 588.362 739.096 588.606 739.009 588.898C738.925 589.186 738.884 589.515 738.884 589.886C738.884 590.633 739.045 591.222 739.366 591.653C739.692 592.081 740.141 592.295 740.713 592.295Z" fill="#7E7E7E"/>
<path id="Vector" d="M686 441.875C686 440.847 686.5 439.862 687.391 439.135C688.282 438.408 689.49 438 690.75 438H719.25C720.51 438 721.718 438.408 722.609 439.135C723.5 439.862 724 440.847 724 441.875V457.375C724 458.403 723.5 459.388 722.609 460.115C721.718 460.842 720.51 461.25 719.25 461.25H690.75C689.49 461.25 688.282 460.842 687.391 460.115C686.5 459.388 686 458.403 686 457.375V441.875ZM713.707 445.537C715.327 445.537 716.412 446.448 716.526 447.682H719.25V447.469C719.124 445.169 716.818 443.594 713.688 443.594C709.878 443.594 707.708 445.628 707.708 448.924V450.371C707.708 453.665 709.857 455.66 713.688 455.66C716.809 455.66 719.115 454.126 719.25 451.903V451.683H716.526C716.412 452.874 715.346 453.717 713.707 453.717C711.714 453.717 710.576 452.516 710.576 450.371V448.933C710.576 446.779 711.736 445.537 713.707 445.537ZM699.01 447.331H699.115L701.537 455.438H703.926L707.375 443.814H704.568L702.62 452.252H702.487L700.179 443.814H697.946L695.638 452.252H695.512L693.548 443.814H690.75L694.198 455.438H696.585L699.01 447.331Z" fill="#7E7E7E"/>
<path id="Vector_2" d="M686 481.875C686 480.847 686.5 479.862 687.391 479.135C688.282 478.408 689.49 478 690.75 478H719.25C720.51 478 721.718 478.408 722.609 479.135C723.5 479.862 724 480.847 724 481.875V497.375C724 498.403 723.5 499.388 722.609 500.115C721.718 500.842 720.51 501.25 719.25 501.25H690.75C689.49 501.25 688.282 500.842 687.391 500.115C686.5 499.388 686 498.403 686 497.375V481.875ZM713.707 485.537C715.327 485.537 716.412 486.448 716.526 487.682H719.25V487.469C719.124 485.169 716.818 483.594 713.688 483.594C709.878 483.594 707.708 485.628 707.708 488.924V490.371C707.708 493.665 709.857 495.66 713.688 495.66C716.809 495.66 719.115 494.126 719.25 491.903V491.683H716.526C716.412 492.874 715.346 493.717 713.707 493.717C711.714 493.717 710.576 492.516 710.576 490.371V488.933C710.576 486.779 711.736 485.537 713.707 485.537ZM699.01 487.331H699.115L701.537 495.438H703.926L707.375 483.814H704.568L702.62 492.252H702.487L700.179 483.814H697.946L695.638 492.252H695.512L693.548 483.814H690.75L694.198 495.438H696.585L699.01 487.331Z" fill="#7E7E7E"/>
<g id="ladder 1">
<path id="Vector_3" d="M786.656 92.875C787.029 92.875 787.387 93.0265 787.651 93.296C787.914 93.5656 788.062 93.9313 788.062 94.3125V95.75H804.938V94.3125C804.938 93.9313 805.086 93.5656 805.349 93.296C805.613 93.0265 805.971 92.875 806.344 92.875C806.717 92.875 807.074 93.0265 807.338 93.296C807.602 93.5656 807.75 93.9313 807.75 94.3125V134.562C807.75 134.944 807.602 135.309 807.338 135.579C807.074 135.849 806.717 136 806.344 136C805.971 136 805.613 135.849 805.349 135.579C805.086 135.309 804.938 134.944 804.938 134.562V133.125H788.062V134.562C788.062 134.944 787.914 135.309 787.651 135.579C787.387 135.849 787.029 136 786.656 136C786.283 136 785.926 135.849 785.662 135.579C785.398 135.309 785.25 134.944 785.25 134.562V94.3125C785.25 93.9313 785.398 93.5656 785.662 93.296C785.926 93.0265 786.283 92.875 786.656 92.875ZM788.062 130.25H804.938V124.5H788.062V130.25ZM788.062 121.625H804.938V115.875H788.062V121.625ZM788.062 113H804.938V107.25H788.062V113ZM788.062 104.375H804.938V98.625H788.062V104.375Z" fill="#D9D9D9"/>
</g>
<g id="ladder 1_2">
<path id="Vector_4" d="M393.656 603.875C394.029 603.875 394.387 604.026 394.651 604.296C394.914 604.566 395.062 604.931 395.062 605.312V606.75H411.938V605.312C411.938 604.931 412.086 604.566 412.349 604.296C412.613 604.026 412.971 603.875 413.344 603.875C413.717 603.875 414.074 604.026 414.338 604.296C414.602 604.566 414.75 604.931 414.75 605.312V645.562C414.75 645.944 414.602 646.309 414.338 646.579C414.074 646.849 413.717 647 413.344 647C412.971 647 412.613 646.849 412.349 646.579C412.086 646.309 411.938 645.944 411.938 645.562V644.125H395.062V645.562C395.062 645.944 394.914 646.309 394.651 646.579C394.387 646.849 394.029 647 393.656 647C393.283 647 392.926 646.849 392.662 646.579C392.398 646.309 392.25 645.944 392.25 645.562V605.312C392.25 604.931 392.398 604.566 392.662 604.296C392.926 604.026 393.283 603.875 393.656 603.875ZM395.062 641.25H411.938V635.5H395.062V641.25ZM395.062 632.625H411.938V626.875H395.062V632.625ZM395.062 624H411.938V618.25H395.062V624ZM395.062 615.375H411.938V609.625H395.062V615.375Z" fill="#D9D9D9"/>
</g>
<g id="ladder 1_3" clip-path="url(#clip0_8_33)">
<path id="Vector_5" d="M686.875 421.344C686.875 420.971 687.026 420.613 687.296 420.349C687.566 420.086 687.931 419.938 688.312 419.938H689.75V403.062H688.312C687.931 403.062 687.566 402.914 687.296 402.651C687.026 402.387 686.875 402.029 686.875 401.656C686.875 401.283 687.026 400.926 687.296 400.662C687.566 400.398 687.931 400.25 688.312 400.25H728.562C728.944 400.25 729.309 400.398 729.579 400.662C729.849 400.926 730 401.283 730 401.656C730 402.029 729.849 402.387 729.579 402.651C729.309 402.914 728.944 403.062 728.562 403.062H727.125V419.938H728.562C728.944 419.938 729.309 420.086 729.579 420.349C729.849 420.613 730 420.971 730 421.344C730 421.717 729.849 422.074 729.579 422.338C729.309 422.602 728.944 422.75 728.562 422.75H688.312C687.931 422.75 687.566 422.602 687.296 422.338C687.026 422.074 686.875 421.717 686.875 421.344ZM724.25 419.938V403.062H718.5V419.938H724.25ZM715.625 419.938V403.062H709.875V419.938H715.625ZM707 419.938V403.062H701.25V419.938H707ZM698.375 419.938V403.062H692.625V419.938H698.375Z" fill="#D9D9D9"/>
</g>
</g>
<defs>
<filter id="filter0_f_8_33" x="264" y="174" width="574" height="411" filterUnits="userSpaceOnUse" color-interpolation-filters="sRGB">
<feFlood flood-opacity="0" result="BackgroundImageFix"/>
<feBlend mode="normal" in="SourceGraphic" in2="BackgroundImageFix" result="shape"/>
<feGaussianBlur stdDeviation="3" result="effect1_foregroundBlur_8_33"/>
</filter>
<filter id="filter1_d_8_33" x="43" y="497" width="344" height="182" filterUnits="userSpaceOnUse" color-interpolation-filters="sRGB">
<feFlood flood-opacity="0" result="BackgroundImageFix"/>
<feColorMatrix in="SourceAlpha" type="matrix" values="0 0 0 0 0 0 0 0 0 0 0 0 0 0 0 0 0 0 127 0" result="hardAlpha"/>
<feOffset dy="4"/>
<feGaussianBlur stdDeviation="2"/>
<feComposite in2="hardAlpha" operator="out"/>
<feColorMatrix type="matrix" values="0 0 0 0 0 0 0 0 0 0 0 0 0 0 0 0 0 0 0.25 0"/>
<feBlend mode="normal" in2="BackgroundImageFix" result="effect1_dropShadow_8_33"/>
<feBlend mode="normal" in="SourceGraphic" in2="effect1_dropShadow_8_33" result="shape"/>
</filter>
<filter id="filter2_d_8_33" x="273" y="527" width="54" height="76" filterUnits="userSpaceOnUse" color-interpolation-filters="sRGB">
<feFlood flood-opacity="0" result="BackgroundImageFix"/>
<feColorMatrix in="SourceAlpha" type="matrix" values="0 0 0 0 0 0 0 0 0 0 0 0 0 0 0 0 0 0 127 0" result="hardAlpha"/>
<feOffset dy="4"/>
<feGaussianBlur stdDeviation="2"/>
<feComposite in2="hardAlpha" operator="out"/>
<feColorMatrix type="matrix" values="0 0 0 0 0 0 0 0 0 0 0 0 0 0 0 0 0 0 0.25 0"/>
<feBlend mode="normal" in2="BackgroundImageFix" result="effect1_dropShadow_8_33"/>
<feBlend mode="normal" in="SourceGraphic" in2="effect1_dropShadow_8_33" result="shape"/>
</filter>
<filter id="filter3_d_8_33" x="321" y="527" width="66" height="76" filterUnits="userSpaceOnUse" color-interpolation-filters="sRGB">
<feFlood flood-opacity="0" result="BackgroundImageFix"/>
<feColorMatrix in="SourceAlpha" type="matrix" values="0 0 0 0 0 0 0 0 0 0 0 0 0 0 0 0 0 0 127 0" result="hardAlpha"/>
<feOffset dy="4"/>
<feGaussianBlur stdDeviation="2"/>
<feComposite in2="hardAlpha" operator="out"/>
<feColorMatrix type="matrix" values="0 0 0 0 0 0 0 0 0 0 0 0 0 0 0 0 0 0 0.25 0"/>
<feBlend mode="normal" in2="BackgroundImageFix" result="effect1_dropShadow_8_33"/>
<feBlend mode="normal" in="SourceGraphic" in2="effect1_dropShadow_8_33" result="shape"/>
</filter>
<filter id="filter4_d_8_33" x="422" y="574" width="121" height="105" filterUnits="userSpaceOnUse" color-interpolation-filters="sRGB">
<feFlood flood-opacity="0" result="BackgroundImageFix"/>
<feColorMatrix in="SourceAlpha" type="matrix" values="0 0 0 0 0 0 0 0 0 0 0 0 0 0 0 0 0 0 127 0" result="hardAlpha"/>
<feOffset dy="4"/>
<feGaussianBlur stdDeviation="2"/>
<feComposite in2="hardAlpha" operator="out"/>
<feColorMatrix type="matrix" values="0 0 0 0 0 0 0 0 0 0 0 0 0 0 0 0 0 0 0.25 0"/>
<feBlend mode="normal" in2="BackgroundImageFix" result="effect1_dropShadow_8_33"/>
<feBlend mode="normal" in="SourceGraphic" in2="effect1_dropShadow_8_33" result="shape"/>
</filter>
<filter id="filter5_d_8_33" x="537" y="574" width="133" height="105" filterUnits="userSpaceOnUse" color-interpolation-filters="sRGB">
<feFlood flood-opacity="0" result="BackgroundImageFix"/>
<feColorMatrix in="SourceAlpha" type="matrix" values="0 0 0 0 0 0 0 0 0 0 0 0 0 0 0 0 0 0 127 0" result="hardAlpha"/>
<feOffset dy="4"/>
<feGaussianBlur stdDeviation="2"/>
<feComposite in2="hardAlpha" operator="out"/>
<feColorMatrix type="matrix" values="0 0 0 0 0 0 0 0 0 0 0 0 0 0 0 0 0 0 0.25 0"/>
<feBlend mode="normal" in2="BackgroundImageFix" result="effect1_dropShadow_8_33"/>
<feBlend mode="normal" in="SourceGraphic" in2="effect1_dropShadow_8_33" result="shape"/>
</filter>
<filter id="filter6_d_8_33" x="664" y="566" width="91" height="97" filterUnits="userSpaceOnUse" color-interpolation-filters="sRGB">
<feFlood flood-opacity="0" result="BackgroundImageFix"/>
<feColorMatrix in="SourceAlpha" type="matrix" values="0 0 0 0 0 0 0 0 0 0 0 0 0 0 0 0 0 0 127 0" result="hardAlpha"/>
<feOffset dy="4"/>
<feGaussianBlur stdDeviation="2"/>
<feComposite in2="hardAlpha" operator="out"/>
<feColorMatrix type="matrix" values="0 0 0 0 0 0 0 0 0 0 0 0 0 0 0 0 0 0 0.25 0"/>
<feBlend mode="normal" in2="BackgroundImageFix" result="effect1_dropShadow_8_33"/>
<feBlend mode="normal" in="SourceGraphic" in2="effect1_dropShadow_8_33" result="shape"/>
</filter>
<filter id="filter7_d_8_33" x="843" y="469" width="55" height="51" filterUnits="userSpaceOnUse" color-interpolation-filters="sRGB">
<feFlood flood-opacity="0" result="BackgroundImageFix"/>
<feColorMatrix in="SourceAlpha" type="matrix" values="0 0 0 0 0 0 0 0 0 0 0 0 0 0 0 0 0 0 127 0" result="hardAlpha"/>
<feOffset dy="4"/>
<feGaussianBlur stdDeviation="2"/>
<feComposite in2="hardAlpha" operator="out"/>
<feColorMatrix type="matrix" values="0 0 0 0 0 0 0 0 0 0 0 0 0 0 0 0 0 0 0.25 0"/>
<feBlend mode="normal" in2="BackgroundImageFix" result="effect1_dropShadow_8_33"/>
<feBlend mode="normal" in="SourceGraphic" in2="effect1_dropShadow_8_33" result="shape"/>
</filter>
<filter id="filter8_d_8_33" x="796" y="425" width="102" height="95" filterUnits="userSpaceOnUse" color-interpolation-filters="sRGB">
<feFlood flood-opacity="0" result="BackgroundImageFix"/>
<feColorMatrix in="SourceAlpha" type="matrix" values="0 0 0 0 0 0 0 0 0 0 0 0 0 0 0 0 0 0 127 0" result="hardAlpha"/>
<feOffset dy="4"/>
<feGaussianBlur stdDeviation="2"/>
<feComposite in2="hardAlpha" operator="out"/>
<feColorMatrix type="matrix" values="0 0 0 0 0 0 0 0 0 0 0 0 0 0 0 0 0 0 0.25 0"/>
<feBlend mode="normal" in2="BackgroundImageFix" result="effect1_dropShadow_8_33"/>
<feBlend mode="normal" in="SourceGraphic" in2="effect1_dropShadow_8_33" result="shape"/>
</filter>
<filter id="filter9_d_8_33" x="663" y="428" width="83" height="49" filterUnits="userSpaceOnUse" color-interpolation-filters="sRGB">
<feFlood flood-opacity="0" result="BackgroundImageFix"/>
<feColorMatrix in="SourceAlpha" type="matrix" values="0 0 0 0 0 0 0 0 0 0 0 0 0 0 0 0 0 0 127 0" result="hardAlpha"/>
<feOffset dy="4"/>
<feGaussianBlur stdDeviation="2"/>
<feComposite in2="hardAlpha" operator="out"/>
<feColorMatrix type="matrix" values="0 0 0 0 0 0 0 0 0 0 0 0 0 0 0 0 0 0 0.25 0"/>
<feBlend mode="normal" in2="BackgroundImageFix" result="effect1_dropShadow_8_33"/>
<feBlend mode="normal" in="SourceGraphic" in2="effect1_dropShadow_8_33" result="shape"/>
</filter>
<filter id="filter10_d_8_33" x="663" y="471" width="83" height="47" filterUnits="userSpaceOnUse" color-interpolation-filters="sRGB">
<feFlood flood-opacity="0" result="BackgroundImageFix"/>
<feColorMatrix in="SourceAlpha" type="matrix" values="0 0 0 0 0 0 0 0 0 0 0 0 0 0 0 0 0 0 127 0" result="hardAlpha"/>
<feOffset dy="4"/>
<feGaussianBlur stdDeviation="2"/>
<feComposite in2="hardAlpha" operator="out"/>
<feColorMatrix type="matrix" values="0 0 0 0 0 0 0 0 0 0 0 0 0 0 0 0 0 0 0.25 0"/>
<feBlend mode="normal" in2="BackgroundImageFix" result="effect1_dropShadow_8_33"/>
<feBlend mode="normal" in="SourceGraphic" in2="effect1_dropShadow_8_33" result="shape"/>
</filter>
<filter id="filter11_d_8_33" x="740" y="446" width="31" height="42" filterUnits="userSpaceOnUse" color-interpolation-filters="sRGB">
<feFlood flood-opacity="0" result="BackgroundImageFix"/>
<feColorMatrix in="SourceAlpha" type="matrix" values="0 0 0 0 0 0 0 0 0 0 0 0 0 0 0 0 0 0 127 0" result="hardAlpha"/>
<feOffset dy="4"/>
<feGaussianBlur stdDeviation="2"/>
<feComposite in2="hardAlpha" operator="out"/>
<feColorMatrix type="matrix" values="0 0 0 0 0 0 0 0 0 0 0 0 0 0 0 0 0 0 0.25 0"/>
<feBlend mode="normal" in2="BackgroundImageFix" result="effect1_dropShadow_8_33"/>
<feBlend mode="normal" in="SourceGraphic" in2="effect1_dropShadow_8_33" result="shape"/>
</filter>
<filter id="filter12_d_8_33" x="796" y="380" width="114" height="51" filterUnits="userSpaceOnUse" color-interpolation-filters="sRGB">
<feFlood flood-opacity="0" result="BackgroundImageFix"/>
<feColorMatrix in="SourceAlpha" type="matrix" values="0 0 0 0 0 0 0 0 0 0 0 0 0 0 0 0 0 0 127 0" result="hardAlpha"/>
<feOffset dy="4"/>
<feGaussianBlur stdDeviation="2"/>
<feComposite in2="hardAlpha" operator="out"/>
<feColorMatrix type="matrix" values="0 0 0 0 0 0 0 0 0 0 0 0 0 0 0 0 0 0 0.25 0"/>
<feBlend mode="normal" in2="BackgroundImageFix" result="effect1_dropShadow_8_33"/>
<feBlend mode="normal" in="SourceGraphic" in2="effect1_dropShadow_8_33" result="shape"/>
</filter>
<filter id="filter13_d_8_33" x="796" y="247" width="114" height="139" filterUnits="userSpaceOnUse" color-interpolation-filters="sRGB">
<feFlood flood-opacity="0" result="BackgroundImageFix"/>
<feColorMatrix in="SourceAlpha" type="matrix" values="0 0 0 0 0 0 0 0 0 0 0 0 0 0 0 0 0 0 127 0" result="hardAlpha"/>
<feOffset dy="4"/>
<feGaussianBlur stdDeviation="2"/>
<feComposite in2="hardAlpha" operator="out"/>
<feColorMatrix type="matrix" values="0 0 0 0 0 0 0 0 0 0 0 0 0 0 0 0 0 0 0.25 0"/>
<feBlend mode="normal" in2="BackgroundImageFix" result="effect1_dropShadow_8_33"/>
<feBlend mode="normal" in="SourceGraphic" in2="effect1_dropShadow_8_33" result="shape"/>
</filter>
<filter id="filter14_d_8_33" x="796" y="161" width="114" height="92" filterUnits="userSpaceOnUse" color-interpolation-filters="sRGB">
<feFlood flood-opacity="0" result="BackgroundImageFix"/>
<feColorMatrix in="SourceAlpha" type="matrix" values="0 0 0 0 0 0 0 0 0 0 0 0 0 0 0 0 0 0 127 0" result="hardAlpha"/>
<feOffset dy="4"/>
<feGaussianBlur stdDeviation="2"/>
<feComposite in2="hardAlpha" operator="out"/>
<feColorMatrix type="matrix" values="0 0 0 0 0 0 0 0 0 0 0 0 0 0 0 0 0 0 0.25 0"/>
<feBlend mode="normal" in2="BackgroundImageFix" result="effect1_dropShadow_8_33"/>
<feBlend mode="normal" in="SourceGraphic" in2="effect1_dropShadow_8_33" result="shape"/>
</filter>
<filter id="filter15_d_8_33" x="819" y="56" width="84" height="112" filterUnits="userSpaceOnUse" color-interpolation-filters="sRGB">
<feFlood flood-opacity="0" result="BackgroundImageFix"/>
<feColorMatrix in="SourceAlpha" type="matrix" values="0 0 0 0 0 0 0 0 0 0 0 0 0 0 0 0 0 0 127 0" result="hardAlpha"/>
<feOffset dy="4"/>
<feGaussianBlur stdDeviation="2"/>
<feComposite in2="hardAlpha" operator="out"/>
<feColorMatrix type="matrix" values="0 0 0 0 0 0 0 0 0 0 0 0 0 0 0 0 0 0 0.25 0"/>
<feBlend mode="normal" in2="BackgroundImageFix" result="effect1_dropShadow_8_33"/>
<feBlend mode="normal" in="SourceGraphic" in2="effect1_dropShadow_8_33" result="shape"/>
</filter>
<filter id="filter16_d_8_33" x="655" y="56" width="116" height="161" filterUnits="userSpaceOnUse" color-interpolation-filters="sRGB">
<feFlood flood-opacity="0" result="BackgroundImageFix"/>
<feColorMatrix in="SourceAlpha" type="matrix" values="0 0 0 0 0 0 0 0 0 0 0 0 0 0 0 0 0 0 127 0" result="hardAlpha"/>
<feOffset dy="4"/>
<feGaussianBlur stdDeviation="2"/>
<feComposite in2="hardAlpha" operator="out"/>
<feColorMatrix type="matrix" values="0 0 0 0 0 0 0 0 0 0 0 0 0 0 0 0 0 0 0.25 0"/>
<feBlend mode="normal" in2="BackgroundImageFix" result="effect1_dropShadow_8_33"/>
<feBlend mode="normal" in="SourceGraphic" in2="effect1_dropShadow_8_33" result="shape"/>
</filter>
<filter id="filter17_d_8_33" x="660" y="211" width="111" height="154" filterUnits="userSpaceOnUse" color-interpolation-filters="sRGB">
<feFlood flood-opacity="0" result="BackgroundImageFix"/>
<feColorMatrix in="SourceAlpha" type="matrix" values="0 0 0 0 0 0 0 0 0 0 0 0 0 0 0 0 0 0 127 0" result="hardAlpha"/>
<feOffset dy="4"/>
<feGaussianBlur stdDeviation="2"/>
<feComposite in2="hardAlpha" operator="out"/>
<feColorMatrix type="matrix" values="0 0 0 0 0 0 0 0 0 0 0 0 0 0 0 0 0 0 0.25 0"/>
<feBlend mode="normal" in2="BackgroundImageFix" result="effect1_dropShadow_8_33"/>
<feBlend mode="normal" in="SourceGraphic" in2="effect1_dropShadow_8_33" result="shape"/>
</filter>
<filter id="filter18_d_8_33" x="660" y="359" width="111" height="39" filterUnits="userSpaceOnUse" color-interpolation-filters="sRGB">
<feFlood flood-opacity="0" result="BackgroundImageFix"/>
<feColorMatrix in="SourceAlpha" type="matrix" values="0 0 0 0 0 0 0 0 0 0 0 0 0 0 0 0 0 0 127 0" result="hardAlpha"/>
<feOffset dy="4"/>
<feGaussianBlur stdDeviation="2"/>
<feComposite in2="hardAlpha" operator="out"/>
<feColorMatrix type="matrix" values="0 0 0 0 0 0 0 0 0 0 0 0 0 0 0 0 0 0 0.25 0"/>
<feBlend mode="normal" in2="BackgroundImageFix" result="effect1_dropShadow_8_33"/>
<feBlend mode="normal" in="SourceGraphic" in2="effect1_dropShadow_8_33" result="shape"/>
</filter>
<filter id="filter19_f_8_33" x="844" y="149" width="30" height="22" filterUnits="userSpaceOnUse" color-interpolation-filters="sRGB">
<feFlood flood-opacity="0" result="BackgroundImageFix"/>
<feBlend mode="normal" in="SourceGraphic" in2="BackgroundImageFix" result="shape"/>
<feGaussianBlur stdDeviation="3" result="effect1_foregroundBlur_8_33"/>
</filter>
<clipPath id="clip0_8_33">
<rect width="45" height="46" fill="white" transform="matrix(0 -1 1 0 684 434)"/>
</clipPath>
</defs>
</svg>
