<svg width="1512" height="1109" viewBox="0 0 1512 1109" fill="none" xmlns="http://www.w3.org/2000/svg">
<rect width="1512" height="1109" fill="#1E1E1E"/>
<g id="Frame 1">
<rect width="1512" height="1109" fill="white"/>
<path id="Rectangle 18" d="M1026 160.347H1313.5V280H1328V602.5H1311.5V689L1387 713.5V804L1311.5 783.5C1159.36 801.516 1086.83 818.422 1029.5 887H141V666H964.5C989.168 682.859 1005.48 688.795 1036.5 689V602.5H1029.5V546H1034V345H1026V160.347Z" fill="#7E7E7E"/>
<g id="Group 1" filter="url(#filter0_f_0_1)">
<line id="Line 1" x1="307" y1="720" x2="307" y2="702" stroke="#4674FF" stroke-width="10"/>
<line id="Line 2" x1="336" y1="744" x2="354" y2="744" stroke="#4674FF" stroke-width="10"/>
<line id="Line 3" x1="460" y1="744" x2="478" y2="744" stroke="#4674FF" stroke-width="10"/>
<line id="Line 4" x1="581" y1="779" x2="599" y2="779" stroke="#4674FF" stroke-width="10"/>
<line id="Line 5" x1="762" y1="744" x2="780" y2="744" stroke="#4674FF" stroke-width="10"/>
<line id="Line 6" x1="903" y1="744" x2="921" y2="744" stroke="#4674FF" stroke-width="10"/>
<line id="Line 7" x1="1193" y1="639" x2="1193" y2="621" stroke="#4674FF" stroke-width="10"/>
<line id="Line 8" x1="1193" y1="583" x2="1193" y2="565" stroke="#4674FF" stroke-width="10"/>
<line id="Line 9" x1="1147" y1="537" x2="1147" y2="519" stroke="#4674FF" stroke-width="10"/>
<line id="Line 10" x1="1193" y1="421" x2="1193" y2="403" stroke="#4674FF" stroke-width="10"/>
<line id="Line 11" x1="1147" y1="391" x2="1147" y2="373" stroke="#4674FF" stroke-width="10"/>
<line id="Line 12" x1="1147" y1="329" x2="1147" y2="311" stroke="#4674FF" stroke-width="10"/>
<line id="Line 13" x1="1217" y1="274" x2="1217" y2="256" stroke="#4674FF" stroke-width="10"/>
</g>
<g id="206b" filter="url(#filter1_d_0_1)">
<rect x="146" y="673" width="161" height="206" fill="#D9D9D9"/>
</g>
<g id="205b" filter="url(#filter2_d_0_1)">
<rect x="309" y="744" width="134" height="135" fill="#D9D9D9"/>
</g>
<g id="204b" filter="url(#filter3_d_0_1)">
<rect x="445" y="744" width="132" height="135" fill="#D9D9D9"/>
</g>
<g id="203b" filter="url(#filter4_d_0_1)">
<rect x="579" y="779" width="124" height="100" fill="#D9D9D9"/>
</g>
<g id="wc-10b" filter="url(#filter5_d_0_1)">
<rect x="601" y="744" width="102" height="33" fill="#D9D9D9"/>
</g>
<g id="202b" filter="url(#filter6_d_0_1)">
<rect x="751" y="744" width="136" height="135" fill="#D9D9D9"/>
</g>
<g id="201b" filter="url(#filter7_d_0_1)">
<path d="M889 744H1043V863.5L1026.5 879H889V744Z" fill="#D9D9D9"/>
</g>
<g id="212b" filter="url(#filter8_d_0_1)">
<rect x="1193" y="598" width="114" height="94" fill="#D9D9D9"/>
</g>
<g id="wc-9b" filter="url(#filter9_d_0_1)">
<rect x="1041" y="601" width="88" height="42" fill="#D9D9D9"/>
</g>
<g id="wc-8b" filter="url(#filter10_d_0_1)">
<rect x="1041" y="645" width="88" height="47" fill="#D9D9D9"/>
</g>
<g id="Rectangle 11" filter="url(#filter11_d_0_1)">
<rect x="1131" y="621" width="28" height="39" fill="#D9D9D9"/>
</g>
<g id="211b" filter="url(#filter12_d_0_1)">
<rect x="1193" y="437" width="128" height="159" fill="#D9D9D9"/>
</g>
<g id="210&#208;&#177;" filter="url(#filter13_d_0_1)">
<rect x="1193" y="286" width="128" height="149" fill="#D9D9D9"/>
</g>
<g id="server" filter="url(#filter14_d_0_1)">
<rect x="1217" y="165" width="91" height="119" fill="#D9D9D9"/>
</g>
<g id="209b" filter="url(#filter15_d_0_1)">
<rect x="1031" y="165" width="116" height="176" fill="#D9D9D9"/>
</g>
<g id="208b" filter="url(#filter16_d_0_1)">
<rect x="1040" y="343" width="107" height="69" fill="#D9D9D9"/>
</g>
<g id="207b" filter="url(#filter17_d_0_1)">
<rect x="1040" y="414" width="107" height="138" fill="#D9D9D9"/>
</g>
<path id="206&#208;&#177;" d="M170.122 787V783.011L179.442 774.382C180.234 773.615 180.899 772.925 181.436 772.311C181.982 771.697 182.395 771.097 182.676 770.509C182.957 769.912 183.098 769.268 183.098 768.578C183.098 767.811 182.923 767.151 182.574 766.597C182.224 766.034 181.747 765.604 181.142 765.305C180.537 764.999 179.851 764.845 179.084 764.845C178.283 764.845 177.584 765.007 176.987 765.331C176.391 765.655 175.93 766.119 175.607 766.724C175.283 767.33 175.121 768.05 175.121 768.885H169.866C169.866 767.172 170.254 765.685 171.03 764.423C171.805 763.162 172.892 762.186 174.29 761.496C175.688 760.805 177.298 760.46 179.122 760.46C180.997 760.46 182.629 760.793 184.018 761.457C185.416 762.114 186.503 763.026 187.278 764.193C188.054 765.361 188.442 766.699 188.442 768.207C188.442 769.196 188.246 770.172 187.854 771.135C187.47 772.098 186.784 773.168 185.795 774.344C184.807 775.511 183.413 776.913 181.615 778.55L177.793 782.295V782.474H188.787V787H170.122ZM203.064 787.575C200.865 787.567 198.973 787.026 197.387 785.952C195.811 784.878 194.596 783.322 193.744 781.286C192.9 779.249 192.483 776.798 192.491 773.935C192.491 771.08 192.913 768.646 193.757 766.635C194.609 764.624 195.824 763.094 197.4 762.045C198.985 760.989 200.873 760.46 203.064 760.46C205.254 760.46 207.137 760.989 208.714 762.045C210.299 763.102 211.518 764.636 212.37 766.648C213.223 768.651 213.645 771.08 213.636 773.935C213.636 776.807 213.21 779.261 212.358 781.298C211.514 783.335 210.304 784.891 208.727 785.964C207.15 787.038 205.262 787.575 203.064 787.575ZM203.064 782.986C204.564 782.986 205.761 782.232 206.656 780.723C207.551 779.214 207.994 776.952 207.985 773.935C207.985 771.949 207.781 770.295 207.372 768.974C206.971 767.653 206.4 766.661 205.659 765.996C204.926 765.331 204.061 764.999 203.064 764.999C201.572 764.999 200.379 765.744 199.484 767.236C198.589 768.727 198.137 770.96 198.129 773.935C198.129 775.946 198.329 777.625 198.73 778.972C199.139 780.31 199.714 781.315 200.456 781.989C201.197 782.653 202.066 782.986 203.064 782.986ZM227.631 787.358C226.285 787.349 224.985 787.124 223.732 786.68C222.488 786.237 221.371 785.517 220.383 784.52C219.394 783.523 218.61 782.202 218.031 780.557C217.46 778.912 217.174 776.892 217.174 774.497C217.183 772.298 217.434 770.334 217.928 768.604C218.431 766.865 219.147 765.391 220.076 764.18C221.013 762.97 222.134 762.05 223.438 761.419C224.742 760.78 226.204 760.46 227.823 760.46C229.57 760.46 231.113 760.801 232.451 761.483C233.789 762.156 234.863 763.072 235.673 764.232C236.491 765.391 236.985 766.69 237.156 768.131H231.697C231.484 767.219 231.036 766.503 230.354 765.983C229.673 765.463 228.829 765.203 227.823 765.203C226.119 765.203 224.823 765.945 223.937 767.428C223.059 768.911 222.612 770.926 222.594 773.474H222.773C223.165 772.699 223.694 772.038 224.359 771.493C225.032 770.939 225.795 770.517 226.647 770.227C227.508 769.929 228.415 769.78 229.37 769.78C230.921 769.78 232.302 770.146 233.512 770.879C234.722 771.604 235.677 772.601 236.376 773.871C237.075 775.141 237.424 776.594 237.424 778.23C237.424 780.003 237.011 781.58 236.184 782.96C235.366 784.341 234.219 785.423 232.745 786.207C231.279 786.983 229.575 787.366 227.631 787.358ZM227.606 783.011C228.458 783.011 229.221 782.807 229.894 782.398C230.567 781.989 231.096 781.435 231.479 780.736C231.863 780.037 232.055 779.253 232.055 778.384C232.055 777.514 231.863 776.734 231.479 776.044C231.104 775.354 230.585 774.804 229.92 774.395C229.255 773.986 228.496 773.781 227.644 773.781C227.005 773.781 226.413 773.901 225.867 774.139C225.33 774.378 224.857 774.71 224.448 775.136C224.048 775.562 223.732 776.057 223.502 776.619C223.272 777.173 223.157 777.766 223.157 778.396C223.157 779.24 223.349 780.011 223.732 780.71C224.124 781.409 224.653 781.967 225.317 782.385C225.991 782.803 226.754 783.011 227.606 783.011ZM257.725 760.153L259.387 763.707C258.833 764.168 258.219 764.509 257.546 764.73C256.873 764.943 256.067 765.084 255.13 765.152C254.201 765.22 253.067 765.267 251.729 765.293C250.212 765.31 248.977 765.553 248.022 766.021C247.067 766.49 246.343 767.227 245.849 768.233C245.354 769.23 245.031 770.534 244.877 772.145H245.069C245.657 770.943 246.484 770.014 247.549 769.358C248.623 768.702 249.948 768.374 251.525 768.374C253.195 768.374 254.657 768.74 255.91 769.473C257.171 770.206 258.151 771.259 258.85 772.631C259.549 774.003 259.898 775.648 259.898 777.565C259.898 779.56 259.506 781.294 258.722 782.768C257.947 784.234 256.843 785.372 255.411 786.182C253.979 786.983 252.275 787.384 250.298 787.384C248.312 787.384 246.599 786.966 245.158 786.131C243.727 785.295 242.619 784.064 241.835 782.436C241.059 780.808 240.671 778.805 240.671 776.428V774.817C240.671 770.087 241.592 766.58 243.433 764.295C245.273 762.011 247.979 760.852 251.55 760.818C252.522 760.801 253.4 760.797 254.184 760.805C254.968 760.814 255.654 760.776 256.242 760.69C256.839 760.605 257.333 760.426 257.725 760.153ZM250.323 783.165C251.158 783.165 251.874 782.947 252.471 782.513C253.076 782.078 253.54 781.456 253.864 780.646C254.197 779.837 254.363 778.869 254.363 777.744C254.363 776.628 254.197 775.682 253.864 774.906C253.54 774.122 253.076 773.526 252.471 773.116C251.866 772.707 251.141 772.503 250.298 772.503C249.667 772.503 249.1 772.618 248.597 772.848C248.094 773.078 247.664 773.419 247.306 773.871C246.957 774.314 246.684 774.864 246.488 775.52C246.3 776.168 246.207 776.909 246.207 777.744C246.207 779.423 246.569 780.749 247.293 781.72C248.026 782.683 249.036 783.165 250.323 783.165Z" fill="#7E7E7E"/>
<path id="205&#208;&#177;" d="M333.122 824V820.011L342.442 811.382C343.234 810.615 343.899 809.925 344.436 809.311C344.982 808.697 345.395 808.097 345.676 807.509C345.957 806.912 346.098 806.268 346.098 805.578C346.098 804.811 345.923 804.151 345.574 803.597C345.224 803.034 344.747 802.604 344.142 802.305C343.537 801.999 342.851 801.845 342.084 801.845C341.283 801.845 340.584 802.007 339.987 802.331C339.391 802.655 338.93 803.119 338.607 803.724C338.283 804.33 338.121 805.05 338.121 805.885H332.866C332.866 804.172 333.254 802.685 334.03 801.423C334.805 800.162 335.892 799.186 337.29 798.496C338.688 797.805 340.298 797.46 342.122 797.46C343.997 797.46 345.629 797.793 347.018 798.457C348.416 799.114 349.503 800.026 350.278 801.193C351.054 802.361 351.442 803.699 351.442 805.207C351.442 806.196 351.246 807.172 350.854 808.135C350.47 809.098 349.784 810.168 348.795 811.344C347.807 812.511 346.413 813.913 344.615 815.55L340.793 819.295V819.474H351.787V824H333.122ZM366.064 824.575C363.865 824.567 361.973 824.026 360.387 822.952C358.811 821.878 357.596 820.322 356.744 818.286C355.9 816.249 355.483 813.798 355.491 810.935C355.491 808.08 355.913 805.646 356.757 803.635C357.609 801.624 358.824 800.094 360.4 799.045C361.985 797.989 363.873 797.46 366.064 797.46C368.254 797.46 370.137 797.989 371.714 799.045C373.299 800.102 374.518 801.636 375.37 803.648C376.223 805.651 376.645 808.08 376.636 810.935C376.636 813.807 376.21 816.261 375.358 818.298C374.514 820.335 373.304 821.891 371.727 822.964C370.15 824.038 368.262 824.575 366.064 824.575ZM366.064 819.986C367.564 819.986 368.761 819.232 369.656 817.723C370.551 816.214 370.994 813.952 370.985 810.935C370.985 808.949 370.781 807.295 370.372 805.974C369.971 804.653 369.4 803.661 368.659 802.996C367.926 802.331 367.061 801.999 366.064 801.999C364.572 801.999 363.379 802.744 362.484 804.236C361.589 805.727 361.137 807.96 361.129 810.935C361.129 812.946 361.329 814.625 361.73 815.972C362.139 817.31 362.714 818.315 363.456 818.989C364.197 819.653 365.066 819.986 366.064 819.986ZM390.146 824.358C388.339 824.358 386.728 824.026 385.313 823.361C383.907 822.696 382.79 821.78 381.964 820.612C381.137 819.445 380.707 818.107 380.673 816.598H386.042C386.102 817.612 386.528 818.435 387.32 819.065C388.113 819.696 389.055 820.011 390.146 820.011C391.015 820.011 391.782 819.82 392.447 819.436C393.12 819.044 393.644 818.503 394.019 817.812C394.403 817.114 394.594 816.312 394.594 815.409C394.594 814.489 394.398 813.679 394.006 812.98C393.623 812.281 393.09 811.736 392.408 811.344C391.727 810.952 390.947 810.751 390.069 810.743C389.302 810.743 388.556 810.901 387.832 811.216C387.116 811.531 386.558 811.962 386.157 812.507L381.235 811.625L382.475 797.818H398.481V802.344H387.039L386.362 808.902H386.515C386.975 808.254 387.67 807.717 388.599 807.291C389.528 806.865 390.567 806.652 391.718 806.652C393.295 806.652 394.701 807.023 395.937 807.764C397.173 808.506 398.148 809.524 398.864 810.82C399.58 812.107 399.934 813.589 399.925 815.268C399.934 817.033 399.525 818.601 398.698 819.973C397.88 821.337 396.734 822.411 395.259 823.195C393.793 823.97 392.089 824.358 390.146 824.358ZM420.163 797.153L421.825 800.707C421.271 801.168 420.657 801.509 419.984 801.73C419.31 801.943 418.505 802.084 417.567 802.152C416.638 802.22 415.505 802.267 414.167 802.293C412.65 802.31 411.414 802.553 410.46 803.021C409.505 803.49 408.781 804.227 408.286 805.233C407.792 806.23 407.468 807.534 407.315 809.145H407.506C408.094 807.943 408.921 807.014 409.987 806.358C411.06 805.702 412.386 805.374 413.962 805.374C415.633 805.374 417.094 805.74 418.347 806.473C419.609 807.206 420.589 808.259 421.288 809.631C421.987 811.003 422.336 812.648 422.336 814.565C422.336 816.56 421.944 818.294 421.16 819.768C420.384 821.234 419.281 822.372 417.849 823.182C416.417 823.983 414.712 824.384 412.735 824.384C410.749 824.384 409.036 823.966 407.596 823.131C406.164 822.295 405.056 821.064 404.272 819.436C403.496 817.808 403.109 815.805 403.109 813.428V811.817C403.109 807.087 404.029 803.58 405.87 801.295C407.711 799.011 410.417 797.852 413.988 797.818C414.96 797.801 415.837 797.797 416.621 797.805C417.406 797.814 418.092 797.776 418.68 797.69C419.276 797.605 419.771 797.426 420.163 797.153ZM412.761 820.165C413.596 820.165 414.312 819.947 414.908 819.513C415.513 819.078 415.978 818.456 416.302 817.646C416.634 816.837 416.8 815.869 416.8 814.744C416.8 813.628 416.634 812.682 416.302 811.906C415.978 811.122 415.513 810.526 414.908 810.116C414.303 809.707 413.579 809.503 412.735 809.503C412.104 809.503 411.538 809.618 411.035 809.848C410.532 810.078 410.102 810.419 409.744 810.871C409.394 811.314 409.121 811.864 408.925 812.52C408.738 813.168 408.644 813.909 408.644 814.744C408.644 816.423 409.006 817.749 409.731 818.72C410.464 819.683 411.474 820.165 412.761 820.165Z" fill="#7E7E7E"/>
<path id="204&#208;&#177;" d="M473.122 824V820.011L482.442 811.382C483.234 810.615 483.899 809.925 484.436 809.311C484.982 808.697 485.395 808.097 485.676 807.509C485.957 806.912 486.098 806.268 486.098 805.578C486.098 804.811 485.923 804.151 485.574 803.597C485.224 803.034 484.747 802.604 484.142 802.305C483.537 801.999 482.851 801.845 482.084 801.845C481.283 801.845 480.584 802.007 479.987 802.331C479.391 802.655 478.93 803.119 478.607 803.724C478.283 804.33 478.121 805.05 478.121 805.885H472.866C472.866 804.172 473.254 802.685 474.03 801.423C474.805 800.162 475.892 799.186 477.29 798.496C478.688 797.805 480.298 797.46 482.122 797.46C483.997 797.46 485.629 797.793 487.018 798.457C488.416 799.114 489.503 800.026 490.278 801.193C491.054 802.361 491.442 803.699 491.442 805.207C491.442 806.196 491.246 807.172 490.854 808.135C490.47 809.098 489.784 810.168 488.795 811.344C487.807 812.511 486.413 813.913 484.615 815.55L480.793 819.295V819.474H491.787V824H473.122ZM506.064 824.575C503.865 824.567 501.973 824.026 500.387 822.952C498.811 821.878 497.596 820.322 496.744 818.286C495.9 816.249 495.483 813.798 495.491 810.935C495.491 808.08 495.913 805.646 496.757 803.635C497.609 801.624 498.824 800.094 500.4 799.045C501.985 797.989 503.873 797.46 506.064 797.46C508.254 797.46 510.137 797.989 511.714 799.045C513.299 800.102 514.518 801.636 515.37 803.648C516.223 805.651 516.645 808.08 516.636 810.935C516.636 813.807 516.21 816.261 515.358 818.298C514.514 820.335 513.304 821.891 511.727 822.964C510.15 824.038 508.262 824.575 506.064 824.575ZM506.064 819.986C507.564 819.986 508.761 819.232 509.656 817.723C510.551 816.214 510.994 813.952 510.985 810.935C510.985 808.949 510.781 807.295 510.372 805.974C509.971 804.653 509.4 803.661 508.659 802.996C507.926 802.331 507.061 801.999 506.064 801.999C504.572 801.999 503.379 802.744 502.484 804.236C501.589 805.727 501.137 807.96 501.129 810.935C501.129 812.946 501.329 814.625 501.73 815.972C502.139 817.31 502.714 818.315 503.456 818.989C504.197 819.653 505.066 819.986 506.064 819.986ZM520.187 819.398V815.038L531.117 797.818H534.876V803.852H532.651L525.761 814.757V814.962H541.293V819.398H520.187ZM532.754 824V818.068L532.856 816.138V797.818H538.046V824H532.754ZM561.358 797.153L563.02 800.707C562.466 801.168 561.852 801.509 561.179 801.73C560.506 801.943 559.7 802.084 558.763 802.152C557.834 802.22 556.7 802.267 555.362 802.293C553.845 802.31 552.609 802.553 551.655 803.021C550.7 803.49 549.976 804.227 549.482 805.233C548.987 806.23 548.663 807.534 548.51 809.145H548.702C549.29 807.943 550.116 807.014 551.182 806.358C552.256 805.702 553.581 805.374 555.158 805.374C556.828 805.374 558.29 805.74 559.543 806.473C560.804 807.206 561.784 808.259 562.483 809.631C563.182 811.003 563.531 812.648 563.531 814.565C563.531 816.56 563.139 818.294 562.355 819.768C561.58 821.234 560.476 822.372 559.044 823.182C557.612 823.983 555.908 824.384 553.93 824.384C551.945 824.384 550.232 823.966 548.791 823.131C547.359 822.295 546.251 821.064 545.467 819.436C544.692 817.808 544.304 815.805 544.304 813.428V811.817C544.304 807.087 545.224 803.58 547.065 801.295C548.906 799.011 551.612 797.852 555.183 797.818C556.155 797.801 557.033 797.797 557.817 797.805C558.601 797.814 559.287 797.776 559.875 797.69C560.472 797.605 560.966 797.426 561.358 797.153ZM553.956 820.165C554.791 820.165 555.507 819.947 556.104 819.513C556.709 819.078 557.173 818.456 557.497 817.646C557.83 816.837 557.996 815.869 557.996 814.744C557.996 813.628 557.83 812.682 557.497 811.906C557.173 811.122 556.709 810.526 556.104 810.116C555.499 809.707 554.774 809.503 553.93 809.503C553.3 809.503 552.733 809.618 552.23 809.848C551.727 810.078 551.297 810.419 550.939 810.871C550.589 811.314 550.317 811.864 550.121 812.52C549.933 813.168 549.839 813.909 549.839 814.744C549.839 816.423 550.202 817.749 550.926 818.72C551.659 819.683 552.669 820.165 553.956 820.165Z" fill="#7E7E7E"/>
<path id="203&#208;&#177;" d="M597.122 845V841.011L606.442 832.382C607.234 831.615 607.899 830.925 608.436 830.311C608.982 829.697 609.395 829.097 609.676 828.509C609.957 827.912 610.098 827.268 610.098 826.578C610.098 825.811 609.923 825.151 609.574 824.597C609.224 824.034 608.747 823.604 608.142 823.305C607.537 822.999 606.851 822.845 606.084 822.845C605.283 822.845 604.584 823.007 603.987 823.331C603.391 823.655 602.93 824.119 602.607 824.724C602.283 825.33 602.121 826.05 602.121 826.885H596.866C596.866 825.172 597.254 823.685 598.03 822.423C598.805 821.162 599.892 820.186 601.29 819.496C602.688 818.805 604.298 818.46 606.122 818.46C607.997 818.46 609.629 818.793 611.018 819.457C612.416 820.114 613.503 821.026 614.278 822.193C615.054 823.361 615.442 824.699 615.442 826.207C615.442 827.196 615.246 828.172 614.854 829.135C614.47 830.098 613.784 831.168 612.795 832.344C611.807 833.511 610.413 834.913 608.615 836.55L604.793 840.295V840.474H615.787V845H597.122ZM630.064 845.575C627.865 845.567 625.973 845.026 624.387 843.952C622.811 842.878 621.596 841.322 620.744 839.286C619.9 837.249 619.483 834.798 619.491 831.935C619.491 829.08 619.913 826.646 620.757 824.635C621.609 822.624 622.824 821.094 624.4 820.045C625.985 818.989 627.873 818.46 630.064 818.46C632.254 818.46 634.137 818.989 635.714 820.045C637.299 821.102 638.518 822.636 639.37 824.648C640.223 826.651 640.645 829.08 640.636 831.935C640.636 834.807 640.21 837.261 639.358 839.298C638.514 841.335 637.304 842.891 635.727 843.964C634.15 845.038 632.262 845.575 630.064 845.575ZM630.064 840.986C631.564 840.986 632.761 840.232 633.656 838.723C634.551 837.214 634.994 834.952 634.985 831.935C634.985 829.949 634.781 828.295 634.372 826.974C633.971 825.653 633.4 824.661 632.659 823.996C631.926 823.331 631.061 822.999 630.064 822.999C628.572 822.999 627.379 823.744 626.484 825.236C625.589 826.727 625.137 828.96 625.129 831.935C625.129 833.946 625.329 835.625 625.73 836.972C626.139 838.31 626.714 839.315 627.456 839.989C628.197 840.653 629.066 840.986 630.064 840.986ZM654.261 845.358C652.352 845.358 650.651 845.03 649.16 844.374C647.677 843.709 646.505 842.797 645.644 841.638C644.792 840.47 644.353 839.124 644.327 837.598H649.901C649.935 838.237 650.144 838.8 650.528 839.286C650.92 839.763 651.44 840.134 652.087 840.398C652.735 840.662 653.464 840.794 654.273 840.794C655.117 840.794 655.863 840.645 656.511 840.347C657.158 840.048 657.665 839.635 658.032 839.107C658.398 838.578 658.582 837.969 658.582 837.278C658.582 836.58 658.386 835.962 657.994 835.425C657.61 834.879 657.056 834.453 656.332 834.146C655.616 833.839 654.763 833.686 653.775 833.686H651.333V829.621H653.775C654.61 829.621 655.347 829.476 655.987 829.186C656.634 828.896 657.137 828.496 657.495 827.984C657.853 827.464 658.032 826.859 658.032 826.169C658.032 825.513 657.874 824.938 657.559 824.443C657.252 823.94 656.817 823.548 656.255 823.267C655.701 822.986 655.053 822.845 654.312 822.845C653.562 822.845 652.876 822.982 652.254 823.254C651.631 823.518 651.133 823.898 650.758 824.392C650.383 824.886 650.183 825.466 650.157 826.131H644.852C644.877 824.622 645.308 823.293 646.143 822.142C646.978 820.991 648.103 820.092 649.518 819.445C650.941 818.788 652.548 818.46 654.337 818.46C656.144 818.46 657.725 818.788 659.08 819.445C660.435 820.101 661.488 820.987 662.238 822.104C662.996 823.212 663.371 824.456 663.363 825.837C663.371 827.303 662.915 828.526 661.995 829.506C661.083 830.486 659.894 831.108 658.428 831.372V831.577C660.354 831.824 661.82 832.493 662.826 833.584C663.84 834.666 664.343 836.021 664.335 837.649C664.343 839.141 663.913 840.466 663.043 841.625C662.183 842.784 660.994 843.696 659.477 844.361C657.96 845.026 656.221 845.358 654.261 845.358ZM684.69 818.153L686.352 821.707C685.798 822.168 685.184 822.509 684.511 822.73C683.838 822.943 683.032 823.084 682.095 823.152C681.166 823.22 680.032 823.267 678.694 823.293C677.177 823.31 675.941 823.553 674.987 824.021C674.032 824.49 673.308 825.227 672.814 826.233C672.319 827.23 671.995 828.534 671.842 830.145H672.034C672.622 828.943 673.449 828.014 674.514 827.358C675.588 826.702 676.913 826.374 678.49 826.374C680.16 826.374 681.622 826.74 682.875 827.473C684.136 828.206 685.116 829.259 685.815 830.631C686.514 832.003 686.863 833.648 686.863 835.565C686.863 837.56 686.471 839.294 685.687 840.768C684.912 842.234 683.808 843.372 682.376 844.182C680.944 844.983 679.24 845.384 677.262 845.384C675.277 845.384 673.564 844.966 672.123 844.131C670.691 843.295 669.583 842.064 668.799 840.436C668.024 838.808 667.636 836.805 667.636 834.428V832.817C667.636 828.087 668.556 824.58 670.397 822.295C672.238 820.011 674.944 818.852 678.515 818.818C679.487 818.801 680.365 818.797 681.149 818.805C681.933 818.814 682.619 818.776 683.207 818.69C683.804 818.605 684.298 818.426 684.69 818.153ZM677.288 841.165C678.123 841.165 678.839 840.947 679.436 840.513C680.041 840.078 680.505 839.456 680.829 838.646C681.162 837.837 681.328 836.869 681.328 835.744C681.328 834.628 681.162 833.682 680.829 832.906C680.505 832.122 680.041 831.526 679.436 831.116C678.831 830.707 678.106 830.503 677.262 830.503C676.632 830.503 676.065 830.618 675.562 830.848C675.059 831.078 674.629 831.419 674.271 831.871C673.922 832.314 673.649 832.864 673.453 833.52C673.265 834.168 673.172 834.909 673.172 835.744C673.172 837.423 673.534 838.749 674.258 839.72C674.991 840.683 676.001 841.165 677.288 841.165Z" fill="#7E7E7E"/>
<path id="202&#208;&#177;" d="M775.122 829V825.011L784.442 816.382C785.234 815.615 785.899 814.925 786.436 814.311C786.982 813.697 787.395 813.097 787.676 812.509C787.957 811.912 788.098 811.268 788.098 810.578C788.098 809.811 787.923 809.151 787.574 808.597C787.224 808.034 786.747 807.604 786.142 807.305C785.537 806.999 784.851 806.845 784.084 806.845C783.283 806.845 782.584 807.007 781.987 807.331C781.391 807.655 780.93 808.119 780.607 808.724C780.283 809.33 780.121 810.05 780.121 810.885H774.866C774.866 809.172 775.254 807.685 776.03 806.423C776.805 805.162 777.892 804.186 779.29 803.496C780.688 802.805 782.298 802.46 784.122 802.46C785.997 802.46 787.629 802.793 789.018 803.457C790.416 804.114 791.503 805.026 792.278 806.193C793.054 807.361 793.442 808.699 793.442 810.207C793.442 811.196 793.246 812.172 792.854 813.135C792.47 814.098 791.784 815.168 790.795 816.344C789.807 817.511 788.413 818.913 786.615 820.55L782.793 824.295V824.474H793.787V829H775.122ZM808.064 829.575C805.865 829.567 803.973 829.026 802.387 827.952C800.811 826.878 799.596 825.322 798.744 823.286C797.9 821.249 797.483 818.798 797.491 815.935C797.491 813.08 797.913 810.646 798.757 808.635C799.609 806.624 800.824 805.094 802.4 804.045C803.985 802.989 805.873 802.46 808.064 802.46C810.254 802.46 812.137 802.989 813.714 804.045C815.299 805.102 816.518 806.636 817.37 808.648C818.223 810.651 818.645 813.08 818.636 815.935C818.636 818.807 818.21 821.261 817.358 823.298C816.514 825.335 815.304 826.891 813.727 827.964C812.15 829.038 810.262 829.575 808.064 829.575ZM808.064 824.986C809.564 824.986 810.761 824.232 811.656 822.723C812.551 821.214 812.994 818.952 812.985 815.935C812.985 813.949 812.781 812.295 812.372 810.974C811.971 809.653 811.4 808.661 810.659 807.996C809.926 807.331 809.061 806.999 808.064 806.999C806.572 806.999 805.379 807.744 804.484 809.236C803.589 810.727 803.137 812.96 803.129 815.935C803.129 817.946 803.329 819.625 803.73 820.972C804.139 822.31 804.714 823.315 805.456 823.989C806.197 824.653 807.066 824.986 808.064 824.986ZM822.583 829V825.011L831.903 816.382C832.695 815.615 833.36 814.925 833.897 814.311C834.442 813.697 834.856 813.097 835.137 812.509C835.418 811.912 835.559 811.268 835.559 810.578C835.559 809.811 835.384 809.151 835.035 808.597C834.685 808.034 834.208 807.604 833.603 807.305C832.998 806.999 832.312 806.845 831.545 806.845C830.744 806.845 830.045 807.007 829.448 807.331C828.852 807.655 828.391 808.119 828.067 808.724C827.744 809.33 827.582 810.05 827.582 810.885H822.327C822.327 809.172 822.715 807.685 823.491 806.423C824.266 805.162 825.353 804.186 826.751 803.496C828.148 802.805 829.759 802.46 831.583 802.46C833.458 802.46 835.09 802.793 836.479 803.457C837.877 804.114 838.964 805.026 839.739 806.193C840.515 807.361 840.903 808.699 840.903 810.207C840.903 811.196 840.707 812.172 840.315 813.135C839.931 814.098 839.245 815.168 838.256 816.344C837.268 817.511 835.874 818.913 834.076 820.55L830.254 824.295V824.474H841.248V829H822.583ZM861.635 802.153L863.297 805.707C862.743 806.168 862.13 806.509 861.456 806.73C860.783 806.943 859.978 807.084 859.04 807.152C858.111 807.22 856.978 807.267 855.64 807.293C854.123 807.31 852.887 807.553 851.932 808.021C850.978 808.49 850.253 809.227 849.759 810.233C849.265 811.23 848.941 812.534 848.787 814.145H848.979C849.567 812.943 850.394 812.014 851.459 811.358C852.533 810.702 853.858 810.374 855.435 810.374C857.105 810.374 858.567 810.74 859.82 811.473C861.081 812.206 862.061 813.259 862.76 814.631C863.459 816.003 863.809 817.648 863.809 819.565C863.809 821.56 863.417 823.294 862.632 824.768C861.857 826.234 860.753 827.372 859.321 828.182C857.89 828.983 856.185 829.384 854.208 829.384C852.222 829.384 850.509 828.966 849.069 828.131C847.637 827.295 846.529 826.064 845.745 824.436C844.969 822.808 844.581 820.805 844.581 818.428V816.817C844.581 812.087 845.502 808.58 847.343 806.295C849.184 804.011 851.89 802.852 855.461 802.818C856.432 802.801 857.31 802.797 858.094 802.805C858.878 802.814 859.564 802.776 860.152 802.69C860.749 802.605 861.243 802.426 861.635 802.153ZM854.233 825.165C855.069 825.165 855.784 824.947 856.381 824.513C856.986 824.078 857.451 823.456 857.775 822.646C858.107 821.837 858.273 820.869 858.273 819.744C858.273 818.628 858.107 817.682 857.775 816.906C857.451 816.122 856.986 815.526 856.381 815.116C855.776 814.707 855.051 814.503 854.208 814.503C853.577 814.503 853.01 814.618 852.507 814.848C852.005 815.078 851.574 815.419 851.216 815.871C850.867 816.314 850.594 816.864 850.398 817.52C850.211 818.168 850.117 818.909 850.117 819.744C850.117 821.423 850.479 822.749 851.203 823.72C851.936 824.683 852.946 825.165 854.233 825.165Z" fill="#7E7E7E"/>
<path id="201&#208;&#177;" d="M909.122 831V827.011L918.442 818.382C919.234 817.615 919.899 816.925 920.436 816.311C920.982 815.697 921.395 815.097 921.676 814.509C921.957 813.912 922.098 813.268 922.098 812.578C922.098 811.811 921.923 811.151 921.574 810.597C921.224 810.034 920.747 809.604 920.142 809.305C919.537 808.999 918.851 808.845 918.084 808.845C917.283 808.845 916.584 809.007 915.987 809.331C915.391 809.655 914.93 810.119 914.607 810.724C914.283 811.33 914.121 812.05 914.121 812.885H908.866C908.866 811.172 909.254 809.685 910.03 808.423C910.805 807.162 911.892 806.186 913.29 805.496C914.688 804.805 916.298 804.46 918.122 804.46C919.997 804.46 921.629 804.793 923.018 805.457C924.416 806.114 925.503 807.026 926.278 808.193C927.054 809.361 927.442 810.699 927.442 812.207C927.442 813.196 927.246 814.172 926.854 815.135C926.47 816.098 925.784 817.168 924.795 818.344C923.807 819.511 922.413 820.913 920.615 822.55L916.793 826.295V826.474H927.787V831H909.122ZM942.064 831.575C939.865 831.567 937.973 831.026 936.387 829.952C934.811 828.878 933.596 827.322 932.744 825.286C931.9 823.249 931.483 820.798 931.491 817.935C931.491 815.08 931.913 812.646 932.757 810.635C933.609 808.624 934.824 807.094 936.4 806.045C937.985 804.989 939.873 804.46 942.064 804.46C944.254 804.46 946.137 804.989 947.714 806.045C949.299 807.102 950.518 808.636 951.37 810.648C952.223 812.651 952.645 815.08 952.636 817.935C952.636 820.807 952.21 823.261 951.358 825.298C950.514 827.335 949.304 828.891 947.727 829.964C946.15 831.038 944.262 831.575 942.064 831.575ZM942.064 826.986C943.564 826.986 944.761 826.232 945.656 824.723C946.551 823.214 946.994 820.952 946.985 817.935C946.985 815.949 946.781 814.295 946.372 812.974C945.971 811.653 945.4 810.661 944.659 809.996C943.926 809.331 943.061 808.999 942.064 808.999C940.572 808.999 939.379 809.744 938.484 811.236C937.589 812.727 937.137 814.96 937.129 817.935C937.129 819.946 937.329 821.625 937.73 822.972C938.139 824.31 938.714 825.315 939.456 825.989C940.197 826.653 941.066 826.986 942.064 826.986ZM967.974 804.818V831H962.438V810.072H962.285L956.289 813.831V808.922L962.771 804.818H967.974ZM990.573 804.153L992.235 807.707C991.681 808.168 991.067 808.509 990.394 808.73C989.721 808.943 988.915 809.084 987.978 809.152C987.049 809.22 985.915 809.267 984.577 809.293C983.06 809.31 981.824 809.553 980.87 810.021C979.915 810.49 979.191 811.227 978.696 812.233C978.202 813.23 977.878 814.534 977.725 816.145H977.917C978.505 814.943 979.331 814.014 980.397 813.358C981.471 812.702 982.796 812.374 984.373 812.374C986.043 812.374 987.505 812.74 988.757 813.473C990.019 814.206 990.999 815.259 991.698 816.631C992.397 818.003 992.746 819.648 992.746 821.565C992.746 823.56 992.354 825.294 991.57 826.768C990.794 828.234 989.691 829.372 988.259 830.182C986.827 830.983 985.123 831.384 983.145 831.384C981.159 831.384 979.446 830.966 978.006 830.131C976.574 829.295 975.466 828.064 974.682 826.436C973.907 824.808 973.519 822.805 973.519 820.428V818.817C973.519 814.087 974.439 810.58 976.28 808.295C978.121 806.011 980.827 804.852 984.398 804.818C985.37 804.801 986.248 804.797 987.032 804.805C987.816 804.814 988.502 804.776 989.09 804.69C989.686 804.605 990.181 804.426 990.573 804.153ZM983.171 827.165C984.006 827.165 984.722 826.947 985.319 826.513C985.924 826.078 986.388 825.456 986.712 824.646C987.044 823.837 987.211 822.869 987.211 821.744C987.211 820.628 987.044 819.682 986.712 818.906C986.388 818.122 985.924 817.526 985.319 817.116C984.713 816.707 983.989 816.503 983.145 816.503C982.515 816.503 981.948 816.618 981.445 816.848C980.942 817.078 980.512 817.419 980.154 817.871C979.804 818.314 979.532 818.864 979.336 819.52C979.148 820.168 979.054 820.909 979.054 821.744C979.054 823.423 979.417 824.749 980.141 825.72C980.874 826.683 981.884 827.165 983.171 827.165Z" fill="#7E7E7E"/>
<path id="212&#208;&#177;" d="M1210.12 660V656.011L1219.44 647.382C1220.23 646.615 1220.9 645.925 1221.44 645.311C1221.98 644.697 1222.39 644.097 1222.68 643.509C1222.96 642.912 1223.1 642.268 1223.1 641.578C1223.1 640.811 1222.92 640.151 1222.57 639.597C1222.22 639.034 1221.75 638.604 1221.14 638.305C1220.54 637.999 1219.85 637.845 1219.08 637.845C1218.28 637.845 1217.58 638.007 1216.99 638.331C1216.39 638.655 1215.93 639.119 1215.61 639.724C1215.28 640.33 1215.12 641.05 1215.12 641.885H1209.87C1209.87 640.172 1210.25 638.685 1211.03 637.423C1211.81 636.162 1212.89 635.186 1214.29 634.496C1215.69 633.805 1217.3 633.46 1219.12 633.46C1221 633.46 1222.63 633.793 1224.02 634.457C1225.42 635.114 1226.5 636.026 1227.28 637.193C1228.05 638.361 1228.44 639.699 1228.44 641.207C1228.44 642.196 1228.25 643.172 1227.85 644.135C1227.47 645.098 1226.78 646.168 1225.8 647.344C1224.81 648.511 1223.41 649.913 1221.62 651.55L1217.79 655.295V655.474H1228.79V660H1210.12ZM1244.19 633.818V660H1238.65V639.072H1238.5L1232.5 642.831V637.922L1238.99 633.818H1244.19ZM1250.41 660V656.011L1259.73 647.382C1260.52 646.615 1261.19 645.925 1261.73 645.311C1262.27 644.697 1262.68 644.097 1262.97 643.509C1263.25 642.912 1263.39 642.268 1263.39 641.578C1263.39 640.811 1263.21 640.151 1262.86 639.597C1262.51 639.034 1262.04 638.604 1261.43 638.305C1260.83 637.999 1260.14 637.845 1259.37 637.845C1258.57 637.845 1257.87 638.007 1257.28 638.331C1256.68 638.655 1256.22 639.119 1255.9 639.724C1255.57 640.33 1255.41 641.05 1255.41 641.885H1250.16C1250.16 640.172 1250.54 638.685 1251.32 637.423C1252.09 636.162 1253.18 635.186 1254.58 634.496C1255.98 633.805 1257.59 633.46 1259.41 633.46C1261.29 633.46 1262.92 633.793 1264.31 634.457C1265.71 635.114 1266.79 636.026 1267.57 637.193C1268.34 638.361 1268.73 639.699 1268.73 641.207C1268.73 642.196 1268.53 643.172 1268.14 644.135C1267.76 645.098 1267.07 646.168 1266.08 647.344C1265.1 648.511 1263.7 649.913 1261.9 651.55L1258.08 655.295V655.474H1269.08V660H1250.41ZM1289.46 633.153L1291.13 636.707C1290.57 637.168 1289.96 637.509 1289.28 637.73C1288.61 637.943 1287.81 638.084 1286.87 638.152C1285.94 638.22 1284.81 638.267 1283.47 638.293C1281.95 638.31 1280.71 638.553 1279.76 639.021C1278.81 639.49 1278.08 640.227 1277.59 641.233C1277.09 642.23 1276.77 643.534 1276.62 645.145H1276.81C1277.4 643.943 1278.22 643.014 1279.29 642.358C1280.36 641.702 1281.69 641.374 1283.26 641.374C1284.93 641.374 1286.4 641.74 1287.65 642.473C1288.91 643.206 1289.89 644.259 1290.59 645.631C1291.29 647.003 1291.64 648.648 1291.64 650.565C1291.64 652.56 1291.24 654.294 1290.46 655.768C1289.69 657.234 1288.58 658.372 1287.15 659.182C1285.72 659.983 1284.01 660.384 1282.04 660.384C1280.05 660.384 1278.34 659.966 1276.9 659.131C1275.46 658.295 1274.36 657.064 1273.57 655.436C1272.8 653.808 1272.41 651.805 1272.41 649.428V647.817C1272.41 643.087 1273.33 639.58 1275.17 637.295C1277.01 635.011 1279.72 633.852 1283.29 633.818C1284.26 633.801 1285.14 633.797 1285.92 633.805C1286.71 633.814 1287.39 633.776 1287.98 633.69C1288.58 633.605 1289.07 633.426 1289.46 633.153ZM1282.06 656.165C1282.9 656.165 1283.61 655.947 1284.21 655.513C1284.81 655.078 1285.28 654.456 1285.6 653.646C1285.94 652.837 1286.1 651.869 1286.1 650.744C1286.1 649.628 1285.94 648.682 1285.6 647.906C1285.28 647.122 1284.81 646.526 1284.21 646.116C1283.6 645.707 1282.88 645.503 1282.04 645.503C1281.41 645.503 1280.84 645.618 1280.34 645.848C1279.83 646.078 1279.4 646.419 1279.04 646.871C1278.69 647.314 1278.42 647.864 1278.23 648.52C1278.04 649.168 1277.94 649.909 1277.94 650.744C1277.94 652.423 1278.31 653.749 1279.03 654.72C1279.76 655.683 1280.77 656.165 1282.06 656.165Z" fill="#7E7E7E"/>
<path id="211&#208;&#177;" d="M1219.12 533V529.011L1228.44 520.382C1229.23 519.615 1229.9 518.925 1230.44 518.311C1230.98 517.697 1231.39 517.097 1231.68 516.509C1231.96 515.912 1232.1 515.268 1232.1 514.578C1232.1 513.811 1231.92 513.151 1231.57 512.597C1231.22 512.034 1230.75 511.604 1230.14 511.305C1229.54 510.999 1228.85 510.845 1228.08 510.845C1227.28 510.845 1226.58 511.007 1225.99 511.331C1225.39 511.655 1224.93 512.119 1224.61 512.724C1224.28 513.33 1224.12 514.05 1224.12 514.885H1218.87C1218.87 513.172 1219.25 511.685 1220.03 510.423C1220.81 509.162 1221.89 508.186 1223.29 507.496C1224.69 506.805 1226.3 506.46 1228.12 506.46C1230 506.46 1231.63 506.793 1233.02 507.457C1234.42 508.114 1235.5 509.026 1236.28 510.193C1237.05 511.361 1237.44 512.699 1237.44 514.207C1237.44 515.196 1237.25 516.172 1236.85 517.135C1236.47 518.098 1235.78 519.168 1234.8 520.344C1233.81 521.511 1232.41 522.913 1230.62 524.55L1226.79 528.295V528.474H1237.79V533H1219.12ZM1253.19 506.818V533H1247.65V512.072H1247.5L1241.5 515.831V510.922L1247.99 506.818H1253.19ZM1270.8 506.818V533H1265.27V512.072H1265.11L1259.12 515.831V510.922L1265.6 506.818H1270.8ZM1293.4 506.153L1295.06 509.707C1294.51 510.168 1293.9 510.509 1293.22 510.73C1292.55 510.943 1291.74 511.084 1290.81 511.152C1289.88 511.22 1288.74 511.267 1287.41 511.293C1285.89 511.31 1284.65 511.553 1283.7 512.021C1282.74 512.49 1282.02 513.227 1281.52 514.233C1281.03 515.23 1280.71 516.534 1280.55 518.145H1280.74C1281.33 516.943 1282.16 516.014 1283.22 515.358C1284.3 514.702 1285.62 514.374 1287.2 514.374C1288.87 514.374 1290.33 514.74 1291.59 515.473C1292.85 516.206 1293.83 517.259 1294.53 518.631C1295.22 520.003 1295.57 521.648 1295.57 523.565C1295.57 525.56 1295.18 527.294 1294.4 528.768C1293.62 530.234 1292.52 531.372 1291.09 532.182C1289.66 532.983 1287.95 533.384 1285.97 533.384C1283.99 533.384 1282.27 532.966 1280.83 532.131C1279.4 531.295 1278.29 530.064 1277.51 528.436C1276.73 526.808 1276.35 524.805 1276.35 522.428V520.817C1276.35 516.087 1277.27 512.58 1279.11 510.295C1280.95 508.011 1283.66 506.852 1287.23 506.818C1288.2 506.801 1289.08 506.797 1289.86 506.805C1290.64 506.814 1291.33 506.776 1291.92 506.69C1292.51 506.605 1293.01 506.426 1293.4 506.153ZM1286 529.165C1286.83 529.165 1287.55 528.947 1288.15 528.513C1288.75 528.078 1289.22 527.456 1289.54 526.646C1289.87 525.837 1290.04 524.869 1290.04 523.744C1290.04 522.628 1289.87 521.682 1289.54 520.906C1289.22 520.122 1288.75 519.526 1288.15 519.116C1287.54 518.707 1286.82 518.503 1285.97 518.503C1285.34 518.503 1284.78 518.618 1284.27 518.848C1283.77 519.078 1283.34 519.419 1282.98 519.871C1282.63 520.314 1282.36 520.864 1282.16 521.52C1281.98 522.168 1281.88 522.909 1281.88 523.744C1281.88 525.423 1282.24 526.749 1282.97 527.72C1283.7 528.683 1284.71 529.165 1286 529.165Z" fill="#7E7E7E"/>
<path id="210&#208;&#177;_2" d="M1210.12 378V374.011L1219.44 365.382C1220.23 364.615 1220.9 363.925 1221.44 363.311C1221.98 362.697 1222.39 362.097 1222.68 361.509C1222.96 360.912 1223.1 360.268 1223.1 359.578C1223.1 358.811 1222.92 358.151 1222.57 357.597C1222.22 357.034 1221.75 356.604 1221.14 356.305C1220.54 355.999 1219.85 355.845 1219.08 355.845C1218.28 355.845 1217.58 356.007 1216.99 356.331C1216.39 356.655 1215.93 357.119 1215.61 357.724C1215.28 358.33 1215.12 359.05 1215.12 359.885H1209.87C1209.87 358.172 1210.25 356.685 1211.03 355.423C1211.81 354.162 1212.89 353.186 1214.29 352.496C1215.69 351.805 1217.3 351.46 1219.12 351.46C1221 351.46 1222.63 351.793 1224.02 352.457C1225.42 353.114 1226.5 354.026 1227.28 355.193C1228.05 356.361 1228.44 357.699 1228.44 359.207C1228.44 360.196 1228.25 361.172 1227.85 362.135C1227.47 363.098 1226.78 364.168 1225.8 365.344C1224.81 366.511 1223.41 367.913 1221.62 369.55L1217.79 373.295V373.474H1228.79V378H1210.12ZM1244.19 351.818V378H1238.65V357.072H1238.5L1232.5 360.831V355.922L1238.99 351.818H1244.19ZM1260.68 378.575C1258.48 378.567 1256.59 378.026 1255 376.952C1253.42 375.878 1252.21 374.322 1251.36 372.286C1250.51 370.249 1250.1 367.798 1250.1 364.935C1250.1 362.08 1250.53 359.646 1251.37 357.635C1252.22 355.624 1253.44 354.094 1255.01 353.045C1256.6 351.989 1258.49 351.46 1260.68 351.46C1262.87 351.46 1264.75 351.989 1266.33 353.045C1267.91 354.102 1269.13 355.636 1269.98 357.648C1270.84 359.651 1271.26 362.08 1271.25 364.935C1271.25 367.807 1270.82 370.261 1269.97 372.298C1269.13 374.335 1267.92 375.891 1266.34 376.964C1264.76 378.038 1262.88 378.575 1260.68 378.575ZM1260.68 373.986C1262.18 373.986 1263.37 373.232 1264.27 371.723C1265.16 370.214 1265.61 367.952 1265.6 364.935C1265.6 362.949 1265.39 361.295 1264.99 359.974C1264.58 358.653 1264.01 357.661 1263.27 356.996C1262.54 356.331 1261.67 355.999 1260.68 355.999C1259.19 355.999 1257.99 356.744 1257.1 358.236C1256.2 359.727 1255.75 361.96 1255.74 364.935C1255.74 366.946 1255.94 368.625 1256.34 369.972C1256.75 371.31 1257.33 372.315 1258.07 372.989C1258.81 373.653 1259.68 373.986 1260.68 373.986ZM1291.57 351.153L1293.23 354.707C1292.68 355.168 1292.07 355.509 1291.39 355.73C1290.72 355.943 1289.92 356.084 1288.98 356.152C1288.05 356.22 1286.92 356.267 1285.58 356.293C1284.06 356.31 1282.82 356.553 1281.87 357.021C1280.92 357.49 1280.19 358.227 1279.7 359.233C1279.2 360.23 1278.88 361.534 1278.72 363.145H1278.92C1279.5 361.943 1280.33 361.014 1281.4 360.358C1282.47 359.702 1283.8 359.374 1285.37 359.374C1287.04 359.374 1288.5 359.74 1289.76 360.473C1291.02 361.206 1292 362.259 1292.7 363.631C1293.4 365.003 1293.75 366.648 1293.75 368.565C1293.75 370.56 1293.35 372.294 1292.57 373.768C1291.79 375.234 1290.69 376.372 1289.26 377.182C1287.83 377.983 1286.12 378.384 1284.15 378.384C1282.16 378.384 1280.45 377.966 1279.01 377.131C1277.57 376.295 1276.47 375.064 1275.68 373.436C1274.91 371.808 1274.52 369.805 1274.52 367.428V365.817C1274.52 361.087 1275.44 357.58 1277.28 355.295C1279.12 353.011 1281.83 351.852 1285.4 351.818C1286.37 351.801 1287.25 351.797 1288.03 351.805C1288.82 351.814 1289.5 351.776 1290.09 351.69C1290.69 351.605 1291.18 351.426 1291.57 351.153ZM1284.17 374.165C1285.01 374.165 1285.72 373.947 1286.32 373.513C1286.92 373.078 1287.39 372.456 1287.71 371.646C1288.04 370.837 1288.21 369.869 1288.21 368.744C1288.21 367.628 1288.04 366.682 1287.71 365.906C1287.39 365.122 1286.92 364.526 1286.32 364.116C1285.71 363.707 1284.99 363.503 1284.15 363.503C1283.51 363.503 1282.95 363.618 1282.44 363.848C1281.94 364.078 1281.51 364.419 1281.15 364.871C1280.8 365.314 1280.53 365.864 1280.34 366.52C1280.15 367.168 1280.05 367.909 1280.05 368.744C1280.05 370.423 1280.42 371.749 1281.14 372.72C1281.87 373.683 1282.88 374.165 1284.17 374.165Z" fill="#7E7E7E"/>
<path id="&#208;&#161;&#208;&#149;&#208;&#160;&#208;&#146;&#208;&#149;&#208;&#160;&#208;&#157;&#208;&#144;&#208;&#175;" d="M1247.92 192.656H1244.18C1244.12 192.173 1243.98 191.744 1243.77 191.369C1243.56 190.989 1243.29 190.665 1242.96 190.398C1242.63 190.131 1242.25 189.926 1241.82 189.784C1241.39 189.642 1240.93 189.571 1240.43 189.571C1239.52 189.571 1238.74 189.795 1238.07 190.244C1237.39 190.687 1236.88 191.335 1236.51 192.188C1236.14 193.034 1235.95 194.062 1235.95 195.273C1235.95 196.517 1236.14 197.562 1236.51 198.409C1236.88 199.256 1237.4 199.895 1238.07 200.327C1238.74 200.759 1239.52 200.974 1240.4 200.974C1240.89 200.974 1241.35 200.909 1241.77 200.778C1242.2 200.648 1242.58 200.457 1242.91 200.207C1243.24 199.952 1243.51 199.642 1243.72 199.278C1243.95 198.915 1244.1 198.5 1244.18 198.034L1247.92 198.051C1247.82 198.852 1247.58 199.625 1247.19 200.369C1246.81 201.108 1246.3 201.77 1245.65 202.355C1245.01 202.935 1244.24 203.395 1243.35 203.736C1242.46 204.071 1241.46 204.239 1240.34 204.239C1238.78 204.239 1237.39 203.886 1236.16 203.182C1234.94 202.477 1233.98 201.457 1233.27 200.122C1232.56 198.787 1232.21 197.17 1232.21 195.273C1232.21 193.369 1232.57 191.75 1233.28 190.415C1234 189.08 1234.97 188.062 1236.2 187.364C1237.43 186.659 1238.81 186.307 1240.34 186.307C1241.35 186.307 1242.29 186.449 1243.15 186.733C1244.02 187.017 1244.79 187.432 1245.46 187.977C1246.13 188.517 1246.68 189.179 1247.1 189.963C1247.53 190.747 1247.8 191.645 1247.92 192.656ZM1250.56 204V186.545H1262.33V189.588H1254.25V193.747H1261.72V196.79H1254.25V200.957H1262.36V204H1250.56ZM1265.26 204V186.545H1272.15C1273.47 186.545 1274.6 186.798 1275.53 187.304C1276.46 187.804 1277.17 188.5 1277.66 189.392C1278.15 190.278 1278.4 191.301 1278.4 192.46C1278.4 193.619 1278.15 194.642 1277.65 195.528C1277.15 196.415 1276.43 197.105 1275.48 197.599C1274.53 198.094 1273.39 198.341 1272.05 198.341H1267.66V195.384H1271.46C1272.17 195.384 1272.75 195.261 1273.21 195.017C1273.68 194.767 1274.02 194.423 1274.25 193.986C1274.48 193.543 1274.6 193.034 1274.6 192.46C1274.6 191.881 1274.48 191.375 1274.25 190.943C1274.02 190.506 1273.68 190.168 1273.21 189.929C1272.75 189.685 1272.15 189.562 1271.44 189.562H1268.95V204H1265.26ZM1232.52 233V215.545H1239.51C1240.79 215.545 1241.86 215.736 1242.72 216.116C1243.58 216.497 1244.22 217.026 1244.65 217.702C1245.09 218.372 1245.3 219.145 1245.3 220.02C1245.3 220.702 1245.16 221.301 1244.89 221.818C1244.62 222.33 1244.24 222.75 1243.77 223.08C1243.3 223.403 1242.76 223.634 1242.15 223.77V223.94C1242.81 223.969 1243.43 224.156 1244.01 224.503C1244.6 224.849 1245.07 225.335 1245.44 225.96C1245.8 226.58 1245.98 227.318 1245.98 228.176C1245.98 229.102 1245.75 229.929 1245.29 230.656C1244.84 231.378 1244.16 231.949 1243.27 232.369C1242.38 232.79 1241.28 233 1239.97 233H1232.52ZM1236.21 229.983H1239.22C1240.24 229.983 1240.99 229.787 1241.47 229.395C1241.94 228.997 1242.17 228.469 1242.17 227.81C1242.17 227.327 1242.06 226.901 1241.82 226.531C1241.59 226.162 1241.26 225.872 1240.83 225.662C1240.4 225.452 1239.89 225.347 1239.3 225.347H1236.21V229.983ZM1236.21 222.849H1238.94C1239.45 222.849 1239.9 222.761 1240.29 222.585C1240.69 222.403 1241 222.148 1241.23 221.818C1241.46 221.489 1241.58 221.094 1241.58 220.634C1241.58 220.003 1241.35 219.494 1240.9 219.108C1240.46 218.722 1239.83 218.528 1239.01 218.528H1236.21V222.849ZM1248.38 233V215.545H1260.15V218.588H1252.07V222.747H1259.54V225.79H1252.07V229.957H1260.18V233H1248.38ZM1263.08 233V215.545H1269.97C1271.29 215.545 1272.42 215.798 1273.35 216.304C1274.28 216.804 1274.99 217.5 1275.48 218.392C1275.97 219.278 1276.22 220.301 1276.22 221.46C1276.22 222.619 1275.97 223.642 1275.47 224.528C1274.97 225.415 1274.25 226.105 1273.3 226.599C1272.36 227.094 1271.21 227.341 1269.87 227.341H1265.48V224.384H1269.28C1269.99 224.384 1270.57 224.261 1271.03 224.017C1271.5 223.767 1271.84 223.423 1272.07 222.986C1272.3 222.543 1272.42 222.034 1272.42 221.46C1272.42 220.881 1272.3 220.375 1272.07 219.943C1271.84 219.506 1271.5 219.168 1271.03 218.929C1270.57 218.685 1269.97 218.562 1269.26 218.562H1266.77V233H1263.08ZM1232.52 262V244.545H1236.21V251.747H1243.7V244.545H1247.38V262H1243.7V254.79H1236.21V262H1232.52ZM1253.43 262H1249.48L1255.5 244.545H1260.26L1266.28 262H1262.32L1257.95 248.534H1257.81L1253.43 262ZM1253.18 255.139H1262.53V258.02H1253.18V255.139ZM1281.77 262H1278.09V247.562H1275.6C1274.89 247.562 1274.3 247.668 1273.83 247.878C1273.37 248.082 1273.02 248.384 1272.78 248.781C1272.55 249.179 1272.43 249.668 1272.43 250.247C1272.43 250.821 1272.55 251.301 1272.78 251.688C1273.02 252.074 1273.37 252.364 1273.83 252.557C1274.3 252.75 1274.88 252.847 1275.59 252.847H1279.59V255.812H1274.99C1273.65 255.812 1272.51 255.591 1271.56 255.148C1270.62 254.705 1269.89 254.068 1269.39 253.239C1268.89 252.403 1268.64 251.406 1268.64 250.247C1268.64 249.094 1268.88 248.091 1269.37 247.239C1269.87 246.381 1270.58 245.719 1271.51 245.253C1272.45 244.781 1273.58 244.545 1274.9 244.545H1281.77V262ZM1272.36 254.057H1276.34L1272.09 262H1268.02L1272.36 254.057Z" fill="#7E7E7E"/>
<path id="209&#208;&#177;" d="M1043.12 263V259.011L1052.44 250.382C1053.23 249.615 1053.9 248.925 1054.44 248.311C1054.98 247.697 1055.39 247.097 1055.68 246.509C1055.96 245.912 1056.1 245.268 1056.1 244.578C1056.1 243.811 1055.92 243.151 1055.57 242.597C1055.22 242.034 1054.75 241.604 1054.14 241.305C1053.54 240.999 1052.85 240.845 1052.08 240.845C1051.28 240.845 1050.58 241.007 1049.99 241.331C1049.39 241.655 1048.93 242.119 1048.61 242.724C1048.28 243.33 1048.12 244.05 1048.12 244.885H1042.87C1042.87 243.172 1043.25 241.685 1044.03 240.423C1044.81 239.162 1045.89 238.186 1047.29 237.496C1048.69 236.805 1050.3 236.46 1052.12 236.46C1054 236.46 1055.63 236.793 1057.02 237.457C1058.42 238.114 1059.5 239.026 1060.28 240.193C1061.05 241.361 1061.44 242.699 1061.44 244.207C1061.44 245.196 1061.25 246.172 1060.85 247.135C1060.47 248.098 1059.78 249.168 1058.8 250.344C1057.81 251.511 1056.41 252.913 1054.62 254.55L1050.79 258.295V258.474H1061.79V263H1043.12ZM1076.06 263.575C1073.86 263.567 1071.97 263.026 1070.39 261.952C1068.81 260.878 1067.6 259.322 1066.74 257.286C1065.9 255.249 1065.48 252.798 1065.49 249.935C1065.49 247.08 1065.91 244.646 1066.76 242.635C1067.61 240.624 1068.82 239.094 1070.4 238.045C1071.99 236.989 1073.87 236.46 1076.06 236.46C1078.25 236.46 1080.14 236.989 1081.71 238.045C1083.3 239.102 1084.52 240.636 1085.37 242.648C1086.22 244.651 1086.64 247.08 1086.64 249.935C1086.64 252.807 1086.21 255.261 1085.36 257.298C1084.51 259.335 1083.3 260.891 1081.73 261.964C1080.15 263.038 1078.26 263.575 1076.06 263.575ZM1076.06 258.986C1077.56 258.986 1078.76 258.232 1079.66 256.723C1080.55 255.214 1080.99 252.952 1080.99 249.935C1080.99 247.949 1080.78 246.295 1080.37 244.974C1079.97 243.653 1079.4 242.661 1078.66 241.996C1077.93 241.331 1077.06 240.999 1076.06 240.999C1074.57 240.999 1073.38 241.744 1072.48 243.236C1071.59 244.727 1071.14 246.96 1071.13 249.935C1071.13 251.946 1071.33 253.625 1071.73 254.972C1072.14 256.31 1072.71 257.315 1073.46 257.989C1074.2 258.653 1075.07 258.986 1076.06 258.986ZM1100.06 236.46C1101.4 236.46 1102.7 236.686 1103.94 237.138C1105.2 237.589 1106.31 238.31 1107.29 239.298C1108.28 240.287 1109.06 241.599 1109.63 243.236C1110.21 244.864 1110.5 246.862 1110.51 249.232C1110.51 251.456 1110.26 253.442 1109.76 255.189C1109.26 256.928 1108.55 258.406 1107.62 259.625C1106.7 260.844 1105.57 261.773 1104.26 262.412C1102.95 263.043 1101.48 263.358 1099.86 263.358C1098.12 263.358 1096.57 263.021 1095.24 262.348C1093.9 261.666 1092.82 260.741 1092 259.574C1091.19 258.398 1090.7 257.077 1090.53 255.611H1095.99C1096.2 256.565 1096.65 257.307 1097.33 257.835C1098.01 258.355 1098.86 258.615 1099.86 258.615C1101.57 258.615 1102.86 257.874 1103.75 256.391C1104.64 254.899 1105.08 252.858 1105.09 250.267H1104.91C1104.52 251.034 1103.99 251.695 1103.33 252.249C1102.66 252.794 1101.9 253.216 1101.04 253.514C1100.19 253.812 1099.28 253.962 1098.32 253.962C1096.77 253.962 1095.4 253.599 1094.19 252.875C1092.98 252.151 1092.02 251.153 1091.32 249.884C1090.63 248.614 1090.28 247.165 1090.28 245.537C1090.27 243.781 1090.67 242.217 1091.49 240.845C1092.31 239.473 1093.45 238.399 1094.92 237.624C1096.39 236.839 1098.1 236.452 1100.06 236.46ZM1100.09 240.807C1099.23 240.807 1098.47 241.011 1097.79 241.42C1097.13 241.83 1096.6 242.379 1096.21 243.07C1095.82 243.76 1095.64 244.531 1095.65 245.384C1095.65 246.244 1095.83 247.02 1096.21 247.71C1096.59 248.392 1097.11 248.937 1097.77 249.347C1098.43 249.747 1099.19 249.947 1100.04 249.947C1100.68 249.947 1101.27 249.828 1101.82 249.589C1102.37 249.351 1102.84 249.023 1103.24 248.605C1103.65 248.179 1103.97 247.689 1104.2 247.135C1104.43 246.581 1104.54 245.993 1104.54 245.371C1104.53 244.544 1104.34 243.786 1103.96 243.095C1103.57 242.405 1103.04 241.851 1102.37 241.433C1101.7 241.016 1100.94 240.807 1100.09 240.807ZM1130.73 236.153L1132.39 239.707C1131.83 240.168 1131.22 240.509 1130.55 240.73C1129.87 240.943 1129.07 241.084 1128.13 241.152C1127.2 241.22 1126.07 241.267 1124.73 241.293C1123.21 241.31 1121.98 241.553 1121.02 242.021C1120.07 242.49 1119.34 243.227 1118.85 244.233C1118.35 245.23 1118.03 246.534 1117.88 248.145H1118.07C1118.66 246.943 1119.48 246.014 1120.55 245.358C1121.62 244.702 1122.95 244.374 1124.52 244.374C1126.2 244.374 1127.66 244.74 1128.91 245.473C1130.17 246.206 1131.15 247.259 1131.85 248.631C1132.55 250.003 1132.9 251.648 1132.9 253.565C1132.9 255.56 1132.51 257.294 1131.72 258.768C1130.95 260.234 1129.84 261.372 1128.41 262.182C1126.98 262.983 1125.27 263.384 1123.3 263.384C1121.31 263.384 1119.6 262.966 1118.16 262.131C1116.73 261.295 1115.62 260.064 1114.83 258.436C1114.06 256.808 1113.67 254.805 1113.67 252.428V250.817C1113.67 246.087 1114.59 242.58 1116.43 240.295C1118.27 238.011 1120.98 236.852 1124.55 236.818C1125.52 236.801 1126.4 236.797 1127.18 236.805C1127.97 236.814 1128.65 236.776 1129.24 236.69C1129.84 236.605 1130.33 236.426 1130.73 236.153ZM1123.32 259.165C1124.16 259.165 1124.87 258.947 1125.47 258.513C1126.08 258.078 1126.54 257.456 1126.86 256.646C1127.2 255.837 1127.36 254.869 1127.36 253.744C1127.36 252.628 1127.2 251.682 1126.86 250.906C1126.54 250.122 1126.08 249.526 1125.47 249.116C1124.87 248.707 1124.14 248.503 1123.3 248.503C1122.67 248.503 1122.1 248.618 1121.6 248.848C1121.09 249.078 1120.66 249.419 1120.31 249.871C1119.96 250.314 1119.68 250.864 1119.49 251.52C1119.3 252.168 1119.21 252.909 1119.21 253.744C1119.21 255.423 1119.57 256.749 1120.29 257.72C1121.03 258.683 1122.04 259.165 1123.32 259.165Z" fill="#7E7E7E"/>
<path id="208&#208;&#177;" d="M1047.12 395V391.011L1056.44 382.382C1057.23 381.615 1057.9 380.925 1058.44 380.311C1058.98 379.697 1059.39 379.097 1059.68 378.509C1059.96 377.912 1060.1 377.268 1060.1 376.578C1060.1 375.811 1059.92 375.151 1059.57 374.597C1059.22 374.034 1058.75 373.604 1058.14 373.305C1057.54 372.999 1056.85 372.845 1056.08 372.845C1055.28 372.845 1054.58 373.007 1053.99 373.331C1053.39 373.655 1052.93 374.119 1052.61 374.724C1052.28 375.33 1052.12 376.05 1052.12 376.885H1046.87C1046.87 375.172 1047.25 373.685 1048.03 372.423C1048.81 371.162 1049.89 370.186 1051.29 369.496C1052.69 368.805 1054.3 368.46 1056.12 368.46C1058 368.46 1059.63 368.793 1061.02 369.457C1062.42 370.114 1063.5 371.026 1064.28 372.193C1065.05 373.361 1065.44 374.699 1065.44 376.207C1065.44 377.196 1065.25 378.172 1064.85 379.135C1064.47 380.098 1063.78 381.168 1062.8 382.344C1061.81 383.511 1060.41 384.913 1058.62 386.55L1054.79 390.295V390.474H1065.79V395H1047.12ZM1080.06 395.575C1077.86 395.567 1075.97 395.026 1074.39 393.952C1072.81 392.878 1071.6 391.322 1070.74 389.286C1069.9 387.249 1069.48 384.798 1069.49 381.935C1069.49 379.08 1069.91 376.646 1070.76 374.635C1071.61 372.624 1072.82 371.094 1074.4 370.045C1075.99 368.989 1077.87 368.46 1080.06 368.46C1082.25 368.46 1084.14 368.989 1085.71 370.045C1087.3 371.102 1088.52 372.636 1089.37 374.648C1090.22 376.651 1090.64 379.08 1090.64 381.935C1090.64 384.807 1090.21 387.261 1089.36 389.298C1088.51 391.335 1087.3 392.891 1085.73 393.964C1084.15 395.038 1082.26 395.575 1080.06 395.575ZM1080.06 390.986C1081.56 390.986 1082.76 390.232 1083.66 388.723C1084.55 387.214 1084.99 384.952 1084.99 381.935C1084.99 379.949 1084.78 378.295 1084.37 376.974C1083.97 375.653 1083.4 374.661 1082.66 373.996C1081.93 373.331 1081.06 372.999 1080.06 372.999C1078.57 372.999 1077.38 373.744 1076.48 375.236C1075.59 376.727 1075.14 378.96 1075.13 381.935C1075.13 383.946 1075.33 385.625 1075.73 386.972C1076.14 388.31 1076.71 389.315 1077.46 389.989C1078.2 390.653 1079.07 390.986 1080.06 390.986ZM1104.35 395.358C1102.38 395.358 1100.63 395.038 1099.1 394.399C1097.57 393.751 1096.37 392.869 1095.5 391.753C1094.63 390.636 1094.2 389.371 1094.2 387.956C1094.2 386.865 1094.45 385.864 1094.94 384.952C1095.44 384.031 1096.13 383.268 1096.99 382.663C1097.85 382.05 1098.81 381.658 1099.88 381.487V381.308C1098.48 381.027 1097.34 380.349 1096.48 379.276C1095.61 378.193 1095.17 376.936 1095.17 375.504C1095.17 374.149 1095.57 372.943 1096.36 371.886C1097.15 370.821 1098.24 369.986 1099.62 369.381C1101.01 368.767 1102.59 368.46 1104.35 368.46C1106.11 368.46 1107.69 368.767 1109.07 369.381C1110.46 369.994 1111.55 370.834 1112.34 371.899C1113.13 372.956 1113.53 374.158 1113.54 375.504C1113.53 376.945 1113.09 378.202 1112.21 379.276C1111.33 380.349 1110.21 381.027 1108.84 381.308V381.487C1109.89 381.658 1110.84 382.05 1111.69 382.663C1112.55 383.268 1113.23 384.031 1113.73 384.952C1114.25 385.864 1114.5 386.865 1114.51 387.956C1114.5 389.371 1114.07 390.636 1113.2 391.753C1112.33 392.869 1111.13 393.751 1109.59 394.399C1108.07 395.038 1106.32 395.358 1104.35 395.358ZM1104.35 391.293C1105.23 391.293 1106 391.135 1106.65 390.82C1107.31 390.496 1107.82 390.053 1108.19 389.49C1108.56 388.919 1108.75 388.263 1108.75 387.521C1108.75 386.763 1108.56 386.094 1108.17 385.514C1107.79 384.926 1107.27 384.466 1106.61 384.134C1105.96 383.793 1105.2 383.622 1104.35 383.622C1103.51 383.622 1102.75 383.793 1102.09 384.134C1101.42 384.466 1100.9 384.926 1100.51 385.514C1100.14 386.094 1099.95 386.763 1099.95 387.521C1099.95 388.263 1100.14 388.919 1100.5 389.49C1100.87 390.053 1101.38 390.496 1102.05 390.82C1102.71 391.135 1103.48 391.293 1104.35 391.293ZM1104.35 379.595C1105.08 379.595 1105.74 379.446 1106.31 379.148C1106.88 378.849 1107.32 378.436 1107.65 377.908C1107.97 377.379 1108.13 376.77 1108.13 376.08C1108.13 375.398 1107.97 374.801 1107.65 374.29C1107.32 373.77 1106.88 373.365 1106.32 373.075C1105.76 372.777 1105.1 372.628 1104.35 372.628C1103.61 372.628 1102.95 372.777 1102.38 373.075C1101.81 373.365 1101.36 373.77 1101.04 374.29C1100.72 374.801 1100.57 375.398 1100.57 376.08C1100.57 376.77 1100.73 377.379 1101.05 377.908C1101.38 378.436 1101.82 378.849 1102.39 379.148C1102.97 379.446 1103.62 379.595 1104.35 379.595ZM1134.76 368.153L1136.42 371.707C1135.87 372.168 1135.25 372.509 1134.58 372.73C1133.91 372.943 1133.1 373.084 1132.17 373.152C1131.24 373.22 1130.1 373.267 1128.76 373.293C1127.25 373.31 1126.01 373.553 1125.06 374.021C1124.1 374.49 1123.38 375.227 1122.88 376.233C1122.39 377.23 1122.07 378.534 1121.91 380.145H1122.1C1122.69 378.943 1123.52 378.014 1124.58 377.358C1125.66 376.702 1126.98 376.374 1128.56 376.374C1130.23 376.374 1131.69 376.74 1132.94 377.473C1134.21 378.206 1135.19 379.259 1135.89 380.631C1136.58 382.003 1136.93 383.648 1136.93 385.565C1136.93 387.56 1136.54 389.294 1135.76 390.768C1134.98 392.234 1133.88 393.372 1132.45 394.182C1131.01 394.983 1129.31 395.384 1127.33 395.384C1125.35 395.384 1123.63 394.966 1122.19 394.131C1120.76 393.295 1119.65 392.064 1118.87 390.436C1118.09 388.808 1117.71 386.805 1117.71 384.428V382.817C1117.71 378.087 1118.63 374.58 1120.47 372.295C1122.31 370.011 1125.01 368.852 1128.59 368.818C1129.56 368.801 1130.44 368.797 1131.22 368.805C1132 368.814 1132.69 368.776 1133.28 368.69C1133.87 368.605 1134.37 368.426 1134.76 368.153ZM1127.36 391.165C1128.19 391.165 1128.91 390.947 1129.51 390.513C1130.11 390.078 1130.58 389.456 1130.9 388.646C1131.23 387.837 1131.4 386.869 1131.4 385.744C1131.4 384.628 1131.23 383.682 1130.9 382.906C1130.58 382.122 1130.11 381.526 1129.51 381.116C1128.9 380.707 1128.18 380.503 1127.33 380.503C1126.7 380.503 1126.14 380.618 1125.63 380.848C1125.13 381.078 1124.7 381.419 1124.34 381.871C1123.99 382.314 1123.72 382.864 1123.52 383.52C1123.34 384.168 1123.24 384.909 1123.24 385.744C1123.24 387.423 1123.6 388.749 1124.33 389.72C1125.06 390.683 1126.07 391.165 1127.36 391.165Z" fill="#7E7E7E"/>
<path id="207&#208;&#177;" d="M1048.12 499V495.011L1057.44 486.382C1058.23 485.615 1058.9 484.925 1059.44 484.311C1059.98 483.697 1060.39 483.097 1060.68 482.509C1060.96 481.912 1061.1 481.268 1061.1 480.578C1061.1 479.811 1060.92 479.151 1060.57 478.597C1060.22 478.034 1059.75 477.604 1059.14 477.305C1058.54 476.999 1057.85 476.845 1057.08 476.845C1056.28 476.845 1055.58 477.007 1054.99 477.331C1054.39 477.655 1053.93 478.119 1053.61 478.724C1053.28 479.33 1053.12 480.05 1053.12 480.885H1047.87C1047.87 479.172 1048.25 477.685 1049.03 476.423C1049.81 475.162 1050.89 474.186 1052.29 473.496C1053.69 472.805 1055.3 472.46 1057.12 472.46C1059 472.46 1060.63 472.793 1062.02 473.457C1063.42 474.114 1064.5 475.026 1065.28 476.193C1066.05 477.361 1066.44 478.699 1066.44 480.207C1066.44 481.196 1066.25 482.172 1065.85 483.135C1065.47 484.098 1064.78 485.168 1063.8 486.344C1062.81 487.511 1061.41 488.913 1059.62 490.55L1055.79 494.295V494.474H1066.79V499H1048.12ZM1081.06 499.575C1078.86 499.567 1076.97 499.026 1075.39 497.952C1073.81 496.878 1072.6 495.322 1071.74 493.286C1070.9 491.249 1070.48 488.798 1070.49 485.935C1070.49 483.08 1070.91 480.646 1071.76 478.635C1072.61 476.624 1073.82 475.094 1075.4 474.045C1076.99 472.989 1078.87 472.46 1081.06 472.46C1083.25 472.46 1085.14 472.989 1086.71 474.045C1088.3 475.102 1089.52 476.636 1090.37 478.648C1091.22 480.651 1091.64 483.08 1091.64 485.935C1091.64 488.807 1091.21 491.261 1090.36 493.298C1089.51 495.335 1088.3 496.891 1086.73 497.964C1085.15 499.038 1083.26 499.575 1081.06 499.575ZM1081.06 494.986C1082.56 494.986 1083.76 494.232 1084.66 492.723C1085.55 491.214 1085.99 488.952 1085.99 485.935C1085.99 483.949 1085.78 482.295 1085.37 480.974C1084.97 479.653 1084.4 478.661 1083.66 477.996C1082.93 477.331 1082.06 476.999 1081.06 476.999C1079.57 476.999 1078.38 477.744 1077.48 479.236C1076.59 480.727 1076.14 482.96 1076.13 485.935C1076.13 487.946 1076.33 489.625 1076.73 490.972C1077.14 492.31 1077.71 493.315 1078.46 493.989C1079.2 494.653 1080.07 494.986 1081.06 494.986ZM1095.92 499L1106.77 477.523V477.344H1094.13V472.818H1112.5V477.408L1101.63 499H1095.92ZM1132.1 472.153L1133.77 475.707C1133.21 476.168 1132.6 476.509 1131.93 476.73C1131.25 476.943 1130.45 477.084 1129.51 477.152C1128.58 477.22 1127.45 477.267 1126.11 477.293C1124.59 477.31 1123.36 477.553 1122.4 478.021C1121.45 478.49 1120.72 479.227 1120.23 480.233C1119.73 481.23 1119.41 482.534 1119.26 484.145H1119.45C1120.04 482.943 1120.86 482.014 1121.93 481.358C1123 480.702 1124.33 480.374 1125.9 480.374C1127.57 480.374 1129.04 480.74 1130.29 481.473C1131.55 482.206 1132.53 483.259 1133.23 484.631C1133.93 486.003 1134.28 487.648 1134.28 489.565C1134.28 491.56 1133.89 493.294 1133.1 494.768C1132.33 496.234 1131.22 497.372 1129.79 498.182C1128.36 498.983 1126.65 499.384 1124.68 499.384C1122.69 499.384 1120.98 498.966 1119.54 498.131C1118.11 497.295 1117 496.064 1116.21 494.436C1115.44 492.808 1115.05 490.805 1115.05 488.428V486.817C1115.05 482.087 1115.97 478.58 1117.81 476.295C1119.65 474.011 1122.36 472.852 1125.93 472.818C1126.9 472.801 1127.78 472.797 1128.56 472.805C1129.35 472.814 1130.03 472.776 1130.62 472.69C1131.22 472.605 1131.71 472.426 1132.1 472.153ZM1124.7 495.165C1125.54 495.165 1126.25 494.947 1126.85 494.513C1127.45 494.078 1127.92 493.456 1128.24 492.646C1128.58 491.837 1128.74 490.869 1128.74 489.744C1128.74 488.628 1128.58 487.682 1128.24 486.906C1127.92 486.122 1127.45 485.526 1126.85 485.116C1126.24 484.707 1125.52 484.503 1124.68 484.503C1124.05 484.503 1123.48 484.618 1122.98 484.848C1122.47 485.078 1122.04 485.419 1121.69 485.871C1121.34 486.314 1121.06 486.864 1120.87 487.52C1120.68 488.168 1120.59 488.909 1120.59 489.744C1120.59 491.423 1120.95 492.749 1121.67 493.72C1122.41 494.683 1123.42 495.165 1124.7 495.165Z" fill="#7E7E7E"/>
</g>
<defs>
<filter id="filter0_f_0_1" x="296" y="250" width="932" height="540" filterUnits="userSpaceOnUse" color-interpolation-filters="sRGB">
<feFlood flood-opacity="0" result="BackgroundImageFix"/>
<feBlend mode="normal" in="SourceGraphic" in2="BackgroundImageFix" result="shape"/>
<feGaussianBlur stdDeviation="3" result="effect1_foregroundBlur_0_1"/>
</filter>
<filter id="filter1_d_0_1" x="142" y="673" width="169" height="214" filterUnits="userSpaceOnUse" color-interpolation-filters="sRGB">
<feFlood flood-opacity="0" result="BackgroundImageFix"/>
<feColorMatrix in="SourceAlpha" type="matrix" values="0 0 0 0 0 0 0 0 0 0 0 0 0 0 0 0 0 0 127 0" result="hardAlpha"/>
<feOffset dy="4"/>
<feGaussianBlur stdDeviation="2"/>
<feComposite in2="hardAlpha" operator="out"/>
<feColorMatrix type="matrix" values="0 0 0 0 0 0 0 0 0 0 0 0 0 0 0 0 0 0 0.25 0"/>
<feBlend mode="normal" in2="BackgroundImageFix" result="effect1_dropShadow_0_1"/>
<feBlend mode="normal" in="SourceGraphic" in2="effect1_dropShadow_0_1" result="shape"/>
</filter>
<filter id="filter2_d_0_1" x="305" y="744" width="142" height="143" filterUnits="userSpaceOnUse" color-interpolation-filters="sRGB">
<feFlood flood-opacity="0" result="BackgroundImageFix"/>
<feColorMatrix in="SourceAlpha" type="matrix" values="0 0 0 0 0 0 0 0 0 0 0 0 0 0 0 0 0 0 127 0" result="hardAlpha"/>
<feOffset dy="4"/>
<feGaussianBlur stdDeviation="2"/>
<feComposite in2="hardAlpha" operator="out"/>
<feColorMatrix type="matrix" values="0 0 0 0 0 0 0 0 0 0 0 0 0 0 0 0 0 0 0.25 0"/>
<feBlend mode="normal" in2="BackgroundImageFix" result="effect1_dropShadow_0_1"/>
<feBlend mode="normal" in="SourceGraphic" in2="effect1_dropShadow_0_1" result="shape"/>
</filter>
<filter id="filter3_d_0_1" x="441" y="744" width="140" height="143" filterUnits="userSpaceOnUse" color-interpolation-filters="sRGB">
<feFlood flood-opacity="0" result="BackgroundImageFix"/>
<feColorMatrix in="SourceAlpha" type="matrix" values="0 0 0 0 0 0 0 0 0 0 0 0 0 0 0 0 0 0 127 0" result="hardAlpha"/>
<feOffset dy="4"/>
<feGaussianBlur stdDeviation="2"/>
<feComposite in2="hardAlpha" operator="out"/>
<feColorMatrix type="matrix" values="0 0 0 0 0 0 0 0 0 0 0 0 0 0 0 0 0 0 0.25 0"/>
<feBlend mode="normal" in2="BackgroundImageFix" result="effect1_dropShadow_0_1"/>
<feBlend mode="normal" in="SourceGraphic" in2="effect1_dropShadow_0_1" result="shape"/>
</filter>
<filter id="filter4_d_0_1" x="575" y="779" width="132" height="108" filterUnits="userSpaceOnUse" color-interpolation-filters="sRGB">
<feFlood flood-opacity="0" result="BackgroundImageFix"/>
<feColorMatrix in="SourceAlpha" type="matrix" values="0 0 0 0 0 0 0 0 0 0 0 0 0 0 0 0 0 0 127 0" result="hardAlpha"/>
<feOffset dy="4"/>
<feGaussianBlur stdDeviation="2"/>
<feComposite in2="hardAlpha" operator="out"/>
<feColorMatrix type="matrix" values="0 0 0 0 0 0 0 0 0 0 0 0 0 0 0 0 0 0 0.25 0"/>
<feBlend mode="normal" in2="BackgroundImageFix" result="effect1_dropShadow_0_1"/>
<feBlend mode="normal" in="SourceGraphic" in2="effect1_dropShadow_0_1" result="shape"/>
</filter>
<filter id="filter5_d_0_1" x="597" y="744" width="110" height="41" filterUnits="userSpaceOnUse" color-interpolation-filters="sRGB">
<feFlood flood-opacity="0" result="BackgroundImageFix"/>
<feColorMatrix in="SourceAlpha" type="matrix" values="0 0 0 0 0 0 0 0 0 0 0 0 0 0 0 0 0 0 127 0" result="hardAlpha"/>
<feOffset dy="4"/>
<feGaussianBlur stdDeviation="2"/>
<feComposite in2="hardAlpha" operator="out"/>
<feColorMatrix type="matrix" values="0 0 0 0 0 0 0 0 0 0 0 0 0 0 0 0 0 0 0.25 0"/>
<feBlend mode="normal" in2="BackgroundImageFix" result="effect1_dropShadow_0_1"/>
<feBlend mode="normal" in="SourceGraphic" in2="effect1_dropShadow_0_1" result="shape"/>
</filter>
<filter id="filter6_d_0_1" x="747" y="744" width="144" height="143" filterUnits="userSpaceOnUse" color-interpolation-filters="sRGB">
<feFlood flood-opacity="0" result="BackgroundImageFix"/>
<feColorMatrix in="SourceAlpha" type="matrix" values="0 0 0 0 0 0 0 0 0 0 0 0 0 0 0 0 0 0 127 0" result="hardAlpha"/>
<feOffset dy="4"/>
<feGaussianBlur stdDeviation="2"/>
<feComposite in2="hardAlpha" operator="out"/>
<feColorMatrix type="matrix" values="0 0 0 0 0 0 0 0 0 0 0 0 0 0 0 0 0 0 0.25 0"/>
<feBlend mode="normal" in2="BackgroundImageFix" result="effect1_dropShadow_0_1"/>
<feBlend mode="normal" in="SourceGraphic" in2="effect1_dropShadow_0_1" result="shape"/>
</filter>
<filter id="filter7_d_0_1" x="885" y="744" width="162" height="143" filterUnits="userSpaceOnUse" color-interpolation-filters="sRGB">
<feFlood flood-opacity="0" result="BackgroundImageFix"/>
<feColorMatrix in="SourceAlpha" type="matrix" values="0 0 0 0 0 0 0 0 0 0 0 0 0 0 0 0 0 0 127 0" result="hardAlpha"/>
<feOffset dy="4"/>
<feGaussianBlur stdDeviation="2"/>
<feComposite in2="hardAlpha" operator="out"/>
<feColorMatrix type="matrix" values="0 0 0 0 0 0 0 0 0 0 0 0 0 0 0 0 0 0 0.25 0"/>
<feBlend mode="normal" in2="BackgroundImageFix" result="effect1_dropShadow_0_1"/>
<feBlend mode="normal" in="SourceGraphic" in2="effect1_dropShadow_0_1" result="shape"/>
</filter>
<filter id="filter8_d_0_1" x="1189" y="598" width="122" height="102" filterUnits="userSpaceOnUse" color-interpolation-filters="sRGB">
<feFlood flood-opacity="0" result="BackgroundImageFix"/>
<feColorMatrix in="SourceAlpha" type="matrix" values="0 0 0 0 0 0 0 0 0 0 0 0 0 0 0 0 0 0 127 0" result="hardAlpha"/>
<feOffset dy="4"/>
<feGaussianBlur stdDeviation="2"/>
<feComposite in2="hardAlpha" operator="out"/>
<feColorMatrix type="matrix" values="0 0 0 0 0 0 0 0 0 0 0 0 0 0 0 0 0 0 0.25 0"/>
<feBlend mode="normal" in2="BackgroundImageFix" result="effect1_dropShadow_0_1"/>
<feBlend mode="normal" in="SourceGraphic" in2="effect1_dropShadow_0_1" result="shape"/>
</filter>
<filter id="filter9_d_0_1" x="1037" y="601" width="96" height="50" filterUnits="userSpaceOnUse" color-interpolation-filters="sRGB">
<feFlood flood-opacity="0" result="BackgroundImageFix"/>
<feColorMatrix in="SourceAlpha" type="matrix" values="0 0 0 0 0 0 0 0 0 0 0 0 0 0 0 0 0 0 127 0" result="hardAlpha"/>
<feOffset dy="4"/>
<feGaussianBlur stdDeviation="2"/>
<feComposite in2="hardAlpha" operator="out"/>
<feColorMatrix type="matrix" values="0 0 0 0 0 0 0 0 0 0 0 0 0 0 0 0 0 0 0.25 0"/>
<feBlend mode="normal" in2="BackgroundImageFix" result="effect1_dropShadow_0_1"/>
<feBlend mode="normal" in="SourceGraphic" in2="effect1_dropShadow_0_1" result="shape"/>
</filter>
<filter id="filter10_d_0_1" x="1037" y="645" width="96" height="55" filterUnits="userSpaceOnUse" color-interpolation-filters="sRGB">
<feFlood flood-opacity="0" result="BackgroundImageFix"/>
<feColorMatrix in="SourceAlpha" type="matrix" values="0 0 0 0 0 0 0 0 0 0 0 0 0 0 0 0 0 0 127 0" result="hardAlpha"/>
<feOffset dy="4"/>
<feGaussianBlur stdDeviation="2"/>
<feComposite in2="hardAlpha" operator="out"/>
<feColorMatrix type="matrix" values="0 0 0 0 0 0 0 0 0 0 0 0 0 0 0 0 0 0 0.25 0"/>
<feBlend mode="normal" in2="BackgroundImageFix" result="effect1_dropShadow_0_1"/>
<feBlend mode="normal" in="SourceGraphic" in2="effect1_dropShadow_0_1" result="shape"/>
</filter>
<filter id="filter11_d_0_1" x="1127" y="621" width="36" height="47" filterUnits="userSpaceOnUse" color-interpolation-filters="sRGB">
<feFlood flood-opacity="0" result="BackgroundImageFix"/>
<feColorMatrix in="SourceAlpha" type="matrix" values="0 0 0 0 0 0 0 0 0 0 0 0 0 0 0 0 0 0 127 0" result="hardAlpha"/>
<feOffset dy="4"/>
<feGaussianBlur stdDeviation="2"/>
<feComposite in2="hardAlpha" operator="out"/>
<feColorMatrix type="matrix" values="0 0 0 0 0 0 0 0 0 0 0 0 0 0 0 0 0 0 0.25 0"/>
<feBlend mode="normal" in2="BackgroundImageFix" result="effect1_dropShadow_0_1"/>
<feBlend mode="normal" in="SourceGraphic" in2="effect1_dropShadow_0_1" result="shape"/>
</filter>
<filter id="filter12_d_0_1" x="1189" y="437" width="136" height="167" filterUnits="userSpaceOnUse" color-interpolation-filters="sRGB">
<feFlood flood-opacity="0" result="BackgroundImageFix"/>
<feColorMatrix in="SourceAlpha" type="matrix" values="0 0 0 0 0 0 0 0 0 0 0 0 0 0 0 0 0 0 127 0" result="hardAlpha"/>
<feOffset dy="4"/>
<feGaussianBlur stdDeviation="2"/>
<feComposite in2="hardAlpha" operator="out"/>
<feColorMatrix type="matrix" values="0 0 0 0 0 0 0 0 0 0 0 0 0 0 0 0 0 0 0.25 0"/>
<feBlend mode="normal" in2="BackgroundImageFix" result="effect1_dropShadow_0_1"/>
<feBlend mode="normal" in="SourceGraphic" in2="effect1_dropShadow_0_1" result="shape"/>
</filter>
<filter id="filter13_d_0_1" x="1189" y="286" width="136" height="157" filterUnits="userSpaceOnUse" color-interpolation-filters="sRGB">
<feFlood flood-opacity="0" result="BackgroundImageFix"/>
<feColorMatrix in="SourceAlpha" type="matrix" values="0 0 0 0 0 0 0 0 0 0 0 0 0 0 0 0 0 0 127 0" result="hardAlpha"/>
<feOffset dy="4"/>
<feGaussianBlur stdDeviation="2"/>
<feComposite in2="hardAlpha" operator="out"/>
<feColorMatrix type="matrix" values="0 0 0 0 0 0 0 0 0 0 0 0 0 0 0 0 0 0 0.25 0"/>
<feBlend mode="normal" in2="BackgroundImageFix" result="effect1_dropShadow_0_1"/>
<feBlend mode="normal" in="SourceGraphic" in2="effect1_dropShadow_0_1" result="shape"/>
</filter>
<filter id="filter14_d_0_1" x="1213" y="165" width="99" height="127" filterUnits="userSpaceOnUse" color-interpolation-filters="sRGB">
<feFlood flood-opacity="0" result="BackgroundImageFix"/>
<feColorMatrix in="SourceAlpha" type="matrix" values="0 0 0 0 0 0 0 0 0 0 0 0 0 0 0 0 0 0 127 0" result="hardAlpha"/>
<feOffset dy="4"/>
<feGaussianBlur stdDeviation="2"/>
<feComposite in2="hardAlpha" operator="out"/>
<feColorMatrix type="matrix" values="0 0 0 0 0 0 0 0 0 0 0 0 0 0 0 0 0 0 0.25 0"/>
<feBlend mode="normal" in2="BackgroundImageFix" result="effect1_dropShadow_0_1"/>
<feBlend mode="normal" in="SourceGraphic" in2="effect1_dropShadow_0_1" result="shape"/>
</filter>
<filter id="filter15_d_0_1" x="1027" y="165" width="124" height="184" filterUnits="userSpaceOnUse" color-interpolation-filters="sRGB">
<feFlood flood-opacity="0" result="BackgroundImageFix"/>
<feColorMatrix in="SourceAlpha" type="matrix" values="0 0 0 0 0 0 0 0 0 0 0 0 0 0 0 0 0 0 127 0" result="hardAlpha"/>
<feOffset dy="4"/>
<feGaussianBlur stdDeviation="2"/>
<feComposite in2="hardAlpha" operator="out"/>
<feColorMatrix type="matrix" values="0 0 0 0 0 0 0 0 0 0 0 0 0 0 0 0 0 0 0.25 0"/>
<feBlend mode="normal" in2="BackgroundImageFix" result="effect1_dropShadow_0_1"/>
<feBlend mode="normal" in="SourceGraphic" in2="effect1_dropShadow_0_1" result="shape"/>
</filter>
<filter id="filter16_d_0_1" x="1036" y="343" width="115" height="77" filterUnits="userSpaceOnUse" color-interpolation-filters="sRGB">
<feFlood flood-opacity="0" result="BackgroundImageFix"/>
<feColorMatrix in="SourceAlpha" type="matrix" values="0 0 0 0 0 0 0 0 0 0 0 0 0 0 0 0 0 0 127 0" result="hardAlpha"/>
<feOffset dy="4"/>
<feGaussianBlur stdDeviation="2"/>
<feComposite in2="hardAlpha" operator="out"/>
<feColorMatrix type="matrix" values="0 0 0 0 0 0 0 0 0 0 0 0 0 0 0 0 0 0 0.25 0"/>
<feBlend mode="normal" in2="BackgroundImageFix" result="effect1_dropShadow_0_1"/>
<feBlend mode="normal" in="SourceGraphic" in2="effect1_dropShadow_0_1" result="shape"/>
</filter>
<filter id="filter17_d_0_1" x="1036" y="414" width="115" height="146" filterUnits="userSpaceOnUse" color-interpolation-filters="sRGB">
<feFlood flood-opacity="0" result="BackgroundImageFix"/>
<feColorMatrix in="SourceAlpha" type="matrix" values="0 0 0 0 0 0 0 0 0 0 0 0 0 0 0 0 0 0 127 0" result="hardAlpha"/>
<feOffset dy="4"/>
<feGaussianBlur stdDeviation="2"/>
<feComposite in2="hardAlpha" operator="out"/>
<feColorMatrix type="matrix" values="0 0 0 0 0 0 0 0 0 0 0 0 0 0 0 0 0 0 0.25 0"/>
<feBlend mode="normal" in2="BackgroundImageFix" result="effect1_dropShadow_0_1"/>
<feBlend mode="normal" in="SourceGraphic" in2="effect1_dropShadow_0_1" result="shape"/>
</filter>
</defs>
</svg>
