<svg width="1842" height="998" viewBox="0 0 1842 998" fill="none" xmlns="http://www.w3.org/2000/svg">
<rect width="1842" height="998" fill="#1E1E1E"/>
<g id="Frame 1">
<rect width="1842" height="998" fill="white"/>
<path id="Rectangle 19" d="M1111.5 114.5H1363.72V239.195L1375 239.195V561.506H1360V731.379C1229.9 745.953 1162.41 767.295 1084.5 841H311V620.289H1023.5C1042.15 634.787 1053.87 641.784 1088.5 641.938V559.513H1077.5V501.228H1088.5V306.945H1080V118V114.5H1111.5Z" fill="#7E7E7E"/>
<g id="Group 1" filter="url(#filter0_f_0_1)">
<line id="Line 1" x1="455" y1="646" x2="455" y2="664" stroke="#4674FF" stroke-width="10"/>
<line id="Line 2" x1="541" y1="700" x2="559" y2="700" stroke="#4674FF" stroke-width="10"/>
<line id="Line 3" x1="602" y1="700" x2="620" y2="700" stroke="#4674FF" stroke-width="10"/>
<line id="Line 4" x1="643" y1="736" x2="661" y2="736" stroke="#4674FF" stroke-width="10"/>
<line id="Line 5" x1="832" y1="700" x2="850" y2="700" stroke="#4674FF" stroke-width="10"/>
<line id="Line 6" x1="963" y1="700" x2="981" y2="700" stroke="#4674FF" stroke-width="10"/>
<line id="Line 7" x1="1245" y1="592" x2="1245" y2="574" stroke="#4674FF" stroke-width="10"/>
<line id="Line 8" x1="1245" y1="495" x2="1245" y2="477" stroke="#4674FF" stroke-width="10"/>
<line id="Line 9" x1="1202" y1="473" x2="1202" y2="455" stroke="#4674FF" stroke-width="10"/>
<line id="Line 10" x1="1202" y1="348" x2="1202" y2="330" stroke="#4674FF" stroke-width="10"/>
<line id="Line 11" x1="1245" y1="386" x2="1245" y2="368" stroke="#4674FF" stroke-width="10"/>
<line id="Line 12" x1="1202" y1="284" x2="1202" y2="266" stroke="#4674FF" stroke-width="10"/>
<line id="Line 13" x1="1202" y1="236" x2="1202" y2="218" stroke="#4674FF" stroke-width="10"/>
<line id="Line 14" x1="1270" y1="234" x2="1270" y2="216" stroke="#4674FF" stroke-width="10"/>
</g>
<rect id="305b" x="317" y="630" width="138" height="204" fill="#D9D9D9"/>
<g id="304b" filter="url(#filter1_d_0_1)">
<rect x="457" y="700" width="128" height="134" fill="#D9D9D9"/>
</g>
<g id="336" filter="url(#filter2_d_0_1)">
<rect x="587" y="700" width="51" height="134" fill="#D9D9D9"/>
</g>
<g id="303b" filter="url(#filter3_d_0_1)">
<rect x="640" y="736" width="125" height="98" fill="#D9D9D9"/>
</g>
<g id="wc-5b" filter="url(#filter4_d_0_1)">
<rect x="663" y="700" width="102" height="34" fill="#D9D9D9"/>
</g>
<g id="302b" filter="url(#filter5_d_0_1)">
<rect x="814" y="700" width="132" height="134" fill="#D9D9D9"/>
</g>
<g id="301b" filter="url(#filter6_d_0_1)">
<path d="M948 700H1100V817L1084 834H948V700Z" fill="#D9D9D9"/>
</g>
<g id="311b" filter="url(#filter7_d_0_1)">
<rect x="1245" y="558" width="110" height="93" fill="#D9D9D9"/>
</g>
<g id="wc-3b" filter="url(#filter8_d_0_1)">
<rect x="1096" y="560" width="85" height="40" fill="#D9D9D9"/>
</g>
<g id="wc-4b" filter="url(#filter9_d_0_1)">
<rect x="1096" y="602" width="85" height="46" fill="#D9D9D9"/>
</g>
<g id="Rectangle 11" filter="url(#filter10_d_0_1)">
<rect x="1183" y="581" width="27" height="36" fill="#D9D9D9"/>
</g>
<g id="310b" filter="url(#filter11_d_0_1)">
<rect x="1245" y="403" width="126" height="153" fill="#D9D9D9"/>
</g>
<g id="309b" filter="url(#filter12_d_0_1)">
<rect x="1245" y="244" width="126" height="157" fill="#D9D9D9"/>
</g>
<g id="308b" filter="url(#filter13_d_0_1)">
<rect x="1270" y="120" width="89" height="122" fill="#D9D9D9"/>
</g>
<g id="306b" filter="url(#filter14_d_0_1)">
<path d="M1094 411H1202V501.5H1094V411Z" fill="#D9D9D9"/>
</g>
<g id="307b" filter="url(#filter15_d_0_1)">
<rect x="1094" y="300" width="108" height="109" fill="#D9D9D9"/>
</g>
<g id="312b" filter="url(#filter16_d_0_1)">
<rect x="1086" y="247" width="116" height="51" fill="#D9D9D9"/>
</g>
<g id="teachersb" filter="url(#filter17_d_0_1)">
<path d="M1086 120.5H1202V245H1086V120.5Z" fill="#D9D9D9"/>
</g>
<path id="305&#208;&#177;" d="M346.489 746.318C344.792 746.318 343.28 746.027 341.955 745.443C340.636 744.852 339.595 744.042 338.83 743.011C338.072 741.973 337.682 740.777 337.659 739.42H342.614C342.644 739.989 342.83 740.489 343.17 740.92C343.519 741.345 343.981 741.674 344.557 741.909C345.133 742.144 345.78 742.261 346.5 742.261C347.25 742.261 347.913 742.129 348.489 741.864C349.064 741.598 349.515 741.231 349.841 740.761C350.167 740.292 350.33 739.75 350.33 739.136C350.33 738.515 350.155 737.966 349.807 737.489C349.466 737.004 348.973 736.625 348.33 736.352C347.693 736.08 346.936 735.943 346.057 735.943H343.886V732.33H346.057C346.799 732.33 347.455 732.201 348.023 731.943C348.598 731.686 349.045 731.33 349.364 730.875C349.682 730.413 349.841 729.875 349.841 729.261C349.841 728.678 349.701 728.167 349.42 727.727C349.148 727.28 348.761 726.932 348.261 726.682C347.769 726.432 347.193 726.307 346.534 726.307C345.867 726.307 345.258 726.428 344.705 726.67C344.152 726.905 343.708 727.242 343.375 727.682C343.042 728.121 342.864 728.636 342.841 729.227H338.125C338.148 727.886 338.53 726.705 339.273 725.682C340.015 724.659 341.015 723.86 342.273 723.284C343.538 722.701 344.966 722.409 346.557 722.409C348.163 722.409 349.568 722.701 350.773 723.284C351.977 723.867 352.913 724.655 353.58 725.648C354.254 726.633 354.587 727.739 354.58 728.966C354.587 730.269 354.182 731.356 353.364 732.227C352.553 733.098 351.496 733.652 350.193 733.886V734.068C351.905 734.288 353.208 734.883 354.102 735.852C355.004 736.814 355.451 738.019 355.443 739.466C355.451 740.792 355.068 741.97 354.295 743C353.53 744.03 352.473 744.841 351.125 745.432C349.777 746.023 348.231 746.318 346.489 746.318ZM368.105 746.511C366.151 746.504 364.469 746.023 363.06 745.068C361.658 744.114 360.579 742.731 359.821 740.92C359.071 739.11 358.7 736.932 358.707 734.386C358.707 731.848 359.082 729.686 359.832 727.898C360.59 726.11 361.67 724.75 363.071 723.818C364.48 722.879 366.158 722.409 368.105 722.409C370.052 722.409 371.726 722.879 373.128 723.818C374.537 724.758 375.62 726.121 376.378 727.909C377.135 729.689 377.51 731.848 377.503 734.386C377.503 736.939 377.124 739.121 376.366 740.932C375.616 742.742 374.541 744.125 373.139 745.08C371.738 746.034 370.06 746.511 368.105 746.511ZM368.105 742.432C369.438 742.432 370.503 741.761 371.298 740.42C372.094 739.08 372.488 737.068 372.48 734.386C372.48 732.621 372.298 731.152 371.935 729.977C371.579 728.803 371.071 727.92 370.412 727.33C369.76 726.739 368.991 726.443 368.105 726.443C366.779 726.443 365.719 727.106 364.923 728.432C364.128 729.758 363.726 731.742 363.719 734.386C363.719 736.174 363.897 737.667 364.253 738.864C364.616 740.053 365.128 740.947 365.787 741.545C366.446 742.136 367.219 742.432 368.105 742.432ZM389.511 746.318C387.905 746.318 386.473 746.023 385.216 745.432C383.966 744.841 382.973 744.027 382.239 742.989C381.504 741.951 381.121 740.761 381.091 739.42H385.864C385.917 740.322 386.295 741.053 387 741.614C387.705 742.174 388.542 742.455 389.511 742.455C390.284 742.455 390.966 742.284 391.557 741.943C392.155 741.595 392.621 741.114 392.955 740.5C393.295 739.879 393.466 739.167 393.466 738.364C393.466 737.545 393.292 736.826 392.943 736.205C392.602 735.583 392.129 735.098 391.523 734.75C390.917 734.402 390.223 734.223 389.443 734.216C388.761 734.216 388.098 734.356 387.455 734.636C386.818 734.917 386.322 735.299 385.966 735.784L381.591 735L382.693 722.727H396.92V726.75H386.75L386.148 732.58H386.284C386.693 732.004 387.311 731.527 388.136 731.148C388.962 730.769 389.886 730.58 390.909 730.58C392.311 730.58 393.561 730.909 394.659 731.568C395.758 732.227 396.625 733.133 397.261 734.284C397.898 735.428 398.212 736.746 398.205 738.239C398.212 739.807 397.848 741.201 397.114 742.42C396.386 743.633 395.367 744.587 394.057 745.284C392.754 745.973 391.239 746.318 389.511 746.318ZM416.193 722.136L417.67 725.295C417.178 725.705 416.633 726.008 416.034 726.205C415.436 726.394 414.72 726.519 413.886 726.58C413.061 726.64 412.053 726.682 410.864 726.705C409.515 726.72 408.417 726.936 407.568 727.352C406.72 727.769 406.076 728.424 405.636 729.318C405.197 730.205 404.909 731.364 404.773 732.795H404.943C405.466 731.727 406.201 730.902 407.148 730.318C408.102 729.735 409.28 729.443 410.682 729.443C412.167 729.443 413.466 729.769 414.58 730.42C415.701 731.072 416.572 732.008 417.193 733.227C417.814 734.447 418.125 735.909 418.125 737.614C418.125 739.386 417.777 740.928 417.08 742.239C416.39 743.542 415.409 744.553 414.136 745.273C412.864 745.985 411.348 746.341 409.591 746.341C407.826 746.341 406.303 745.97 405.023 745.227C403.75 744.485 402.765 743.39 402.068 741.943C401.379 740.496 401.034 738.716 401.034 736.602V735.17C401.034 730.966 401.852 727.848 403.489 725.818C405.125 723.788 407.53 722.758 410.705 722.727C411.568 722.712 412.348 722.708 413.045 722.716C413.742 722.723 414.352 722.689 414.875 722.614C415.405 722.538 415.845 722.379 416.193 722.136ZM409.614 742.591C410.356 742.591 410.992 742.398 411.523 742.011C412.061 741.625 412.473 741.072 412.761 740.352C413.057 739.633 413.205 738.773 413.205 737.773C413.205 736.78 413.057 735.939 412.761 735.25C412.473 734.553 412.061 734.023 411.523 733.659C410.985 733.295 410.341 733.114 409.591 733.114C409.03 733.114 408.527 733.216 408.08 733.42C407.633 733.625 407.25 733.928 406.932 734.33C406.621 734.723 406.379 735.212 406.205 735.795C406.038 736.371 405.955 737.03 405.955 737.773C405.955 739.265 406.277 740.443 406.92 741.307C407.572 742.163 408.47 742.591 409.614 742.591Z" fill="#7E7E7E"/>
<path id="304&#208;&#177;" d="M487.489 780.318C485.792 780.318 484.28 780.027 482.955 779.443C481.636 778.852 480.595 778.042 479.83 777.011C479.072 775.973 478.682 774.777 478.659 773.42H483.614C483.644 773.989 483.83 774.489 484.17 774.92C484.519 775.345 484.981 775.674 485.557 775.909C486.133 776.144 486.78 776.261 487.5 776.261C488.25 776.261 488.913 776.129 489.489 775.864C490.064 775.598 490.515 775.231 490.841 774.761C491.167 774.292 491.33 773.75 491.33 773.136C491.33 772.515 491.155 771.966 490.807 771.489C490.466 771.004 489.973 770.625 489.33 770.352C488.693 770.08 487.936 769.943 487.057 769.943H484.886V766.33H487.057C487.799 766.33 488.455 766.201 489.023 765.943C489.598 765.686 490.045 765.33 490.364 764.875C490.682 764.413 490.841 763.875 490.841 763.261C490.841 762.678 490.701 762.167 490.42 761.727C490.148 761.28 489.761 760.932 489.261 760.682C488.769 760.432 488.193 760.307 487.534 760.307C486.867 760.307 486.258 760.428 485.705 760.67C485.152 760.905 484.708 761.242 484.375 761.682C484.042 762.121 483.864 762.636 483.841 763.227H479.125C479.148 761.886 479.53 760.705 480.273 759.682C481.015 758.659 482.015 757.86 483.273 757.284C484.538 756.701 485.966 756.409 487.557 756.409C489.163 756.409 490.568 756.701 491.773 757.284C492.977 757.867 493.913 758.655 494.58 759.648C495.254 760.633 495.587 761.739 495.58 762.966C495.587 764.269 495.182 765.356 494.364 766.227C493.553 767.098 492.496 767.652 491.193 767.886V768.068C492.905 768.288 494.208 768.883 495.102 769.852C496.004 770.814 496.451 772.019 496.443 773.466C496.451 774.792 496.068 775.97 495.295 777C494.53 778.03 493.473 778.841 492.125 779.432C490.777 780.023 489.231 780.318 487.489 780.318ZM509.105 780.511C507.151 780.504 505.469 780.023 504.06 779.068C502.658 778.114 501.579 776.731 500.821 774.92C500.071 773.11 499.7 770.932 499.707 768.386C499.707 765.848 500.082 763.686 500.832 761.898C501.59 760.11 502.67 758.75 504.071 757.818C505.48 756.879 507.158 756.409 509.105 756.409C511.052 756.409 512.726 756.879 514.128 757.818C515.537 758.758 516.62 760.121 517.378 761.909C518.135 763.689 518.51 765.848 518.503 768.386C518.503 770.939 518.124 773.121 517.366 774.932C516.616 776.742 515.541 778.125 514.139 779.08C512.738 780.034 511.06 780.511 509.105 780.511ZM509.105 776.432C510.438 776.432 511.503 775.761 512.298 774.42C513.094 773.08 513.488 771.068 513.48 768.386C513.48 766.621 513.298 765.152 512.935 763.977C512.579 762.803 512.071 761.92 511.412 761.33C510.76 760.739 509.991 760.443 509.105 760.443C507.779 760.443 506.719 761.106 505.923 762.432C505.128 763.758 504.726 765.742 504.719 768.386C504.719 770.174 504.897 771.667 505.253 772.864C505.616 774.053 506.128 774.947 506.787 775.545C507.446 776.136 508.219 776.432 509.105 776.432ZM521.659 775.909V772.034L531.375 756.727H534.716V762.091H532.739L526.614 771.784V771.966H540.42V775.909H521.659ZM532.83 780V774.727L532.92 773.011V756.727H537.534V780H532.83ZM558.256 756.136L559.733 759.295C559.241 759.705 558.695 760.008 558.097 760.205C557.498 760.394 556.782 760.519 555.949 760.58C555.123 760.64 554.116 760.682 552.926 760.705C551.578 760.72 550.479 760.936 549.631 761.352C548.782 761.769 548.138 762.424 547.699 763.318C547.259 764.205 546.972 765.364 546.835 766.795H547.006C547.528 765.727 548.263 764.902 549.21 764.318C550.165 763.735 551.343 763.443 552.744 763.443C554.229 763.443 555.528 763.769 556.642 764.42C557.763 765.072 558.634 766.008 559.256 767.227C559.877 768.447 560.188 769.909 560.188 771.614C560.188 773.386 559.839 774.928 559.142 776.239C558.453 777.542 557.472 778.553 556.199 779.273C554.926 779.985 553.411 780.341 551.653 780.341C549.888 780.341 548.366 779.97 547.085 779.227C545.813 778.485 544.828 777.39 544.131 775.943C543.441 774.496 543.097 772.716 543.097 770.602V769.17C543.097 764.966 543.915 761.848 545.551 759.818C547.188 757.788 549.593 756.758 552.767 756.727C553.631 756.712 554.411 756.708 555.108 756.716C555.805 756.723 556.415 756.689 556.938 756.614C557.468 756.538 557.907 756.379 558.256 756.136ZM551.676 776.591C552.419 776.591 553.055 776.398 553.585 776.011C554.123 775.625 554.536 775.072 554.824 774.352C555.119 773.633 555.267 772.773 555.267 771.773C555.267 770.78 555.119 769.939 554.824 769.25C554.536 768.553 554.123 768.023 553.585 767.659C553.047 767.295 552.403 767.114 551.653 767.114C551.093 767.114 550.589 767.216 550.142 767.42C549.695 767.625 549.313 767.928 548.994 768.33C548.684 768.723 548.441 769.212 548.267 769.795C548.1 770.371 548.017 771.03 548.017 771.773C548.017 773.265 548.339 774.443 548.983 775.307C549.634 776.163 550.532 776.591 551.676 776.591Z" fill="#7E7E7E"/>
<path id="336_2" d="M599.682 740.489C599.682 738.792 599.973 737.28 600.557 735.955C601.148 734.636 601.958 733.595 602.989 732.83C604.027 732.072 605.223 731.682 606.58 731.659V736.614C606.011 736.644 605.511 736.83 605.08 737.17C604.655 737.519 604.326 737.981 604.091 738.557C603.856 739.133 603.739 739.78 603.739 740.5C603.739 741.25 603.871 741.913 604.136 742.489C604.402 743.064 604.769 743.515 605.239 743.841C605.708 744.167 606.25 744.33 606.864 744.33C607.485 744.33 608.034 744.155 608.511 743.807C608.996 743.466 609.375 742.973 609.648 742.33C609.92 741.693 610.057 740.936 610.057 740.057V737.886H613.67V740.057C613.67 740.799 613.799 741.455 614.057 742.023C614.314 742.598 614.67 743.045 615.125 743.364C615.587 743.682 616.125 743.841 616.739 743.841C617.322 743.841 617.833 743.701 618.273 743.42C618.72 743.148 619.068 742.761 619.318 742.261C619.568 741.769 619.693 741.193 619.693 740.534C619.693 739.867 619.572 739.258 619.33 738.705C619.095 738.152 618.758 737.708 618.318 737.375C617.879 737.042 617.364 736.864 616.773 736.841V732.125C618.114 732.148 619.295 732.53 620.318 733.273C621.341 734.015 622.14 735.015 622.716 736.273C623.299 737.538 623.591 738.966 623.591 740.557C623.591 742.163 623.299 743.568 622.716 744.773C622.133 745.977 621.345 746.913 620.352 747.58C619.367 748.254 618.261 748.587 617.034 748.58C615.731 748.587 614.644 748.182 613.773 747.364C612.902 746.553 612.348 745.496 612.114 744.193H611.932C611.712 745.905 611.117 747.208 610.148 748.102C609.186 749.004 607.981 749.451 606.534 749.443C605.208 749.451 604.03 749.068 603 748.295C601.97 747.53 601.159 746.473 600.568 745.125C599.977 743.777 599.682 742.231 599.682 740.489ZM599.682 761.582C599.682 759.885 599.973 758.374 600.557 757.048C601.148 755.73 601.958 754.688 602.989 753.923C604.027 753.166 605.223 752.776 606.58 752.753V757.707C606.011 757.738 605.511 757.923 605.08 758.264C604.655 758.613 604.326 759.075 604.091 759.651C603.856 760.226 603.739 760.874 603.739 761.594C603.739 762.344 603.871 763.007 604.136 763.582C604.402 764.158 604.769 764.609 605.239 764.935C605.708 765.26 606.25 765.423 606.864 765.423C607.485 765.423 608.034 765.249 608.511 764.901C608.996 764.56 609.375 764.067 609.648 763.423C609.92 762.787 610.057 762.029 610.057 761.151V758.98H613.67V761.151C613.67 761.893 613.799 762.548 614.057 763.116C614.314 763.692 614.67 764.139 615.125 764.457C615.587 764.776 616.125 764.935 616.739 764.935C617.322 764.935 617.833 764.795 618.273 764.514C618.72 764.241 619.068 763.855 619.318 763.355C619.568 762.863 619.693 762.287 619.693 761.628C619.693 760.961 619.572 760.351 619.33 759.798C619.095 759.245 618.758 758.802 618.318 758.469C617.879 758.135 617.364 757.957 616.773 757.935V753.219C618.114 753.241 619.295 753.624 620.318 754.366C621.341 755.109 622.14 756.109 622.716 757.366C623.299 758.632 623.591 760.06 623.591 761.651C623.591 763.257 623.299 764.662 622.716 765.866C622.133 767.071 621.345 768.007 620.352 768.673C619.367 769.348 618.261 769.681 617.034 769.673C615.731 769.681 614.644 769.276 613.773 768.457C612.902 767.647 612.348 766.59 612.114 765.287H611.932C611.712 766.999 611.117 768.302 610.148 769.196C609.186 770.098 607.981 770.545 606.534 770.537C605.208 770.545 604.03 770.162 603 769.389C601.97 768.624 601.159 767.567 600.568 766.219C599.977 764.87 599.682 763.325 599.682 761.582ZM599.682 783.006C599.689 781.809 599.89 780.653 600.284 779.54C600.678 778.434 601.318 777.441 602.205 776.562C603.091 775.684 604.265 774.987 605.727 774.472C607.189 773.964 608.985 773.71 611.114 773.71C613.068 773.718 614.814 773.941 616.352 774.381C617.898 774.828 619.208 775.464 620.284 776.29C621.36 777.123 622.178 778.119 622.739 779.278C623.307 780.438 623.591 781.737 623.591 783.176C623.591 784.729 623.288 786.1 622.682 787.29C622.083 788.479 621.269 789.434 620.239 790.153C619.208 790.881 618.053 791.32 616.773 791.472V786.619C617.583 786.43 618.22 786.032 618.682 785.426C619.144 784.82 619.375 784.07 619.375 783.176C619.375 781.661 618.716 780.509 617.398 779.722C616.08 778.941 614.288 778.544 612.023 778.528V778.688C612.712 779.036 613.299 779.506 613.784 780.097C614.277 780.695 614.652 781.373 614.909 782.131C615.174 782.896 615.307 783.703 615.307 784.551C615.307 785.93 614.981 787.157 614.33 788.233C613.686 789.309 612.799 790.157 611.67 790.778C610.542 791.4 609.25 791.71 607.795 791.71C606.22 791.71 604.818 791.343 603.591 790.608C602.364 789.881 601.402 788.862 600.705 787.551C600.015 786.248 599.674 784.733 599.682 783.006ZM603.545 782.983C603.545 783.741 603.727 784.419 604.091 785.017C604.455 785.616 604.947 786.085 605.568 786.426C606.189 786.767 606.886 786.938 607.659 786.938C608.432 786.938 609.125 786.767 609.739 786.426C610.352 786.093 610.841 785.631 611.205 785.04C611.568 784.449 611.75 783.775 611.75 783.017C611.75 782.449 611.644 781.922 611.432 781.438C611.22 780.96 610.924 780.54 610.545 780.176C610.167 779.82 609.727 779.54 609.227 779.335C608.735 779.131 608.208 779.028 607.648 779.028C606.898 779.028 606.212 779.199 605.591 779.54C604.97 779.888 604.473 780.358 604.102 780.949C603.731 781.547 603.545 782.225 603.545 782.983Z" fill="#7E7E7E"/>
<path id="303&#208;&#177;" d="M669.489 795.318C667.792 795.318 666.28 795.027 664.955 794.443C663.636 793.852 662.595 793.042 661.83 792.011C661.072 790.973 660.682 789.777 660.659 788.42H665.614C665.644 788.989 665.83 789.489 666.17 789.92C666.519 790.345 666.981 790.674 667.557 790.909C668.133 791.144 668.78 791.261 669.5 791.261C670.25 791.261 670.913 791.129 671.489 790.864C672.064 790.598 672.515 790.231 672.841 789.761C673.167 789.292 673.33 788.75 673.33 788.136C673.33 787.515 673.155 786.966 672.807 786.489C672.466 786.004 671.973 785.625 671.33 785.352C670.693 785.08 669.936 784.943 669.057 784.943H666.886V781.33H669.057C669.799 781.33 670.455 781.201 671.023 780.943C671.598 780.686 672.045 780.33 672.364 779.875C672.682 779.413 672.841 778.875 672.841 778.261C672.841 777.678 672.701 777.167 672.42 776.727C672.148 776.28 671.761 775.932 671.261 775.682C670.769 775.432 670.193 775.307 669.534 775.307C668.867 775.307 668.258 775.428 667.705 775.67C667.152 775.905 666.708 776.242 666.375 776.682C666.042 777.121 665.864 777.636 665.841 778.227H661.125C661.148 776.886 661.53 775.705 662.273 774.682C663.015 773.659 664.015 772.86 665.273 772.284C666.538 771.701 667.966 771.409 669.557 771.409C671.163 771.409 672.568 771.701 673.773 772.284C674.977 772.867 675.913 773.655 676.58 774.648C677.254 775.633 677.587 776.739 677.58 777.966C677.587 779.269 677.182 780.356 676.364 781.227C675.553 782.098 674.496 782.652 673.193 782.886V783.068C674.905 783.288 676.208 783.883 677.102 784.852C678.004 785.814 678.451 787.019 678.443 788.466C678.451 789.792 678.068 790.97 677.295 792C676.53 793.03 675.473 793.841 674.125 794.432C672.777 795.023 671.231 795.318 669.489 795.318ZM691.105 795.511C689.151 795.504 687.469 795.023 686.06 794.068C684.658 793.114 683.579 791.731 682.821 789.92C682.071 788.11 681.7 785.932 681.707 783.386C681.707 780.848 682.082 778.686 682.832 776.898C683.59 775.11 684.67 773.75 686.071 772.818C687.48 771.879 689.158 771.409 691.105 771.409C693.052 771.409 694.726 771.879 696.128 772.818C697.537 773.758 698.62 775.121 699.378 776.909C700.135 778.689 700.51 780.848 700.503 783.386C700.503 785.939 700.124 788.121 699.366 789.932C698.616 791.742 697.541 793.125 696.139 794.08C694.738 795.034 693.06 795.511 691.105 795.511ZM691.105 791.432C692.438 791.432 693.503 790.761 694.298 789.42C695.094 788.08 695.488 786.068 695.48 783.386C695.48 781.621 695.298 780.152 694.935 778.977C694.579 777.803 694.071 776.92 693.412 776.33C692.76 775.739 691.991 775.443 691.105 775.443C689.779 775.443 688.719 776.106 687.923 777.432C687.128 778.758 686.726 780.742 686.719 783.386C686.719 785.174 686.897 786.667 687.253 787.864C687.616 789.053 688.128 789.947 688.787 790.545C689.446 791.136 690.219 791.432 691.105 791.432ZM712.614 795.318C710.917 795.318 709.405 795.027 708.08 794.443C706.761 793.852 705.72 793.042 704.955 792.011C704.197 790.973 703.807 789.777 703.784 788.42H708.739C708.769 788.989 708.955 789.489 709.295 789.92C709.644 790.345 710.106 790.674 710.682 790.909C711.258 791.144 711.905 791.261 712.625 791.261C713.375 791.261 714.038 791.129 714.614 790.864C715.189 790.598 715.64 790.231 715.966 789.761C716.292 789.292 716.455 788.75 716.455 788.136C716.455 787.515 716.28 786.966 715.932 786.489C715.591 786.004 715.098 785.625 714.455 785.352C713.818 785.08 713.061 784.943 712.182 784.943H710.011V781.33H712.182C712.924 781.33 713.58 781.201 714.148 780.943C714.723 780.686 715.17 780.33 715.489 779.875C715.807 779.413 715.966 778.875 715.966 778.261C715.966 777.678 715.826 777.167 715.545 776.727C715.273 776.28 714.886 775.932 714.386 775.682C713.894 775.432 713.318 775.307 712.659 775.307C711.992 775.307 711.383 775.428 710.83 775.67C710.277 775.905 709.833 776.242 709.5 776.682C709.167 777.121 708.989 777.636 708.966 778.227H704.25C704.273 776.886 704.655 775.705 705.398 774.682C706.14 773.659 707.14 772.86 708.398 772.284C709.663 771.701 711.091 771.409 712.682 771.409C714.288 771.409 715.693 771.701 716.898 772.284C718.102 772.867 719.038 773.655 719.705 774.648C720.379 775.633 720.712 776.739 720.705 777.966C720.712 779.269 720.307 780.356 719.489 781.227C718.678 782.098 717.621 782.652 716.318 782.886V783.068C718.03 783.288 719.333 783.883 720.227 784.852C721.129 785.814 721.576 787.019 721.568 788.466C721.576 789.792 721.193 790.97 720.42 792C719.655 793.03 718.598 793.841 717.25 794.432C715.902 795.023 714.356 795.318 712.614 795.318ZM739.662 771.136L741.139 774.295C740.647 774.705 740.101 775.008 739.503 775.205C738.904 775.394 738.188 775.519 737.355 775.58C736.529 775.64 735.522 775.682 734.332 775.705C732.984 775.72 731.885 775.936 731.037 776.352C730.188 776.769 729.545 777.424 729.105 778.318C728.666 779.205 728.378 780.364 728.241 781.795H728.412C728.935 780.727 729.67 779.902 730.616 779.318C731.571 778.735 732.749 778.443 734.151 778.443C735.635 778.443 736.935 778.769 738.048 779.42C739.17 780.072 740.041 781.008 740.662 782.227C741.283 783.447 741.594 784.909 741.594 786.614C741.594 788.386 741.245 789.928 740.548 791.239C739.859 792.542 738.878 793.553 737.605 794.273C736.332 794.985 734.817 795.341 733.06 795.341C731.295 795.341 729.772 794.97 728.491 794.227C727.219 793.485 726.234 792.39 725.537 790.943C724.848 789.496 724.503 787.716 724.503 785.602V784.17C724.503 779.966 725.321 776.848 726.957 774.818C728.594 772.788 730.999 771.758 734.173 771.727C735.037 771.712 735.817 771.708 736.514 771.716C737.211 771.723 737.821 771.689 738.344 771.614C738.874 771.538 739.313 771.379 739.662 771.136ZM733.082 791.591C733.825 791.591 734.461 791.398 734.991 791.011C735.529 790.625 735.942 790.072 736.23 789.352C736.526 788.633 736.673 787.773 736.673 786.773C736.673 785.78 736.526 784.939 736.23 784.25C735.942 783.553 735.529 783.023 734.991 782.659C734.454 782.295 733.81 782.114 733.06 782.114C732.499 782.114 731.995 782.216 731.548 782.42C731.101 782.625 730.719 782.928 730.401 783.33C730.09 783.723 729.848 784.212 729.673 784.795C729.507 785.371 729.423 786.03 729.423 786.773C729.423 788.265 729.745 789.443 730.389 790.307C731.041 791.163 731.938 791.591 733.082 791.591Z" fill="#7E7E7E"/>
<path id="302&#208;&#177;" d="M842.489 780.318C840.792 780.318 839.28 780.027 837.955 779.443C836.636 778.852 835.595 778.042 834.83 777.011C834.072 775.973 833.682 774.777 833.659 773.42H838.614C838.644 773.989 838.83 774.489 839.17 774.92C839.519 775.345 839.981 775.674 840.557 775.909C841.133 776.144 841.78 776.261 842.5 776.261C843.25 776.261 843.913 776.129 844.489 775.864C845.064 775.598 845.515 775.231 845.841 774.761C846.167 774.292 846.33 773.75 846.33 773.136C846.33 772.515 846.155 771.966 845.807 771.489C845.466 771.004 844.973 770.625 844.33 770.352C843.693 770.08 842.936 769.943 842.057 769.943H839.886V766.33H842.057C842.799 766.33 843.455 766.201 844.023 765.943C844.598 765.686 845.045 765.33 845.364 764.875C845.682 764.413 845.841 763.875 845.841 763.261C845.841 762.678 845.701 762.167 845.42 761.727C845.148 761.28 844.761 760.932 844.261 760.682C843.769 760.432 843.193 760.307 842.534 760.307C841.867 760.307 841.258 760.428 840.705 760.67C840.152 760.905 839.708 761.242 839.375 761.682C839.042 762.121 838.864 762.636 838.841 763.227H834.125C834.148 761.886 834.53 760.705 835.273 759.682C836.015 758.659 837.015 757.86 838.273 757.284C839.538 756.701 840.966 756.409 842.557 756.409C844.163 756.409 845.568 756.701 846.773 757.284C847.977 757.867 848.913 758.655 849.58 759.648C850.254 760.633 850.587 761.739 850.58 762.966C850.587 764.269 850.182 765.356 849.364 766.227C848.553 767.098 847.496 767.652 846.193 767.886V768.068C847.905 768.288 849.208 768.883 850.102 769.852C851.004 770.814 851.451 772.019 851.443 773.466C851.451 774.792 851.068 775.97 850.295 777C849.53 778.03 848.473 778.841 847.125 779.432C845.777 780.023 844.231 780.318 842.489 780.318ZM864.105 780.511C862.151 780.504 860.469 780.023 859.06 779.068C857.658 778.114 856.579 776.731 855.821 774.92C855.071 773.11 854.7 770.932 854.707 768.386C854.707 765.848 855.082 763.686 855.832 761.898C856.59 760.11 857.67 758.75 859.071 757.818C860.48 756.879 862.158 756.409 864.105 756.409C866.052 756.409 867.726 756.879 869.128 757.818C870.537 758.758 871.62 760.121 872.378 761.909C873.135 763.689 873.51 765.848 873.503 768.386C873.503 770.939 873.124 773.121 872.366 774.932C871.616 776.742 870.541 778.125 869.139 779.08C867.738 780.034 866.06 780.511 864.105 780.511ZM864.105 776.432C865.438 776.432 866.503 775.761 867.298 774.42C868.094 773.08 868.488 771.068 868.48 768.386C868.48 766.621 868.298 765.152 867.935 763.977C867.579 762.803 867.071 761.92 866.412 761.33C865.76 760.739 864.991 760.443 864.105 760.443C862.779 760.443 861.719 761.106 860.923 762.432C860.128 763.758 859.726 765.742 859.719 768.386C859.719 770.174 859.897 771.667 860.253 772.864C860.616 774.053 861.128 774.947 861.787 775.545C862.446 776.136 863.219 776.432 864.105 776.432ZM877.011 780V776.455L885.295 768.784C886 768.102 886.591 767.489 887.068 766.943C887.553 766.398 887.92 765.864 888.17 765.341C888.42 764.811 888.545 764.239 888.545 763.625C888.545 762.943 888.39 762.356 888.08 761.864C887.769 761.364 887.345 760.981 886.807 760.716C886.269 760.443 885.659 760.307 884.977 760.307C884.265 760.307 883.644 760.451 883.114 760.739C882.583 761.027 882.174 761.439 881.886 761.977C881.598 762.515 881.455 763.155 881.455 763.898H876.784C876.784 762.375 877.129 761.053 877.818 759.932C878.508 758.811 879.473 757.943 880.716 757.33C881.958 756.716 883.39 756.409 885.011 756.409C886.678 756.409 888.129 756.705 889.364 757.295C890.606 757.879 891.572 758.689 892.261 759.727C892.951 760.765 893.295 761.955 893.295 763.295C893.295 764.174 893.121 765.042 892.773 765.898C892.432 766.754 891.822 767.705 890.943 768.75C890.064 769.788 888.826 771.034 887.227 772.489L883.83 775.818V775.977H893.602V780H877.011ZM911.724 756.136L913.202 759.295C912.709 759.705 912.164 760.008 911.565 760.205C910.967 760.394 910.251 760.519 909.418 760.58C908.592 760.64 907.584 760.682 906.395 760.705C905.046 760.72 903.948 760.936 903.099 761.352C902.251 761.769 901.607 762.424 901.168 763.318C900.728 764.205 900.44 765.364 900.304 766.795H900.474C900.997 765.727 901.732 764.902 902.679 764.318C903.634 763.735 904.812 763.443 906.213 763.443C907.698 763.443 908.997 763.769 910.111 764.42C911.232 765.072 912.103 766.008 912.724 767.227C913.346 768.447 913.656 769.909 913.656 771.614C913.656 773.386 913.308 774.928 912.611 776.239C911.921 777.542 910.94 778.553 909.668 779.273C908.395 779.985 906.88 780.341 905.122 780.341C903.357 780.341 901.834 779.97 900.554 779.227C899.281 778.485 898.296 777.39 897.599 775.943C896.91 774.496 896.565 772.716 896.565 770.602V769.17C896.565 764.966 897.384 761.848 899.02 759.818C900.656 757.788 903.062 756.758 906.236 756.727C907.099 756.712 907.88 756.708 908.577 756.716C909.274 756.723 909.884 756.689 910.406 756.614C910.937 756.538 911.376 756.379 911.724 756.136ZM905.145 776.591C905.887 776.591 906.524 776.398 907.054 776.011C907.592 775.625 908.005 775.072 908.293 774.352C908.588 773.633 908.736 772.773 908.736 771.773C908.736 770.78 908.588 769.939 908.293 769.25C908.005 768.553 907.592 768.023 907.054 767.659C906.516 767.295 905.872 767.114 905.122 767.114C904.562 767.114 904.058 767.216 903.611 767.42C903.164 767.625 902.781 767.928 902.463 768.33C902.152 768.723 901.91 769.212 901.736 769.795C901.569 770.371 901.486 771.03 901.486 771.773C901.486 773.265 901.808 774.443 902.452 775.307C903.103 776.163 904.001 776.591 905.145 776.591Z" fill="#7E7E7E"/>
<path id="301&#208;&#177;" d="M988.489 780.318C986.792 780.318 985.28 780.027 983.955 779.443C982.636 778.852 981.595 778.042 980.83 777.011C980.072 775.973 979.682 774.777 979.659 773.42H984.614C984.644 773.989 984.83 774.489 985.17 774.92C985.519 775.345 985.981 775.674 986.557 775.909C987.133 776.144 987.78 776.261 988.5 776.261C989.25 776.261 989.913 776.129 990.489 775.864C991.064 775.598 991.515 775.231 991.841 774.761C992.167 774.292 992.33 773.75 992.33 773.136C992.33 772.515 992.155 771.966 991.807 771.489C991.466 771.004 990.973 770.625 990.33 770.352C989.693 770.08 988.936 769.943 988.057 769.943H985.886V766.33H988.057C988.799 766.33 989.455 766.201 990.023 765.943C990.598 765.686 991.045 765.33 991.364 764.875C991.682 764.413 991.841 763.875 991.841 763.261C991.841 762.678 991.701 762.167 991.42 761.727C991.148 761.28 990.761 760.932 990.261 760.682C989.769 760.432 989.193 760.307 988.534 760.307C987.867 760.307 987.258 760.428 986.705 760.67C986.152 760.905 985.708 761.242 985.375 761.682C985.042 762.121 984.864 762.636 984.841 763.227H980.125C980.148 761.886 980.53 760.705 981.273 759.682C982.015 758.659 983.015 757.86 984.273 757.284C985.538 756.701 986.966 756.409 988.557 756.409C990.163 756.409 991.568 756.701 992.773 757.284C993.977 757.867 994.913 758.655 995.58 759.648C996.254 760.633 996.587 761.739 996.58 762.966C996.587 764.269 996.182 765.356 995.364 766.227C994.553 767.098 993.496 767.652 992.193 767.886V768.068C993.905 768.288 995.208 768.883 996.102 769.852C997.004 770.814 997.451 772.019 997.443 773.466C997.451 774.792 997.068 775.97 996.295 777C995.53 778.03 994.473 778.841 993.125 779.432C991.777 780.023 990.231 780.318 988.489 780.318ZM1010.11 780.511C1008.15 780.504 1006.47 780.023 1005.06 779.068C1003.66 778.114 1002.58 776.731 1001.82 774.92C1001.07 773.11 1000.7 770.932 1000.71 768.386C1000.71 765.848 1001.08 763.686 1001.83 761.898C1002.59 760.11 1003.67 758.75 1005.07 757.818C1006.48 756.879 1008.16 756.409 1010.11 756.409C1012.05 756.409 1013.73 756.879 1015.13 757.818C1016.54 758.758 1017.62 760.121 1018.38 761.909C1019.14 763.689 1019.51 765.848 1019.5 768.386C1019.5 770.939 1019.12 773.121 1018.37 774.932C1017.62 776.742 1016.54 778.125 1015.14 779.08C1013.74 780.034 1012.06 780.511 1010.11 780.511ZM1010.11 776.432C1011.44 776.432 1012.5 775.761 1013.3 774.42C1014.09 773.08 1014.49 771.068 1014.48 768.386C1014.48 766.621 1014.3 765.152 1013.93 763.977C1013.58 762.803 1013.07 761.92 1012.41 761.33C1011.76 760.739 1010.99 760.443 1010.11 760.443C1008.78 760.443 1007.72 761.106 1006.92 762.432C1006.13 763.758 1005.73 765.742 1005.72 768.386C1005.72 770.174 1005.9 771.667 1006.25 772.864C1006.62 774.053 1007.13 774.947 1007.79 775.545C1008.45 776.136 1009.22 776.432 1010.11 776.432ZM1033.14 756.727V780H1028.22V761.398H1028.08L1022.75 764.739V760.375L1028.51 756.727H1033.14ZM1053.22 756.136L1054.7 759.295C1054.21 759.705 1053.66 760.008 1053.07 760.205C1052.47 760.394 1051.75 760.519 1050.92 760.58C1050.09 760.64 1049.08 760.682 1047.89 760.705C1046.55 760.72 1045.45 760.936 1044.6 761.352C1043.75 761.769 1043.11 762.424 1042.67 763.318C1042.23 764.205 1041.94 765.364 1041.8 766.795H1041.97C1042.5 765.727 1043.23 764.902 1044.18 764.318C1045.13 763.735 1046.31 763.443 1047.71 763.443C1049.2 763.443 1050.5 763.769 1051.61 764.42C1052.73 765.072 1053.6 766.008 1054.22 767.227C1054.85 768.447 1055.16 769.909 1055.16 771.614C1055.16 773.386 1054.81 774.928 1054.11 776.239C1053.42 777.542 1052.44 778.553 1051.17 779.273C1049.89 779.985 1048.38 780.341 1046.62 780.341C1044.86 780.341 1043.33 779.97 1042.05 779.227C1040.78 778.485 1039.8 777.39 1039.1 775.943C1038.41 774.496 1038.07 772.716 1038.07 770.602V769.17C1038.07 764.966 1038.88 761.848 1040.52 759.818C1042.16 757.788 1044.56 756.758 1047.74 756.727C1048.6 756.712 1049.38 756.708 1050.08 756.716C1050.77 756.723 1051.38 756.689 1051.91 756.614C1052.44 756.538 1052.88 756.379 1053.22 756.136ZM1046.64 776.591C1047.39 776.591 1048.02 776.398 1048.55 776.011C1049.09 775.625 1049.5 775.072 1049.79 774.352C1050.09 773.633 1050.24 772.773 1050.24 771.773C1050.24 770.78 1050.09 769.939 1049.79 769.25C1049.5 768.553 1049.09 768.023 1048.55 767.659C1048.02 767.295 1047.37 767.114 1046.62 767.114C1046.06 767.114 1045.56 767.216 1045.11 767.42C1044.66 767.625 1044.28 767.928 1043.96 768.33C1043.65 768.723 1043.41 769.212 1043.24 769.795C1043.07 770.371 1042.99 771.03 1042.99 771.773C1042.99 773.265 1043.31 774.443 1043.95 775.307C1044.6 776.163 1045.5 776.591 1046.64 776.591Z" fill="#7E7E7E"/>
<path id="311&#208;&#177;" d="M1275.49 615.318C1273.79 615.318 1272.28 615.027 1270.95 614.443C1269.64 613.852 1268.59 613.042 1267.83 612.011C1267.07 610.973 1266.68 609.777 1266.66 608.42H1271.61C1271.64 608.989 1271.83 609.489 1272.17 609.92C1272.52 610.345 1272.98 610.674 1273.56 610.909C1274.13 611.144 1274.78 611.261 1275.5 611.261C1276.25 611.261 1276.91 611.129 1277.49 610.864C1278.06 610.598 1278.52 610.231 1278.84 609.761C1279.17 609.292 1279.33 608.75 1279.33 608.136C1279.33 607.515 1279.16 606.966 1278.81 606.489C1278.47 606.004 1277.97 605.625 1277.33 605.352C1276.69 605.08 1275.94 604.943 1275.06 604.943H1272.89V601.33H1275.06C1275.8 601.33 1276.45 601.201 1277.02 600.943C1277.6 600.686 1278.05 600.33 1278.36 599.875C1278.68 599.413 1278.84 598.875 1278.84 598.261C1278.84 597.678 1278.7 597.167 1278.42 596.727C1278.15 596.28 1277.76 595.932 1277.26 595.682C1276.77 595.432 1276.19 595.307 1275.53 595.307C1274.87 595.307 1274.26 595.428 1273.7 595.67C1273.15 595.905 1272.71 596.242 1272.38 596.682C1272.04 597.121 1271.86 597.636 1271.84 598.227H1267.12C1267.15 596.886 1267.53 595.705 1268.27 594.682C1269.02 593.659 1270.02 592.86 1271.27 592.284C1272.54 591.701 1273.97 591.409 1275.56 591.409C1277.16 591.409 1278.57 591.701 1279.77 592.284C1280.98 592.867 1281.91 593.655 1282.58 594.648C1283.25 595.633 1283.59 596.739 1283.58 597.966C1283.59 599.269 1283.18 600.356 1282.36 601.227C1281.55 602.098 1280.5 602.652 1279.19 602.886V603.068C1280.91 603.288 1282.21 603.883 1283.1 604.852C1284 605.814 1284.45 607.019 1284.44 608.466C1284.45 609.792 1284.07 610.97 1283.3 612C1282.53 613.03 1281.47 613.841 1280.12 614.432C1278.78 615.023 1277.23 615.318 1275.49 615.318ZM1298.11 591.727V615H1293.18V596.398H1293.05L1287.72 599.739V595.375L1293.48 591.727H1298.11ZM1313.76 591.727V615H1308.84V596.398H1308.7L1303.38 599.739V595.375L1309.14 591.727H1313.76ZM1333.85 591.136L1335.33 594.295C1334.83 594.705 1334.29 595.008 1333.69 595.205C1333.09 595.394 1332.38 595.519 1331.54 595.58C1330.72 595.64 1329.71 595.682 1328.52 595.705C1327.17 595.72 1326.07 595.936 1325.22 596.352C1324.38 596.769 1323.73 597.424 1323.29 598.318C1322.85 599.205 1322.57 600.364 1322.43 601.795H1322.6C1323.12 600.727 1323.86 599.902 1324.8 599.318C1325.76 598.735 1326.94 598.443 1328.34 598.443C1329.82 598.443 1331.12 598.769 1332.24 599.42C1333.36 600.072 1334.23 601.008 1334.85 602.227C1335.47 603.447 1335.78 604.909 1335.78 606.614C1335.78 608.386 1335.43 609.928 1334.74 611.239C1334.05 612.542 1333.07 613.553 1331.79 614.273C1330.52 614.985 1329 615.341 1327.25 615.341C1325.48 615.341 1323.96 614.97 1322.68 614.227C1321.41 613.485 1320.42 612.39 1319.72 610.943C1319.04 609.496 1318.69 607.716 1318.69 605.602V604.17C1318.69 599.966 1319.51 596.848 1321.14 594.818C1322.78 592.788 1325.19 591.758 1328.36 591.727C1329.22 591.712 1330 591.708 1330.7 591.716C1331.4 591.723 1332.01 591.689 1332.53 591.614C1333.06 591.538 1333.5 591.379 1333.85 591.136ZM1327.27 611.591C1328.01 611.591 1328.65 611.398 1329.18 611.011C1329.72 610.625 1330.13 610.072 1330.42 609.352C1330.71 608.633 1330.86 607.773 1330.86 606.773C1330.86 605.78 1330.71 604.939 1330.42 604.25C1330.13 603.553 1329.72 603.023 1329.18 602.659C1328.64 602.295 1328 602.114 1327.25 602.114C1326.69 602.114 1326.18 602.216 1325.74 602.42C1325.29 602.625 1324.91 602.928 1324.59 603.33C1324.28 603.723 1324.04 604.212 1323.86 604.795C1323.69 605.371 1323.61 606.03 1323.61 606.773C1323.61 608.265 1323.93 609.443 1324.58 610.307C1325.23 611.163 1326.13 611.591 1327.27 611.591Z" fill="#7E7E7E"/>
<path id="310&#208;&#177;" d="M1276.49 495.318C1274.79 495.318 1273.28 495.027 1271.95 494.443C1270.64 493.852 1269.59 493.042 1268.83 492.011C1268.07 490.973 1267.68 489.777 1267.66 488.42H1272.61C1272.64 488.989 1272.83 489.489 1273.17 489.92C1273.52 490.345 1273.98 490.674 1274.56 490.909C1275.13 491.144 1275.78 491.261 1276.5 491.261C1277.25 491.261 1277.91 491.129 1278.49 490.864C1279.06 490.598 1279.52 490.231 1279.84 489.761C1280.17 489.292 1280.33 488.75 1280.33 488.136C1280.33 487.515 1280.16 486.966 1279.81 486.489C1279.47 486.004 1278.97 485.625 1278.33 485.352C1277.69 485.08 1276.94 484.943 1276.06 484.943H1273.89V481.33H1276.06C1276.8 481.33 1277.45 481.201 1278.02 480.943C1278.6 480.686 1279.05 480.33 1279.36 479.875C1279.68 479.413 1279.84 478.875 1279.84 478.261C1279.84 477.678 1279.7 477.167 1279.42 476.727C1279.15 476.28 1278.76 475.932 1278.26 475.682C1277.77 475.432 1277.19 475.307 1276.53 475.307C1275.87 475.307 1275.26 475.428 1274.7 475.67C1274.15 475.905 1273.71 476.242 1273.38 476.682C1273.04 477.121 1272.86 477.636 1272.84 478.227H1268.12C1268.15 476.886 1268.53 475.705 1269.27 474.682C1270.02 473.659 1271.02 472.86 1272.27 472.284C1273.54 471.701 1274.97 471.409 1276.56 471.409C1278.16 471.409 1279.57 471.701 1280.77 472.284C1281.98 472.867 1282.91 473.655 1283.58 474.648C1284.25 475.633 1284.59 476.739 1284.58 477.966C1284.59 479.269 1284.18 480.356 1283.36 481.227C1282.55 482.098 1281.5 482.652 1280.19 482.886V483.068C1281.91 483.288 1283.21 483.883 1284.1 484.852C1285 485.814 1285.45 487.019 1285.44 488.466C1285.45 489.792 1285.07 490.97 1284.3 492C1283.53 493.03 1282.47 493.841 1281.12 494.432C1279.78 495.023 1278.23 495.318 1276.49 495.318ZM1299.11 471.727V495H1294.18V476.398H1294.05L1288.72 479.739V475.375L1294.48 471.727H1299.11ZM1313.76 495.511C1311.81 495.504 1310.13 495.023 1308.72 494.068C1307.31 493.114 1306.23 491.731 1305.48 489.92C1304.73 488.11 1304.36 485.932 1304.36 483.386C1304.36 480.848 1304.74 478.686 1305.49 476.898C1306.25 475.11 1307.33 473.75 1308.73 472.818C1310.14 471.879 1311.81 471.409 1313.76 471.409C1315.71 471.409 1317.38 471.879 1318.78 472.818C1320.19 473.758 1321.28 475.121 1322.03 476.909C1322.79 478.689 1323.17 480.848 1323.16 483.386C1323.16 485.939 1322.78 488.121 1322.02 489.932C1321.27 491.742 1320.2 493.125 1318.8 494.08C1317.39 495.034 1315.72 495.511 1313.76 495.511ZM1313.76 491.432C1315.09 491.432 1316.16 490.761 1316.95 489.42C1317.75 488.08 1318.14 486.068 1318.14 483.386C1318.14 481.621 1317.95 480.152 1317.59 478.977C1317.23 477.803 1316.73 476.92 1316.07 476.33C1315.42 475.739 1314.65 475.443 1313.76 475.443C1312.44 475.443 1311.38 476.106 1310.58 477.432C1309.78 478.758 1309.38 480.742 1309.38 483.386C1309.38 485.174 1309.55 486.667 1309.91 487.864C1310.27 489.053 1310.78 489.947 1311.44 490.545C1312.1 491.136 1312.88 491.432 1313.76 491.432ZM1341.22 471.136L1342.7 474.295C1342.21 474.705 1341.66 475.008 1341.07 475.205C1340.47 475.394 1339.75 475.519 1338.92 475.58C1338.09 475.64 1337.08 475.682 1335.89 475.705C1334.55 475.72 1333.45 475.936 1332.6 476.352C1331.75 476.769 1331.11 477.424 1330.67 478.318C1330.23 479.205 1329.94 480.364 1329.8 481.795H1329.97C1330.5 480.727 1331.23 479.902 1332.18 479.318C1333.13 478.735 1334.31 478.443 1335.71 478.443C1337.2 478.443 1338.5 478.769 1339.61 479.42C1340.73 480.072 1341.6 481.008 1342.22 482.227C1342.85 483.447 1343.16 484.909 1343.16 486.614C1343.16 488.386 1342.81 489.928 1342.11 491.239C1341.42 492.542 1340.44 493.553 1339.17 494.273C1337.89 494.985 1336.38 495.341 1334.62 495.341C1332.86 495.341 1331.33 494.97 1330.05 494.227C1328.78 493.485 1327.8 492.39 1327.1 490.943C1326.41 489.496 1326.07 487.716 1326.07 485.602V484.17C1326.07 479.966 1326.88 476.848 1328.52 474.818C1330.16 472.788 1332.56 471.758 1335.74 471.727C1336.6 471.712 1337.38 471.708 1338.08 471.716C1338.77 471.723 1339.38 471.689 1339.91 471.614C1340.44 471.538 1340.88 471.379 1341.22 471.136ZM1334.64 491.591C1335.39 491.591 1336.02 491.398 1336.55 491.011C1337.09 490.625 1337.5 490.072 1337.79 489.352C1338.09 488.633 1338.24 487.773 1338.24 486.773C1338.24 485.78 1338.09 484.939 1337.79 484.25C1337.5 483.553 1337.09 483.023 1336.55 482.659C1336.02 482.295 1335.37 482.114 1334.62 482.114C1334.06 482.114 1333.56 482.216 1333.11 482.42C1332.66 482.625 1332.28 482.928 1331.96 483.33C1331.65 483.723 1331.41 484.212 1331.24 484.795C1331.07 485.371 1330.99 486.03 1330.99 486.773C1330.99 488.265 1331.31 489.443 1331.95 490.307C1332.6 491.163 1333.5 491.591 1334.64 491.591Z" fill="#7E7E7E"/>
<path id="309&#208;&#177;" d="M1276.49 338.318C1274.79 338.318 1273.28 338.027 1271.95 337.443C1270.64 336.852 1269.59 336.042 1268.83 335.011C1268.07 333.973 1267.68 332.777 1267.66 331.42H1272.61C1272.64 331.989 1272.83 332.489 1273.17 332.92C1273.52 333.345 1273.98 333.674 1274.56 333.909C1275.13 334.144 1275.78 334.261 1276.5 334.261C1277.25 334.261 1277.91 334.129 1278.49 333.864C1279.06 333.598 1279.52 333.231 1279.84 332.761C1280.17 332.292 1280.33 331.75 1280.33 331.136C1280.33 330.515 1280.16 329.966 1279.81 329.489C1279.47 329.004 1278.97 328.625 1278.33 328.352C1277.69 328.08 1276.94 327.943 1276.06 327.943H1273.89V324.33H1276.06C1276.8 324.33 1277.45 324.201 1278.02 323.943C1278.6 323.686 1279.05 323.33 1279.36 322.875C1279.68 322.413 1279.84 321.875 1279.84 321.261C1279.84 320.678 1279.7 320.167 1279.42 319.727C1279.15 319.28 1278.76 318.932 1278.26 318.682C1277.77 318.432 1277.19 318.307 1276.53 318.307C1275.87 318.307 1275.26 318.428 1274.7 318.67C1274.15 318.905 1273.71 319.242 1273.38 319.682C1273.04 320.121 1272.86 320.636 1272.84 321.227H1268.12C1268.15 319.886 1268.53 318.705 1269.27 317.682C1270.02 316.659 1271.02 315.86 1272.27 315.284C1273.54 314.701 1274.97 314.409 1276.56 314.409C1278.16 314.409 1279.57 314.701 1280.77 315.284C1281.98 315.867 1282.91 316.655 1283.58 317.648C1284.25 318.633 1284.59 319.739 1284.58 320.966C1284.59 322.269 1284.18 323.356 1283.36 324.227C1282.55 325.098 1281.5 325.652 1280.19 325.886V326.068C1281.91 326.288 1283.21 326.883 1284.1 327.852C1285 328.814 1285.45 330.019 1285.44 331.466C1285.45 332.792 1285.07 333.97 1284.3 335C1283.53 336.03 1282.47 336.841 1281.12 337.432C1279.78 338.023 1278.23 338.318 1276.49 338.318ZM1298.11 338.511C1296.15 338.504 1294.47 338.023 1293.06 337.068C1291.66 336.114 1290.58 334.731 1289.82 332.92C1289.07 331.11 1288.7 328.932 1288.71 326.386C1288.71 323.848 1289.08 321.686 1289.83 319.898C1290.59 318.11 1291.67 316.75 1293.07 315.818C1294.48 314.879 1296.16 314.409 1298.11 314.409C1300.05 314.409 1301.73 314.879 1303.13 315.818C1304.54 316.758 1305.62 318.121 1306.38 319.909C1307.14 321.689 1307.51 323.848 1307.5 326.386C1307.5 328.939 1307.12 331.121 1306.37 332.932C1305.62 334.742 1304.54 336.125 1303.14 337.08C1301.74 338.034 1300.06 338.511 1298.11 338.511ZM1298.11 334.432C1299.44 334.432 1300.5 333.761 1301.3 332.42C1302.09 331.08 1302.49 329.068 1302.48 326.386C1302.48 324.621 1302.3 323.152 1301.93 321.977C1301.58 320.803 1301.07 319.92 1300.41 319.33C1299.76 318.739 1298.99 318.443 1298.11 318.443C1296.78 318.443 1295.72 319.106 1294.92 320.432C1294.13 321.758 1293.73 323.742 1293.72 326.386C1293.72 328.174 1293.9 329.667 1294.25 330.864C1294.62 332.053 1295.13 332.947 1295.79 333.545C1296.45 334.136 1297.22 334.432 1298.11 334.432ZM1319.43 314.409C1320.63 314.409 1321.78 314.61 1322.89 315.011C1324 315.413 1324.99 316.053 1325.86 316.932C1326.74 317.811 1327.44 318.977 1327.94 320.432C1328.46 321.879 1328.72 323.655 1328.73 325.761C1328.73 327.739 1328.5 329.504 1328.06 331.057C1327.62 332.602 1326.98 333.917 1326.16 335C1325.33 336.083 1324.34 336.909 1323.17 337.477C1322 338.038 1320.7 338.318 1319.26 338.318C1317.71 338.318 1316.34 338.019 1315.15 337.42C1313.96 336.814 1313 335.992 1312.27 334.955C1311.55 333.909 1311.12 332.735 1310.97 331.432H1315.82C1316.01 332.28 1316.41 332.939 1317.01 333.409C1317.62 333.871 1318.37 334.102 1319.26 334.102C1320.78 334.102 1321.93 333.443 1322.72 332.125C1323.5 330.799 1323.9 328.985 1323.91 326.682H1323.75C1323.4 327.364 1322.93 327.951 1322.34 328.443C1321.75 328.928 1321.07 329.303 1320.31 329.568C1319.55 329.833 1318.74 329.966 1317.89 329.966C1316.52 329.966 1315.29 329.644 1314.22 329C1313.14 328.356 1312.29 327.47 1311.67 326.341C1311.05 325.212 1310.74 323.924 1310.74 322.477C1310.73 320.917 1311.09 319.527 1311.82 318.307C1312.55 317.087 1313.56 316.133 1314.86 315.443C1316.17 314.746 1317.7 314.402 1319.43 314.409ZM1319.47 318.273C1318.7 318.273 1318.02 318.455 1317.42 318.818C1316.83 319.182 1316.36 319.67 1316.01 320.284C1315.67 320.898 1315.5 321.583 1315.51 322.341C1315.51 323.106 1315.68 323.795 1316.01 324.409C1316.35 325.015 1316.81 325.5 1317.4 325.864C1317.99 326.22 1318.66 326.398 1319.42 326.398C1319.99 326.398 1320.52 326.292 1321 326.08C1321.48 325.867 1321.91 325.576 1322.26 325.205C1322.63 324.826 1322.91 324.39 1323.11 323.898C1323.32 323.405 1323.42 322.883 1323.42 322.33C1323.41 321.595 1323.24 320.92 1322.9 320.307C1322.56 319.693 1322.09 319.201 1321.49 318.83C1320.89 318.458 1320.22 318.273 1319.47 318.273ZM1346.69 314.136L1348.17 317.295C1347.68 317.705 1347.13 318.008 1346.53 318.205C1345.94 318.394 1345.22 318.519 1344.39 318.58C1343.56 318.64 1342.55 318.682 1341.36 318.705C1340.02 318.72 1338.92 318.936 1338.07 319.352C1337.22 319.769 1336.58 320.424 1336.14 321.318C1335.7 322.205 1335.41 323.364 1335.27 324.795H1335.44C1335.97 323.727 1336.7 322.902 1337.65 322.318C1338.6 321.735 1339.78 321.443 1341.18 321.443C1342.67 321.443 1343.97 321.769 1345.08 322.42C1346.2 323.072 1347.07 324.008 1347.69 325.227C1348.31 326.447 1348.62 327.909 1348.62 329.614C1348.62 331.386 1348.28 332.928 1347.58 334.239C1346.89 335.542 1345.91 336.553 1344.64 337.273C1343.36 337.985 1341.85 338.341 1340.09 338.341C1338.33 338.341 1336.8 337.97 1335.52 337.227C1334.25 336.485 1333.27 335.39 1332.57 333.943C1331.88 332.496 1331.53 330.716 1331.53 328.602V327.17C1331.53 322.966 1332.35 319.848 1333.99 317.818C1335.63 315.788 1338.03 314.758 1341.2 314.727C1342.07 314.712 1342.85 314.708 1343.55 314.716C1344.24 314.723 1344.85 314.689 1345.38 314.614C1345.91 314.538 1346.34 314.379 1346.69 314.136ZM1340.11 334.591C1340.86 334.591 1341.49 334.398 1342.02 334.011C1342.56 333.625 1342.97 333.072 1343.26 332.352C1343.56 331.633 1343.7 330.773 1343.7 329.773C1343.7 328.78 1343.56 327.939 1343.26 327.25C1342.97 326.553 1342.56 326.023 1342.02 325.659C1341.48 325.295 1340.84 325.114 1340.09 325.114C1339.53 325.114 1339.03 325.216 1338.58 325.42C1338.13 325.625 1337.75 325.928 1337.43 326.33C1337.12 326.723 1336.88 327.212 1336.7 327.795C1336.54 328.371 1336.45 329.03 1336.45 329.773C1336.45 331.265 1336.78 332.443 1337.42 333.307C1338.07 334.163 1338.97 334.591 1340.11 334.591Z" fill="#7E7E7E"/>
<path id="308&#208;&#177;" d="M1281.49 190.318C1279.79 190.318 1278.28 190.027 1276.95 189.443C1275.64 188.852 1274.59 188.042 1273.83 187.011C1273.07 185.973 1272.68 184.777 1272.66 183.42H1277.61C1277.64 183.989 1277.83 184.489 1278.17 184.92C1278.52 185.345 1278.98 185.674 1279.56 185.909C1280.13 186.144 1280.78 186.261 1281.5 186.261C1282.25 186.261 1282.91 186.129 1283.49 185.864C1284.06 185.598 1284.52 185.231 1284.84 184.761C1285.17 184.292 1285.33 183.75 1285.33 183.136C1285.33 182.515 1285.16 181.966 1284.81 181.489C1284.47 181.004 1283.97 180.625 1283.33 180.352C1282.69 180.08 1281.94 179.943 1281.06 179.943H1278.89V176.33H1281.06C1281.8 176.33 1282.45 176.201 1283.02 175.943C1283.6 175.686 1284.05 175.33 1284.36 174.875C1284.68 174.413 1284.84 173.875 1284.84 173.261C1284.84 172.678 1284.7 172.167 1284.42 171.727C1284.15 171.28 1283.76 170.932 1283.26 170.682C1282.77 170.432 1282.19 170.307 1281.53 170.307C1280.87 170.307 1280.26 170.428 1279.7 170.67C1279.15 170.905 1278.71 171.242 1278.38 171.682C1278.04 172.121 1277.86 172.636 1277.84 173.227H1273.12C1273.15 171.886 1273.53 170.705 1274.27 169.682C1275.02 168.659 1276.02 167.86 1277.27 167.284C1278.54 166.701 1279.97 166.409 1281.56 166.409C1283.16 166.409 1284.57 166.701 1285.77 167.284C1286.98 167.867 1287.91 168.655 1288.58 169.648C1289.25 170.633 1289.59 171.739 1289.58 172.966C1289.59 174.269 1289.18 175.356 1288.36 176.227C1287.55 177.098 1286.5 177.652 1285.19 177.886V178.068C1286.91 178.288 1288.21 178.883 1289.1 179.852C1290 180.814 1290.45 182.019 1290.44 183.466C1290.45 184.792 1290.07 185.97 1289.3 187C1288.53 188.03 1287.47 188.841 1286.12 189.432C1284.78 190.023 1283.23 190.318 1281.49 190.318ZM1303.11 190.511C1301.15 190.504 1299.47 190.023 1298.06 189.068C1296.66 188.114 1295.58 186.731 1294.82 184.92C1294.07 183.11 1293.7 180.932 1293.71 178.386C1293.71 175.848 1294.08 173.686 1294.83 171.898C1295.59 170.11 1296.67 168.75 1298.07 167.818C1299.48 166.879 1301.16 166.409 1303.11 166.409C1305.05 166.409 1306.73 166.879 1308.13 167.818C1309.54 168.758 1310.62 170.121 1311.38 171.909C1312.14 173.689 1312.51 175.848 1312.5 178.386C1312.5 180.939 1312.12 183.121 1311.37 184.932C1310.62 186.742 1309.54 188.125 1308.14 189.08C1306.74 190.034 1305.06 190.511 1303.11 190.511ZM1303.11 186.432C1304.44 186.432 1305.5 185.761 1306.3 184.42C1307.09 183.08 1307.49 181.068 1307.48 178.386C1307.48 176.621 1307.3 175.152 1306.93 173.977C1306.58 172.803 1306.07 171.92 1305.41 171.33C1304.76 170.739 1303.99 170.443 1303.11 170.443C1301.78 170.443 1300.72 171.106 1299.92 172.432C1299.13 173.758 1298.73 175.742 1298.72 178.386C1298.72 180.174 1298.9 181.667 1299.25 182.864C1299.62 184.053 1300.13 184.947 1300.79 185.545C1301.45 186.136 1302.22 186.432 1303.11 186.432ZM1324.69 190.318C1322.94 190.318 1321.39 190.034 1320.02 189.466C1318.67 188.89 1317.6 188.106 1316.83 187.114C1316.06 186.121 1315.67 184.996 1315.67 183.739C1315.67 182.769 1315.89 181.879 1316.33 181.068C1316.78 180.25 1317.38 179.572 1318.15 179.034C1318.91 178.489 1319.77 178.14 1320.72 177.989V177.83C1319.47 177.58 1318.47 176.977 1317.69 176.023C1316.92 175.061 1316.53 173.943 1316.53 172.67C1316.53 171.466 1316.89 170.394 1317.59 169.455C1318.3 168.508 1319.26 167.765 1320.49 167.227C1321.72 166.682 1323.12 166.409 1324.69 166.409C1326.26 166.409 1327.66 166.682 1328.89 167.227C1330.12 167.773 1331.09 168.519 1331.8 169.466C1332.5 170.405 1332.86 171.473 1332.86 172.67C1332.86 173.951 1332.46 175.068 1331.68 176.023C1330.9 176.977 1329.9 177.58 1328.68 177.83V177.989C1329.61 178.14 1330.46 178.489 1331.22 179.034C1331.98 179.572 1332.59 180.25 1333.03 181.068C1333.49 181.879 1333.72 182.769 1333.73 183.739C1333.72 184.996 1333.33 186.121 1332.56 187.114C1331.78 188.106 1330.72 188.89 1329.35 189.466C1328 190.034 1326.44 190.318 1324.69 190.318ZM1324.69 186.705C1325.47 186.705 1326.16 186.564 1326.74 186.284C1327.32 185.996 1327.78 185.602 1328.1 185.102C1328.44 184.595 1328.6 184.011 1328.6 183.352C1328.6 182.678 1328.43 182.083 1328.09 181.568C1327.75 181.045 1327.29 180.636 1326.7 180.341C1326.12 180.038 1325.45 179.886 1324.69 179.886C1323.94 179.886 1323.27 180.038 1322.68 180.341C1322.09 180.636 1321.63 181.045 1321.28 181.568C1320.95 182.083 1320.78 182.678 1320.78 183.352C1320.78 184.011 1320.95 184.595 1321.27 185.102C1321.6 185.602 1322.06 185.996 1322.65 186.284C1323.24 186.564 1323.92 186.705 1324.69 186.705ZM1324.69 176.307C1325.34 176.307 1325.92 176.174 1326.43 175.909C1326.94 175.644 1327.34 175.277 1327.62 174.807C1327.91 174.337 1328.06 173.795 1328.06 173.182C1328.06 172.576 1327.91 172.045 1327.62 171.591C1327.34 171.129 1326.94 170.769 1326.44 170.511C1325.94 170.246 1325.36 170.114 1324.69 170.114C1324.03 170.114 1323.45 170.246 1322.94 170.511C1322.44 170.769 1322.04 171.129 1321.75 171.591C1321.47 172.045 1321.33 172.576 1321.33 173.182C1321.33 173.795 1321.47 174.337 1321.76 174.807C1322.05 175.277 1322.45 175.644 1322.95 175.909C1323.46 176.174 1324.04 176.307 1324.69 176.307ZM1351.72 166.136L1353.2 169.295C1352.71 169.705 1352.16 170.008 1351.57 170.205C1350.97 170.394 1350.25 170.519 1349.42 170.58C1348.59 170.64 1347.58 170.682 1346.39 170.705C1345.05 170.72 1343.95 170.936 1343.1 171.352C1342.25 171.769 1341.61 172.424 1341.17 173.318C1340.73 174.205 1340.44 175.364 1340.3 176.795H1340.47C1341 175.727 1341.73 174.902 1342.68 174.318C1343.63 173.735 1344.81 173.443 1346.21 173.443C1347.7 173.443 1349 173.769 1350.11 174.42C1351.23 175.072 1352.1 176.008 1352.72 177.227C1353.35 178.447 1353.66 179.909 1353.66 181.614C1353.66 183.386 1353.31 184.928 1352.61 186.239C1351.92 187.542 1350.94 188.553 1349.67 189.273C1348.39 189.985 1346.88 190.341 1345.12 190.341C1343.36 190.341 1341.83 189.97 1340.55 189.227C1339.28 188.485 1338.3 187.39 1337.6 185.943C1336.91 184.496 1336.57 182.716 1336.57 180.602V179.17C1336.57 174.966 1337.38 171.848 1339.02 169.818C1340.66 167.788 1343.06 166.758 1346.24 166.727C1347.1 166.712 1347.88 166.708 1348.58 166.716C1349.27 166.723 1349.88 166.689 1350.41 166.614C1350.94 166.538 1351.38 166.379 1351.72 166.136ZM1345.14 186.591C1345.89 186.591 1346.52 186.398 1347.05 186.011C1347.59 185.625 1348 185.072 1348.29 184.352C1348.59 183.633 1348.74 182.773 1348.74 181.773C1348.74 180.78 1348.59 179.939 1348.29 179.25C1348 178.553 1347.59 178.023 1347.05 177.659C1346.52 177.295 1345.87 177.114 1345.12 177.114C1344.56 177.114 1344.06 177.216 1343.61 177.42C1343.16 177.625 1342.78 177.928 1342.46 178.33C1342.15 178.723 1341.91 179.212 1341.74 179.795C1341.57 180.371 1341.49 181.03 1341.49 181.773C1341.49 183.265 1341.81 184.443 1342.45 185.307C1343.1 186.163 1344 186.591 1345.14 186.591Z" fill="#7E7E7E"/>
<path id="312&#208;&#177;" d="M1113.49 285.318C1111.79 285.318 1110.28 285.027 1108.95 284.443C1107.64 283.852 1106.59 283.042 1105.83 282.011C1105.07 280.973 1104.68 279.777 1104.66 278.42H1109.61C1109.64 278.989 1109.83 279.489 1110.17 279.92C1110.52 280.345 1110.98 280.674 1111.56 280.909C1112.13 281.144 1112.78 281.261 1113.5 281.261C1114.25 281.261 1114.91 281.129 1115.49 280.864C1116.06 280.598 1116.52 280.231 1116.84 279.761C1117.17 279.292 1117.33 278.75 1117.33 278.136C1117.33 277.515 1117.16 276.966 1116.81 276.489C1116.47 276.004 1115.97 275.625 1115.33 275.352C1114.69 275.08 1113.94 274.943 1113.06 274.943H1110.89V271.33H1113.06C1113.8 271.33 1114.45 271.201 1115.02 270.943C1115.6 270.686 1116.05 270.33 1116.36 269.875C1116.68 269.413 1116.84 268.875 1116.84 268.261C1116.84 267.678 1116.7 267.167 1116.42 266.727C1116.15 266.28 1115.76 265.932 1115.26 265.682C1114.77 265.432 1114.19 265.307 1113.53 265.307C1112.87 265.307 1112.26 265.428 1111.7 265.67C1111.15 265.905 1110.71 266.242 1110.38 266.682C1110.04 267.121 1109.86 267.636 1109.84 268.227H1105.12C1105.15 266.886 1105.53 265.705 1106.27 264.682C1107.02 263.659 1108.02 262.86 1109.27 262.284C1110.54 261.701 1111.97 261.409 1113.56 261.409C1115.16 261.409 1116.57 261.701 1117.77 262.284C1118.98 262.867 1119.91 263.655 1120.58 264.648C1121.25 265.633 1121.59 266.739 1121.58 267.966C1121.59 269.269 1121.18 270.356 1120.36 271.227C1119.55 272.098 1118.5 272.652 1117.19 272.886V273.068C1118.91 273.288 1120.21 273.883 1121.1 274.852C1122 275.814 1122.45 277.019 1122.44 278.466C1122.45 279.792 1122.07 280.97 1121.3 282C1120.53 283.03 1119.47 283.841 1118.12 284.432C1116.78 285.023 1115.23 285.318 1113.49 285.318ZM1136.11 261.727V285H1131.18V266.398H1131.05L1125.72 269.739V265.375L1131.48 261.727H1136.11ZM1141.64 285V281.455L1149.92 273.784C1150.63 273.102 1151.22 272.489 1151.69 271.943C1152.18 271.398 1152.55 270.864 1152.8 270.341C1153.05 269.811 1153.17 269.239 1153.17 268.625C1153.17 267.943 1153.02 267.356 1152.7 266.864C1152.39 266.364 1151.97 265.981 1151.43 265.716C1150.89 265.443 1150.28 265.307 1149.6 265.307C1148.89 265.307 1148.27 265.451 1147.74 265.739C1147.21 266.027 1146.8 266.439 1146.51 266.977C1146.22 267.515 1146.08 268.155 1146.08 268.898H1141.41C1141.41 267.375 1141.75 266.053 1142.44 264.932C1143.13 263.811 1144.1 262.943 1145.34 262.33C1146.58 261.716 1148.02 261.409 1149.64 261.409C1151.3 261.409 1152.75 261.705 1153.99 262.295C1155.23 262.879 1156.2 263.689 1156.89 264.727C1157.58 265.765 1157.92 266.955 1157.92 268.295C1157.92 269.174 1157.75 270.042 1157.4 270.898C1157.06 271.754 1156.45 272.705 1155.57 273.75C1154.69 274.788 1153.45 276.034 1151.85 277.489L1148.45 280.818V280.977H1158.23V285H1141.64ZM1176.35 261.136L1177.83 264.295C1177.33 264.705 1176.79 265.008 1176.19 265.205C1175.59 265.394 1174.88 265.519 1174.04 265.58C1173.22 265.64 1172.21 265.682 1171.02 265.705C1169.67 265.72 1168.57 265.936 1167.72 266.352C1166.88 266.769 1166.23 267.424 1165.79 268.318C1165.35 269.205 1165.07 270.364 1164.93 271.795H1165.1C1165.62 270.727 1166.36 269.902 1167.3 269.318C1168.26 268.735 1169.44 268.443 1170.84 268.443C1172.32 268.443 1173.62 268.769 1174.74 269.42C1175.86 270.072 1176.73 271.008 1177.35 272.227C1177.97 273.447 1178.28 274.909 1178.28 276.614C1178.28 278.386 1177.93 279.928 1177.24 281.239C1176.55 282.542 1175.57 283.553 1174.29 284.273C1173.02 284.985 1171.5 285.341 1169.75 285.341C1167.98 285.341 1166.46 284.97 1165.18 284.227C1163.91 283.485 1162.92 282.39 1162.22 280.943C1161.54 279.496 1161.19 277.716 1161.19 275.602V274.17C1161.19 269.966 1162.01 266.848 1163.64 264.818C1165.28 262.788 1167.69 261.758 1170.86 261.727C1171.72 261.712 1172.5 261.708 1173.2 261.716C1173.9 261.723 1174.51 261.689 1175.03 261.614C1175.56 261.538 1176 261.379 1176.35 261.136ZM1169.77 281.591C1170.51 281.591 1171.15 281.398 1171.68 281.011C1172.22 280.625 1172.63 280.072 1172.92 279.352C1173.21 278.633 1173.36 277.773 1173.36 276.773C1173.36 275.78 1173.21 274.939 1172.92 274.25C1172.63 273.553 1172.22 273.023 1171.68 272.659C1171.14 272.295 1170.5 272.114 1169.75 272.114C1169.19 272.114 1168.68 272.216 1168.24 272.42C1167.79 272.625 1167.41 272.928 1167.09 273.33C1166.78 273.723 1166.54 274.212 1166.36 274.795C1166.19 275.371 1166.11 276.03 1166.11 276.773C1166.11 278.265 1166.43 279.443 1167.08 280.307C1167.73 281.163 1168.63 281.591 1169.77 281.591Z" fill="#7E7E7E"/>
<path id="307&#208;&#177;" d="M1116.49 365.318C1114.79 365.318 1113.28 365.027 1111.95 364.443C1110.64 363.852 1109.59 363.042 1108.83 362.011C1108.07 360.973 1107.68 359.777 1107.66 358.42H1112.61C1112.64 358.989 1112.83 359.489 1113.17 359.92C1113.52 360.345 1113.98 360.674 1114.56 360.909C1115.13 361.144 1115.78 361.261 1116.5 361.261C1117.25 361.261 1117.91 361.129 1118.49 360.864C1119.06 360.598 1119.52 360.231 1119.84 359.761C1120.17 359.292 1120.33 358.75 1120.33 358.136C1120.33 357.515 1120.16 356.966 1119.81 356.489C1119.47 356.004 1118.97 355.625 1118.33 355.352C1117.69 355.08 1116.94 354.943 1116.06 354.943H1113.89V351.33H1116.06C1116.8 351.33 1117.45 351.201 1118.02 350.943C1118.6 350.686 1119.05 350.33 1119.36 349.875C1119.68 349.413 1119.84 348.875 1119.84 348.261C1119.84 347.678 1119.7 347.167 1119.42 346.727C1119.15 346.28 1118.76 345.932 1118.26 345.682C1117.77 345.432 1117.19 345.307 1116.53 345.307C1115.87 345.307 1115.26 345.428 1114.7 345.67C1114.15 345.905 1113.71 346.242 1113.38 346.682C1113.04 347.121 1112.86 347.636 1112.84 348.227H1108.12C1108.15 346.886 1108.53 345.705 1109.27 344.682C1110.02 343.659 1111.02 342.86 1112.27 342.284C1113.54 341.701 1114.97 341.409 1116.56 341.409C1118.16 341.409 1119.57 341.701 1120.77 342.284C1121.98 342.867 1122.91 343.655 1123.58 344.648C1124.25 345.633 1124.59 346.739 1124.58 347.966C1124.59 349.269 1124.18 350.356 1123.36 351.227C1122.55 352.098 1121.5 352.652 1120.19 352.886V353.068C1121.91 353.288 1123.21 353.883 1124.1 354.852C1125 355.814 1125.45 357.019 1125.44 358.466C1125.45 359.792 1125.07 360.97 1124.3 362C1123.53 363.03 1122.47 363.841 1121.12 364.432C1119.78 365.023 1118.23 365.318 1116.49 365.318ZM1138.11 365.511C1136.15 365.504 1134.47 365.023 1133.06 364.068C1131.66 363.114 1130.58 361.731 1129.82 359.92C1129.07 358.11 1128.7 355.932 1128.71 353.386C1128.71 350.848 1129.08 348.686 1129.83 346.898C1130.59 345.11 1131.67 343.75 1133.07 342.818C1134.48 341.879 1136.16 341.409 1138.11 341.409C1140.05 341.409 1141.73 341.879 1143.13 342.818C1144.54 343.758 1145.62 345.121 1146.38 346.909C1147.14 348.689 1147.51 350.848 1147.5 353.386C1147.5 355.939 1147.12 358.121 1146.37 359.932C1145.62 361.742 1144.54 363.125 1143.14 364.08C1141.74 365.034 1140.06 365.511 1138.11 365.511ZM1138.11 361.432C1139.44 361.432 1140.5 360.761 1141.3 359.42C1142.09 358.08 1142.49 356.068 1142.48 353.386C1142.48 351.621 1142.3 350.152 1141.93 348.977C1141.58 347.803 1141.07 346.92 1140.41 346.33C1139.76 345.739 1138.99 345.443 1138.11 345.443C1136.78 345.443 1135.72 346.106 1134.92 347.432C1134.13 348.758 1133.73 350.742 1133.72 353.386C1133.72 355.174 1133.9 356.667 1134.25 357.864C1134.62 359.053 1135.13 359.947 1135.79 360.545C1136.45 361.136 1137.22 361.432 1138.11 361.432ZM1151.31 365L1160.95 345.909V345.75H1149.72V341.727H1166.05V345.807L1156.39 365H1151.31ZM1183.47 341.136L1184.95 344.295C1184.46 344.705 1183.91 345.008 1183.32 345.205C1182.72 345.394 1182 345.519 1181.17 345.58C1180.34 345.64 1179.33 345.682 1178.14 345.705C1176.8 345.72 1175.7 345.936 1174.85 346.352C1174 346.769 1173.36 347.424 1172.92 348.318C1172.48 349.205 1172.19 350.364 1172.05 351.795H1172.22C1172.75 350.727 1173.48 349.902 1174.43 349.318C1175.38 348.735 1176.56 348.443 1177.96 348.443C1179.45 348.443 1180.75 348.769 1181.86 349.42C1182.98 350.072 1183.85 351.008 1184.47 352.227C1185.1 353.447 1185.41 354.909 1185.41 356.614C1185.41 358.386 1185.06 359.928 1184.36 361.239C1183.67 362.542 1182.69 363.553 1181.42 364.273C1180.14 364.985 1178.63 365.341 1176.87 365.341C1175.11 365.341 1173.58 364.97 1172.3 364.227C1171.03 363.485 1170.05 362.39 1169.35 360.943C1168.66 359.496 1168.32 357.716 1168.32 355.602V354.17C1168.32 349.966 1169.13 346.848 1170.77 344.818C1172.41 342.788 1174.81 341.758 1177.99 341.727C1178.85 341.712 1179.63 341.708 1180.33 341.716C1181.02 341.723 1181.63 341.689 1182.16 341.614C1182.69 341.538 1183.13 341.379 1183.47 341.136ZM1176.89 361.591C1177.64 361.591 1178.27 361.398 1178.8 361.011C1179.34 360.625 1179.75 360.072 1180.04 359.352C1180.34 358.633 1180.49 357.773 1180.49 356.773C1180.49 355.78 1180.34 354.939 1180.04 354.25C1179.75 353.553 1179.34 353.023 1178.8 352.659C1178.27 352.295 1177.62 352.114 1176.87 352.114C1176.31 352.114 1175.81 352.216 1175.36 352.42C1174.91 352.625 1174.53 352.928 1174.21 353.33C1173.9 353.723 1173.66 354.212 1173.49 354.795C1173.32 355.371 1173.24 356.03 1173.24 356.773C1173.24 358.265 1173.56 359.443 1174.2 360.307C1174.85 361.163 1175.75 361.591 1176.89 361.591Z" fill="#7E7E7E"/>
<path id="306&#208;&#177;" d="M1116.49 466.318C1114.79 466.318 1113.28 466.027 1111.95 465.443C1110.64 464.852 1109.59 464.042 1108.83 463.011C1108.07 461.973 1107.68 460.777 1107.66 459.42H1112.61C1112.64 459.989 1112.83 460.489 1113.17 460.92C1113.52 461.345 1113.98 461.674 1114.56 461.909C1115.13 462.144 1115.78 462.261 1116.5 462.261C1117.25 462.261 1117.91 462.129 1118.49 461.864C1119.06 461.598 1119.52 461.231 1119.84 460.761C1120.17 460.292 1120.33 459.75 1120.33 459.136C1120.33 458.515 1120.16 457.966 1119.81 457.489C1119.47 457.004 1118.97 456.625 1118.33 456.352C1117.69 456.08 1116.94 455.943 1116.06 455.943H1113.89V452.33H1116.06C1116.8 452.33 1117.45 452.201 1118.02 451.943C1118.6 451.686 1119.05 451.33 1119.36 450.875C1119.68 450.413 1119.84 449.875 1119.84 449.261C1119.84 448.678 1119.7 448.167 1119.42 447.727C1119.15 447.28 1118.76 446.932 1118.26 446.682C1117.77 446.432 1117.19 446.307 1116.53 446.307C1115.87 446.307 1115.26 446.428 1114.7 446.67C1114.15 446.905 1113.71 447.242 1113.38 447.682C1113.04 448.121 1112.86 448.636 1112.84 449.227H1108.12C1108.15 447.886 1108.53 446.705 1109.27 445.682C1110.02 444.659 1111.02 443.86 1112.27 443.284C1113.54 442.701 1114.97 442.409 1116.56 442.409C1118.16 442.409 1119.57 442.701 1120.77 443.284C1121.98 443.867 1122.91 444.655 1123.58 445.648C1124.25 446.633 1124.59 447.739 1124.58 448.966C1124.59 450.269 1124.18 451.356 1123.36 452.227C1122.55 453.098 1121.5 453.652 1120.19 453.886V454.068C1121.91 454.288 1123.21 454.883 1124.1 455.852C1125 456.814 1125.45 458.019 1125.44 459.466C1125.45 460.792 1125.07 461.97 1124.3 463C1123.53 464.03 1122.47 464.841 1121.12 465.432C1119.78 466.023 1118.23 466.318 1116.49 466.318ZM1138.11 466.511C1136.15 466.504 1134.47 466.023 1133.06 465.068C1131.66 464.114 1130.58 462.731 1129.82 460.92C1129.07 459.11 1128.7 456.932 1128.71 454.386C1128.71 451.848 1129.08 449.686 1129.83 447.898C1130.59 446.11 1131.67 444.75 1133.07 443.818C1134.48 442.879 1136.16 442.409 1138.11 442.409C1140.05 442.409 1141.73 442.879 1143.13 443.818C1144.54 444.758 1145.62 446.121 1146.38 447.909C1147.14 449.689 1147.51 451.848 1147.5 454.386C1147.5 456.939 1147.12 459.121 1146.37 460.932C1145.62 462.742 1144.54 464.125 1143.14 465.08C1141.74 466.034 1140.06 466.511 1138.11 466.511ZM1138.11 462.432C1139.44 462.432 1140.5 461.761 1141.3 460.42C1142.09 459.08 1142.49 457.068 1142.48 454.386C1142.48 452.621 1142.3 451.152 1141.93 449.977C1141.58 448.803 1141.07 447.92 1140.41 447.33C1139.76 446.739 1138.99 446.443 1138.11 446.443C1136.78 446.443 1135.72 447.106 1134.92 448.432C1134.13 449.758 1133.73 451.742 1133.72 454.386C1133.72 456.174 1133.9 457.667 1134.25 458.864C1134.62 460.053 1135.13 460.947 1135.79 461.545C1136.45 462.136 1137.22 462.432 1138.11 462.432ZM1159.94 466.318C1158.75 466.311 1157.59 466.11 1156.48 465.716C1155.37 465.322 1154.38 464.682 1153.5 463.795C1152.62 462.909 1151.92 461.735 1151.41 460.273C1150.9 458.811 1150.65 457.015 1150.65 454.886C1150.66 452.932 1150.88 451.186 1151.32 449.648C1151.77 448.102 1152.4 446.792 1153.23 445.716C1154.06 444.64 1155.06 443.822 1156.22 443.261C1157.38 442.693 1158.67 442.409 1160.11 442.409C1161.67 442.409 1163.04 442.712 1164.23 443.318C1165.42 443.917 1166.37 444.731 1167.09 445.761C1167.82 446.792 1168.26 447.947 1168.41 449.227H1163.56C1163.37 448.417 1162.97 447.78 1162.36 447.318C1161.76 446.856 1161.01 446.625 1160.11 446.625C1158.6 446.625 1157.45 447.284 1156.66 448.602C1155.88 449.92 1155.48 451.712 1155.47 453.977H1155.62C1155.97 453.288 1156.44 452.701 1157.03 452.216C1157.63 451.723 1158.31 451.348 1159.07 451.091C1159.83 450.826 1160.64 450.693 1161.49 450.693C1162.87 450.693 1164.09 451.019 1165.17 451.67C1166.25 452.314 1167.09 453.201 1167.72 454.33C1168.34 455.458 1168.65 456.75 1168.65 458.205C1168.65 459.78 1168.28 461.182 1167.55 462.409C1166.82 463.636 1165.8 464.598 1164.49 465.295C1163.19 465.985 1161.67 466.326 1159.94 466.318ZM1159.92 462.455C1160.68 462.455 1161.36 462.273 1161.95 461.909C1162.55 461.545 1163.02 461.053 1163.36 460.432C1163.7 459.811 1163.88 459.114 1163.88 458.341C1163.88 457.568 1163.7 456.875 1163.36 456.261C1163.03 455.648 1162.57 455.159 1161.98 454.795C1161.39 454.432 1160.71 454.25 1159.95 454.25C1159.39 454.25 1158.86 454.356 1158.38 454.568C1157.9 454.78 1157.48 455.076 1157.11 455.455C1156.76 455.833 1156.48 456.273 1156.27 456.773C1156.07 457.265 1155.97 457.792 1155.97 458.352C1155.97 459.102 1156.14 459.788 1156.48 460.409C1156.83 461.03 1157.3 461.527 1157.89 461.898C1158.48 462.269 1159.16 462.455 1159.92 462.455ZM1186.69 442.136L1188.17 445.295C1187.68 445.705 1187.13 446.008 1186.53 446.205C1185.94 446.394 1185.22 446.519 1184.39 446.58C1183.56 446.64 1182.55 446.682 1181.36 446.705C1180.02 446.72 1178.92 446.936 1178.07 447.352C1177.22 447.769 1176.58 448.424 1176.14 449.318C1175.7 450.205 1175.41 451.364 1175.27 452.795H1175.44C1175.97 451.727 1176.7 450.902 1177.65 450.318C1178.6 449.735 1179.78 449.443 1181.18 449.443C1182.67 449.443 1183.97 449.769 1185.08 450.42C1186.2 451.072 1187.07 452.008 1187.69 453.227C1188.31 454.447 1188.62 455.909 1188.62 457.614C1188.62 459.386 1188.28 460.928 1187.58 462.239C1186.89 463.542 1185.91 464.553 1184.64 465.273C1183.36 465.985 1181.85 466.341 1180.09 466.341C1178.33 466.341 1176.8 465.97 1175.52 465.227C1174.25 464.485 1173.27 463.39 1172.57 461.943C1171.88 460.496 1171.53 458.716 1171.53 456.602V455.17C1171.53 450.966 1172.35 447.848 1173.99 445.818C1175.63 443.788 1178.03 442.758 1181.2 442.727C1182.07 442.712 1182.85 442.708 1183.55 442.716C1184.24 442.723 1184.85 442.689 1185.38 442.614C1185.91 442.538 1186.34 442.379 1186.69 442.136ZM1180.11 462.591C1180.86 462.591 1181.49 462.398 1182.02 462.011C1182.56 461.625 1182.97 461.072 1183.26 460.352C1183.56 459.633 1183.7 458.773 1183.7 457.773C1183.7 456.78 1183.56 455.939 1183.26 455.25C1182.97 454.553 1182.56 454.023 1182.02 453.659C1181.48 453.295 1180.84 453.114 1180.09 453.114C1179.53 453.114 1179.03 453.216 1178.58 453.42C1178.13 453.625 1177.75 453.928 1177.43 454.33C1177.12 454.723 1176.88 455.212 1176.7 455.795C1176.54 456.371 1176.45 457.03 1176.45 457.773C1176.45 459.265 1176.78 460.443 1177.42 461.307C1178.07 462.163 1178.97 462.591 1180.11 462.591Z" fill="#7E7E7E"/>
<path id="Vector" d="M1120 571.875C1120 570.847 1120.5 569.862 1121.39 569.135C1122.28 568.408 1123.49 568 1124.75 568H1153.25C1154.51 568 1155.72 568.408 1156.61 569.135C1157.5 569.862 1158 570.847 1158 571.875V587.375C1158 588.403 1157.5 589.388 1156.61 590.115C1155.72 590.842 1154.51 591.25 1153.25 591.25H1124.75C1123.49 591.25 1122.28 590.842 1121.39 590.115C1120.5 589.388 1120 588.403 1120 587.375V571.875ZM1147.71 575.537C1149.33 575.537 1150.41 576.448 1150.53 577.682H1153.25V577.469C1153.12 575.169 1150.82 573.594 1147.69 573.594C1143.88 573.594 1141.71 575.628 1141.71 578.924V580.371C1141.71 583.665 1143.86 585.66 1147.69 585.66C1150.81 585.66 1153.11 584.126 1153.25 581.903V581.683H1150.53C1150.41 582.874 1149.35 583.717 1147.71 583.717C1145.71 583.717 1144.58 582.516 1144.58 580.371V578.933C1144.58 576.779 1145.74 575.537 1147.71 575.537ZM1133.01 577.331H1133.11L1135.54 585.438H1137.93L1141.38 573.814H1138.57L1136.62 582.252H1136.49L1134.18 573.814H1131.95L1129.64 582.252H1129.51L1127.55 573.814H1124.75L1128.2 585.438H1130.59L1133.01 577.331Z" fill="#7E7E7E"/>
<path id="Vector_2" d="M779.656 754.875C780.029 754.875 780.387 755.026 780.651 755.296C780.914 755.566 781.062 755.931 781.062 756.312V757.75H797.938V756.312C797.938 755.931 798.086 755.566 798.349 755.296C798.613 755.026 798.971 754.875 799.344 754.875C799.717 754.875 800.074 755.026 800.338 755.296C800.602 755.566 800.75 755.931 800.75 756.312V796.562C800.75 796.944 800.602 797.309 800.338 797.579C800.074 797.849 799.717 798 799.344 798C798.971 798 798.613 797.849 798.349 797.579C798.086 797.309 797.938 796.944 797.938 796.562V795.125H781.062V796.562C781.062 796.944 780.914 797.309 780.651 797.579C780.387 797.849 780.029 798 779.656 798C779.283 798 778.926 797.849 778.662 797.579C778.398 797.309 778.25 796.944 778.25 796.562V756.312C778.25 755.931 778.398 755.566 778.662 755.296C778.926 755.026 779.283 754.875 779.656 754.875ZM781.062 792.25H797.938V786.5H781.062V792.25ZM781.062 783.625H797.938V777.875H781.062V783.625ZM781.062 775H797.938V769.25H781.062V775ZM781.062 766.375H797.938V760.625H781.062V766.375Z" fill="#D9D9D9"/>
<path id="Vector_3" d="M1226.66 169.875C1227.03 169.875 1227.39 170.026 1227.65 170.296C1227.91 170.566 1228.06 170.931 1228.06 171.312V172.75H1244.94V171.312C1244.94 170.931 1245.09 170.566 1245.35 170.296C1245.61 170.026 1245.97 169.875 1246.34 169.875C1246.72 169.875 1247.07 170.026 1247.34 170.296C1247.6 170.566 1247.75 170.931 1247.75 171.312V211.562C1247.75 211.944 1247.6 212.309 1247.34 212.579C1247.07 212.849 1246.72 213 1246.34 213C1245.97 213 1245.61 212.849 1245.35 212.579C1245.09 212.309 1244.94 211.944 1244.94 211.562V210.125H1228.06V211.562C1228.06 211.944 1227.91 212.309 1227.65 212.579C1227.39 212.849 1227.03 213 1226.66 213C1226.28 213 1225.93 212.849 1225.66 212.579C1225.4 212.309 1225.25 211.944 1225.25 211.562V171.312C1225.25 170.931 1225.4 170.566 1225.66 170.296C1225.93 170.026 1226.28 169.875 1226.66 169.875ZM1228.06 207.25H1244.94V201.5H1228.06V207.25ZM1228.06 198.625H1244.94V192.875H1228.06V198.625ZM1228.06 190H1244.94V184.25H1228.06V190ZM1228.06 181.375H1244.94V175.625H1228.06V181.375Z" fill="#D9D9D9"/>
<path id="Vector_4" d="M1118.38 540.844C1118.38 540.471 1118.53 540.113 1118.8 539.849C1119.07 539.586 1119.43 539.438 1119.81 539.438H1121.25V522.562H1119.81C1119.43 522.562 1119.07 522.414 1118.8 522.151C1118.53 521.887 1118.38 521.529 1118.38 521.156C1118.38 520.783 1118.53 520.426 1118.8 520.162C1119.07 519.898 1119.43 519.75 1119.81 519.75H1160.06C1160.44 519.75 1160.81 519.898 1161.08 520.162C1161.35 520.426 1161.5 520.783 1161.5 521.156C1161.5 521.529 1161.35 521.887 1161.08 522.151C1160.81 522.414 1160.44 522.562 1160.06 522.562H1158.62V539.438H1160.06C1160.44 539.438 1160.81 539.586 1161.08 539.849C1161.35 540.113 1161.5 540.471 1161.5 540.844C1161.5 541.217 1161.35 541.574 1161.08 541.838C1160.81 542.102 1160.44 542.25 1160.06 542.25H1119.81C1119.43 542.25 1119.07 542.102 1118.8 541.838C1118.53 541.574 1118.38 541.217 1118.38 540.844ZM1155.75 539.438V522.562H1150V539.438H1155.75ZM1147.12 539.438V522.562H1141.38V539.438H1147.12ZM1138.5 539.438V522.562H1132.75V539.438H1138.5ZM1129.88 539.438V522.562H1124.12V539.438H1129.88Z" fill="#D9D9D9"/>
<path id="Vector_5" d="M1120 616.875C1120 615.847 1120.5 614.862 1121.39 614.135C1122.28 613.408 1123.49 613 1124.75 613H1153.25C1154.51 613 1155.72 613.408 1156.61 614.135C1157.5 614.862 1158 615.847 1158 616.875V632.375C1158 633.403 1157.5 634.388 1156.61 635.115C1155.72 635.842 1154.51 636.25 1153.25 636.25H1124.75C1123.49 636.25 1122.28 635.842 1121.39 635.115C1120.5 634.388 1120 633.403 1120 632.375V616.875ZM1147.71 620.537C1149.33 620.537 1150.41 621.448 1150.53 622.682H1153.25V622.469C1153.12 620.169 1150.82 618.594 1147.69 618.594C1143.88 618.594 1141.71 620.628 1141.71 623.924V625.371C1141.71 628.665 1143.86 630.66 1147.69 630.66C1150.81 630.66 1153.11 629.126 1153.25 626.903V626.683H1150.53C1150.41 627.874 1149.35 628.717 1147.71 628.717C1145.71 628.717 1144.58 627.516 1144.58 625.371V623.933C1144.58 621.779 1145.74 620.537 1147.71 620.537ZM1133.01 622.331H1133.11L1135.54 630.438H1137.93L1141.38 618.814H1138.57L1136.62 627.252H1136.49L1134.18 618.814H1131.95L1129.64 627.252H1129.51L1127.55 618.814H1124.75L1128.2 630.438H1130.59L1133.01 622.331Z" fill="#7E7E7E"/>
</g>
<defs>
<filter id="filter0_f_0_1" x="444" y="210" width="837" height="537" filterUnits="userSpaceOnUse" color-interpolation-filters="sRGB">
<feFlood flood-opacity="0" result="BackgroundImageFix"/>
<feBlend mode="normal" in="SourceGraphic" in2="BackgroundImageFix" result="shape"/>
<feGaussianBlur stdDeviation="3" result="effect1_foregroundBlur_0_1"/>
</filter>
<filter id="filter1_d_0_1" x="453" y="700" width="136" height="142" filterUnits="userSpaceOnUse" color-interpolation-filters="sRGB">
<feFlood flood-opacity="0" result="BackgroundImageFix"/>
<feColorMatrix in="SourceAlpha" type="matrix" values="0 0 0 0 0 0 0 0 0 0 0 0 0 0 0 0 0 0 127 0" result="hardAlpha"/>
<feOffset dy="4"/>
<feGaussianBlur stdDeviation="2"/>
<feComposite in2="hardAlpha" operator="out"/>
<feColorMatrix type="matrix" values="0 0 0 0 0 0 0 0 0 0 0 0 0 0 0 0 0 0 0.25 0"/>
<feBlend mode="normal" in2="BackgroundImageFix" result="effect1_dropShadow_0_1"/>
<feBlend mode="normal" in="SourceGraphic" in2="effect1_dropShadow_0_1" result="shape"/>
</filter>
<filter id="filter2_d_0_1" x="583" y="700" width="59" height="142" filterUnits="userSpaceOnUse" color-interpolation-filters="sRGB">
<feFlood flood-opacity="0" result="BackgroundImageFix"/>
<feColorMatrix in="SourceAlpha" type="matrix" values="0 0 0 0 0 0 0 0 0 0 0 0 0 0 0 0 0 0 127 0" result="hardAlpha"/>
<feOffset dy="4"/>
<feGaussianBlur stdDeviation="2"/>
<feComposite in2="hardAlpha" operator="out"/>
<feColorMatrix type="matrix" values="0 0 0 0 0 0 0 0 0 0 0 0 0 0 0 0 0 0 0.25 0"/>
<feBlend mode="normal" in2="BackgroundImageFix" result="effect1_dropShadow_0_1"/>
<feBlend mode="normal" in="SourceGraphic" in2="effect1_dropShadow_0_1" result="shape"/>
</filter>
<filter id="filter3_d_0_1" x="636" y="736" width="133" height="106" filterUnits="userSpaceOnUse" color-interpolation-filters="sRGB">
<feFlood flood-opacity="0" result="BackgroundImageFix"/>
<feColorMatrix in="SourceAlpha" type="matrix" values="0 0 0 0 0 0 0 0 0 0 0 0 0 0 0 0 0 0 127 0" result="hardAlpha"/>
<feOffset dy="4"/>
<feGaussianBlur stdDeviation="2"/>
<feComposite in2="hardAlpha" operator="out"/>
<feColorMatrix type="matrix" values="0 0 0 0 0 0 0 0 0 0 0 0 0 0 0 0 0 0 0.25 0"/>
<feBlend mode="normal" in2="BackgroundImageFix" result="effect1_dropShadow_0_1"/>
<feBlend mode="normal" in="SourceGraphic" in2="effect1_dropShadow_0_1" result="shape"/>
</filter>
<filter id="filter4_d_0_1" x="659" y="700" width="110" height="42" filterUnits="userSpaceOnUse" color-interpolation-filters="sRGB">
<feFlood flood-opacity="0" result="BackgroundImageFix"/>
<feColorMatrix in="SourceAlpha" type="matrix" values="0 0 0 0 0 0 0 0 0 0 0 0 0 0 0 0 0 0 127 0" result="hardAlpha"/>
<feOffset dy="4"/>
<feGaussianBlur stdDeviation="2"/>
<feComposite in2="hardAlpha" operator="out"/>
<feColorMatrix type="matrix" values="0 0 0 0 0 0 0 0 0 0 0 0 0 0 0 0 0 0 0.25 0"/>
<feBlend mode="normal" in2="BackgroundImageFix" result="effect1_dropShadow_0_1"/>
<feBlend mode="normal" in="SourceGraphic" in2="effect1_dropShadow_0_1" result="shape"/>
</filter>
<filter id="filter5_d_0_1" x="810" y="700" width="140" height="142" filterUnits="userSpaceOnUse" color-interpolation-filters="sRGB">
<feFlood flood-opacity="0" result="BackgroundImageFix"/>
<feColorMatrix in="SourceAlpha" type="matrix" values="0 0 0 0 0 0 0 0 0 0 0 0 0 0 0 0 0 0 127 0" result="hardAlpha"/>
<feOffset dy="4"/>
<feGaussianBlur stdDeviation="2"/>
<feComposite in2="hardAlpha" operator="out"/>
<feColorMatrix type="matrix" values="0 0 0 0 0 0 0 0 0 0 0 0 0 0 0 0 0 0 0.25 0"/>
<feBlend mode="normal" in2="BackgroundImageFix" result="effect1_dropShadow_0_1"/>
<feBlend mode="normal" in="SourceGraphic" in2="effect1_dropShadow_0_1" result="shape"/>
</filter>
<filter id="filter6_d_0_1" x="944" y="700" width="160" height="142" filterUnits="userSpaceOnUse" color-interpolation-filters="sRGB">
<feFlood flood-opacity="0" result="BackgroundImageFix"/>
<feColorMatrix in="SourceAlpha" type="matrix" values="0 0 0 0 0 0 0 0 0 0 0 0 0 0 0 0 0 0 127 0" result="hardAlpha"/>
<feOffset dy="4"/>
<feGaussianBlur stdDeviation="2"/>
<feComposite in2="hardAlpha" operator="out"/>
<feColorMatrix type="matrix" values="0 0 0 0 0 0 0 0 0 0 0 0 0 0 0 0 0 0 0.25 0"/>
<feBlend mode="normal" in2="BackgroundImageFix" result="effect1_dropShadow_0_1"/>
<feBlend mode="normal" in="SourceGraphic" in2="effect1_dropShadow_0_1" result="shape"/>
</filter>
<filter id="filter7_d_0_1" x="1241" y="558" width="118" height="101" filterUnits="userSpaceOnUse" color-interpolation-filters="sRGB">
<feFlood flood-opacity="0" result="BackgroundImageFix"/>
<feColorMatrix in="SourceAlpha" type="matrix" values="0 0 0 0 0 0 0 0 0 0 0 0 0 0 0 0 0 0 127 0" result="hardAlpha"/>
<feOffset dy="4"/>
<feGaussianBlur stdDeviation="2"/>
<feComposite in2="hardAlpha" operator="out"/>
<feColorMatrix type="matrix" values="0 0 0 0 0 0 0 0 0 0 0 0 0 0 0 0 0 0 0.25 0"/>
<feBlend mode="normal" in2="BackgroundImageFix" result="effect1_dropShadow_0_1"/>
<feBlend mode="normal" in="SourceGraphic" in2="effect1_dropShadow_0_1" result="shape"/>
</filter>
<filter id="filter8_d_0_1" x="1092" y="560" width="93" height="48" filterUnits="userSpaceOnUse" color-interpolation-filters="sRGB">
<feFlood flood-opacity="0" result="BackgroundImageFix"/>
<feColorMatrix in="SourceAlpha" type="matrix" values="0 0 0 0 0 0 0 0 0 0 0 0 0 0 0 0 0 0 127 0" result="hardAlpha"/>
<feOffset dy="4"/>
<feGaussianBlur stdDeviation="2"/>
<feComposite in2="hardAlpha" operator="out"/>
<feColorMatrix type="matrix" values="0 0 0 0 0 0 0 0 0 0 0 0 0 0 0 0 0 0 0.25 0"/>
<feBlend mode="normal" in2="BackgroundImageFix" result="effect1_dropShadow_0_1"/>
<feBlend mode="normal" in="SourceGraphic" in2="effect1_dropShadow_0_1" result="shape"/>
</filter>
<filter id="filter9_d_0_1" x="1092" y="602" width="93" height="54" filterUnits="userSpaceOnUse" color-interpolation-filters="sRGB">
<feFlood flood-opacity="0" result="BackgroundImageFix"/>
<feColorMatrix in="SourceAlpha" type="matrix" values="0 0 0 0 0 0 0 0 0 0 0 0 0 0 0 0 0 0 127 0" result="hardAlpha"/>
<feOffset dy="4"/>
<feGaussianBlur stdDeviation="2"/>
<feComposite in2="hardAlpha" operator="out"/>
<feColorMatrix type="matrix" values="0 0 0 0 0 0 0 0 0 0 0 0 0 0 0 0 0 0 0.25 0"/>
<feBlend mode="normal" in2="BackgroundImageFix" result="effect1_dropShadow_0_1"/>
<feBlend mode="normal" in="SourceGraphic" in2="effect1_dropShadow_0_1" result="shape"/>
</filter>
<filter id="filter10_d_0_1" x="1179" y="581" width="35" height="44" filterUnits="userSpaceOnUse" color-interpolation-filters="sRGB">
<feFlood flood-opacity="0" result="BackgroundImageFix"/>
<feColorMatrix in="SourceAlpha" type="matrix" values="0 0 0 0 0 0 0 0 0 0 0 0 0 0 0 0 0 0 127 0" result="hardAlpha"/>
<feOffset dy="4"/>
<feGaussianBlur stdDeviation="2"/>
<feComposite in2="hardAlpha" operator="out"/>
<feColorMatrix type="matrix" values="0 0 0 0 0 0 0 0 0 0 0 0 0 0 0 0 0 0 0.25 0"/>
<feBlend mode="normal" in2="BackgroundImageFix" result="effect1_dropShadow_0_1"/>
<feBlend mode="normal" in="SourceGraphic" in2="effect1_dropShadow_0_1" result="shape"/>
</filter>
<filter id="filter11_d_0_1" x="1241" y="403" width="134" height="161" filterUnits="userSpaceOnUse" color-interpolation-filters="sRGB">
<feFlood flood-opacity="0" result="BackgroundImageFix"/>
<feColorMatrix in="SourceAlpha" type="matrix" values="0 0 0 0 0 0 0 0 0 0 0 0 0 0 0 0 0 0 127 0" result="hardAlpha"/>
<feOffset dy="4"/>
<feGaussianBlur stdDeviation="2"/>
<feComposite in2="hardAlpha" operator="out"/>
<feColorMatrix type="matrix" values="0 0 0 0 0 0 0 0 0 0 0 0 0 0 0 0 0 0 0.25 0"/>
<feBlend mode="normal" in2="BackgroundImageFix" result="effect1_dropShadow_0_1"/>
<feBlend mode="normal" in="SourceGraphic" in2="effect1_dropShadow_0_1" result="shape"/>
</filter>
<filter id="filter12_d_0_1" x="1241" y="244" width="134" height="165" filterUnits="userSpaceOnUse" color-interpolation-filters="sRGB">
<feFlood flood-opacity="0" result="BackgroundImageFix"/>
<feColorMatrix in="SourceAlpha" type="matrix" values="0 0 0 0 0 0 0 0 0 0 0 0 0 0 0 0 0 0 127 0" result="hardAlpha"/>
<feOffset dy="4"/>
<feGaussianBlur stdDeviation="2"/>
<feComposite in2="hardAlpha" operator="out"/>
<feColorMatrix type="matrix" values="0 0 0 0 0 0 0 0 0 0 0 0 0 0 0 0 0 0 0.25 0"/>
<feBlend mode="normal" in2="BackgroundImageFix" result="effect1_dropShadow_0_1"/>
<feBlend mode="normal" in="SourceGraphic" in2="effect1_dropShadow_0_1" result="shape"/>
</filter>
<filter id="filter13_d_0_1" x="1266" y="120" width="97" height="130" filterUnits="userSpaceOnUse" color-interpolation-filters="sRGB">
<feFlood flood-opacity="0" result="BackgroundImageFix"/>
<feColorMatrix in="SourceAlpha" type="matrix" values="0 0 0 0 0 0 0 0 0 0 0 0 0 0 0 0 0 0 127 0" result="hardAlpha"/>
<feOffset dy="4"/>
<feGaussianBlur stdDeviation="2"/>
<feComposite in2="hardAlpha" operator="out"/>
<feColorMatrix type="matrix" values="0 0 0 0 0 0 0 0 0 0 0 0 0 0 0 0 0 0 0.25 0"/>
<feBlend mode="normal" in2="BackgroundImageFix" result="effect1_dropShadow_0_1"/>
<feBlend mode="normal" in="SourceGraphic" in2="effect1_dropShadow_0_1" result="shape"/>
</filter>
<filter id="filter14_d_0_1" x="1090" y="411" width="116" height="98.5" filterUnits="userSpaceOnUse" color-interpolation-filters="sRGB">
<feFlood flood-opacity="0" result="BackgroundImageFix"/>
<feColorMatrix in="SourceAlpha" type="matrix" values="0 0 0 0 0 0 0 0 0 0 0 0 0 0 0 0 0 0 127 0" result="hardAlpha"/>
<feOffset dy="4"/>
<feGaussianBlur stdDeviation="2"/>
<feComposite in2="hardAlpha" operator="out"/>
<feColorMatrix type="matrix" values="0 0 0 0 0 0 0 0 0 0 0 0 0 0 0 0 0 0 0.25 0"/>
<feBlend mode="normal" in2="BackgroundImageFix" result="effect1_dropShadow_0_1"/>
<feBlend mode="normal" in="SourceGraphic" in2="effect1_dropShadow_0_1" result="shape"/>
</filter>
<filter id="filter15_d_0_1" x="1090" y="300" width="116" height="117" filterUnits="userSpaceOnUse" color-interpolation-filters="sRGB">
<feFlood flood-opacity="0" result="BackgroundImageFix"/>
<feColorMatrix in="SourceAlpha" type="matrix" values="0 0 0 0 0 0 0 0 0 0 0 0 0 0 0 0 0 0 127 0" result="hardAlpha"/>
<feOffset dy="4"/>
<feGaussianBlur stdDeviation="2"/>
<feComposite in2="hardAlpha" operator="out"/>
<feColorMatrix type="matrix" values="0 0 0 0 0 0 0 0 0 0 0 0 0 0 0 0 0 0 0.25 0"/>
<feBlend mode="normal" in2="BackgroundImageFix" result="effect1_dropShadow_0_1"/>
<feBlend mode="normal" in="SourceGraphic" in2="effect1_dropShadow_0_1" result="shape"/>
</filter>
<filter id="filter16_d_0_1" x="1082" y="247" width="124" height="59" filterUnits="userSpaceOnUse" color-interpolation-filters="sRGB">
<feFlood flood-opacity="0" result="BackgroundImageFix"/>
<feColorMatrix in="SourceAlpha" type="matrix" values="0 0 0 0 0 0 0 0 0 0 0 0 0 0 0 0 0 0 127 0" result="hardAlpha"/>
<feOffset dy="4"/>
<feGaussianBlur stdDeviation="2"/>
<feComposite in2="hardAlpha" operator="out"/>
<feColorMatrix type="matrix" values="0 0 0 0 0 0 0 0 0 0 0 0 0 0 0 0 0 0 0.25 0"/>
<feBlend mode="normal" in2="BackgroundImageFix" result="effect1_dropShadow_0_1"/>
<feBlend mode="normal" in="SourceGraphic" in2="effect1_dropShadow_0_1" result="shape"/>
</filter>
<filter id="filter17_d_0_1" x="1082" y="120.5" width="124" height="132.5" filterUnits="userSpaceOnUse" color-interpolation-filters="sRGB">
<feFlood flood-opacity="0" result="BackgroundImageFix"/>
<feColorMatrix in="SourceAlpha" type="matrix" values="0 0 0 0 0 0 0 0 0 0 0 0 0 0 0 0 0 0 127 0" result="hardAlpha"/>
<feOffset dy="4"/>
<feGaussianBlur stdDeviation="2"/>
<feComposite in2="hardAlpha" operator="out"/>
<feColorMatrix type="matrix" values="0 0 0 0 0 0 0 0 0 0 0 0 0 0 0 0 0 0 0.25 0"/>
<feBlend mode="normal" in2="BackgroundImageFix" result="effect1_dropShadow_0_1"/>
<feBlend mode="normal" in="SourceGraphic" in2="effect1_dropShadow_0_1" result="shape"/>
</filter>
</defs>
</svg>
