<svg width="905" height="833" viewBox="0 0 905 833" fill="none" xmlns="http://www.w3.org/2000/svg">
<rect width="905" height="833" fill="#1E1E1E"/>
<g id="Frame 1">
<rect width="905" height="833" fill="white"/>
<path id="Rectangle 37" d="M440 30H718.5V153H726.5V459.5H713.5V631.5C569.501 647.682 505.73 671.131 436 741.5H114.5L114.5 607.5C68.951 599.013 76.1084 540.638 114.5 537.5H379C404.755 549.474 416.434 551.344 446.75 548.5V216H440V30Z" fill="#7E7E7E"/>
<g id="Group 1" filter="url(#filter0_f_0_1)">
<line id="Line 1" x1="190" y1="606" x2="208" y2="606" stroke="#4674FF" stroke-width="10"/>
<line id="Line 2" x1="320" y1="606" x2="338" y2="606" stroke="#4674FF" stroke-width="10"/>
<line id="Line 3" x1="603" y1="470" x2="603" y2="488" stroke="#4674FF" stroke-width="10"/>
<line id="Line 4" x1="603" y1="437" x2="603" y2="419" stroke="#4674FF" stroke-width="10"/>
<line id="Line 5" x1="562" y1="360" x2="562" y2="378" stroke="#4674FF" stroke-width="10"/>
<line id="Line 6" x1="562" y1="268" x2="562" y2="250" stroke="#4674FF" stroke-width="10"/>
<line id="Line 7" x1="562" y1="131" x2="562" y2="113" stroke="#4674FF" stroke-width="10"/>
<line id="Line 8" x1="629" y1="131" x2="629" y2="113" stroke="#4674FF" stroke-width="10"/>
<line id="Line 9" x1="603" y1="268" x2="603" y2="250" stroke="#4674FF" stroke-width="10"/>
</g>
<g id="402b" filter="url(#filter1_d_0_1)">
<rect x="172" y="606" width="129" height="130" fill="#D9D9D9"/>
</g>
<g id="403b" filter="url(#filter2_d_0_1)">
<path d="M303 606H451V717.288L432.878 736H303V606Z" fill="#D9D9D9"/>
</g>
<g id="410b" filter="url(#filter3_d_0_1)">
<rect x="603" y="455" width="104" height="94" fill="#D9D9D9"/>
</g>
<g id="409b" filter="url(#filter4_d_0_1)">
<rect x="603" y="307" width="118" height="146" fill="#D9D9D9"/>
</g>
<g id="wc-2b" filter="url(#filter5_d_0_1)">
<rect x="453" y="457" width="84" height="41" fill="#D9D9D9"/>
</g>
<g id="wc-1b" filter="url(#filter6_d_0_1)">
<rect x="453" y="500" width="84" height="46" fill="#D9D9D9"/>
</g>
<g id="wc-teacher" filter="url(#filter7_d_0_1)">
<rect x="539" y="481" width="26" height="36" fill="#D9D9D9"/>
</g>
<g id="408b" filter="url(#filter8_d_0_1)">
<rect x="603" y="158" width="118" height="147" fill="#D9D9D9"/>
</g>
<g id="407b" filter="url(#filter9_d_0_1)">
<rect x="629" y="35" width="83" height="121" fill="#D9D9D9"/>
</g>
<g id="406b" filter="url(#filter10_d_0_1)">
<rect x="445" y="38" width="117" height="174" fill="#D9D9D9"/>
</g>
<g id="405b" filter="url(#filter11_d_0_1)">
<rect x="451" y="214" width="111" height="104" fill="#D9D9D9"/>
</g>
<g id="404b" filter="url(#filter12_d_0_1)">
<rect x="451" y="320" width="111" height="96" fill="#D9D9D9"/>
</g>
<g id="dining-room" filter="url(#filter13_d_0_1)">
<path d="M453 551H707V626.5C589.733 637.626 530.762 652.649 453 715V551Z" fill="#D9D9D9"/>
</g>
<path id="402&#208;&#177;" d="M197.534 673.909V670.034L207.25 654.727H210.591V660.091H208.614L202.489 669.784V669.966H216.295V673.909H197.534ZM208.705 678V672.727L208.795 671.011V654.727H213.409V678H208.705ZM228.699 678.511C226.744 678.504 225.063 678.023 223.653 677.068C222.252 676.114 221.172 674.731 220.415 672.92C219.665 671.11 219.294 668.932 219.301 666.386C219.301 663.848 219.676 661.686 220.426 659.898C221.184 658.11 222.263 656.75 223.665 655.818C225.074 654.879 226.752 654.409 228.699 654.409C230.646 654.409 232.32 654.879 233.722 655.818C235.131 656.758 236.214 658.121 236.972 659.909C237.729 661.689 238.104 663.848 238.097 666.386C238.097 668.939 237.718 671.121 236.96 672.932C236.21 674.742 235.134 676.125 233.733 677.08C232.331 678.034 230.653 678.511 228.699 678.511ZM228.699 674.432C230.032 674.432 231.097 673.761 231.892 672.42C232.688 671.08 233.081 669.068 233.074 666.386C233.074 664.621 232.892 663.152 232.528 661.977C232.172 660.803 231.665 659.92 231.006 659.33C230.354 658.739 229.585 658.443 228.699 658.443C227.373 658.443 226.313 659.106 225.517 660.432C224.722 661.758 224.32 663.742 224.312 666.386C224.312 668.174 224.491 669.667 224.847 670.864C225.21 672.053 225.722 672.947 226.381 673.545C227.04 674.136 227.812 674.432 228.699 674.432ZM241.605 678V674.455L249.889 666.784C250.594 666.102 251.185 665.489 251.662 664.943C252.147 664.398 252.514 663.864 252.764 663.341C253.014 662.811 253.139 662.239 253.139 661.625C253.139 660.943 252.984 660.356 252.673 659.864C252.363 659.364 251.938 658.981 251.401 658.716C250.863 658.443 250.253 658.307 249.571 658.307C248.859 658.307 248.238 658.451 247.707 658.739C247.177 659.027 246.768 659.439 246.48 659.977C246.192 660.515 246.048 661.155 246.048 661.898H241.378C241.378 660.375 241.723 659.053 242.412 657.932C243.101 656.811 244.067 655.943 245.31 655.33C246.552 654.716 247.984 654.409 249.605 654.409C251.272 654.409 252.723 654.705 253.957 655.295C255.2 655.879 256.166 656.689 256.855 657.727C257.545 658.765 257.889 659.955 257.889 661.295C257.889 662.174 257.715 663.042 257.366 663.898C257.026 664.754 256.416 665.705 255.537 666.75C254.658 667.788 253.42 669.034 251.821 670.489L248.423 673.818V673.977H258.196V678H241.605ZM276.318 654.136L277.795 657.295C277.303 657.705 276.758 658.008 276.159 658.205C275.561 658.394 274.845 658.519 274.011 658.58C273.186 658.64 272.178 658.682 270.989 658.705C269.64 658.72 268.542 658.936 267.693 659.352C266.845 659.769 266.201 660.424 265.761 661.318C265.322 662.205 265.034 663.364 264.898 664.795H265.068C265.591 663.727 266.326 662.902 267.273 662.318C268.227 661.735 269.405 661.443 270.807 661.443C272.292 661.443 273.591 661.769 274.705 662.42C275.826 663.072 276.697 664.008 277.318 665.227C277.939 666.447 278.25 667.909 278.25 669.614C278.25 671.386 277.902 672.928 277.205 674.239C276.515 675.542 275.534 676.553 274.261 677.273C272.989 677.985 271.473 678.341 269.716 678.341C267.951 678.341 266.428 677.97 265.148 677.227C263.875 676.485 262.89 675.39 262.193 673.943C261.504 672.496 261.159 670.716 261.159 668.602V667.17C261.159 662.966 261.977 659.848 263.614 657.818C265.25 655.788 267.655 654.758 270.83 654.727C271.693 654.712 272.473 654.708 273.17 654.716C273.867 654.723 274.477 654.689 275 654.614C275.53 654.538 275.97 654.379 276.318 654.136ZM269.739 674.591C270.481 674.591 271.117 674.398 271.648 674.011C272.186 673.625 272.598 673.072 272.886 672.352C273.182 671.633 273.33 670.773 273.33 669.773C273.33 668.78 273.182 667.939 272.886 667.25C272.598 666.553 272.186 666.023 271.648 665.659C271.11 665.295 270.466 665.114 269.716 665.114C269.155 665.114 268.652 665.216 268.205 665.42C267.758 665.625 267.375 665.928 267.057 666.33C266.746 666.723 266.504 667.212 266.33 667.795C266.163 668.371 266.08 669.03 266.08 669.773C266.08 671.265 266.402 672.443 267.045 673.307C267.697 674.163 268.595 674.591 269.739 674.591Z" fill="#7E7E7E"/>
<path id="403&#208;&#177;" d="M325.534 670.909V667.034L335.25 651.727H338.591V657.091H336.614L330.489 666.784V666.966H344.295V670.909H325.534ZM336.705 675V669.727L336.795 668.011V651.727H341.409V675H336.705ZM356.699 675.511C354.744 675.504 353.063 675.023 351.653 674.068C350.252 673.114 349.172 671.731 348.415 669.92C347.665 668.11 347.294 665.932 347.301 663.386C347.301 660.848 347.676 658.686 348.426 656.898C349.184 655.11 350.263 653.75 351.665 652.818C353.074 651.879 354.752 651.409 356.699 651.409C358.646 651.409 360.32 651.879 361.722 652.818C363.131 653.758 364.214 655.121 364.972 656.909C365.729 658.689 366.104 660.848 366.097 663.386C366.097 665.939 365.718 668.121 364.96 669.932C364.21 671.742 363.134 673.125 361.733 674.08C360.331 675.034 358.653 675.511 356.699 675.511ZM356.699 671.432C358.032 671.432 359.097 670.761 359.892 669.42C360.688 668.08 361.081 666.068 361.074 663.386C361.074 661.621 360.892 660.152 360.528 658.977C360.172 657.803 359.665 656.92 359.006 656.33C358.354 655.739 357.585 655.443 356.699 655.443C355.373 655.443 354.313 656.106 353.517 657.432C352.722 658.758 352.32 660.742 352.312 663.386C352.312 665.174 352.491 666.667 352.847 667.864C353.21 669.053 353.722 669.947 354.381 670.545C355.04 671.136 355.812 671.432 356.699 671.432ZM378.207 675.318C376.51 675.318 374.999 675.027 373.673 674.443C372.355 673.852 371.313 673.042 370.548 672.011C369.791 670.973 369.401 669.777 369.378 668.42H374.332C374.363 668.989 374.548 669.489 374.889 669.92C375.238 670.345 375.7 670.674 376.276 670.909C376.851 671.144 377.499 671.261 378.219 671.261C378.969 671.261 379.632 671.129 380.207 670.864C380.783 670.598 381.234 670.231 381.56 669.761C381.885 669.292 382.048 668.75 382.048 668.136C382.048 667.515 381.874 666.966 381.526 666.489C381.185 666.004 380.692 665.625 380.048 665.352C379.412 665.08 378.654 664.943 377.776 664.943H375.605V661.33H377.776C378.518 661.33 379.173 661.201 379.741 660.943C380.317 660.686 380.764 660.33 381.082 659.875C381.401 659.413 381.56 658.875 381.56 658.261C381.56 657.678 381.42 657.167 381.139 656.727C380.866 656.28 380.48 655.932 379.98 655.682C379.488 655.432 378.912 655.307 378.253 655.307C377.586 655.307 376.976 655.428 376.423 655.67C375.87 655.905 375.427 656.242 375.094 656.682C374.76 657.121 374.582 657.636 374.56 658.227H369.844C369.866 656.886 370.249 655.705 370.991 654.682C371.734 653.659 372.734 652.86 373.991 652.284C375.257 651.701 376.685 651.409 378.276 651.409C379.882 651.409 381.287 651.701 382.491 652.284C383.696 652.867 384.632 653.655 385.298 654.648C385.973 655.633 386.306 656.739 386.298 657.966C386.306 659.269 385.901 660.356 385.082 661.227C384.272 662.098 383.215 662.652 381.912 662.886V663.068C383.624 663.288 384.927 663.883 385.821 664.852C386.723 665.814 387.17 667.019 387.162 668.466C387.17 669.792 386.787 670.97 386.014 672C385.249 673.03 384.192 673.841 382.844 674.432C381.495 675.023 379.95 675.318 378.207 675.318ZM405.256 651.136L406.733 654.295C406.241 654.705 405.695 655.008 405.097 655.205C404.498 655.394 403.782 655.519 402.949 655.58C402.123 655.64 401.116 655.682 399.926 655.705C398.578 655.72 397.479 655.936 396.631 656.352C395.782 656.769 395.138 657.424 394.699 658.318C394.259 659.205 393.972 660.364 393.835 661.795H394.006C394.528 660.727 395.263 659.902 396.21 659.318C397.165 658.735 398.343 658.443 399.744 658.443C401.229 658.443 402.528 658.769 403.642 659.42C404.763 660.072 405.634 661.008 406.256 662.227C406.877 663.447 407.188 664.909 407.188 666.614C407.188 668.386 406.839 669.928 406.142 671.239C405.453 672.542 404.472 673.553 403.199 674.273C401.926 674.985 400.411 675.341 398.653 675.341C396.888 675.341 395.366 674.97 394.085 674.227C392.813 673.485 391.828 672.39 391.131 670.943C390.441 669.496 390.097 667.716 390.097 665.602V664.17C390.097 659.966 390.915 656.848 392.551 654.818C394.188 652.788 396.593 651.758 399.767 651.727C400.631 651.712 401.411 651.708 402.108 651.716C402.805 651.723 403.415 651.689 403.938 651.614C404.468 651.538 404.907 651.379 405.256 651.136ZM398.676 671.591C399.419 671.591 400.055 671.398 400.585 671.011C401.123 670.625 401.536 670.072 401.824 669.352C402.119 668.633 402.267 667.773 402.267 666.773C402.267 665.78 402.119 664.939 401.824 664.25C401.536 663.553 401.123 663.023 400.585 662.659C400.047 662.295 399.403 662.114 398.653 662.114C398.093 662.114 397.589 662.216 397.142 662.42C396.695 662.625 396.313 662.928 395.994 663.33C395.684 663.723 395.441 664.212 395.267 664.795C395.1 665.371 395.017 666.03 395.017 666.773C395.017 668.265 395.339 669.443 395.983 670.307C396.634 671.163 397.532 671.591 398.676 671.591Z" fill="#7E7E7E"/>
<path id="&#208;&#161;&#208;&#162;&#208;&#158;&#208;&#155;&#208;&#158;&#208;&#146;&#208;&#144;&#208;&#175;" d="M508.557 593.875H503.58C503.489 593.231 503.303 592.659 503.023 592.159C502.742 591.652 502.383 591.22 501.943 590.864C501.504 590.508 500.996 590.235 500.42 590.045C499.852 589.856 499.235 589.761 498.568 589.761C497.364 589.761 496.314 590.061 495.42 590.659C494.527 591.25 493.833 592.114 493.341 593.25C492.848 594.379 492.602 595.75 492.602 597.364C492.602 599.023 492.848 600.417 493.341 601.545C493.841 602.674 494.538 603.527 495.432 604.102C496.326 604.678 497.36 604.966 498.534 604.966C499.193 604.966 499.803 604.879 500.364 604.705C500.932 604.53 501.436 604.277 501.875 603.943C502.314 603.602 502.678 603.189 502.966 602.705C503.261 602.22 503.466 601.667 503.58 601.045L508.557 601.068C508.428 602.136 508.106 603.167 507.591 604.159C507.083 605.144 506.398 606.027 505.534 606.807C504.678 607.58 503.655 608.193 502.466 608.648C501.284 609.095 499.947 609.318 498.455 609.318C496.379 609.318 494.523 608.848 492.886 607.909C491.258 606.97 489.97 605.61 489.023 603.83C488.083 602.049 487.614 599.894 487.614 597.364C487.614 594.826 488.091 592.667 489.045 590.886C490 589.106 491.295 587.75 492.932 586.818C494.568 585.879 496.409 585.409 498.455 585.409C499.803 585.409 501.053 585.598 502.205 585.977C503.364 586.356 504.39 586.909 505.284 587.636C506.178 588.356 506.905 589.239 507.466 590.284C508.034 591.33 508.398 592.527 508.557 593.875ZM511.199 589.784V585.727H530.312V589.784H523.188V609H518.324V589.784H511.199ZM553.784 597.364C553.784 599.902 553.303 602.061 552.341 603.841C551.386 605.621 550.083 606.981 548.432 607.92C546.788 608.852 544.939 609.318 542.886 609.318C540.818 609.318 538.962 608.848 537.318 607.909C535.674 606.97 534.375 605.61 533.42 603.83C532.466 602.049 531.989 599.894 531.989 597.364C531.989 594.826 532.466 592.667 533.42 590.886C534.375 589.106 535.674 587.75 537.318 586.818C538.962 585.879 540.818 585.409 542.886 585.409C544.939 585.409 546.788 585.879 548.432 586.818C550.083 587.75 551.386 589.106 552.341 590.886C553.303 592.667 553.784 594.826 553.784 597.364ZM548.795 597.364C548.795 595.72 548.549 594.333 548.057 593.205C547.572 592.076 546.886 591.22 546 590.636C545.114 590.053 544.076 589.761 542.886 589.761C541.697 589.761 540.659 590.053 539.773 590.636C538.886 591.22 538.197 592.076 537.705 593.205C537.22 594.333 536.977 595.72 536.977 597.364C536.977 599.008 537.22 600.394 537.705 601.523C538.197 602.652 538.886 603.508 539.773 604.091C540.659 604.674 541.697 604.966 542.886 604.966C544.076 604.966 545.114 604.674 546 604.091C546.886 603.508 547.572 602.652 548.057 601.523C548.549 600.394 548.795 599.008 548.795 597.364ZM556.168 609V605.045L556.827 604.989C557.675 604.92 558.361 604.598 558.884 604.023C559.406 603.439 559.796 602.511 560.054 601.239C560.319 599.958 560.49 598.239 560.565 596.08L560.952 585.727H576.747V609H571.963V589.67H565.52L565.156 597.773C565.035 600.379 564.724 602.508 564.224 604.159C563.732 605.811 562.944 607.03 561.861 607.818C560.785 608.606 559.312 609 557.44 609H556.168ZM602.19 597.364C602.19 599.902 601.709 602.061 600.747 603.841C599.793 605.621 598.49 606.981 596.838 607.92C595.194 608.852 593.346 609.318 591.293 609.318C589.224 609.318 587.368 608.848 585.724 607.909C584.08 606.97 582.781 605.61 581.827 603.83C580.872 602.049 580.395 599.894 580.395 597.364C580.395 594.826 580.872 592.667 581.827 590.886C582.781 589.106 584.08 587.75 585.724 586.818C587.368 585.879 589.224 585.409 591.293 585.409C593.346 585.409 595.194 585.879 596.838 586.818C598.49 587.75 599.793 589.106 600.747 590.886C601.709 592.667 602.19 594.826 602.19 597.364ZM597.202 597.364C597.202 595.72 596.955 594.333 596.463 593.205C595.978 592.076 595.293 591.22 594.406 590.636C593.52 590.053 592.482 589.761 591.293 589.761C590.103 589.761 589.065 590.053 588.179 590.636C587.293 591.22 586.603 592.076 586.111 593.205C585.626 594.333 585.384 595.72 585.384 597.364C585.384 599.008 585.626 600.394 586.111 601.523C586.603 602.652 587.293 603.508 588.179 604.091C589.065 604.674 590.103 604.966 591.293 604.966C592.482 604.966 593.52 604.674 594.406 604.091C595.293 603.508 595.978 602.652 596.463 601.523C596.955 600.394 597.202 599.008 597.202 597.364ZM605.835 609V585.727H615.153C616.866 585.727 618.294 585.981 619.438 586.489C620.581 586.996 621.441 587.701 622.017 588.602C622.593 589.496 622.881 590.527 622.881 591.693C622.881 592.602 622.699 593.402 622.335 594.091C621.972 594.773 621.472 595.333 620.835 595.773C620.206 596.205 619.487 596.511 618.676 596.693V596.92C619.563 596.958 620.392 597.208 621.165 597.67C621.945 598.133 622.578 598.78 623.062 599.614C623.547 600.439 623.79 601.424 623.79 602.568C623.79 603.803 623.483 604.905 622.869 605.875C622.263 606.837 621.366 607.598 620.176 608.159C618.987 608.72 617.521 609 615.778 609H605.835ZM610.756 604.977H614.767C616.138 604.977 617.138 604.716 617.767 604.193C618.396 603.663 618.71 602.958 618.71 602.08C618.71 601.436 618.555 600.867 618.244 600.375C617.934 599.883 617.491 599.496 616.915 599.216C616.347 598.936 615.669 598.795 614.881 598.795H610.756V604.977ZM610.756 595.466H614.403C615.078 595.466 615.676 595.348 616.199 595.114C616.729 594.871 617.146 594.53 617.449 594.091C617.759 593.652 617.915 593.125 617.915 592.511C617.915 591.67 617.616 590.992 617.017 590.477C616.426 589.962 615.585 589.705 614.494 589.705H610.756V595.466ZM631.003 609H625.73L633.764 585.727H640.105L648.128 609H642.855L637.026 591.045H636.844L631.003 609ZM630.673 599.852H643.128V603.693H630.673V599.852ZM668.793 609H663.884V589.75H660.565C659.618 589.75 658.83 589.89 658.202 590.17C657.58 590.443 657.115 590.845 656.804 591.375C656.493 591.905 656.338 592.557 656.338 593.33C656.338 594.095 656.493 594.735 656.804 595.25C657.115 595.765 657.58 596.152 658.202 596.409C658.823 596.667 659.603 596.795 660.543 596.795H665.884V600.75H659.747C657.967 600.75 656.444 600.455 655.179 599.864C653.914 599.273 652.948 598.424 652.281 597.318C651.615 596.205 651.281 594.875 651.281 593.33C651.281 591.792 651.607 590.455 652.259 589.318C652.918 588.174 653.868 587.292 655.111 586.67C656.361 586.042 657.865 585.727 659.622 585.727H668.793V609ZM656.236 598.409H661.543L655.884 609H650.452L656.236 598.409Z" fill="#7E7E7E"/>
<path id="410&#208;&#177;" d="M618.534 512.909V509.034L628.25 493.727H631.591V499.091H629.614L623.489 508.784V508.966H637.295V512.909H618.534ZM629.705 517V511.727L629.795 510.011V493.727H634.409V517H629.705ZM650.386 493.727V517H645.466V498.398H645.33L640 501.739V497.375L645.761 493.727H650.386ZM665.043 517.511C663.088 517.504 661.406 517.023 659.997 516.068C658.596 515.114 657.516 513.731 656.759 511.92C656.009 510.11 655.637 507.932 655.645 505.386C655.645 502.848 656.02 500.686 656.77 498.898C657.527 497.11 658.607 495.75 660.009 494.818C661.418 493.879 663.096 493.409 665.043 493.409C666.99 493.409 668.664 493.879 670.065 494.818C671.474 495.758 672.558 497.121 673.315 498.909C674.073 500.689 674.448 502.848 674.44 505.386C674.44 507.939 674.062 510.121 673.304 511.932C672.554 513.742 671.478 515.125 670.077 516.08C668.675 517.034 666.997 517.511 665.043 517.511ZM665.043 513.432C666.376 513.432 667.44 512.761 668.236 511.42C669.031 510.08 669.425 508.068 669.418 505.386C669.418 503.621 669.236 502.152 668.872 500.977C668.516 499.803 668.009 498.92 667.349 498.33C666.698 497.739 665.929 497.443 665.043 497.443C663.717 497.443 662.656 498.106 661.861 499.432C661.065 500.758 660.664 502.742 660.656 505.386C660.656 507.174 660.834 508.667 661.19 509.864C661.554 511.053 662.065 511.947 662.724 512.545C663.384 513.136 664.156 513.432 665.043 513.432ZM692.506 493.136L693.983 496.295C693.491 496.705 692.945 497.008 692.347 497.205C691.748 497.394 691.032 497.519 690.199 497.58C689.373 497.64 688.366 497.682 687.176 497.705C685.828 497.72 684.729 497.936 683.881 498.352C683.032 498.769 682.388 499.424 681.949 500.318C681.509 501.205 681.222 502.364 681.085 503.795H681.256C681.778 502.727 682.513 501.902 683.46 501.318C684.415 500.735 685.593 500.443 686.994 500.443C688.479 500.443 689.778 500.769 690.892 501.42C692.013 502.072 692.884 503.008 693.506 504.227C694.127 505.447 694.438 506.909 694.438 508.614C694.438 510.386 694.089 511.928 693.392 513.239C692.703 514.542 691.722 515.553 690.449 516.273C689.176 516.985 687.661 517.341 685.903 517.341C684.138 517.341 682.616 516.97 681.335 516.227C680.063 515.485 679.078 514.39 678.381 512.943C677.691 511.496 677.347 509.716 677.347 507.602V506.17C677.347 501.966 678.165 498.848 679.801 496.818C681.438 494.788 683.843 493.758 687.017 493.727C687.881 493.712 688.661 493.708 689.358 493.716C690.055 493.723 690.665 493.689 691.188 493.614C691.718 493.538 692.157 493.379 692.506 493.136ZM685.926 513.591C686.669 513.591 687.305 513.398 687.835 513.011C688.373 512.625 688.786 512.072 689.074 511.352C689.369 510.633 689.517 509.773 689.517 508.773C689.517 507.78 689.369 506.939 689.074 506.25C688.786 505.553 688.373 505.023 687.835 504.659C687.297 504.295 686.653 504.114 685.903 504.114C685.343 504.114 684.839 504.216 684.392 504.42C683.945 504.625 683.563 504.928 683.244 505.33C682.934 505.723 682.691 506.212 682.517 506.795C682.35 507.371 682.267 508.03 682.267 508.773C682.267 510.265 682.589 511.443 683.233 512.307C683.884 513.163 684.782 513.591 685.926 513.591Z" fill="#7E7E7E"/>
<path id="409&#208;&#177;" d="M618.534 388.909V385.034L628.25 369.727H631.591V375.091H629.614L623.489 384.784V384.966H637.295V388.909H618.534ZM629.705 393V387.727L629.795 386.011V369.727H634.409V393H629.705ZM649.699 393.511C647.744 393.504 646.063 393.023 644.653 392.068C643.252 391.114 642.172 389.731 641.415 387.92C640.665 386.11 640.294 383.932 640.301 381.386C640.301 378.848 640.676 376.686 641.426 374.898C642.184 373.11 643.263 371.75 644.665 370.818C646.074 369.879 647.752 369.409 649.699 369.409C651.646 369.409 653.32 369.879 654.722 370.818C656.131 371.758 657.214 373.121 657.972 374.909C658.729 376.689 659.104 378.848 659.097 381.386C659.097 383.939 658.718 386.121 657.96 387.932C657.21 389.742 656.134 391.125 654.733 392.08C653.331 393.034 651.653 393.511 649.699 393.511ZM649.699 389.432C651.032 389.432 652.097 388.761 652.892 387.42C653.688 386.08 654.081 384.068 654.074 381.386C654.074 379.621 653.892 378.152 653.528 376.977C653.172 375.803 652.665 374.92 652.006 374.33C651.354 373.739 650.585 373.443 649.699 373.443C648.373 373.443 647.313 374.106 646.517 375.432C645.722 376.758 645.32 378.742 645.312 381.386C645.312 383.174 645.491 384.667 645.847 385.864C646.21 387.053 646.722 387.947 647.381 388.545C648.04 389.136 648.812 389.432 649.699 389.432ZM671.026 369.409C672.223 369.409 673.374 369.61 674.48 370.011C675.594 370.413 676.586 371.053 677.457 371.932C678.336 372.811 679.029 373.977 679.537 375.432C680.052 376.879 680.313 378.655 680.321 380.761C680.321 382.739 680.098 384.504 679.651 386.057C679.211 387.602 678.579 388.917 677.753 390C676.927 391.083 675.931 391.909 674.764 392.477C673.598 393.038 672.295 393.318 670.855 393.318C669.302 393.318 667.931 393.019 666.741 392.42C665.552 391.814 664.594 390.992 663.866 389.955C663.147 388.909 662.711 387.735 662.56 386.432H667.412C667.601 387.28 667.999 387.939 668.605 388.409C669.211 388.871 669.961 389.102 670.855 389.102C672.37 389.102 673.522 388.443 674.31 387.125C675.098 385.799 675.495 383.985 675.503 381.682H675.344C674.995 382.364 674.526 382.951 673.935 383.443C673.344 383.928 672.666 384.303 671.901 384.568C671.143 384.833 670.336 384.966 669.48 384.966C668.109 384.966 666.885 384.644 665.81 384C664.734 383.356 663.885 382.47 663.264 381.341C662.643 380.212 662.332 378.924 662.332 377.477C662.325 375.917 662.685 374.527 663.412 373.307C664.139 372.087 665.154 371.133 666.457 370.443C667.768 369.746 669.291 369.402 671.026 369.409ZM671.06 373.273C670.295 373.273 669.613 373.455 669.014 373.818C668.423 374.182 667.954 374.67 667.605 375.284C667.264 375.898 667.098 376.583 667.105 377.341C667.105 378.106 667.272 378.795 667.605 379.409C667.946 380.015 668.408 380.5 668.991 380.864C669.582 381.22 670.257 381.398 671.014 381.398C671.582 381.398 672.109 381.292 672.594 381.08C673.079 380.867 673.499 380.576 673.855 380.205C674.219 379.826 674.503 379.39 674.707 378.898C674.912 378.405 675.014 377.883 675.014 377.33C675.007 376.595 674.832 375.92 674.491 375.307C674.151 374.693 673.681 374.201 673.082 373.83C672.484 373.458 671.81 373.273 671.06 373.273ZM698.287 369.136L699.764 372.295C699.272 372.705 698.726 373.008 698.128 373.205C697.529 373.394 696.813 373.519 695.98 373.58C695.154 373.64 694.147 373.682 692.957 373.705C691.609 373.72 690.51 373.936 689.662 374.352C688.813 374.769 688.17 375.424 687.73 376.318C687.291 377.205 687.003 378.364 686.866 379.795H687.037C687.56 378.727 688.295 377.902 689.241 377.318C690.196 376.735 691.374 376.443 692.776 376.443C694.26 376.443 695.56 376.769 696.673 377.42C697.795 378.072 698.666 379.008 699.287 380.227C699.908 381.447 700.219 382.909 700.219 384.614C700.219 386.386 699.87 387.928 699.173 389.239C698.484 390.542 697.503 391.553 696.23 392.273C694.957 392.985 693.442 393.341 691.685 393.341C689.92 393.341 688.397 392.97 687.116 392.227C685.844 391.485 684.859 390.39 684.162 388.943C683.473 387.496 683.128 385.716 683.128 383.602V382.17C683.128 377.966 683.946 374.848 685.582 372.818C687.219 370.788 689.624 369.758 692.798 369.727C693.662 369.712 694.442 369.708 695.139 369.716C695.836 369.723 696.446 369.689 696.969 369.614C697.499 369.538 697.938 369.379 698.287 369.136ZM691.707 389.591C692.45 389.591 693.086 389.398 693.616 389.011C694.154 388.625 694.567 388.072 694.855 387.352C695.151 386.633 695.298 385.773 695.298 384.773C695.298 383.78 695.151 382.939 694.855 382.25C694.567 381.553 694.154 381.023 693.616 380.659C693.079 380.295 692.435 380.114 691.685 380.114C691.124 380.114 690.62 380.216 690.173 380.42C689.726 380.625 689.344 380.928 689.026 381.33C688.715 381.723 688.473 382.212 688.298 382.795C688.132 383.371 688.048 384.03 688.048 384.773C688.048 386.265 688.37 387.443 689.014 388.307C689.666 389.163 690.563 389.591 691.707 389.591Z" fill="#7E7E7E"/>
<path id="408&#208;&#177;" d="M618.534 238.909V235.034L628.25 219.727H631.591V225.091H629.614L623.489 234.784V234.966H637.295V238.909H618.534ZM629.705 243V237.727L629.795 236.011V219.727H634.409V243H629.705ZM649.699 243.511C647.744 243.504 646.063 243.023 644.653 242.068C643.252 241.114 642.172 239.731 641.415 237.92C640.665 236.11 640.294 233.932 640.301 231.386C640.301 228.848 640.676 226.686 641.426 224.898C642.184 223.11 643.263 221.75 644.665 220.818C646.074 219.879 647.752 219.409 649.699 219.409C651.646 219.409 653.32 219.879 654.722 220.818C656.131 221.758 657.214 223.121 657.972 224.909C658.729 226.689 659.104 228.848 659.097 231.386C659.097 233.939 658.718 236.121 657.96 237.932C657.21 239.742 656.134 241.125 654.733 242.08C653.331 243.034 651.653 243.511 649.699 243.511ZM649.699 239.432C651.032 239.432 652.097 238.761 652.892 237.42C653.688 236.08 654.081 234.068 654.074 231.386C654.074 229.621 653.892 228.152 653.528 226.977C653.172 225.803 652.665 224.92 652.006 224.33C651.354 223.739 650.585 223.443 649.699 223.443C648.373 223.443 647.313 224.106 646.517 225.432C645.722 226.758 645.32 228.742 645.312 231.386C645.312 233.174 645.491 234.667 645.847 235.864C646.21 237.053 646.722 237.947 647.381 238.545C648.04 239.136 648.812 239.432 649.699 239.432ZM671.287 243.318C669.537 243.318 667.98 243.034 666.616 242.466C665.26 241.89 664.196 241.106 663.423 240.114C662.651 239.121 662.264 237.996 662.264 236.739C662.264 235.769 662.484 234.879 662.923 234.068C663.37 233.25 663.976 232.572 664.741 232.034C665.507 231.489 666.363 231.14 667.31 230.989V230.83C666.067 230.58 665.06 229.977 664.287 229.023C663.514 228.061 663.128 226.943 663.128 225.67C663.128 224.466 663.48 223.394 664.185 222.455C664.889 221.508 665.855 220.765 667.082 220.227C668.317 219.682 669.719 219.409 671.287 219.409C672.855 219.409 674.253 219.682 675.48 220.227C676.715 220.773 677.685 221.519 678.389 222.466C679.094 223.405 679.45 224.473 679.457 225.67C679.45 226.951 679.056 228.068 678.276 229.023C677.495 229.977 676.495 230.58 675.276 230.83V230.989C676.207 231.14 677.052 231.489 677.81 232.034C678.575 232.572 679.181 233.25 679.628 234.068C680.082 234.879 680.313 235.769 680.321 236.739C680.313 237.996 679.923 239.121 679.151 240.114C678.378 241.106 677.31 241.89 675.946 242.466C674.59 243.034 673.037 243.318 671.287 243.318ZM671.287 239.705C672.067 239.705 672.749 239.564 673.332 239.284C673.916 238.996 674.37 238.602 674.696 238.102C675.029 237.595 675.196 237.011 675.196 236.352C675.196 235.678 675.026 235.083 674.685 234.568C674.344 234.045 673.882 233.636 673.298 233.341C672.715 233.038 672.045 232.886 671.287 232.886C670.537 232.886 669.866 233.038 669.276 233.341C668.685 233.636 668.219 234.045 667.878 234.568C667.545 235.083 667.378 235.678 667.378 236.352C667.378 237.011 667.541 237.595 667.866 238.102C668.192 238.602 668.651 238.996 669.241 239.284C669.832 239.564 670.514 239.705 671.287 239.705ZM671.287 229.307C671.938 229.307 672.518 229.174 673.026 228.909C673.533 228.644 673.931 228.277 674.219 227.807C674.507 227.337 674.651 226.795 674.651 226.182C674.651 225.576 674.507 225.045 674.219 224.591C673.931 224.129 673.537 223.769 673.037 223.511C672.537 223.246 671.954 223.114 671.287 223.114C670.628 223.114 670.045 223.246 669.537 223.511C669.029 223.769 668.632 224.129 668.344 224.591C668.063 225.045 667.923 225.576 667.923 226.182C667.923 226.795 668.067 227.337 668.355 227.807C668.643 228.277 669.041 228.644 669.548 228.909C670.056 229.174 670.635 229.307 671.287 229.307ZM698.318 219.136L699.795 222.295C699.303 222.705 698.758 223.008 698.159 223.205C697.561 223.394 696.845 223.519 696.011 223.58C695.186 223.64 694.178 223.682 692.989 223.705C691.64 223.72 690.542 223.936 689.693 224.352C688.845 224.769 688.201 225.424 687.761 226.318C687.322 227.205 687.034 228.364 686.898 229.795H687.068C687.591 228.727 688.326 227.902 689.273 227.318C690.227 226.735 691.405 226.443 692.807 226.443C694.292 226.443 695.591 226.769 696.705 227.42C697.826 228.072 698.697 229.008 699.318 230.227C699.939 231.447 700.25 232.909 700.25 234.614C700.25 236.386 699.902 237.928 699.205 239.239C698.515 240.542 697.534 241.553 696.261 242.273C694.989 242.985 693.473 243.341 691.716 243.341C689.951 243.341 688.428 242.97 687.148 242.227C685.875 241.485 684.89 240.39 684.193 238.943C683.504 237.496 683.159 235.716 683.159 233.602V232.17C683.159 227.966 683.977 224.848 685.614 222.818C687.25 220.788 689.655 219.758 692.83 219.727C693.693 219.712 694.473 219.708 695.17 219.716C695.867 219.723 696.477 219.689 697 219.614C697.53 219.538 697.97 219.379 698.318 219.136ZM691.739 239.591C692.481 239.591 693.117 239.398 693.648 239.011C694.186 238.625 694.598 238.072 694.886 237.352C695.182 236.633 695.33 235.773 695.33 234.773C695.33 233.78 695.182 232.939 694.886 232.25C694.598 231.553 694.186 231.023 693.648 230.659C693.11 230.295 692.466 230.114 691.716 230.114C691.155 230.114 690.652 230.216 690.205 230.42C689.758 230.625 689.375 230.928 689.057 231.33C688.746 231.723 688.504 232.212 688.33 232.795C688.163 233.371 688.08 234.03 688.08 234.773C688.08 236.265 688.402 237.443 689.045 238.307C689.697 239.163 690.595 239.591 691.739 239.591Z" fill="#7E7E7E"/>
<path id="407&#208;&#177;" d="M630.534 97.9091V94.0341L640.25 78.7273H643.591V84.0909H641.614L635.489 93.7841V93.9659H649.295V97.9091H630.534ZM641.705 102V96.7273L641.795 95.0114V78.7273H646.409V102H641.705ZM661.699 102.511C659.744 102.504 658.063 102.023 656.653 101.068C655.252 100.114 654.172 98.7311 653.415 96.9205C652.665 95.1098 652.294 92.9318 652.301 90.3864C652.301 87.8485 652.676 85.6856 653.426 83.8977C654.184 82.1098 655.263 80.75 656.665 79.8182C658.074 78.8788 659.752 78.4091 661.699 78.4091C663.646 78.4091 665.32 78.8788 666.722 79.8182C668.131 80.7576 669.214 82.1212 669.972 83.9091C670.729 85.6894 671.104 87.8485 671.097 90.3864C671.097 92.9394 670.718 95.1212 669.96 96.9318C669.21 98.7424 668.134 100.125 666.733 101.08C665.331 102.034 663.653 102.511 661.699 102.511ZM661.699 98.4318C663.032 98.4318 664.097 97.7614 664.892 96.4205C665.688 95.0795 666.081 93.0682 666.074 90.3864C666.074 88.6212 665.892 87.1515 665.528 85.9773C665.172 84.803 664.665 83.9205 664.006 83.3295C663.354 82.7386 662.585 82.4432 661.699 82.4432C660.373 82.4432 659.313 83.1061 658.517 84.4318C657.722 85.7576 657.32 87.7424 657.312 90.3864C657.312 92.1742 657.491 93.6667 657.847 94.8636C658.21 96.053 658.722 96.947 659.381 97.5455C660.04 98.1364 660.812 98.4318 661.699 98.4318ZM674.901 102L684.548 82.9091V82.75H673.31V78.7273H689.639V82.8068L679.98 102H674.901ZM707.068 78.1364L708.545 81.2955C708.053 81.7045 707.508 82.0076 706.909 82.2045C706.311 82.3939 705.595 82.5189 704.761 82.5795C703.936 82.6402 702.928 82.6818 701.739 82.7045C700.39 82.7197 699.292 82.9356 698.443 83.3523C697.595 83.7689 696.951 84.4242 696.511 85.3182C696.072 86.2045 695.784 87.3636 695.648 88.7955H695.818C696.341 87.7273 697.076 86.9015 698.023 86.3182C698.977 85.7348 700.155 85.4432 701.557 85.4432C703.042 85.4432 704.341 85.7689 705.455 86.4205C706.576 87.072 707.447 88.0076 708.068 89.2273C708.689 90.447 709 91.9091 709 93.6136C709 95.3864 708.652 96.928 707.955 98.2386C707.265 99.5417 706.284 100.553 705.011 101.273C703.739 101.985 702.223 102.341 700.466 102.341C698.701 102.341 697.178 101.97 695.898 101.227C694.625 100.485 693.64 99.3902 692.943 97.9432C692.254 96.4962 691.909 94.7159 691.909 92.6023V91.1705C691.909 86.9659 692.727 83.8485 694.364 81.8182C696 79.7879 698.405 78.7576 701.58 78.7273C702.443 78.7121 703.223 78.7083 703.92 78.7159C704.617 78.7235 705.227 78.6894 705.75 78.6136C706.28 78.5379 706.72 78.3788 707.068 78.1364ZM700.489 98.5909C701.231 98.5909 701.867 98.3977 702.398 98.0114C702.936 97.625 703.348 97.072 703.636 96.3523C703.932 95.6326 704.08 94.7727 704.08 93.7727C704.08 92.7803 703.932 91.9394 703.636 91.25C703.348 90.553 702.936 90.0227 702.398 89.6591C701.86 89.2955 701.216 89.1136 700.466 89.1136C699.905 89.1136 699.402 89.2159 698.955 89.4205C698.508 89.625 698.125 89.928 697.807 90.3295C697.496 90.7235 697.254 91.2121 697.08 91.7955C696.913 92.3712 696.83 93.0303 696.83 93.7727C696.83 95.2652 697.152 96.4432 697.795 97.3068C698.447 98.1629 699.345 98.5909 700.489 98.5909Z" fill="#7E7E7E"/>
<path id="406&#208;&#177;" d="M454.534 129.909V126.034L464.25 110.727H467.591V116.091H465.614L459.489 125.784V125.966H473.295V129.909H454.534ZM465.705 134V128.727L465.795 127.011V110.727H470.409V134H465.705ZM485.699 134.511C483.744 134.504 482.063 134.023 480.653 133.068C479.252 132.114 478.172 130.731 477.415 128.92C476.665 127.11 476.294 124.932 476.301 122.386C476.301 119.848 476.676 117.686 477.426 115.898C478.184 114.11 479.263 112.75 480.665 111.818C482.074 110.879 483.752 110.409 485.699 110.409C487.646 110.409 489.32 110.879 490.722 111.818C492.131 112.758 493.214 114.121 493.972 115.909C494.729 117.689 495.104 119.848 495.097 122.386C495.097 124.939 494.718 127.121 493.96 128.932C493.21 130.742 492.134 132.125 490.733 133.08C489.331 134.034 487.653 134.511 485.699 134.511ZM485.699 130.432C487.032 130.432 488.097 129.761 488.892 128.42C489.688 127.08 490.081 125.068 490.074 122.386C490.074 120.621 489.892 119.152 489.528 117.977C489.172 116.803 488.665 115.92 488.006 115.33C487.354 114.739 486.585 114.443 485.699 114.443C484.373 114.443 483.313 115.106 482.517 116.432C481.722 117.758 481.32 119.742 481.312 122.386C481.312 124.174 481.491 125.667 481.847 126.864C482.21 128.053 482.722 128.947 483.381 129.545C484.04 130.136 484.812 130.432 485.699 130.432ZM507.537 134.318C506.34 134.311 505.185 134.11 504.071 133.716C502.965 133.322 501.973 132.682 501.094 131.795C500.215 130.909 499.518 129.735 499.003 128.273C498.495 126.811 498.241 125.015 498.241 122.886C498.249 120.932 498.473 119.186 498.912 117.648C499.359 116.102 499.995 114.792 500.821 113.716C501.654 112.64 502.651 111.822 503.81 111.261C504.969 110.693 506.268 110.409 507.707 110.409C509.26 110.409 510.632 110.712 511.821 111.318C513.01 111.917 513.965 112.731 514.685 113.761C515.412 114.792 515.851 115.947 516.003 117.227H511.151C510.961 116.417 510.563 115.78 509.957 115.318C509.351 114.856 508.601 114.625 507.707 114.625C506.192 114.625 505.041 115.284 504.253 116.602C503.473 117.92 503.075 119.712 503.06 121.977H503.219C503.567 121.288 504.037 120.701 504.628 120.216C505.226 119.723 505.904 119.348 506.662 119.091C507.427 118.826 508.234 118.693 509.082 118.693C510.461 118.693 511.688 119.019 512.764 119.67C513.84 120.314 514.688 121.201 515.31 122.33C515.931 123.458 516.241 124.75 516.241 126.205C516.241 127.78 515.874 129.182 515.139 130.409C514.412 131.636 513.393 132.598 512.082 133.295C510.779 133.985 509.264 134.326 507.537 134.318ZM507.514 130.455C508.272 130.455 508.95 130.273 509.548 129.909C510.147 129.545 510.616 129.053 510.957 128.432C511.298 127.811 511.469 127.114 511.469 126.341C511.469 125.568 511.298 124.875 510.957 124.261C510.624 123.648 510.162 123.159 509.571 122.795C508.98 122.432 508.306 122.25 507.548 122.25C506.98 122.25 506.454 122.356 505.969 122.568C505.491 122.78 505.071 123.076 504.707 123.455C504.351 123.833 504.071 124.273 503.866 124.773C503.662 125.265 503.56 125.792 503.56 126.352C503.56 127.102 503.73 127.788 504.071 128.409C504.42 129.03 504.889 129.527 505.48 129.898C506.079 130.269 506.757 130.455 507.514 130.455ZM534.287 110.136L535.764 113.295C535.272 113.705 534.726 114.008 534.128 114.205C533.529 114.394 532.813 114.519 531.98 114.58C531.154 114.64 530.147 114.682 528.957 114.705C527.609 114.72 526.51 114.936 525.662 115.352C524.813 115.769 524.17 116.424 523.73 117.318C523.291 118.205 523.003 119.364 522.866 120.795H523.037C523.56 119.727 524.295 118.902 525.241 118.318C526.196 117.735 527.374 117.443 528.776 117.443C530.26 117.443 531.56 117.769 532.673 118.42C533.795 119.072 534.666 120.008 535.287 121.227C535.908 122.447 536.219 123.909 536.219 125.614C536.219 127.386 535.87 128.928 535.173 130.239C534.484 131.542 533.503 132.553 532.23 133.273C530.957 133.985 529.442 134.341 527.685 134.341C525.92 134.341 524.397 133.97 523.116 133.227C521.844 132.485 520.859 131.39 520.162 129.943C519.473 128.496 519.128 126.716 519.128 124.602V123.17C519.128 118.966 519.946 115.848 521.582 113.818C523.219 111.788 525.624 110.758 528.798 110.727C529.662 110.712 530.442 110.708 531.139 110.716C531.836 110.723 532.446 110.689 532.969 110.614C533.499 110.538 533.938 110.379 534.287 110.136ZM527.707 130.591C528.45 130.591 529.086 130.398 529.616 130.011C530.154 129.625 530.567 129.072 530.855 128.352C531.151 127.633 531.298 126.773 531.298 125.773C531.298 124.78 531.151 123.939 530.855 123.25C530.567 122.553 530.154 122.023 529.616 121.659C529.079 121.295 528.435 121.114 527.685 121.114C527.124 121.114 526.62 121.216 526.173 121.42C525.726 121.625 525.344 121.928 525.026 122.33C524.715 122.723 524.473 123.212 524.298 123.795C524.132 124.371 524.048 125.03 524.048 125.773C524.048 127.265 524.37 128.443 525.014 129.307C525.666 130.163 526.563 130.591 527.707 130.591Z" fill="#7E7E7E"/>
<path id="405&#208;&#177;" d="M462.534 271.909V268.034L472.25 252.727H475.591V258.091H473.614L467.489 267.784V267.966H481.295V271.909H462.534ZM473.705 276V270.727L473.795 269.011V252.727H478.409V276H473.705ZM493.699 276.511C491.744 276.504 490.063 276.023 488.653 275.068C487.252 274.114 486.172 272.731 485.415 270.92C484.665 269.11 484.294 266.932 484.301 264.386C484.301 261.848 484.676 259.686 485.426 257.898C486.184 256.11 487.263 254.75 488.665 253.818C490.074 252.879 491.752 252.409 493.699 252.409C495.646 252.409 497.32 252.879 498.722 253.818C500.131 254.758 501.214 256.121 501.972 257.909C502.729 259.689 503.104 261.848 503.097 264.386C503.097 266.939 502.718 269.121 501.96 270.932C501.21 272.742 500.134 274.125 498.733 275.08C497.331 276.034 495.653 276.511 493.699 276.511ZM493.699 272.432C495.032 272.432 496.097 271.761 496.892 270.42C497.688 269.08 498.081 267.068 498.074 264.386C498.074 262.621 497.892 261.152 497.528 259.977C497.172 258.803 496.665 257.92 496.006 257.33C495.354 256.739 494.585 256.443 493.699 256.443C492.373 256.443 491.313 257.106 490.517 258.432C489.722 259.758 489.32 261.742 489.312 264.386C489.312 266.174 489.491 267.667 489.847 268.864C490.21 270.053 490.722 270.947 491.381 271.545C492.04 272.136 492.812 272.432 493.699 272.432ZM515.105 276.318C513.499 276.318 512.067 276.023 510.81 275.432C509.56 274.841 508.567 274.027 507.832 272.989C507.098 271.951 506.715 270.761 506.685 269.42H511.457C511.51 270.322 511.889 271.053 512.594 271.614C513.298 272.174 514.135 272.455 515.105 272.455C515.878 272.455 516.56 272.284 517.151 271.943C517.749 271.595 518.215 271.114 518.548 270.5C518.889 269.879 519.06 269.167 519.06 268.364C519.06 267.545 518.885 266.826 518.537 266.205C518.196 265.583 517.723 265.098 517.116 264.75C516.51 264.402 515.817 264.223 515.037 264.216C514.355 264.216 513.692 264.356 513.048 264.636C512.412 264.917 511.916 265.299 511.56 265.784L507.185 265L508.287 252.727H522.514V256.75H512.344L511.741 262.58H511.878C512.287 262.004 512.904 261.527 513.73 261.148C514.556 260.769 515.48 260.58 516.503 260.58C517.904 260.58 519.154 260.909 520.253 261.568C521.351 262.227 522.219 263.133 522.855 264.284C523.491 265.428 523.806 266.746 523.798 268.239C523.806 269.807 523.442 271.201 522.707 272.42C521.98 273.633 520.961 274.587 519.651 275.284C518.348 275.973 516.832 276.318 515.105 276.318ZM541.787 252.136L543.264 255.295C542.772 255.705 542.226 256.008 541.628 256.205C541.029 256.394 540.313 256.519 539.48 256.58C538.654 256.64 537.647 256.682 536.457 256.705C535.109 256.72 534.01 256.936 533.162 257.352C532.313 257.769 531.67 258.424 531.23 259.318C530.791 260.205 530.503 261.364 530.366 262.795H530.537C531.06 261.727 531.795 260.902 532.741 260.318C533.696 259.735 534.874 259.443 536.276 259.443C537.76 259.443 539.06 259.769 540.173 260.42C541.295 261.072 542.166 262.008 542.787 263.227C543.408 264.447 543.719 265.909 543.719 267.614C543.719 269.386 543.37 270.928 542.673 272.239C541.984 273.542 541.003 274.553 539.73 275.273C538.457 275.985 536.942 276.341 535.185 276.341C533.42 276.341 531.897 275.97 530.616 275.227C529.344 274.485 528.359 273.39 527.662 271.943C526.973 270.496 526.628 268.716 526.628 266.602V265.17C526.628 260.966 527.446 257.848 529.082 255.818C530.719 253.788 533.124 252.758 536.298 252.727C537.162 252.712 537.942 252.708 538.639 252.716C539.336 252.723 539.946 252.689 540.469 252.614C540.999 252.538 541.438 252.379 541.787 252.136ZM535.207 272.591C535.95 272.591 536.586 272.398 537.116 272.011C537.654 271.625 538.067 271.072 538.355 270.352C538.651 269.633 538.798 268.773 538.798 267.773C538.798 266.78 538.651 265.939 538.355 265.25C538.067 264.553 537.654 264.023 537.116 263.659C536.579 263.295 535.935 263.114 535.185 263.114C534.624 263.114 534.12 263.216 533.673 263.42C533.226 263.625 532.844 263.928 532.526 264.33C532.215 264.723 531.973 265.212 531.798 265.795C531.632 266.371 531.548 267.03 531.548 267.773C531.548 269.265 531.87 270.443 532.514 271.307C533.166 272.163 534.063 272.591 535.207 272.591Z" fill="#7E7E7E"/>
<path id="404&#208;&#177;" d="M464.534 373.909V370.034L474.25 354.727H477.591V360.091H475.614L469.489 369.784V369.966H483.295V373.909H464.534ZM475.705 378V372.727L475.795 371.011V354.727H480.409V378H475.705ZM495.699 378.511C493.744 378.504 492.063 378.023 490.653 377.068C489.252 376.114 488.172 374.731 487.415 372.92C486.665 371.11 486.294 368.932 486.301 366.386C486.301 363.848 486.676 361.686 487.426 359.898C488.184 358.11 489.263 356.75 490.665 355.818C492.074 354.879 493.752 354.409 495.699 354.409C497.646 354.409 499.32 354.879 500.722 355.818C502.131 356.758 503.214 358.121 503.972 359.909C504.729 361.689 505.104 363.848 505.097 366.386C505.097 368.939 504.718 371.121 503.96 372.932C503.21 374.742 502.134 376.125 500.733 377.08C499.331 378.034 497.653 378.511 495.699 378.511ZM495.699 374.432C497.032 374.432 498.097 373.761 498.892 372.42C499.688 371.08 500.081 369.068 500.074 366.386C500.074 364.621 499.892 363.152 499.528 361.977C499.172 360.803 498.665 359.92 498.006 359.33C497.354 358.739 496.585 358.443 495.699 358.443C494.373 358.443 493.313 359.106 492.517 360.432C491.722 361.758 491.32 363.742 491.312 366.386C491.312 368.174 491.491 369.667 491.847 370.864C492.21 372.053 492.722 372.947 493.381 373.545C494.04 374.136 494.812 374.432 495.699 374.432ZM508.253 373.909V370.034L517.969 354.727H521.31V360.091H519.332L513.207 369.784V369.966H527.014V373.909H508.253ZM519.423 378V372.727L519.514 371.011V354.727H524.128V378H519.423ZM544.849 354.136L546.327 357.295C545.834 357.705 545.289 358.008 544.69 358.205C544.092 358.394 543.376 358.519 542.543 358.58C541.717 358.64 540.709 358.682 539.52 358.705C538.171 358.72 537.073 358.936 536.224 359.352C535.376 359.769 534.732 360.424 534.293 361.318C533.853 362.205 533.565 363.364 533.429 364.795H533.599C534.122 363.727 534.857 362.902 535.804 362.318C536.759 361.735 537.937 361.443 539.338 361.443C540.823 361.443 542.122 361.769 543.236 362.42C544.357 363.072 545.228 364.008 545.849 365.227C546.471 366.447 546.781 367.909 546.781 369.614C546.781 371.386 546.433 372.928 545.736 374.239C545.046 375.542 544.065 376.553 542.793 377.273C541.52 377.985 540.005 378.341 538.247 378.341C536.482 378.341 534.959 377.97 533.679 377.227C532.406 376.485 531.421 375.39 530.724 373.943C530.035 372.496 529.69 370.716 529.69 368.602V367.17C529.69 362.966 530.509 359.848 532.145 357.818C533.781 355.788 536.187 354.758 539.361 354.727C540.224 354.712 541.005 354.708 541.702 354.716C542.399 354.723 543.009 354.689 543.531 354.614C544.062 354.538 544.501 354.379 544.849 354.136ZM538.27 374.591C539.012 374.591 539.649 374.398 540.179 374.011C540.717 373.625 541.13 373.072 541.418 372.352C541.713 371.633 541.861 370.773 541.861 369.773C541.861 368.78 541.713 367.939 541.418 367.25C541.13 366.553 540.717 366.023 540.179 365.659C539.641 365.295 538.997 365.114 538.247 365.114C537.687 365.114 537.183 365.216 536.736 365.42C536.289 365.625 535.906 365.928 535.588 366.33C535.277 366.723 535.035 367.212 534.861 367.795C534.694 368.371 534.611 369.03 534.611 369.773C534.611 371.265 534.933 372.443 535.577 373.307C536.228 374.163 537.126 374.591 538.27 374.591Z" fill="#7E7E7E"/>
<path id="Vector" d="M476 468.875C476 467.847 476.5 466.862 477.391 466.135C478.282 465.408 479.49 465 480.75 465H509.25C510.51 465 511.718 465.408 512.609 466.135C513.5 466.862 514 467.847 514 468.875V484.375C514 485.403 513.5 486.388 512.609 487.115C511.718 487.842 510.51 488.25 509.25 488.25H480.75C479.49 488.25 478.282 487.842 477.391 487.115C476.5 486.388 476 485.403 476 484.375V468.875ZM503.707 472.537C505.327 472.537 506.412 473.448 506.526 474.682H509.25V474.469C509.124 472.169 506.818 470.594 503.688 470.594C499.878 470.594 497.708 472.628 497.708 475.924V477.371C497.708 480.665 499.857 482.66 503.688 482.66C506.809 482.66 509.115 481.126 509.25 478.903V478.683H506.526C506.412 479.874 505.346 480.717 503.707 480.717C501.714 480.717 500.576 479.516 500.576 477.371V475.933C500.576 473.779 501.736 472.537 503.707 472.537ZM489.01 474.331H489.115L491.537 482.438H493.926L497.375 470.814H494.568L492.62 479.252H492.487L490.179 470.814H487.946L485.638 479.252H485.512L483.548 470.814H480.75L484.198 482.438H486.585L489.01 474.331Z" fill="#7E7E7E"/>
<path id="Vector_2" d="M476 514.875C476 513.847 476.5 512.862 477.391 512.135C478.282 511.408 479.49 511 480.75 511H509.25C510.51 511 511.718 511.408 512.609 512.135C513.5 512.862 514 513.847 514 514.875V530.375C514 531.403 513.5 532.388 512.609 533.115C511.718 533.842 510.51 534.25 509.25 534.25H480.75C479.49 534.25 478.282 533.842 477.391 533.115C476.5 532.388 476 531.403 476 530.375V514.875ZM503.707 518.537C505.327 518.537 506.412 519.448 506.526 520.682H509.25V520.469C509.124 518.169 506.818 516.594 503.688 516.594C499.878 516.594 497.708 518.628 497.708 521.924V523.371C497.708 526.665 499.857 528.66 503.688 528.66C506.809 528.66 509.115 527.126 509.25 524.903V524.683H506.526C506.412 525.874 505.346 526.717 503.707 526.717C501.714 526.717 500.576 525.516 500.576 523.371V521.933C500.576 519.779 501.736 518.537 503.707 518.537ZM489.01 520.331H489.115L491.537 528.438H493.926L497.375 516.814H494.568L492.62 525.252H492.487L490.179 516.814H487.946L485.638 525.252H485.512L483.548 516.814H480.75L484.198 528.438H486.585L489.01 520.331Z" fill="#7E7E7E"/>
<g id="ladder 1">
<path id="Vector_3" d="M132.656 650.875C133.029 650.875 133.387 651.026 133.651 651.296C133.914 651.566 134.062 651.931 134.062 652.312V653.75H150.938V652.312C150.938 651.931 151.086 651.566 151.349 651.296C151.613 651.026 151.971 650.875 152.344 650.875C152.717 650.875 153.074 651.026 153.338 651.296C153.602 651.566 153.75 651.931 153.75 652.312V692.562C153.75 692.944 153.602 693.309 153.338 693.579C153.074 693.849 152.717 694 152.344 694C151.971 694 151.613 693.849 151.349 693.579C151.086 693.309 150.938 692.944 150.938 692.562V691.125H134.062V692.562C134.062 692.944 133.914 693.309 133.651 693.579C133.387 693.849 133.029 694 132.656 694C132.283 694 131.926 693.849 131.662 693.579C131.398 693.309 131.25 692.944 131.25 692.562V652.312C131.25 651.931 131.398 651.566 131.662 651.296C131.926 651.026 132.283 650.875 132.656 650.875ZM134.062 688.25H150.938V682.5H134.062V688.25ZM134.062 679.625H150.938V673.875H134.062V679.625ZM134.062 671H150.938V665.25H134.062V671ZM134.062 662.375H150.938V656.625H134.062V662.375Z" fill="#D9D9D9"/>
</g>
<g id="ladder 1_2">
<path id="Vector_4" d="M585.656 69.875C586.029 69.875 586.387 70.0265 586.651 70.296C586.914 70.5656 587.062 70.9313 587.062 71.3125V72.75H603.938V71.3125C603.938 70.9313 604.086 70.5656 604.349 70.296C604.613 70.0265 604.971 69.875 605.344 69.875C605.717 69.875 606.074 70.0265 606.338 70.296C606.602 70.5656 606.75 70.9313 606.75 71.3125V111.562C606.75 111.944 606.602 112.309 606.338 112.579C606.074 112.849 605.717 113 605.344 113C604.971 113 604.613 112.849 604.349 112.579C604.086 112.309 603.938 111.944 603.938 111.562V110.125H587.062V111.562C587.062 111.944 586.914 112.309 586.651 112.579C586.387 112.849 586.029 113 585.656 113C585.283 113 584.926 112.849 584.662 112.579C584.398 112.309 584.25 111.944 584.25 111.562V71.3125C584.25 70.9313 584.398 70.5656 584.662 70.296C584.926 70.0265 585.283 69.875 585.656 69.875ZM587.062 107.25H603.938V101.5H587.062V107.25ZM587.062 98.625H603.938V92.875H587.062V98.625ZM587.062 90H603.938V84.25H587.062V90ZM587.062 81.375H603.938V75.625H587.062V81.375Z" fill="#D9D9D9"/>
</g>
<g id="ladder 1_3" clip-path="url(#clip0_0_1)">
<path id="Vector_5" d="M470.875 447.344C470.875 446.971 471.026 446.613 471.296 446.349C471.566 446.086 471.931 445.938 472.312 445.938H473.75V429.062H472.312C471.931 429.062 471.566 428.914 471.296 428.651C471.026 428.387 470.875 428.029 470.875 427.656C470.875 427.283 471.026 426.926 471.296 426.662C471.566 426.398 471.931 426.25 472.312 426.25H512.562C512.944 426.25 513.309 426.398 513.579 426.662C513.849 426.926 514 427.283 514 427.656C514 428.029 513.849 428.387 513.579 428.651C513.309 428.914 512.944 429.062 512.562 429.062H511.125V445.938H512.562C512.944 445.938 513.309 446.086 513.579 446.349C513.849 446.613 514 446.971 514 447.344C514 447.717 513.849 448.074 513.579 448.338C513.309 448.602 512.944 448.75 512.562 448.75H472.312C471.931 448.75 471.566 448.602 471.296 448.338C471.026 448.074 470.875 447.717 470.875 447.344ZM508.25 445.938V429.062H502.5V445.938H508.25ZM499.625 445.938V429.062H493.875V445.938H499.625ZM491 445.938V429.062H485.25V445.938H491ZM482.375 445.938V429.062H476.625V445.938H482.375Z" fill="#D9D9D9"/>
</g>
</g>
<defs>
<filter id="filter0_f_0_1" x="184" y="107" width="456" height="510" filterUnits="userSpaceOnUse" color-interpolation-filters="sRGB">
<feFlood flood-opacity="0" result="BackgroundImageFix"/>
<feBlend mode="normal" in="SourceGraphic" in2="BackgroundImageFix" result="shape"/>
<feGaussianBlur stdDeviation="3" result="effect1_foregroundBlur_0_1"/>
</filter>
<filter id="filter1_d_0_1" x="168" y="606" width="137" height="138" filterUnits="userSpaceOnUse" color-interpolation-filters="sRGB">
<feFlood flood-opacity="0" result="BackgroundImageFix"/>
<feColorMatrix in="SourceAlpha" type="matrix" values="0 0 0 0 0 0 0 0 0 0 0 0 0 0 0 0 0 0 127 0" result="hardAlpha"/>
<feOffset dy="4"/>
<feGaussianBlur stdDeviation="2"/>
<feComposite in2="hardAlpha" operator="out"/>
<feColorMatrix type="matrix" values="0 0 0 0 0 0 0 0 0 0 0 0 0 0 0 0 0 0 0.25 0"/>
<feBlend mode="normal" in2="BackgroundImageFix" result="effect1_dropShadow_0_1"/>
<feBlend mode="normal" in="SourceGraphic" in2="effect1_dropShadow_0_1" result="shape"/>
</filter>
<filter id="filter2_d_0_1" x="299" y="606" width="156" height="138" filterUnits="userSpaceOnUse" color-interpolation-filters="sRGB">
<feFlood flood-opacity="0" result="BackgroundImageFix"/>
<feColorMatrix in="SourceAlpha" type="matrix" values="0 0 0 0 0 0 0 0 0 0 0 0 0 0 0 0 0 0 127 0" result="hardAlpha"/>
<feOffset dy="4"/>
<feGaussianBlur stdDeviation="2"/>
<feComposite in2="hardAlpha" operator="out"/>
<feColorMatrix type="matrix" values="0 0 0 0 0 0 0 0 0 0 0 0 0 0 0 0 0 0 0.25 0"/>
<feBlend mode="normal" in2="BackgroundImageFix" result="effect1_dropShadow_0_1"/>
<feBlend mode="normal" in="SourceGraphic" in2="effect1_dropShadow_0_1" result="shape"/>
</filter>
<filter id="filter3_d_0_1" x="599" y="455" width="112" height="102" filterUnits="userSpaceOnUse" color-interpolation-filters="sRGB">
<feFlood flood-opacity="0" result="BackgroundImageFix"/>
<feColorMatrix in="SourceAlpha" type="matrix" values="0 0 0 0 0 0 0 0 0 0 0 0 0 0 0 0 0 0 127 0" result="hardAlpha"/>
<feOffset dy="4"/>
<feGaussianBlur stdDeviation="2"/>
<feComposite in2="hardAlpha" operator="out"/>
<feColorMatrix type="matrix" values="0 0 0 0 0 0 0 0 0 0 0 0 0 0 0 0 0 0 0.25 0"/>
<feBlend mode="normal" in2="BackgroundImageFix" result="effect1_dropShadow_0_1"/>
<feBlend mode="normal" in="SourceGraphic" in2="effect1_dropShadow_0_1" result="shape"/>
</filter>
<filter id="filter4_d_0_1" x="599" y="307" width="126" height="154" filterUnits="userSpaceOnUse" color-interpolation-filters="sRGB">
<feFlood flood-opacity="0" result="BackgroundImageFix"/>
<feColorMatrix in="SourceAlpha" type="matrix" values="0 0 0 0 0 0 0 0 0 0 0 0 0 0 0 0 0 0 127 0" result="hardAlpha"/>
<feOffset dy="4"/>
<feGaussianBlur stdDeviation="2"/>
<feComposite in2="hardAlpha" operator="out"/>
<feColorMatrix type="matrix" values="0 0 0 0 0 0 0 0 0 0 0 0 0 0 0 0 0 0 0.25 0"/>
<feBlend mode="normal" in2="BackgroundImageFix" result="effect1_dropShadow_0_1"/>
<feBlend mode="normal" in="SourceGraphic" in2="effect1_dropShadow_0_1" result="shape"/>
</filter>
<filter id="filter5_d_0_1" x="449" y="457" width="92" height="49" filterUnits="userSpaceOnUse" color-interpolation-filters="sRGB">
<feFlood flood-opacity="0" result="BackgroundImageFix"/>
<feColorMatrix in="SourceAlpha" type="matrix" values="0 0 0 0 0 0 0 0 0 0 0 0 0 0 0 0 0 0 127 0" result="hardAlpha"/>
<feOffset dy="4"/>
<feGaussianBlur stdDeviation="2"/>
<feComposite in2="hardAlpha" operator="out"/>
<feColorMatrix type="matrix" values="0 0 0 0 0 0 0 0 0 0 0 0 0 0 0 0 0 0 0.25 0"/>
<feBlend mode="normal" in2="BackgroundImageFix" result="effect1_dropShadow_0_1"/>
<feBlend mode="normal" in="SourceGraphic" in2="effect1_dropShadow_0_1" result="shape"/>
</filter>
<filter id="filter6_d_0_1" x="449" y="500" width="92" height="54" filterUnits="userSpaceOnUse" color-interpolation-filters="sRGB">
<feFlood flood-opacity="0" result="BackgroundImageFix"/>
<feColorMatrix in="SourceAlpha" type="matrix" values="0 0 0 0 0 0 0 0 0 0 0 0 0 0 0 0 0 0 127 0" result="hardAlpha"/>
<feOffset dy="4"/>
<feGaussianBlur stdDeviation="2"/>
<feComposite in2="hardAlpha" operator="out"/>
<feColorMatrix type="matrix" values="0 0 0 0 0 0 0 0 0 0 0 0 0 0 0 0 0 0 0.25 0"/>
<feBlend mode="normal" in2="BackgroundImageFix" result="effect1_dropShadow_0_1"/>
<feBlend mode="normal" in="SourceGraphic" in2="effect1_dropShadow_0_1" result="shape"/>
</filter>
<filter id="filter7_d_0_1" x="535" y="481" width="34" height="44" filterUnits="userSpaceOnUse" color-interpolation-filters="sRGB">
<feFlood flood-opacity="0" result="BackgroundImageFix"/>
<feColorMatrix in="SourceAlpha" type="matrix" values="0 0 0 0 0 0 0 0 0 0 0 0 0 0 0 0 0 0 127 0" result="hardAlpha"/>
<feOffset dy="4"/>
<feGaussianBlur stdDeviation="2"/>
<feComposite in2="hardAlpha" operator="out"/>
<feColorMatrix type="matrix" values="0 0 0 0 0 0 0 0 0 0 0 0 0 0 0 0 0 0 0.25 0"/>
<feBlend mode="normal" in2="BackgroundImageFix" result="effect1_dropShadow_0_1"/>
<feBlend mode="normal" in="SourceGraphic" in2="effect1_dropShadow_0_1" result="shape"/>
</filter>
<filter id="filter8_d_0_1" x="599" y="158" width="126" height="155" filterUnits="userSpaceOnUse" color-interpolation-filters="sRGB">
<feFlood flood-opacity="0" result="BackgroundImageFix"/>
<feColorMatrix in="SourceAlpha" type="matrix" values="0 0 0 0 0 0 0 0 0 0 0 0 0 0 0 0 0 0 127 0" result="hardAlpha"/>
<feOffset dy="4"/>
<feGaussianBlur stdDeviation="2"/>
<feComposite in2="hardAlpha" operator="out"/>
<feColorMatrix type="matrix" values="0 0 0 0 0 0 0 0 0 0 0 0 0 0 0 0 0 0 0.25 0"/>
<feBlend mode="normal" in2="BackgroundImageFix" result="effect1_dropShadow_0_1"/>
<feBlend mode="normal" in="SourceGraphic" in2="effect1_dropShadow_0_1" result="shape"/>
</filter>
<filter id="filter9_d_0_1" x="625" y="35" width="91" height="129" filterUnits="userSpaceOnUse" color-interpolation-filters="sRGB">
<feFlood flood-opacity="0" result="BackgroundImageFix"/>
<feColorMatrix in="SourceAlpha" type="matrix" values="0 0 0 0 0 0 0 0 0 0 0 0 0 0 0 0 0 0 127 0" result="hardAlpha"/>
<feOffset dy="4"/>
<feGaussianBlur stdDeviation="2"/>
<feComposite in2="hardAlpha" operator="out"/>
<feColorMatrix type="matrix" values="0 0 0 0 0 0 0 0 0 0 0 0 0 0 0 0 0 0 0.25 0"/>
<feBlend mode="normal" in2="BackgroundImageFix" result="effect1_dropShadow_0_1"/>
<feBlend mode="normal" in="SourceGraphic" in2="effect1_dropShadow_0_1" result="shape"/>
</filter>
<filter id="filter10_d_0_1" x="441" y="38" width="125" height="182" filterUnits="userSpaceOnUse" color-interpolation-filters="sRGB">
<feFlood flood-opacity="0" result="BackgroundImageFix"/>
<feColorMatrix in="SourceAlpha" type="matrix" values="0 0 0 0 0 0 0 0 0 0 0 0 0 0 0 0 0 0 127 0" result="hardAlpha"/>
<feOffset dy="4"/>
<feGaussianBlur stdDeviation="2"/>
<feComposite in2="hardAlpha" operator="out"/>
<feColorMatrix type="matrix" values="0 0 0 0 0 0 0 0 0 0 0 0 0 0 0 0 0 0 0.25 0"/>
<feBlend mode="normal" in2="BackgroundImageFix" result="effect1_dropShadow_0_1"/>
<feBlend mode="normal" in="SourceGraphic" in2="effect1_dropShadow_0_1" result="shape"/>
</filter>
<filter id="filter11_d_0_1" x="447" y="214" width="119" height="112" filterUnits="userSpaceOnUse" color-interpolation-filters="sRGB">
<feFlood flood-opacity="0" result="BackgroundImageFix"/>
<feColorMatrix in="SourceAlpha" type="matrix" values="0 0 0 0 0 0 0 0 0 0 0 0 0 0 0 0 0 0 127 0" result="hardAlpha"/>
<feOffset dy="4"/>
<feGaussianBlur stdDeviation="2"/>
<feComposite in2="hardAlpha" operator="out"/>
<feColorMatrix type="matrix" values="0 0 0 0 0 0 0 0 0 0 0 0 0 0 0 0 0 0 0.25 0"/>
<feBlend mode="normal" in2="BackgroundImageFix" result="effect1_dropShadow_0_1"/>
<feBlend mode="normal" in="SourceGraphic" in2="effect1_dropShadow_0_1" result="shape"/>
</filter>
<filter id="filter12_d_0_1" x="447" y="320" width="119" height="104" filterUnits="userSpaceOnUse" color-interpolation-filters="sRGB">
<feFlood flood-opacity="0" result="BackgroundImageFix"/>
<feColorMatrix in="SourceAlpha" type="matrix" values="0 0 0 0 0 0 0 0 0 0 0 0 0 0 0 0 0 0 127 0" result="hardAlpha"/>
<feOffset dy="4"/>
<feGaussianBlur stdDeviation="2"/>
<feComposite in2="hardAlpha" operator="out"/>
<feColorMatrix type="matrix" values="0 0 0 0 0 0 0 0 0 0 0 0 0 0 0 0 0 0 0.25 0"/>
<feBlend mode="normal" in2="BackgroundImageFix" result="effect1_dropShadow_0_1"/>
<feBlend mode="normal" in="SourceGraphic" in2="effect1_dropShadow_0_1" result="shape"/>
</filter>
<filter id="filter13_d_0_1" x="449" y="551" width="262" height="172" filterUnits="userSpaceOnUse" color-interpolation-filters="sRGB">
<feFlood flood-opacity="0" result="BackgroundImageFix"/>
<feColorMatrix in="SourceAlpha" type="matrix" values="0 0 0 0 0 0 0 0 0 0 0 0 0 0 0 0 0 0 127 0" result="hardAlpha"/>
<feOffset dy="4"/>
<feGaussianBlur stdDeviation="2"/>
<feComposite in2="hardAlpha" operator="out"/>
<feColorMatrix type="matrix" values="0 0 0 0 0 0 0 0 0 0 0 0 0 0 0 0 0 0 0.25 0"/>
<feBlend mode="normal" in2="BackgroundImageFix" result="effect1_dropShadow_0_1"/>
<feBlend mode="normal" in="SourceGraphic" in2="effect1_dropShadow_0_1" result="shape"/>
</filter>
<clipPath id="clip0_0_1">
<rect width="45" height="46" fill="white" transform="matrix(0 -1 1 0 468 460)"/>
</clipPath>
</defs>
</svg>
